<?xml version="1.0" encoding="UTF-8"?><svg id="Layer_1" xmlns="http://www.w3.org/2000/svg" viewBox="0 0 527.33 369.11"><defs><style>.cls-1{fill:#0070f0;}.cls-1,.cls-2,.cls-3,.cls-4,.cls-5,.cls-6,.cls-7,.cls-8,.cls-9{stroke-width:0px;}.cls-2{fill:#0071ef;}.cls-10{stroke:#fff;}.cls-10,.cls-11,.cls-12,.cls-13,.cls-14,.cls-15,.cls-16{fill:none;}.cls-10,.cls-17,.cls-13,.cls-14,.cls-15,.cls-18,.cls-16,.cls-19{stroke-miterlimit:10;}.cls-11{stroke:#1c1840;}.cls-11,.cls-12{stroke-linecap:round;stroke-linejoin:round;stroke-width:6px;}.cls-20{isolation:isolate;}.cls-17,.cls-12,.cls-18,.cls-19{stroke:#d6d7d7;}.cls-17,.cls-13,.cls-16{stroke-width:3px;}.cls-17,.cls-18,.cls-5,.cls-19,.cls-7{fill:#fff;}.cls-3{fill:#c8e4f6;}.cls-13{stroke:#009c3a;}.cls-14{stroke:#2f6aac;}.cls-15{stroke:#9ebae0;}.cls-16{stroke:#0070f0;}.cls-4{fill:#030404;}.cls-19{stroke-width:2px;}.cls-6{fill:#ededed;}.cls-7{fill-rule:evenodd;}.cls-8{fill:#1c1840;}.cls-9{fill:#1d1d1b;}</style></defs><circle class="cls-10" cx="70.28" cy="81.03" r="69.78"/><circle class="cls-10" cx="71.11" cy="81.03" r="45.08"/><rect class="cls-17" x="26.94" y="45.75" width="424.17" height="83.72" rx="13.73" ry="13.73"/><rect class="cls-19" x="82.67" y="139.66" width="86.64" height="67.32" rx="10.68" ry="10.68"/><rect class="cls-19" x="178.44" y="139.66" width="100.71" height="67.32" rx="10.68" ry="10.68"/><rect class="cls-19" x="288.6" y="139.66" width="108.02" height="67.32" rx="10.68" ry="10.68"/><rect class="cls-19" x="406.45" y="139.66" width="118.7" height="67.32" rx="10.68" ry="10.68"/><rect class="cls-3" x="110.61" y="72.21" width="96" height="18.98" rx="3.76" ry="3.76"/><rect class="cls-3" x="214.43" y="72.42" width="96" height="18.98" rx="4.48" ry="4.48"/><rect class="cls-2" x="419.93" y="343.86" width="107.4" height="25.25" rx="4.48" ry="4.48"/><rect class="cls-6" x="316.51" y="73.15" width="54.42" height="16.68" rx="2.15" ry="2.15"/><rect class="cls-6" x="376.84" y="73.15" width="54.42" height="16.68" rx="2.27" ry="2.27"/><g class="cls-20"><g class="cls-20"><path class="cls-8" d="m122.46,62.74c-.18.33-.45.59-.83.79-.38.2-.85.3-1.43.3h-1.17v2.68h-1.4v-6.98h2.57c.54,0,1,.09,1.38.28.38.19.67.44.85.77.19.33.28.7.28,1.11,0,.37-.09.72-.26,1.05Zm-1.46-.29c.19-.19.28-.44.28-.76s-.09-.59-.28-.77c-.19-.18-.47-.28-.86-.28h-1.11v2.09h1.11c.38,0,.67-.09.85-.28Z"/><path class="cls-8" d="m125.81,61.17c.29-.19.62-.28,1-.28v1.47h-.37c-.44,0-.77.1-1,.31-.22.21-.33.57-.33,1.08v2.76h-1.4v-5.54h1.4v.98c.18-.33.42-.59.71-.78Z"/><path class="cls-8" d="m128.77,66.25c-.43-.24-.76-.57-1-1-.24-.43-.37-.93-.37-1.5s.12-1.07.38-1.5c.25-.43.59-.77,1.03-1.01.43-.24.92-.35,1.45-.35s1.02.12,1.45.35c.43.24.77.57,1.02,1.01.25.43.38.93.38,1.5s-.13,1.07-.39,1.5c-.26.43-.6.77-1.04,1-.44.24-.93.35-1.47.35s-1.01-.12-1.44-.35Zm2.16-1.04c.22-.13.4-.32.53-.57s.2-.55.2-.9-.07-.66-.2-.91-.31-.44-.52-.57c-.22-.13-.45-.19-.71-.19-.39,0-.73.14-1,.43s-.41.7-.41,1.23.13.93.4,1.22c.27.29.6.43.99.43.25,0,.49-.06.72-.19Z"/><path class="cls-8" d="m134.1,62.23c.22-.43.53-.77.92-1s.82-.35,1.29-.35c.36,0,.7.08,1.03.24.33.16.59.36.78.62v-2.63h1.42v7.4h-1.42v-.82c-.17.27-.42.49-.73.66-.31.17-.68.25-1.09.25-.47,0-.89-.12-1.28-.36-.39-.24-.69-.58-.92-1.02-.22-.44-.33-.94-.33-1.5s.11-1.06.33-1.49Zm3.83.64c-.13-.24-.31-.43-.54-.56-.23-.13-.47-.2-.73-.2s-.5.06-.72.19-.4.31-.54.55c-.14.24-.21.53-.21.87s.07.62.21.88.32.44.54.58c.22.13.46.2.72.2s.5-.07.73-.2c.23-.13.41-.32.54-.56.13-.24.2-.54.2-.88s-.07-.63-.2-.88Z"/><path class="cls-8" d="m146.14,60.97v5.54h-1.41v-.7c-.18.24-.41.43-.7.57s-.6.21-.95.21c-.43,0-.82-.09-1.15-.28s-.59-.45-.79-.81c-.19-.36-.28-.78-.28-1.28v-3.25h1.4v3.05c0,.44.11.78.33,1.02.22.24.52.35.9.35s.69-.12.91-.35c.22-.24.33-.58.33-1.02v-3.05h1.41Z"/><path class="cls-8" d="m147.51,62.23c.23-.43.56-.76.97-1,.41-.24.89-.35,1.42-.35.69,0,1.26.17,1.71.51.45.34.75.83.91,1.45h-1.51c-.08-.24-.21-.43-.4-.57-.19-.14-.43-.21-.71-.21-.4,0-.72.15-.95.44s-.35.7-.35,1.24.12.93.35,1.22.55.43.95.43c.57,0,.94-.25,1.11-.76h1.51c-.15.6-.46,1.08-.91,1.43-.45.35-1.02.53-1.7.53-.53,0-1.01-.12-1.42-.35-.41-.24-.74-.57-.97-1-.23-.43-.35-.93-.35-1.5s.12-1.08.35-1.51Z"/><path class="cls-8" d="m155.17,62.12v2.68c0,.19.05.32.14.41.09.08.24.12.46.12h.65v1.18h-.88c-1.18,0-1.77-.57-1.77-1.72v-2.67h-.66v-1.15h.66v-1.37h1.41v1.37h1.24v1.15h-1.24Z"/><path class="cls-8" d="m164.85,59.53v1.1h-1.86v5.88h-1.4v-5.88h-1.86v-1.1h5.12Z"/><path class="cls-8" d="m166.8,60.97l1.43,3.87,1.45-3.87h1.49l-3.43,8.16h-1.49l1.2-2.76-2.22-5.4h1.57Z"/><path class="cls-8" d="m174.06,61.13c.32-.17.68-.25,1.08-.25.47,0,.9.12,1.29.35s.69.57.91,1c.22.43.33.93.33,1.5s-.11,1.07-.33,1.5c-.22.44-.53.78-.91,1.02-.38.24-.81.36-1.29.36-.41,0-.77-.08-1.07-.25-.31-.17-.56-.38-.76-.63v3.43h-1.4v-8.18h1.4v.8c.18-.25.43-.46.75-.63Zm1.98,1.72c-.14-.24-.32-.43-.54-.55s-.46-.19-.73-.19-.49.07-.71.2c-.22.13-.4.32-.54.57-.14.25-.21.54-.21.87s.07.62.21.87c.14.25.32.44.54.57.22.13.46.2.71.2s.5-.07.73-.2c.22-.13.4-.32.54-.57.14-.25.21-.54.21-.88s-.07-.62-.21-.87Z"/><path class="cls-8" d="m183.81,64.13h-4.05c.03.41.16.73.41.96.25.23.55.35.92.35.52,0,.89-.22,1.11-.67h1.51c-.16.53-.47.97-.92,1.32-.45.34-1.01.51-1.67.51-.53,0-1.01-.12-1.44-.35-.42-.24-.75-.57-.99-1-.24-.43-.35-.93-.35-1.5s.12-1.08.35-1.51c.23-.43.56-.77.98-1s.9-.35,1.45-.35,1,.11,1.42.34.74.55.97.96.34.89.34,1.43c0,.19-.01.36-.04.52Zm-1.41-.85c0-.39-.14-.69-.39-.91-.25-.22-.56-.34-.94-.34-.35,0-.65.11-.89.34-.24.22-.38.53-.43.91h2.64Z"/></g></g><g class="cls-20"><g class="cls-20"><path class="cls-1" d="m35.19,226.25c.31-.54.73-.97,1.27-1.27.54-.3,1.14-.46,1.81-.46.78,0,1.46.2,2.05.6.59.4,1,.95,1.23,1.66h-1.61c-.17-.32-.39-.56-.68-.73-.29-.16-.62-.25-1-.25-.41,0-.77.09-1.08.28s-.56.45-.74.8c-.18.35-.27.75-.27,1.2s.09.85.27,1.2c.18.34.42.61.74.8.32.19.68.29,1.08.29.38,0,.72-.08,1-.25.29-.17.52-.41.68-.73h1.61c-.23.71-.64,1.27-1.23,1.67s-1.27.59-2.05.59c-.67,0-1.27-.15-1.81-.45-.54-.3-.96-.73-1.27-1.27s-.46-1.15-.46-1.84.15-1.3.46-1.84Z"/><path class="cls-1" d="m42.72,227.31c.22-.43.53-.77.91-1,.38-.23.81-.35,1.28-.35.41,0,.77.08,1.08.25s.56.38.75.63v-.79h1.41v5.54h-1.41v-.81c-.18.26-.43.47-.75.64-.32.17-.68.25-1.09.25-.47,0-.89-.12-1.27-.36-.38-.24-.69-.58-.91-1.02-.22-.44-.33-.94-.33-1.5s.11-1.06.33-1.49Zm3.83.64c-.13-.24-.31-.43-.54-.56-.23-.13-.47-.2-.73-.2s-.5.06-.72.19-.4.31-.54.55c-.14.24-.21.53-.21.87s.07.62.21.88.32.44.54.58c.22.13.46.2.72.2s.5-.07.73-.2c.23-.13.41-.32.54-.56.13-.24.2-.54.2-.88s-.07-.63-.2-.88Z"/><path class="cls-1" d="m50.42,231.43c-.36-.16-.64-.38-.85-.67-.21-.28-.32-.59-.34-.93h1.41c.03.23.13.42.31.57.18.14.41.21.69.21s.48-.06.62-.17c.15-.11.23-.26.23-.45s-.09-.32-.27-.41c-.18-.09-.48-.19-.88-.29-.41-.1-.74-.2-1-.3-.26-.1-.48-.26-.67-.49-.19-.22-.28-.51-.28-.87,0-.31.08-.6.25-.85s.42-.46.75-.61c.33-.15.72-.22,1.17-.22.66,0,1.19.17,1.58.5.39.33.61.77.65,1.33h-1.34c-.02-.23-.11-.42-.27-.56-.16-.14-.38-.21-.66-.21-.25,0-.45.05-.58.16s-.21.25-.21.42.09.33.28.42c.19.1.48.2.87.3.4.1.73.2.99.31.26.11.48.27.67.49s.28.51.28.88c0,.32-.09.61-.26.86-.17.26-.42.46-.75.61s-.71.22-1.16.22-.86-.08-1.21-.25Z"/><path class="cls-1" d="m60.09,229.21h-4.05c.03.41.16.73.41.96.25.23.55.35.92.35.52,0,.89-.22,1.11-.67h1.51c-.16.53-.47.97-.92,1.32-.45.34-1.01.51-1.67.51-.53,0-1.01-.12-1.44-.35-.42-.24-.75-.57-.99-1-.24-.43-.35-.93-.35-1.5s.12-1.08.35-1.51c.23-.43.56-.77.98-1s.9-.35,1.45-.35,1,.11,1.42.34.74.55.97.96.34.89.34,1.43c0,.19-.01.36-.04.52Zm-1.41-.85c0-.39-.14-.69-.39-.91-.25-.22-.56-.34-.94-.34-.35,0-.65.11-.89.34-.24.22-.38.53-.43.91h2.64Z"/><path class="cls-1" d="m64.92,231.41c-.39-.17-.7-.41-.93-.72-.23-.31-.34-.68-.35-1.11h1.5c.02.29.12.53.31.7.18.17.44.26.75.26s.58-.08.77-.24.28-.37.28-.64c0-.21-.06-.38-.19-.51-.13-.13-.29-.24-.48-.31-.19-.08-.45-.16-.79-.25-.45-.13-.82-.27-1.1-.4s-.53-.33-.73-.59c-.2-.26-.31-.62-.31-1.05,0-.41.1-.77.31-1.08s.5-.54.87-.71.8-.25,1.28-.25c.72,0,1.3.17,1.75.53.45.35.7.84.75,1.46h-1.54c-.01-.26-.12-.47-.31-.62s-.44-.24-.75-.24c-.27,0-.49.07-.66.21-.16.14-.24.36-.24.64,0,.19.06.34.18.46.12.12.28.22.46.3.18.08.44.17.78.26.45.13.82.27,1.11.4s.53.33.74.6c.21.27.31.62.31,1.05,0,.37-.1.72-.29,1.04-.19.32-.48.58-.85.77-.37.19-.82.29-1.33.29-.49,0-.93-.08-1.31-.25Z"/><path class="cls-1" d="m75.15,226.05v5.54h-1.41v-.7c-.18.24-.41.43-.7.57s-.6.21-.95.21c-.43,0-.82-.09-1.15-.28s-.59-.45-.79-.81c-.19-.36-.28-.78-.28-1.28v-3.25h1.4v3.05c0,.44.11.78.33,1.02.22.24.52.35.9.35s.69-.12.91-.35c.22-.24.33-.58.33-1.02v-3.05h1.41Z"/><path class="cls-1" d="m85.05,226.59c.42.42.62,1,.62,1.75v3.25h-1.4v-3.06c0-.43-.11-.77-.33-1-.22-.23-.52-.35-.9-.35s-.68.12-.9.35c-.22.23-.33.56-.33,1v3.06h-1.4v-3.06c0-.43-.11-.77-.33-1-.22-.23-.52-.35-.9-.35s-.69.12-.92.35c-.22.23-.33.56-.33,1v3.06h-1.4v-5.54h1.4v.67c.18-.23.41-.42.7-.55.28-.13.59-.2.94-.2.43,0,.82.09,1.16.28.34.18.6.44.79.79.18-.32.44-.58.79-.77.34-.19.71-.29,1.11-.29.68,0,1.23.21,1.65.62Z"/><path class="cls-1" d="m95.53,226.59c.42.42.62,1,.62,1.75v3.25h-1.4v-3.06c0-.43-.11-.77-.33-1-.22-.23-.52-.35-.9-.35s-.68.12-.9.35c-.22.23-.33.56-.33,1v3.06h-1.4v-3.06c0-.43-.11-.77-.33-1-.22-.23-.52-.35-.9-.35s-.69.12-.92.35c-.22.23-.33.56-.33,1v3.06h-1.4v-5.54h1.4v.67c.18-.23.41-.42.7-.55.28-.13.59-.2.94-.2.43,0,.82.09,1.16.28.34.18.6.44.79.79.18-.32.44-.58.79-.77.34-.19.71-.29,1.11-.29.68,0,1.23.21,1.65.62Z"/><path class="cls-1" d="m97.46,227.31c.22-.43.53-.77.91-1,.38-.23.81-.35,1.28-.35.41,0,.77.08,1.08.25s.56.38.75.63v-.79h1.41v5.54h-1.41v-.81c-.18.26-.43.47-.75.64-.32.17-.68.25-1.09.25-.47,0-.89-.12-1.27-.36-.38-.24-.69-.58-.91-1.02-.22-.44-.33-.94-.33-1.5s.11-1.06.33-1.49Zm3.83.64c-.13-.24-.31-.43-.54-.56-.23-.13-.47-.2-.73-.2s-.5.06-.72.19-.4.31-.54.55c-.14.24-.21.53-.21.87s.07.62.21.88.32.44.54.58c.22.13.46.2.72.2s.5-.07.73-.2c.23-.13.41-.32.54-.56.13-.24.2-.54.2-.88s-.07-.63-.2-.88Z"/><path class="cls-1" d="m106.37,226.25c.29-.19.62-.28,1-.28v1.47h-.37c-.44,0-.77.1-1,.31-.22.21-.33.57-.33,1.08v2.76h-1.4v-5.54h1.4v.98c.18-.33.42-.59.71-.78Z"/><path class="cls-1" d="m109.24,226.05l1.43,3.87,1.45-3.87h1.49l-3.43,8.16h-1.49l1.2-2.76-2.22-5.4h1.57Z"/></g></g><path class="cls-9" d="m117.58,78.25h.81l2.12,4.75,2.12-4.75h.81v5.74h-.76v-4.28l-1.91,4.28h-.53l-1.92-4.29v4.29h-.76v-5.74h.02Z"/><path class="cls-9" d="m126.71,84.07c-1.29,0-2.27-.91-2.27-2.36s1.01-2.34,2.3-2.34,2.3.9,2.3,2.34-1.04,2.36-2.33,2.36Zm0-.66c.79,0,1.56-.54,1.56-1.69s-.76-1.69-1.54-1.69-1.52.54-1.52,1.69.71,1.69,1.49,1.69h0Z"/><path class="cls-9" d="m130.79,84h-.76v-4.55h.76v.74c.26-.51.75-.82,1.47-.82v.78h-.2c-.72,0-1.27.32-1.27,1.38v2.47Z"/><path class="cls-9" d="m133.29,80.07h-.59v-.62h.59v-1.15h.76v1.15h1.19v.62h-1.19v2.68c0,.45.17.61.63.61h.56v.64h-.68c-.81,0-1.26-.33-1.26-1.25v-2.68h-.01Z"/><path class="cls-9" d="m138.02,79.37c.83,0,1.43.42,1.69.9v-.83h.76v4.65c0,1.25-.84,2.14-2.17,2.14-1.2,0-2.05-.61-2.2-1.58h.75c.17.55.71.92,1.45.92.81,0,1.41-.51,1.41-1.49v-.95c-.27.49-.86.93-1.69.93-1.22,0-2.16-.95-2.16-2.37s.94-2.33,2.16-2.33h0Zm.15.66c-.83,0-1.54.61-1.54,1.68s.71,1.7,1.54,1.7,1.54-.62,1.54-1.69-.71-1.69-1.54-1.69Z"/><path class="cls-9" d="m143.63,79.37c.85,0,1.43.43,1.69.9v-.83h.76v4.55h-.76v-.85c-.27.49-.86.92-1.7.92-1.21,0-2.15-.95-2.15-2.37s.94-2.33,2.16-2.33h0Zm.15.66c-.83,0-1.54.61-1.54,1.68s.71,1.7,1.54,1.7,1.54-.62,1.54-1.69-.71-1.69-1.54-1.69Z"/><path class="cls-9" d="m149.24,79.37c.83,0,1.43.42,1.69.9v-.83h.76v4.65c0,1.25-.84,2.14-2.17,2.14-1.2,0-2.05-.61-2.2-1.58h.75c.17.55.71.92,1.45.92.81,0,1.41-.51,1.41-1.49v-.95c-.27.49-.86.93-1.69.93-1.22,0-2.16-.95-2.16-2.37s.94-2.33,2.16-2.33h0Zm.15.66c-.83,0-1.54.61-1.54,1.68s.71,1.7,1.54,1.7,1.54-.62,1.54-1.69-.71-1.69-1.54-1.69Z"/><path class="cls-9" d="m154.94,84.07c-1.29,0-2.25-.91-2.25-2.36s.92-2.34,2.25-2.34,2.18.93,2.18,2.17c0,.17,0,.3-.02.46h-3.64c.06.92.71,1.43,1.48,1.43.68,0,1.11-.35,1.28-.84h.81c-.23.83-.96,1.48-2.09,1.48h0Zm-1.47-2.68h2.87c0-.89-.66-1.38-1.44-1.38s-1.35.49-1.44,1.38h.01Z"/><path class="cls-9" d="m119.45,102.58h-1.11v2.42h-.76v-5.79h1.87c1.36,0,2,.75,2,1.69,0,.88-.56,1.68-2,1.68Zm0-.62c.86,0,1.23-.41,1.23-1.05s-.37-1.07-1.23-1.07h-1.11v2.12h1.11Z"/><path class="cls-9" d="m123.14,105h-.76v-4.55h.76v.74c.26-.51.75-.82,1.47-.82v.78h-.2c-.72,0-1.27.32-1.27,1.38,0,0,0,2.47,0,2.47Z"/><path class="cls-9" d="m127.46,105.07c-1.29,0-2.27-.91-2.27-2.36s1.01-2.34,2.3-2.34,2.3.9,2.3,2.34-1.04,2.36-2.33,2.36Zm0-.66c.79,0,1.56-.54,1.56-1.69s-.76-1.69-1.54-1.69-1.52.54-1.52,1.69.71,1.69,1.49,1.69h0Z"/><path class="cls-9" d="m130.95,101.07h-.59v-.62h.59v-1.15h.76v1.15h1.19v.62h-1.19v2.68c0,.45.17.61.63.61h.56v.64h-.68c-.81,0-1.26-.33-1.26-1.25v-2.68h-.01Z"/><path class="cls-9" d="m135.77,105.07c-1.29,0-2.25-.91-2.25-2.36s.92-2.34,2.25-2.34,2.18.93,2.18,2.17c0,.17,0,.3-.02.46h-3.64c.06.92.71,1.43,1.48,1.43.68,0,1.11-.35,1.28-.84h.81c-.23.83-.96,1.48-2.09,1.48h0Zm-1.46-2.68h2.87c0-.89-.66-1.38-1.44-1.38s-1.35.49-1.44,1.38h.01Z"/><path class="cls-9" d="m140.89,100.37c1.13,0,1.87.58,2.1,1.54h-.81c-.16-.55-.61-.9-1.29-.9-.83,0-1.44.59-1.44,1.7s.61,1.72,1.44,1.72c.67,0,1.12-.32,1.29-.9h.81c-.23.9-.97,1.54-2.1,1.54-1.29,0-2.22-.91-2.22-2.36s.92-2.34,2.22-2.34Z"/><path class="cls-9" d="m144.15,101.07h-.59v-.62h.59v-1.15h.76v1.15h1.19v.62h-1.19v2.68c0,.45.17.61.63.61h.56v.64h-.68c-.81,0-1.26-.33-1.26-1.25v-2.68h-.01Z"/><path class="cls-9" d="m146.88,99.2c0-.29.22-.51.51-.51.27,0,.5.22.5.51s-.22.51-.5.51-.51-.22-.51-.51Zm.13,1.25h.76v4.55h-.76v-4.55Z"/><path class="cls-9" d="m151.03,105.07c-1.29,0-2.27-.91-2.27-2.36s1.01-2.34,2.3-2.34,2.3.9,2.3,2.34-1.04,2.36-2.33,2.36Zm0-.66c.79,0,1.56-.54,1.56-1.69s-.76-1.69-1.54-1.69-1.52.54-1.52,1.69.71,1.69,1.49,1.69h0Z"/><path class="cls-9" d="m157.69,102.42c0-.93-.51-1.4-1.27-1.4s-1.3.48-1.3,1.46v2.52h-.76v-4.55h.76v.65c.3-.47.85-.73,1.46-.73,1.05,0,1.86.65,1.86,1.95v2.68h-.75v-2.57h0Z"/><g class="cls-20"><g class="cls-20"><path class="cls-8" d="m224.73,59.96c.56.29.99.69,1.29,1.22s.46,1.15.46,1.84-.15,1.31-.46,1.84-.73.93-1.29,1.21c-.56.29-1.2.43-1.94.43h-2.44v-6.98h2.44c.73,0,1.38.14,1.94.43Zm-.29,4.79c.4-.41.6-.99.6-1.72s-.2-1.3-.6-1.71c-.4-.41-.97-.62-1.7-.62h-.99v4.67h.99c.73,0,1.29-.21,1.69-.62Z"/><path class="cls-8" d="m227.5,62.23c.22-.43.53-.77.91-1,.38-.23.81-.35,1.28-.35.41,0,.77.08,1.08.25s.56.38.75.63v-.79h1.41v5.54h-1.41v-.81c-.18.26-.43.47-.75.64-.32.17-.68.25-1.09.25-.47,0-.89-.12-1.27-.36-.38-.24-.69-.58-.91-1.02-.22-.44-.33-.94-.33-1.5s.11-1.06.33-1.49Zm3.83.64c-.13-.24-.31-.43-.54-.56-.23-.13-.47-.2-.73-.2s-.5.06-.72.19-.4.31-.54.55c-.14.24-.21.53-.21.87s.07.62.21.88.32.44.54.58c.22.13.46.2.72.2s.5-.07.73-.2c.23-.13.41-.32.54-.56.13-.24.2-.54.2-.88s-.07-.63-.2-.88Z"/><path class="cls-8" d="m235.93,62.12v2.68c0,.19.05.32.14.41.09.08.24.12.46.12h.65v1.18h-.88c-1.18,0-1.77-.57-1.77-1.72v-2.67h-.66v-1.15h.66v-1.37h1.41v1.37h1.24v1.15h-1.24Z"/><path class="cls-8" d="m243.29,64.13h-4.05c.03.41.16.73.41.96.25.23.55.35.92.35.52,0,.89-.22,1.11-.67h1.51c-.16.53-.47.97-.92,1.32-.45.34-1.01.51-1.67.51-.53,0-1.01-.12-1.44-.35-.42-.24-.75-.57-.99-1-.24-.43-.35-.93-.35-1.5s.12-1.08.35-1.51c.23-.43.56-.77.98-1s.9-.35,1.45-.35,1,.11,1.42.34.74.55.97.96.34.89.34,1.43c0,.19-.01.36-.04.52Zm-1.41-.85c0-.39-.14-.69-.39-.91-.25-.22-.56-.34-.94-.34-.35,0-.65.11-.89.34-.24.22-.38.53-.43.91h2.64Z"/><path class="cls-8" d="m251.78,59.53v1.1h-1.86v5.88h-1.4v-5.88h-1.86v-1.1h5.12Z"/><path class="cls-8" d="m253.73,60.97l1.43,3.87,1.45-3.87h1.49l-3.43,8.16h-1.49l1.2-2.76-2.22-5.4h1.57Z"/><path class="cls-8" d="m260.99,61.13c.32-.17.68-.25,1.08-.25.47,0,.9.12,1.29.35s.69.57.91,1c.22.43.33.93.33,1.5s-.11,1.07-.33,1.5c-.22.44-.53.78-.91,1.02-.38.24-.81.36-1.29.36-.41,0-.77-.08-1.07-.25-.31-.17-.56-.38-.76-.63v3.43h-1.4v-8.18h1.4v.8c.18-.25.43-.46.75-.63Zm1.98,1.72c-.14-.24-.32-.43-.54-.55s-.46-.19-.73-.19-.49.07-.71.2c-.22.13-.4.32-.54.57-.14.25-.21.54-.21.87s.07.62.21.87c.14.25.32.44.54.57.22.13.46.2.71.2s.5-.07.73-.2c.22-.13.4-.32.54-.57.14-.25.21-.54.21-.88s-.07-.62-.21-.87Z"/><path class="cls-8" d="m270.74,64.13h-4.05c.03.41.16.73.41.96.25.23.55.35.92.35.52,0,.89-.22,1.11-.67h1.51c-.16.53-.47.97-.92,1.32-.45.34-1.01.51-1.67.51-.53,0-1.01-.12-1.43-.35-.42-.24-.75-.57-.99-1-.24-.43-.35-.93-.35-1.5s.12-1.08.35-1.51c.23-.43.56-.77.98-1s.9-.35,1.45-.35,1,.11,1.42.34c.42.23.74.55.97.96.23.41.34.89.34,1.43,0,.19-.01.36-.04.52Zm-1.41-.85c0-.39-.13-.69-.38-.91-.25-.22-.56-.34-.94-.34-.35,0-.65.11-.89.34-.24.22-.38.53-.43.91h2.64Z"/></g></g><g class="cls-20"><g class="cls-20"><path class="cls-8" d="m195.89,155.58v1.1h-1.86v5.88h-1.4v-5.88h-1.86v-1.1h5.12Z"/><path class="cls-8" d="m197.93,162.3c-.43-.24-.76-.57-1-1-.24-.43-.37-.93-.37-1.5s.12-1.07.38-1.5c.25-.43.59-.77,1.03-1.01.43-.24.92-.35,1.45-.35s1.02.12,1.45.35c.43.24.77.57,1.02,1.01.25.43.38.93.38,1.5s-.13,1.07-.39,1.5c-.26.43-.6.77-1.04,1-.44.24-.93.35-1.47.35s-1.01-.12-1.44-.35Zm2.16-1.04c.22-.13.4-.32.53-.57s.2-.55.2-.9-.07-.66-.2-.91-.31-.44-.52-.57c-.22-.13-.45-.19-.71-.19-.39,0-.73.14-1,.43s-.41.7-.41,1.23.13.93.4,1.22c.27.29.6.43.99.43.25,0,.49-.06.72-.19Z"/><path class="cls-8" d="m204.92,158.17v2.68c0,.19.05.32.14.41.09.08.24.12.46.12h.65v1.18h-.88c-1.18,0-1.77-.57-1.77-1.72v-2.67h-.66v-1.15h.66v-1.37h1.41v1.37h1.24v1.15h-1.24Z"/><path class="cls-8" d="m207.15,158.28c.22-.43.53-.77.91-1,.38-.23.81-.35,1.28-.35.41,0,.77.08,1.08.25s.56.38.75.63v-.79h1.41v5.54h-1.41v-.81c-.18.26-.43.47-.75.64-.32.17-.68.25-1.09.25-.47,0-.89-.12-1.27-.36-.38-.24-.69-.58-.91-1.02-.22-.44-.33-.94-.33-1.5s.11-1.06.33-1.49Zm3.83.64c-.13-.24-.31-.43-.54-.56-.23-.13-.47-.2-.73-.2s-.5.06-.72.19-.4.31-.54.55c-.14.24-.21.53-.21.87s.07.62.21.88.32.44.54.58c.22.13.46.2.72.2s.5-.07.73-.2c.23-.13.41-.32.54-.56.13-.24.2-.54.2-.88s-.07-.63-.2-.88Z"/><path class="cls-8" d="m215.35,155.16v7.4h-1.4v-7.4h1.4Z"/><path class="cls-8" d="m224.23,158.79c-.18.33-.45.59-.83.79-.38.2-.85.3-1.43.3h-1.17v2.68h-1.4v-6.98h2.57c.54,0,1,.09,1.38.28.38.19.67.44.85.77.19.33.28.7.28,1.11,0,.37-.09.72-.26,1.05Zm-1.46-.29c.19-.19.28-.44.28-.76s-.09-.59-.28-.77c-.19-.18-.47-.28-.86-.28h-1.11v2.09h1.11c.38,0,.67-.09.85-.28Z"/><path class="cls-8" d="m227.59,157.22c.29-.19.62-.28,1-.28v1.47h-.37c-.44,0-.77.1-1,.31-.22.21-.33.57-.33,1.08v2.76h-1.4v-5.54h1.4v.98c.18-.33.42-.59.71-.78Z"/><path class="cls-8" d="m230.55,162.3c-.43-.24-.76-.57-1-1-.24-.43-.37-.93-.37-1.5s.12-1.07.38-1.5c.25-.43.59-.77,1.03-1.01.43-.24.92-.35,1.45-.35s1.02.12,1.45.35c.43.24.77.57,1.02,1.01.25.43.38.93.38,1.5s-.13,1.07-.39,1.5c-.26.43-.6.77-1.04,1-.44.24-.93.35-1.47.35s-1.01-.12-1.44-.35Zm2.16-1.04c.22-.13.4-.32.53-.57s.2-.55.2-.9-.07-.66-.2-.91-.31-.44-.52-.57c-.22-.13-.45-.19-.71-.19-.39,0-.73.14-1,.43s-.41.7-.41,1.23.13.93.4,1.22c.27.29.6.43.99.43.25,0,.49-.06.72-.19Z"/><path class="cls-8" d="m235.9,158.28c.23-.43.56-.76.97-1,.41-.24.89-.35,1.42-.35.69,0,1.26.17,1.71.51.45.34.75.83.91,1.45h-1.51c-.08-.24-.21-.43-.4-.57-.19-.14-.43-.21-.71-.21-.4,0-.72.15-.95.44s-.35.7-.35,1.24.12.93.35,1.22.55.43.95.43c.57,0,.94-.25,1.11-.76h1.51c-.15.6-.46,1.08-.91,1.43-.45.35-1.02.53-1.7.53-.53,0-1.01-.12-1.42-.35-.41-.24-.74-.57-.97-1-.23-.43-.35-.93-.35-1.5s.12-1.08.35-1.51Z"/><path class="cls-8" d="m248.92,155.58v1.1h-2.91v1.83h2.23v1.08h-2.23v2.97h-1.4v-6.98h4.31Z"/><path class="cls-8" d="m255.02,160.18h-4.05c.03.41.16.73.41.96.25.23.55.35.92.35.52,0,.89-.22,1.11-.67h1.51c-.16.53-.47.97-.92,1.32-.45.34-1.01.51-1.67.51-.53,0-1.01-.12-1.44-.35-.42-.24-.75-.57-.99-1-.24-.43-.35-.93-.35-1.5s.12-1.08.35-1.51c.23-.43.56-.77.98-1s.9-.35,1.45-.35,1,.11,1.42.34.74.55.97.96.34.89.34,1.43c0,.19-.01.36-.04.52Zm-1.41-.85c0-.39-.14-.69-.39-.91-.25-.22-.56-.34-.94-.34-.35,0-.65.11-.89.34-.24.22-.38.53-.43.91h2.64Z"/><path class="cls-8" d="m261.19,160.18h-4.05c.03.41.16.73.41.96.25.23.55.35.92.35.52,0,.89-.22,1.11-.67h1.51c-.16.53-.47.97-.92,1.32-.45.34-1.01.51-1.67.51-.53,0-1.01-.12-1.44-.35-.42-.24-.75-.57-.99-1-.24-.43-.35-.93-.35-1.5s.12-1.08.35-1.51c.23-.43.56-.77.98-1s.9-.35,1.45-.35,1,.11,1.42.34.74.55.97.96.34.89.34,1.43c0,.19-.01.36-.04.52Zm-1.41-.85c0-.39-.14-.69-.39-.91-.25-.22-.56-.34-.94-.34-.35,0-.65.11-.89.34-.24.22-.38.53-.43.91h2.64Z"/><path class="cls-8" d="m263.14,162.4c-.36-.16-.64-.38-.85-.67-.21-.28-.32-.59-.34-.93h1.41c.03.23.13.42.31.57.18.14.41.21.69.21s.48-.06.62-.17c.15-.11.23-.26.23-.45s-.09-.32-.27-.41c-.18-.09-.48-.19-.88-.29-.41-.1-.74-.2-1-.3-.26-.1-.48-.26-.67-.49-.19-.22-.28-.51-.28-.87,0-.31.08-.6.25-.85s.42-.46.75-.61c.33-.15.72-.22,1.17-.22.66,0,1.19.17,1.58.5s.61.77.65,1.33h-1.34c-.02-.23-.11-.42-.27-.56-.16-.14-.38-.21-.66-.21-.25,0-.45.05-.58.16s-.21.25-.21.42.09.33.28.42c.19.1.48.2.87.3.4.1.73.2.99.31.26.11.48.27.67.49s.28.51.28.88c0,.32-.09.61-.26.86-.17.26-.42.46-.75.61-.33.15-.71.22-1.16.22s-.86-.08-1.21-.25Z"/></g><g class="cls-20"><path class="cls-2" d="m204.51,185.91v2.4h-10.38l-.47-1.54c.64-.63,1.11-1.27,1.41-1.92.3-.65.45-1.46.45-2.43,0-.1-.01-.26-.04-.49h-2.38v-2.05h1.78c-.29-.97-.43-1.85-.43-2.63,0-.97.21-1.81.63-2.51.42-.71,1.01-1.25,1.77-1.62.76-.37,1.63-.56,2.61-.56,1.58,0,2.79.44,3.63,1.32.83.88,1.27,2,1.32,3.37h-2.76c-.01-.68-.19-1.22-.53-1.62-.34-.39-.88-.59-1.6-.59-.67,0-1.2.2-1.59.6-.39.4-.59,1.01-.59,1.84,0,.37.04.74.12,1.1s.2.8.35,1.29h4.02v2.05h-3.49c.03.23.04.4.04.51,0,.61-.12,1.22-.35,1.83s-.6,1.15-1.08,1.64h7.58Z"/><path class="cls-2" d="m207.27,185.2v-2.35l7-10.02h3.49v9.76h1.88v2.61h-1.88v3.04h-3v-3.04h-7.49Zm7.68-9.16l-4.39,6.55h4.39v-6.55Z"/><path class="cls-2" d="m221.88,187.89c-.35-.33-.52-.75-.52-1.25s.17-.92.52-1.25c.35-.34.8-.5,1.34-.5s.96.17,1.31.5c.34.33.51.75.51,1.25s-.17.92-.51,1.25c-.34.34-.78.5-1.31.5s-.99-.17-1.34-.5Z"/><path class="cls-2" d="m228.07,184.84c1.38-1.16,2.47-2.1,3.26-2.85.79-.74,1.46-1.51,1.99-2.31.53-.8.8-1.57.8-2.31s-.17-1.27-.5-1.66c-.34-.39-.86-.59-1.57-.59s-1.26.24-1.63.71-.57,1.13-.6,1.97h-2.91c.06-1.71.57-3.01,1.53-3.89s2.19-1.33,3.67-1.33c1.08,0,2,.2,2.76.6.76.4,1.32.95,1.7,1.64.38.69.57,1.48.57,2.37,0,1.07-.3,2.1-.89,3.08-.59.98-1.27,1.85-2.03,2.59s-1.77,1.64-3.03,2.7h6.31v2.48h-10.57v-2.23l1.13-.96Z"/><path class="cls-2" d="m245.17,172.68c3.85,0,5.78,2.58,5.78,7.75s-1.93,7.77-5.78,7.77-5.78-2.59-5.78-7.77,1.93-7.75,5.78-7.75Zm0,2.78c-.8,0-1.4.22-1.81.66s-.68,1.02-.81,1.72-.2,1.57-.2,2.58.07,1.88.2,2.59c.14.71.41,1.29.81,1.73s1.01.66,1.81.66,1.4-.22,1.81-.66c.41-.44.68-1.02.81-1.73.14-.71.2-1.58.2-2.59s-.07-1.87-.2-2.58c-.14-.71-.41-1.28-.81-1.72-.41-.44-1.01-.66-1.81-.66Z"/><path class="cls-2" d="m260.58,188.24l-4.02-5.05v5.05h-3v-15.84h3v9.01l3.98-5.03h3.89l-5.22,5.95,5.26,5.91h-3.9Z"/></g></g><g class="cls-20"><g class="cls-20"><path class="cls-8" d="m103.2,155.58v1.1h-1.86v5.88h-1.4v-5.88h-1.86v-1.1h5.12Z"/><path class="cls-8" d="m105.24,162.3c-.43-.24-.76-.57-1-1-.24-.43-.37-.93-.37-1.5s.12-1.07.38-1.5c.25-.43.59-.77,1.03-1.01.43-.24.92-.35,1.45-.35s1.02.12,1.45.35c.43.24.78.57,1.03,1.01.25.43.38.93.38,1.5s-.13,1.07-.39,1.5c-.26.43-.6.77-1.04,1-.44.24-.93.35-1.47.35s-1.01-.12-1.44-.35Zm2.16-1.04c.22-.13.4-.32.53-.57.13-.25.2-.55.2-.9s-.07-.66-.2-.91c-.13-.25-.31-.44-.52-.57-.22-.13-.45-.19-.71-.19-.39,0-.73.14-1,.43s-.41.7-.41,1.23.13.93.4,1.22c.27.29.6.43.99.43.25,0,.49-.06.72-.19Z"/><path class="cls-8" d="m112.23,158.17v2.68c0,.19.05.32.14.41.09.08.24.12.46.12h.65v1.18h-.88c-1.18,0-1.77-.57-1.77-1.72v-2.67h-.66v-1.15h.66v-1.37h1.41v1.37h1.24v1.15h-1.24Z"/><path class="cls-8" d="m114.46,158.28c.22-.43.53-.77.91-1,.38-.23.81-.35,1.28-.35.41,0,.78.08,1.08.25.31.17.56.38.75.63v-.79h1.41v5.54h-1.41v-.81c-.18.26-.43.47-.75.64-.32.17-.68.25-1.09.25-.47,0-.89-.12-1.27-.36-.38-.24-.69-.58-.91-1.02-.22-.44-.33-.94-.33-1.5s.11-1.06.33-1.49Zm3.83.64c-.13-.24-.31-.43-.54-.56-.23-.13-.47-.2-.73-.2s-.5.06-.72.19c-.22.13-.4.31-.54.55-.14.24-.21.53-.21.87s.07.62.21.88.32.44.54.58c.22.13.46.2.71.2s.5-.07.73-.2c.23-.13.41-.32.54-.56.13-.24.2-.54.2-.88s-.07-.63-.2-.88Z"/><path class="cls-8" d="m122.66,155.16v7.4h-1.4v-7.4h1.4Z"/><path class="cls-8" d="m126.84,157.22c.31-.54.73-.97,1.27-1.27.54-.3,1.14-.46,1.81-.46.78,0,1.46.2,2.05.6.59.4,1,.95,1.23,1.66h-1.61c-.17-.32-.39-.56-.68-.73-.29-.16-.62-.25-1-.25-.41,0-.77.09-1.08.28s-.56.45-.74.8c-.18.35-.27.75-.27,1.2s.09.85.27,1.2c.18.34.42.61.74.8.32.19.68.29,1.08.29.38,0,.72-.08,1-.25.29-.17.52-.41.68-.73h1.61c-.23.71-.64,1.27-1.22,1.67-.58.4-1.27.59-2.05.59-.67,0-1.27-.15-1.81-.45-.54-.3-.96-.73-1.27-1.27-.31-.54-.46-1.15-.46-1.84s.15-1.3.46-1.84Z"/><path class="cls-8" d="m134.37,158.28c.22-.43.53-.77.91-1s.81-.35,1.29-.35c.41,0,.77.08,1.08.25.31.17.56.38.75.63v-.79h1.41v5.54h-1.41v-.81c-.18.26-.43.47-.75.64s-.68.25-1.09.25c-.47,0-.89-.12-1.28-.36-.38-.24-.69-.58-.91-1.02s-.33-.94-.33-1.5.11-1.06.33-1.49Zm3.83.64c-.13-.24-.31-.43-.54-.56s-.47-.2-.73-.2-.5.06-.72.19c-.22.13-.4.31-.54.55-.14.24-.21.53-.21.87s.07.62.21.88.32.44.54.58c.22.13.46.2.72.2s.5-.07.73-.2.41-.32.54-.56c.13-.24.2-.54.2-.88s-.07-.63-.2-.88Z"/><path class="cls-8" d="m142.07,162.4c-.36-.16-.64-.38-.85-.67-.21-.28-.33-.59-.34-.93h1.41c.03.23.13.42.31.57.18.14.41.21.69.21s.48-.06.62-.17c.15-.11.23-.26.23-.45s-.09-.32-.28-.41c-.18-.09-.48-.19-.88-.29-.41-.1-.74-.2-1-.3s-.48-.26-.67-.49c-.19-.22-.28-.51-.28-.87,0-.31.08-.6.25-.85s.42-.46.75-.61c.33-.15.72-.22,1.17-.22.66,0,1.19.17,1.58.5s.61.77.65,1.33h-1.34c-.02-.23-.11-.42-.28-.56-.16-.14-.38-.21-.66-.21-.25,0-.45.05-.58.16s-.21.25-.21.42.09.33.28.42c.19.1.48.2.87.3.4.1.73.2.99.31.26.11.48.27.67.49s.28.51.28.88c0,.32-.09.61-.26.86-.17.26-.42.46-.75.61-.33.15-.71.22-1.16.22s-.86-.08-1.21-.25Z"/><path class="cls-8" d="m151.74,160.18h-4.05c.03.41.16.73.41.96.25.23.55.35.92.35.52,0,.89-.22,1.11-.67h1.51c-.16.53-.47.97-.92,1.32-.45.34-1.01.51-1.67.51-.53,0-1.01-.12-1.43-.35-.42-.24-.75-.57-.99-1-.24-.43-.35-.93-.35-1.5s.12-1.08.35-1.51c.23-.43.56-.77.98-1s.9-.35,1.45-.35,1,.11,1.42.34c.42.23.74.55.97.96.23.41.34.89.34,1.43,0,.19-.01.36-.04.52Zm-1.41-.85c0-.39-.13-.69-.38-.91-.25-.22-.56-.34-.94-.34-.35,0-.65.11-.89.34-.24.22-.38.53-.43.91h2.64Z"/><path class="cls-8" d="m153.69,162.4c-.36-.16-.64-.38-.85-.67-.21-.28-.32-.59-.34-.93h1.41c.03.23.13.42.31.57.18.14.41.21.69.21s.47-.06.62-.17c.15-.11.22-.26.22-.45s-.09-.32-.27-.41c-.18-.09-.48-.19-.88-.29-.41-.1-.74-.2-1-.3-.26-.1-.48-.26-.67-.49-.19-.22-.28-.51-.28-.87,0-.31.08-.6.25-.85s.42-.46.75-.61c.33-.15.72-.22,1.17-.22.66,0,1.19.17,1.58.5.39.33.61.77.65,1.33h-1.34c-.02-.23-.11-.42-.27-.56-.16-.14-.38-.21-.66-.21-.25,0-.45.05-.58.16s-.21.25-.21.42.09.33.28.42c.19.1.48.2.87.3.4.1.73.2.99.31s.48.27.67.49.28.51.28.88c0,.32-.09.61-.26.86-.17.26-.42.46-.75.61-.33.15-.71.22-1.16.22s-.86-.08-1.21-.25Z"/></g><g class="cls-20"><path class="cls-2" d="m117.56,175.83v-2.78h5.16v15.19h-3.08v-12.41h-2.08Z"/><path class="cls-2" d="m133.02,175.19c-.35-.3-.85-.45-1.51-.45-.98,0-1.71.4-2.17,1.19-.46.79-.7,2.08-.72,3.86.34-.57.84-1.02,1.5-1.34.66-.32,1.37-.48,2.14-.48.93,0,1.75.2,2.46.6.71.4,1.27.98,1.67,1.74.4.76.6,1.68.6,2.75,0,1.01-.2,1.92-.61,2.71-.41.79-1,1.41-1.79,1.85-.78.44-1.72.66-2.8.66-1.48,0-2.65-.33-3.5-.98-.85-.66-1.44-1.57-1.78-2.75-.34-1.18-.5-2.63-.5-4.36,0-2.61.45-4.58,1.35-5.92.9-1.33,2.32-2,4.26-2,1.5,0,2.66.41,3.49,1.22.83.81,1.31,1.83,1.43,3.04h-2.78c-.14-.6-.39-1.05-.74-1.35Zm-3.35,5.91c-.51.44-.77,1.08-.77,1.93s.24,1.51.72,1.99c.48.49,1.15.73,2.02.73.77,0,1.38-.24,1.83-.71.45-.47.67-1.11.67-1.9s-.22-1.48-.65-1.97c-.44-.49-1.07-.73-1.92-.73-.76,0-1.39.22-1.9.66Z"/></g></g><g class="cls-20"><g class="cls-20"><path class="cls-8" d="m306.17,155.58v1.1h-1.86v5.88h-1.4v-5.88h-1.86v-1.1h5.12Z"/><path class="cls-8" d="m308.21,162.3c-.43-.24-.76-.57-1-1-.24-.43-.37-.93-.37-1.5s.12-1.07.38-1.5c.25-.43.59-.77,1.03-1.01.43-.24.92-.35,1.45-.35s1.02.12,1.45.35c.43.24.77.57,1.02,1.01.25.43.38.93.38,1.5s-.13,1.07-.38,1.5c-.26.43-.6.77-1.04,1-.44.24-.92.35-1.46.35s-1.01-.12-1.44-.35Zm2.16-1.04c.22-.13.4-.32.54-.57.13-.25.2-.55.2-.9s-.07-.66-.2-.91c-.13-.25-.31-.44-.53-.57-.22-.13-.45-.19-.71-.19-.39,0-.73.14-1,.43s-.41.7-.41,1.23.13.93.4,1.22.6.43.99.43c.25,0,.49-.06.71-.19Z"/><path class="cls-8" d="m315.2,158.17v2.68c0,.19.04.32.13.41.09.08.24.12.46.12h.65v1.18h-.88c-1.18,0-1.77-.57-1.77-1.72v-2.67h-.66v-1.15h.66v-1.37h1.41v1.37h1.24v1.15h-1.24Z"/><path class="cls-8" d="m317.42,158.28c.22-.43.53-.77.91-1s.81-.35,1.29-.35c.41,0,.77.08,1.08.25.31.17.56.38.75.63v-.79h1.41v5.54h-1.41v-.81c-.18.26-.43.47-.75.64s-.68.25-1.09.25c-.47,0-.89-.12-1.28-.36-.38-.24-.69-.58-.91-1.02s-.33-.94-.33-1.5.11-1.06.33-1.49Zm3.83.64c-.13-.24-.31-.43-.54-.56s-.47-.2-.73-.2-.5.06-.72.19c-.22.13-.4.31-.54.55-.14.24-.21.53-.21.87s.07.62.21.88.32.44.54.58c.22.13.46.2.72.2s.5-.07.73-.2.41-.32.54-.56c.13-.24.2-.54.2-.88s-.07-.63-.2-.88Z"/><path class="cls-8" d="m325.63,155.16v7.4h-1.4v-7.4h1.4Z"/><path class="cls-8" d="m329.81,157.22c.31-.54.73-.97,1.27-1.27.54-.3,1.14-.46,1.8-.46.78,0,1.46.2,2.05.6.59.4,1,.95,1.23,1.66h-1.61c-.17-.32-.39-.56-.68-.73-.29-.16-.62-.25-1-.25-.41,0-.77.09-1.08.28s-.56.45-.74.8-.26.75-.26,1.2.09.85.26,1.2c.18.34.42.61.74.8.32.19.68.29,1.08.29.38,0,.71-.08,1-.25.29-.17.51-.41.67-.73h1.61c-.23.71-.64,1.27-1.23,1.67-.58.4-1.27.59-2.05.59-.67,0-1.27-.15-1.8-.45-.54-.3-.96-.73-1.27-1.27-.31-.54-.46-1.15-.46-1.84s.16-1.3.46-1.84Z"/><path class="cls-8" d="m338.77,155.16v7.4h-1.4v-7.4h1.4Z"/><path class="cls-8" d="m340.25,156.13c-.16-.16-.25-.35-.25-.58s.08-.43.25-.59c.16-.16.37-.23.61-.23s.45.08.62.23c.16.16.25.35.25.59s-.08.43-.25.58c-.16.16-.37.23-.62.23s-.45-.08-.61-.23Zm1.3.89v5.54h-1.4v-5.54h1.4Z"/><path class="cls-8" d="m348.04,160.18h-4.05c.03.41.16.73.41.96s.55.35.92.35c.52,0,.89-.22,1.11-.67h1.51c-.16.53-.47.97-.92,1.32-.45.34-1.01.51-1.67.51-.53,0-1.01-.12-1.44-.35-.42-.24-.75-.57-.99-1-.24-.43-.36-.93-.36-1.5s.12-1.08.35-1.51c.23-.43.56-.77.98-1s.9-.35,1.45-.35,1,.11,1.42.34c.42.23.74.55.97.96.23.41.34.89.34,1.43,0,.19-.01.36-.04.52Zm-1.41-.85c0-.39-.14-.69-.39-.91-.25-.22-.56-.34-.93-.34-.35,0-.65.11-.89.34-.24.22-.38.53-.43.91h2.64Z"/><path class="cls-8" d="m353.77,157.56c.41.42.61,1,.61,1.75v3.25h-1.4v-3.06c0-.44-.11-.78-.33-1.02-.22-.24-.52-.35-.9-.35s-.69.12-.92.35c-.22.24-.33.58-.33,1.02v3.06h-1.4v-5.54h1.4v.69c.19-.24.43-.43.72-.57s.61-.21.95-.21c.66,0,1.19.21,1.6.62Z"/><path class="cls-8" d="m357.34,158.17v2.68c0,.19.05.32.14.41.09.08.24.12.46.12h.65v1.18h-.88c-1.18,0-1.77-.57-1.77-1.72v-2.67h-.66v-1.15h.66v-1.37h1.41v1.37h1.24v1.15h-1.24Z"/><path class="cls-8" d="m366.58,155.58v1.1h-2.91v1.83h2.23v1.08h-2.23v2.97h-1.4v-6.98h4.31Z"/><path class="cls-8" d="m372.68,160.18h-4.05c.03.41.16.73.41.96s.55.35.92.35c.52,0,.89-.22,1.11-.67h1.51c-.16.53-.47.97-.92,1.32-.45.34-1.01.51-1.67.51-.53,0-1.01-.12-1.44-.35-.42-.24-.75-.57-.99-1-.24-.43-.36-.93-.36-1.5s.12-1.08.35-1.51c.23-.43.56-.77.98-1s.9-.35,1.45-.35,1,.11,1.42.34c.42.23.74.55.97.96.23.41.34.89.34,1.43,0,.19-.01.36-.04.52Zm-1.41-.85c0-.39-.14-.69-.39-.91-.25-.22-.56-.34-.93-.34-.35,0-.65.11-.89.34-.24.22-.38.53-.43.91h2.64Z"/><path class="cls-8" d="m378.85,160.18h-4.05c.03.41.16.73.41.96s.55.35.92.35c.52,0,.89-.22,1.11-.67h1.51c-.16.53-.47.97-.92,1.32-.45.34-1.01.51-1.67.51-.53,0-1.01-.12-1.44-.35-.42-.24-.75-.57-.99-1-.24-.43-.36-.93-.36-1.5s.12-1.08.35-1.51c.23-.43.56-.77.98-1s.9-.35,1.45-.35,1,.11,1.42.34c.42.23.74.55.97.96.23.41.34.89.34,1.43,0,.19-.01.36-.04.52Zm-1.41-.85c0-.39-.14-.69-.39-.91-.25-.22-.56-.34-.93-.34-.35,0-.65.11-.89.34-.24.22-.38.53-.43.91h2.64Z"/><path class="cls-8" d="m380.8,162.4c-.36-.16-.64-.38-.85-.67-.21-.28-.33-.59-.34-.93h1.41c.03.23.13.42.31.57.18.14.41.21.69.21s.48-.06.62-.17c.15-.11.23-.26.23-.45s-.09-.32-.28-.41c-.18-.09-.48-.19-.88-.29-.41-.1-.74-.2-1-.3s-.48-.26-.67-.49c-.19-.22-.28-.51-.28-.87,0-.31.08-.6.25-.85s.42-.46.75-.61c.33-.15.72-.22,1.17-.22.66,0,1.19.17,1.58.5s.61.77.65,1.33h-1.34c-.02-.23-.11-.42-.28-.56-.16-.14-.38-.21-.66-.21-.25,0-.45.05-.58.16s-.21.25-.21.42.09.33.28.42c.19.1.48.2.87.3.4.1.73.2.99.31.26.11.48.27.67.49s.28.51.28.88c0,.32-.09.61-.26.86-.17.26-.42.46-.75.61-.33.15-.71.22-1.16.22s-.86-.08-1.21-.25Z"/></g><g class="cls-20"><path class="cls-2" d="m318.4,185.91v2.4h-10.38l-.47-1.54c.64-.63,1.11-1.27,1.41-1.92.3-.65.45-1.46.45-2.43,0-.1-.01-.26-.04-.49h-2.38v-2.05h1.78c-.29-.97-.43-1.85-.43-2.63,0-.97.21-1.81.63-2.51.42-.71,1.01-1.25,1.77-1.62s1.63-.56,2.61-.56c1.58,0,2.79.44,3.63,1.32s1.27,2,1.32,3.37h-2.76c-.01-.68-.19-1.22-.54-1.62s-.88-.59-1.6-.59c-.67,0-1.2.2-1.59.6s-.59,1.01-.59,1.84c0,.37.04.74.12,1.1.08.36.2.8.35,1.29h4.02v2.05h-3.49c.03.23.04.4.04.51,0,.61-.12,1.22-.35,1.83s-.6,1.15-1.08,1.64h7.58Z"/><path class="cls-2" d="m322.84,173.44c.93-.78,2.17-1.17,3.69-1.17,1.04,0,1.93.18,2.67.55.74.36,1.3.86,1.68,1.48.38.62.57,1.32.57,2.11,0,.9-.23,1.66-.7,2.28-.46.62-1.02,1.04-1.66,1.25v.08c.83.26,1.47.71,1.94,1.37s.7,1.5.7,2.52c0,.86-.2,1.62-.59,2.29-.39.67-.97,1.2-1.73,1.57-.76.38-1.68.57-2.75.57-1.61,0-2.92-.41-3.94-1.22-1.01-.81-1.55-2.01-1.61-3.59h2.91c.03.7.27,1.26.72,1.68s1.07.63,1.85.63c.73,0,1.29-.2,1.68-.61s.59-.93.59-1.57c0-.86-.27-1.47-.81-1.84s-1.38-.56-2.52-.56h-.62v-2.46h.62c2.03,0,3.04-.68,3.04-2.03,0-.61-.18-1.09-.55-1.43-.36-.34-.89-.51-1.57-.51s-1.19.18-1.55.55c-.36.36-.57.82-.63,1.38h-2.93c.07-1.43.57-2.53,1.51-3.31Z"/><path class="cls-2" d="m334.44,187.89c-.35-.33-.52-.75-.52-1.25s.17-.92.52-1.25c.35-.34.8-.5,1.34-.5s.96.17,1.31.5c.34.33.51.75.51,1.25s-.17.92-.51,1.25c-.34.34-.78.5-1.31.5s-.99-.17-1.34-.5Z"/><path class="cls-2" d="m345.45,172.68c3.85,0,5.78,2.58,5.78,7.75s-1.93,7.77-5.78,7.77-5.78-2.59-5.78-7.77,1.93-7.75,5.78-7.75Zm0,2.78c-.8,0-1.4.22-1.81.66-.41.44-.68,1.02-.81,1.72s-.2,1.57-.2,2.58.07,1.88.2,2.59c.14.71.41,1.29.81,1.73.41.44,1.01.66,1.81.66s1.4-.22,1.81-.66c.41-.44.68-1.02.81-1.73.14-.71.2-1.58.2-2.59s-.07-1.87-.2-2.58-.41-1.28-.81-1.72c-.41-.44-1.01-.66-1.81-.66Z"/><path class="cls-2" d="m353.97,176.36c0-.76.2-1.46.59-2.1.39-.64.98-1.16,1.78-1.55s1.76-.59,2.9-.59,2.11.2,2.9.59c.79.39,1.38.91,1.78,1.55.39.64.59,1.34.59,2.1s-.19,1.47-.58,2.07c-.38.59-.9,1.05-1.54,1.38.79.34,1.4.85,1.84,1.52s.66,1.47.66,2.4c0,1-.25,1.87-.74,2.6-.49.73-1.17,1.29-2.02,1.68-.86.38-1.82.58-2.89.58s-2.03-.19-2.89-.58c-.86-.38-1.53-.95-2.01-1.68-.49-.74-.73-1.6-.73-2.6,0-.94.22-1.75.66-2.42s1.06-1.17,1.84-1.5c-1.43-.71-2.14-1.86-2.14-3.45Zm3.29,5.39c-.51.43-.76,1.04-.76,1.84,0,.74.25,1.34.74,1.81.49.46,1.16.7,2,.7s1.5-.23,1.99-.7c.48-.46.73-1.07.73-1.81,0-.79-.25-1.39-.74-1.83-.49-.43-1.15-.65-1.98-.65s-1.47.21-1.98.64Zm.28-6.57c-.42.38-.63.93-.63,1.63,0,.64.22,1.16.65,1.55.43.39,1,.59,1.68.59s1.25-.2,1.69-.6.66-.92.66-1.56c0-.7-.21-1.24-.63-1.62s-1-.57-1.72-.57-1.28.19-1.7.58Z"/><path class="cls-2" d="m374.62,188.24l-4.02-5.05v5.05h-3v-15.84h3v9.01l3.98-5.03h3.89l-5.22,5.95,5.26,5.91h-3.9Z"/></g></g><g class="cls-20"><g class="cls-20"><path class="cls-8" d="m422.85,155.58v1.1h-1.86v5.88h-1.4v-5.88h-1.86v-1.1h5.12Z"/><path class="cls-8" d="m424.89,162.3c-.43-.24-.76-.57-1-1-.24-.43-.37-.93-.37-1.5s.12-1.07.38-1.5c.25-.43.59-.77,1.03-1.01.43-.24.92-.35,1.45-.35s1.02.12,1.45.35c.43.24.77.57,1.02,1.01.25.43.38.93.38,1.5s-.13,1.07-.38,1.5c-.26.43-.6.77-1.04,1-.44.24-.92.35-1.46.35s-1.01-.12-1.44-.35Zm2.16-1.04c.22-.13.4-.32.54-.57.13-.25.2-.55.2-.9s-.07-.66-.2-.91c-.13-.25-.31-.44-.53-.57-.22-.13-.45-.19-.71-.19-.39,0-.73.14-1,.43s-.41.7-.41,1.23.13.93.4,1.22.6.43.99.43c.25,0,.49-.06.71-.19Z"/><path class="cls-8" d="m431.88,158.17v2.68c0,.19.04.32.13.41.09.08.24.12.46.12h.65v1.18h-.88c-1.18,0-1.77-.57-1.77-1.72v-2.67h-.66v-1.15h.66v-1.37h1.41v1.37h1.24v1.15h-1.24Z"/><path class="cls-8" d="m434.1,158.28c.22-.43.53-.77.91-1s.81-.35,1.29-.35c.41,0,.77.08,1.08.25.31.17.56.38.75.63v-.79h1.41v5.54h-1.41v-.81c-.18.26-.43.47-.75.64s-.68.25-1.09.25c-.47,0-.89-.12-1.28-.36-.38-.24-.69-.58-.91-1.02s-.33-.94-.33-1.5.11-1.06.33-1.49Zm3.83.64c-.13-.24-.31-.43-.54-.56s-.47-.2-.73-.2-.5.06-.72.19c-.22.13-.4.31-.54.55-.14.24-.21.53-.21.87s.07.62.21.88.32.44.54.58c.22.13.46.2.72.2s.5-.07.73-.2.41-.32.54-.56c.13-.24.2-.54.2-.88s-.07-.63-.2-.88Z"/><path class="cls-8" d="m442.31,155.16v7.4h-1.4v-7.4h1.4Z"/><path class="cls-8" d="m447.46,162.38c-.39-.17-.7-.41-.93-.72-.23-.31-.34-.68-.35-1.11h1.5c.02.29.12.53.3.7.18.17.44.26.75.26s.58-.08.77-.24.28-.37.28-.64c0-.21-.06-.38-.19-.51-.13-.13-.29-.24-.47-.31-.19-.08-.45-.16-.79-.25-.45-.13-.82-.27-1.11-.4s-.53-.33-.73-.59c-.2-.26-.31-.62-.31-1.05,0-.41.1-.77.31-1.08.21-.31.5-.54.87-.71.37-.16.8-.25,1.28-.25.72,0,1.3.17,1.75.53.45.35.7.84.75,1.46h-1.54c-.01-.26-.12-.47-.31-.62-.19-.16-.44-.24-.75-.24-.27,0-.49.07-.66.21-.16.14-.24.36-.24.64,0,.19.06.34.18.46s.28.22.46.3c.18.08.44.17.78.26.45.13.82.27,1.11.4.29.13.53.33.74.6s.31.62.31,1.05c0,.37-.1.72-.29,1.04-.19.32-.48.58-.85.77-.37.19-.82.29-1.33.29-.49,0-.92-.08-1.31-.25Z"/><path class="cls-8" d="m453.48,162.3c-.43-.24-.76-.57-1-1-.24-.43-.37-.93-.37-1.5s.12-1.07.38-1.5c.25-.43.59-.77,1.03-1.01.43-.24.92-.35,1.45-.35s1.02.12,1.45.35c.43.24.78.57,1.03,1.01.25.43.38.93.38,1.5s-.13,1.07-.39,1.5c-.26.43-.6.77-1.04,1-.44.24-.93.35-1.47.35s-1.01-.12-1.44-.35Zm2.16-1.04c.22-.13.4-.32.53-.57.13-.25.2-.55.2-.9s-.07-.66-.2-.91c-.13-.25-.31-.44-.52-.57-.22-.13-.45-.19-.71-.19-.39,0-.73.14-1,.43s-.41.7-.41,1.23.13.93.4,1.22c.27.29.6.43.99.43.25,0,.49-.06.72-.19Z"/><path class="cls-8" d="m460.24,155.16v7.4h-1.4v-7.4h1.4Z"/><path class="cls-8" d="m461.71,156.13c-.16-.16-.25-.35-.25-.58s.08-.43.25-.59c.16-.16.37-.23.61-.23s.45.08.62.23c.16.16.25.35.25.59s-.08.43-.25.58c-.16.16-.37.23-.62.23s-.45-.08-.61-.23Zm1.3.89v5.54h-1.4v-5.54h1.4Z"/><path class="cls-8" d="m464.39,158.28c.23-.43.56-.76.97-1,.41-.24.89-.35,1.42-.35.69,0,1.25.17,1.71.51.45.34.75.83.91,1.45h-1.51c-.08-.24-.21-.43-.4-.57-.19-.14-.43-.21-.71-.21-.4,0-.72.15-.95.44s-.35.7-.35,1.24.12.93.35,1.22.55.43.95.43c.57,0,.94-.25,1.11-.76h1.51c-.15.6-.46,1.08-.91,1.43-.45.35-1.02.53-1.7.53-.53,0-1.01-.12-1.42-.35-.41-.24-.74-.57-.97-1-.23-.43-.35-.93-.35-1.5s.12-1.08.35-1.51Z"/><path class="cls-8" d="m470.51,156.13c-.16-.16-.25-.35-.25-.58s.08-.43.25-.59c.16-.16.37-.23.61-.23s.45.08.62.23c.16.16.25.35.25.59s-.08.43-.25.58c-.16.16-.37.23-.62.23s-.45-.08-.61-.23Zm1.3.89v5.54h-1.4v-5.54h1.4Z"/><path class="cls-8" d="m474.83,158.17v2.68c0,.19.04.32.13.41.09.08.24.12.46.12h.65v1.18h-.88c-1.18,0-1.77-.57-1.77-1.72v-2.67h-.66v-1.15h.66v-1.37h1.41v1.37h1.24v1.15h-1.24Z"/><path class="cls-8" d="m478.1,162.3c-.43-.24-.76-.57-1-1-.24-.43-.37-.93-.37-1.5s.12-1.07.38-1.5c.25-.43.59-.77,1.03-1.01.43-.24.92-.35,1.45-.35s1.02.12,1.45.35c.43.24.77.57,1.02,1.01.25.43.38.93.38,1.5s-.13,1.07-.38,1.5c-.26.43-.6.77-1.04,1-.44.24-.92.35-1.46.35s-1.01-.12-1.44-.35Zm2.16-1.04c.22-.13.4-.32.54-.57.13-.25.2-.55.2-.9s-.07-.66-.2-.91c-.13-.25-.31-.44-.53-.57-.22-.13-.45-.19-.71-.19-.39,0-.73.14-1,.43s-.41.7-.41,1.23.13.93.4,1.22.6.43.99.43c.25,0,.49-.06.71-.19Z"/><path class="cls-8" d="m485.56,157.22c.29-.19.62-.28,1-.28v1.47h-.37c-.44,0-.77.1-1,.31-.22.21-.33.57-.33,1.08v2.76h-1.4v-5.54h1.4v.98c.18-.33.42-.59.71-.78Z"/><path class="cls-8" d="m494.49,155.58v1.1h-2.91v1.83h2.23v1.08h-2.23v2.97h-1.4v-6.98h4.31Z"/><path class="cls-8" d="m500.59,160.18h-4.05c.03.41.16.73.41.96.25.23.55.35.92.35.52,0,.89-.22,1.11-.67h1.51c-.16.53-.47.97-.92,1.32-.45.34-1.01.51-1.67.51-.53,0-1.01-.12-1.43-.35-.42-.24-.75-.57-.99-1-.24-.43-.35-.93-.35-1.5s.12-1.08.35-1.51c.23-.43.56-.77.98-1s.9-.35,1.45-.35,1,.11,1.42.34c.42.23.74.55.97.96.23.41.34.89.34,1.43,0,.19-.01.36-.04.52Zm-1.41-.85c0-.39-.13-.69-.38-.91-.25-.22-.56-.34-.94-.34-.35,0-.65.11-.89.34-.24.22-.38.53-.43.91h2.64Z"/><path class="cls-8" d="m506.76,160.18h-4.05c.03.41.16.73.41.96.25.23.55.35.92.35.52,0,.89-.22,1.11-.67h1.51c-.16.53-.47.97-.92,1.32-.45.34-1.01.51-1.67.51-.53,0-1.01-.12-1.43-.35-.42-.24-.75-.57-.99-1-.24-.43-.35-.93-.35-1.5s.12-1.08.35-1.51c.23-.43.56-.77.98-1s.9-.35,1.45-.35,1,.11,1.42.34c.42.23.74.55.97.96.23.41.34.89.34,1.43,0,.19-.01.36-.04.52Zm-1.41-.85c0-.39-.13-.69-.38-.91-.25-.22-.56-.34-.94-.34-.35,0-.65.11-.89.34-.24.22-.38.53-.43.91h2.64Z"/><path class="cls-8" d="m508.71,162.4c-.36-.16-.64-.38-.85-.67-.21-.28-.33-.59-.34-.93h1.41c.03.23.13.42.31.57.18.14.41.21.69.21s.48-.06.62-.17c.15-.11.23-.26.23-.45s-.09-.32-.28-.41c-.18-.09-.48-.19-.88-.29-.41-.1-.74-.2-1-.3s-.48-.26-.67-.49c-.19-.22-.28-.51-.28-.87,0-.31.08-.6.25-.85s.42-.46.75-.61c.33-.15.72-.22,1.17-.22.66,0,1.19.17,1.58.5s.61.77.65,1.33h-1.34c-.02-.23-.11-.42-.28-.56-.16-.14-.38-.21-.66-.21-.25,0-.45.05-.58.16s-.21.25-.21.42.09.33.28.42c.19.1.48.2.87.3.4.1.73.2.99.31.26.11.48.27.67.49s.28.51.28.88c0,.32-.09.61-.26.86-.17.26-.42.46-.75.61-.33.15-.71.22-1.16.22s-.86-.08-1.21-.25Z"/></g><g class="cls-20"><path class="cls-2" d="m443.97,185.91v2.4h-10.38l-.47-1.54c.64-.63,1.11-1.27,1.41-1.92.3-.65.45-1.46.45-2.43,0-.1-.01-.26-.04-.49h-2.38v-2.05h1.78c-.29-.97-.43-1.85-.43-2.63,0-.97.21-1.81.63-2.51.42-.71,1.01-1.25,1.77-1.62s1.63-.56,2.61-.56c1.58,0,2.79.44,3.63,1.32s1.27,2,1.32,3.37h-2.76c-.01-.68-.19-1.22-.54-1.62s-.88-.59-1.6-.59c-.67,0-1.2.2-1.59.6s-.59,1.01-.59,1.84c0,.37.04.74.12,1.1.08.36.2.8.35,1.29h4.02v2.05h-3.49c.03.23.04.4.04.51,0,.61-.12,1.22-.35,1.83s-.6,1.15-1.08,1.64h7.58Z"/><path class="cls-2" d="m446.5,175.83v-2.78h5.16v15.19h-3.08v-12.41h-2.08Z"/><path class="cls-2" d="m454.94,187.89c-.35-.33-.52-.75-.52-1.25s.17-.92.52-1.25c.35-.34.79-.5,1.34-.5s.96.17,1.31.5c.34.33.51.75.51,1.25s-.17.92-.51,1.25c-.34.34-.78.5-1.31.5s-.99-.17-1.34-.5Z"/><path class="cls-2" d="m461.13,184.84c1.38-1.16,2.47-2.1,3.26-2.85.79-.74,1.46-1.51,1.99-2.31.53-.8.8-1.57.8-2.31s-.17-1.27-.5-1.66-.86-.59-1.57-.59-1.26.24-1.63.71-.57,1.13-.6,1.97h-2.91c.06-1.71.57-3.01,1.53-3.89s2.19-1.33,3.67-1.33c1.08,0,2,.2,2.76.6s1.32.95,1.7,1.64c.38.69.57,1.48.57,2.37,0,1.07-.3,2.1-.89,3.08-.59.98-1.27,1.85-2.03,2.59-.76.74-1.77,1.64-3.03,2.7h6.31v2.48h-10.57v-2.23l1.13-.96Z"/><path class="cls-2" d="m478.23,172.68c3.85,0,5.78,2.58,5.78,7.75s-1.93,7.77-5.78,7.77-5.78-2.59-5.78-7.77,1.93-7.75,5.78-7.75Zm0,2.78c-.8,0-1.4.22-1.81.66-.41.44-.68,1.02-.81,1.72s-.2,1.57-.2,2.58.07,1.88.2,2.59c.14.71.41,1.29.81,1.73.41.44,1.01.66,1.81.66s1.4-.22,1.81-.66.68-1.02.81-1.73c.13-.71.2-1.58.2-2.59s-.07-1.87-.2-2.58c-.14-.71-.41-1.28-.81-1.72s-1.01-.66-1.81-.66Z"/><path class="cls-2" d="m493.64,188.24l-4.02-5.05v5.05h-3v-15.84h3v9.01l3.98-5.03h3.89l-5.22,5.95,5.26,5.91h-3.89Z"/></g></g><g class="cls-20"><g class="cls-20"><path class="cls-5" d="m433.18,354.56c.31-.54.74-.97,1.28-1.27.54-.3,1.15-.46,1.82-.46.79,0,1.47.19,2.05.58.58.38.98.92,1.2,1.62h-1.61c-.16-.29-.38-.52-.66-.67s-.61-.23-.98-.23c-.41,0-.78.09-1.1.28-.32.19-.57.45-.75.8-.18.35-.27.75-.27,1.2s.09.87.27,1.22.44.61.77.8c.33.19.71.28,1.14.28.53,0,.97-.14,1.32-.43.34-.29.56-.68.67-1.19h-2.4v-1.06h3.78v1.22c-.09.49-.29.94-.6,1.35-.31.41-.7.74-1.18.99s-1.03.38-1.62.38c-.67,0-1.28-.15-1.83-.45-.54-.3-.97-.73-1.28-1.27-.31-.54-.46-1.15-.46-1.84s.16-1.3.46-1.84Z"/><path class="cls-5" d="m445.85,357.52h-4.05c.03.41.16.73.41.96.25.23.55.35.92.35.52,0,.89-.22,1.11-.67h1.51c-.16.53-.47.97-.92,1.32-.45.34-1.01.51-1.67.51-.53,0-1.01-.12-1.43-.35-.42-.24-.75-.57-.99-1-.24-.43-.35-.93-.35-1.5s.12-1.08.35-1.51c.23-.43.56-.77.98-1s.9-.35,1.45-.35,1,.11,1.42.34c.42.23.74.55.97.96.23.41.34.89.34,1.43,0,.19-.01.36-.04.52Zm-1.41-.85c0-.39-.13-.69-.38-.91-.25-.22-.56-.34-.94-.34-.35,0-.65.11-.89.34-.24.22-.38.53-.43.91h2.64Z"/><path class="cls-5" d="m451.58,354.91c.41.42.61,1,.61,1.75v3.25h-1.4v-3.06c0-.44-.11-.78-.33-1.02-.22-.24-.52-.35-.9-.35s-.69.12-.92.35c-.22.24-.33.58-.33,1.02v3.06h-1.4v-5.54h1.4v.69c.19-.24.42-.43.71-.57s.61-.21.96-.21c.66,0,1.19.21,1.6.62Z"/><path class="cls-5" d="m458.63,357.52h-4.05c.03.41.16.73.41.96.25.23.55.35.92.35.52,0,.89-.22,1.11-.67h1.51c-.16.53-.47.97-.92,1.32-.45.34-1.01.51-1.67.51-.53,0-1.01-.12-1.43-.35-.42-.24-.75-.57-.99-1-.24-.43-.35-.93-.35-1.5s.12-1.08.35-1.51c.23-.43.56-.77.98-1s.9-.35,1.45-.35,1,.11,1.42.34c.42.23.74.55.97.96.23.41.34.89.34,1.43,0,.19-.01.36-.04.52Zm-1.41-.85c0-.39-.13-.69-.38-.91-.25-.22-.56-.34-.94-.34-.35,0-.65.11-.89.34-.24.22-.38.53-.43.91h2.64Z"/><path class="cls-5" d="m461.79,354.56c.29-.19.62-.28,1-.28v1.47h-.37c-.44,0-.77.1-1,.31s-.33.57-.33,1.08v2.76h-1.4v-5.54h1.4v.98c.18-.33.42-.59.71-.78Z"/><path class="cls-5" d="m463.7,355.62c.22-.43.53-.77.91-1s.81-.35,1.29-.35c.41,0,.77.08,1.08.25.31.17.56.38.75.63v-.79h1.41v5.54h-1.41v-.81c-.18.26-.43.47-.75.64s-.68.25-1.09.25c-.47,0-.89-.12-1.28-.36-.38-.24-.69-.58-.91-1.02s-.33-.94-.33-1.5.11-1.06.33-1.49Zm3.83.64c-.13-.24-.31-.43-.54-.56s-.47-.2-.73-.2-.5.06-.72.19c-.22.13-.4.31-.54.55-.14.24-.21.53-.21.87s.07.62.21.88.32.44.54.58c.22.13.46.2.72.2s.5-.07.73-.2.41-.32.54-.56c.13-.24.2-.54.2-.88s-.07-.63-.2-.88Z"/><path class="cls-5" d="m472.14,355.51v2.68c0,.19.04.32.13.41.09.08.24.12.46.12h.65v1.18h-.88c-1.18,0-1.77-.57-1.77-1.72v-2.67h-.66v-1.15h.66v-1.37h1.41v1.37h1.24v1.15h-1.24Z"/><path class="cls-5" d="m479.5,357.52h-4.05c.03.41.16.73.41.96.25.23.55.35.92.35.52,0,.89-.22,1.11-.67h1.51c-.16.53-.47.97-.92,1.32-.45.34-1.01.51-1.67.51-.53,0-1.01-.12-1.43-.35-.42-.24-.75-.57-.99-1-.24-.43-.35-.93-.35-1.5s.12-1.08.35-1.51c.23-.43.56-.77.98-1s.9-.35,1.45-.35,1,.11,1.42.34c.42.23.74.55.97.96.23.41.34.89.34,1.43,0,.19-.01.36-.04.52Zm-1.41-.85c0-.39-.13-.69-.38-.91-.25-.22-.56-.34-.94-.34-.35,0-.65.11-.89.34-.24.22-.38.53-.43.91h2.64Z"/><path class="cls-5" d="m486.84,359.9l-1.54-2.72h-.66v2.72h-1.4v-6.98h2.62c.54,0,1,.1,1.38.29.38.19.67.45.85.77.19.32.29.68.29,1.08,0,.46-.13.88-.4,1.25-.27.37-.66.62-1.19.76l1.67,2.83h-1.62Zm-2.2-3.76h1.17c.38,0,.66-.09.85-.28s.28-.44.28-.77-.09-.58-.28-.77c-.19-.18-.47-.27-.85-.27h-1.17v2.09Z"/><path class="cls-5" d="m494.76,357.52h-4.05c.03.41.16.73.41.96.25.23.55.35.92.35.52,0,.89-.22,1.11-.67h1.51c-.16.53-.47.97-.92,1.32-.45.34-1.01.51-1.67.51-.53,0-1.01-.12-1.43-.35-.42-.24-.75-.57-.99-1-.24-.43-.35-.93-.35-1.5s.12-1.08.35-1.51c.23-.43.56-.77.98-1s.9-.35,1.45-.35,1,.11,1.42.34c.42.23.74.55.97.96.23.41.34.89.34,1.43,0,.19-.01.36-.04.52Zm-1.41-.85c0-.39-.13-.69-.38-.91-.25-.22-.56-.34-.94-.34-.35,0-.65.11-.89.34-.24.22-.38.53-.43.91h2.64Z"/><path class="cls-5" d="m497.96,354.53c.32-.17.68-.25,1.08-.25.47,0,.9.12,1.29.35.38.23.69.57.91,1,.22.43.33.93.33,1.5s-.11,1.07-.33,1.5c-.22.44-.53.78-.91,1.02-.38.24-.81.36-1.29.36-.41,0-.77-.08-1.08-.25-.31-.17-.56-.38-.75-.63v3.43h-1.4v-8.18h1.4v.8c.18-.25.43-.46.75-.63Zm1.98,1.72c-.14-.24-.32-.43-.54-.55-.22-.13-.46-.19-.72-.19s-.49.07-.71.2c-.22.13-.4.32-.54.57-.14.25-.21.54-.21.87s.07.62.21.87c.14.25.32.44.54.57.22.13.46.2.71.2s.5-.07.72-.2c.22-.13.4-.32.54-.57.14-.25.21-.54.21-.88s-.07-.62-.21-.87Z"/><path class="cls-5" d="m503.62,359.64c-.43-.24-.76-.57-1-1-.24-.43-.37-.93-.37-1.5s.12-1.07.38-1.5c.25-.43.59-.77,1.03-1.01.43-.24.92-.35,1.45-.35s1.02.12,1.45.35c.43.24.78.57,1.03,1.01.25.43.38.93.38,1.5s-.13,1.07-.39,1.5c-.26.43-.6.77-1.04,1-.44.24-.93.35-1.47.35s-1.01-.12-1.44-.35Zm2.16-1.04c.22-.13.4-.32.53-.57.13-.25.2-.55.2-.9s-.07-.66-.2-.91c-.13-.25-.31-.44-.52-.57-.22-.13-.45-.19-.71-.19-.39,0-.73.14-1,.43s-.41.7-.41,1.23.13.93.4,1.22c.27.29.6.43.99.43.25,0,.49-.06.72-.19Z"/><path class="cls-5" d="m511.08,354.56c.29-.19.62-.28,1-.28v1.47h-.37c-.44,0-.77.1-1,.31s-.33.57-.33,1.08v2.76h-1.4v-5.54h1.4v.98c.18-.33.42-.59.71-.78Z"/><path class="cls-5" d="m514.65,355.51v2.68c0,.19.04.32.13.41.09.08.24.12.46.12h.65v1.18h-.88c-1.18,0-1.77-.57-1.77-1.72v-2.67h-.66v-1.15h.66v-1.37h1.41v1.37h1.24v1.15h-1.24Z"/></g></g><g class="cls-20"><g class="cls-20"><path class="cls-8" d="m319.16,66.33c-.39-.17-.7-.41-.93-.72-.23-.31-.34-.68-.35-1.11h1.5c.02.29.12.53.3.7.18.17.44.26.75.26s.58-.08.77-.24.28-.37.28-.64c0-.21-.06-.38-.19-.51-.13-.13-.29-.24-.47-.31-.19-.08-.45-.16-.79-.25-.45-.13-.82-.27-1.11-.4s-.53-.33-.73-.59c-.2-.26-.31-.62-.31-1.05,0-.41.1-.77.31-1.08.21-.31.5-.54.87-.71.37-.16.8-.25,1.28-.25.72,0,1.3.17,1.75.53.45.35.7.84.75,1.46h-1.54c-.01-.26-.12-.47-.31-.62-.19-.16-.44-.24-.75-.24-.27,0-.49.07-.66.21-.16.14-.24.36-.24.64,0,.19.06.34.18.46s.28.22.46.3c.18.08.44.17.78.26.45.13.82.27,1.11.4.29.13.53.33.74.6s.31.62.31,1.05c0,.37-.1.72-.29,1.04-.19.32-.48.58-.85.77-.37.19-.82.29-1.33.29-.49,0-.92-.08-1.31-.25Z"/><path class="cls-8" d="m329.38,60.97v5.54h-1.41v-.7c-.18.24-.42.43-.71.57s-.6.21-.95.21c-.43,0-.82-.09-1.15-.28-.33-.18-.59-.45-.79-.81s-.29-.78-.29-1.28v-3.25h1.4v3.05c0,.44.11.78.33,1.02.22.24.52.35.9.35s.69-.12.91-.35c.22-.24.33-.58.33-1.02v-3.05h1.41Z"/><path class="cls-8" d="m332.9,61.13c.32-.17.68-.25,1.08-.25.47,0,.9.12,1.29.35.38.23.69.57.91,1s.33.93.33,1.5-.11,1.07-.33,1.5-.53.78-.91,1.02c-.38.24-.81.36-1.29.36-.41,0-.77-.08-1.08-.25-.31-.16-.56-.38-.75-.63v.79h-1.4v-7.4h1.4v2.67c.18-.27.43-.48.75-.65Zm1.98,1.72c-.14-.24-.32-.43-.54-.55-.22-.13-.46-.19-.73-.19s-.49.07-.71.2-.4.32-.54.57c-.14.25-.21.54-.21.87s.07.62.21.87c.14.25.32.44.54.57s.46.2.71.2.5-.07.73-.2c.22-.13.4-.32.54-.57.14-.25.21-.54.21-.88s-.07-.62-.21-.87Z"/><path class="cls-8" d="m346.06,61.51c.42.42.62,1,.62,1.75v3.25h-1.4v-3.06c0-.43-.11-.77-.33-1-.22-.23-.52-.35-.9-.35s-.68.12-.9.35c-.22.23-.33.56-.33,1v3.06h-1.4v-3.06c0-.43-.11-.77-.33-1-.22-.23-.52-.35-.9-.35s-.69.12-.92.35c-.22.23-.33.56-.33,1v3.06h-1.4v-5.54h1.4v.67c.18-.23.41-.42.7-.55s.59-.2.94-.2c.43,0,.82.09,1.16.28.34.18.6.44.79.79.18-.32.44-.58.79-.77s.71-.29,1.12-.29c.68,0,1.23.21,1.64.62Z"/><path class="cls-8" d="m348.12,60.08c-.16-.16-.25-.35-.25-.58s.08-.43.25-.59c.16-.16.37-.23.61-.23s.45.08.62.23c.16.16.25.35.25.59s-.08.43-.25.58c-.16.16-.37.23-.62.23s-.45-.08-.61-.23Zm1.3.89v5.54h-1.4v-5.54h1.4Z"/><path class="cls-8" d="m351.69,66.35c-.36-.16-.64-.38-.85-.67-.21-.28-.33-.59-.34-.93h1.41c.03.23.13.42.31.57.18.14.41.21.69.21s.48-.06.62-.17c.15-.11.23-.26.23-.45s-.09-.32-.28-.41c-.18-.09-.48-.19-.88-.29-.41-.1-.74-.2-1-.3s-.48-.26-.67-.49c-.19-.22-.28-.51-.28-.87,0-.31.08-.6.25-.85s.42-.46.75-.61c.33-.15.72-.22,1.17-.22.66,0,1.19.17,1.58.5s.61.77.65,1.33h-1.34c-.02-.23-.11-.42-.28-.56-.16-.14-.38-.21-.66-.21-.25,0-.45.05-.58.16s-.21.25-.21.42.09.33.28.42c.19.1.48.2.87.3.4.1.73.2.99.31.26.11.48.27.67.49s.28.51.28.88c0,.32-.09.61-.26.86-.17.26-.42.46-.75.61-.33.15-.71.22-1.16.22s-.86-.08-1.21-.25Z"/><path class="cls-8" d="m357.14,66.35c-.36-.16-.64-.38-.85-.67-.21-.28-.32-.59-.34-.93h1.41c.03.23.13.42.31.57.18.14.41.21.69.21s.47-.06.62-.17c.15-.11.22-.26.22-.45s-.09-.32-.27-.41c-.18-.09-.48-.19-.88-.29-.41-.1-.74-.2-1-.3-.26-.1-.48-.26-.67-.49-.19-.22-.28-.51-.28-.87,0-.31.08-.6.25-.85s.42-.46.75-.61c.33-.15.72-.22,1.17-.22.66,0,1.19.17,1.58.5.39.33.61.77.65,1.33h-1.34c-.02-.23-.11-.42-.27-.56-.16-.14-.38-.21-.66-.21-.25,0-.45.05-.58.16s-.21.25-.21.42.09.33.28.42c.19.1.48.2.87.3.4.1.73.2.99.31s.48.27.67.49.28.51.28.88c0,.32-.09.61-.26.86-.17.26-.42.46-.75.61-.33.15-.71.22-1.16.22s-.86-.08-1.21-.25Z"/><path class="cls-8" d="m361.79,60.08c-.16-.16-.25-.35-.25-.58s.08-.43.25-.59c.16-.16.37-.23.61-.23s.45.08.62.23c.16.16.25.35.25.59s-.08.43-.25.58c-.16.16-.37.23-.62.23s-.45-.08-.61-.23Zm1.3.89v5.54h-1.4v-5.54h1.4Z"/><path class="cls-8" d="m365.5,66.25c-.43-.24-.76-.57-1-1-.24-.43-.37-.93-.37-1.5s.12-1.07.38-1.5c.25-.43.59-.77,1.03-1.01.43-.24.92-.35,1.45-.35s1.02.12,1.45.35c.43.24.78.57,1.03,1.01.25.43.38.93.38,1.5s-.13,1.07-.39,1.5c-.26.43-.6.77-1.04,1-.44.24-.93.35-1.47.35s-1.01-.12-1.44-.35Zm2.16-1.04c.22-.13.4-.32.53-.57.13-.25.2-.55.2-.9s-.07-.66-.2-.91c-.13-.25-.31-.44-.52-.57-.22-.13-.45-.19-.71-.19-.39,0-.73.14-1,.43s-.41.7-.41,1.23.13.93.4,1.22c.27.29.6.43.99.43.25,0,.49-.06.72-.19Z"/><path class="cls-8" d="m375.53,61.51c.41.42.61,1,.61,1.75v3.25h-1.4v-3.06c0-.44-.11-.78-.33-1.02-.22-.24-.52-.35-.9-.35s-.69.12-.92.35c-.22.24-.33.58-.33,1.02v3.06h-1.4v-5.54h1.4v.69c.19-.24.43-.43.72-.57s.61-.21.95-.21c.66,0,1.19.21,1.6.62Z"/><path class="cls-8" d="m384.52,59.96c.56.29.99.69,1.29,1.22.3.53.46,1.15.46,1.84s-.15,1.31-.46,1.84c-.3.52-.73.93-1.29,1.21-.56.29-1.2.43-1.94.43h-2.44v-6.98h2.44c.73,0,1.38.14,1.94.43Zm-.29,4.79c.4-.41.6-.99.6-1.72s-.2-1.3-.6-1.71c-.4-.41-.97-.62-1.7-.62h-.99v4.67h.99c.73,0,1.29-.21,1.7-.62Z"/><path class="cls-8" d="m387.29,62.23c.22-.43.53-.77.91-1s.81-.35,1.29-.35c.41,0,.77.08,1.08.25.31.17.56.38.75.63v-.79h1.41v5.54h-1.41v-.81c-.18.26-.43.47-.75.64s-.68.25-1.09.25c-.47,0-.89-.12-1.28-.36-.38-.24-.69-.58-.91-1.02s-.33-.94-.33-1.5.11-1.06.33-1.49Zm3.83.64c-.13-.24-.31-.43-.54-.56s-.47-.2-.73-.2-.5.06-.72.19c-.22.13-.4.31-.54.55-.14.24-.21.53-.21.87s.07.62.21.88.32.44.54.58c.22.13.46.2.72.2s.5-.07.73-.2.41-.32.54-.56c.13-.24.2-.54.2-.88s-.07-.63-.2-.88Z"/><path class="cls-8" d="m395.73,62.12v2.68c0,.19.05.32.14.41.09.08.24.12.46.12h.65v1.18h-.88c-1.18,0-1.77-.57-1.77-1.72v-2.67h-.66v-1.15h.66v-1.37h1.41v1.37h1.24v1.15h-1.24Z"/><path class="cls-8" d="m403.09,64.13h-4.05c.03.41.16.73.41.96.25.23.55.35.92.35.52,0,.89-.22,1.11-.67h1.51c-.16.53-.47.97-.92,1.32-.45.34-1.01.51-1.67.51-.53,0-1.01-.12-1.43-.35-.42-.24-.75-.57-.99-1-.24-.43-.35-.93-.35-1.5s.12-1.08.35-1.51c.23-.43.56-.77.98-1s.9-.35,1.45-.35,1,.11,1.42.34c.42.23.74.55.97.96.23.41.34.89.34,1.43,0,.19-.01.36-.04.52Zm-1.41-.85c0-.39-.13-.69-.38-.91-.25-.22-.56-.34-.94-.34-.35,0-.65.11-.89.34-.24.22-.38.53-.43.91h2.64Z"/></g></g><circle class="cls-14" cx="342.24" cy="104.98" r="8.23"/><circle class="cls-14" cx="424.09" cy="104.98" r="8.23"/><line class="cls-16" x1="350.47" y1="104.98" x2="415.86" y2="104.98"/><line class="cls-13" x1="315.45" y1="104.98" x2="334.02" y2="104.98"/><g class="cls-20"><g class="cls-20"><path class="cls-9" d="m221.11,84.85c-.3-.14-.54-.32-.71-.56-.17-.24-.26-.52-.27-.83h.81c.03.28.14.51.34.7.2.19.48.29.85.29s.64-.09.85-.28c.21-.19.32-.42.32-.71,0-.22-.06-.4-.18-.54-.12-.14-.27-.24-.46-.32-.18-.07-.43-.15-.74-.23-.38-.1-.69-.2-.92-.3s-.43-.26-.59-.47-.24-.5-.24-.86c0-.32.08-.59.24-.84.16-.24.39-.43.68-.56s.62-.2,1-.2c.54,0,.99.13,1.33.41.35.27.54.63.58,1.08h-.83c-.03-.24-.14-.44-.34-.61-.2-.17-.47-.25-.82-.25-.32,0-.57.08-.77.25s-.3.4-.3.71c0,.21.06.38.18.51s.27.23.44.3c.17.07.42.15.73.24.38.11.69.21.92.31.23.1.43.26.6.47s.25.5.25.87c0,.28-.07.55-.22.8s-.37.45-.66.61c-.29.15-.64.23-1.04.23s-.72-.07-1.03-.2Z"/><path class="cls-9" d="m229.21,80.45v4.55h-.76v-.67c-.14.23-.34.41-.6.54s-.54.2-.85.2c-.35,0-.67-.07-.95-.22s-.51-.37-.67-.66-.24-.65-.24-1.07v-2.67h.75v2.57c0,.45.11.79.34,1.03.23.24.54.36.93.36s.72-.12.95-.37.35-.61.35-1.09v-2.5h.76Z"/><path class="cls-9" d="m231.92,80.63c.3-.17.64-.26,1.02-.26.41,0,.78.1,1.1.29.33.19.58.47.77.82.19.35.28.76.28,1.22s-.09.87-.28,1.23-.45.64-.78.84c-.33.2-.7.3-1.1.3s-.74-.08-1.03-.26-.52-.39-.67-.66v.84h-.76v-6.14h.76v2.44c.15-.27.38-.49.68-.66Zm2.2,1.18c-.14-.25-.33-.45-.56-.58-.24-.13-.49-.2-.78-.2s-.53.07-.77.2-.42.33-.56.59c-.14.26-.21.55-.21.89s.07.64.21.9c.14.26.33.45.56.59.24.14.49.2.77.2s.54-.07.78-.2c.23-.13.42-.33.56-.59.14-.26.21-.56.21-.91s-.07-.64-.21-.9Z"/><path class="cls-9" d="m242.51,80.59c.28.15.5.37.66.66.16.29.24.65.24,1.07v2.68h-.75v-2.57c0-.45-.11-.8-.34-1.04-.22-.24-.53-.36-.91-.36s-.71.13-.94.38c-.23.25-.35.62-.35,1.09v2.51h-.75v-2.57c0-.45-.11-.8-.34-1.04-.22-.24-.53-.36-.91-.36s-.71.13-.94.38c-.23.25-.35.62-.35,1.09v2.51h-.76v-4.55h.76v.66c.15-.24.35-.42.6-.55s.53-.19.83-.19c.38,0,.72.09,1.01.26s.51.42.66.75c.13-.32.34-.57.63-.75.29-.18.62-.27.98-.27s.67.07.95.22Z"/><path class="cls-9" d="m244.67,79.56c-.1-.1-.15-.22-.15-.37s.05-.27.15-.37.22-.15.37-.15.26.05.35.15.15.22.15.37-.05.27-.15.37-.21.15-.35.15-.27-.05-.37-.15Zm.73.89v4.55h-.76v-4.55h.76Z"/><path class="cls-9" d="m247.61,81.07v2.68c0,.22.05.38.14.47.09.09.26.14.49.14h.56v.64h-.68c-.42,0-.74-.1-.95-.29-.21-.19-.32-.51-.32-.96v-2.68h-.59v-.62h.59v-1.14h.76v1.14h1.19v.62h-1.19Z"/><path class="cls-9" d="m250.63,81.07v2.68c0,.22.05.38.14.47.09.09.26.14.49.14h.56v.64h-.68c-.42,0-.74-.1-.95-.29-.21-.19-.32-.51-.32-.96v-2.68h-.59v-.62h.59v-1.14h.76v1.14h1.19v.62h-1.19Z"/><path class="cls-9" d="m256.85,82.98h-3.64c.02.45.17.8.45,1.06.28.26.62.39,1.02.39.33,0,.6-.08.82-.23.22-.15.37-.36.46-.61h.81c-.12.44-.37.79-.73,1.07-.37.27-.82.41-1.36.41-.43,0-.82-.1-1.16-.29s-.61-.47-.8-.83c-.19-.36-.29-.77-.29-1.24s.09-.88.28-1.24c.19-.35.45-.63.79-.82.34-.19.73-.29,1.17-.29s.81.09,1.14.28c.33.19.58.45.77.77.18.33.27.69.27,1.1,0,.14,0,.29-.02.45Zm-.95-1.32c-.13-.21-.3-.38-.52-.49-.22-.11-.46-.17-.73-.17-.39,0-.72.13-.99.38-.27.25-.42.6-.45,1.04h2.87c0-.3-.06-.55-.19-.77Z"/><path class="cls-9" d="m257.87,81.49c.19-.35.45-.62.78-.82.33-.19.7-.29,1.11-.29.35,0,.68.08.99.25s.54.38.7.64v-2.41h.76v6.14h-.76v-.85c-.15.27-.37.49-.66.67-.29.17-.64.26-1.03.26s-.77-.1-1.1-.3-.59-.48-.78-.84c-.19-.36-.28-.77-.28-1.23s.09-.87.28-1.22Zm3.36.34c-.14-.25-.33-.45-.56-.58-.24-.14-.49-.2-.78-.2s-.54.07-.77.2-.42.33-.56.58c-.14.25-.21.55-.21.9s.07.65.21.91c.14.26.32.45.56.59.23.14.49.2.77.2s.54-.07.78-.2c.23-.13.42-.33.56-.59.14-.26.21-.56.21-.9s-.07-.64-.21-.9Z"/></g><g class="cls-20"><path class="cls-9" d="m220.4,95.58c.25-.45.6-.8,1.04-1.06.44-.25.93-.38,1.46-.38.63,0,1.18.15,1.65.46s.81.74,1.03,1.29h-.9c-.16-.34-.39-.6-.69-.78-.3-.19-.66-.28-1.08-.28s-.77.09-1.09.28c-.32.19-.57.45-.76.8s-.27.75-.27,1.2.09.85.27,1.2c.18.34.43.61.76.79.32.19.68.28,1.09.28s.78-.09,1.08-.27c.3-.18.53-.44.69-.78h.9c-.22.55-.56.98-1.03,1.28s-1.02.45-1.65.45c-.54,0-1.02-.13-1.46-.38-.44-.25-.79-.6-1.04-1.05-.25-.45-.38-.95-.38-1.52s.13-1.07.38-1.52Z"/><path class="cls-9" d="m227.53,99.78c-.35-.19-.62-.47-.81-.83-.2-.36-.29-.77-.29-1.24s.1-.88.3-1.23c.2-.36.48-.63.83-.82.35-.19.74-.29,1.17-.29s.82.1,1.17.29c.35.19.62.46.83.82.2.35.3.77.3,1.24s-.1.88-.31,1.24c-.21.36-.49.63-.84.83s-.75.29-1.18.29-.81-.1-1.16-.29Zm1.92-.54c.24-.13.43-.32.58-.58.15-.26.22-.57.22-.94s-.07-.68-.22-.93c-.14-.26-.33-.45-.56-.58s-.48-.19-.76-.19-.53.06-.76.19-.41.32-.55.58c-.14.26-.21.57-.21.93s.07.68.2.94c.14.26.32.45.54.58.23.13.48.2.75.2s.53-.06.76-.2Z"/><path class="cls-9" d="m238.44,95.59c.28.15.5.37.66.66.16.29.24.65.24,1.07v2.68h-.75v-2.57c0-.45-.11-.8-.34-1.04-.22-.24-.53-.36-.91-.36s-.71.13-.94.38c-.23.25-.35.62-.35,1.09v2.51h-.75v-2.57c0-.45-.11-.8-.34-1.04-.22-.24-.53-.36-.91-.36s-.71.13-.94.38c-.23.25-.35.62-.35,1.09v2.51h-.76v-4.55h.76v.66c.15-.24.35-.42.6-.55s.53-.19.83-.19c.38,0,.72.09,1.01.26s.51.42.66.75c.13-.32.34-.57.63-.75.29-.18.62-.27.98-.27s.67.07.95.22Z"/><path class="cls-9" d="m241.99,95.64c.3-.17.64-.26,1.03-.26s.77.1,1.1.29c.33.19.59.47.78.82.19.35.28.76.28,1.22s-.09.87-.28,1.23-.45.64-.78.84c-.33.2-.7.3-1.1.3s-.73-.09-1.02-.26c-.3-.17-.52-.39-.68-.65v3h-.76v-6.71h.76v.84c.15-.26.37-.48.67-.65Zm2.21,1.17c-.14-.25-.33-.45-.56-.58-.24-.13-.49-.2-.78-.2s-.53.07-.77.2-.42.33-.56.59c-.14.26-.21.55-.21.89s.07.64.21.9c.14.26.33.45.56.59.24.14.49.2.77.2s.54-.07.78-.2c.23-.13.42-.33.56-.59.14-.26.21-.56.21-.91s-.07-.64-.21-.9Z"/><path class="cls-9" d="m246.93,93.86v6.14h-.76v-6.14h.76Z"/><path class="cls-9" d="m252.35,97.98h-3.64c.02.45.17.8.45,1.06.28.26.62.39,1.02.39.33,0,.6-.08.82-.23.22-.15.37-.36.46-.61h.81c-.12.44-.37.79-.73,1.07-.37.27-.82.41-1.36.41-.43,0-.82-.1-1.16-.29s-.61-.47-.8-.83c-.19-.36-.29-.77-.29-1.24s.09-.88.28-1.24c.19-.35.45-.63.79-.82.34-.19.73-.29,1.17-.29s.81.09,1.14.28c.33.19.58.45.77.77.18.33.27.69.27,1.1,0,.14,0,.29-.02.45Zm-.95-1.32c-.13-.21-.3-.38-.52-.49-.22-.11-.46-.17-.73-.17-.39,0-.72.13-.99.38-.27.25-.42.6-.45,1.04h2.87c0-.3-.06-.55-.19-.77Z"/><path class="cls-9" d="m254.29,96.07v2.68c0,.22.05.38.14.47.09.09.26.14.49.14h.56v.64h-.68c-.42,0-.74-.1-.95-.29-.21-.19-.32-.51-.32-.96v-2.68h-.59v-.62h.59v-1.14h.76v1.14h1.19v.62h-1.19Z"/><path class="cls-9" d="m260.51,97.98h-3.64c.02.45.17.8.45,1.06.28.26.62.39,1.02.39.33,0,.6-.08.82-.23.22-.15.37-.36.46-.61h.81c-.12.44-.37.79-.73,1.07-.37.27-.82.41-1.36.41-.43,0-.82-.1-1.16-.29s-.61-.47-.8-.83c-.19-.36-.29-.77-.29-1.24s.09-.88.28-1.24c.19-.35.45-.63.79-.82.34-.19.73-.29,1.17-.29s.81.09,1.14.28c.33.19.58.45.77.77.18.33.27.69.27,1.1,0,.14,0,.29-.02.45Zm-.95-1.32c-.13-.21-.3-.38-.52-.49-.22-.11-.46-.17-.73-.17-.39,0-.72.13-.99.38-.27.25-.42.6-.45,1.04h2.87c0-.3-.06-.55-.19-.77Z"/><path class="cls-9" d="m261.53,96.49c.19-.35.45-.62.78-.82.33-.19.7-.29,1.11-.29.35,0,.68.08.99.25s.54.38.7.64v-2.41h.76v6.14h-.76v-.85c-.15.27-.37.49-.66.67-.29.17-.64.26-1.03.26s-.77-.1-1.1-.3-.59-.48-.78-.84c-.19-.36-.28-.77-.28-1.23s.09-.87.28-1.22Zm3.36.34c-.14-.25-.33-.45-.56-.58-.24-.14-.49-.2-.78-.2s-.54.07-.77.2-.42.33-.56.58c-.14.25-.21.55-.21.9s.07.65.21.91c.14.26.32.45.56.59.23.14.49.2.77.2s.54-.07.78-.2c.23-.13.42-.33.56-.59.14-.26.21-.56.21-.9s-.07-.64-.21-.9Z"/></g><g class="cls-20"><path class="cls-9" d="m221.45,114.68c-.44-.25-.79-.6-1.05-1.05-.26-.45-.39-.96-.39-1.52s.13-1.07.39-1.52.61-.8,1.05-1.05c.44-.25.93-.38,1.47-.38s1.03.13,1.48.38.79.6,1.05,1.05.38.96.38,1.53-.13,1.08-.38,1.53-.6.8-1.05,1.05-.94.38-1.48.38-1.03-.12-1.47-.38Zm2.56-.58c.32-.19.58-.45.76-.8.19-.34.28-.74.28-1.2s-.09-.85-.28-1.2c-.19-.35-.44-.61-.76-.8s-.69-.28-1.09-.28-.77.09-1.09.28-.58.45-.76.8-.28.75-.28,1.2.09.85.28,1.2c.19.34.44.61.76.8.32.19.69.28,1.09.28s.77-.09,1.09-.28Z"/><path class="cls-9" d="m228.67,111.07h-.95v3.93h-.76v-3.93h-.59v-.62h.59v-.32c0-.51.13-.88.39-1.12s.69-.35,1.27-.35v.63c-.33,0-.57.06-.7.19s-.2.34-.2.64v.32h.95v.62Z"/><path class="cls-9" d="m231.4,111.07h-.95v3.93h-.76v-3.93h-.59v-.62h.59v-.32c0-.51.13-.88.39-1.12s.69-.35,1.27-.35v.63c-.33,0-.57.06-.7.19s-.2.34-.2.64v.32h.95v.62Z"/><path class="cls-9" d="m236.41,112.98h-3.64c.02.45.17.8.45,1.06.28.26.62.39,1.02.39.33,0,.6-.08.82-.23.22-.15.37-.36.46-.61h.81c-.12.44-.37.79-.73,1.07-.37.27-.82.41-1.36.41-.43,0-.82-.1-1.16-.29s-.61-.47-.8-.83c-.19-.36-.29-.77-.29-1.24s.09-.88.28-1.24c.19-.35.45-.63.79-.82.34-.19.73-.29,1.17-.29s.81.09,1.14.28c.33.19.58.45.77.77.18.33.27.69.27,1.1,0,.14,0,.29-.02.45Zm-.95-1.32c-.13-.21-.3-.38-.52-.49-.22-.11-.46-.17-.73-.17-.39,0-.72.13-.99.38-.27.25-.42.6-.45,1.04h2.87c0-.3-.06-.55-.19-.77Z"/><path class="cls-9" d="m238.75,110.62c.25-.17.55-.25.9-.25v.78h-.2c-.85,0-1.27.46-1.27,1.38v2.47h-.76v-4.55h.76v.86c.13-.3.32-.53.57-.7Z"/><path class="cls-9" d="m244.65,112.98h-3.64c.02.45.17.8.45,1.06.28.26.62.39,1.02.39.33,0,.6-.08.82-.23.22-.15.37-.36.46-.61h.81c-.12.44-.37.79-.73,1.07-.37.27-.82.41-1.36.41-.43,0-.82-.1-1.16-.29s-.61-.47-.8-.83c-.19-.36-.29-.77-.29-1.24s.09-.88.28-1.24c.19-.35.45-.63.79-.82.34-.19.73-.29,1.17-.29s.81.09,1.14.28c.33.19.58.45.77.77.18.33.27.69.27,1.1,0,.14,0,.29-.02.45Zm-.95-1.32c-.13-.21-.3-.38-.52-.49-.22-.11-.46-.17-.73-.17-.39,0-.72.13-.99.38-.27.25-.42.6-.45,1.04h2.87c0-.3-.06-.55-.19-.77Z"/><path class="cls-9" d="m245.67,111.49c.19-.35.45-.62.78-.82.33-.19.7-.29,1.11-.29.35,0,.68.08.99.25s.54.38.7.64v-2.41h.76v6.14h-.76v-.85c-.15.27-.37.49-.66.67-.29.17-.64.26-1.03.26s-.77-.1-1.1-.3-.59-.48-.78-.84c-.19-.36-.28-.77-.28-1.23s.09-.87.28-1.22Zm3.36.34c-.14-.25-.33-.45-.56-.58-.24-.14-.49-.2-.78-.2s-.54.07-.77.2-.42.33-.56.58c-.14.25-.21.55-.21.9s.07.65.21.91c.14.26.32.45.56.59.23.14.49.2.77.2s.54-.07.78-.2c.23-.13.42-.33.56-.59.14-.26.21-.56.21-.9s-.07-.64-.21-.9Z"/></g></g><path class="cls-7" d="m56.42,171.89c-1.47.26-1.38,2.41.27,2.12,4.13-.71,7.88-1.6,11.25-2.68,1.42-.46,4.02-1.85,2.81-3.8-1.97-3.19-3.72-6.16-5.23-8.91-.9-1.63-3.02-.4-2.11,1.15,1.63,2.78,3.3,5.62,5.03,8.54.09.16.04.36-.12.45h-.02c-1.01.51-2.12.93-3.3,1.24-2.83.75-5.69,1.37-8.58,1.87h0v.02Zm-41.34-30.54c5.11,7.29,12.82,12.77,20.84,16.44,9.34,4.26,19.08,7.12,29.24,8.57,1.8.26,1.21,2.42-.59,2.16-10.77-1.57-21.01-4.64-30.72-9.21-7.99-3.77-15.44-9.3-20.7-16.47-1.39-1.89.91-2.95,1.94-1.49h0Z"/><circle class="cls-18" cx="37.35" cy="20.18" r="19.68"/><path class="cls-4" d="m47.13,14.46l-18.29-5.35c-.15-.04-.27-.06-.4-.06-.78,0-1.45.63-1.45,1.45v8.63h1.09v-8.63c0-.23.19-.36.36-.36.04,0,.06,0,.1.02l18.29,5.33c.15.04.25.19.25.36v11.51c0,.23-.19.36-.36.36-.04,0-.06,0-.1-.02l-4.18-1.22v1.13l3.86,1.13c.15.04.27.06.4.06.78,0,1.45-.63,1.45-1.45v-11.51c.02-.65-.4-1.22-1.03-1.39h0Z"/><path class="cls-4" d="m41.12,29.2v-11.68c0-.76-.61-1.36-1.36-1.36s-1.36.61-1.36,1.36v11.68c0,.76.61,1.36,1.36,1.36s1.36-.61,1.36-1.36Z"/><path class="cls-4" d="m37.07,27.92v-8.97c0-.76-.61-1.36-1.36-1.36s-1.36.61-1.36,1.36v8.97c0,.76.61,1.36,1.36,1.36s1.36-.61,1.36-1.36Z"/><path class="cls-4" d="m33.02,26.53v-6.26c0-.76-.61-1.36-1.36-1.36s-1.36.61-1.36,1.36v6.26c0,.76.61,1.36,1.36,1.36s1.36-.61,1.36-1.36Z"/><path class="cls-4" d="m27.6,26.66c-.76,0-1.36-.61-1.36-1.36v-3.61c0-.76.61-1.36,1.36-1.36s1.36.61,1.36,1.36v3.61c.02.76-.61,1.36-1.36,1.36Z"/><rect class="cls-5" x="33.59" y="267.03" width="491.44" height="21.77"/><rect class="cls-5" x="33.59" y="242.47" width="491.44" height="21.77"/><rect class="cls-5" x="33.59" y="311.12" width="491.44" height="21.77"/><rect class="cls-6" x="33.59" y="289.08" width="491.44" height="21.77"/><path class="cls-2" d="m71.31,59.41c-14.45,0-26.16,11.71-26.16,26.16s11.71,26.16,26.16,26.16,26.16-11.71,26.16-26.16-11.71-26.16-26.16-26.16"/><path class="cls-5" d="m80.48,71.13c1.85,0,3.34,1.5,3.34,3.34s-1.5,3.34-3.34,3.34-3.34-1.5-3.34-3.34,1.5-3.34,3.34-3.34"/><path class="cls-5" d="m62.31,100.24c-1.82,0-3.3-1.48-3.3-3.3s1.48-3.3,3.3-3.3,3.3,1.48,3.3,3.3-1.48,3.3-3.3,3.3"/><path class="cls-5" d="m76.67,100.21c-2.88.31-5.82.05-8.8.05v-6.57h4.57c1.04,0,2.07.02,3.11,0,1.27-.03,2.26-1.04,2.26-2.28s-.99-2.28-2.25-2.3c-2.74-.04-5.48-.04-8.22-.05-4.77-.01-8.62-3.69-8.98-8.57-.32-4.41,3.2-8.8,7.72-9.24,2.86-.28,5.76-.05,8.71-.05v6.6h-4.2c-1.04,0-2.52-.01-3.56,0-1.41.01-2.43.98-2.45,2.28-.01,1.31,1,2.3,2.42,2.31,2.65.01,5.75-.03,8.4.02,4.27.08,7.81,2.84,8.79,6.78,1.3,5.22-2.13,10.44-7.52,11.03"/><line class="cls-12" x1="44.48" y1="276.24" x2="57.03" y2="276.24"/><line class="cls-12" x1="92.2" y1="276.24" x2="128.69" y2="276.24"/><line class="cls-12" x1="328.29" y1="276.24" x2="364.79" y2="276.24"/><line class="cls-12" x1="328.29" y1="323.12" x2="364.79" y2="323.12"/><line class="cls-12" x1="92.2" y1="301.35" x2="156.66" y2="301.35"/><line class="cls-12" x1="92.2" y1="323.96" x2="156.66" y2="323.96"/><line class="cls-12" x1="196.85" y1="276.24" x2="253.73" y2="276.24"/><line class="cls-12" x1="196.85" y1="301.35" x2="297.31" y2="301.35"/><line class="cls-12" x1="196.85" y1="323.96" x2="297.31" y2="323.96"/><line class="cls-12" x1="457.93" y1="276.24" x2="493.45" y2="276.24"/><line class="cls-12" x1="457.93" y1="301.35" x2="502.34" y2="301.35"/><line class="cls-12" x1="457.93" y1="323.96" x2="494.44" y2="323.96"/><line class="cls-11" x1="44.48" y1="252.8" x2="57.03" y2="252.8"/><line class="cls-11" x1="92.2" y1="252.8" x2="159.3" y2="252.8"/><line class="cls-11" x1="196.85" y1="252.8" x2="263.95" y2="252.8"/><line class="cls-11" x1="328.29" y1="252.8" x2="368.47" y2="252.8"/><line class="cls-11" x1="456.94" y1="252.8" x2="504.31" y2="252.8"/><line class="cls-12" x1="44.48" y1="300.52" x2="57.03" y2="300.52"/><line class="cls-12" x1="44.48" y1="322.28" x2="57.03" y2="322.28"/><line class="cls-15" x1="33.59" y1="265.24" x2="525.03" y2="265.24"/></svg>