<?xml version="1.0" encoding="UTF-8"?><svg id="Layer_1" xmlns="http://www.w3.org/2000/svg" xmlns:xlink="http://www.w3.org/1999/xlink" viewBox="0 0 929.1 677.2"><defs><style>.cls-1{fill:#2b294d;}.cls-2{fill:url(#linear-gradient-3);}.cls-3{fill:url(#linear-gradient-2);}.cls-4{fill:#52baeb;}.cls-5{fill:#1761ab;}.cls-6{fill:#ffde00;}.cls-7{fill:url(#linear-gradient);}.cls-8{fill:#fa383d;}.cls-9{fill:#e90000;}.cls-10{fill:#3c1053;}.cls-11{fill:#0f5499;}.cls-12{fill:#fff;}.cls-13{fill:#243059;}.cls-14{fill:#26abe3;}.cls-15{fill:#006ab4;}.cls-16{fill:#919499;}.cls-17{fill:#c20000;}.cls-18{fill:#29337a;}.cls-19{fill:#001445;}.cls-20{fill:#f28a24;}.cls-21{fill:#b5024c;}.cls-22{fill:#db9c00;}.cls-23{fill:#ed6e26;}.cls-24{fill:#757674;}</style><linearGradient id="linear-gradient" x1="384.59" y1="618.89" x2="385.09" y2="618.69" gradientTransform="translate(-10843.3 11073.5) scale(29.8 -17.2)" gradientUnits="userSpaceOnUse"><stop offset="0" stop-color="#c20000" stop-opacity=".1"/><stop offset=".2" stop-color="#c20000" stop-opacity=".2"/><stop offset=".7" stop-color="#c20000" stop-opacity=".4"/><stop offset="1" stop-color="#c20000" stop-opacity=".6"/></linearGradient><linearGradient id="linear-gradient-2" x1="384.06" y1="618.83" x2="383.76" y2="618.53" gradientTransform="translate(-10858.3 11072.5) scale(29.8 -17.2)" gradientUnits="userSpaceOnUse"><stop offset="0" stop-color="#c20000" stop-opacity=".1"/><stop offset=".2" stop-color="#c20000" stop-opacity=".2"/><stop offset=".6" stop-color="#c20000" stop-opacity=".4"/><stop offset="1" stop-color="#c20000" stop-opacity=".7"/></linearGradient><linearGradient id="linear-gradient-3" x1="390.31" y1="627.51" x2="390.51" y2="627.11" gradientTransform="translate(-5220.4 22061.41) scale(14.9 -34.5)" gradientUnits="userSpaceOnUse"><stop offset="0" stop-color="#c20000" stop-opacity=".1"/><stop offset=".2" stop-color="#c20000" stop-opacity=".2"/><stop offset=".6" stop-color="#c20000" stop-opacity=".4"/><stop offset="1" stop-color="#c20000" stop-opacity=".7"/></linearGradient></defs><g id="Layer_1-2"><path class="cls-12" d="M33,0h382.1c18.2,0,33,14.8,33,33v82.4c0,18.2-14.8,33-33,33H33c-18.2,0-33-14.8-33-33V33C0,14.8,14.8,0,33,0Z"/><path class="cls-12" d="M33,176.3h382.1c18.2,0,33,14.8,33,33v82.4c0,18.2-14.8,33-33,33H33c-18.2,0-33-14.8-33-33v-82.4c0-18.2,14.8-33,33-33h0Z"/><path class="cls-12" d="M33,352.5h382.1c18.2,0,33,14.8,33,33v82.4c0,18.2-14.8,33-33,33H33c-18.2,0-33-14.8-33-33v-82.4c0-18.2,14.8-33,33-33Z"/><path class="cls-12" d="M33,528.8h382.1c18.2,0,33,14.8,33,33v82.4c0,18.2-14.8,33-33,33H33c-18.2,0-33-14.8-33-33v-82.4c0-18.2,14.8-33,33-33Z"/><path class="cls-12" d="M514,0h382.1c18.2,0,33,14.8,33,33v82.4c0,18.2-14.8,33-33,33h-382.1c-18.2,0-33-14.8-33-33V33c0-18.2,14.8-33,33-33Z"/><path class="cls-12" d="M514,176.3h382.1c18.2,0,33,14.8,33,33v82.4c0,18.2-14.8,33-33,33h-382.1c-18.2,0-33-14.8-33-33v-82.4c0-18.2,14.8-33,33-33h0Z"/><path class="cls-12" d="M514,352.5h382.1c18.2,0,33,14.8,33,33v82.4c0,18.2-14.8,33-33,33h-382.1c-18.2,0-33-14.8-33-33v-82.4c0-18.2,14.8-33,33-33Z"/><path class="cls-12" d="M514,528.8h382.1c18.2,0,33,14.8,33,33v82.4c0,18.2-14.8,33-33,33h-382.1c-18.2,0-33-14.8-33-33v-82.4c0-18.2,14.8-33,33-33Z"/><polygon class="cls-6" points="178.5 198.9 213 198.9 178.5 223.3 178.5 198.9"/><polygon class="cls-22" points="213 198.9 247.5 198.9 247.5 223.3 213 198.9"/><path class="cls-1" d="M177.2,294.3c.4.4.8.8,1.2,1.1.5.4,1,.7,1.6,1s1.3.5,2,.7,1.6.3,2.5.3,1.9-.1,2.8-.4,1.6-.7,2.2-1.2c.6-.5,1.1-1.1,1.5-1.8.4-.7.6-1.5.6-2.3s-.2-1.8-.5-2.4c-.3-.7-.7-1.2-1.2-1.7s-1.1-.8-1.7-1.1c-.6-.3-1.3-.5-2-.7-1.1-.2-2.1-.6-2.7-1-.7-.4-1-.9-1-1.5s.1-.5.2-.7c.1-.2.3-.4.6-.5.2-.2.5-.3.8-.4s.6-.1.9-.1.9,0,1.2.2c.4.1.8.2,1.1.4.3.2.6.3.9.5.3.2.5.4.7.5l2.4-2.6c-.2-.2-.4-.4-.7-.7-.3-.3-.7-.6-1.2-.8-.5-.3-1.1-.5-1.8-.7s-1.5-.3-2.5-.3-2.1.1-2.9.5c-.8.3-1.5.7-2.1,1.2s-1,1.1-1.2,1.8c-.3.7-.4,1.4-.4,2.2s.1,1.3.4,1.9c.2.6.6,1.1,1,1.5s.9.8,1.5,1.1,1.2.5,1.9.7c1.4.4,2.5.7,3.1,1.1.7.4,1,.9,1,1.6s-.1.6-.2.8-.4.5-.6.6c-.3.2-.5.3-.9.4-.3.1-.6.1-.9.1-.5,0-1-.1-1.5-.2s-.9-.3-1.3-.5c-.4-.2-.8-.5-1.1-.7-.3-.3-.6-.5-.8-.8l-2.9,2.9h0ZM198.6,293.6c-.4-.2-.7-.5-1-.8s-.4-.7-.6-1.1c-.1-.4-.2-.8-.2-1.3s.1-.9.2-1.3c.1-.4.3-.8.6-1.1.2-.3.6-.6,1-.8.4-.2.8-.3,1.3-.3s.9.1,1.3.3c.4.2.7.5,1,.8s.5.7.6,1.1.2.8.2,1.3-.1.9-.2,1.3-.3.8-.6,1.1c-.3.3-.6.6-1,.8s-.8.3-1.3.3-.9,0-1.3-.3M193.5,293.1c.3.8.8,1.5,1.4,2.2.6.6,1.3,1.1,2.2,1.5s1.8.5,2.8.5,1.9-.2,2.8-.5c.8-.4,1.6-.9,2.2-1.5.6-.6,1.1-1.3,1.4-2.2.3-.8.5-1.7.5-2.7s-.2-1.8-.5-2.7c-.3-.8-.8-1.6-1.4-2.2s-1.3-1.1-2.2-1.5c-.8-.4-1.8-.5-2.8-.5s-1.9.2-2.8.5c-.9.4-1.6.8-2.2,1.5-.6.6-1.1,1.4-1.4,2.2s-.5,1.7-.5,2.7.2,1.8.5,2.7M217.8,292.6c-.3.3-.6.6-1.1.9s-1,.4-1.7.4-.9-.1-1.3-.3c-.4-.2-.7-.5-1-.8s-.5-.7-.6-1.1-.2-.8-.2-1.2.1-.9.2-1.3c.1-.4.3-.8.6-1.1.3-.3.6-.6,1-.8s.8-.3,1.3-.3,1.2.1,1.7.4.8.5,1.1.9l2.4-2.6c-.6-.6-1.3-1.1-2.2-1.5s-1.9-.6-3-.6-1.9.2-2.8.5c-.9.4-1.6.8-2.2,1.5-.6.6-1.1,1.4-1.4,2.2s-.5,1.7-.5,2.7.2,1.9.5,2.8.8,1.6,1.4,2.2c.6.6,1.3,1.1,2.2,1.4s1.8.5,2.8.5,2.2-.2,3.1-.6,1.6-.9,2.1-1.5l-2.4-2.7h0ZM221.9,282.1h4.2v-3.5h-4.2v3.5ZM222,296.8h3.9v-12.8h-3.9v12.8ZM238.9,293c-.3.2-.8.5-1.4.8s-1.5.5-2.5.5-1.9-.3-2.4-.8c-.6-.5-.9-1.1-.9-1.8h9.1v-.7c0-1.1-.1-2.1-.4-3s-.7-1.7-1.2-2.3c-.5-.6-1.2-1.1-2-1.5s-1.7-.5-2.7-.5-2,.2-2.8.6-1.5.9-2.1,1.5-1,1.3-1.3,2.2c-.3.8-.4,1.7-.4,2.6s.2,2,.5,2.8c.3.9.8,1.6,1.4,2.2.6.6,1.4,1.1,2.2,1.4.9.3,1.9.5,2.9.5s1.6-.1,2.2-.2c.6-.2,1.2-.3,1.6-.5.5-.2.8-.4,1.1-.6s.5-.4.7-.5l-1.6-2.7h0ZM231.6,289.1c0-.3.1-.5.2-.8s.3-.5.5-.8c.2-.2.5-.4.9-.6.4-.1.7-.2,1.2-.2s.9.1,1.2.2.6.4.8.6.4.5.5.8.2.6.2.8h-5.5,0ZM244,291.9c0,.8.1,1.5.2,2.2s.4,1.2.8,1.7c.4.5.9.8,1.5,1.1.6.3,1.4.4,2.3.4,1.5,0,2.8-.5,4-1.5l-1.6-2.4c-.2.2-.5.3-.8.5-.3.1-.6.2-1,.2s-.9-.2-1.2-.5c-.2-.3-.4-.8-.4-1.4v-5.1h3.3v-3.1h-3.3v-3.9h-3.9v3.9h-2v3.1h2v4.8h.1,0ZM253,301.6c.5.4,1,.6,1.6.8.6.2,1.2.3,1.9.3s1.6-.2,2.2-.5c.6-.4,1.1-.8,1.5-1.4s.8-1.2,1-1.9c.3-.7.6-1.4.9-2.1l5.2-12.8h-4.2l-2.9,8.1-3.2-8.1h-4.5l5.9,12.7-.4,1c-.3.6-.5,1.1-.8,1.4s-.6.4-1.1.4-.6-.1-.9-.2c-.3-.1-.5-.3-.7-.4l-1.5,2.7h0Z"/><path class="cls-1" d="M178.5,272.5h6.8c1.1,0,2.1-.1,3-.3.9-.2,1.6-.5,2.2-.9.6-.4,1.1-1,1.4-1.6.3-.7.5-1.5.5-2.4s-.1-1.4-.4-1.9c-.3-.5-.6-1-1-1.3s-.8-.6-1.2-.8c-.4-.2-.8-.3-1.1-.4.2-.1.5-.2.8-.4.3-.2.6-.4.9-.8.3-.3.5-.7.7-1.1.2-.5.3-1,.3-1.5s-.1-1.2-.3-1.8-.6-1.1-1.1-1.5-1.1-.8-1.9-1.1c-.8-.3-1.7-.4-2.9-.4h-6.8v18.2h.1ZM182.5,261.6v-4.1h2.4c.3,0,.6,0,.9.1s.6.2.8.3c.2.2.4.4.6.6.1.3.2.6.2,1s-.1.7-.2,1c-.1.3-.3.5-.6.6s-.5.3-.8.3c-.3.1-.6.1-.9.1h-2.4v.1ZM182.5,269.4v-4.8h2.7c.3,0,.6,0,1,.1s.7.2,1,.4c.3.2.6.4.8.7s.3.7.3,1.2-.1,1-.3,1.3-.5.5-.8.7-.6.3-1,.3-.7.1-1,.1h-2.7ZM194.3,267.7c0,1.7.4,3,1.3,3.9.9.9,2,1.3,3.5,1.3s1.5-.2,2.1-.5c.7-.3,1.2-.7,1.6-1.2v1.4h3.9v-12.8h-3.9v6.9c0,.4-.1.7-.2,1.1-.1.4-.3.6-.5.9-.2.2-.5.5-.8.6s-.7.2-1.1.2c-.7,0-1.2-.2-1.6-.6-.4-.4-.5-1-.5-1.7v-7.4h-3.9v7.9h.1,0ZM209.1,257.8h4.2v-3.5h-4.2v3.5ZM209.3,272.5h3.9v-12.8h-3.9v12.8ZM215.7,272.5h3.9v-18.3h-3.9v18.3ZM230.8,272.5h3.7v-18.3h-3.9v5.6c-.4-.1-.7-.2-1.1-.3-.4-.1-.8-.1-1.4-.1s-1.6.1-2.3.4c-.8.3-1.5.7-2.2,1.3-.6.6-1.2,1.3-1.6,2.1s-.6,1.9-.6,3,.1,1.9.4,2.8c.3.8.7,1.5,1.2,2.1s1.1,1,1.8,1.3,1.4.5,2.2.5,1.5-.2,2.1-.5,1.1-.7,1.5-1.2l.2,1.3h0ZM230.6,266.7c0,.4-.1.7-.1,1.1-.1.4-.2.6-.4.9s-.5.5-.8.6-.7.2-1.1.2c-.9,0-1.6-.3-2.1-.9s-.7-1.4-.7-2.3.3-1.9.8-2.6c.6-.7,1.3-1,2.3-1s.9,0,1.2.1.6.2.9.4v3.5h0ZM236.8,257.8h4.2v-3.5h-4.2v3.5ZM236.9,272.5h3.9v-12.8h-3.9v12.8ZM243.4,272.5h3.9v-6.9c0-.4.1-.7.2-1.1s.3-.6.5-.9.5-.5.8-.6c.3-.2.7-.2,1.1-.2.6,0,1.1.2,1.5.6s.5,1,.5,1.7v7.4h3.9v-7.9c0-1.7-.4-3-1.3-3.9-.9-.9-2-1.3-3.5-1.3s-1.5.2-2.1.5c-.7.3-1.2.7-1.6,1.2v-1.4h-3.9v12.8h0ZM258.7,277c.7.5,1.5.8,2.4,1s1.9.3,3,.3c2,0,3.6-.5,4.8-1.5,1.2-1,1.8-2.6,1.8-4.7v-11.7c-.8-.3-1.6-.5-2.6-.7s-2-.3-3-.3-2.1.2-3,.5-1.7.8-2.3,1.4-1.1,1.3-1.5,2.2c-.4.9-.5,1.8-.5,2.8s.1,1.7.4,2.5.6,1.4,1.1,1.9,1.1,1,1.8,1.3c.7.3,1.5.5,2.5.5s2.5-.4,3.3-1.1v.9c0,1-.3,1.7-.8,2.1-.5.5-1.2.7-2.1.7s-1.3-.1-1.9-.3-1.1-.4-1.6-.7l-1.8,2.9h0ZM266.7,266.8c0,.8-.2,1.5-.7,1.9-.4.4-1,.6-1.9.6s-1.5-.3-2-.8-.7-1.3-.7-2.2.1-.9.2-1.4c.1-.4.4-.8.6-1.1s.6-.6,1-.8c.4-.2.9-.3,1.5-.3s.8,0,1,.1c.3,0,.5.1.8.2l.2,3.8h0Z"/><path class="cls-1" d="M178.5,248.2h12.8v-3.7h-8.7v-14.6h-4.1v18.3h0ZM203.3,244.3c-.3.2-.8.5-1.4.8s-1.5.4-2.5.4-1.9-.3-2.4-.8-.9-1.1-.9-1.8h9.1v-.7c0-1.1-.1-2.1-.4-3-.3-.9-.7-1.7-1.2-2.3s-1.2-1.1-2-1.5-1.7-.6-2.7-.6-2,.2-2.8.6c-.8.4-1.5.9-2.1,1.5s-1,1.4-1.3,2.2-.4,1.7-.4,2.6.2,1.9.5,2.8c.3.9.8,1.6,1.4,2.2s1.4,1.1,2.2,1.4c.9.3,1.9.5,2.9.5s1.6-.1,2.2-.2c.6-.1,1.2-.3,1.6-.5.5-.2.8-.4,1.1-.6.3-.2.5-.4.7-.4l-1.6-2.6h0ZM196.1,240.4c0-.3.1-.6.2-.8.1-.3.3-.5.5-.8.2-.2.5-.4.9-.6.4-.1.8-.2,1.2-.2s.9.1,1.2.2c.3.2.6.4.8.6.2.2.4.5.5.8s.2.6.2.8h-5.5,0ZM218,244.3c-.3.2-.8.5-1.4.8-.6.3-1.5.4-2.5.4s-1.9-.3-2.4-.8c-.6-.5-.9-1.1-.9-1.8h9.1v-.7c0-1.1-.1-2.1-.4-3-.3-.9-.7-1.7-1.2-2.3s-1.2-1.1-2-1.5-1.7-.6-2.7-.6-2,.2-2.8.6c-.8.4-1.5.9-2.1,1.5s-1,1.4-1.3,2.2-.4,1.7-.4,2.6.2,1.9.5,2.8c.3.9.8,1.6,1.4,2.2s1.4,1.1,2.2,1.4,1.9.5,2.9.5,1.6-.1,2.2-.2c.6-.1,1.2-.3,1.6-.5.5-.2.8-.4,1.1-.6.3-.2.5-.4.7-.4l-1.6-2.6h0ZM210.7,240.4c0-.3.1-.6.2-.8.1-.3.3-.5.5-.8s.5-.4.9-.6c.4-.1.8-.2,1.2-.2s.9.1,1.2.2c.3.2.6.4.8.6.2.2.4.5.5.8s.2.6.2.8h-5.5,0ZM231,248.2h3.7v-18.2h-3.9v5.6c-.4-.1-.7-.2-1.1-.3-.4-.1-.8-.1-1.4-.1s-1.5.1-2.3.4c-.8.3-1.5.7-2.2,1.3-.6.6-1.2,1.3-1.6,2.1s-.6,1.9-.6,3,.1,1.9.4,2.8c.3.8.7,1.5,1.2,2.1s1.1,1,1.8,1.3,1.4.5,2.2.5,1.5-.2,2.1-.5,1.1-.7,1.6-1.2v1.2h.1ZM230.7,242.4c0,.4,0,.7-.1,1.1-.1.4-.2.6-.4.9-.2.3-.5.5-.8.6s-.7.2-1.1.2c-.9,0-1.6-.3-2.1-.9-.4-.6-.7-1.4-.7-2.3s.3-1.9.8-2.6c.6-.7,1.3-1,2.3-1s.9,0,1.2.1.6.2.9.4v3.5h0ZM236.4,246.8c.6.6,1.5,1.1,2.5,1.4,1,.3,2.1.5,3.2.5s1.4-.1,2.1-.2,1.3-.4,1.8-.8c.5-.3,1-.8,1.3-1.3s.5-1.1.5-1.8c0-1.1-.3-1.9-.9-2.6s-1.5-1.1-2.9-1.5c-1-.2-1.7-.5-2.3-.7s-.9-.5-.9-.9.1-.5.4-.7c.3-.2.7-.3,1.3-.3s1.3.1,1.8.3,1,.5,1.4.7l1.7-2.6c-.7-.5-1.4-.8-2.3-1.1s-1.8-.4-2.9-.4-1.5.1-2.1.3c-.7.2-1.2.5-1.7.8s-.9.8-1.1,1.3c-.3.5-.4,1-.4,1.6s.1,1.1.3,1.5.5.8.9,1.1.8.6,1.3.8,1,.4,1.5.5c.6.2,1.1.3,1.5.4.4.1.7.2.9.4s.4.2.4.4.1.3.1.4c0,.4-.2.7-.6.9-.4.1-.9.2-1.4.2s-1.3-.1-2-.4c-.7-.3-1.2-.6-1.6-1l-1.8,2.8h0Z"/><path class="cls-20" d="M659.4,56.2v-8.6c-1-.3-2.2-.4-3.5-.4-3.5,0-5.2,2-5.2,6v3s8.7,0,8.7,0ZM665.9,67.8c-.5,0-1,.2-1.5.2h-1.8c-1.2,0-2.3,0-3.2-.3v-6.3h-8.7v6.3c-.5,0-1,.2-1.5.2h-1.8c-1.2,0-2.3,0-3.2-.3v-15c0-3.7,1.1-6.4,3.2-8.3,2.2-1.8,5.3-2.8,9.3-2.8s3.1.2,4.7.5c1.7.3,3.1.7,4.4,1.2v24.4h0l.1.2h0Z"/><path class="cls-20" d="M688.9,61.6c.3.6.6,1.4.9,2.4.3,1,.5,2,.6,3-.9.4-2,.7-3.1.9s-2.5.4-4.2.4-4-.3-5.6-1-3-1.6-4-2.8c-1.1-1.2-1.9-2.6-2.4-4.2s-.8-3.4-.8-5.3.3-3.8.8-5.4,1.4-3,2.4-4.2,2.4-2.1,4-2.8,3.5-1,5.6-1,3.1,0,4.2.4c1.1.3,2.2.6,3.1.9,0,1-.3,2-.6,3s-.6,1.8-.9,2.4c-.8-.3-1.5-.5-2.4-.7-.8-.2-1.8-.3-3-.3s-1.8,0-2.6.4c-.8.3-1.5.7-2.1,1.3s-1.1,1.4-1.4,2.4c-.3,1-.5,2.2-.5,3.6s.2,2.6.5,3.6.8,1.8,1.4,2.3,1.3,1,2.1,1.3,1.7.4,2.6.4,2.1,0,3-.3c.9-.1,1.7-.4,2.4-.7"/><path class="cls-20" d="M711.2,61.6c.3.6.6,1.4.9,2.4.3,1,.5,2,.6,3-.9.4-2,.7-3.1.9s-2.5.4-4.2.4-4-.3-5.6-1-3-1.6-4-2.8c-1.1-1.2-1.9-2.6-2.4-4.2s-.8-3.4-.8-5.3.3-3.8.8-5.4,1.4-3,2.4-4.2,2.4-2.1,4-2.8,3.5-1,5.6-1,3.1,0,4.2.4c1.1.3,2.2.6,3.1.9,0,1-.3,2-.6,3s-.6,1.8-.9,2.4c-.8-.3-1.5-.5-2.4-.7-.8-.2-1.8-.3-3-.3s-1.8,0-2.6.4c-.8.3-1.5.7-2.1,1.3s-1.1,1.4-1.4,2.4c-.3,1-.5,2.2-.5,3.6s.2,2.6.5,3.6.8,1.8,1.4,2.3,1.3,1,2.1,1.3,1.7.4,2.6.4,2.1,0,3-.3c.9-.1,1.6-.4,2.4-.7"/><path class="cls-20" d="M721.5,55c0,2.6.5,4.5,1.4,5.9s2.3,2.1,4.2,2.1,3.3-.7,4.2-2.1,1.4-3.4,1.4-5.9-.5-4.5-1.4-5.9-2.3-2.1-4.2-2.1-3.3.7-4.2,2.1c-.9,1.4-1.4,3.3-1.4,5.9M727.1,68.3c-2.1,0-3.9-.3-5.4-1s-2.8-1.6-3.9-2.8c-1-1.2-1.8-2.6-2.3-4.2s-.8-3.4-.8-5.3.3-3.8.8-5.4,1.3-3,2.3-4.2,2.3-2.1,3.9-2.8c1.5-.7,3.4-1,5.4-1s3.9.3,5.4,1,2.8,1.6,3.9,2.8c1,1.2,1.8,2.6,2.3,4.2.5,1.6.8,3.4.8,5.4s-.3,3.7-.8,5.3-1.3,3-2.3,4.2c-1,1.2-2.3,2.1-3.9,2.8-1.5.7-3.3,1-5.4,1"/><path class="cls-20" d="M767.1,67.8c-.6,0-1.2.2-2,.2h-4c-.7,0-1.4,0-2-.2l-6.6-11.3c1.9-.7,3.3-1.5,4.3-2.4s1.5-2.2,1.5-3.6c0-2.6-1.8-4-5.4-4h-1.1c-.4,0-.8,0-1.3.2v21c-.5,0-1,.2-1.5.2h-1.8c-1.2,0-2.3,0-3.3-.3v-25.4c1.6-.2,3.2-.3,4.9-.4,1.7,0,3.1-.2,4.2-.2,3.9,0,7,.7,9.1,2,2.1,1.4,3.2,3.4,3.2,6.2s-.5,3-1.4,4.4c-.9,1.3-2.2,2.4-3.9,3.3l7.1,10.2h0v.1Z"/><path class="cls-20" d="M776.7,62.6c.5,0,1,0,1.4.2h1.5c2.1,0,3.7-.6,4.8-1.9,1.1-1.2,1.7-3.2,1.7-6s-.5-4.7-1.7-5.9c-1.1-1.2-2.7-1.9-4.8-1.9h-1.5c-.4,0-.9,0-1.4.2v15.3ZM770,42.3c.6,0,1.3-.2,2-.2.8,0,1.5,0,2.3-.2h4.3c2.5,0,4.6.3,6.4,1,1.8.7,3.3,1.6,4.4,2.7,1.2,1.2,2,2.6,2.5,4.2s.8,3.4.8,5.4-.3,3.8-.8,5.4-1.4,3-2.5,4.2c-1.2,1.2-2.6,2.1-4.4,2.8-1.8.7-3.9,1-6.4,1s-1.3,0-2,0h-2.3c-.8,0-1.6,0-2.3-.2-.8,0-1.4-.2-2-.2v-25.9h0Z"/><path class="cls-23" d="M660.2,97.9c-.7.2-1.5.2-2.2.2s-1.5,0-2.1-.2c-.7-2.1-1.5-4.1-2.5-6-.9-1.9-1.9-3.6-2.8-5.1l-.2,16.4c-.5,0-1,.2-1.5.2h-1.7c-1.2,0-2.3,0-3.2-.3l.5-25.5c.8-.2,1.8-.3,3-.3s2.1,0,3,.3c.6.7,1.2,1.6,1.8,2.6.7,1,1.3,2.1,2,3.3.7,1.2,1.3,2.4,2,3.7s1.2,2.5,1.8,3.7c.5-1.2,1-2.5,1.7-3.7.6-1.3,1.2-2.5,1.9-3.7.6-1.2,1.3-2.3,1.9-3.3.6-1,1.2-1.9,1.8-2.6.5,0,.9-.2,1.4-.2h1.6c1.2,0,2.2,0,3,.3l.5,25.5c-1,.2-2,.3-3.3.3h-1.7c-.5,0-1,0-1.5-.2l-.2-16.5c-1,1.6-1.9,3.3-2.7,5.2-.9,1.9-1.7,3.9-2.3,6"/><path class="cls-23" d="M682.7,90.4c0,2.6.5,4.5,1.4,5.9s2.3,2.1,4.2,2.1,3.3-.7,4.2-2.1,1.4-3.4,1.4-5.9-.5-4.5-1.4-5.9-2.3-2.1-4.2-2.1-3.3.7-4.2,2.1c-1,1.4-1.4,3.3-1.4,5.9M688.3,103.7c-2.1,0-3.9-.3-5.4-1s-2.8-1.6-3.9-2.8c-1-1.2-1.8-2.6-2.3-4.2s-.8-3.4-.8-5.3.3-3.8.8-5.4,1.3-3,2.3-4.2,2.3-2.1,3.9-2.8c1.5-.7,3.4-1,5.4-1s3.9.3,5.4,1,2.8,1.6,3.9,2.8c1,1.2,1.8,2.6,2.3,4.2s.8,3.4.8,5.4-.3,3.7-.8,5.3c-.5,1.6-1.3,3-2.3,4.2s-2.3,2.1-3.9,2.8c-1.5.7-3.3,1-5.4,1"/><path class="cls-23" d="M728.2,103.1c-.6,0-1.2.2-2,.2h-4c-.8,0-1.4,0-2-.2l-6.7-11.3c1.9-.7,3.3-1.5,4.3-2.4s1.5-2.2,1.5-3.6c0-2.6-1.8-3.9-5.4-3.9s-.7,0-1.1,0-.8,0-1.3.2v21.1c-.5,0-1,.2-1.5.2h-1.8c-1.2,0-2.3,0-3.3-.3v-25.6c1.6-.2,3.2-.3,4.9-.4s3.1-.2,4.2-.2c3.9,0,7,.7,9.1,2,2.1,1.4,3.2,3.4,3.2,6.2s-.5,3-1.4,4.4c-.9,1.3-2.2,2.4-3.9,3.3l7.2,10.1h0v.2h0Z"/><path class="cls-23" d="M729.3,77.7h21.8c0,.5.2.9.2,1.4v2.7c0,.5,0,.9-.2,1.4h-7.5v20c-1,.2-2.1.3-3.3.3s-2.4,0-3.4-.3v-20h-7.5c0-.5-.2-.9-.2-1.4v-2.7c0-.4,0-1,.1-1.4"/><path class="cls-23" d="M769,90.2c.4,0,.9-.2,1.5-.2h3.2c.6,0,1.1,0,1.5.2v12.3c-1,.4-2.2.7-3.6.9-1.4.2-3.1.4-5.1.4s-4.2-.3-5.9-1-3.1-1.6-4.2-2.8-2-2.6-2.5-4.2-.8-3.4-.8-5.3.3-3.8.8-5.4,1.4-3,2.5-4.2,2.5-2.1,4.2-2.8c1.7-.7,3.7-1,5.9-1s2.6,0,3.9.3c1.2.2,2.4.6,3.6,1,0,1-.3,2-.6,3s-.6,1.8-.9,2.4c-.8-.3-1.6-.5-2.4-.7-.9-.2-1.9-.3-3-.3s-2,0-2.9.4-1.6.7-2.2,1.3-1.1,1.4-1.5,2.4-.5,2.2-.5,3.6.2,2.6.5,3.5c.3,1,.8,1.8,1.4,2.4.6.6,1.4,1.1,2.2,1.3.9.3,1.8.4,2.9.4s.8,0,1.1,0c.4,0,.7,0,.8-.2v-7.6h.1v-.1h0Z"/><path class="cls-23" d="M795.2,91.6v-8.6c-1-.3-2.2-.4-3.5-.4-3.5,0-5.2,2-5.2,6v3h8.7ZM801.7,103.1c-.5,0-1,.2-1.5.2h-1.8c-1.2,0-2.3,0-3.2-.3v-6.3h-8.7v6.3c-.5,0-1,.2-1.5.2h-1.8c-1.2,0-2.3,0-3.2-.3v-15c0-3.7,1.1-6.4,3.2-8.3,2.2-1.8,5.3-2.8,9.3-2.8s3.1.2,4.7.5,3.1.7,4.4,1.2v24.4l.1.2h0Z"/><path class="cls-23" d="M821.6,90.2c.4,0,.9-.2,1.5-.2h3.2c.6,0,1.1,0,1.5.2v12.3c-1,.4-2.2.7-3.6.9-1.4.2-3.1.4-5.1.4s-4.2-.3-5.9-1-3.1-1.6-4.2-2.8-1.9-2.6-2.5-4.2c-.5-1.6-.8-3.4-.8-5.3s.3-3.8.8-5.4,1.4-3,2.5-4.2,2.5-2.1,4.2-2.8c1.7-.7,3.7-1,5.9-1s2.6,0,3.9.3c1.2.2,2.4.6,3.6,1,0,1-.3,2-.6,3s-.6,1.8-.9,2.4c-.8-.3-1.6-.5-2.4-.7-.9-.2-1.9-.3-3-.3s-2,0-2.9.4-1.6.7-2.2,1.3-1.1,1.4-1.5,2.4c-.3,1-.5,2.2-.5,3.6s.2,2.6.5,3.5c.3,1,.8,1.8,1.4,2.4.6.6,1.4,1.1,2.2,1.3.9.3,1.8.4,2.9.4s.8,0,1.1,0c.4,0,.6,0,.8-.2v-7.6h.1v-.1h0Z"/><path class="cls-23" d="M838.8,92.8c0,2,.5,3.5,1.4,4.3s2.5,1.2,4.7,1.2h3.1c1.1,0,2.1-.2,3-.4,0,.4.2.9.3,1.3v1.4c0,.8,0,1.7-.2,2.5-2,.5-4.3.7-6.7.7s-4-.2-5.6-.6c-1.5-.4-2.8-1.1-3.8-2s-1.7-2.1-2.1-3.6c-.5-1.5-.7-3.3-.7-5.4v-14.4h18.4c.2.8.3,1.7.3,2.8s0,2-.3,2.8h-11.9v4.6h10c0,.4.2.8.2,1.3v2.6c0,.5,0,.9-.2,1.3l-10-.3h0s.1-.1.1-.1Z"/><path class="cls-23" d="M860.5,92.2c-1.8-.6-3.3-1.4-4.3-2.5s-1.5-2.6-1.5-4.5.2-2.3.7-3.3,1.2-1.9,2.1-2.6c.9-.7,2-1.2,3.3-1.6s2.7-.6,4.3-.6h2c.7,0,1.4.2,2.1.2s1.3.2,2,.4c.6.2,1.1.3,1.6.5,0,.9-.3,1.9-.6,2.9s-.5,1.8-.9,2.5c-1-.4-2-.7-3.3-.9-1.2-.2-2.2-.4-3.1-.4s-2,.2-2.6.6c-.7.4-1,.9-1,1.7s.3,1.2.8,1.6,1.2.7,2,.9l3.3,1c2,.6,3.6,1.4,4.6,2.5s1.5,2.6,1.5,4.6-1,4.8-3,6.3-4.8,2.3-8.3,2.3-3,0-4.4-.3c-1.5-.2-2.7-.5-3.6-.8,0-1,.3-2,.6-3s.6-1.8.9-2.4c.4.2.8.3,1.4.5.5.2,1.1.3,1.7.4.6,0,1.2.2,1.8.3h1.8c1.3,0,2.4-.2,3.3-.6.9-.4,1.3-1.1,1.3-1.9s-.3-1.3-.9-1.8c-.6-.4-1.5-.8-2.5-1.1l-3.1-1.1h0v.2h0Z"/><path class="cls-20" d="M602.4,41.5c3.2-.7,6.7-1.1,10.4-1.1s7.2.4,10.4,1.1c.7,3.2,1.1,6.7,1.1,10.4s-.4,7.2-1.1,10.4c-3.2.7-6.7,1.1-10.4,1.1s-7.2-.4-10.4-1.1c-.7-3.2-1.1-6.7-1.1-10.4s.4-7.2,1.1-10.4"/><path class="cls-23" d="M581.6,62.3c3.2-.7,6.7-1.1,10.4-1.1s7.2.4,10.4,1.1c.7,3.2,1.1,6.7,1.1,10.4s-.4,7.2-1.1,10.4c-3.2.7-6.7,1.1-10.4,1.1s-7.2-.4-10.4-1.1c-.7-3.2-1.1-6.7-1.1-10.4s.4-7.2,1.1-10.4"/><path class="cls-16" d="M560.8,83.1c3.2-.7,6.7-1.1,10.4-1.1s7.2.4,10.4,1.1c.7,3.2,1.1,6.7,1.1,10.4s-.4,7.2-1.1,10.4c-3.2.7-6.7,1.1-10.4,1.1s-7.2-.4-10.4-1.1c-.7-3.2-1.1-6.7-1.1-10.4s.4-7.2,1.1-10.4"/><path class="cls-20" d="M581.6,41.5c.7,3.2,1.1,6.7,1.1,10.4s-.4,7.2-1.1,10.4c-3.2.7-6.7,1.1-10.4,1.1s-7.2-.4-10.4-1.1c-.7-3.2-1.1-6.7-1.1-10.4s.4-7.2,1.1-10.4c3.2-.7,6.7-1.1,10.4-1.1s7.2.5,10.4,1.1"/><path class="cls-18" d="M779.4,212.9c-14.6,0-27.4,7.9-34.3,19.6,3.5,5.9,5.5,12.8,5.5,20.2s-2,14.2-5.5,20.2c6.9,11.7,19.7,19.6,34.3,19.6,22,0,39.8-17.8,39.8-39.8s-17.8-39.8-39.8-39.8"/><path class="cls-5" d="M745.1,232.5c-6.9-11.7-19.7-19.6-34.3-19.6s-27.4,7.9-34.3,19.6c3.5,5.9,5.5,12.8,5.5,20.2s-2,14.2-5.5,20.2c6.9,11.7,19.7,19.6,34.3,19.6s27.4-7.9,34.3-19.6c-3.5-5.9-5.5-12.8-5.5-20.2s2-14.2,5.5-20.2"/><path class="cls-4" d="M676.5,232.5c-6.9-11.7-19.7-19.6-34.3-19.6-22,0-39.8,17.8-39.8,39.8s17.8,39.8,39.8,39.8,27.4-7.9,34.3-19.6c-3.5-5.9-5.5-12.8-5.5-20.2s2.1-14.3,5.5-20.2"/><path class="cls-11" d="M676.5,272.9c3.5-5.9,5.5-12.8,5.5-20.2s-2-14.3-5.5-20.2c-3.5,5.9-5.5,12.8-5.5,20.2s2.1,14.3,5.5,20.2"/><path class="cls-11" d="M676.5,232.6c-3.6,6.1-5.5,13.1-5.5,20.2s1.9,14.1,5.5,20.1c3.6-6.1,5.5-13.1,5.5-20.1s-1.9-14.2-5.5-20.2M676.5,272.9h0c-3.6-6.1-5.5-13.1-5.5-20.2s1.9-14.1,5.5-20.2h0c3.6,6.1,5.5,13.1,5.5,20.2s-1.9,14.1-5.5,20.2h0Z"/><path class="cls-13" d="M745.1,272.9c3.5-5.9,5.5-12.8,5.5-20.2s-2-14.3-5.5-20.2c-3.5,5.9-5.5,12.8-5.5,20.2s2,14.3,5.5,20.2"/><polygon class="cls-12" points="657.2 238.8 645.7 238.8 645.7 274.3 637.7 274.3 637.7 238.8 626.3 238.8 626.3 231.6 657.2 231.6 657.2 238.8"/><path class="cls-12" d="M773.5,254.7v12.6h7.6c4.7,0,6,0,8-1.5,1.1-.8,1.9-2.4,1.9-4.5s-.2-2.1-.8-3.2c-1.9-3.4-6.4-3.5-9.1-3.5h-7.6v.1h0ZM773.5,238.1v10.6h2.5c2.2,0,3.9,0,4.8-.1,2,0,4-.1,5.4-.8,1.7-.9,2.8-2.5,2.8-4.4s-.8-3.3-2.5-4.2c-1.7-1-2.5-1-8.3-1.1h-4.7ZM765.6,231.6h15c5.7.1,7.2.1,9.2.7,4.3,1.3,7.3,5.1,7.3,9.7s-.4,4.2-1.6,5.8c-1.3,1.8-3,2.7-5.3,3.1,4.7.9,8.8,4.6,8.8,11.2s-2.2,9.2-7.3,11.1c-2.7,1-4.8,1-9.7,1h-16.4v-42.6Z"/><path class="cls-12" d="M715,248.9l-4.4-1c-3.8-.7-7.8-1.4-7.8-5.1s3.7-5.2,8-5.2c6.4,0,9.2,3.8,10.8,6l6.3-5c-3-4-7.8-8.1-16.6-8.1s-16.7,5.2-16.7,13.2,5.2,9.6,7.1,10.4c1.3.5,2.6.8,5.3,1.5l5.1,1.1c3.8.9,4,1,4.9,1.3,1.3.5,3.2,1.5,3.2,4.2s-.5,3.6-3.6,4.9c-1.5.6-3.1.7-4.6.7-8.5,0-11.8-4.4-13-6.2l-6.5,4.9c3.2,4.9,7.8,6.7,10.6,7.5,2.6.7,5.2,1,7.6,1,9,0,18-3.9,18-13.6,0-8.9-8-11.2-13.7-12.5"/><path class="cls-14" d="M116.9,414.2c-.5-1-1.3-2.4-2.5-3.4-.5-.5-1.2-.9-2-1-.7-.2-1.3-.3-2-.3h-.2c-.8,0-2.5.2-3.5,1.5-.5.5-.7,1.4-.5,2.2.2.7.5,1.2,1.2,1.4,0,0,.2,0,.5.2-.2,0-.3.3-.3.3-.3.5-1.2,1.4-3.5,1.4h-.2c-1.2,0-2.2-.3-3.4-1.9-.7-1-1.2-2.5-1.2-5.3s-.2-2.5-.5-3.4c-.2-.7-.7-1.2-1.2-1.5-.3-.3-.8-.5-1.5-.7-.7-.5-1.7-.5-2.5-.5s-1.5.2-1.8.7c0,0,0,.2-.2.2h-.7c-.5,0-1,.2-1.5.2-1,.2-1.5.5-2.2,1-.2.2-.7.7-.8,1.4-.2.5,0,.9.2,1,0,0,0,.2.2.2.3-.3.8-.5,1.7-.5s2.5.5,3,1.4c.7,1.2.5,2,.3,3.2-.3,2.9-1.5,4.4-3.7,4.8h-1.2c-1.7,0-2.8-.5-3.4-1.5-.3-.3-.3-.5-.3-.5,0,0,.2,0,.3-.2.7-.3,1-.7,1.2-1.4.2-.7,0-1.5-.5-2.2-.8-.9-2-1.4-3.5-1.4s-1.5.2-2,.3c-2,.5-3.5,1.9-4.7,4.4-.8,1.7-1.5,4.1-1.7,6.5s-.2,4.4,0,6.3c.3,3.1.8,4.9,1.5,6.8.7,2,1.7,3.9,2.7,5.6.3.7.5,1,.7,1.2.2-.2.3-.3.5-.7.3-.3,1.5-1.9,1.8-2.4.5-.3,1-1.4,1.3-2l.2-.3.3.3c.3.3.5.7.5,1.2s-.2,1-.3,2c-.3,1-.8,2.4-1.5,3.4,0,.2-.2.3-.2.3-.3.7-.5,1-.3,1.2.2,0,.7-.2,1.2-.7.5-.3,1.7-1.4,3.2-3.6,1.2-1.5,2-3.2,2.8-5.1l.2-.3.3.2c.2,0,.3.2.3.3.2.3.2.7.2,1.2-.2,1.2-.8,2.9-1.3,4.1-.8,2-2.5,4.4-3.7,6.1,0,0-.3.3-.3.5.2.2.3.3.7.5l.5.3c1.7,1.4,3.2,2.5,5.2,3.6,1.5.9,4.7,2.5,6.7,3.1,2-.5,5.2-2.2,6.7-3.1,2-1.2,3.5-2.2,5.2-3.6l.5-.3c.3-.2.5-.5.7-.5,0,0-.2-.2-.2-.3l-.2-.2c-1.2-1.7-2.8-4.1-3.7-6.1-.5-1.2-1.2-3-1.3-4.1,0-.5,0-.9.2-1.2,0-.2.2-.2.3-.3.2-.2.3-.2.3-.2l.2.3c.8,1.9,1.8,3.4,2.8,5.1,1.5,2.2,2.7,3.2,3.2,3.6.5.3,1,.7,1.2.7h.2c.2-.2,0-.5-.3-1.2,0-.2-.2-.3-.2-.3-.7-1.2-1.2-2.4-1.5-3.4s-.5-1.5-.5-2,.2-1,.5-1.2l.3-.2.2.3c.3.7,1,1.7,1.2,2,.3.5,1.5,1.9,1.8,2.4l.5.5c.2-.2.3-.5.7-1v-.2c1-1.7,1.8-3.6,2.7-5.6.7-2,1.2-3.7,1.5-6.8.2-1.9.3-3.9,0-6.3,0-2.4-.6-4.8-1.6-6.5"/><path class="cls-14" d="M291.3,431.8l6-13.1,3.7,13.1h-9.7ZM307.9,430.7l-1.5-5.8c-.7-2.5-4-14.8-4-14.8h-8.1c.3.3.5,1.2.5,2s-2.4,6.3-4.9,11.5l-2.5,5.6c-1.8,4.2-3.9,8.1-5.7,11.4-2.9,1.9-4.4,2-10.4,2s-2.4-.3-2.4-2c0-3.7.5-7.5.7-11.2l.2-2.2c.7-10,1.2-16.1,2.7-17h-10.1c.7.9.8,2.2,1,4.8,0,3-.2,7.3-.7,13.1l-.2,2.4c-.7,10-1.2,15.5-2.7,17.1h26.2c-.2-.3-.2-1.2-.2-1.7,0-2,1.5-4.9,2.5-7.3l.8-1.5h4.4c4.4,0,7-.5,8.7-1.2l.8,3.2c2.5,8.8,2.9,9,6,9s3.7-.2,5.7-.3c-2.4-2.3-4.1-7-6.8-17.1M235.9,429.9c0-7.5,3.2-16.1,11.1-16.1s7.1,2.2,8.7,5.6l1-9.5c-3.2,0-5-.7-9.1-.7-12.8,0-19.5,9.7-19.5,22.1s5.5,17,15.1,17,11.8-3.7,13.8-10c-4.7,3.4-7.6,4.2-10.7,4.2-5.8,0-10.4-4.5-10.4-12.6M170.8,431.8l6-13.1,3.7,13.1h-9.7ZM187.4,430.7l-1.5-5.8c-1.9-6.8-4-14.8-4-14.8h-8.1c.3.3.5,1.2.5,2s-2.5,6.5-4.9,11.5l-2.5,5.6c-4.5,9.7-7.7,15.6-10.2,18.2h8.9c-.2-.3-.2-1.2-.2-1.7,0-2,1.9-5.6,2.5-7.3l.8-1.5h4.4c4.4,0,7.1-.5,8.7-1.2l.8,3.2c2.5,8.8,2.9,9,6,9s3.5-.2,5.7-.3c-2.4-2.1-4-6.8-6.9-16.9M208.1,426.1c-.5,0-1.2,0-1.7-.2l.2-2.5c.3-4.4.5-7.3.8-8.8.8-.2,2-.2,2.9-.2,3.5,0,5.5,1.7,5.5,4.6,0,4.4-3.2,7.1-7.7,7.1M223.7,441.2l-7.6-10.2c-.5-.7-1.3-1.9-1.9-2.2,4.9-1.5,8.9-4.8,8.9-10.7s-6.2-8-10.6-8h-13.8c.7.3,1,2,1,4.8s-.2,7.3-.7,13.1l-.2,2.4c-.8,11.5-1.3,16-2.9,17.1h10.1c-.7-.3-1-2.2-1-4.8s.2-5.3.3-9.2l.2-2.7h.2c1.3,0,1.8.9,2.7,1.9l10.4,14.6c.8,1.2,1.5,1.7,4.4,1.7s4.7-.2,6.7-.3c-1.1-.8-1.6-1.2-6.2-7.5M332.2,427.3c1.9-3.1,10.4-16.8,12.4-17.1h-9.9c.3.3.5,1.4.5,2.2,0,1.2-.5,2.2-1,3.2-2.4,3.7-4,6.6-6.7,10.5-1-3.1-2.9-7.1-5.2-12.7-1.5-3.4-2.2-3.7-4.7-3.7s-4.4.2-6.5.3c1.3.7,3.4,3.9,5.2,7.3,2.9,5.4,4.7,10,6,14.8.2,3.2-.7,13.8-2.4,15.5h10.1c-.8-.9-1-3.1-1-4.8,0-4.1.3-7.8.8-10.5.4-1.6,1.6-3.5,2.4-5M358.6,425.8c-3.7-2.4-7.2-4.4-7.2-7.1s2.9-4.8,6-4.8,6.9,2.2,8.4,4.9l1-8.8c-2.5,0-5-.7-9.1-.7-6.9,0-13.6,2.7-13.6,10.7s3.9,8.3,9.9,12.1c2.9,1.7,5.2,3.6,5.2,6.3s-2.9,5.3-6.7,5.3-8.4-2.9-10.2-6.8l-.7,9.3c3.9,1.5,7.2,2,10.4,2,7.9,0,14.6-4.4,14.6-11.4,0-5.4-4-8.5-8-11M141.7,442.7c-2.5,0-3.5-.7-3.5-1,0-2.4.2-4.2.3-6.8l.3-5.4h2.7c4.9,0,8.7,1.5,8.7,6.5.1,4.4-3.3,6.7-8.5,6.7M139.4,422.5c.2-2.7.5-5.4.8-8,.8-.2,1.9-.2,2.5-.2,4.4,0,6.4,1.9,6.4,4.4,0,4.4-4.4,6.1-9.1,6.1h-.8l.2-2.3h0ZM147.9,426.3c4-1,8.6-3.9,8.6-8.8,0-7.3-6.9-7.3-10.4-7.3h-14.4c.7.3,1,2.2,1,4.8s-.2,7.3-.7,13.1l-.2,2.4c-.7,10-1,15.8-2.7,17.1h12.9c9.9,0,15.9-5.1,15.9-11.7.2-6.2-4.1-8.9-10-9.6"/><path class="cls-8" d="M78.9,624.3h22.3v-14.6l-11.2-13.3-11.1,13.3v14.6h0ZM90,596.4c-.6-9.2-8.2-16.5-17.5-16.5s-17.6,7.8-17.6,17.5,1.8,9,4.9,12.1l11.6-13.2h18.6v.1h0Z"/><path class="cls-19" d="M116.5,624.2h8.7v-13.3c0-4.3,1.9-7.1,5.3-7.1s4.5,2,4.5,6v14.5h8.7v-17c0-6.8-3.6-10.5-9.4-10.5s-7.9,2.6-9,6.5v-5.8h-8.7v26.7h-.1ZM188.8,597.5v-6.5h-5.6l-.7,2.7c-.7,2.5-1.5,3.8-4.1,4.3l-1.9.3v5.3h3.7v13.5c0,6,3.9,7.9,8.3,7.9s5.8-.8,7.8-2.3v-5.5c-1.6.7-3,1.1-4.3,1.1-2,0-3.1-1-3.1-3.2v-11.3h7.1v-6.1l-7.2-.2h0ZM199.7,590.3c0-2.8,2-4.8,4.8-4.8s4.8,2,4.8,4.8-2,4.8-4.8,4.8-4.8-1.9-4.8-4.8M208.8,624.2h-8.7v-26.7h8.7v26.7h0ZM319.3,590.3c0-2.8,2-4.8,4.8-4.8s4.8,2,4.8,4.8-2,4.8-4.8,4.8-4.8-1.9-4.8-4.8M328.5,624.2h-8.7v-26.7h8.7v26.7h0Z"/><path class="cls-19" d="M226.9,618.3c-3.7,0-6-2.7-6-7.2s2.3-7.6,6-7.6,6.1,3,6.1,7.6-2.4,7.2-6.1,7.2M226.9,596.8c-8.7,0-14.5,5.9-14.5,14.2s5.7,13.9,14.5,13.9,14.6-5.5,14.6-13.9-5.8-14.2-14.6-14.2"/><path class="cls-19" d="M304.3,615h-.2l-4.4-17.4h-8.2l-4.5,17.4h-.2l-4.6-17.4h-8.7l7.9,26.7h9.2l4.5-17.3h.2l4.5,17.3h9.2l8-26.7h-8l-4.7,17.4h0ZM253.4,624.2h-8.7v-26.7h8.7v5.8c1.1-4,4.2-6.5,9-6.5s9.4,3.7,9.4,10.5v17h-8.7v-14.5c0-4-1.5-6-4.5-6s-5.3,2.8-5.3,7.1v13.3h.1Z"/><path class="cls-19" d="M155.2,616.6c0-2.1,1.7-2.8,4.4-3.3l4.4-.8v1c0,3.8-2.5,5.6-5.7,5.6s-3.2-.9-3.1-2.5h0ZM156.5,609.1c-5.9,1-9.8,3.3-9.8,8.4s3.4,7.3,8.8,7.3,7.5-1.6,9-4.7c.8,3,3.1,4.7,6.3,4.7s4.4-.8,5.7-1.8v-4.6c-.7.3-1.5.5-2.2.5-1.1,0-1.7-.6-1.7-2v-9.8c0-7.3-5-10.4-12-10.4s-11.4,3.5-12.6,8.6l7.9,1.6c.5-2.2,1.8-3.7,4.3-3.7s3.9,1.5,3.9,4v.6l-7.6,1.3h0ZM373.9,608.2h10.8c-.2-2.7-1.9-5.1-5.2-5.1-3.5,0-5.1,2.2-5.6,5.1M392.4,617.1c-1.8,5-6.4,7.9-12.7,7.9s-14.6-5.2-14.6-13.7,6.2-14.5,14.4-14.5,13.5,6.1,13.5,13.4v2.7h-19.3c.2,3.6,2.9,5.6,6.3,5.6s4.6-1,5.6-3.1l6.8,1.7h0ZM347.1,603.7c3.7,0,6.1,2.7,6.1,6.9v.6c0,4.3-2.4,7-6.1,7s-6.1-2.8-6.1-7.3,2.4-7.3,6.1-7.2h0ZM344.4,596.8c-7,0-12.2,5.4-12.2,14.1s5.2,14.1,12.2,14.1,7.5-2,8.9-5.5v4.8h8.7v-37.7h-8.7v15.8c-1.4-3.5-5.1-5.6-8.9-5.6"/><polygon class="cls-15" points="228.4 54.5 201.9 26.5 149.3 26.5 178.4 54.5 228.4 54.5"/><polygon class="cls-15" points="178.4 91.5 149.3 119.4 201.9 119.4 228.4 91.5 178.4 91.5"/><polygon class="cls-15" points="165.1 70.6 156 70.6 156 59.7 149.9 59.7 149.9 86.2 156 86.2 156 76.2 165.1 76.2 165.1 86.2 171.2 86.2 171.2 59.7 165.1 59.7 165.1 70.6"/><polygon class="cls-15" points="206.1 59.7 199.9 59.7 199.9 86.2 215.7 86.2 215.7 80.6 206.1 80.6 206.1 59.7"/><rect class="cls-15" x="218.6" y="59.7" width="6.3" height="26.5"/><polygon class="cls-15" points="234.6 65.3 246.2 65.3 246.2 59.7 228.4 59.7 228.4 86.2 234.6 86.2 234.6 76.2 244.3 76.2 244.3 70.6 234.6 70.6 234.6 65.3"/><path class="cls-15" d="M182.2,59.7l-9,26.5h6.4l1.5-4.8h8.9l1.5,4.8h6.4l-8.9-26.5h-6.8,0ZM182.8,76.2l2.8-9,2.8,9h-5.6Z"/><path class="cls-15" d="M292.1,59.7h-7l-5,8-5-8h-7l8.6,13.2-8,12.3-8.6-25.5h-6.8l-9,26.5h6.4l1.5-4.8h8.9l1.5,4.8h12.4l5-8,5,8h7l-8.6-13.2,8.7-13.3ZM253.9,76.2l2.8-9,2.8,9h-5.6,0Z"/><polygon class="cls-15" points="240.7 26.5 224.3 43.5 234.7 54.5 264.2 54.5 293.3 26.5 240.7 26.5"/><polygon class="cls-15" points="264.2 91.5 234.7 91.5 224.3 102.4 240.7 119.4 293.3 119.4 264.2 91.5"/><path id="Fill-1" class="cls-21" d="M577.2,607.5h4.2c3.2,0,5.8-.4,7.5-1.2,5.2-2.4,6.6-7.6,6.6-15.2s-1.3-12.2-6.2-14.4c-1.9-.9-4.7-1.2-8.2-1.2h-4.1c-1.4,0-2.1.7-2.1,2.4v27.3c0,1.8.7,2.5,2.4,2.5l-.1-.2h0ZM573.9,614.1c-4.3,0-6.3-1.9-6.3-6.4v-32.2c0-4.5,2-6.6,6.5-6.6h5.9c5.3,0,9,.4,11.9,1.2,7.6,2.2,11.2,9.2,11.2,20.8s-2.6,18.3-11.4,21.5c-3.3,1.2-8.9,1.5-12.2,1.5h-5.5l-.1.2h0Z"/><path id="Fill-2" class="cls-21" d="M622.7,600.1c-3.2,0-5.1.4-6.3,1.1-1,.5-1.4,1.5-1.4,3.3,0,2.9,1.1,5,5.8,5s4.7-.4,5.8-.8c.5-.3,1-.6,1.1-1.1.2-.5.3-1.3.3-2.1v-5c-1.3-.3-3.5-.4-5.3-.4h0ZM634.3,611.7c-.4.6-1,1.1-2,1.5-2.5,1.1-7.9,1.9-12.2,1.9-9.7,0-11.7-4.9-11.7-10.4s1.1-6.2,3.5-7.8c2-1.2,5.8-1.9,10-1.9s4.5,0,6.1.3v-2.1c0-1.2,0-2.7-.4-3.5-.5-1.3-1.7-2.2-5.8-2.2s-4.4.3-6.6.7c-.8,0-2.1.4-2.6.4s-1-.4-1.2-1.1c-.3-1-.5-2.6-.5-3.1,0-1,.5-1.4,1.2-1.7,3.2-1,7.4-1.5,10.6-1.5,5.4,0,8.2.7,10,2.5,1.7,1.6,2.1,4.1,2.1,8.4v16.7c0,1.2,0,2.2-.5,2.9h0Z"/><path id="Fill-3" class="cls-21" d="M646.7,614.1h-4.1c-1,0-1.4-.5-1.4-1.7v-24.2c0-2.1.4-2.9,1.7-4,1.9-1.4,7.5-3,12.1-3s3,0,3.7.4c.5.2,1,.6,1,1.4s0,2.7-.4,3.7c0,.6-.7,1-1.4,1h-3.4c-2.1,0-4.1.4-5.2,1-.4.2-.8.4-1,.9,0,.4-.3.9-.3,1.8v21.2c0,1.1-.4,1.7-1.4,1.7"/><path id="Fill-4" class="cls-21" d="M672.7,606.8c.5.9,1.8,1.5,3.6,1.8.8,0,1.2.6,1.2,1.4s0,2.3-.3,2.8c-.2.9-.7,1.2-1.9,1.2-5.3,0-7.7-1.4-9.1-3.6-.8-1.3-1.2-3.5-1.2-6.6v-35.9c0-1,.4-1.7,1.5-1.7h4.1c1.2,0,1.4.5,1.4,1.7v35.1c0,1.9.2,2.9.6,3.8"/><path id="Fill-5" class="cls-21" d="M688.9,614.1h-4.1c-1,0-1.5-.5-1.5-1.7v-28.5c0-1,.4-1.7,1.5-1.7h4.2c1.2,0,1.5.6,1.5,1.7v28.6c0,1.1-.6,1.6-1.6,1.6h0ZM686.8,576.4c-2.3,0-4-.9-4-4.1s1.5-4.3,4-4.3,4,1,4,4.2-1.3,4.2-4,4.2h0Z"/><path id="Fill-6" class="cls-21" d="M754.6,589.9c0-1.2-.4-1.7-1-1.9-1.1-.4-3.3-.6-4.9-.6-7.1,0-8.4,3-8.4,11.3s1.5,10.3,6.9,10.3,4.4-.2,6-.9c.5-.3,1-.6,1.1-1.1,0-.3.2-.8.2-1.3v-15.7h0l.1-.1h0ZM747,615c-9.2,0-13.6-3.5-13.6-16.1s4.9-17.5,15.1-17.5,8.1.4,11.3,1.3c1.2.4,1.9,1.3,1.9,3v26c0,3-.2,6-.8,8.4-1.8,6.5-9.2,9-21.3,9s-1.9-.4-2-1.5c0-.8-.2-2.1-.2-2.7,0-1.2.6-1.9,1.7-1.9,10.1-.4,13-1.8,14.4-3.9.8-1.2,1.1-2.8,1.1-4.6v-1.1c-1.7,1.1-4.5,1.4-7.5,1.4h0l-.1.2h0Z"/><path id="Fill-7" class="cls-21" d="M781.4,606.3c.9,1.2,3,1.7,6.3,1.9,1,0,1.4.5,1.4,1.5v3c0,1-.7,1.4-1.9,1.4-6.4,0-9.7-.7-12-3.4-1.8-2.1-2.1-5-2.1-9.9v-12.9h-3.7c-.9,0-1.5-.5-1.5-1.5v-2.8c0-.9.5-1.6,1.6-1.6h3.7s0-2.3.3-6.8c0-1.1.5-1.8,1.5-1.8h3.9c1,0,1.4.5,1.4,1.9v6.7h6.2c1.2,0,1.9.5,1.9,1.5v2.8c0,1.2-.7,1.6-1.7,1.6h-6.4v13.2c0,2.7.4,4.3,1.2,5.2"/><path id="Fill-8" class="cls-21" d="M809.1,587.4c-5.1,0-7.6,1.9-7.6,10.5s2.1,11,7.4,11,7.7-1.4,7.7-10.7-1.8-10.8-7.5-10.8h0ZM808.9,615c-9.8,0-14.4-3.3-14.4-16.8s6.2-16.8,14.9-16.8,14.4,2.3,14.4,16.6-4.6,17.1-14.9,17.1h0v-.1Z"/><path id="Fill-9" class="cls-21" d="M837,597.9c0-8.7,2.6-10.5,7.6-10.5s7.4,1.8,7.4,10.7v14.4c0,1,.4,1.7,1.4,1.7h4.1c1.1,0,1.4-.6,1.4-1.7v-14.7c0-14.3-4.6-16.5-14.4-16.5s-14.8,2.8-14.8,16.7h0v14.4c0,1.1.4,1.7,1.4,1.7h4.2c1,0,1.5-.6,1.5-1.7v-14.5"/><path id="Fill-10" class="cls-21" d="M704.7,598c0-8.7,2.7-10.5,7.7-10.5s7.5,1.8,7.5,10.8v14.4c0,1.1.4,1.7,1.5,1.7h4.2c1.1,0,1.5-.6,1.5-1.7v-14.8c0-14.4-4.7-16.7-14.5-16.7s-15,2.8-15,16.8h0v14.5c0,1.1.4,1.7,1.5,1.7h4.2c1.1,0,1.5-.6,1.5-1.7v-14.6"/><path id="Fill-12" class="cls-24" d="M568.6,633.2c0,.4.2.6.6.6h1.3c.8,0,1.3,0,1.6-.2.5-.3.9-.7.9-1.7s-.4-1.2-.9-1.5c-.4-.2-.9-.2-1.6-.2h-1.9v3h0ZM570.4,628.6c.7,0,1.2,0,1.5-.2.4-.2.8-.7.8-1.4,0-1.1-.4-1.3-1-1.5h-2.6c-.4,0-.5.2-.5.6v2.7h1.9l-.1-.2h0ZM568.3,635.4c-1.1,0-1.6-.4-1.6-1.7v-8.1c0-1.2.4-1.8,1.6-1.8h3.7c1.8.2,2.7,1.1,2.7,2.7s-.5,2.2-1.7,2.7c1.3.3,2,1.1,2,2.7s-.4,2.5-1.7,3c-.6.3-1.7.4-3.2.4h-1.8v.1h0Z"/><path id="Fill-14" class="cls-24" d="M580,627.8c0-.3,0-.4.4-.4h1.1c.3,0,.4.2.4.4v5.6c.2.4.5.5,1.3.5s1.2,0,1.6-.2c0,0,.3,0,.4-.2s0-.3,0-.4v-5.3c0-.3,0-.4.4-.4h1.1c.3,0,.4.2.4.4v6.1c0,.5-.2.8-.5,1-1,.4-2.5.4-3.5.4-1.9,0-2.5-.4-2.7-1.1-.2-.4-.2-1.1-.2-1.8v-4.7"/><path id="Fill-15" class="cls-24" d="M593.8,635.4h-.9c-.2,0-.4,0-.4-.4v-7.2c0-.3,0-.4.4-.4h.9c.3,0,.4.2.4.4v7.2c0,.3-.2.4-.4.4ZM593.3,626c-.5,0-.9-.2-.9-1.1s.4-1.1.9-1.1.9.3.9,1.1-.3,1.1-.9,1.1h0Z"/><path id="Fill-16" class="cls-24" d="M601.7,633.5c.2.3.5.4,1.1.4.3,0,.4.2.4.4v.7c0,.3-.2.4-.5.4-1.5,0-2.2-.4-2.6-1-.3-.4-.4-.9-.4-1.7v-9.3c0-.3,0-.4.4-.4h1.2c.4,0,.4.2.4.4v9.1c0,.4,0,.7.2,1"/><path id="Fill-17" class="cls-24" d="M612,629c0-.27-.1-.43-.3-.5-.3,0-.7-.2-1.2-.2-1.8,0-2.2.7-2.2,2.9s.4,2.7,1.8,2.7,1.1,0,1.5-.3l.3-.3v-4.3h.1ZM613.7,634.4c0,.3-.3.4-.5.4-.6.3-1.9.5-3,.5-2.4,0-3.5-.9-3.5-4.2s1.2-4.4,3.8-4.4,1.2,0,1.5.3v-3.6c0-.4.2-.4.4-.4h1c.3,0,.4,0,.4.4v11h-.1Z"/><path id="Fill-18" class="cls-24" d="M620.4,635.4h-.9c-.2,0-.4,0-.4-.4v-7.2c0-.3,0-.4.4-.4h.9c.3,0,.4.2.4.4v7.2c0,.3-.2.4-.4.4ZM619.9,626c-.5,0-.9-.2-.9-1.1s.4-1.1.9-1.1.9.3.9,1.1-.3,1.1-.9,1.1h0Z"/><path id="Fill-19" class="cls-24" d="M627.6,635.1h-1.1c-.3,0-.4-.2-.4-.4v-6.5c0-.5.2-.9.5-1,1.1-.4,2.8-.7,4.1-.7s2.1.4,2.4,1.1c.2.4.2,1,.2,1.6v5.5c0,.3,0,.4-.4.4h-1.1c-.3,0-.4-.2-.4-.4v-6.1c0-.4-.4-.5-1.2-.5s-1.5.2-1.8.3c0,0-.3,0-.4.2s0,.3,0,.4v5.6c0,.4-.2.5-.4.5"/><path id="Fill-21" class="cls-24" d="M643.8,628.7c0-.27-.1-.43-.3-.5-.3,0-.9-.2-1.2-.2-1.9,0-2.2.8-2.2,2.9s.4,2.7,1.8,2.7,1.2,0,1.6-.3c0,0,.3-.2.3-.3v-4.4.1h0ZM641.7,635.3c-2.4,0-3.5-1-3.5-4.2s1.2-4.5,3.9-4.5,2.1,0,2.9.4c.4,0,.5.4.5.8v6.8c0,.8,0,1.6-.2,2.2-.4,1.7-2.4,2.3-5.5,2.3s-.4,0-.5-.4v-.7c0-.3.2-.4.4-.5,2.7,0,3.4-.4,3.7-1,.2-.4.3-.7.3-1.2v-.3c-.4.2-1.2.3-1.9.3h-.1Z"/><path id="Fill-23" class="cls-24" d="M665,632c0,2-1.1,3.4-4.3,3.4s-2.4-.2-3.4-.4c-.3,0-.4-.2-.4-.4s0-.5.2-.8.3-.4.4-.4h.5c.8.3,1.6.4,2.6.4,2,0,2.3-.9,2.3-1.6s-.2-1.2-1.8-1.6l-1.5-.4c-1.7-.4-2.6-1.4-2.6-3.1s1.1-3.3,4.2-3.3,2,0,2.8.4c.2,0,.4.2.4.4s0,.4-.2.8c0,.2-.2.4-.4.4h-.5c-.9-.2-1.7-.3-2.3-.3-1.7,0-2,.7-2,1.6s.2,1.2,1.7,1.6l1.4.4c2.1.5,2.7,1.2,2.7,3"/><path id="Fill-24" class="cls-24" d="M673.1,628.1c-1.2,0-1.9.5-1.9,2.7s.5,2.9,1.8,2.9,1.9-.4,1.9-2.8-.4-2.8-1.8-2.8h0ZM673,635.4c-2.4,0-3.5-.9-3.5-4.4s1.5-4.4,3.6-4.4,3.5.6,3.5,4.3c0,3.5-1.2,4.5-3.6,4.5h0Z"/><path id="Fill-25" class="cls-24" d="M684.8,633.8c.6,0,1.1,0,1.5-.2h.4s.3,0,.3.3.2.6.2.8,0,.4-.3.4c-.7.3-1.6.4-2.3.4-2.3,0-3.5-1-3.5-4.3s1.1-4.6,3.9-4.6,1.4,0,1.9.2c.2,0,.3.2.3.4s0,.7-.2,1c0,.2-.2.3-.3.3h-1.6c-1.8,0-2.1,1.1-2.1,2.8,0,1.9.3,2.8,1.9,2.8"/><path id="Fill-26" class="cls-24" d="M693,635.4h-.9c-.2,0-.4,0-.4-.4v-7.2c0-.3,0-.4.4-.4h.9c.3,0,.4.2.4.4v7.2c0,.3-.2.4-.4.4ZM692.5,626c-.5,0-.9-.2-.9-1.1s.4-1.1.9-1.1.9.3.9,1.1-.3,1.1-.9,1.1h0Z"/><path id="Fill-27" class="cls-24" d="M704.1,630.1v-.4c0-1.2-.3-1.8-1.6-1.8s-1.9.8-1.9,2.1h3.5v.1h0ZM702.9,633.8c.9,0,1.3,0,1.9-.2h.4c.2,0,.3,0,.4.3,0,.2.2.6.2.8s0,.3-.3.4c-.7.4-1.8.4-2.7.4-2.9,0-3.9-1.3-3.9-4.4s1.3-4.4,3.8-4.4,3.3,1.8,3.3,4.3,0,.4-.2.5h-5.1c0,1.9.8,2.3,2.2,2.3h0Z"/><path id="Fill-28" class="cls-24" d="M712.8,633.2c.3.3.8.4,1.6.5.3,0,.4.2.4.4v.8c0,.3-.2.4-.4.4-1.6,0-2.5-.2-3-.9-.4-.5-.5-1.2-.5-2.6v-3.4h-1c-.2,0-.4,0-.4-.4v-.7c0-.3.2-.4.4-.4h1v-1.8c0-.3,0-.4.4-.4h1c.3,0,.4.2.4.4v1.8h1.6c.3,0,.4,0,.4.4v.7c0,.3-.2.4-.4.4h-1.6v3.4c0,.8,0,1.2.2,1.4"/><path id="Fill-30" class="cls-24" d="M719,627.4c0-.3,0-.4.4-.4h1.1c.3,0,.4.2.4.4v6c0,.4.4.5,1.3.5s1.4-.2,1.7-.3c0,0,.3,0,.4-.2v-6c0-.3,0-.4.4-.4h1.1c.3,0,.4.2.4.4v7.3c0,.8,0,1.4-.2,2-.4,1.7-2.3,2.3-5.5,2.3s-.4,0-.5-.4v-.7c0-.3.2-.4.4-.4,2.8,0,3.5-.4,3.8-1.2,0-.4.2-.7.2-1.2v-.4c-.7.4-1.8.5-2.7.5-1.5,0-2.2-.4-2.4-1.1-.2-.4-.2-1-.2-1.6v-5.3"/><path id="Fill-32" class="cls-21" d="M853,620.8c.4-.4.6-.4,1-.4s1.2.6,1.9,1.1c.4.4.5.8.5,1.3s-.4,1.2-.8,1.9c-3.1,5.3-10.7,13.4-28.7,13.4s-24.5-7.3-28.4-13.4c-.4-.8-.7-1.3-.7-1.9s.4-.9.7-1.3c.5-.5,1.2-1.1,1.7-1.1s.8.2,1,.5c4.5,5.6,10.5,10.4,25.6,10.4,16.7,0,21.4-5.1,26.2-10.5"/><g id="Page-1"><g id="Natwest_Secondary_Horizontal_RGB_NEG"><g id="NatWest-Horizontal"><path id="NatWest-Wordmark" class="cls-10" d="M748.32,419.67v5h-6.1v13c0,2.3,1.1,2.8,3.1,2.8s2.1-.2,2.5-.4h.5c0-.1,0,4.9,0,4.9h-.3c-1.7.5-3.1.6-5.2.6s-6.2-.5-6.2-6.7v-14.2h-3.6v-5h3.6v-6.4l5.6-2v8.4h6.1ZM786.02,411.47l-6.7,33.5h-5.7l-5.9-23.3-6,23.3h-5.6l-7-33.5h5.9l4.6,22.7,5.7-22.7h5.5c.5,2.1,5.7,22.4,5.7,22.7,0-.3,4-22,4.2-22.7h5.6-.3ZM791.82,429.67c.1-2.4,1.8-5.5,5.4-5.5s5.1,3.4,5.2,5.5h-10.6ZM797.42,419.17c-4.3,0-11.5,2.8-11.5,13.2s9.9,13.1,11.9,13.1c4.2,0,6.1-.9,7.9-1.7h.2v-5.4l-.5.3c-1.3.8-3.9,1.8-6.8,1.8-5.9,0-6.7-4.2-6.8-6h16.2v-.3c.5-3.5,0-8.4-2.8-11.7-1.9-2.2-4.5-3.3-7.7-3.3M828.72,437.97c0,3.8-3.3,7.6-9.6,7.6s-5.8-.7-8-1.7h-.2v-5.5l.5.3c1.8,1,4.7,2,7.5,2s4-.9,4-2.5-.9-2-3.1-2.9l-.9-.4c-1.1-.5-2-.9-3.5-1.6-1.5-.7-4.9-2.2-4.9-6.8s1.9-7.2,9.1-7.2,5.9.8,7,1.4h.2v5.4l-.5-.2c-2.3-1.1-4.3-1.7-6.5-1.7s-3.5.2-3.5,2.1,1.7,2.2,3.1,2.8h.3c1,.6,1.8.9,2.4,1.2l.7.3c4.3,1.9,5.9,3.9,5.9,7.5M702.02,411.47h5.5v33.5h-5.3l-14.6-23.3v23.3h-5.5v-33.5h5.5l14.5,23.5v-23.5h-.1,0ZM838.52,424.57v13c0,2.3,1.1,2.8,3.1,2.8s2-.2,2.5-.3l.5-.2v5h-.3c-1.7.5-3.1.6-5.2.6s-6.2-.5-6.2-6.7v-14.2h-3.6v-5h3.6v-6.4l5.6-2v8.4h6.1v5h-6.1ZM725.82,437.57c-.6.8-2.7,2.9-5.8,2.9s-4-1.4-4-3.5,1.8-3.5,4.8-3.5h4.9v4.1h.1ZM721.52,419.07c-2.8,0-5.6.5-7.6,1.3h-.2v5.2l.5-.3c1.3-.6,4.5-1.2,6.4-1.2,4.9,0,5.1,1.9,5.2,4.3h-5.3c-7,0-10.1,4.4-10.1,8.4s4.5,8.6,8.9,8.6,4.9-1.1,6.5-2.5v2h5.6v-17.1c0-7.9-6.9-8.8-9.9-8.8"/><g id="NatWest-Brandmark"><path id="Path" class="cls-10" d="M657.12,426.07c0,46.4-3.6,50-50,50s-50-3.6-50-50,3.6-50,50-50,50,3.6,50,50Z"/><g id="Group"><polygon id="Path-2" class="cls-9" points="622.02 437.07 602.12 437.07 612.02 454.27 631.92 454.27 631.92 454.27 631.92 454.27 622.02 437.07"/><polygon id="Path-3" class="cls-17" points="631.92 419.77 641.92 437.07 631.92 454.27 622.02 437.07 631.92 419.77"/><polygon id="Path-4" class="cls-9" points="617.02 393.97 617.02 393.97 597.12 393.97 587.22 411.17 607.12 411.17 607.12 411.17 617.02 393.97"/><polygon id="Path-5" class="cls-17" points="607.12 411.17 617.02 428.37 627.02 411.17 617.02 393.97 607.12 411.17"/><polygon id="Path-6" class="cls-9" points="592.12 437.07 592.12 437.07 602.12 419.77 582.22 419.77 572.22 437.07 572.22 437.07 572.22 437.07 592.12 437.07"/><polygon id="Path-7" class="cls-17" points="602.12 454.27 602.12 454.27 582.22 454.27 572.22 437.07 572.22 437.07 592.12 437.07 602.12 454.27"/></g><polygon id="Path-8" class="cls-7" points="622.02 419.77 617.02 428.37 607.12 428.37 607.12 428.37 602.12 437.07 622.02 437.07 631.92 419.77 622.02 419.77"/><polygon id="Path-9" class="cls-3" points="592.22 419.77 602.12 419.77 607.12 428.37 607.12 428.37 617.02 428.37 607.12 411.17 587.22 411.17 592.22 419.77"/><polygon id="Path-10" class="cls-2" points="607.02 445.67 602.12 437.07 607.12 428.37 607.12 428.37 602.12 419.77 592.12 437.07 602.12 454.27 607.02 445.67"/></g></g></g></g></g></svg>