<?xml version="1.0" encoding="utf-8"?>
<!-- Generator: Adobe Illustrator 27.8.0, SVG Export Plug-In . SVG Version: 6.00 Build 0)  -->
<svg version="1.1" id="Layer_1" xmlns="http://www.w3.org/2000/svg" xmlns:xlink="http://www.w3.org/1999/xlink" x="0px" y="0px"
	 viewBox="0 0 1920 1080" style="enable-background:new 0 0 1920 1080;" xml:space="preserve">
<style type="text/css">
	.st0{opacity:0.6;}
	
		.st1{clip-path:url(#SVGID_00000088096223986311543050000002213782764986716083_);fill:url(#SVGID_00000179603559362357832670000013166171938132329113_);}
</style>
<g class="st0">
	<g>
		<defs>
			<path id="SVGID_1_" d="M677.2,1c13.7,17.2,25.3,36.3,34.2,57.3c34.7,81.8,28.2,186.5-20.4,329.4c-1.1,3.3-2.2,6.6-3.4,9.8
				c-74.1,7.5-152,29.5-236.4,66.8C275.8,542,119.2,664.2,0,814.9V1081h22.3c9-25.8,23.5-51.2,37.5-73.9
				c107.5-173.3,269.4-314.2,456-396.6c34.6-15.3,67.5-27.5,98.9-36.4C522,765.8,392.8,938,233.8,1081h226.7
				c57.6-62.6,110.9-129.5,159.6-200.2C690,779,749.2,671.1,796.8,558.5c52.5,8.3,99.6,28.8,134.1,59.2c25.5,22.5,46,52.2,60.4,86.2
				c-10.3,6.4-20.5,13-30.5,20c-124.3,86.1-216,208.4-258.4,344.6c-1.3,4.2-2.5,8.4-3.7,12.6h168.6
				c30.3-74.6,80.4-140.9,142.6-193.5c-10.6,62.1-36.6,126.9-77.4,193.5h181.3c34.1-72.9,54.2-145.2,59.7-216.2
				c1.9-24.6,2-48.9,0.4-72.8c61.3-22.4,126.4-33.2,191.1-29.5c44,2.5,81.8-31.1,84.3-75.1s-31.1-81.7-75.1-84.3
				c-79.6-4.6-160.5,6.8-238.2,32.8c-23.5-53.4-57.3-100.6-99.7-138c-50.5-44.5-113.5-75.5-183.5-91.3
				c35-111.7,65.7-263.6,7.7-405.6H677.2V1z"/>
		</defs>
		<clipPath id="SVGID_00000005955295872937203530000015223341520925969554_">
			<use xlink:href="#SVGID_1_"  style="overflow:visible;"/>
		</clipPath>
		
			<linearGradient id="SVGID_00000011719735149980324860000010367659840516544390_" gradientUnits="userSpaceOnUse" x1="538.2321" y1="-243.8371" x2="540.2973" y2="-243.8371" gradientTransform="matrix(701.8952 0 0 701.8952 -377782.5 171689.1094)">
			<stop  offset="0" style="stop-color:#2362FF"/>
			<stop  offset="0.998" style="stop-color:#12229D"/>
			<stop  offset="1" style="stop-color:#12229D"/>
		</linearGradient>
		
			<rect y="1" style="clip-path:url(#SVGID_00000005955295872937203530000015223341520925969554_);fill:url(#SVGID_00000011719735149980324860000010367659840516544390_);" width="1451.9" height="1080"/>
	</g>
</g>
</svg>
