<?xml version="1.0" encoding="utf-8"?>
<!-- Generator: Adobe Illustrator 28.0.0, SVG Export Plug-In . SVG Version: 6.00 Build 0)  -->
<svg version="1.1" id="Layer_1" xmlns="http://www.w3.org/2000/svg" xmlns:xlink="http://www.w3.org/1999/xlink" x="0px" y="0px"
	 viewBox="0 0 1920 1080" style="enable-background:new 0 0 1920 1080;" xml:space="preserve">
<style type="text/css">
	
		.st0{clip-path:url(#SVGID_00000052783769517795857120000017833725856204690083_);fill:url(#SVGID_00000152233107612909304250000002583503939364046235_);}
</style>
<g>
	<defs>
		<path id="SVGID_1_" d="M678.2,0c13.7,17.2,25.4,36.3,34.3,57.4c34.7,81.9,28.2,186.7-20.5,329.8c-1.1,3.3-2.2,6.6-3.4,9.9
			c-74.2,7.5-152.1,29.5-236.7,66.9c-175.6,77.6-332.4,200-451.7,350.9v266.4h22.3c9-25.8,23.5-51.3,37.6-74
			c107.6-173.5,269.7-314.5,456.5-397.1c34.7-15.3,67.6-27.5,99-36.5C522.8,765.6,393.4,938,234.2,1081.2h226.9
			c57.7-62.7,111-129.7,159.8-200.5C691,778.9,750.2,670.8,797.8,558.1c52.5,8.3,99.7,28.8,134.3,59.3
			c25.6,22.5,46.1,52.2,60.5,86.3c-10.3,6.4-20.5,13.1-30.5,20c-124.4,86.2-216.3,208.7-258.7,345c-1.3,4.2-2.5,8.4-3.7,12.6h168.8
			c30.3-74.6,80.5-141,142.8-193.7c-10.6,62.2-36.6,127.1-77.5,193.7h181.5c34.2-72.9,54.2-145.4,59.8-216.5c1.9-24.6,2-49,0.4-72.9
			c61.4-22.4,126.5-33.2,191.4-29.5c44.1,2.5,81.8-31.1,84.4-75.2c2.5-44.1-31.1-81.8-75.2-84.4c-79.7-4.6-160.7,6.8-238.4,32.8
			c-23.6-53.4-57.3-100.7-99.8-138.1C987.1,452.9,924,421.8,854,406c35.1-111.8,65.8-263.9,7.7-406H678.2z"/>
	</defs>
	<clipPath id="SVGID_00000061454558618564284200000009470329819216400770_">
		<use xlink:href="#SVGID_1_"  style="overflow:visible;"/>
	</clipPath>
	
		<linearGradient id="SVGID_00000026854329815461886980000003130510643636760990_" gradientUnits="userSpaceOnUse" x1="0.9985" y1="1081.9639" x2="3.5869" y2="1081.9639" gradientTransform="matrix(560.6414 0 0 -560.6414 -559.6414 607134.3125)">
		<stop  offset="0" style="stop-color:#1A40CC"/>
		<stop  offset="1.818680e-02" style="stop-color:#1A40CC"/>
		<stop  offset="1" style="stop-color:#12229D"/>
	</linearGradient>
	
		<rect x="0.2" style="clip-path:url(#SVGID_00000061454558618564284200000009470329819216400770_);fill:url(#SVGID_00000026854329815461886980000003130510643636760990_);" width="1453.5" height="1081.2"/>
</g>
</svg>
