<?xml version="1.0" encoding="utf-8"?>
<!-- Generator: Adobe Illustrator 28.0.0, SVG Export Plug-In . SVG Version: 6.00 Build 0)  -->
<svg version="1.1" id="Layer_1" xmlns="http://www.w3.org/2000/svg" xmlns:xlink="http://www.w3.org/1999/xlink" x="0px" y="0px"
	 viewBox="0 0 243.4 43.9" style="enable-background:new 0 0 243.4 43.9;" xml:space="preserve">
<style type="text/css">
	.st0{clip-path:url(#SVGID_00000095318046672942750310000007402017736253673862_);fill:#FFFFFF;}
	.st1{fill:#FFFFFF;}
	.st2{clip-path:url(#SVGID_00000001640748108199744200000003989173624214453121_);fill:#FFFFFF;}
</style>
<g>
	<defs>
		<rect id="SVGID_1_" x="0" width="243.4" height="43.9"/>
	</defs>
	<clipPath id="SVGID_00000090262682413728003690000014414157684535906205_">
		<use xlink:href="#SVGID_1_"  style="overflow:visible;"/>
	</clipPath>
	<path style="clip-path:url(#SVGID_00000090262682413728003690000014414157684535906205_);fill:#FFFFFF;" d="M230.6,34.3V8.7h3.8
		v3.9h0.3c0.5-1.3,1.3-2.3,2.5-3.1c1.2-0.8,2.6-1.2,4.1-1.2c0.3,0,0.7,0,1.1,0c0.4,0,0.8,0,1,0.1v4c-0.1,0-0.4-0.1-0.9-0.2
		c-0.5-0.1-1-0.1-1.5-0.1c-1.2,0-2.4,0.3-3.3,0.8c-1,0.5-1.7,1.2-2.3,2.1c-0.6,0.9-0.8,1.9-0.8,3.1v16.2H230.6z"/>
	<path style="clip-path:url(#SVGID_00000090262682413728003690000014414157684535906205_);fill:#FFFFFF;" d="M43.4,34.9
		c-2.3,0-4.3-0.6-6.1-1.7c-1.7-1.1-3.1-2.6-4.1-4.6c-1-2-1.5-4.3-1.5-6.9c0-2.7,0.5-5,1.5-7c1-2,2.3-3.5,4.1-4.6
		c1.7-1.1,3.8-1.7,6.1-1.7s4.3,0.6,6.1,1.7c1.7,1.1,3.1,2.6,4.1,4.6c1,2,1.5,4.3,1.5,7c0,2.6-0.5,5-1.5,6.9c-1,2-2.3,3.5-4.1,4.6
		C47.7,34.3,45.7,34.9,43.4,34.9 M43.4,31.3c1.8,0,3.2-0.4,4.3-1.4c1.1-0.9,2-2.1,2.5-3.6c0.5-1.5,0.8-3.1,0.8-4.8s-0.3-3.3-0.8-4.8
		c-0.5-1.5-1.4-2.7-2.5-3.6c-1.1-0.9-2.6-1.4-4.3-1.4s-3.2,0.5-4.3,1.4c-1.1,0.9-2,2.1-2.5,3.6c-0.5,1.5-0.8,3.1-0.8,4.8
		s0.3,3.3,0.8,4.8c0.5,1.5,1.4,2.7,2.5,3.6C40.2,30.9,41.6,31.3,43.4,31.3"/>
	<path style="clip-path:url(#SVGID_00000090262682413728003690000014414157684535906205_);fill:#FFFFFF;" d="M59.7,34.3V8.7h3.8v4
		h0.3c0.5-1.4,1.4-2.4,2.6-3.2c1.2-0.8,2.6-1.1,4.3-1.1c1.7,0,3.1,0.4,4.2,1.1c1.1,0.8,2,1.8,2.6,3.2h0.3c0.7-1.3,1.6-2.4,3-3.2
		c1.3-0.8,2.9-1.2,4.7-1.2c2.3,0,4.2,0.7,5.6,2.1c1.5,1.4,2.2,3.7,2.2,6.7v17.2h-3.9V17.2c0-1.9-0.5-3.2-1.6-4.1
		c-1-0.8-2.3-1.2-3.7-1.2c-1.8,0-3.2,0.5-4.2,1.6c-1,1.1-1.5,2.5-1.5,4.1v16.7h-4V16.8c0-1.5-0.5-2.6-1.4-3.5
		c-0.9-0.9-2.2-1.3-3.7-1.3c-1,0-2,0.3-2.9,0.8C65.7,13.3,65,14,64.4,15c-0.5,1-0.8,2.1-0.8,3.3v16H59.7z"/>
	<path style="clip-path:url(#SVGID_00000090262682413728003690000014414157684535906205_);fill:#FFFFFF;" d="M110,34.9
		c-2.5,0-4.6-0.5-6.4-1.6c-1.8-1.1-3.2-2.6-4.1-4.6c-1-2-1.4-4.3-1.4-6.9c0-2.6,0.5-4.9,1.4-7c1-2,2.3-3.6,4-4.7
		c1.7-1.1,3.8-1.7,6.1-1.7c1.3,0,2.7,0.2,4,0.7c1.3,0.4,2.5,1.2,3.6,2.2c1.1,1,1.9,2.3,2.6,3.9c0.6,1.6,1,3.7,1,6v1.7h-19.8v-3.4
		h15.8c0-1.4-0.3-2.7-0.9-3.9c-0.6-1.1-1.4-2-2.4-2.7c-1.1-0.7-2.3-1-3.7-1c-1.6,0-2.9,0.4-4.1,1.2c-1.1,0.8-2,1.8-2.6,3
		c-0.6,1.2-0.9,2.6-0.9,4v2.3c0,1.9,0.3,3.6,1,4.9c0.7,1.3,1.6,2.4,2.8,3.1c1.2,0.7,2.6,1,4.2,1c1,0,2-0.1,2.8-0.4
		c0.8-0.3,1.6-0.7,2.2-1.3c0.6-0.6,1.1-1.3,1.4-2.2l3.8,1.1c-0.4,1.3-1.1,2.4-2,3.4c-0.9,1-2.1,1.7-3.5,2.3
		C113.3,34.6,111.7,34.9,110,34.9"/>
	<path style="clip-path:url(#SVGID_00000090262682413728003690000014414157684535906205_);fill:#FFFFFF;" d="M125.8,34.3V0.1h12
		c2.4,0,4.3,0.4,5.9,1.2c1.5,0.8,2.7,1.9,3.5,3.3c0.8,1.4,1.1,2.9,1.1,4.6c0,1.5-0.3,2.7-0.8,3.6c-0.5,1-1.2,1.7-2,2.3
		c-0.8,0.6-1.8,1-2.7,1.2v0.3c1,0.1,2.1,0.4,3.2,1.1c1.1,0.7,1.9,1.6,2.7,2.9c0.7,1.2,1.1,2.8,1.1,4.6c0,1.7-0.4,3.3-1.2,4.6
		c-0.8,1.4-2,2.5-3.7,3.3c-1.7,0.8-3.9,1.2-6.6,1.2H125.8z M130,15.2h7.7c1.2,0,2.4-0.2,3.4-0.7c1-0.5,1.8-1.2,2.4-2.1
		c0.6-0.9,0.9-1.9,0.9-3.1c0-1.5-0.5-2.8-1.6-3.8c-1-1.1-2.7-1.6-5-1.6H130V15.2z M130,30.7h8.2c2.7,0,4.6-0.5,5.8-1.6
		c1.1-1.1,1.7-2.3,1.7-3.8c0-1.2-0.3-2.2-0.9-3.2c-0.6-1-1.4-1.8-2.5-2.4c-1.1-0.6-2.4-0.9-3.9-0.9H130V30.7z"/>
	<path style="clip-path:url(#SVGID_00000090262682413728003690000014414157684535906205_);fill:#FFFFFF;" d="M170.7,23.9V8.7h3.9
		v25.6h-3.9V30h-0.3c-0.6,1.3-1.5,2.4-2.8,3.3c-1.3,0.9-2.9,1.4-4.8,1.4c-1.6,0-3-0.4-4.3-1.1s-2.2-1.8-2.9-3.2
		c-0.7-1.4-1.1-3.2-1.1-5.4V8.7h3.9v16c0,1.9,0.5,3.4,1.6,4.5c1.1,1.1,2.4,1.7,4,1.7c1,0,2-0.3,3-0.8c1-0.5,1.9-1.3,2.6-2.3
		C170.4,26.8,170.7,25.5,170.7,23.9"/>
	<path style="clip-path:url(#SVGID_00000090262682413728003690000014414157684535906205_);fill:#FFFFFF;" d="M183.1,43.9
		c-0.7,0-1.3-0.1-1.8-0.2c-0.5-0.1-0.9-0.2-1.1-0.3l1-3.5c1.4,0.4,2.6,0.4,3.6,0c1-0.4,1.8-1.5,2.5-3.4l0.7-2l-9.5-25.8h4.3
		l7.1,20.4h0.3l7.1-20.4l4.3,0.1l-10.9,29.3c-0.5,1.3-1.1,2.4-1.8,3.2c-0.7,0.9-1.6,1.5-2.5,1.9C185.4,43.7,184.3,43.9,183.1,43.9"
		/>
	<path style="clip-path:url(#SVGID_00000090262682413728003690000014414157684535906205_);fill:#FFFFFF;" d="M215.3,34.9
		c-2.5,0-4.6-0.5-6.4-1.6c-1.8-1.1-3.2-2.6-4.1-4.6c-1-2-1.4-4.3-1.4-6.9c0-2.6,0.5-4.9,1.4-7c1-2,2.3-3.6,4-4.7
		c1.7-1.1,3.8-1.7,6.1-1.7c1.3,0,2.7,0.2,4,0.7c1.3,0.4,2.5,1.2,3.6,2.2c1.1,1,1.9,2.3,2.6,3.9c0.6,1.6,1,3.7,1,6v1.7h-19.8v-3.4
		h15.8c0-1.4-0.3-2.7-0.9-3.9c-0.6-1.1-1.4-2-2.4-2.7c-1.1-0.7-2.3-1-3.7-1c-1.6,0-2.9,0.4-4.1,1.2c-1.1,0.8-2,1.8-2.6,3
		c-0.6,1.2-0.9,2.6-0.9,4v2.3c0,1.9,0.3,3.6,1,4.9c0.7,1.3,1.6,2.4,2.8,3.1c1.2,0.7,2.6,1,4.2,1c1,0,2-0.1,2.8-0.4
		c0.8-0.3,1.6-0.7,2.2-1.3c0.6-0.6,1.1-1.3,1.4-2.2l3.8,1.1c-0.4,1.3-1.1,2.4-2,3.4c-0.9,1-2.1,1.7-3.5,2.3
		C218.6,34.6,217,34.9,215.3,34.9"/>
</g>
<polygon class="st1" points="22.4,0.1 22.4,15.4 4.1,15.4 4.1,6.9 0,6.9 0,34.3 4.1,34.3 4.1,19.1 22.4,19.1 22.4,34.3 26.5,34.3 
	26.5,0.1 "/>
<g>
	<defs>
		<rect id="SVGID_00000134245069265873582360000012488471249879396017_" x="0" width="243.4" height="43.9"/>
	</defs>
	<clipPath id="SVGID_00000081645109027095398950000017881048174513031593_">
		<use xlink:href="#SVGID_00000134245069265873582360000012488471249879396017_"  style="overflow:visible;"/>
	</clipPath>
	<path style="clip-path:url(#SVGID_00000081645109027095398950000017881048174513031593_);fill:#FFFFFF;" d="M4.2,2
		c0,1.1-0.9,2.1-2,2.1s-2-0.9-2-2.1c0-1.1,0.9-2,2-2S4.2,0.9,4.2,2"/>
	<path style="clip-path:url(#SVGID_00000081645109027095398950000017881048174513031593_);fill:#FFFFFF;" d="M178.6,40.1
		c0,1.1-0.9,2-2.1,2c-1.1,0-2.1-0.9-2.1-2s0.9-2,2.1-2C177.7,38,178.6,38.9,178.6,40.1"/>
</g>
</svg>
