<?xml version="1.0" encoding="utf-8"?>
<!-- Generator: Adobe Illustrator 27.8.0, SVG Export Plug-In . SVG Version: 6.00 Build 0)  -->
<svg version="1.1" id="Layer_1" xmlns="http://www.w3.org/2000/svg" xmlns:xlink="http://www.w3.org/1999/xlink" x="0px" y="0px"
	 viewBox="0 0 468.4 349.3" style="enable-background:new 0 0 468.4 349.3;" xml:space="preserve">
<style type="text/css">
	.st0{enable-background:new    ;}
	.st1{fill:#0070F0;}
	.st2{fill:#FFFFFF;}
	.st3{fill:none;stroke:#DBDCDC;stroke-width:6;stroke-linecap:round;stroke-linejoin:round;}
	.st4{fill:none;stroke:#A3BFE5;stroke-miterlimit:10;}
	.st5{fill:#1D1D1B;}
	.st6{fill:none;stroke:#1C1840;stroke-width:6;stroke-linecap:round;stroke-linejoin:round;}
	.st7{fill:#FFFFFF;stroke:#DBDCDC;stroke-width:3;stroke-miterlimit:10;}
	.st8{fill:none;stroke:#1C1840;stroke-width:0.73;stroke-linecap:round;stroke-linejoin:round;}
	.st9{fill:#F2F2F2;}
	.st10{fill:#39A935;}
	.st11{fill:#E20613;}
	.st12{fill:#F29100;}
	.st13{fill-rule:evenodd;clip-rule:evenodd;fill:#0070F0;}
	.st14{clip-path:url(#SVGID_00000069356521493526361260000017196601001297200305_);}
</style>
<g class="st0">
	<path class="st1" d="M2.1,8.1C2.6,7.2,3.3,6.5,4.1,6C5,5.5,6,5.2,7.1,5.2c1.3,0,2.4,0.3,3.4,1c1,0.7,1.6,1.6,2,2.7H9.9
		C9.6,8.4,9.2,8,8.7,7.8c-0.5-0.3-1-0.4-1.6-0.4c-0.7,0-1.3,0.2-1.8,0.5C4.8,8.1,4.4,8.6,4.1,9.1c-0.3,0.6-0.4,1.2-0.4,2
		c0,0.7,0.1,1.4,0.4,2c0.3,0.6,0.7,1,1.2,1.3c0.5,0.3,1.1,0.5,1.8,0.5c0.6,0,1.2-0.1,1.7-0.4c0.5-0.3,0.8-0.7,1.1-1.2h2.7
		c-0.4,1.2-1.1,2.1-2,2.7c-1,0.7-2.1,1-3.4,1c-1.1,0-2.1-0.2-3-0.7c-0.9-0.5-1.6-1.2-2.1-2.1c-0.5-0.9-0.8-1.9-0.8-3S1.5,9,2.1,8.1z
		"/>
	<path class="st1" d="M14.5,9.8c0.4-0.7,0.9-1.3,1.5-1.6c0.6-0.4,1.3-0.6,2.1-0.6c0.7,0,1.3,0.1,1.8,0.4c0.5,0.3,0.9,0.6,1.2,1V7.8
		h2.3v9.1h-2.3v-1.3c-0.3,0.4-0.7,0.8-1.2,1.1c-0.5,0.3-1.1,0.4-1.8,0.4c-0.8,0-1.5-0.2-2.1-0.6c-0.6-0.4-1.1-1-1.5-1.7
		c-0.4-0.7-0.6-1.5-0.6-2.5C13.9,11.4,14.1,10.6,14.5,9.8z M20.8,10.9c-0.2-0.4-0.5-0.7-0.9-0.9c-0.4-0.2-0.8-0.3-1.2-0.3
		s-0.8,0.1-1.2,0.3c-0.4,0.2-0.7,0.5-0.9,0.9c-0.2,0.4-0.3,0.9-0.3,1.4c0,0.5,0.1,1,0.3,1.4c0.2,0.4,0.5,0.7,0.9,0.9
		c0.4,0.2,0.8,0.3,1.2,0.3c0.4,0,0.8-0.1,1.2-0.3c0.4-0.2,0.7-0.5,0.9-0.9c0.2-0.4,0.3-0.9,0.3-1.4C21.1,11.8,21,11.3,20.8,10.9z"/>
	<path class="st1" d="M27.1,16.6c-0.6-0.3-1.1-0.6-1.4-1.1c-0.3-0.5-0.5-1-0.6-1.5h2.3c0,0.4,0.2,0.7,0.5,0.9
		c0.3,0.2,0.7,0.4,1.1,0.4c0.4,0,0.8-0.1,1-0.3c0.2-0.2,0.4-0.4,0.4-0.7c0-0.3-0.2-0.5-0.5-0.7c-0.3-0.2-0.8-0.3-1.5-0.5
		C28,13,27.4,12.8,27,12.6c-0.4-0.2-0.8-0.4-1.1-0.8c-0.3-0.4-0.5-0.8-0.5-1.4c0-0.5,0.1-1,0.4-1.4c0.3-0.4,0.7-0.8,1.2-1
		s1.2-0.4,1.9-0.4c1.1,0,2,0.3,2.6,0.8c0.6,0.5,1,1.3,1.1,2.2h-2.2c0-0.4-0.2-0.7-0.5-0.9s-0.6-0.3-1.1-0.3c-0.4,0-0.7,0.1-1,0.3
		c-0.2,0.2-0.3,0.4-0.3,0.7c0,0.3,0.2,0.5,0.5,0.7c0.3,0.2,0.8,0.3,1.4,0.5c0.7,0.2,1.2,0.3,1.6,0.5s0.8,0.4,1.1,0.8
		c0.3,0.4,0.5,0.8,0.5,1.4c0,0.5-0.1,1-0.4,1.4c-0.3,0.4-0.7,0.8-1.2,1S29.9,17,29.1,17C28.4,17,27.7,16.9,27.1,16.6z"/>
	<path class="st1" d="M43.1,13h-6.7c0,0.7,0.3,1.2,0.7,1.6c0.4,0.4,0.9,0.6,1.5,0.6c0.9,0,1.5-0.4,1.8-1.1h2.5
		c-0.3,0.9-0.8,1.6-1.5,2.2S39.7,17,38.6,17c-0.9,0-1.7-0.2-2.4-0.6s-1.2-0.9-1.6-1.7c-0.4-0.7-0.6-1.5-0.6-2.5
		c0-0.9,0.2-1.8,0.6-2.5c0.4-0.7,0.9-1.3,1.6-1.6c0.7-0.4,1.5-0.6,2.4-0.6c0.9,0,1.6,0.2,2.3,0.6c0.7,0.4,1.2,0.9,1.6,1.6
		c0.4,0.7,0.6,1.5,0.6,2.4C43.1,12.4,43.1,12.7,43.1,13z M40.7,11.6c0-0.6-0.2-1.1-0.6-1.5c-0.4-0.4-0.9-0.6-1.5-0.6
		c-0.6,0-1.1,0.2-1.5,0.6c-0.4,0.4-0.6,0.9-0.7,1.5H40.7z"/>
	<path class="st1" d="M52.7,8.1c0.5-0.3,1-0.5,1.6-0.5v2.4h-0.6c-0.7,0-1.3,0.2-1.6,0.5c-0.4,0.3-0.6,0.9-0.6,1.8v4.5h-2.3V7.8h2.3
		v1.6C51.8,8.8,52.2,8.4,52.7,8.1z"/>
	<path class="st1" d="M64.3,13h-6.7c0,0.7,0.3,1.2,0.7,1.6c0.4,0.4,0.9,0.6,1.5,0.6c0.9,0,1.5-0.4,1.8-1.1h2.5
		c-0.3,0.9-0.8,1.6-1.5,2.2S60.9,17,59.9,17c-0.9,0-1.7-0.2-2.4-0.6s-1.2-0.9-1.6-1.7c-0.4-0.7-0.6-1.5-0.6-2.5
		c0-0.9,0.2-1.8,0.6-2.5c0.4-0.7,0.9-1.3,1.6-1.6c0.7-0.4,1.5-0.6,2.4-0.6c0.9,0,1.6,0.2,2.3,0.6c0.7,0.4,1.2,0.9,1.6,1.6
		c0.4,0.7,0.6,1.5,0.6,2.4C64.3,12.4,64.3,12.7,64.3,13z M62,11.6c0-0.6-0.2-1.1-0.6-1.5c-0.4-0.4-0.9-0.6-1.5-0.6
		c-0.6,0-1.1,0.2-1.5,0.6c-0.4,0.4-0.6,0.9-0.7,1.5H62z"/>
	<path class="st1" d="M69.8,14.8l2.3-7h2.5l-3.4,9.1h-2.8l-3.4-9.1h2.5L69.8,14.8z"/>
	<path class="st1" d="M76.1,6.3c-0.3-0.3-0.4-0.6-0.4-1c0-0.4,0.1-0.7,0.4-1s0.6-0.4,1-0.4s0.7,0.1,1,0.4c0.3,0.3,0.4,0.6,0.4,1
		c0,0.4-0.1,0.7-0.4,1c-0.3,0.3-0.6,0.4-1,0.4S76.3,6.6,76.1,6.3z M78.2,7.8v9.1h-2.3V7.8H78.2z"/>
	<path class="st1" d="M88.9,13h-6.7c0,0.7,0.3,1.2,0.7,1.6c0.4,0.4,0.9,0.6,1.5,0.6c0.9,0,1.5-0.4,1.8-1.1h2.5
		c-0.3,0.9-0.8,1.6-1.5,2.2S85.5,17,84.5,17c-0.9,0-1.7-0.2-2.4-0.6s-1.2-0.9-1.6-1.7c-0.4-0.7-0.6-1.5-0.6-2.5
		c0-0.9,0.2-1.8,0.6-2.5c0.4-0.7,0.9-1.3,1.6-1.6c0.7-0.4,1.5-0.6,2.4-0.6c0.9,0,1.6,0.2,2.3,0.6c0.7,0.4,1.2,0.9,1.6,1.6
		c0.4,0.7,0.6,1.5,0.6,2.4C89,12.4,88.9,12.7,88.9,13z M86.6,11.6c0-0.6-0.2-1.1-0.6-1.5c-0.4-0.4-0.9-0.6-1.5-0.6
		c-0.6,0-1.1,0.2-1.5,0.6c-0.4,0.4-0.6,0.9-0.7,1.5H86.6z"/>
	<path class="st1" d="M103.3,7.8l-2.7,9.1h-2.5l-1.7-6.4l-1.7,6.4h-2.5l-2.7-9.1H92l1.6,7l1.7-7h2.4l1.7,6.9l1.6-6.9H103.3z"/>
</g>
<rect y="107.8" class="st2" width="276.9" height="42.2"/>
<rect y="83.2" class="st2" width="276.9" height="21.8"/>
<rect y="32.9" class="st2" width="87.4" height="42.8"/>
<rect y="128.9" class="st2" width="276.9" height="118.9"/>
<line class="st3" x1="10.9" y1="117" x2="23.4" y2="117"/>
<line class="st3" x1="10.9" y1="43.8" x2="47.4" y2="43.8"/>
<line class="st3" x1="37.7" y1="147.1" x2="102.2" y2="147.1"/>
<line class="st3" x1="37.7" y1="157.4" x2="63.6" y2="157.4"/>
<line class="st3" x1="37.7" y1="177.7" x2="102.2" y2="177.7"/>
<line class="st3" x1="37.7" y1="188" x2="63.6" y2="188"/>
<line class="st3" x1="37.7" y1="217.1" x2="102.2" y2="217.1"/>
<line class="st3" x1="37.7" y1="227.4" x2="63.6" y2="227.4"/>
<line class="st3" x1="152.3" y1="117" x2="216.1" y2="117"/>
<line class="st3" x1="152.3" y1="146.3" x2="213.6" y2="146.3"/>
<line class="st3" x1="152.3" y1="177.7" x2="213.6" y2="177.7"/>
<line class="st3" x1="152.3" y1="217.1" x2="213.6" y2="217.1"/>
<line class="st4" x1="0" y1="106" x2="276.9" y2="106"/>
<line class="st4" x1="0" y1="128.9" x2="276.9" y2="128.9"/>
<g class="st0">
	<path class="st1" d="M15.9,91.7c0.6,0.3,1,0.7,1.3,1.2s0.5,1.1,0.5,1.8c0,0.7-0.2,1.3-0.5,1.8s-0.7,0.9-1.3,1.2
		c-0.6,0.3-1.2,0.4-1.9,0.4h-2.4v-7H14C14.7,91.2,15.4,91.4,15.9,91.7z M15.7,96.4c0.4-0.4,0.6-1,0.6-1.7c0-0.7-0.2-1.3-0.6-1.7
		c-0.4-0.4-1-0.6-1.7-0.6h-1v4.7h1C14.7,97.1,15.3,96.9,15.7,96.4z"/>
	<path class="st1" d="M19.8,97.9c-0.4-0.2-0.8-0.6-1-1c-0.2-0.4-0.4-0.9-0.4-1.5c0-0.6,0.1-1.1,0.4-1.5c0.2-0.4,0.6-0.8,1-1
		c0.4-0.2,0.9-0.4,1.4-0.4s1,0.1,1.5,0.4c0.4,0.2,0.8,0.6,1,1c0.2,0.4,0.4,0.9,0.4,1.5c0,0.6-0.1,1.1-0.4,1.5c-0.3,0.4-0.6,0.8-1,1
		c-0.4,0.2-0.9,0.4-1.5,0.4C20.7,98.3,20.2,98.2,19.8,97.9z M21.9,96.9c0.2-0.1,0.4-0.3,0.5-0.6s0.2-0.6,0.2-0.9
		c0-0.4-0.1-0.7-0.2-0.9s-0.3-0.4-0.5-0.6c-0.2-0.1-0.5-0.2-0.7-0.2c-0.4,0-0.7,0.1-1,0.4s-0.4,0.7-0.4,1.2c0,0.5,0.1,0.9,0.4,1.2
		c0.3,0.3,0.6,0.4,1,0.4C21.5,97.1,21.7,97,21.9,96.9z"/>
	<path class="st1" d="M25.1,93.9c0.2-0.4,0.6-0.8,1-1c0.4-0.2,0.9-0.4,1.4-0.4c0.7,0,1.3,0.2,1.7,0.5c0.5,0.3,0.8,0.8,0.9,1.4h-1.5
		c-0.1-0.2-0.2-0.4-0.4-0.6c-0.2-0.1-0.4-0.2-0.7-0.2c-0.4,0-0.7,0.1-1,0.4s-0.4,0.7-0.4,1.2c0,0.5,0.1,0.9,0.4,1.2s0.6,0.4,1,0.4
		c0.6,0,0.9-0.3,1.1-0.8h1.5c-0.2,0.6-0.5,1.1-0.9,1.4c-0.5,0.4-1,0.5-1.7,0.5c-0.5,0-1-0.1-1.4-0.4c-0.4-0.2-0.7-0.6-1-1
		c-0.2-0.4-0.4-0.9-0.4-1.5C24.8,94.9,24.9,94.4,25.1,93.9z"/>
	<path class="st1" d="M36.4,92.7v5.5H35v-0.7c-0.2,0.2-0.4,0.4-0.7,0.6s-0.6,0.2-0.9,0.2c-0.4,0-0.8-0.1-1.1-0.3s-0.6-0.5-0.8-0.8
		c-0.2-0.4-0.3-0.8-0.3-1.3v-3.2h1.4v3c0,0.4,0.1,0.8,0.3,1c0.2,0.2,0.5,0.4,0.9,0.4c0.4,0,0.7-0.1,0.9-0.4c0.2-0.2,0.3-0.6,0.3-1
		v-3H36.4z"/>
	<path class="st1" d="M46.3,93.2c0.4,0.4,0.6,1,0.6,1.7v3.2h-1.4v-3.1c0-0.4-0.1-0.8-0.3-1c-0.2-0.2-0.5-0.3-0.9-0.3
		s-0.7,0.1-0.9,0.3c-0.2,0.2-0.3,0.6-0.3,1v3.1h-1.4v-3.1c0-0.4-0.1-0.8-0.3-1c-0.2-0.2-0.5-0.3-0.9-0.3c-0.4,0-0.7,0.1-0.9,0.3
		c-0.2,0.2-0.3,0.6-0.3,1v3.1h-1.4v-5.5h1.4v0.7c0.2-0.2,0.4-0.4,0.7-0.5c0.3-0.1,0.6-0.2,0.9-0.2c0.4,0,0.8,0.1,1.2,0.3
		c0.3,0.2,0.6,0.4,0.8,0.8c0.2-0.3,0.4-0.6,0.8-0.8c0.3-0.2,0.7-0.3,1.1-0.3C45.3,92.6,45.9,92.8,46.3,93.2z"/>
	<path class="st1" d="M53.3,95.8h-4c0,0.4,0.2,0.7,0.4,1c0.2,0.2,0.6,0.3,0.9,0.3c0.5,0,0.9-0.2,1.1-0.7h1.5c-0.2,0.5-0.5,1-0.9,1.3
		c-0.5,0.3-1,0.5-1.7,0.5c-0.5,0-1-0.1-1.4-0.4c-0.4-0.2-0.8-0.6-1-1c-0.2-0.4-0.4-0.9-0.4-1.5c0-0.6,0.1-1.1,0.4-1.5
		c0.2-0.4,0.6-0.8,1-1s0.9-0.3,1.4-0.3c0.5,0,1,0.1,1.4,0.3s0.7,0.5,1,1s0.3,0.9,0.3,1.4C53.4,95.5,53.4,95.7,53.3,95.8z M51.9,95
		c0-0.4-0.1-0.7-0.4-0.9c-0.2-0.2-0.6-0.3-0.9-0.3c-0.4,0-0.6,0.1-0.9,0.3c-0.2,0.2-0.4,0.5-0.4,0.9H51.9z"/>
	<path class="st1" d="M59.1,93.2c0.4,0.4,0.6,1,0.6,1.7v3.2h-1.4v-3.1c0-0.4-0.1-0.8-0.3-1c-0.2-0.2-0.5-0.4-0.9-0.4
		c-0.4,0-0.7,0.1-0.9,0.4c-0.2,0.2-0.3,0.6-0.3,1v3.1h-1.4v-5.5h1.4v0.7c0.2-0.2,0.4-0.4,0.7-0.6s0.6-0.2,1-0.2
		C58.1,92.6,58.7,92.8,59.1,93.2z"/>
	<path class="st1" d="M62.6,93.8v2.7c0,0.2,0,0.3,0.1,0.4C62.9,97,63,97,63.2,97h0.6v1.2H63c-1.2,0-1.8-0.6-1.8-1.7v-2.7h-0.7v-1.2
		h0.7v-1.4h1.4v1.4h1.2v1.2H62.6z"/>
	<path class="st1" d="M65.8,98c-0.4-0.2-0.6-0.4-0.9-0.7c-0.2-0.3-0.3-0.6-0.3-0.9H66c0,0.2,0.1,0.4,0.3,0.6
		c0.2,0.1,0.4,0.2,0.7,0.2c0.3,0,0.5-0.1,0.6-0.2c0.2-0.1,0.2-0.3,0.2-0.4c0-0.2-0.1-0.3-0.3-0.4c-0.2-0.1-0.5-0.2-0.9-0.3
		c-0.4-0.1-0.7-0.2-1-0.3c-0.3-0.1-0.5-0.3-0.7-0.5c-0.2-0.2-0.3-0.5-0.3-0.9c0-0.3,0.1-0.6,0.3-0.9s0.4-0.5,0.8-0.6
		c0.3-0.1,0.7-0.2,1.2-0.2c0.7,0,1.2,0.2,1.6,0.5c0.4,0.3,0.6,0.8,0.6,1.3h-1.3c0-0.2-0.1-0.4-0.3-0.6c-0.2-0.1-0.4-0.2-0.7-0.2
		c-0.3,0-0.4,0.1-0.6,0.2s-0.2,0.2-0.2,0.4c0,0.2,0.1,0.3,0.3,0.4c0.2,0.1,0.5,0.2,0.9,0.3c0.4,0.1,0.7,0.2,1,0.3
		c0.3,0.1,0.5,0.3,0.7,0.5s0.3,0.5,0.3,0.9c0,0.3-0.1,0.6-0.3,0.9c-0.2,0.3-0.4,0.5-0.8,0.6s-0.7,0.2-1.2,0.2
		C66.5,98.3,66.1,98.2,65.8,98z"/>
</g>
<g class="st0">
	<path class="st5" d="M11.9,57.9H9.4l-0.5,1.3H8.1l2.1-5.8h0.9l2.1,5.8h-0.8L11.9,57.9z M11.7,57.4l-1.1-2.9l-1.1,2.9H11.7z"/>
	<path class="st5" d="M15.5,54.9c0.3-0.2,0.6-0.3,1-0.3c0.4,0,0.8,0.1,1.1,0.3c0.3,0.2,0.6,0.5,0.8,0.8c0.2,0.4,0.3,0.8,0.3,1.2
		c0,0.5-0.1,0.9-0.3,1.2S18,58.8,17.6,59c-0.3,0.2-0.7,0.3-1.1,0.3c-0.4,0-0.7-0.1-1-0.3c-0.3-0.2-0.5-0.4-0.7-0.7v3h-0.8v-6.7h0.8
		v0.8C15,55.3,15.2,55,15.5,54.9z M17.7,56c-0.1-0.3-0.3-0.4-0.6-0.6c-0.2-0.1-0.5-0.2-0.8-0.2c-0.3,0-0.5,0.1-0.8,0.2
		s-0.4,0.3-0.6,0.6c-0.1,0.3-0.2,0.6-0.2,0.9c0,0.3,0.1,0.6,0.2,0.9c0.1,0.3,0.3,0.5,0.6,0.6c0.2,0.1,0.5,0.2,0.8,0.2
		c0.3,0,0.5-0.1,0.8-0.2c0.2-0.1,0.4-0.3,0.6-0.6c0.1-0.3,0.2-0.6,0.2-0.9C17.9,56.6,17.9,56.3,17.7,56z"/>
	<path class="st5" d="M21.1,54.9c0.3-0.2,0.6-0.3,1-0.3c0.4,0,0.8,0.1,1.1,0.3c0.3,0.2,0.6,0.5,0.8,0.8c0.2,0.4,0.3,0.8,0.3,1.2
		c0,0.5-0.1,0.9-0.3,1.2s-0.4,0.6-0.8,0.8c-0.3,0.2-0.7,0.3-1.1,0.3c-0.4,0-0.7-0.1-1-0.3c-0.3-0.2-0.5-0.4-0.7-0.7v3h-0.8v-6.7h0.8
		v0.8C20.6,55.3,20.8,55,21.1,54.9z M23.3,56c-0.1-0.3-0.3-0.4-0.6-0.6c-0.2-0.1-0.5-0.2-0.8-0.2c-0.3,0-0.5,0.1-0.8,0.2
		s-0.4,0.3-0.6,0.6c-0.1,0.3-0.2,0.6-0.2,0.9c0,0.3,0.1,0.6,0.2,0.9c0.1,0.3,0.3,0.5,0.6,0.6c0.2,0.1,0.5,0.2,0.8,0.2
		c0.3,0,0.5-0.1,0.8-0.2c0.2-0.1,0.4-0.3,0.6-0.6c0.1-0.3,0.2-0.6,0.2-0.9C23.5,56.6,23.5,56.3,23.3,56z"/>
	<path class="st5" d="M26.1,53.1v6.1h-0.8v-6.1H26.1z"/>
	<path class="st5" d="M27.4,53.8c-0.1-0.1-0.1-0.2-0.1-0.4s0-0.3,0.1-0.4s0.2-0.1,0.4-0.1c0.1,0,0.3,0,0.4,0.1s0.1,0.2,0.1,0.4
		s0,0.3-0.1,0.4s-0.2,0.1-0.4,0.1C27.6,53.9,27.5,53.9,27.4,53.8z M28.1,54.7v4.5h-0.8v-4.5H28.1z"/>
	<path class="st5" d="M29.4,55.7c0.2-0.4,0.4-0.6,0.8-0.8c0.3-0.2,0.7-0.3,1.1-0.3c0.6,0,1,0.1,1.4,0.4c0.4,0.3,0.6,0.6,0.7,1.1
		h-0.8c-0.1-0.3-0.2-0.5-0.5-0.7s-0.5-0.2-0.8-0.2c-0.4,0-0.8,0.1-1,0.4s-0.4,0.7-0.4,1.3c0,0.5,0.1,1,0.4,1.3s0.6,0.4,1,0.4
		c0.3,0,0.6-0.1,0.8-0.2c0.2-0.2,0.4-0.4,0.5-0.7h0.8c-0.1,0.5-0.4,0.8-0.7,1.1s-0.8,0.4-1.4,0.4c-0.4,0-0.8-0.1-1.1-0.3
		s-0.6-0.5-0.8-0.8c-0.2-0.4-0.3-0.8-0.3-1.2C29.1,56.5,29.2,56.1,29.4,55.7z"/>
	<path class="st5" d="M34.4,55.7c0.2-0.4,0.4-0.6,0.8-0.8c0.3-0.2,0.7-0.3,1.1-0.3c0.4,0,0.7,0.1,1,0.3c0.3,0.2,0.5,0.4,0.7,0.6
		v-0.8h0.8v4.5H38v-0.8c-0.1,0.3-0.4,0.5-0.7,0.7c-0.3,0.2-0.6,0.3-1,0.3c-0.4,0-0.8-0.1-1.1-0.3c-0.3-0.2-0.6-0.5-0.8-0.8
		c-0.2-0.4-0.3-0.8-0.3-1.2C34.2,56.5,34.2,56.1,34.4,55.7z M37.8,56.1c-0.1-0.3-0.3-0.4-0.6-0.6c-0.2-0.1-0.5-0.2-0.8-0.2
		c-0.3,0-0.5,0.1-0.8,0.2s-0.4,0.3-0.6,0.6c-0.1,0.3-0.2,0.6-0.2,0.9c0,0.3,0.1,0.7,0.2,0.9c0.1,0.3,0.3,0.5,0.6,0.6
		c0.2,0.1,0.5,0.2,0.8,0.2c0.3,0,0.5-0.1,0.8-0.2c0.2-0.1,0.4-0.3,0.6-0.6c0.1-0.3,0.2-0.6,0.2-0.9C38,56.6,37.9,56.3,37.8,56.1z"/>
	<path class="st5" d="M43.6,55.1c0.3,0.3,0.5,0.8,0.5,1.4v2.7h-0.7v-2.6c0-0.5-0.1-0.8-0.3-1c-0.2-0.2-0.5-0.4-0.9-0.4
		c-0.4,0-0.7,0.1-1,0.4s-0.4,0.6-0.4,1.1v2.5H40v-4.5h0.8v0.6c0.1-0.2,0.4-0.4,0.6-0.5s0.5-0.2,0.9-0.2
		C42.8,54.6,43.3,54.8,43.6,55.1z"/>
	<path class="st5" d="M46.3,55.3V58c0,0.2,0,0.4,0.1,0.5c0.1,0.1,0.3,0.1,0.5,0.1h0.6v0.6h-0.7c-0.4,0-0.7-0.1-0.9-0.3
		c-0.2-0.2-0.3-0.5-0.3-1v-2.7h-0.6v-0.6h0.6v-1.1h0.8v1.1h1.2v0.6H46.3z"/>
	<path class="st5" d="M50.5,54v-0.7h1.6v5.9h-0.8V54H50.5z"/>
</g>
<rect x="89.8" y="32.9" class="st2" width="87.4" height="42.8"/>
<rect x="179" y="32.9" class="st2" width="87.4" height="42.8"/>
<line class="st3" x1="100.7" y1="43.8" x2="137.2" y2="43.8"/>
<g class="st0">
	<path class="st5" d="M102.6,57.9h-2.5l-0.5,1.3h-0.8l2.1-5.8h0.9l2.1,5.8h-0.8L102.6,57.9z M102.4,57.4l-1.1-2.9l-1.1,2.9H102.4z"
		/>
	<path class="st5" d="M106.2,54.9c0.3-0.2,0.6-0.3,1-0.3c0.4,0,0.8,0.1,1.1,0.3c0.3,0.2,0.6,0.5,0.8,0.8c0.2,0.4,0.3,0.8,0.3,1.2
		c0,0.5-0.1,0.9-0.3,1.2s-0.4,0.6-0.8,0.8c-0.3,0.2-0.7,0.3-1.1,0.3c-0.4,0-0.7-0.1-1-0.3c-0.3-0.2-0.5-0.4-0.7-0.7v3h-0.8v-6.7h0.8
		v0.8C105.7,55.3,105.9,55,106.2,54.9z M108.4,56c-0.1-0.3-0.3-0.4-0.6-0.6c-0.2-0.1-0.5-0.2-0.8-0.2c-0.3,0-0.5,0.1-0.8,0.2
		s-0.4,0.3-0.6,0.6c-0.1,0.3-0.2,0.6-0.2,0.9c0,0.3,0.1,0.6,0.2,0.9c0.1,0.3,0.3,0.5,0.6,0.6c0.2,0.1,0.5,0.2,0.8,0.2
		c0.3,0,0.5-0.1,0.8-0.2c0.2-0.1,0.4-0.3,0.6-0.6c0.1-0.3,0.2-0.6,0.2-0.9C108.7,56.6,108.6,56.3,108.4,56z"/>
	<path class="st5" d="M111.8,54.9c0.3-0.2,0.6-0.3,1-0.3c0.4,0,0.8,0.1,1.1,0.3c0.3,0.2,0.6,0.5,0.8,0.8c0.2,0.4,0.3,0.8,0.3,1.2
		c0,0.5-0.1,0.9-0.3,1.2s-0.4,0.6-0.8,0.8c-0.3,0.2-0.7,0.3-1.1,0.3c-0.4,0-0.7-0.1-1-0.3c-0.3-0.2-0.5-0.4-0.7-0.7v3h-0.8v-6.7h0.8
		v0.8C111.3,55.3,111.6,55,111.8,54.9z M114.1,56c-0.1-0.3-0.3-0.4-0.6-0.6c-0.2-0.1-0.5-0.2-0.8-0.2c-0.3,0-0.5,0.1-0.8,0.2
		s-0.4,0.3-0.6,0.6c-0.1,0.3-0.2,0.6-0.2,0.9c0,0.3,0.1,0.6,0.2,0.9c0.1,0.3,0.3,0.5,0.6,0.6c0.2,0.1,0.5,0.2,0.8,0.2
		c0.3,0,0.5-0.1,0.8-0.2c0.2-0.1,0.4-0.3,0.6-0.6c0.1-0.3,0.2-0.6,0.2-0.9C114.3,56.6,114.2,56.3,114.1,56z"/>
	<path class="st5" d="M116.8,53.1v6.1H116v-6.1H116.8z"/>
	<path class="st5" d="M118.1,53.8c-0.1-0.1-0.1-0.2-0.1-0.4s0-0.3,0.1-0.4s0.2-0.1,0.4-0.1c0.1,0,0.3,0,0.4,0.1s0.1,0.2,0.1,0.4
		s0,0.3-0.1,0.4s-0.2,0.1-0.4,0.1C118.3,53.9,118.2,53.9,118.1,53.8z M118.8,54.7v4.5h-0.8v-4.5H118.8z"/>
	<path class="st5" d="M120.1,55.7c0.2-0.4,0.4-0.6,0.8-0.8c0.3-0.2,0.7-0.3,1.1-0.3c0.6,0,1,0.1,1.4,0.4c0.4,0.3,0.6,0.6,0.7,1.1
		h-0.8c-0.1-0.3-0.2-0.5-0.5-0.7s-0.5-0.2-0.8-0.2c-0.4,0-0.8,0.1-1,0.4s-0.4,0.7-0.4,1.3c0,0.5,0.1,1,0.4,1.3s0.6,0.4,1,0.4
		c0.3,0,0.6-0.1,0.8-0.2c0.2-0.2,0.4-0.4,0.5-0.7h0.8c-0.1,0.5-0.4,0.8-0.7,1.1s-0.8,0.4-1.4,0.4c-0.4,0-0.8-0.1-1.1-0.3
		s-0.6-0.5-0.8-0.8c-0.2-0.4-0.3-0.8-0.3-1.2C119.8,56.5,119.9,56.1,120.1,55.7z"/>
	<path class="st5" d="M125.2,55.7c0.2-0.4,0.4-0.6,0.8-0.8c0.3-0.2,0.7-0.3,1.1-0.3c0.4,0,0.7,0.1,1,0.3c0.3,0.2,0.5,0.4,0.7,0.6
		v-0.8h0.8v4.5h-0.8v-0.8c-0.1,0.3-0.4,0.5-0.7,0.7c-0.3,0.2-0.6,0.3-1,0.3c-0.4,0-0.8-0.1-1.1-0.3c-0.3-0.2-0.6-0.5-0.8-0.8
		c-0.2-0.4-0.3-0.8-0.3-1.2C124.9,56.5,125,56.1,125.2,55.7z M128.5,56.1c-0.1-0.3-0.3-0.4-0.6-0.6c-0.2-0.1-0.5-0.2-0.8-0.2
		c-0.3,0-0.5,0.1-0.8,0.2s-0.4,0.3-0.6,0.6c-0.1,0.3-0.2,0.6-0.2,0.9c0,0.3,0.1,0.7,0.2,0.9c0.1,0.3,0.3,0.5,0.6,0.6
		c0.2,0.1,0.5,0.2,0.8,0.2c0.3,0,0.5-0.1,0.8-0.2c0.2-0.1,0.4-0.3,0.6-0.6c0.1-0.3,0.2-0.6,0.2-0.9
		C128.7,56.6,128.7,56.3,128.5,56.1z"/>
	<path class="st5" d="M134.3,55.1c0.3,0.3,0.5,0.8,0.5,1.4v2.7h-0.7v-2.6c0-0.5-0.1-0.8-0.3-1c-0.2-0.2-0.5-0.4-0.9-0.4
		c-0.4,0-0.7,0.1-1,0.4s-0.4,0.6-0.4,1.1v2.5h-0.8v-4.5h0.8v0.6c0.1-0.2,0.4-0.4,0.6-0.5s0.5-0.2,0.9-0.2
		C133.5,54.6,134,54.8,134.3,55.1z"/>
	<path class="st5" d="M137,55.3V58c0,0.2,0,0.4,0.1,0.5c0.1,0.1,0.3,0.1,0.5,0.1h0.6v0.6h-0.7c-0.4,0-0.7-0.1-0.9-0.3
		c-0.2-0.2-0.3-0.5-0.3-1v-2.7h-0.6v-0.6h0.6v-1.1h0.8v1.1h1.2v0.6H137z"/>
	<path class="st5" d="M143,57.2c0.4-0.4,0.7-0.7,1-1.1c0.3-0.4,0.4-0.8,0.4-1.1c0-0.3-0.1-0.6-0.3-0.8c-0.2-0.2-0.5-0.3-0.8-0.3
		c-0.4,0-0.7,0.1-0.9,0.4s-0.3,0.5-0.3,0.9h-0.7c0-0.6,0.2-1.1,0.6-1.4c0.4-0.3,0.8-0.5,1.4-0.5c0.6,0,1,0.2,1.4,0.5
		c0.3,0.3,0.5,0.7,0.5,1.3c0,0.4-0.1,0.9-0.4,1.3s-0.6,0.8-0.9,1.1c-0.3,0.3-0.8,0.7-1.3,1.1h2.9v0.6h-4v-0.5
		C142.1,58.1,142.6,57.6,143,57.2z"/>
</g>
<line class="st3" x1="281.5" y1="250.3" x2="318" y2="250.3"/>
<line class="st3" x1="281.5" y1="297.2" x2="318" y2="297.2"/>
<line class="st6" x1="281.5" y1="226.9" x2="321.7" y2="226.9"/>
<path class="st7" d="M268.2,1.5h167.4c7.9,0,14.3,6.4,14.3,14.3v306.3c0,7.9-6.4,14.3-14.3,14.3H268.2c-7.9,0-14.3-6.4-14.3-14.3
	V15.8C253.9,7.9,260.3,1.5,268.2,1.5z"/>
<line class="st4" x1="254.2" y1="43.8" x2="448.3" y2="43.8"/>
<g class="st0">
	<path class="st1" d="M273.3,21.6h-2.8l-0.5,1.3h-1.5l2.5-7h1.6l2.5,7h-1.5L273.3,21.6z M272.9,20.5l-1-3l-1,3H272.9z"/>
	<path class="st1" d="M276.2,18.7c0.2-0.4,0.5-0.8,0.9-1s0.8-0.3,1.3-0.3c0.4,0,0.7,0.1,1,0.2c0.3,0.2,0.6,0.4,0.8,0.6v-2.6h1.4v7.4
		h-1.4v-0.8c-0.2,0.3-0.4,0.5-0.7,0.7c-0.3,0.2-0.7,0.2-1.1,0.2c-0.5,0-0.9-0.1-1.3-0.4c-0.4-0.2-0.7-0.6-0.9-1s-0.3-0.9-0.3-1.5
		C275.8,19.6,275.9,19.1,276.2,18.7z M280,19.3c-0.1-0.2-0.3-0.4-0.5-0.6s-0.5-0.2-0.7-0.2c-0.3,0-0.5,0.1-0.7,0.2
		c-0.2,0.1-0.4,0.3-0.5,0.6c-0.1,0.2-0.2,0.5-0.2,0.9s0.1,0.6,0.2,0.9s0.3,0.4,0.5,0.6c0.2,0.1,0.5,0.2,0.7,0.2
		c0.3,0,0.5-0.1,0.7-0.2s0.4-0.3,0.5-0.6c0.1-0.2,0.2-0.5,0.2-0.9C280.2,19.8,280.1,19.5,280,19.3z"/>
	<path class="st1" d="M282.9,18.7c0.2-0.4,0.5-0.8,0.9-1s0.8-0.3,1.3-0.3c0.4,0,0.7,0.1,1,0.2c0.3,0.2,0.6,0.4,0.8,0.6v-2.6h1.4v7.4
		H287v-0.8c-0.2,0.3-0.4,0.5-0.7,0.7c-0.3,0.2-0.7,0.2-1.1,0.2c-0.5,0-0.9-0.1-1.3-0.4c-0.4-0.2-0.7-0.6-0.9-1s-0.3-0.9-0.3-1.5
		C282.6,19.6,282.7,19.1,282.9,18.7z M286.8,19.3c-0.1-0.2-0.3-0.4-0.5-0.6s-0.5-0.2-0.7-0.2c-0.3,0-0.5,0.1-0.7,0.2
		c-0.2,0.1-0.4,0.3-0.5,0.6c-0.1,0.2-0.2,0.5-0.2,0.9s0.1,0.6,0.2,0.9s0.3,0.4,0.5,0.6c0.2,0.1,0.5,0.2,0.7,0.2
		c0.3,0,0.5-0.1,0.7-0.2s0.4-0.3,0.5-0.6c0.1-0.2,0.2-0.5,0.2-0.9C287,19.8,286.9,19.5,286.8,19.3z"/>
	<path class="st1" d="M293.4,22.7c-0.4-0.2-0.8-0.6-1-1c-0.2-0.4-0.4-0.9-0.4-1.5c0-0.6,0.1-1.1,0.4-1.5c0.2-0.4,0.6-0.8,1-1
		c0.4-0.2,0.9-0.4,1.4-0.4s1,0.1,1.5,0.4c0.4,0.2,0.8,0.6,1,1c0.2,0.4,0.4,0.9,0.4,1.5c0,0.6-0.1,1.1-0.4,1.5c-0.3,0.4-0.6,0.8-1,1
		c-0.4,0.2-0.9,0.4-1.5,0.4C294.3,23,293.9,22.9,293.4,22.7z M295.6,21.6c0.2-0.1,0.4-0.3,0.5-0.6c0.1-0.2,0.2-0.6,0.2-0.9
		c0-0.4-0.1-0.7-0.2-0.9c-0.1-0.2-0.3-0.4-0.5-0.6c-0.2-0.1-0.5-0.2-0.7-0.2c-0.4,0-0.7,0.1-1,0.4s-0.4,0.7-0.4,1.2
		c0,0.5,0.1,0.9,0.4,1.2c0.3,0.3,0.6,0.4,1,0.4C295.1,21.8,295.4,21.8,295.6,21.6z"/>
	<path class="st1" d="M300.9,17.6c0.3-0.2,0.7-0.3,1.1-0.3c0.5,0,0.9,0.1,1.3,0.3c0.4,0.2,0.7,0.6,0.9,1c0.2,0.4,0.3,0.9,0.3,1.5
		s-0.1,1.1-0.3,1.5c-0.2,0.4-0.5,0.8-0.9,1c-0.4,0.2-0.8,0.4-1.3,0.4c-0.4,0-0.8-0.1-1.1-0.2c-0.3-0.2-0.6-0.4-0.8-0.6v3.4h-1.4
		v-8.2h1.4v0.8C300.4,17.9,300.6,17.7,300.9,17.6z M302.9,19.3c-0.1-0.2-0.3-0.4-0.5-0.6c-0.2-0.1-0.5-0.2-0.7-0.2
		c-0.3,0-0.5,0.1-0.7,0.2c-0.2,0.1-0.4,0.3-0.5,0.6c-0.1,0.2-0.2,0.5-0.2,0.9c0,0.3,0.1,0.6,0.2,0.9c0.1,0.2,0.3,0.4,0.5,0.6
		c0.2,0.1,0.5,0.2,0.7,0.2c0.3,0,0.5-0.1,0.7-0.2c0.2-0.1,0.4-0.3,0.5-0.6c0.1-0.2,0.2-0.5,0.2-0.9
		C303.1,19.8,303.1,19.5,302.9,19.3z"/>
	<path class="st1" d="M307.2,18.6v2.7c0,0.2,0,0.3,0.1,0.4c0.1,0.1,0.2,0.1,0.5,0.1h0.6v1.2h-0.9c-1.2,0-1.8-0.6-1.8-1.7v-2.7h-0.7
		v-1.2h0.7V16h1.4v1.4h1.2v1.2H307.2z"/>
	<path class="st1" d="M309.6,16.5c-0.2-0.2-0.2-0.4-0.2-0.6s0.1-0.4,0.2-0.6c0.2-0.2,0.4-0.2,0.6-0.2c0.2,0,0.5,0.1,0.6,0.2
		c0.2,0.2,0.2,0.4,0.2,0.6s-0.1,0.4-0.2,0.6c-0.2,0.2-0.4,0.2-0.6,0.2C309.9,16.7,309.7,16.7,309.6,16.5z M310.9,17.4v5.5h-1.4v-5.5
		H310.9z"/>
	<path class="st1" d="M313.3,22.7c-0.4-0.2-0.8-0.6-1-1c-0.2-0.4-0.4-0.9-0.4-1.5c0-0.6,0.1-1.1,0.4-1.5c0.2-0.4,0.6-0.8,1-1
		c0.4-0.2,0.9-0.4,1.5-0.4s1,0.1,1.5,0.4c0.4,0.2,0.8,0.6,1,1c0.2,0.4,0.4,0.9,0.4,1.5c0,0.6-0.1,1.1-0.4,1.5c-0.3,0.4-0.6,0.8-1,1
		c-0.4,0.2-0.9,0.4-1.5,0.4C314.2,23,313.7,22.9,313.3,22.7z M315.4,21.6c0.2-0.1,0.4-0.3,0.5-0.6c0.1-0.2,0.2-0.6,0.2-0.9
		c0-0.4-0.1-0.7-0.2-0.9c-0.1-0.2-0.3-0.4-0.5-0.6c-0.2-0.1-0.5-0.2-0.7-0.2c-0.4,0-0.7,0.1-1,0.4s-0.4,0.7-0.4,1.2
		c0,0.5,0.1,0.9,0.4,1.2s0.6,0.4,1,0.4C315,21.8,315.2,21.8,315.4,21.6z"/>
	<path class="st1" d="M323.3,17.9c0.4,0.4,0.6,1,0.6,1.7v3.2h-1.4v-3.1c0-0.4-0.1-0.8-0.3-1c-0.2-0.2-0.5-0.4-0.9-0.4
		c-0.4,0-0.7,0.1-0.9,0.4c-0.2,0.2-0.3,0.6-0.3,1v3.1h-1.4v-5.5h1.4v0.7c0.2-0.2,0.4-0.4,0.7-0.6s0.6-0.2,1-0.2
		C322.3,17.3,322.9,17.5,323.3,17.9z"/>
	<path class="st1" d="M325.2,18.7c0.2-0.4,0.5-0.8,0.9-1c0.4-0.2,0.8-0.3,1.3-0.3c0.4,0,0.8,0.1,1.1,0.2c0.3,0.2,0.6,0.4,0.7,0.6
		v-0.8h1.4v5.5h-1.4v-0.8c-0.2,0.3-0.4,0.5-0.7,0.6c-0.3,0.2-0.7,0.3-1.1,0.3c-0.5,0-0.9-0.1-1.3-0.4c-0.4-0.2-0.7-0.6-0.9-1
		c-0.2-0.4-0.3-0.9-0.3-1.5C324.9,19.6,325,19.1,325.2,18.7z M329,19.3c-0.1-0.2-0.3-0.4-0.5-0.6c-0.2-0.1-0.5-0.2-0.7-0.2
		s-0.5,0.1-0.7,0.2c-0.2,0.1-0.4,0.3-0.5,0.6c-0.1,0.2-0.2,0.5-0.2,0.9s0.1,0.6,0.2,0.9s0.3,0.4,0.5,0.6c0.2,0.1,0.5,0.2,0.7,0.2
		c0.3,0,0.5-0.1,0.7-0.2c0.2-0.1,0.4-0.3,0.5-0.6c0.1-0.2,0.2-0.5,0.2-0.9C329.2,19.8,329.2,19.5,329,19.3z"/>
	<path class="st1" d="M333.4,15.5v7.4H332v-7.4H333.4z"/>
	<path class="st1" d="M342.1,17.9c0.4,0.4,0.6,1,0.6,1.7v3.2h-1.4v-3.1c0-0.4-0.1-0.8-0.3-1c-0.2-0.2-0.5-0.4-0.9-0.4
		c-0.4,0-0.7,0.1-0.9,0.4c-0.2,0.2-0.3,0.6-0.3,1v3.1h-1.4v-5.5h1.4v0.7c0.2-0.2,0.4-0.4,0.7-0.6s0.6-0.2,1-0.2
		C341.2,17.3,341.7,17.5,342.1,17.9z"/>
	<path class="st1" d="M345.1,22.7c-0.4-0.2-0.8-0.6-1-1c-0.2-0.4-0.4-0.9-0.4-1.5c0-0.6,0.1-1.1,0.4-1.5c0.2-0.4,0.6-0.8,1-1
		c0.4-0.2,0.9-0.4,1.5-0.4s1,0.1,1.5,0.4c0.4,0.2,0.8,0.6,1,1c0.2,0.4,0.4,0.9,0.4,1.5c0,0.6-0.1,1.1-0.4,1.5c-0.3,0.4-0.6,0.8-1,1
		c-0.4,0.2-0.9,0.4-1.5,0.4C346,23,345.5,22.9,345.1,22.7z M347.3,21.6c0.2-0.1,0.4-0.3,0.5-0.6c0.1-0.2,0.2-0.6,0.2-0.9
		c0-0.4-0.1-0.7-0.2-0.9c-0.1-0.2-0.3-0.4-0.5-0.6c-0.2-0.1-0.5-0.2-0.7-0.2c-0.4,0-0.7,0.1-1,0.4s-0.4,0.7-0.4,1.2
		c0,0.5,0.1,0.9,0.4,1.2s0.6,0.4,1,0.4C346.8,21.8,347,21.8,347.3,21.6z"/>
	<path class="st1" d="M352.1,18.6v2.7c0,0.2,0,0.3,0.1,0.4c0.1,0.1,0.2,0.1,0.5,0.1h0.7v1.2h-0.9c-1.2,0-1.8-0.6-1.8-1.7v-2.7H350
		v-1.2h0.7V16h1.4v1.4h1.2v1.2H352.1z"/>
	<path class="st1" d="M359.4,20.6h-4c0,0.4,0.2,0.7,0.4,1c0.2,0.2,0.6,0.3,0.9,0.3c0.5,0,0.9-0.2,1.1-0.7h1.5
		c-0.2,0.5-0.5,1-0.9,1.3c-0.5,0.3-1,0.5-1.7,0.5c-0.5,0-1-0.1-1.4-0.4c-0.4-0.2-0.8-0.6-1-1c-0.2-0.4-0.4-0.9-0.4-1.5
		c0-0.6,0.1-1.1,0.3-1.5c0.2-0.4,0.6-0.8,1-1s0.9-0.3,1.4-0.3c0.5,0,1,0.1,1.4,0.3c0.4,0.2,0.7,0.5,1,1c0.2,0.4,0.3,0.9,0.3,1.4
		C359.5,20.2,359.5,20.4,359.4,20.6z M358,19.7c0-0.4-0.1-0.7-0.4-0.9c-0.2-0.2-0.6-0.3-0.9-0.3c-0.4,0-0.6,0.1-0.9,0.3
		c-0.2,0.2-0.4,0.5-0.4,0.9H358z"/>
	<path class="st1" d="M361.4,22.8c-0.4-0.2-0.6-0.4-0.9-0.7c-0.2-0.3-0.3-0.6-0.3-0.9h1.4c0,0.2,0.1,0.4,0.3,0.6
		c0.2,0.1,0.4,0.2,0.7,0.2c0.3,0,0.5-0.1,0.6-0.2c0.2-0.1,0.2-0.3,0.2-0.4c0-0.2-0.1-0.3-0.3-0.4c-0.2-0.1-0.5-0.2-0.9-0.3
		c-0.4-0.1-0.7-0.2-1-0.3c-0.3-0.1-0.5-0.3-0.7-0.5c-0.2-0.2-0.3-0.5-0.3-0.9c0-0.3,0.1-0.6,0.3-0.9s0.4-0.5,0.8-0.6
		c0.3-0.1,0.7-0.2,1.2-0.2c0.7,0,1.2,0.2,1.6,0.5c0.4,0.3,0.6,0.8,0.6,1.3h-1.3c0-0.2-0.1-0.4-0.3-0.6c-0.2-0.1-0.4-0.2-0.7-0.2
		c-0.3,0-0.4,0.1-0.6,0.2s-0.2,0.2-0.2,0.4c0,0.2,0.1,0.3,0.3,0.4c0.2,0.1,0.5,0.2,0.9,0.3c0.4,0.1,0.7,0.2,1,0.3s0.5,0.3,0.7,0.5
		s0.3,0.5,0.3,0.9c0,0.3-0.1,0.6-0.3,0.9c-0.2,0.3-0.4,0.5-0.8,0.6c-0.3,0.1-0.7,0.2-1.2,0.2C362.2,23,361.8,22.9,361.4,22.8z"/>
</g>
<line class="st8" x1="428.3" y1="16.9" x2="435.9" y2="24.5"/>
<line class="st8" x1="435.9" y1="16.9" x2="428.3" y2="24.5"/>
<path class="st9" d="M269.2,194.2h164.4c1.3,0,2.3,1.7,2.3,3.8v74.3c0,2.1-1,3.8-2.3,3.8H269.2c-1.3,0-2.3-1.7-2.3-3.8V198
	C266.9,195.9,267.9,194.2,269.2,194.2z"/>
<line class="st3" x1="270.9" y1="32.8" x2="307.4" y2="32.8"/>
<line class="st3" x1="277.6" y1="204.5" x2="314.1" y2="204.5"/>
<line class="st3" x1="324.8" y1="204.5" x2="395.4" y2="204.5"/>
<line class="st3" x1="277.1" y1="215.7" x2="347.7" y2="215.7"/>
<line class="st3" x1="357.7" y1="215.7" x2="410.7" y2="215.7"/>
<path class="st10" d="M271.2,56.7h160c2.1,0,3.8,1.7,3.8,3.8V72c0,2.1-1.7,3.8-3.8,3.8h-160c-2.1,0-3.8-1.7-3.8-3.8V60.5
	C267.5,58.4,269.2,56.7,271.2,56.7z"/>
<g class="st0">
	<path class="st2" d="M322.5,68.4h-2.3l-0.4,1.1h-1.2l2.1-5.8h1.4l2.1,5.8h-1.2L322.5,68.4z M322.2,67.5l-0.8-2.4l-0.8,2.4H322.2z"
		/>
	<path class="st2" d="M324.9,66c0.2-0.4,0.4-0.6,0.8-0.8c0.3-0.2,0.7-0.3,1.1-0.3c0.3,0,0.6,0.1,0.9,0.2c0.3,0.1,0.5,0.3,0.6,0.5
		v-2.2h1.2v6.1h-1.2v-0.7c-0.1,0.2-0.3,0.4-0.6,0.5s-0.6,0.2-0.9,0.2c-0.4,0-0.7-0.1-1.1-0.3c-0.3-0.2-0.6-0.5-0.8-0.8
		s-0.3-0.8-0.3-1.2C324.6,66.7,324.7,66.3,324.9,66z M328.1,66.5c-0.1-0.2-0.3-0.4-0.4-0.5c-0.2-0.1-0.4-0.2-0.6-0.2
		c-0.2,0-0.4,0.1-0.6,0.2s-0.3,0.3-0.4,0.5c-0.1,0.2-0.2,0.4-0.2,0.7c0,0.3,0.1,0.5,0.2,0.7c0.1,0.2,0.3,0.4,0.4,0.5
		c0.2,0.1,0.4,0.2,0.6,0.2c0.2,0,0.4-0.1,0.6-0.2c0.2-0.1,0.3-0.3,0.4-0.5c0.1-0.2,0.2-0.4,0.2-0.7S328.2,66.7,328.1,66.5z"/>
	<path class="st2" d="M332.5,68.4l1.2-3.5h1.2l-1.7,4.6h-1.4l-1.7-4.6h1.2L332.5,68.4z"/>
	<path class="st2" d="M335.6,64.2c-0.1-0.1-0.2-0.3-0.2-0.5c0-0.2,0.1-0.4,0.2-0.5c0.1-0.1,0.3-0.2,0.5-0.2c0.2,0,0.4,0.1,0.5,0.2
		c0.1,0.1,0.2,0.3,0.2,0.5c0,0.2-0.1,0.4-0.2,0.5s-0.3,0.2-0.5,0.2C335.9,64.4,335.7,64.3,335.6,64.2z M336.7,64.9v4.6h-1.2v-4.6
		H336.7z"/>
	<path class="st2" d="M337.8,66c0.2-0.4,0.5-0.6,0.8-0.8s0.7-0.3,1.2-0.3c0.6,0,1,0.1,1.4,0.4c0.4,0.3,0.6,0.7,0.8,1.2h-1.3
		c-0.1-0.2-0.2-0.4-0.3-0.5c-0.2-0.1-0.4-0.2-0.6-0.2c-0.3,0-0.6,0.1-0.8,0.4c-0.2,0.2-0.3,0.6-0.3,1c0,0.4,0.1,0.8,0.3,1
		c0.2,0.2,0.5,0.4,0.8,0.4c0.5,0,0.8-0.2,0.9-0.6h1.3c-0.1,0.5-0.4,0.9-0.8,1.2c-0.4,0.3-0.8,0.4-1.4,0.4c-0.4,0-0.8-0.1-1.2-0.3
		s-0.6-0.5-0.8-0.8c-0.2-0.4-0.3-0.8-0.3-1.2C337.5,66.7,337.6,66.3,337.8,66z"/>
	<path class="st2" d="M347.1,67.5h-3.4c0,0.3,0.1,0.6,0.3,0.8c0.2,0.2,0.5,0.3,0.8,0.3c0.4,0,0.7-0.2,0.9-0.6h1.3
		c-0.1,0.4-0.4,0.8-0.8,1.1c-0.4,0.3-0.8,0.4-1.4,0.4c-0.4,0-0.8-0.1-1.2-0.3s-0.6-0.5-0.8-0.8c-0.2-0.4-0.3-0.8-0.3-1.2
		c0-0.5,0.1-0.9,0.3-1.3c0.2-0.4,0.5-0.6,0.8-0.8c0.3-0.2,0.8-0.3,1.2-0.3c0.4,0,0.8,0.1,1.2,0.3s0.6,0.5,0.8,0.8
		c0.2,0.3,0.3,0.7,0.3,1.2C347.1,67.3,347.1,67.4,347.1,67.5z M345.9,66.8c0-0.3-0.1-0.6-0.3-0.8c-0.2-0.2-0.5-0.3-0.8-0.3
		c-0.3,0-0.5,0.1-0.7,0.3s-0.3,0.4-0.4,0.8H345.9z"/>
	<path class="st2" d="M351.1,69.4c-0.3-0.1-0.6-0.3-0.8-0.6c-0.2-0.3-0.3-0.6-0.3-0.9h1.2c0,0.2,0.1,0.4,0.3,0.6
		c0.2,0.1,0.4,0.2,0.6,0.2c0.3,0,0.5-0.1,0.6-0.2c0.2-0.1,0.2-0.3,0.2-0.5c0-0.2-0.1-0.3-0.2-0.4c-0.1-0.1-0.2-0.2-0.4-0.3
		c-0.2-0.1-0.4-0.1-0.7-0.2c-0.4-0.1-0.7-0.2-0.9-0.3c-0.2-0.1-0.4-0.3-0.6-0.5c-0.2-0.2-0.3-0.5-0.3-0.9c0-0.3,0.1-0.6,0.3-0.9
		c0.2-0.3,0.4-0.4,0.7-0.6s0.7-0.2,1.1-0.2c0.6,0,1.1,0.1,1.5,0.4c0.4,0.3,0.6,0.7,0.6,1.2h-1.3c0-0.2-0.1-0.4-0.3-0.5
		c-0.2-0.1-0.4-0.2-0.6-0.2c-0.2,0-0.4,0.1-0.5,0.2s-0.2,0.3-0.2,0.5c0,0.2,0.1,0.3,0.2,0.4s0.2,0.2,0.4,0.2s0.4,0.1,0.6,0.2
		c0.4,0.1,0.7,0.2,0.9,0.3c0.2,0.1,0.4,0.3,0.6,0.5c0.2,0.2,0.3,0.5,0.3,0.9c0,0.3-0.1,0.6-0.2,0.9c-0.2,0.3-0.4,0.5-0.7,0.6
		c-0.3,0.2-0.7,0.2-1.1,0.2C351.8,69.6,351.4,69.5,351.1,69.4z"/>
	<path class="st2" d="M359.6,64.9v4.6h-1.2v-0.6c-0.1,0.2-0.3,0.4-0.6,0.5c-0.2,0.1-0.5,0.2-0.8,0.2c-0.4,0-0.7-0.1-1-0.2
		s-0.5-0.4-0.7-0.7c-0.2-0.3-0.2-0.6-0.2-1.1v-2.7h1.2v2.5c0,0.4,0.1,0.6,0.3,0.8c0.2,0.2,0.4,0.3,0.7,0.3c0.3,0,0.6-0.1,0.8-0.3
		c0.2-0.2,0.3-0.5,0.3-0.8v-2.5H359.6z"/>
	<path class="st2" d="M360.8,64.2c-0.1-0.1-0.2-0.3-0.2-0.5c0-0.2,0.1-0.4,0.2-0.5c0.1-0.1,0.3-0.2,0.5-0.2c0.2,0,0.4,0.1,0.5,0.2
		c0.1,0.1,0.2,0.3,0.2,0.5c0,0.2-0.1,0.4-0.2,0.5s-0.3,0.2-0.5,0.2C361.1,64.4,360.9,64.3,360.8,64.2z M361.9,64.9v4.6h-1.2v-4.6
		H361.9z"/>
	<path class="st2" d="M364.4,65.9v2.2c0,0.2,0,0.3,0.1,0.3c0.1,0.1,0.2,0.1,0.4,0.1h0.5v1h-0.7c-1,0-1.5-0.5-1.5-1.4v-2.2h-0.5v-1
		h0.5v-1.1h1.2v1.1h1v1H364.4z"/>
	<path class="st2" d="M366.2,66c0.2-0.4,0.4-0.6,0.8-0.8c0.3-0.2,0.7-0.3,1.1-0.3c0.3,0,0.6,0.1,0.9,0.2c0.3,0.1,0.5,0.3,0.6,0.5
		v-0.7h1.2v4.6h-1.2v-0.7c-0.1,0.2-0.4,0.4-0.6,0.5c-0.3,0.1-0.6,0.2-0.9,0.2c-0.4,0-0.7-0.1-1.1-0.3s-0.6-0.5-0.8-0.8
		s-0.3-0.8-0.3-1.2C366,66.7,366,66.3,366.2,66z M369.4,66.5c-0.1-0.2-0.3-0.4-0.4-0.5c-0.2-0.1-0.4-0.2-0.6-0.2
		c-0.2,0-0.4,0.1-0.6,0.2s-0.3,0.3-0.4,0.5c-0.1,0.2-0.2,0.4-0.2,0.7c0,0.3,0.1,0.5,0.2,0.7c0.1,0.2,0.3,0.4,0.4,0.5
		c0.2,0.1,0.4,0.2,0.6,0.2c0.2,0,0.4-0.1,0.6-0.2c0.2-0.1,0.3-0.3,0.4-0.5c0.1-0.2,0.2-0.4,0.2-0.7S369.5,66.7,369.4,66.5z"/>
	<path class="st2" d="M373.7,65c0.3-0.1,0.6-0.2,0.9-0.2c0.4,0,0.7,0.1,1.1,0.3c0.3,0.2,0.6,0.5,0.8,0.8c0.2,0.4,0.3,0.8,0.3,1.2
		c0,0.5-0.1,0.9-0.3,1.2c-0.2,0.4-0.4,0.6-0.8,0.8s-0.7,0.3-1.1,0.3c-0.3,0-0.6-0.1-0.9-0.2c-0.3-0.1-0.5-0.3-0.6-0.5v0.7h-1.2v-6.1
		h1.2v2.2C373.2,65.4,373.4,65.2,373.7,65z M375.3,66.5c-0.1-0.2-0.3-0.4-0.4-0.5c-0.2-0.1-0.4-0.2-0.6-0.2c-0.2,0-0.4,0.1-0.6,0.2
		c-0.2,0.1-0.3,0.3-0.4,0.5c-0.1,0.2-0.2,0.4-0.2,0.7c0,0.3,0.1,0.5,0.2,0.7c0.1,0.2,0.3,0.4,0.4,0.5c0.2,0.1,0.4,0.2,0.6,0.2
		c0.2,0,0.4-0.1,0.6-0.2c0.2-0.1,0.3-0.3,0.4-0.5c0.1-0.2,0.2-0.4,0.2-0.7C375.5,66.9,375.4,66.7,375.3,66.5z"/>
	<path class="st2" d="M378.7,63.4v6.1h-1.2v-6.1H378.7z"/>
	<path class="st2" d="M384.1,67.5h-3.4c0,0.3,0.1,0.6,0.3,0.8c0.2,0.2,0.5,0.3,0.8,0.3c0.4,0,0.7-0.2,0.9-0.6h1.3
		c-0.1,0.4-0.4,0.8-0.8,1.1c-0.4,0.3-0.8,0.4-1.4,0.4c-0.4,0-0.8-0.1-1.2-0.3s-0.6-0.5-0.8-0.8c-0.2-0.4-0.3-0.8-0.3-1.2
		c0-0.5,0.1-0.9,0.3-1.3c0.2-0.4,0.5-0.6,0.8-0.8c0.3-0.2,0.7-0.3,1.2-0.3c0.4,0,0.8,0.1,1.2,0.3c0.3,0.2,0.6,0.5,0.8,0.8
		c0.2,0.3,0.3,0.7,0.3,1.2C384.1,67.3,384.1,67.4,384.1,67.5z M382.9,66.8c0-0.3-0.1-0.6-0.3-0.8c-0.2-0.2-0.5-0.3-0.8-0.3
		c-0.3,0-0.5,0.1-0.7,0.3s-0.3,0.4-0.4,0.8H382.9z"/>
</g>
<path class="st11" d="M271.2,79.8h160c2.1,0,3.8,1.7,3.8,3.8V95c0,2.1-1.7,3.8-3.8,3.8h-160c-2.1,0-3.8-1.7-3.8-3.8V83.5
	C267.5,81.5,269.2,79.8,271.2,79.8z"/>
<g class="st0">
	<path class="st2" d="M317.2,91.5h-2.3l-0.4,1.1h-1.2l2.1-5.8h1.4l2.1,5.8h-1.2L317.2,91.5z M316.9,90.6l-0.8-2.4l-0.8,2.4H316.9z"
		/>
	<path class="st2" d="M319.5,89c0.2-0.4,0.4-0.6,0.8-0.8c0.3-0.2,0.7-0.3,1.1-0.3c0.3,0,0.6,0.1,0.9,0.2c0.3,0.1,0.5,0.3,0.6,0.5
		v-2.2h1.2v6.1h-1.2v-0.7c-0.1,0.2-0.3,0.4-0.6,0.5s-0.6,0.2-0.9,0.2c-0.4,0-0.7-0.1-1.1-0.3c-0.3-0.2-0.6-0.5-0.8-0.8
		s-0.3-0.8-0.3-1.2C319.3,89.8,319.4,89.4,319.5,89z M322.7,89.5c-0.1-0.2-0.3-0.4-0.4-0.5c-0.2-0.1-0.4-0.2-0.6-0.2
		c-0.2,0-0.4,0.1-0.6,0.2s-0.3,0.3-0.4,0.5c-0.1,0.2-0.2,0.4-0.2,0.7c0,0.3,0.1,0.5,0.2,0.7c0.1,0.2,0.3,0.4,0.4,0.5
		c0.2,0.1,0.4,0.2,0.6,0.2c0.2,0,0.4-0.1,0.6-0.2c0.2-0.1,0.3-0.3,0.4-0.5c0.1-0.2,0.2-0.4,0.2-0.7S322.8,89.7,322.7,89.5z"/>
	<path class="st2" d="M327.1,91.5l1.2-3.5h1.2l-1.7,4.6h-1.4l-1.7-4.6h1.2L327.1,91.5z"/>
	<path class="st2" d="M330.2,87.2c-0.1-0.1-0.2-0.3-0.2-0.5c0-0.2,0.1-0.4,0.2-0.5c0.1-0.1,0.3-0.2,0.5-0.2c0.2,0,0.4,0.1,0.5,0.2
		c0.1,0.1,0.2,0.3,0.2,0.5c0,0.2-0.1,0.4-0.2,0.5s-0.3,0.2-0.5,0.2C330.5,87.4,330.4,87.4,330.2,87.2z M331.3,88v4.6h-1.2V88H331.3z
		"/>
	<path class="st2" d="M332.5,89c0.2-0.4,0.5-0.6,0.8-0.8s0.7-0.3,1.2-0.3c0.6,0,1,0.1,1.4,0.4c0.4,0.3,0.6,0.7,0.8,1.2h-1.3
		c-0.1-0.2-0.2-0.4-0.3-0.5c-0.2-0.1-0.4-0.2-0.6-0.2c-0.3,0-0.6,0.1-0.8,0.4c-0.2,0.2-0.3,0.6-0.3,1c0,0.4,0.1,0.8,0.3,1
		c0.2,0.2,0.5,0.4,0.8,0.4c0.5,0,0.8-0.2,0.9-0.6h1.3c-0.1,0.5-0.4,0.9-0.8,1.2c-0.4,0.3-0.8,0.4-1.4,0.4c-0.4,0-0.8-0.1-1.2-0.3
		s-0.6-0.5-0.8-0.8c-0.2-0.4-0.3-0.8-0.3-1.2C332.2,89.8,332.3,89.4,332.5,89z"/>
	<path class="st2" d="M341.7,90.6h-3.4c0,0.3,0.1,0.6,0.3,0.8c0.2,0.2,0.5,0.3,0.8,0.3c0.4,0,0.7-0.2,0.9-0.6h1.3
		c-0.1,0.4-0.4,0.8-0.8,1.1c-0.4,0.3-0.8,0.4-1.4,0.4c-0.4,0-0.8-0.1-1.2-0.3s-0.6-0.5-0.8-0.8c-0.2-0.4-0.3-0.8-0.3-1.2
		c0-0.5,0.1-0.9,0.3-1.3c0.2-0.4,0.5-0.6,0.8-0.8c0.3-0.2,0.8-0.3,1.2-0.3c0.4,0,0.8,0.1,1.2,0.3s0.6,0.5,0.8,0.8
		c0.2,0.3,0.3,0.7,0.3,1.2C341.7,90.3,341.7,90.5,341.7,90.6z M340.5,89.9c0-0.3-0.1-0.6-0.3-0.8c-0.2-0.2-0.5-0.3-0.8-0.3
		c-0.3,0-0.5,0.1-0.7,0.3s-0.3,0.4-0.4,0.8H340.5z"/>
	<path class="st2" d="M346,86.8v3.6c0,0.4,0.1,0.7,0.3,0.9c0.2,0.2,0.5,0.3,0.9,0.3c0.4,0,0.7-0.1,0.9-0.3c0.2-0.2,0.3-0.5,0.3-0.9
		v-3.6h1.2v3.6c0,0.5-0.1,0.9-0.3,1.2c-0.2,0.3-0.5,0.6-0.9,0.8c-0.4,0.2-0.8,0.3-1.2,0.3c-0.4,0-0.8-0.1-1.2-0.3s-0.6-0.4-0.8-0.8
		c-0.2-0.3-0.3-0.8-0.3-1.2v-3.6H346z"/>
	<path class="st2" d="M354.5,88.4c0.3,0.3,0.5,0.8,0.5,1.4v2.7h-1.2V90c0-0.4-0.1-0.6-0.3-0.8s-0.4-0.3-0.7-0.3
		c-0.3,0-0.6,0.1-0.8,0.3s-0.3,0.5-0.3,0.8v2.5h-1.2V88h1.2v0.6c0.2-0.2,0.4-0.4,0.6-0.5c0.2-0.1,0.5-0.2,0.8-0.2
		C353.7,87.9,354.1,88.1,354.5,88.4z"/>
	<path class="st2" d="M356.8,92.4c-0.3-0.1-0.5-0.3-0.7-0.6c-0.2-0.2-0.3-0.5-0.3-0.8h1.2c0,0.2,0.1,0.3,0.3,0.5s0.3,0.2,0.6,0.2
		c0.2,0,0.4,0,0.5-0.1c0.1-0.1,0.2-0.2,0.2-0.4c0-0.1-0.1-0.3-0.2-0.3c-0.2-0.1-0.4-0.2-0.7-0.2s-0.6-0.2-0.8-0.3s-0.4-0.2-0.6-0.4
		c-0.2-0.2-0.2-0.4-0.2-0.7c0-0.3,0.1-0.5,0.2-0.7c0.1-0.2,0.3-0.4,0.6-0.5c0.3-0.1,0.6-0.2,1-0.2c0.5,0,1,0.1,1.3,0.4
		c0.3,0.3,0.5,0.6,0.5,1.1h-1.1c0-0.2-0.1-0.3-0.2-0.5s-0.3-0.2-0.5-0.2c-0.2,0-0.4,0-0.5,0.1s-0.2,0.2-0.2,0.4
		c0,0.2,0.1,0.3,0.2,0.4c0.2,0.1,0.4,0.2,0.7,0.2c0.3,0.1,0.6,0.2,0.8,0.3c0.2,0.1,0.4,0.2,0.6,0.4c0.2,0.2,0.2,0.4,0.2,0.7
		c0,0.3-0.1,0.5-0.2,0.7c-0.1,0.2-0.4,0.4-0.6,0.5c-0.3,0.1-0.6,0.2-1,0.2C357.5,92.6,357.1,92.6,356.8,92.4z"/>
	<path class="st2" d="M364.9,88v4.6h-1.2V92c-0.1,0.2-0.3,0.4-0.6,0.5c-0.2,0.1-0.5,0.2-0.8,0.2c-0.4,0-0.7-0.1-1-0.2
		s-0.5-0.4-0.7-0.7c-0.2-0.3-0.2-0.6-0.2-1.1V88h1.2v2.5c0,0.4,0.1,0.6,0.3,0.8c0.2,0.2,0.4,0.3,0.7,0.3c0.3,0,0.6-0.1,0.8-0.3
		c0.2-0.2,0.3-0.5,0.3-0.8V88H364.9z"/>
	<path class="st2" d="M366.2,87.2c-0.1-0.1-0.2-0.3-0.2-0.5c0-0.2,0.1-0.4,0.2-0.5c0.1-0.1,0.3-0.2,0.5-0.2c0.2,0,0.4,0.1,0.5,0.2
		c0.1,0.1,0.2,0.3,0.2,0.5c0,0.2-0.1,0.4-0.2,0.5s-0.3,0.2-0.5,0.2C366.5,87.4,366.3,87.4,366.2,87.2z M367.3,88v4.6h-1.2V88H367.3z
		"/>
	<path class="st2" d="M369.8,88.9v2.2c0,0.2,0,0.3,0.1,0.3c0.1,0.1,0.2,0.1,0.4,0.1h0.5v1h-0.7c-1,0-1.5-0.5-1.5-1.4v-2.2H368v-1
		h0.5v-1.1h1.2V88h1v1H369.8z"/>
	<path class="st2" d="M371.6,89c0.2-0.4,0.4-0.6,0.8-0.8c0.3-0.2,0.7-0.3,1.1-0.3c0.3,0,0.6,0.1,0.9,0.2c0.3,0.1,0.5,0.3,0.6,0.5V88
		h1.2v4.6h-1.2v-0.7c-0.1,0.2-0.4,0.4-0.6,0.5c-0.3,0.1-0.6,0.2-0.9,0.2c-0.4,0-0.7-0.1-1.1-0.3s-0.6-0.5-0.8-0.8s-0.3-0.8-0.3-1.2
		C371.3,89.8,371.4,89.4,371.6,89z M374.8,89.5c-0.1-0.2-0.3-0.4-0.4-0.5c-0.2-0.1-0.4-0.2-0.6-0.2c-0.2,0-0.4,0.1-0.6,0.2
		s-0.3,0.3-0.4,0.5c-0.1,0.2-0.2,0.4-0.2,0.7c0,0.3,0.1,0.5,0.2,0.7c0.1,0.2,0.3,0.4,0.4,0.5c0.2,0.1,0.4,0.2,0.6,0.2
		c0.2,0,0.4-0.1,0.6-0.2c0.2-0.1,0.3-0.3,0.4-0.5c0.1-0.2,0.2-0.4,0.2-0.7S374.9,89.7,374.8,89.5z"/>
	<path class="st2" d="M379,88.1c0.3-0.1,0.6-0.2,0.9-0.2c0.4,0,0.7,0.1,1.1,0.3c0.3,0.2,0.6,0.5,0.8,0.8c0.2,0.4,0.3,0.8,0.3,1.2
		c0,0.5-0.1,0.9-0.3,1.2c-0.2,0.4-0.4,0.6-0.8,0.8s-0.7,0.3-1.1,0.3c-0.3,0-0.6-0.1-0.9-0.2c-0.3-0.1-0.5-0.3-0.6-0.5v0.7h-1.2v-6.1
		h1.2v2.2C378.6,88.4,378.8,88.2,379,88.1z M380.7,89.5c-0.1-0.2-0.3-0.4-0.4-0.5c-0.2-0.1-0.4-0.2-0.6-0.2c-0.2,0-0.4,0.1-0.6,0.2
		c-0.2,0.1-0.3,0.3-0.4,0.5c-0.1,0.2-0.2,0.4-0.2,0.7c0,0.3,0.1,0.5,0.2,0.7c0.1,0.2,0.3,0.4,0.4,0.5c0.2,0.1,0.4,0.2,0.6,0.2
		c0.2,0,0.4-0.1,0.6-0.2c0.2-0.1,0.3-0.3,0.4-0.5c0.1-0.2,0.2-0.4,0.2-0.7C380.8,90,380.8,89.7,380.7,89.5z"/>
	<path class="st2" d="M384,86.4v6.1h-1.2v-6.1H384z"/>
	<path class="st2" d="M389.4,90.6h-3.4c0,0.3,0.1,0.6,0.3,0.8c0.2,0.2,0.5,0.3,0.8,0.3c0.4,0,0.7-0.2,0.9-0.6h1.3
		c-0.1,0.4-0.4,0.8-0.8,1.1c-0.4,0.3-0.8,0.4-1.4,0.4c-0.4,0-0.8-0.1-1.2-0.3s-0.6-0.5-0.8-0.8c-0.2-0.4-0.3-0.8-0.3-1.2
		c0-0.5,0.1-0.9,0.3-1.3c0.2-0.4,0.5-0.6,0.8-0.8c0.3-0.2,0.8-0.3,1.2-0.3c0.4,0,0.8,0.1,1.2,0.3s0.6,0.5,0.8,0.8
		c0.2,0.3,0.3,0.7,0.3,1.2C389.5,90.3,389.4,90.5,389.4,90.6z M388.3,89.9c0-0.3-0.1-0.6-0.3-0.8c-0.2-0.2-0.5-0.3-0.8-0.3
		c-0.3,0-0.5,0.1-0.7,0.3s-0.3,0.4-0.4,0.8H388.3z"/>
</g>
<path class="st12" d="M271.2,102.8h160c2.1,0,3.8,1.7,3.8,3.8v11.5c0,2.1-1.7,3.8-3.8,3.8h-160c-2.1,0-3.8-1.7-3.8-3.8v-11.5
	C267.5,104.5,269.2,102.8,271.2,102.8z"/>
<g class="st0">
	<path class="st2" d="M323.6,114.5h-2.3l-0.4,1.1h-1.2l2.1-5.8h1.4l2.1,5.8H324L323.6,114.5z M323.3,113.6l-0.8-2.4l-0.8,2.4H323.3z
		"/>
	<path class="st2" d="M326,112.1c0.2-0.4,0.4-0.6,0.8-0.8c0.3-0.2,0.7-0.3,1.1-0.3c0.3,0,0.6,0.1,0.9,0.2c0.3,0.1,0.5,0.3,0.6,0.5
		v-2.2h1.2v6.1h-1.2v-0.7c-0.1,0.2-0.3,0.4-0.6,0.5s-0.6,0.2-0.9,0.2c-0.4,0-0.7-0.1-1.1-0.3c-0.3-0.2-0.6-0.5-0.8-0.8
		s-0.3-0.8-0.3-1.2C325.7,112.8,325.8,112.4,326,112.1z M329.1,112.6c-0.1-0.2-0.3-0.4-0.4-0.5c-0.2-0.1-0.4-0.2-0.6-0.2
		c-0.2,0-0.4,0.1-0.6,0.2s-0.3,0.3-0.4,0.5c-0.1,0.2-0.2,0.4-0.2,0.7c0,0.3,0.1,0.5,0.2,0.7c0.1,0.2,0.3,0.4,0.4,0.5
		c0.2,0.1,0.4,0.2,0.6,0.2c0.2,0,0.4-0.1,0.6-0.2c0.2-0.1,0.3-0.3,0.4-0.5c0.1-0.2,0.2-0.4,0.2-0.7S329.2,112.8,329.1,112.6z"/>
	<path class="st2" d="M333.5,114.5l1.2-3.5h1.2l-1.7,4.6h-1.4l-1.7-4.6h1.2L333.5,114.5z"/>
	<path class="st2" d="M336.7,110.3c-0.1-0.1-0.2-0.3-0.2-0.5c0-0.2,0.1-0.4,0.2-0.5c0.1-0.1,0.3-0.2,0.5-0.2c0.2,0,0.4,0.1,0.5,0.2
		c0.1,0.1,0.2,0.3,0.2,0.5c0,0.2-0.1,0.4-0.2,0.5s-0.3,0.2-0.5,0.2C337,110.5,336.8,110.4,336.7,110.3z M337.7,111v4.6h-1.2V111
		H337.7z"/>
	<path class="st2" d="M338.9,112.1c0.2-0.4,0.5-0.6,0.8-0.8s0.7-0.3,1.2-0.3c0.6,0,1,0.1,1.4,0.4c0.4,0.3,0.6,0.7,0.8,1.2h-1.3
		c-0.1-0.2-0.2-0.4-0.3-0.5c-0.2-0.1-0.4-0.2-0.6-0.2c-0.3,0-0.6,0.1-0.8,0.4c-0.2,0.2-0.3,0.6-0.3,1c0,0.4,0.1,0.8,0.3,1
		c0.2,0.2,0.5,0.4,0.8,0.4c0.5,0,0.8-0.2,0.9-0.6h1.3c-0.1,0.5-0.4,0.9-0.8,1.2c-0.4,0.3-0.8,0.4-1.4,0.4c-0.4,0-0.8-0.1-1.2-0.3
		s-0.6-0.5-0.8-0.8c-0.2-0.4-0.3-0.8-0.3-1.2C338.6,112.8,338.7,112.4,338.9,112.1z"/>
	<path class="st2" d="M348.1,113.6h-3.4c0,0.3,0.1,0.6,0.3,0.8c0.2,0.2,0.5,0.3,0.8,0.3c0.4,0,0.7-0.2,0.9-0.6h1.3
		c-0.1,0.4-0.4,0.8-0.8,1.1c-0.4,0.3-0.8,0.4-1.4,0.4c-0.4,0-0.8-0.1-1.2-0.3s-0.6-0.5-0.8-0.8c-0.2-0.4-0.3-0.8-0.3-1.2
		c0-0.5,0.1-0.9,0.3-1.3c0.2-0.4,0.5-0.6,0.8-0.8c0.3-0.2,0.8-0.3,1.2-0.3c0.4,0,0.8,0.1,1.2,0.3s0.6,0.5,0.8,0.8
		c0.2,0.3,0.3,0.7,0.3,1.2C348.2,113.4,348.1,113.5,348.1,113.6z M346.9,112.9c0-0.3-0.1-0.6-0.3-0.8c-0.2-0.2-0.5-0.3-0.8-0.3
		c-0.3,0-0.5,0.1-0.7,0.3s-0.3,0.4-0.4,0.8H346.9z"/>
	<path class="st2" d="M352.4,109.8v3.6c0,0.4,0.1,0.7,0.3,0.9c0.2,0.2,0.5,0.3,0.9,0.3c0.4,0,0.7-0.1,0.9-0.3
		c0.2-0.2,0.3-0.5,0.3-0.9v-3.6h1.2v3.6c0,0.5-0.1,0.9-0.3,1.2c-0.2,0.3-0.5,0.6-0.9,0.8c-0.4,0.2-0.8,0.3-1.2,0.3
		c-0.4,0-0.8-0.1-1.2-0.3s-0.6-0.4-0.8-0.8c-0.2-0.3-0.3-0.8-0.3-1.2v-3.6H352.4z"/>
	<path class="st2" d="M360.9,111.5c0.3,0.3,0.5,0.8,0.5,1.4v2.7h-1.2v-2.5c0-0.4-0.1-0.6-0.3-0.8s-0.4-0.3-0.7-0.3
		c-0.3,0-0.6,0.1-0.8,0.3s-0.3,0.5-0.3,0.8v2.5H357V111h1.2v0.6c0.2-0.2,0.4-0.4,0.6-0.5c0.2-0.1,0.5-0.2,0.8-0.2
		C360.1,111,360.5,111.1,360.9,111.5z"/>
	<path class="st2" d="M362.5,112.1c0.2-0.4,0.5-0.6,0.8-0.8s0.7-0.3,1.2-0.3c0.6,0,1,0.1,1.4,0.4c0.4,0.3,0.6,0.7,0.8,1.2h-1.3
		c-0.1-0.2-0.2-0.4-0.3-0.5c-0.2-0.1-0.4-0.2-0.6-0.2c-0.3,0-0.6,0.1-0.8,0.4c-0.2,0.2-0.3,0.6-0.3,1c0,0.4,0.1,0.8,0.3,1
		c0.2,0.2,0.5,0.4,0.8,0.4c0.5,0,0.8-0.2,0.9-0.6h1.3c-0.1,0.5-0.4,0.9-0.8,1.2c-0.4,0.3-0.8,0.4-1.4,0.4c-0.4,0-0.8-0.1-1.2-0.3
		s-0.6-0.5-0.8-0.8c-0.2-0.4-0.3-0.8-0.3-1.2C362.2,112.8,362.3,112.4,362.5,112.1z"/>
	<path class="st2" d="M368.7,109.5v6.1h-1.2v-6.1H368.7z"/>
	<path class="st2" d="M374,113.6h-3.4c0,0.3,0.1,0.6,0.3,0.8c0.2,0.2,0.5,0.3,0.8,0.3c0.4,0,0.7-0.2,0.9-0.6h1.3
		c-0.1,0.4-0.4,0.8-0.8,1.1c-0.4,0.3-0.8,0.4-1.4,0.4c-0.4,0-0.8-0.1-1.2-0.3s-0.6-0.5-0.8-0.8c-0.2-0.4-0.3-0.8-0.3-1.2
		c0-0.5,0.1-0.9,0.3-1.3c0.2-0.4,0.5-0.6,0.8-0.8c0.3-0.2,0.7-0.3,1.2-0.3c0.4,0,0.8,0.1,1.2,0.3c0.3,0.2,0.6,0.5,0.8,0.8
		c0.2,0.3,0.3,0.7,0.3,1.2C374.1,113.4,374.1,113.5,374,113.6z M372.9,112.9c0-0.3-0.1-0.6-0.3-0.8c-0.2-0.2-0.5-0.3-0.8-0.3
		c-0.3,0-0.5,0.1-0.7,0.3s-0.3,0.4-0.4,0.8H372.9z"/>
	<path class="st2" d="M374.9,112.1c0.2-0.4,0.4-0.6,0.8-0.8c0.3-0.2,0.7-0.3,1.1-0.3c0.3,0,0.6,0.1,0.9,0.2c0.3,0.1,0.5,0.3,0.6,0.5
		V111h1.2v4.6h-1.2v-0.7c-0.1,0.2-0.4,0.4-0.6,0.5c-0.3,0.1-0.6,0.2-0.9,0.2c-0.4,0-0.7-0.1-1.1-0.3s-0.6-0.5-0.8-0.8
		s-0.3-0.8-0.3-1.2C374.6,112.8,374.7,112.4,374.9,112.1z M378.1,112.6c-0.1-0.2-0.3-0.4-0.4-0.5c-0.2-0.1-0.4-0.2-0.6-0.2
		c-0.2,0-0.4,0.1-0.6,0.2s-0.3,0.3-0.4,0.5c-0.1,0.2-0.2,0.4-0.2,0.7c0,0.3,0.1,0.5,0.2,0.7c0.1,0.2,0.3,0.4,0.4,0.5
		c0.2,0.1,0.4,0.2,0.6,0.2c0.2,0,0.4-0.1,0.6-0.2c0.2-0.1,0.3-0.3,0.4-0.5c0.1-0.2,0.2-0.4,0.2-0.7S378.2,112.8,378.1,112.6z"/>
	<path class="st2" d="M382.3,111.2c0.2-0.2,0.5-0.2,0.8-0.2v1.2h-0.3c-0.4,0-0.6,0.1-0.8,0.3c-0.2,0.2-0.3,0.5-0.3,0.9v2.3h-1.2V111
		h1.2v0.8C381.9,111.6,382.1,111.3,382.3,111.2z"/>
</g>
<path class="st1" d="M271.2,126.8h160c2.1,0,3.8,1.7,3.8,3.8V142c0,2.1-1.7,3.8-3.8,3.8h-160c-2.1,0-3.8-1.7-3.8-3.8v-11.5
	C267.5,128.5,269.2,126.8,271.2,126.8z"/>
<g class="st0">
	<path class="st2" d="M305.8,134.1c0.5,0.2,0.8,0.6,1.1,1c0.3,0.4,0.4,1,0.4,1.5s-0.1,1.1-0.4,1.5c-0.3,0.4-0.6,0.8-1.1,1
		c-0.5,0.2-1,0.4-1.6,0.4h-2v-5.8h2C304.8,133.8,305.4,133.9,305.8,134.1z M305.6,138.1c0.3-0.3,0.5-0.8,0.5-1.4
		c0-0.6-0.2-1.1-0.5-1.4s-0.8-0.5-1.4-0.5h-0.8v3.9h0.8C304.8,138.6,305.3,138.4,305.6,138.1z"/>
	<path class="st2" d="M309,139.3c-0.4-0.2-0.6-0.5-0.8-0.8c-0.2-0.4-0.3-0.8-0.3-1.2c0-0.5,0.1-0.9,0.3-1.2c0.2-0.4,0.5-0.6,0.9-0.8
		s0.8-0.3,1.2-0.3c0.4,0,0.8,0.1,1.2,0.3c0.4,0.2,0.6,0.5,0.9,0.8c0.2,0.4,0.3,0.8,0.3,1.2c0,0.5-0.1,0.9-0.3,1.2
		c-0.2,0.4-0.5,0.6-0.9,0.8c-0.4,0.2-0.8,0.3-1.2,0.3C309.8,139.6,309.4,139.5,309,139.3z M310.8,138.5c0.2-0.1,0.3-0.3,0.4-0.5
		c0.1-0.2,0.2-0.5,0.2-0.8c0-0.3-0.1-0.5-0.2-0.8c-0.1-0.2-0.3-0.4-0.4-0.5c-0.2-0.1-0.4-0.2-0.6-0.2c-0.3,0-0.6,0.1-0.8,0.4
		c-0.2,0.2-0.3,0.6-0.3,1c0,0.4,0.1,0.8,0.3,1c0.2,0.2,0.5,0.4,0.8,0.4C310.4,138.6,310.6,138.6,310.8,138.5z"/>
	<path class="st2" d="M313.5,136c0.2-0.4,0.5-0.6,0.8-0.8c0.3-0.2,0.7-0.3,1.2-0.3c0.6,0,1,0.1,1.4,0.4c0.4,0.3,0.6,0.7,0.8,1.2
		h-1.3c-0.1-0.2-0.2-0.4-0.3-0.5c-0.2-0.1-0.4-0.2-0.6-0.2c-0.3,0-0.6,0.1-0.8,0.4c-0.2,0.2-0.3,0.6-0.3,1c0,0.4,0.1,0.8,0.3,1
		c0.2,0.2,0.5,0.4,0.8,0.4c0.5,0,0.8-0.2,0.9-0.6h1.3c-0.1,0.5-0.4,0.9-0.8,1.2c-0.4,0.3-0.8,0.4-1.4,0.4c-0.4,0-0.8-0.1-1.2-0.3
		c-0.3-0.2-0.6-0.5-0.8-0.8c-0.2-0.4-0.3-0.8-0.3-1.2C313.2,136.8,313.3,136.4,313.5,136z"/>
	<path class="st2" d="M322.8,135v4.6h-1.2V139c-0.1,0.2-0.3,0.4-0.6,0.5c-0.2,0.1-0.5,0.2-0.8,0.2c-0.4,0-0.7-0.1-1-0.2
		s-0.5-0.4-0.7-0.7c-0.2-0.3-0.2-0.6-0.2-1.1V135h1.2v2.5c0,0.4,0.1,0.6,0.3,0.8c0.2,0.2,0.4,0.3,0.7,0.3c0.3,0,0.6-0.1,0.8-0.3
		c0.2-0.2,0.3-0.5,0.3-0.8V135H322.8z"/>
	<path class="st2" d="M331,135.4c0.3,0.3,0.5,0.8,0.5,1.4v2.7h-1.2V137c0-0.4-0.1-0.6-0.3-0.8c-0.2-0.2-0.4-0.3-0.7-0.3
		s-0.6,0.1-0.8,0.3c-0.2,0.2-0.3,0.5-0.3,0.8v2.5h-1.2V137c0-0.4-0.1-0.6-0.3-0.8c-0.2-0.2-0.4-0.3-0.7-0.3c-0.3,0-0.6,0.1-0.8,0.3
		c-0.2,0.2-0.3,0.5-0.3,0.8v2.5h-1.2V135h1.2v0.6c0.1-0.2,0.3-0.3,0.6-0.5c0.2-0.1,0.5-0.2,0.8-0.2c0.4,0,0.7,0.1,1,0.2
		s0.5,0.4,0.7,0.7c0.1-0.3,0.4-0.5,0.7-0.6s0.6-0.2,0.9-0.2C330.2,134.9,330.7,135.1,331,135.4z"/>
	<path class="st2" d="M336.9,137.6h-3.4c0,0.3,0.1,0.6,0.3,0.8c0.2,0.2,0.5,0.3,0.8,0.3c0.4,0,0.7-0.2,0.9-0.6h1.3
		c-0.1,0.4-0.4,0.8-0.8,1.1c-0.4,0.3-0.8,0.4-1.4,0.4c-0.4,0-0.8-0.1-1.2-0.3s-0.6-0.5-0.8-0.8c-0.2-0.4-0.3-0.8-0.3-1.2
		c0-0.5,0.1-0.9,0.3-1.3c0.2-0.4,0.5-0.6,0.8-0.8c0.3-0.2,0.7-0.3,1.2-0.3c0.4,0,0.8,0.1,1.2,0.3c0.3,0.2,0.6,0.5,0.8,0.8
		c0.2,0.3,0.3,0.7,0.3,1.2C336.9,137.3,336.9,137.5,336.9,137.6z M335.7,136.9c0-0.3-0.1-0.6-0.3-0.8c-0.2-0.2-0.5-0.3-0.8-0.3
		c-0.3,0-0.5,0.1-0.7,0.3s-0.3,0.4-0.4,0.8H335.7z"/>
	<path class="st2" d="M341.6,135.4c0.3,0.3,0.5,0.8,0.5,1.4v2.7H341V137c0-0.4-0.1-0.6-0.3-0.8s-0.4-0.3-0.7-0.3
		c-0.3,0-0.6,0.1-0.8,0.3s-0.3,0.5-0.3,0.8v2.5h-1.2V135h1.2v0.6c0.2-0.2,0.4-0.4,0.6-0.5c0.2-0.1,0.5-0.2,0.8-0.2
		C340.9,134.9,341.3,135.1,341.6,135.4z"/>
	<path class="st2" d="M344.6,135.9v2.2c0,0.2,0,0.3,0.1,0.3c0.1,0.1,0.2,0.1,0.4,0.1h0.5v1h-0.7c-1,0-1.5-0.5-1.5-1.4v-2.2h-0.5v-1
		h0.5v-1.1h1.2v1.1h1v1H344.6z"/>
	<path class="st2" d="M347.2,139.4c-0.3-0.1-0.5-0.3-0.7-0.6c-0.2-0.2-0.3-0.5-0.3-0.8h1.2c0,0.2,0.1,0.3,0.3,0.5s0.3,0.2,0.6,0.2
		c0.2,0,0.4,0,0.5-0.1c0.1-0.1,0.2-0.2,0.2-0.4c0-0.1-0.1-0.3-0.2-0.3c-0.2-0.1-0.4-0.2-0.7-0.2c-0.3-0.1-0.6-0.2-0.8-0.3
		s-0.4-0.2-0.6-0.4s-0.2-0.4-0.2-0.7c0-0.3,0.1-0.5,0.2-0.7c0.1-0.2,0.3-0.4,0.6-0.5c0.3-0.1,0.6-0.2,1-0.2c0.5,0,1,0.1,1.3,0.4
		c0.3,0.3,0.5,0.6,0.5,1.1h-1.1c0-0.2-0.1-0.3-0.2-0.5s-0.3-0.2-0.5-0.2c-0.2,0-0.4,0-0.5,0.1s-0.2,0.2-0.2,0.4
		c0,0.2,0.1,0.3,0.2,0.4s0.4,0.2,0.7,0.2c0.3,0.1,0.6,0.2,0.8,0.3c0.2,0.1,0.4,0.2,0.6,0.4c0.2,0.2,0.2,0.4,0.2,0.7
		c0,0.3-0.1,0.5-0.2,0.7c-0.1,0.2-0.4,0.4-0.6,0.5c-0.3,0.1-0.6,0.2-1,0.2C347.8,139.6,347.5,139.6,347.2,139.4z"/>
	<path class="st2" d="M353.3,135.1c0.3-0.5,0.6-0.8,1.1-1.1s0.9-0.4,1.5-0.4c0.6,0,1.2,0.2,1.7,0.5c0.5,0.3,0.8,0.8,1,1.4h-1.3
		c-0.1-0.3-0.3-0.5-0.6-0.6c-0.2-0.1-0.5-0.2-0.8-0.2c-0.3,0-0.6,0.1-0.9,0.2c-0.3,0.2-0.5,0.4-0.6,0.7c-0.1,0.3-0.2,0.6-0.2,1
		c0,0.4,0.1,0.7,0.2,1s0.4,0.5,0.6,0.7c0.3,0.2,0.6,0.2,0.9,0.2c0.3,0,0.6-0.1,0.8-0.2c0.2-0.1,0.4-0.3,0.6-0.6h1.3
		c-0.2,0.6-0.5,1.1-1,1.4s-1.1,0.5-1.7,0.5c-0.6,0-1.1-0.1-1.5-0.4c-0.4-0.3-0.8-0.6-1.1-1c-0.3-0.4-0.4-1-0.4-1.5
		C352.9,136.1,353.1,135.6,353.3,135.1z"/>
	<path class="st2" d="M363.1,135.1c0.3,0.2,0.5,0.4,0.6,0.7c0.2,0.3,0.2,0.7,0.2,1.1v2.7h-1.2V137c0-0.4-0.1-0.6-0.3-0.8
		s-0.4-0.3-0.7-0.3c-0.3,0-0.6,0.1-0.8,0.3s-0.3,0.5-0.3,0.8v2.5h-1.2v-6.1h1.2v2.1c0.1-0.2,0.3-0.4,0.6-0.5s0.5-0.2,0.8-0.2
		C362.5,134.9,362.8,135,363.1,135.1z"/>
	<path class="st2" d="M369.3,137.6H366c0,0.3,0.1,0.6,0.3,0.8c0.2,0.2,0.5,0.3,0.8,0.3c0.4,0,0.7-0.2,0.9-0.6h1.3
		c-0.1,0.4-0.4,0.8-0.8,1.1c-0.4,0.3-0.8,0.4-1.4,0.4c-0.4,0-0.8-0.1-1.2-0.3s-0.6-0.5-0.8-0.8c-0.2-0.4-0.3-0.8-0.3-1.2
		c0-0.5,0.1-0.9,0.3-1.3c0.2-0.4,0.5-0.6,0.8-0.8c0.3-0.2,0.8-0.3,1.2-0.3c0.4,0,0.8,0.1,1.2,0.3s0.6,0.5,0.8,0.8
		c0.2,0.3,0.3,0.7,0.3,1.2C369.4,137.3,369.3,137.5,369.3,137.6z M368.1,136.9c0-0.3-0.1-0.6-0.3-0.8c-0.2-0.2-0.5-0.3-0.8-0.3
		c-0.3,0-0.5,0.1-0.7,0.3s-0.3,0.4-0.4,0.8H368.1z"/>
	<path class="st2" d="M370.2,136c0.2-0.4,0.5-0.6,0.8-0.8c0.3-0.2,0.7-0.3,1.2-0.3c0.6,0,1,0.1,1.4,0.4c0.4,0.3,0.6,0.7,0.8,1.2
		h-1.3c-0.1-0.2-0.2-0.4-0.3-0.5c-0.2-0.1-0.4-0.2-0.6-0.2c-0.3,0-0.6,0.1-0.8,0.4c-0.2,0.2-0.3,0.6-0.3,1c0,0.4,0.1,0.8,0.3,1
		c0.2,0.2,0.5,0.4,0.8,0.4c0.5,0,0.8-0.2,0.9-0.6h1.3c-0.1,0.5-0.4,0.9-0.8,1.2c-0.4,0.3-0.8,0.4-1.4,0.4c-0.4,0-0.8-0.1-1.2-0.3
		c-0.3-0.2-0.6-0.5-0.8-0.8c-0.2-0.4-0.3-0.8-0.3-1.2C369.9,136.8,370,136.4,370.2,136z"/>
	<path class="st2" d="M377.9,139.6l-1.6-2v2h-1.2v-6.1h1.2v3.5l1.5-2h1.5l-2,2.3l2,2.3H377.9z"/>
	<path class="st2" d="M386.3,136.4c-0.1,0.3-0.4,0.5-0.7,0.7c-0.3,0.2-0.7,0.2-1.2,0.2h-1v2.2h-1.2v-5.8h2.1c0.4,0,0.8,0.1,1.1,0.2
		c0.3,0.2,0.6,0.4,0.7,0.6c0.2,0.3,0.2,0.6,0.2,0.9C386.5,135.9,386.4,136.2,386.3,136.4z M385.1,136.2c0.2-0.2,0.2-0.4,0.2-0.6
		c0-0.3-0.1-0.5-0.2-0.6c-0.2-0.2-0.4-0.2-0.7-0.2h-0.9v1.7h0.9C384.7,136.4,384.9,136.3,385.1,136.2z"/>
	<path class="st2" d="M387.3,136c0.2-0.4,0.4-0.6,0.8-0.8c0.3-0.2,0.7-0.3,1.1-0.3c0.3,0,0.6,0.1,0.9,0.2c0.3,0.1,0.5,0.3,0.6,0.5
		V135h1.2v4.6h-1.2v-0.7c-0.1,0.2-0.4,0.4-0.6,0.5c-0.3,0.1-0.6,0.2-0.9,0.2c-0.4,0-0.7-0.1-1.1-0.3s-0.6-0.5-0.8-0.8
		c-0.2-0.4-0.3-0.8-0.3-1.2C387,136.8,387.1,136.4,387.3,136z M390.5,136.5c-0.1-0.2-0.3-0.4-0.4-0.5c-0.2-0.1-0.4-0.2-0.6-0.2
		s-0.4,0.1-0.6,0.2s-0.3,0.3-0.4,0.5c-0.1,0.2-0.2,0.4-0.2,0.7c0,0.3,0.1,0.5,0.2,0.7c0.1,0.2,0.3,0.4,0.4,0.5
		c0.2,0.1,0.4,0.2,0.6,0.2c0.2,0,0.4-0.1,0.6-0.2c0.2-0.1,0.3-0.3,0.4-0.5c0.1-0.2,0.2-0.4,0.2-0.7S390.6,136.7,390.5,136.5z"/>
	<path class="st2" d="M393.7,139.4c-0.3-0.1-0.5-0.3-0.7-0.6c-0.2-0.2-0.3-0.5-0.3-0.8h1.2c0,0.2,0.1,0.3,0.3,0.5s0.3,0.2,0.6,0.2
		c0.2,0,0.4,0,0.5-0.1c0.1-0.1,0.2-0.2,0.2-0.4c0-0.1-0.1-0.3-0.2-0.3c-0.2-0.1-0.4-0.2-0.7-0.2s-0.6-0.2-0.8-0.3s-0.4-0.2-0.6-0.4
		c-0.2-0.2-0.2-0.4-0.2-0.7c0-0.3,0.1-0.5,0.2-0.7c0.1-0.2,0.3-0.4,0.6-0.5c0.3-0.1,0.6-0.2,1-0.2c0.5,0,1,0.1,1.3,0.4
		c0.3,0.3,0.5,0.6,0.5,1.1h-1.1c0-0.2-0.1-0.3-0.2-0.5s-0.3-0.2-0.5-0.2c-0.2,0-0.4,0-0.5,0.1s-0.2,0.2-0.2,0.4
		c0,0.2,0.1,0.3,0.2,0.4c0.2,0.1,0.4,0.2,0.7,0.2c0.3,0.1,0.6,0.2,0.8,0.3c0.2,0.1,0.4,0.2,0.6,0.4c0.2,0.2,0.2,0.4,0.2,0.7
		c0,0.3-0.1,0.5-0.2,0.7c-0.1,0.2-0.4,0.4-0.6,0.5c-0.3,0.1-0.6,0.2-1,0.2C394.3,139.6,394,139.6,393.7,139.4z"/>
	<path class="st2" d="M398.2,139.4c-0.3-0.1-0.5-0.3-0.7-0.6c-0.2-0.2-0.3-0.5-0.3-0.8h1.2c0,0.2,0.1,0.3,0.3,0.5s0.3,0.2,0.6,0.2
		c0.2,0,0.4,0,0.5-0.1c0.1-0.1,0.2-0.2,0.2-0.4c0-0.1-0.1-0.3-0.2-0.3c-0.2-0.1-0.4-0.2-0.7-0.2s-0.6-0.2-0.8-0.3s-0.4-0.2-0.6-0.4
		c-0.2-0.2-0.2-0.4-0.2-0.7c0-0.3,0.1-0.5,0.2-0.7c0.1-0.2,0.3-0.4,0.6-0.5c0.3-0.1,0.6-0.2,1-0.2c0.5,0,1,0.1,1.3,0.4
		c0.3,0.3,0.5,0.6,0.5,1.1h-1.1c0-0.2-0.1-0.3-0.2-0.5s-0.3-0.2-0.5-0.2c-0.2,0-0.4,0-0.5,0.1s-0.2,0.2-0.2,0.4
		c0,0.2,0.1,0.3,0.2,0.4c0.2,0.1,0.4,0.2,0.7,0.2c0.3,0.1,0.6,0.2,0.8,0.3c0.2,0.1,0.4,0.2,0.6,0.4c0.2,0.2,0.2,0.4,0.2,0.7
		c0,0.3-0.1,0.5-0.2,0.7c-0.1,0.2-0.4,0.4-0.6,0.5c-0.3,0.1-0.6,0.2-1,0.2C398.8,139.6,398.5,139.6,398.2,139.4z"/>
</g>
<path class="st1" d="M277.3,289.6h147.9c5.4,0,9.8,4.4,9.8,9.8v10.9c0,5.4-4.4,9.8-9.8,9.8H277.3c-5.4,0-9.8-4.4-9.8-9.8v-10.9
	C267.5,294,271.9,289.6,277.3,289.6z"/>
<g class="st0">
	<path class="st2" d="M340.2,308c-0.4-0.2-0.7-0.4-1-0.7c-0.2-0.3-0.4-0.7-0.4-1.1h1.5c0,0.3,0.1,0.5,0.3,0.7
		c0.2,0.2,0.4,0.3,0.8,0.3c0.3,0,0.6-0.1,0.8-0.2c0.2-0.2,0.3-0.4,0.3-0.7c0-0.2-0.1-0.4-0.2-0.5c-0.1-0.1-0.3-0.2-0.5-0.3
		c-0.2-0.1-0.5-0.2-0.8-0.3c-0.5-0.1-0.8-0.3-1.1-0.4s-0.5-0.3-0.8-0.6c-0.2-0.3-0.3-0.6-0.3-1.1c0-0.4,0.1-0.8,0.3-1.1
		c0.2-0.3,0.5-0.6,0.9-0.7s0.8-0.3,1.3-0.3c0.7,0,1.3,0.2,1.8,0.5c0.5,0.4,0.7,0.9,0.8,1.5h-1.6c0-0.3-0.1-0.5-0.3-0.6
		c-0.2-0.2-0.5-0.2-0.8-0.2c-0.3,0-0.5,0.1-0.7,0.2s-0.3,0.4-0.3,0.7c0,0.2,0.1,0.4,0.2,0.5c0.1,0.1,0.3,0.2,0.5,0.3
		c0.2,0.1,0.5,0.2,0.8,0.3c0.5,0.1,0.8,0.3,1.1,0.4c0.3,0.1,0.5,0.3,0.8,0.6c0.2,0.3,0.3,0.6,0.3,1.1c0,0.4-0.1,0.7-0.3,1.1
		c-0.2,0.3-0.5,0.6-0.9,0.8c-0.4,0.2-0.8,0.3-1.4,0.3C341.1,308.3,340.6,308.2,340.2,308z"/>
	<path class="st2" d="M345.3,303.8c0.2-0.4,0.5-0.8,0.9-1s0.8-0.4,1.3-0.4c0.4,0,0.8,0.1,1.1,0.3c0.3,0.2,0.6,0.4,0.8,0.6v-0.8h1.5
		v5.7h-1.5v-0.8c-0.2,0.3-0.4,0.5-0.8,0.7s-0.7,0.3-1.1,0.3c-0.5,0-0.9-0.1-1.3-0.4s-0.7-0.6-0.9-1c-0.2-0.5-0.3-1-0.3-1.6
		C345,304.7,345.1,304.2,345.3,303.8z M349.3,304.4c-0.1-0.3-0.3-0.4-0.6-0.6s-0.5-0.2-0.8-0.2s-0.5,0.1-0.7,0.2
		c-0.2,0.1-0.4,0.3-0.6,0.6s-0.2,0.5-0.2,0.9c0,0.3,0.1,0.6,0.2,0.9c0.1,0.3,0.3,0.5,0.6,0.6c0.2,0.1,0.5,0.2,0.7,0.2
		c0.3,0,0.5-0.1,0.8-0.2s0.4-0.3,0.6-0.6c0.1-0.2,0.2-0.6,0.2-0.9C349.5,305,349.4,304.7,349.3,304.4z"/>
	<path class="st2" d="M354.7,306.9l1.4-4.4h1.5l-2.1,5.7h-1.8l-2.1-5.7h1.5L354.7,306.9z"/>
	<path class="st2" d="M363.8,305.7h-4.2c0,0.4,0.2,0.7,0.4,1c0.3,0.2,0.6,0.4,0.9,0.4c0.5,0,0.9-0.2,1.1-0.7h1.6
		c-0.2,0.5-0.5,1-0.9,1.4s-1,0.5-1.7,0.5c-0.5,0-1-0.1-1.5-0.4c-0.4-0.2-0.8-0.6-1-1c-0.2-0.4-0.4-1-0.4-1.5c0-0.6,0.1-1.1,0.4-1.6
		s0.6-0.8,1-1s0.9-0.4,1.5-0.4c0.5,0,1,0.1,1.5,0.4c0.4,0.2,0.8,0.6,1,1c0.2,0.4,0.4,0.9,0.4,1.5
		C363.8,305.4,363.8,305.6,363.8,305.7z M362.3,304.9c0-0.4-0.1-0.7-0.4-0.9c-0.3-0.2-0.6-0.3-1-0.3c-0.4,0-0.7,0.1-0.9,0.3
		c-0.2,0.2-0.4,0.5-0.4,0.9H362.3z"/>
</g>
<path class="st5" d="M271.2,150.7h160c2.1,0,3.8,1.7,3.8,3.8V166c0,2.1-1.7,3.8-3.8,3.8h-160c-2.1,0-3.8-1.7-3.8-3.8v-11.5
	C267.5,152.4,269.2,150.7,271.2,150.7z"/>
<g class="st0">
	<path class="st2" d="M308.4,158.1c0.5,0.2,0.8,0.6,1.1,1c0.3,0.4,0.4,1,0.4,1.5s-0.1,1.1-0.4,1.5c-0.3,0.4-0.6,0.8-1.1,1
		c-0.5,0.2-1,0.4-1.6,0.4h-2v-5.8h2C307.4,157.7,307.9,157.8,308.4,158.1z M308.1,162c0.3-0.3,0.5-0.8,0.5-1.4
		c0-0.6-0.2-1.1-0.5-1.4s-0.8-0.5-1.4-0.5h-0.8v3.9h0.8C307.3,162.6,307.8,162.4,308.1,162z"/>
	<path class="st2" d="M311.6,163.3c-0.4-0.2-0.6-0.5-0.8-0.8c-0.2-0.4-0.3-0.8-0.3-1.2c0-0.5,0.1-0.9,0.3-1.2
		c0.2-0.4,0.5-0.6,0.9-0.8s0.8-0.3,1.2-0.3c0.4,0,0.8,0.1,1.2,0.3c0.4,0.2,0.6,0.5,0.9,0.8c0.2,0.4,0.3,0.8,0.3,1.2
		c0,0.5-0.1,0.9-0.3,1.2c-0.2,0.4-0.5,0.6-0.9,0.8c-0.4,0.2-0.8,0.3-1.2,0.3C312.3,163.6,311.9,163.5,311.6,163.3z M313.3,162.4
		c0.2-0.1,0.3-0.3,0.4-0.5c0.1-0.2,0.2-0.5,0.2-0.8c0-0.3-0.1-0.5-0.2-0.8c-0.1-0.2-0.3-0.4-0.4-0.5c-0.2-0.1-0.4-0.2-0.6-0.2
		c-0.3,0-0.6,0.1-0.8,0.4c-0.2,0.2-0.3,0.6-0.3,1c0,0.4,0.1,0.8,0.3,1c0.2,0.2,0.5,0.4,0.8,0.4C313,162.6,313.2,162.5,313.3,162.4z"
		/>
	<path class="st2" d="M316,160c0.2-0.4,0.5-0.6,0.8-0.8c0.3-0.2,0.7-0.3,1.2-0.3c0.6,0,1,0.1,1.4,0.4c0.4,0.3,0.6,0.7,0.8,1.2h-1.3
		c-0.1-0.2-0.2-0.4-0.3-0.5c-0.2-0.1-0.4-0.2-0.6-0.2c-0.3,0-0.6,0.1-0.8,0.4c-0.2,0.2-0.3,0.6-0.3,1c0,0.4,0.1,0.8,0.3,1
		c0.2,0.2,0.5,0.4,0.8,0.4c0.5,0,0.8-0.2,0.9-0.6h1.3c-0.1,0.5-0.4,0.9-0.8,1.2c-0.4,0.3-0.8,0.4-1.4,0.4c-0.4,0-0.8-0.1-1.2-0.3
		c-0.3-0.2-0.6-0.5-0.8-0.8c-0.2-0.4-0.3-0.8-0.3-1.2C315.7,160.7,315.8,160.3,316,160z"/>
	<path class="st2" d="M325.3,158.9v4.6h-1.2v-0.6c-0.1,0.2-0.3,0.4-0.6,0.5c-0.2,0.1-0.5,0.2-0.8,0.2c-0.4,0-0.7-0.1-1-0.2
		s-0.5-0.4-0.7-0.7c-0.2-0.3-0.2-0.6-0.2-1.1v-2.7h1.2v2.5c0,0.4,0.1,0.6,0.3,0.8c0.2,0.2,0.4,0.3,0.7,0.3c0.3,0,0.6-0.1,0.8-0.3
		c0.2-0.2,0.3-0.5,0.3-0.8v-2.5H325.3z"/>
	<path class="st2" d="M333.6,159.4c0.3,0.3,0.5,0.8,0.5,1.4v2.7h-1.2V161c0-0.4-0.1-0.6-0.3-0.8c-0.2-0.2-0.4-0.3-0.7-0.3
		s-0.6,0.1-0.8,0.3c-0.2,0.2-0.3,0.5-0.3,0.8v2.5h-1.2V161c0-0.4-0.1-0.6-0.3-0.8c-0.2-0.2-0.4-0.3-0.7-0.3c-0.3,0-0.6,0.1-0.8,0.3
		c-0.2,0.2-0.3,0.5-0.3,0.8v2.5h-1.2v-4.6h1.2v0.6c0.1-0.2,0.3-0.3,0.6-0.5c0.2-0.1,0.5-0.2,0.8-0.2c0.4,0,0.7,0.1,1,0.2
		s0.5,0.4,0.7,0.7c0.1-0.3,0.4-0.5,0.7-0.6s0.6-0.2,0.9-0.2C332.8,158.8,333.2,159,333.6,159.4z"/>
	<path class="st2" d="M339.4,161.5h-3.4c0,0.3,0.1,0.6,0.3,0.8c0.2,0.2,0.5,0.3,0.8,0.3c0.4,0,0.7-0.2,0.9-0.6h1.3
		c-0.1,0.4-0.4,0.8-0.8,1.1c-0.4,0.3-0.8,0.4-1.4,0.4c-0.4,0-0.8-0.1-1.2-0.3s-0.6-0.5-0.8-0.8c-0.2-0.4-0.3-0.8-0.3-1.2
		c0-0.5,0.1-0.9,0.3-1.3c0.2-0.4,0.5-0.6,0.8-0.8c0.3-0.2,0.7-0.3,1.2-0.3c0.4,0,0.8,0.1,1.2,0.3c0.3,0.2,0.6,0.5,0.8,0.8
		c0.2,0.3,0.3,0.7,0.3,1.2C339.5,161.2,339.4,161.4,339.4,161.5z M338.3,160.8c0-0.3-0.1-0.6-0.3-0.8c-0.2-0.2-0.5-0.3-0.8-0.3
		c-0.3,0-0.5,0.1-0.7,0.3s-0.3,0.4-0.4,0.8H338.3z"/>
	<path class="st2" d="M344.2,159.4c0.3,0.3,0.5,0.8,0.5,1.4v2.7h-1.2V161c0-0.4-0.1-0.6-0.3-0.8s-0.4-0.3-0.7-0.3
		c-0.3,0-0.6,0.1-0.8,0.3s-0.3,0.5-0.3,0.8v2.5h-1.2v-4.6h1.2v0.6c0.2-0.2,0.4-0.4,0.6-0.5c0.2-0.1,0.5-0.2,0.8-0.2
		C343.4,158.8,343.8,159,344.2,159.4z"/>
	<path class="st2" d="M347.1,159.9v2.2c0,0.2,0,0.3,0.1,0.3c0.1,0.1,0.2,0.1,0.4,0.1h0.5v1h-0.7c-1,0-1.5-0.5-1.5-1.4v-2.2h-0.5v-1
		h0.5v-1.1h1.2v1.1h1v1H347.1z"/>
	<path class="st2" d="M349.8,163.4c-0.3-0.1-0.5-0.3-0.7-0.6c-0.2-0.2-0.3-0.5-0.3-0.8h1.2c0,0.2,0.1,0.3,0.3,0.5s0.3,0.2,0.6,0.2
		c0.2,0,0.4,0,0.5-0.1c0.1-0.1,0.2-0.2,0.2-0.4c0-0.1-0.1-0.3-0.2-0.3c-0.2-0.1-0.4-0.2-0.7-0.2c-0.3-0.1-0.6-0.2-0.8-0.3
		s-0.4-0.2-0.6-0.4s-0.2-0.4-0.2-0.7c0-0.3,0.1-0.5,0.2-0.7c0.1-0.2,0.3-0.4,0.6-0.5c0.3-0.1,0.6-0.2,1-0.2c0.5,0,1,0.1,1.3,0.4
		c0.3,0.3,0.5,0.6,0.5,1.1h-1.1c0-0.2-0.1-0.3-0.2-0.5s-0.3-0.2-0.5-0.2c-0.2,0-0.4,0-0.5,0.1s-0.2,0.2-0.2,0.4
		c0,0.2,0.1,0.3,0.2,0.4s0.4,0.2,0.7,0.2c0.3,0.1,0.6,0.2,0.8,0.3c0.2,0.1,0.4,0.2,0.6,0.4c0.2,0.2,0.2,0.4,0.2,0.7
		c0,0.3-0.1,0.5-0.2,0.7c-0.1,0.2-0.4,0.4-0.6,0.5c-0.3,0.1-0.6,0.2-1,0.2C350.4,163.6,350,163.5,349.8,163.4z"/>
	<path class="st2" d="M355.9,159.1c0.3-0.5,0.6-0.8,1.1-1.1s0.9-0.4,1.5-0.4c0.6,0,1.2,0.2,1.7,0.5c0.5,0.3,0.8,0.8,1,1.4h-1.3
		c-0.1-0.3-0.3-0.5-0.6-0.6c-0.2-0.1-0.5-0.2-0.8-0.2c-0.3,0-0.6,0.1-0.9,0.2c-0.3,0.2-0.5,0.4-0.6,0.7c-0.1,0.3-0.2,0.6-0.2,1
		c0,0.4,0.1,0.7,0.2,1s0.4,0.5,0.6,0.7c0.3,0.2,0.6,0.2,0.9,0.2c0.3,0,0.6-0.1,0.8-0.2c0.2-0.1,0.4-0.3,0.6-0.6h1.3
		c-0.2,0.6-0.5,1.1-1,1.4s-1.1,0.5-1.7,0.5c-0.6,0-1.1-0.1-1.5-0.4c-0.4-0.3-0.8-0.6-1.1-1c-0.3-0.4-0.4-1-0.4-1.5
		C355.5,160,355.6,159.5,355.9,159.1z"/>
	<path class="st2" d="M365.6,159.1c0.3,0.2,0.5,0.4,0.6,0.7c0.2,0.3,0.2,0.7,0.2,1.1v2.7h-1.2V161c0-0.4-0.1-0.6-0.3-0.8
		s-0.4-0.3-0.7-0.3c-0.3,0-0.6,0.1-0.8,0.3s-0.3,0.5-0.3,0.8v2.5h-1.2v-6.1h1.2v2.1c0.1-0.2,0.3-0.4,0.6-0.5s0.5-0.2,0.8-0.2
		C365.1,158.8,365.4,158.9,365.6,159.1z"/>
	<path class="st2" d="M371.9,161.5h-3.4c0,0.3,0.1,0.6,0.3,0.8c0.2,0.2,0.5,0.3,0.8,0.3c0.4,0,0.7-0.2,0.9-0.6h1.3
		c-0.1,0.4-0.4,0.8-0.8,1.1c-0.4,0.3-0.8,0.4-1.4,0.4c-0.4,0-0.8-0.1-1.2-0.3s-0.6-0.5-0.8-0.8c-0.2-0.4-0.3-0.8-0.3-1.2
		c0-0.5,0.1-0.9,0.3-1.3c0.2-0.4,0.5-0.6,0.8-0.8c0.3-0.2,0.8-0.3,1.2-0.3c0.4,0,0.8,0.1,1.2,0.3s0.6,0.5,0.8,0.8
		c0.2,0.3,0.3,0.7,0.3,1.2C371.9,161.2,371.9,161.4,371.9,161.5z M370.7,160.8c0-0.3-0.1-0.6-0.3-0.8c-0.2-0.2-0.5-0.3-0.8-0.3
		c-0.3,0-0.5,0.1-0.7,0.3s-0.3,0.4-0.4,0.8H370.7z"/>
	<path class="st2" d="M372.7,160c0.2-0.4,0.5-0.6,0.8-0.8c0.3-0.2,0.7-0.3,1.2-0.3c0.6,0,1,0.1,1.4,0.4c0.4,0.3,0.6,0.7,0.8,1.2
		h-1.3c-0.1-0.2-0.2-0.4-0.3-0.5c-0.2-0.1-0.4-0.2-0.6-0.2c-0.3,0-0.6,0.1-0.8,0.4c-0.2,0.2-0.3,0.6-0.3,1c0,0.4,0.1,0.8,0.3,1
		c0.2,0.2,0.5,0.4,0.8,0.4c0.5,0,0.8-0.2,0.9-0.6h1.3c-0.1,0.5-0.4,0.9-0.8,1.2c-0.4,0.3-0.8,0.4-1.4,0.4c-0.4,0-0.8-0.1-1.2-0.3
		c-0.3-0.2-0.6-0.5-0.8-0.8c-0.2-0.4-0.3-0.8-0.3-1.2C372.4,160.7,372.5,160.3,372.7,160z"/>
	<path class="st2" d="M380.5,163.5l-1.6-2v2h-1.2v-6.1h1.2v3.5l1.5-2h1.5l-2,2.3l2,2.3H380.5z"/>
	<path class="st2" d="M388.4,157.7v0.9H386v1.5h1.9v0.9H386v2.5h-1.2v-5.8H388.4z"/>
	<path class="st2" d="M389.2,159.9c0.2-0.4,0.4-0.6,0.8-0.8c0.3-0.2,0.7-0.3,1.1-0.3c0.3,0,0.6,0.1,0.9,0.2c0.3,0.1,0.5,0.3,0.6,0.5
		v-0.7h1.2v4.6h-1.2v-0.7c-0.1,0.2-0.4,0.4-0.6,0.5c-0.3,0.1-0.6,0.2-0.9,0.2c-0.4,0-0.7-0.1-1.1-0.3s-0.6-0.5-0.8-0.8
		c-0.2-0.4-0.3-0.8-0.3-1.2C388.9,160.7,389,160.3,389.2,159.9z M392.4,160.5c-0.1-0.2-0.3-0.4-0.4-0.5c-0.2-0.1-0.4-0.2-0.6-0.2
		s-0.4,0.1-0.6,0.2s-0.3,0.3-0.4,0.5c-0.1,0.2-0.2,0.4-0.2,0.7c0,0.3,0.1,0.5,0.2,0.7c0.1,0.2,0.3,0.4,0.4,0.5
		c0.2,0.1,0.4,0.2,0.6,0.2c0.2,0,0.4-0.1,0.6-0.2c0.2-0.1,0.3-0.3,0.4-0.5c0.1-0.2,0.2-0.4,0.2-0.7S392.5,160.7,392.4,160.5z"/>
	<path class="st2" d="M394.9,158.2c-0.1-0.1-0.2-0.3-0.2-0.5c0-0.2,0.1-0.4,0.2-0.5c0.1-0.1,0.3-0.2,0.5-0.2c0.2,0,0.4,0.1,0.5,0.2
		c0.1,0.1,0.2,0.3,0.2,0.5c0,0.2-0.1,0.4-0.2,0.5s-0.3,0.2-0.5,0.2C395.2,158.4,395,158.3,394.9,158.2z M396,158.9v4.6h-1.2v-4.6
		H396z"/>
	<path class="st2" d="M398.3,157.4v6.1h-1.2v-6.1H398.3z"/>
</g>
<g class="st0">
	<path class="st5" d="M271.8,184.4h-2.5l-0.5,1.3H268l2.1-5.8h0.9l2.1,5.8h-0.8L271.8,184.4z M271.6,183.8l-1.1-2.9l-1.1,2.9H271.6z
		"/>
	<path class="st5" d="M274,182.2c0.2-0.4,0.4-0.6,0.8-0.8c0.3-0.2,0.7-0.3,1.1-0.3c0.4,0,0.7,0.1,1,0.2c0.3,0.2,0.5,0.4,0.7,0.6
		v-2.4h0.8v6.1h-0.8v-0.9c-0.2,0.3-0.4,0.5-0.7,0.7c-0.3,0.2-0.6,0.3-1,0.3c-0.4,0-0.8-0.1-1.1-0.3c-0.3-0.2-0.6-0.5-0.8-0.8
		s-0.3-0.8-0.3-1.2C273.7,182.9,273.8,182.5,274,182.2z M277.3,182.5c-0.1-0.3-0.3-0.4-0.6-0.6c-0.2-0.1-0.5-0.2-0.8-0.2
		c-0.3,0-0.5,0.1-0.8,0.2s-0.4,0.3-0.6,0.6c-0.1,0.3-0.2,0.6-0.2,0.9c0,0.3,0.1,0.7,0.2,0.9c0.1,0.3,0.3,0.5,0.6,0.6
		c0.2,0.1,0.5,0.2,0.8,0.2c0.3,0,0.5-0.1,0.8-0.2c0.2-0.1,0.4-0.3,0.6-0.6c0.1-0.3,0.2-0.6,0.2-0.9
		C277.6,183.1,277.5,182.8,277.3,182.5z"/>
	<path class="st5" d="M279.6,182.2c0.2-0.4,0.4-0.6,0.8-0.8c0.3-0.2,0.7-0.3,1.1-0.3c0.4,0,0.7,0.1,1,0.2s0.5,0.4,0.7,0.6v-2.4h0.8
		v6.1h-0.8v-0.9c-0.1,0.3-0.4,0.5-0.7,0.7c-0.3,0.2-0.6,0.3-1,0.3c-0.4,0-0.8-0.1-1.1-0.3s-0.6-0.5-0.8-0.8
		c-0.2-0.4-0.3-0.8-0.3-1.2C279.3,182.9,279.4,182.5,279.6,182.2z M283,182.5c-0.1-0.3-0.3-0.4-0.6-0.6s-0.5-0.2-0.8-0.2
		c-0.3,0-0.5,0.1-0.8,0.2s-0.4,0.3-0.6,0.6c-0.1,0.3-0.2,0.6-0.2,0.9c0,0.3,0.1,0.7,0.2,0.9c0.1,0.3,0.3,0.5,0.6,0.6
		c0.2,0.1,0.5,0.2,0.8,0.2c0.3,0,0.5-0.1,0.8-0.2c0.2-0.1,0.4-0.3,0.6-0.6c0.1-0.3,0.2-0.6,0.2-0.9
		C283.2,183.1,283.1,182.8,283,182.5z"/>
	<path class="st5" d="M287.7,182.2c0.2-0.4,0.4-0.6,0.8-0.8c0.3-0.2,0.7-0.3,1.1-0.3c0.4,0,0.7,0.1,1,0.3c0.3,0.2,0.5,0.4,0.7,0.6
		v-0.8h0.8v4.5h-0.8v-0.8c-0.1,0.3-0.4,0.5-0.7,0.7c-0.3,0.2-0.6,0.3-1,0.3c-0.4,0-0.8-0.1-1.1-0.3c-0.3-0.2-0.6-0.5-0.8-0.8
		c-0.2-0.4-0.3-0.8-0.3-1.2C287.4,182.9,287.5,182.5,287.7,182.2z M291,182.5c-0.1-0.3-0.3-0.4-0.6-0.6s-0.5-0.2-0.8-0.2
		c-0.3,0-0.5,0.1-0.8,0.2s-0.4,0.3-0.6,0.6c-0.1,0.3-0.2,0.6-0.2,0.9c0,0.3,0.1,0.7,0.2,0.9c0.1,0.3,0.3,0.5,0.6,0.6
		c0.2,0.1,0.5,0.2,0.8,0.2c0.3,0,0.5-0.1,0.8-0.2c0.2-0.1,0.4-0.3,0.6-0.6c0.1-0.3,0.2-0.6,0.2-0.9
		C291.2,183.1,291.2,182.8,291,182.5z"/>
	<path class="st5" d="M299.3,181.6c0.3,0.3,0.5,0.8,0.5,1.4v2.7h-0.7v-2.6c0-0.5-0.1-0.8-0.3-1c-0.2-0.2-0.5-0.4-0.9-0.4
		c-0.4,0-0.7,0.1-1,0.4s-0.4,0.6-0.4,1.1v2.5h-0.8v-4.5h0.8v0.6c0.1-0.2,0.4-0.4,0.6-0.5c0.3-0.1,0.5-0.2,0.9-0.2
		C298.5,181.1,299,181.2,299.3,181.6z"/>
	<path class="st5" d="M301.9,185.5c-0.3-0.2-0.6-0.5-0.8-0.8c-0.2-0.4-0.3-0.8-0.3-1.2c0-0.5,0.1-0.9,0.3-1.2
		c0.2-0.4,0.5-0.6,0.8-0.8c0.3-0.2,0.7-0.3,1.2-0.3c0.4,0,0.8,0.1,1.2,0.3c0.3,0.2,0.6,0.5,0.8,0.8c0.2,0.4,0.3,0.8,0.3,1.2
		c0,0.5-0.1,0.9-0.3,1.2c-0.2,0.4-0.5,0.6-0.8,0.8s-0.7,0.3-1.2,0.3C302.6,185.8,302.2,185.7,301.9,185.5z M303.8,184.9
		c0.2-0.1,0.4-0.3,0.6-0.6c0.1-0.3,0.2-0.6,0.2-0.9s-0.1-0.7-0.2-0.9c-0.1-0.3-0.3-0.5-0.6-0.6s-0.5-0.2-0.8-0.2
		c-0.3,0-0.5,0.1-0.8,0.2s-0.4,0.3-0.6,0.6c-0.1,0.3-0.2,0.6-0.2,0.9c0,0.4,0.1,0.7,0.2,0.9c0.1,0.3,0.3,0.5,0.5,0.6
		c0.2,0.1,0.5,0.2,0.7,0.2C303.3,185.1,303.6,185.1,303.8,184.9z"/>
	<path class="st5" d="M307.3,181.8v2.7c0,0.2,0,0.4,0.1,0.5c0.1,0.1,0.3,0.1,0.5,0.1h0.6v0.6h-0.7c-0.4,0-0.7-0.1-0.9-0.3
		c-0.2-0.2-0.3-0.5-0.3-1v-2.7H306v-0.6h0.6V180h0.8v1.1h1.2v0.6H307.3z"/>
	<path class="st5" d="M313.5,183.7h-3.6c0,0.4,0.2,0.8,0.5,1.1c0.3,0.3,0.6,0.4,1,0.4c0.3,0,0.6-0.1,0.8-0.2
		c0.2-0.2,0.4-0.4,0.5-0.6h0.8c-0.1,0.4-0.4,0.8-0.7,1.1c-0.4,0.3-0.8,0.4-1.4,0.4c-0.4,0-0.8-0.1-1.2-0.3c-0.3-0.2-0.6-0.5-0.8-0.8
		c-0.2-0.4-0.3-0.8-0.3-1.2c0-0.5,0.1-0.9,0.3-1.2c0.2-0.4,0.5-0.6,0.8-0.8c0.3-0.2,0.7-0.3,1.2-0.3c0.4,0,0.8,0.1,1.1,0.3
		c0.3,0.2,0.6,0.4,0.8,0.8c0.2,0.3,0.3,0.7,0.3,1.1C313.6,183.4,313.5,183.5,313.5,183.7z M312.6,182.4c-0.1-0.2-0.3-0.4-0.5-0.5
		c-0.2-0.1-0.5-0.2-0.7-0.2c-0.4,0-0.7,0.1-1,0.4s-0.4,0.6-0.4,1h2.9C312.8,182.8,312.7,182.6,312.6,182.4z"/>
</g>
<path class="st13" d="M400,248.5c1.6-1.1,0.4-3.6-1.5-2.4c-4.5,3.1-8.5,6.1-12,9.2c-1.5,1.3-3.8,4.4-1.3,6c4.1,2.8,7.7,5.4,11,7.8
	c2,1.5,3.8-1.1,1.9-2.5c-3.4-2.4-7-4.9-10.6-7.5c-0.2-0.1-0.2-0.4-0.1-0.6l0,0c0.9-1.2,2-2.2,3.3-3.3
	C393.7,252.9,396.8,250.6,400,248.5L400,248.5L400,248.5z M465.7,262.7c-10-6-22.1-8.4-33.7-8.4c-13.4-0.1-26.6,1.8-39.5,5.5
	c-2.3,0.7-2.8-2.2-0.5-2.9c13.7-3.9,27.5-5.8,41.6-5.5c11.5,0.2,23.4,2.8,33.5,8.5C469.9,261.4,467.7,263.9,465.7,262.7L465.7,262.7
	z"/>
<path d="M10.8,172.8h9.9c0.2,0.1,0.3,0.1,0.4,0.2c1.8,1.8,3.5,3.5,5.2,5.2c0.1,0.1,0.1,0.1,0.2,0.2c0,0.1,0.1,0.2,0.1,0.3
	c0,4.8,0,9.7,0,14.5c0,1.5-1,2.7-2.6,2.8H10.8c-1-0.1-1.7-0.5-2.2-1.3c-0.2-0.3-0.3-0.5-0.4-0.9c0-0.2-0.1-0.5-0.1-0.9
	c0-5.8,0-11.6,0-17.5C8.2,174.1,9.3,172.9,10.8,172.8L10.8,172.8z M22.6,179.5c-1.5,0-2.8-1.2-2.8-2.8c0-0.8,0-1.7,0-2.5l0,0
	c-2.8,0-5.6,0-8.4,0c-0.4,0-0.6,0-0.7,0c-0.6,0.1-1.1,0.7-1.1,1.3c0,5.8,0,11.6,0,17.4c0,0.3,0,0.6,0.1,0.7c0.2,0.6,0.7,1,1.3,1
	c4.2,0,8.4,0,12.6,0c0.3,0,0.6,0,0.7-0.1c0.6-0.2,1-0.7,1-1.3c0-4.6,0-9.2,0-13.7l0,0C24.3,179.5,23.5,179.5,22.6,179.5L22.6,179.5z
	 M21.4,177.2c0.2,0.6,0.7,0.9,1.3,0.9c0.7,0,1.2,0,1.5,0l0,0l-2.8-2.8l0,0c0,0.4,0,0.8,0,1.2C21.3,176.8,21.3,177.1,21.4,177.2
	L21.4,177.2z"/>
<path d="M12.2,181.4h10.3c0.4,0,0.7,0.3,0.7,0.7l0,0c0,0.4-0.3,0.7-0.7,0.7H12.2c-0.4,0-0.7-0.3-0.7-0.7l0,0
	C11.5,181.7,11.9,181.4,12.2,181.4z"/>
<path d="M12.3,186h10.3c0.4,0,0.7,0.3,0.7,0.7l0,0c0,0.4-0.3,0.7-0.7,0.7H12.3c-0.4,0-0.7-0.3-0.7-0.7l0,0
	C11.6,186.3,11.9,186,12.3,186z"/>
<path d="M12.3,190.6h10.3c0.4,0,0.7,0.3,0.7,0.7l0,0c0,0.4-0.3,0.7-0.7,0.7H12.3c-0.4,0-0.7-0.3-0.7-0.7l0,0
	C11.6,190.9,11.9,190.6,12.3,190.6z"/>
<path d="M27.3,218.2c0-0.3-0.1-0.5-0.4-0.6c-0.1,0-0.1,0-0.3,0h-2.2c-0.4,0-0.9,0-1.3,0c-3.6,0-7.2,0-10.8,0c-0.3,0-0.5,0.1-0.6,0.4
	c0,0.1,0,0.2,0,0.3c0,3.6,0,7.1,0,10.7c0,0.1,0,0.2,0,0.3c0.1,0.2,0.2,0.3,0.3,0.3s0.2,0,0.4,0H25v0.3c0,0.6-0.4,1.1-1,1.3
	c-0.1,0-0.4,0.1-0.7,0.1c-4.2,0-8.4,0-12.6,0c-0.6,0-1.1-0.4-1.3-1c0-0.1-0.1-0.4-0.1-0.7c0-5.8,0-11.6,0-17.4
	c0-0.6,0.4-1.1,1.1-1.3c0.1,0,0.3,0,0.7,0c2.8,0,5.6,0,8.4,0l0,0c0,0.8,0,1.7,0,2.5c0,1.5,1.2,2.8,2.8,2.8c0.8,0,1.7,0,2.5,0l0,0
	c0,0.5,0,0.9,0,1.4h1.4v-2.2c0-0.1,0-0.2-0.1-0.3c0-0.1-0.1-0.2-0.2-0.2c-1.8-1.8-3.5-3.5-5.2-5.2c-0.1-0.1-0.2-0.1-0.4-0.2h-9.9
	c-1.5,0.1-2.6,1.2-2.6,2.7c0,5.8,0,11.6,0,17.5c0,0.4,0,0.7,0.1,0.9c0.1,0.3,0.2,0.6,0.4,0.9c0.5,0.8,1.2,1.2,2.2,1.3h13.2
	c1.5-0.1,2.6-1.3,2.6-2.8v-0.3c0.1,0,0.1,0,0.2,0l0,0c0.1,0,0.3,0,0.3,0c0.2-0.1,0.3-0.2,0.3-0.3s0-0.2,0-0.4
	C27.3,225.3,27.3,221.8,27.3,218.2L27.3,218.2z M21.1,211.9l2.8,2.8l0,0c-0.3,0-0.8,0-1.5,0c-0.6,0-1.1-0.4-1.3-0.9
	c0-0.1-0.1-0.4-0.1-0.7C21.1,212.7,21.1,212.3,21.1,211.9C21.1,211.8,21.1,211.8,21.1,211.9L21.1,211.9z M22.6,218.7L22.6,218.7h3.6
	l0,0v2.5l0,0h-3.6l0,0V218.7z M22.6,222.3L22.6,222.3h3.6l0,0v2.5l0,0h-3.6l0,0V222.3z M12.9,218.7L12.9,218.7h3.6l0,0v2.4l0,0H13
	l0,0C13,221.1,13,218.7,12.9,218.7z M12.9,222.3L12.9,222.3h3.6l0,0v2.5l0,0H13l0,0C13,224.7,13,222.3,12.9,222.3z M16.5,228.5
	L16.5,228.5h-3.6l0,0v-2.6l0,0h3.6l0,0V228.5z M21.5,228.5L21.5,228.5h-3.9l0,0v-2.6l0,0h3.9l0,0V228.5z M21.5,224.7L21.5,224.7
	h-3.9l0,0v-2.5l0,0h3.9l0,0V224.7z M21.5,221.1L21.5,221.1h-3.9l0,0v-2.5l0,0h3.8l0,0v2.5H21.5z M23.2,228.5h-0.6l0,0v-2.6l0,0h3.6
	l0,0v2.6l0,0H23.2L23.2,228.5z"/>
<path d="M29,142v15.9c0,0.3-0.2,0.5-0.5,0.6c-0.1,0-0.3,0.1-0.6,0.1c-6.1,0-12.2,0-18.3,0c-0.4,0-0.7-0.2-0.8-0.7V142
	c0.1-0.3,0.2-0.5,0.5-0.6c0.1,0,0.3-0.1,0.5-0.1c6.1,0,12.2,0,18.2,0c0.2,0,0.4,0,0.5,0.1C28.8,141.5,29,141.7,29,142L29,142z
	 M13.9,149.9c0.2-0.1,0.5,0,0.7,0.1c1.1,1.1,2.2,2.2,3.3,3.3l0,0c1.7-1.7,3.4-3.4,5.1-5.1c0.2-0.2,0.5-0.4,0.8-0.3
	c0.1,0,0.2,0.1,0.4,0.3c1.2,1.2,2.4,2.4,3.5,3.5l0,0l0,0v-9.3l0,0H10.1l0,0v11.2l0,0l0,0c1.2-1.2,2.4-2.4,3.6-3.6
	C13.8,150,13.9,149.9,13.9,149.9L13.9,149.9z M18.4,154.6c-0.3,0.3-0.6,0.3-0.9,0c-1.1-1.1-2.2-2.2-3.3-3.3l0,0l-4.1,4.1l0,0v2l0,0
	h17.8l0,0v-3.9l0,0l-4.1-4.1l0,0C21.9,151.1,20.2,152.9,18.4,154.6L18.4,154.6z"/>
<path d="M20,147.1c0,1.1-0.9,2-2,2s-2-0.9-2-2s0.9-2,2-2S20,146,20,147.1L20,147.1z M18.8,147.1c0-0.5-0.4-0.8-0.8-0.8l0,0
	c-0.5,0-0.8,0.4-0.8,0.8s0.4,0.8,0.8,0.8S18.8,147.6,18.8,147.1L18.8,147.1z"/>
<g>
	<g>
		<defs>
			<circle id="SVGID_1_" cx="168" cy="270" r="76.4"/>
		</defs>
		<clipPath id="SVGID_00000003096549693401615190000001767345071983600009_">
			<use xlink:href="#SVGID_1_"  style="overflow:visible;"/>
		</clipPath>
		<g style="clip-path:url(#SVGID_00000003096549693401615190000001767345071983600009_);">
			
				<image style="overflow:visible;enable-background:new    ;" width="800" height="551" xlink:href="9D6CCC35.jpeg"  transform="matrix(0.28 0 0 0.28 51.3 193.93)">
			</image>
		</g>
	</g>
</g>
</svg>
