<?xml version="1.0" encoding="utf-8"?>
<!-- Generator: Adobe Illustrator 29.5.1, SVG Export Plug-In . SVG Version: 9.03 Build 0)  -->
<svg version="1.1" id="Layer_1" xmlns="http://www.w3.org/2000/svg" xmlns:xlink="http://www.w3.org/1999/xlink" x="0px" y="0px"
	 viewBox="0 0 416.9 384.7" style="enable-background:new 0 0 416.9 384.7;" xml:space="preserve">
<style type="text/css">
	.st0{fill:#FFFFFF;}
	.st1{fill:#0D6EB8;}
	.st2{fill:#73217A;}
	.st3{fill:#B02485;}
	.st4{fill:#D92B80;}
	.st5{fill:#004591;}
	.st6{fill:#5EBFB5;}
	.st7{fill:#1A3D3B;}
	.st8{fill:#211245;}
	.st9{fill:#476199;}
	.st10{fill:#0A080F;}
	.st11{fill:#736E6B;}
	.st12{fill:#0A4585;}
	.st13{fill:#82BAA3;}
	.st14{fill:#1C1F1C;}
	.st15{fill:#E32921;}
	.st16{fill:#051F38;}
	.st17{fill:#F28A21;}
	.st18{fill:#E60B75;}
	.st19{fill:#05058C;}
	.st20{fill:#EB004F;}
	.st21{fill:url(#SVGID_1_);}
	.st22{fill:url(#SVGID_00000070803745381202633930000015176374617587250363_);}
</style>
<path class="st0" d="M17.05,9.13h179.77c3.52,0,6.37,2.85,6.37,6.37v50.22c0,3.52-2.85,6.37-6.37,6.37H17.05
	c-3.52,0-6.37-2.86-6.37-6.37V15.5C10.68,11.98,13.53,9.13,17.05,9.13z"/>
<path class="st0" d="M17.05,84.51h179.77c3.52,0,6.37,2.85,6.37,6.37v50.22c0,3.52-2.85,6.37-6.37,6.37H17.05
	c-3.52,0-6.37-2.86-6.37-6.37V90.88C10.68,87.36,13.53,84.51,17.05,84.51z"/>
<path class="st0" d="M17.05,159.9h179.77c3.52,0,6.37,2.85,6.37,6.37v50.22c0,3.52-2.85,6.37-6.37,6.37H17.05
	c-3.52,0-6.37-2.86-6.37-6.37v-50.22C10.68,162.75,13.54,159.9,17.05,159.9z"/>
<path class="st0" d="M17.05,235.16h179.77c3.52,0,6.37,2.85,6.37,6.37v50.22c0,3.52-2.85,6.37-6.37,6.37H17.05
	c-3.52,0-6.37-2.86-6.37-6.37v-50.22C10.68,238.01,13.53,235.16,17.05,235.16z"/>
<path class="st1" d="M70.47,32.9h-4.1c-1.22,0-2.2-0.99-2.21-2.2l0,0v-4.1c0-1.22,0.99-2.2,2.2-2.2h4.1c1.22,0,2.2,0.99,2.2,2.2v4.1
	c0,1.22-0.99,2.2-2.2,2.2"/>
<path class="st2" d="M59.87,42.08h-4.61c-1.37,0-2.48-1.11-2.48-2.48l0,0v-4.61c0-1.37,1.11-2.48,2.48-2.48h4.61
	c1.37,0,2.48,1.11,2.48,2.48v4.61C62.35,40.97,61.24,42.08,59.87,42.08L59.87,42.08z"/>
<path class="st3" d="M59.43,51.64h-2.81c-0.84,0-1.52-0.68-1.52-1.52l0,0v-2.81c0-0.84,0.68-1.52,1.52-1.52h2.81
	c0.84,0,1.52,0.68,1.52,1.52l0,0v2.82c0,0.84-0.68,1.51-1.51,1.52l0,0C59.44,51.65,59.43,51.64,59.43,51.64z"/>
<path class="st4" d="M79.18,34.57h-2.31c-0.69,0-1.24-0.55-1.24-1.24v-2.3c0-0.68,0.55-1.24,1.24-1.24h2.31
	c0.68,0,1.24,0.56,1.24,1.24v2.3C80.42,34.01,79.87,34.57,79.18,34.57 M66.99,60.54h-3.33c-0.99,0-1.79-0.8-1.79-1.79l0,0v-3.33
	c0-0.99,0.8-1.79,1.79-1.79h3.33c0.99,0,1.79,0.8,1.79,1.79l0,0v3.33C68.78,59.74,67.98,60.54,66.99,60.54L66.99,60.54"/>
<path class="st5" d="M163.55,50.78c-0.1,0-0.16-0.07-0.18-0.14l-0.52-1.52v1.48c0,0.1-0.08,0.18-0.17,0.18l0,0
	c-0.1,0-0.18-0.08-0.18-0.18v-1.96c0-0.15,0.13-0.27,0.27-0.27c0.12,0,0.22,0.08,0.26,0.2l0.52,1.53l0.52-1.53
	c0.04-0.12,0.14-0.2,0.26-0.2c0.15,0,0.27,0.13,0.27,0.27v1.96c0,0.1-0.08,0.18-0.17,0.18l0,0c-0.1,0-0.18-0.08-0.18-0.18v-1.47
	c-0.08,0.24-0.2,0.6-0.3,0.9c-0.14,0.41-0.21,0.61-0.21,0.62c-0.04,0.09-0.1,0.14-0.18,0.14 M161.41,50.78
	c-0.1,0-0.18-0.08-0.18-0.18v-1.85h-0.41c-0.1,0-0.18-0.08-0.18-0.18s0.08-0.18,0.18-0.18h1.2c0.1,0,0.18,0.08,0.18,0.18
	s-0.08,0.18-0.18,0.18h-0.42v1.85c0,0.1-0.08,0.18-0.17,0.18l0,0 M117.97,43.87c-0.05-3.36-3.06-6.24-6.6-6.24s-6.65,2.96-6.65,6.6
	s2.96,6.65,6.65,6.65c1.77,0,3.42-0.69,4.6-1.87c0.23-0.21,0.39-0.51,0.39-0.82c0-0.59-0.51-1.1-1.1-1.1
	c-0.33,0-0.64,0.21-0.87,0.44c-0.75,0.8-1.85,1.15-3,1.15c-2.21,0-4.01-1.51-4.39-3.62h9.97c0,0,0.06-0.01,0.09-0.02h0.04
	c0.48-0.11,0.9-0.57,0.9-1.15 M111.37,39.81c1.99,0,3.65,1.28,4.21,3.06h-8.45C107.7,41.09,109.35,39.81,111.37,39.81 M78.53,43.87
	c-0.05-3.36-3.06-6.24-6.6-6.24s-6.65,2.96-6.65,6.6c-0.02,3.66,2.93,6.64,6.59,6.65h0.06c1.77,0,3.42-0.69,4.6-1.88
	c0.23-0.21,0.39-0.51,0.39-0.82c0-0.59-0.51-1.1-1.11-1.1c-0.33,0-0.64,0.21-0.87,0.44c-0.75,0.8-1.85,1.15-3.01,1.15
	c-2.21,0-4.01-1.51-4.39-3.62h9.97c0,0,0.04,0,0.05-0.01c0.04,0,0.08-0.01,0.11-0.02C78.14,44.89,78.53,44.45,78.53,43.87
	 M71.93,39.81c1.99,0,3.65,1.28,4.21,3.06h-8.45C68.25,41.09,69.91,39.81,71.93,39.81 M156.91,43.2c0-1.82-1.59-3.42-3.42-3.42
	s-3.42,0.72-3.42,3.29v6.65c0,0.57-0.54,1.05-1.08,1.05c-0.59,0-1.1-0.49-1.1-1.05V38.78c0-0.57,0.51-1.05,1.1-1.05
	c0.51,0,1.05,0.46,1.08,1c0.93-0.72,2.11-1.1,3.39-1.1c2.98,0,5.63,2.34,5.63,5.27v6.83c0,0.57-0.54,1.05-1.08,1.05
	c-0.59,0-1.1-0.49-1.1-1.05C156.91,49.73,156.91,43.2,156.91,43.2z M143.61,38.78c0-0.57,0.51-1.05,1.1-1.05
	c0.54,0,1.08,0.49,1.08,1.05v10.94c0,0.56-0.54,1.05-1.08,1.05c-0.59,0-1.1-0.49-1.1-1.05v-0.54c-1.18,1.05-2.72,1.7-4.42,1.7
	c-3.66,0.02-6.64-2.93-6.65-6.59v-0.06c0-3.65,2.95-6.6,6.65-6.6c1.69,0,3.24,0.64,4.42,1.7V38.78L143.61,38.78L143.61,38.78z
	 M139.19,48.67c2.47,0,4.42-1.95,4.42-4.44s-1.95-4.42-4.42-4.42s-4.44,1.95-4.44,4.42S136.7,48.67,139.19,48.67 M129.66,37.73
	c-0.59,0-1.1,0.49-1.1,1.05v10.94c0,0.57,0.51,1.05,1.1,1.05c0.54,0,1.08-0.49,1.08-1.05V38.78
	C130.74,38.21,130.2,37.73,129.66,37.73 M122,43.07v6.65c0,0.57-0.54,1.05-1.08,1.05c-0.59,0-1.1-0.49-1.1-1.05V38.78
	c0-0.57,0.51-1.05,1.1-1.05c0.51,0,1.05,0.46,1.08,1c0.9-0.69,2.06-1.08,3.31-1.1c0.69,0,1.21,0.54,1.21,1.08
	c0,0.59-0.54,1.13-1.21,1.13c-1.72,0.05-3.31,0.67-3.31,3.24 M92.13,39.32c1.16-1.05,2.72-1.7,4.42-1.7
	c3.66-0.02,6.64,2.93,6.65,6.59v0.06c0,3.65-2.95,6.6-6.65,6.6c-1.69,0-3.26-0.64-4.42-1.7v5.68c0,0.57-0.51,1.05-1.1,1.05
	c-0.54,0-1.08-0.49-1.08-1.05V38.77c0-0.57,0.54-1.05,1.08-1.05c0.59,0,1.1,0.49,1.1,1.05C92.13,38.77,92.13,39.32,92.13,39.32z
	 M96.55,39.83c-2.47,0-4.42,1.95-4.42,4.44s1.95,4.42,4.42,4.42s4.44-1.95,4.44-4.42S99.04,39.83,96.55,39.83 M81.14,50.29
	c-0.21,0.31-0.54,0.46-0.9,0.46c-0.21,0-0.44-0.05-0.62-0.15c-0.28-0.18-0.49-0.57-0.49-0.95c0-0.18,0.05-0.36,0.15-0.51l3.08-4.85
	l-3.08-4.86c-0.1-0.15-0.15-0.36-0.15-0.54c0-0.36,0.18-0.74,0.51-0.92c0.17-0.1,0.37-0.15,0.57-0.15c0.36,0,0.72,0.15,0.93,0.46
	l2.52,3.98l2.54-3.98c0.21-0.31,0.57-0.46,0.93-0.46c0.21,0,0.38,0.05,0.56,0.15c0.33,0.18,0.51,0.57,0.51,0.92
	c0,0.18-0.05,0.39-0.15,0.54l-3.08,4.86l3.08,4.85c0.1,0.15,0.15,0.33,0.15,0.51c0,0.38-0.2,0.77-0.49,0.95
	c-0.18,0.1-0.41,0.15-0.62,0.15c-0.36,0-0.69-0.15-0.9-0.46l-2.54-3.96l-2.52,3.96H81.14z M129.64,36.11c0.73,0,1.33-0.59,1.33-1.33
	l0,0c0-0.74-0.59-1.33-1.33-1.33s-1.33,0.6-1.33,1.33S128.91,36.11,129.64,36.11"/>
<path class="st6" d="M54.69,112.68c-0.02,0.05-0.07,0.09-0.12,0.09h-0.76c0,0-0.09-0.05-0.09-0.1v-7.64c0-0.05,0.04-0.09,0.09-0.09
	h1.65c0,0,0.09,0.04,0.09,0.09c0.01,1.65,0.01,3.3,0.01,4.94C55.56,110.83,54.99,111.86,54.69,112.68"/>
<path class="st6" d="M55.71,112.25c-0.09-0.08-0.11-0.21-0.04-0.29l0.01-0.01l5.39-5.39c0,0,0.09-0.04,0.12,0l1.13,1.16
	c0,0,0.03,0.09,0,0.13c-1.22,1.23-2.44,2.45-3.67,3.66c-0.55,0.54-1.62,0.83-2.33,1.17c-0.04,0.02-0.09,0-0.13-0.03l-0.48-0.39
	C55.71,112.26,55.71,112.25,55.71,112.25z"/>
<path class="st6" d="M47.65,109.35c0,0-0.17-0.1-0.23-0.18c-0.03-0.04-0.03-0.1,0-0.14l1.17-1.17c0,0,0.09-0.03,0.12,0
	c1.18,1.18,2.36,2.35,3.53,3.52c0.61,0.61,0.93,1.73,1.27,2.52c0.02,0.05,0.01,0.11-0.02,0.15l-0.54,0.56c0,0-0.08,0.03-0.12,0l0,0
	c-1.72-1.76-3.45-3.51-5.19-5.26"/>
<path class="st6" d="M58.41,112.82c2.26,0.02,4.51,0.02,6.76-0.02c0.05,0,0.09,0.04,0.09,0.08l0,0l-0.01,1.69
	c0,0.05-0.04,0.09-0.09,0.09c-1.65,0.01-3.29,0.01-4.93,0c-0.88,0-1.92-0.57-2.74-0.88c-0.05-0.02-0.08-0.06-0.09-0.11v-0.79
	c0,0,0.04-0.09,0.09-0.09C57.8,112.77,58.16,112.82,58.41,112.82"/>
<path class="st6" d="M45.81,116.42c0.01-0.57-0.03-1.13-0.01-1.68c0-0.05,0.04-0.08,0.1-0.08l0,0c1.68,0.01,3.37,0.02,5.05,0
	c0.85,0,1.89,0.57,2.68,0.88c0.04,0.02,0.08,0.07,0.07,0.12v0.76c0,0-0.05,0.09-0.09,0.09H45.9
	C45.9,116.51,45.82,116.46,45.81,116.42L45.81,116.42z"/>
<path class="st6" d="M57.58,115.24c0.14-0.16,0.36-0.4,0.53-0.53c0.04-0.03,0.09-0.03,0.13,0l5.44,5.45c0,0,0.03,0.09,0,0.12l0,0
	l-1.18,1.21c0,0-0.09,0.03-0.12,0c-1.19-1.17-2.37-2.35-3.53-3.54c-0.61-0.63-0.94-1.77-1.28-2.58c-0.02-0.05-0.01-0.11,0.02-0.14"
	/>
<path class="st6" d="M56.23,117.08c0.22-0.57,0.48-0.76,1.08-0.55c0.05,0.02,0.08,0.06,0.08,0.12v7.64c0,0-0.04,0.09-0.09,0.09
	h-1.66c0,0-0.08-0.06-0.08-0.1c-0.01-1.7-0.02-3.39,0-5.08C55.56,118.47,55.97,117.76,56.23,117.08"/>
<path class="st6" d="M55.46,117.22c0,0,0.02,0.06,0,0.09l0,0l-5.4,5.39c0,0-0.09,0.04-0.13,0l-1.17-1.14c0,0-0.03-0.09,0-0.12l0,0
	c1.15-1.16,2.31-2.32,3.47-3.48c0.62-0.63,1.68-0.94,2.48-1.31c0.06-0.03,0.12-0.02,0.15,0l0.6,0.55
	C55.46,117.2,55.46,117.22,55.46,117.22z"/>
<path class="st7" d="M85.88,112.09c0.72,0,1.3,0.58,1.3,1.3s-0.58,1.3-1.3,1.3s-1.3-0.58-1.3-1.3S85.16,112.09,85.88,112.09"/>
<path class="st7" d="M103.2,112.09c0.72,0,1.3,0.58,1.3,1.3s-0.58,1.3-1.3,1.3s-1.3-0.58-1.3-1.3S102.48,112.09,103.2,112.09"/>
<path class="st7" d="M151.46,112.1c0.72,0,1.3,0.58,1.3,1.3s-0.58,1.3-1.3,1.3s-1.3-0.58-1.3-1.3S150.74,112.1,151.46,112.1"/>
<path class="st7" d="M76.43,124.38c5.46-1.02,5.09-9.31-0.63-9.78c-0.95-0.08-1.9-0.09-2.84-0.04c-0.05,0-0.08,0.04-0.08,0.09v9.76
	c0,0,0.04,0.09,0.09,0.09C74.54,124.56,75.69,124.52,76.43,124.38 M81.55,122.67c-2.25,4.26-6.63,3.74-10.54,3.65
	c-0.05,0-0.09-0.04-0.09-0.09v-13.42c0,0,0.04-0.09,0.08-0.09c1.96-0.05,3.53-0.05,4.71,0c3.2,0.11,5.8,1.97,6.46,5.2
	c0.35,1.72,0.14,3.31-0.62,4.76"/>
<path class="st7" d="M109.2,119.19c-0.88,1.29-0.95,2.64-0.21,4.06c0.85,1.63,2.99,1.92,4.38,0.95c1.96-1.37,1.77-4.9-0.51-5.89
	C111.65,117.79,109.98,118.04,109.2,119.19 M114.75,124.75c-1.29,1.54-2.92,2.03-4.91,1.48c-3.51-0.98-4.13-5.91-1.92-8.42
	c1.53-1.74,5.14-2.17,6.62,0.09c0.13,0.2,0.2,0.18,0.2-0.06v-5.03c0,0,0.05-0.09,0.09-0.09h1.69c0,0,0.08,0.04,0.08,0.09v13.44
	c0,0-0.04,0.09-0.08,0.09l-1.62,0.03c0,0-0.08-0.04-0.08-0.08l0,0l-0.01-1.51c0-0.06-0.02-0.06-0.06-0.02"/>
<path class="st7" d="M142.74,116.49l0.03-2.4c0,0,0.04-0.09,0.09-0.09h1.68c0,0,0.09,0.04,0.09,0.09l0.03,2.4
	c0,0,0.04,0.09,0.09,0.09l2.79,0.02c0,0,0.09,0.04,0.09,0.08l0,0v1.53c0,0.05-0.04,0.08-0.09,0.08l-2.81,0.03
	c0,0-0.08,0.04-0.08,0.08c0,1.35,0.01,2.69,0,4.02c0,0.73,0.06,1.22,0.18,1.47c0.51,1.09,2,1.02,2.91,0.44
	c0.11-0.07,0.25-0.03,0.32,0.08c0,0.01,0.02,0.03,0.02,0.04l0.4,1.04c0,0,0,0.1-0.04,0.13c-2.32,1.61-5.63,0.94-5.66-2.41
	c-0.01-1.6-0.02-3.21-0.02-4.81c0-0.05-0.04-0.09-0.09-0.09l-1.85-0.03c0,0-0.09-0.04-0.09-0.09v-1.52c0,0,0.03-0.09,0.08-0.09
	l1.86-0.02c0,0,0.09-0.04,0.09-0.09"/>
<path class="st7" d="M158.34,116.58l2.79,0.02c0,0,0.09,0.04,0.09,0.09v1.52c0,0-0.03,0.08-0.08,0.08l0,0l-2.8,0.02
	c0,0-0.08,0.04-0.09,0.09c-0.02,1.49-0.02,2.99,0,4.47c0.02,2.07,1.71,2.27,3.2,1.41c0.04-0.03,0.1-0.01,0.12,0.03v0.01l0.47,1.23
	c0,0,0,0.1-0.04,0.13c-2.16,1.37-5.62,0.98-5.64-2.26c-0.01-1.68-0.02-3.36-0.01-5.04c0-0.05-0.04-0.08-0.09-0.09l-1.9-0.02
	c0,0-0.09-0.04-0.09-0.09v-1.51c0,0,0.04-0.08,0.09-0.08l1.89-0.03c0,0,0.08-0.04,0.08-0.09l0.02-2.41c0,0,0.04-0.09,0.08-0.09h1.71
	c0,0,0.09,0.04,0.09,0.08l0.02,2.42c0,0,0.04,0.09,0.09,0.09"/>
<path class="st7" d="M124.58,118.08c-1.82-0.48-3.53,0.45-3.74,2.39c0,0.04,0.03,0.08,0.07,0.09h5.08c0.08,0,0.15-0.06,0.15-0.15
	v-0.02c-0.11-1.03-0.44-2.02-1.57-2.32 M122.21,126.22c-4.97-1.32-4.21-9.6,1.23-9.88c3.56-0.18,4.67,2.47,4.58,5.58
	c0,0.05-0.04,0.09-0.09,0.09h-7.08c0,0-0.06,0.03-0.06,0.07l0,0c0.3,2.49,2.79,3.28,4.85,2.24c0.18-0.09,0.52-0.38,1.02-0.85
	c0.04-0.04,0.1-0.04,0.13,0l0,0l0.91,0.96c0.03,0.04,0.03,0.09,0,0.14c-1.39,1.64-3.42,2.2-5.48,1.65"/>
<path class="st7" d="M132.07,118.17c0,0.07,0.02,0.07,0.05,0.02c0.85-1.25,1.97-1.87,3.34-1.86c2.09,0.02,3.49,1.28,3.5,3.42
	c0.02,2.16,0.02,4.32,0.01,6.49c0,0.05-0.04,0.09-0.08,0.09h-1.7c0,0-0.09-0.06-0.09-0.11c0-1.87-0.01-3.74-0.01-5.6
	c0-1.95-1.23-3.22-3.23-2.34c-1.37,0.6-1.72,1.83-1.72,3.22c0,1.58,0,3.16-0.01,4.74c0,0.05-0.04,0.09-0.08,0.09h-1.7
	c0,0-0.09-0.06-0.09-0.11v-9.57c0,0,0.04-0.09,0.09-0.09h1.63c0.05,0,0.09,0.03,0.09,0.08L132.07,118.17L132.07,118.17z"/>
<path class="st7" d="M97.52,120.91c0-1.57-1.29-2.83-2.85-2.82h-0.56c-1.57,0.01-2.83,1.29-2.82,2.86v0.66
	c0.01,1.57,1.29,2.83,2.86,2.82h0.56c1.57-0.01,2.83-1.29,2.82-2.86v-0.66H97.52z M97.57,117.95l0.06-1.3
	c0-0.05,0.04-0.09,0.08-0.09h1.64c0,0,0.08,0.05,0.08,0.1c0.03,4.51,0.03,7.65,0,9.43c-0.05,2.6-1.71,4.41-4.25,4.76
	c-2.37,0.32-4.86-0.74-5.76-3.1c-0.02-0.05,0-0.1,0.04-0.12l1.44-0.73c0,0,0.1,0,0.12,0.04c0.82,1.67,2.12,2.4,3.88,2.2
	c2.65-0.3,2.83-2.48,2.64-4.62c0-0.06-0.02-0.06-0.06-0.01c-1.09,1.63-3.16,1.9-4.92,1.39c-4.82-1.39-4.06-9.27,1.28-9.53
	c1.33-0.07,2.96,0.38,3.67,1.59C97.54,118.01,97.56,118.01,97.57,117.95"/>
<path class="st7" d="M85.05,116.55h1.72c0.06,0,0.1,0.05,0.1,0.1v9.59c0,0.06-0.04,0.1-0.1,0.1h-1.72c-0.06,0-0.1-0.05-0.1-0.1
	v-9.59C84.95,116.59,85,116.55,85.05,116.55"/>
<path class="st7" d="M102.38,116.55h1.71c0.06,0,0.11,0.05,0.11,0.11v9.58c0,0.06-0.05,0.11-0.11,0.11h-1.71
	c-0.06,0-0.11-0.05-0.11-0.11v-9.58C102.27,116.6,102.32,116.55,102.38,116.55"/>
<path class="st7" d="M150.65,116.55h1.71c0.06,0,0.11,0.05,0.11,0.11v9.58c0,0.06-0.05,0.11-0.11,0.11h-1.71
	c-0.06,0-0.11-0.05-0.11-0.11v-9.58C150.54,116.6,150.59,116.55,150.65,116.55"/>
<path class="st7" d="M170.71,124.4c-0.25,0.25-0.4,0.62-0.66,0.82c-1.76,1.31-4.33,1.21-5.61-0.66c-0.67-0.98-0.65-1.89-0.67-3.29
	c-0.02-1.53-0.01-3.07,0-4.6c0-0.05,0.04-0.09,0.09-0.09h1.73c0,0,0.09,0.04,0.09,0.09c0,1.59,0,3.18,0.01,4.76
	c0,1.7,0.48,3.01,2.38,2.95c2.07-0.06,2.72-1.74,2.73-3.55c0-1.38,0.02-2.76,0.02-4.14c0-0.05,0.04-0.09,0.09-0.09h1.66
	c0,0,0.08,0.04,0.08,0.09c0.03,5.2,0.02,8.4,0,9.6c-0.14,5.5-7.85,6.28-9.42,1.44c-0.01-0.05,0-0.1,0.05-0.12l1.54-0.64
	c0,0,0.09,0,0.1,0.04l0,0c0.41,1.29,1.29,2.01,2.65,2.14c3.26,0.32,3.29-2.42,3.2-4.74c0-0.06-0.02-0.07-0.07-0.03"/>
<rect x="85.12" y="184.26" class="st8" width="3.26" height="15.34"/>
<polygon class="st8" points="102,199.6 94.69,189.59 94.69,199.6 91.42,199.6 91.42,184.26 94.78,184.26 101.89,193.89 
	101.89,184.26 105.15,184.26 105.15,199.6 "/>
<path class="st8" d="M107.15,197.44l1.77-2.48c1.08,1.13,2.76,2.07,4.87,2.07c1.79,0,2.67-0.83,2.67-1.7c0-2.71-8.83-0.85-8.83-6.62
	c0-2.55,2.21-4.67,5.82-4.67c2.44,0,4.46,0.74,5.98,2.14l-1.82,2.39c-1.24-1.15-2.9-1.68-4.46-1.68c-1.4,0-2.18,0.62-2.18,1.54
	c0,2.44,8.81,0.81,8.81,6.53c0,2.81-2,4.92-6.14,4.92C110.7,199.88,108.58,198.89,107.15,197.44"/>
<path class="st8" d="M121.98,193.48v-9.22h3.31v9.11c0,2.14,1.24,3.61,3.61,3.61s3.59-1.47,3.59-3.61v-9.11h3.33v9.2
	c0,3.82-2.25,6.42-6.92,6.42S121.98,197.26,121.98,193.48"/>
<path class="st8" d="M147.51,199.6l-3.01-5.45h-2.39v5.45h-3.26v-15.34h7.18c3.2,0,5.15,2.09,5.15,4.94s-1.7,4.16-3.36,4.55
	l3.45,5.84L147.51,199.6L147.51,199.6z M147.83,189.2c0-1.29-0.99-2.07-2.3-2.07h-3.43v4.14h3.43
	C146.84,191.27,147.83,190.49,147.83,189.2"/>
<polygon class="st8" points="153.63,199.6 153.63,184.26 164.48,184.26 164.48,187.13 156.89,187.13 156.89,190.38 164.32,190.38 
	164.32,193.25 156.89,193.25 156.89,196.72 164.48,196.72 164.48,199.6 "/>
<path class="st8" d="M81.01,188.02c0-2.46-2-4.46-4.46-4.46s-4.46,1.99-4.46,4.46l0,0v8.83c0,2.07-1.68,3.75-3.75,3.75
	c-0.58,0-1.12-0.13-1.61-0.36l0,0c1.34,2.23,3.74,3.71,6.49,3.71c4.3,0,7.79-3.56,7.79-7.95V188.02L81.01,188.02L81.01,188.02z"/>
<path class="st8" d="M64.6,196.99v-4.85h0.02c0-0.17-0.01-0.34-0.02-0.51v-13.27c0-3.18-2.58-5.76-5.76-5.76s-5.76,2.58-5.76,5.76
	v18.55c0,7.69,6.23,13.92,13.92,13.92c5.5,0,10.26-3.19,12.51-7.82c-1.58,1.63-3.79,2.65-6.24,2.65
	C68.48,205.66,64.6,201.78,64.6,196.99"/>
<path class="st8" d="M76.56,181.51c2.46,0,4.46-2,4.46-4.46s-2-4.46-4.46-4.46s-4.46,2-4.46,4.46S74.1,181.51,76.56,181.51"/>
<path class="st0" d="M220.13,8.47h181.38c3.55,0,6.43,2.88,6.43,6.43v50.67c0,3.55-2.88,6.43-6.43,6.43H220.13
	c-3.55,0-6.43-2.88-6.43-6.43V14.9C213.7,11.35,216.58,8.47,220.13,8.47z"/>
<path class="st0" d="M219.5,84.14h181.38c3.55,0,6.43,2.88,6.43,6.43v50.67c0,3.55-2.88,6.43-6.43,6.43H219.5
	c-3.55,0-6.43-2.88-6.43-6.43V90.57C213.07,87.02,215.95,84.14,219.5,84.14z"/>
<path class="st0" d="M15.39,312.7h181.38c3.55,0,6.43,2.88,6.43,6.43v50.67c0,3.55-2.88,6.43-6.43,6.43H15.39
	c-3.55,0-6.43-2.88-6.43-6.43v-50.67C8.96,315.58,11.84,312.7,15.39,312.7z"/>
<path class="st0" d="M220.13,160.59h181.38c3.55,0,6.43,2.88,6.43,6.43v50.67c0,3.55-2.88,6.43-6.43,6.43H220.13
	c-3.55,0-6.43-2.88-6.43-6.43v-50.67C213.7,163.47,216.58,160.59,220.13,160.59z"/>
<path class="st0" d="M220.13,236.64h181.38c3.55,0,6.43,2.88,6.43,6.43v50.67c0,3.55-2.88,6.43-6.43,6.43H220.13
	c-3.55,0-6.43-2.88-6.43-6.43v-50.67C213.7,239.52,216.58,236.64,220.13,236.64z"/>
<path class="st9" d="M273.91,182.78h-8.82c0,0-0.02,0-0.02,0.02v8.92c0,0,0,0.02,0.02,0.02h8.82c0,0,0.02,0,0.02-0.02v-8.92
	C273.93,182.8,273.92,182.78,273.91,182.78"/>
<path d="M296.04,185.27c-0.05-0.09-0.08-0.19-0.09-0.29c-0.02-0.18-0.06-0.35-0.14-0.51c-0.02-0.04-0.11-0.19-0.27-0.44
	c-0.2-0.32-0.44-0.62-0.72-0.9s-0.56-0.54-0.83-0.78c-0.15-0.13-0.46-0.37-0.91-0.69c-0.29-0.21-0.64-0.47-1.07-0.81
	c-0.38-0.3-0.69-0.58-0.91-0.85c-0.14-0.16-0.21-0.24-0.21-0.25c-0.05-0.08-0.09-0.18-0.12-0.3c-0.07-0.26-0.13-0.51-0.19-0.74
	c-0.03-0.11-0.02-0.22,0.03-0.32c0.05-0.11,0.09-0.23,0.13-0.34c0.05-0.16,0.09-0.27,0.13-0.34c0.14-0.24,0.32-0.41,0.53-0.51
	c1.03-0.5,1.94-0.33,2.72,0.51c0.26,0.28,0.52,0.56,0.78,0.85c0.02,0.02,0.04,0.02,0.06,0l1-0.83c0,0,0.02-0.04,0-0.06
	c-0.39-0.44-0.79-0.85-1.2-1.22c-0.1-0.09-0.21-0.17-0.32-0.24c-0.12-0.07-0.23-0.14-0.35-0.21c-0.2-0.12-0.38-0.2-0.55-0.25
	c-0.58-0.16-1.15-0.2-1.72-0.1c-0.96,0.17-1.71,0.68-2.25,1.53c-0.1,0.15-0.17,0.37-0.22,0.64c-0.11,0.58-0.12,1.13-0.03,1.65
	c0.06,0.35,0.19,0.68,0.39,0.99c0.24,0.37,0.53,0.71,0.88,1c0.42,0.35,0.9,0.73,1.44,1.13c0.35,0.26,0.7,0.55,1.04,0.87
	c0.51,0.48,0.83,0.79,0.96,0.94c0.31,0.36,0.54,0.78,0.68,1.25c0.06,0.18,0.08,0.33,0.07,0.45c0,0.14-0.04,0.29-0.09,0.46
	c-0.23,0.72-0.66,1.23-1.29,1.53c-0.22,0.1-0.46,0.17-0.73,0.2c-0.25,0.03-0.51,0.03-0.76,0c-0.23-0.02-0.45-0.09-0.65-0.21
	c-0.33-0.2-0.63-0.44-0.88-0.74c-0.18-0.22-0.35-0.43-0.49-0.64c-0.15-0.22-0.28-0.46-0.38-0.72c0-0.02-0.04-0.03-0.06-0.01
	c-0.33,0.27-0.66,0.48-0.99,0.62c-0.05,0.02-0.08,0.08-0.05,0.14c0.22,0.45,0.48,0.88,0.79,1.27c0.33,0.43,0.69,0.76,1.07,1.02
	c0.37,0.24,0.77,0.43,1.2,0.56c0.41,0.12,0.82,0.16,1.24,0.12c1.1-0.11,2-0.6,2.71-1.48c0.18-0.22,0.29-0.35,0.31-0.39
	c0.1-0.14,0.17-0.29,0.21-0.46c0,0,0.01-0.08,0.03-0.24c0.01-0.09,0.05-0.19,0.1-0.29c0.22-0.4,0.26-0.83,0.13-1.28
	c-0.01-0.04-0.06-0.13-0.14-0.27"/>
<path d="M310.21,179.78c-0.43-0.97-1.1-1.84-2.01-2.59c-0.6-0.5-1.21-0.86-1.85-1.08c0,0-0.18-0.07-0.5-0.2
	c-0.22-0.09-0.5-0.15-0.82-0.19c-1.1-0.13-2.08-0.12-2.96,0.03c-0.26,0.05-0.48,0.11-0.67,0.19c-0.25,0.11-0.39,0.17-0.39,0.17
	c-0.68,0.26-1.3,0.62-1.86,1.08c-0.38,0.31-0.73,0.69-1.06,1.13c-0.31,0.42-0.58,0.86-0.82,1.33c-0.05,0.11-0.1,0.23-0.13,0.35
	c-0.03,0.12-0.07,0.23-0.12,0.35c-0.1,0.22-0.18,0.5-0.24,0.84c-0.16,0.9-0.19,1.7-0.11,2.4c0.04,0.29,0.08,0.58,0.13,0.87
	c0.03,0.17,0.09,0.32,0.18,0.47c0.06,0.1,0.11,0.21,0.14,0.32c0.05,0.16,0.09,0.27,0.12,0.33c0.65,1.3,1.58,2.33,2.79,3.09
	c0.46,0.29,0.96,0.51,1.49,0.68c0.69,0.21,1.4,0.32,2.12,0.35c0.48,0.01,0.97-0.03,1.49-0.15c0.55-0.12,1.03-0.27,1.43-0.44
	c1.23-0.53,2.22-1.36,2.98-2.48c0.31-0.46,0.57-0.94,0.76-1.45c0.47-1.24,0.58-2.53,0.33-3.88c-0.12-0.64-0.26-1.14-0.42-1.5
	 M309.34,183.25c-0.01,0.34-0.06,0.65-0.15,0.94c-0.22,0.69-0.53,1.32-0.95,1.9c-0.3,0.42-0.67,0.78-1.1,1.09
	c-0.59,0.42-1.24,0.75-1.95,0.99c-0.16,0.05-0.32,0.08-0.49,0.09c-0.68,0.04-1.35,0.04-2.03,0.01c-0.18,0-0.35-0.04-0.51-0.1
	c-1.72-0.56-2.95-1.64-3.71-3.22c-0.13-0.26-0.22-0.56-0.28-0.89c-0.11-0.59-0.15-1.06-0.14-1.42c0-0.29,0.07-0.77,0.18-1.44
	c0.06-0.32,0.14-0.61,0.25-0.85c0.24-0.52,0.55-1,0.92-1.44c0.43-0.51,0.93-0.92,1.51-1.25c0.1-0.05,0.32-0.17,0.67-0.34
	c0.11-0.05,0.23-0.1,0.37-0.13c0.11-0.02,0.23-0.05,0.38-0.09c0.91-0.23,1.82-0.23,2.73,0c0,0,0.14,0.03,0.38,0.08
	c0.12,0.02,0.23,0.06,0.34,0.11c0.14,0.07,0.22,0.11,0.23,0.11c1.59,0.71,2.65,1.9,3.16,3.57c0.04,0.12,0.07,0.23,0.11,0.32
	c0.04,0.12,0.07,0.22,0.07,0.32c0.04,0.54,0.04,1.07,0.03,1.61"/>
<path d="M355.18,180.65c-0.02-0.11-0.05-0.22-0.1-0.33c-0.09-0.18-0.14-0.29-0.14-0.3c-0.52-1.32-1.36-2.39-2.53-3.2
	c-0.47-0.33-0.97-0.58-1.51-0.75c-0.09-0.03-0.22-0.09-0.38-0.18c-0.15-0.08-0.31-0.13-0.48-0.15c-0.17-0.02-0.26-0.03-0.27-0.03
	c-0.71-0.11-1.41-0.13-2.13-0.08c-0.36,0.03-0.62,0.06-0.78,0.08c-0.27,0.05-0.52,0.12-0.75,0.23c-0.13,0.06-0.24,0.1-0.33,0.14
	c-0.19,0.07-0.29,0.1-0.29,0.1c-0.82,0.33-1.54,0.82-2.15,1.45c-0.44,0.45-0.81,0.95-1.11,1.5c-0.08,0.15-0.17,0.3-0.25,0.45
	c-0.06,0.1-0.1,0.21-0.13,0.35c-0.03,0.12-0.07,0.24-0.11,0.36c-0.39,1-0.53,2.04-0.4,3.11c0.1,0.91,0.34,1.71,0.7,2.4
	c0.63,1.2,1.56,2.18,2.79,2.94c0.36,0.22,0.74,0.4,1.13,0.53c2.17,0.73,4.24,0.52,6.18-0.65c1.32-0.79,2.27-1.94,2.84-3.45
	c0.01-0.03,0.05-0.12,0.13-0.28c0.05-0.09,0.08-0.19,0.1-0.3c0.09-0.44,0.15-0.88,0.21-1.33c0.07-0.59,0.05-1.18-0.06-1.76
	c-0.05-0.28-0.1-0.57-0.15-0.85 M353.93,183.85c-0.07,0.4-0.19,0.8-0.38,1.2c-0.17,0.37-0.39,0.73-0.65,1.06
	c-0.79,1-1.82,1.68-3.07,2.05c-0.29,0.08-0.59,0.13-0.93,0.14c-0.41,0-0.82,0-1.23-0.02s-0.77-0.09-1.08-0.19
	c-0.76-0.26-1.44-0.66-2.03-1.2c-0.36-0.33-0.65-0.65-0.88-0.97c-0.24-0.34-0.45-0.73-0.62-1.17c-0.12-0.32-0.21-0.62-0.28-0.89
	c-0.06-0.24-0.08-0.54-0.08-0.92v-0.72c0-0.27,0.02-0.51,0.07-0.71c0.23-0.99,0.66-1.86,1.3-2.59c1.21-1.39,2.75-2.04,4.6-1.96
	c0.24,0.01,0.53,0.05,0.86,0.13c0.19,0.04,0.38,0.09,0.57,0.13c0.2,0.04,0.39,0.11,0.55,0.18c0.52,0.25,0.99,0.55,1.41,0.89
	c0.41,0.33,0.76,0.72,1.06,1.18c0.09,0.14,0.2,0.33,0.32,0.58c0.06,0.13,0.13,0.27,0.19,0.4c0.07,0.14,0.12,0.28,0.16,0.41
	C354.05,181.87,354.1,182.87,353.93,183.85"/>
<path d="M318.25,188.02h-2.49c0,0-0.3,0-0.88,0.01c-0.53,0-1.05,0-1.57-0.05c-0.06,0-0.11-0.06-0.11-0.12
	c0.02-0.36,0.04-0.71,0.03-1.03v-9.81c0,0,0-0.17,0.01-0.51c0-0.18,0-0.35-0.02-0.52c0-0.02-0.02-0.04-0.05-0.05
	c-0.35-0.06-0.74-0.08-1.17-0.05c-0.05,0-0.09,0.04-0.09,0.09v13.23c0,0.07,0.06,0.14,0.14,0.14c2.12,0.07,4.2,0.06,6.26-0.01
	c0.02,0,0.04-0.02,0.04-0.04v-1.17c0-0.06-0.05-0.11-0.12-0.11"/>
<path d="M328.26,175.93c-0.4-0.04-0.79-0.05-1.18-0.03c-0.05,0-0.1,0.05-0.1,0.1c-0.02,1.95-0.04,3.9-0.04,5.85
	c0,0.06,0,0.56,0.02,1.5c0,0.5,0,1-0.02,1.5c-0.02,0.54-0.04,0.89-0.07,1.05c-0.07,0.35-0.2,0.69-0.4,1c-0.37,0.58-0.87,1-1.49,1.25
	c-0.21,0.09-0.46,0.13-0.74,0.14h-0.77c-0.27,0-0.51-0.05-0.72-0.14c-0.71-0.28-1.26-0.76-1.68-1.42c-0.08-0.13-0.13-0.27-0.15-0.43
	c-0.09-0.67-0.13-1.34-0.13-2.01c0.01-2.77,0-5.54-0.01-8.32c0-0.03-0.03-0.06-0.06-0.06l-1.13-0.02c-0.07,0-0.12,0.06-0.12,0.13
	v1.41c-0.03,2.74-0.02,5.48,0.02,8.22v0.33c0,0.24,0.02,0.43,0.07,0.55c0.12,0.3,0.24,0.6,0.35,0.9c0.05,0.14,0.15,0.3,0.3,0.49
	c0.4,0.51,0.85,0.9,1.35,1.18c0.41,0.23,0.98,0.42,1.72,0.56c0.5,0.1,0.98,0.1,1.46,0c0.45-0.09,0.9-0.25,1.34-0.49
	c0.84-0.44,1.43-1.11,1.79-2.02c0.1-0.26,0.19-0.51,0.26-0.76c0.07-0.26,0.12-0.52,0.14-0.79c0.06-0.69,0.09-1.38,0.08-2.07
	c0-2.51-0.02-5.03-0.03-7.54c0-0.02-0.02-0.04-0.04-0.04"/>
<path d="M336.82,175.88c-2.43,0.05-4.83,0.06-7.2,0.02c-0.02,0-0.04,0.02-0.04,0.04l-0.02,1.11c0,0.07,0.05,0.12,0.11,0.12
	l2.77,0.06c0,0,0.08,0.04,0.08,0.08l0.04,0.41v1.51c0,0.05,0,0.14,0.02,0.26v0.27c-0.01,0.26-0.02,0.39-0.02,0.4v9.12
	c0,0.04,0.03,0.07,0.06,0.07l0.43-0.02l0.84,0.02c0,0,0.04-0.02,0.04-0.04c0.03-2.48,0.03-4.95,0.01-7.43v-1.99
	c0.01-0.82,0-1.67-0.01-2.54c0-0.07,0.05-0.13,0.12-0.13c0.43-0.03,0.87-0.04,1.34-0.01c0.49,0.02,0.96,0.02,1.42,0
	c0.05,0,0.09-0.04,0.09-0.09l-0.02-1.18c0,0-0.02-0.05-0.05-0.05"/>
<path d="M339.96,175.9h-1.31c0,0-0.02,0-0.02,0.02v13.41c0,0,0,0.02,0.02,0.02h1.31c0,0,0.02,0,0.02-0.02v-13.41
	C339.98,175.92,339.98,175.9,339.96,175.9"/>
<path d="M371.03,176.01c-1.59,0-2.89,1.29-2.89,2.88s1.29,2.89,2.89,2.89s2.89-1.29,2.89-2.89S372.63,176.01,371.03,176.01
	 M371.08,181.42c-1.38,0.02-2.51-1.11-2.52-2.52c-0.02-1.41,1.08-2.57,2.45-2.59c1.37-0.02,2.5,1.11,2.52,2.52
	S372.45,181.4,371.08,181.42"/>
<path d="M371.5,179.15c0,0,0-0.04,0.02-0.05c0.27-0.12,0.51-0.29,0.7-0.52c0.08-0.09,0.12-0.2,0.13-0.31v-0.32
	c0-0.13-0.05-0.25-0.12-0.35c-0.06-0.08-0.14-0.17-0.24-0.27c-0.1-0.1-0.21-0.16-0.34-0.18c-0.48-0.09-1.02-0.09-1.61,0
	c-0.15,0.02-0.2,0.11-0.16,0.27c0,1.27,0,2.16-0.02,2.65c-0.01,0.24,0,0.4,0.02,0.5c0.18,0.16,0.38,0.21,0.61,0.15
	c0.02,0,0.04-0.03,0.04-0.05l-0.03-1.32c0,0,0.01-0.05,0.04-0.05c0.25-0.06,0.43,0,0.54,0.17c0.25,0.38,0.51,0.76,0.79,1.13
	c0.02,0.02,0.04,0.04,0.06,0.04c0.18,0.05,0.37,0.07,0.56,0.06c0.02,0,0.04-0.02,0.03-0.04c-0.02-0.13-0.09-0.25-0.22-0.38
	c-0.11-0.11-0.37-0.48-0.8-1.11 M370.59,178.8c0,0-0.05-0.02-0.05-0.05c-0.03-0.12-0.04-0.23-0.03-0.34v-0.32
	c0-0.16-0.02-0.32-0.02-0.49c0-0.02,0.02-0.04,0.04-0.05c0.34-0.07,0.6-0.07,0.77-0.01c0.35,0.12,0.5,0.32,0.46,0.62
	c-0.02,0.19-0.12,0.34-0.29,0.45c-0.25,0.17-0.55,0.23-0.89,0.17"/>
<path d="M367.15,187.69c0.05-3.91,0.06-7.8,0.02-11.67c0-0.07-0.05-0.12-0.12-0.12h-1.03c-0.1,0-0.15,0.05-0.15,0.16
	c0,3.07,0,6.1-0.02,9.11c0,0.09,0,0.24,0.03,0.45c0.01,0.16,0.01,0.31,0,0.45c-0.01,0.1-0.05,0.11-0.11,0.04
	c-0.33-0.38-0.65-0.74-0.98-1.1c-0.26-0.29-0.57-0.66-0.95-1.12c-0.34-0.42-0.71-0.85-1.11-1.29c-0.84-0.93-1.72-1.93-2.64-3.02
	c-0.43-0.51-0.78-0.93-1.07-1.25c-1.15-1.32-1.85-2.1-2.1-2.35c-0.21-0.21-0.31-0.17-0.3,0.12c0.01,0.85,0.02,1.47,0.02,1.85
	c0,3.79-0.01,7.58-0.02,11.38c0,0.02,0.02,0.04,0.04,0.04h1.31c0,0,0.04-0.03,0.04-0.06c0.02-3.01,0.03-6.02,0.02-9.03
	c0-0.12-0.01-0.26-0.03-0.42c-0.02-0.13-0.03-0.27-0.04-0.42c0-0.03,0.03-0.06,0.06-0.05c0.17,0.03,0.3,0.12,0.38,0.29
	c0.05,0.1,0.22,0.31,0.51,0.62c0.26,0.27,0.44,0.47,0.55,0.59c0.3,0.34,0.61,0.69,0.91,1.03c1.31,1.53,2.63,3.05,3.97,4.56
	c0,0,0.26,0.28,0.76,0.83c0.34,0.38,0.67,0.77,0.98,1.18c0.11,0.15,0.24,0.28,0.37,0.41c0.14,0.2,0.31,0.37,0.52,0.51
	c0.17,0,0.24-0.09,0.23-0.26c-0.02-0.31-0.05-0.79-0.07-1.44 M357.65,188.93c0,0,0.07-0.05,0.1-0.05
	C357.72,188.88,357.68,188.9,357.65,188.93c-0.06,0.05-0.09,0.1-0.07,0.12l0,0C357.58,189.05,357.59,188.97,357.65,188.93
	 M357.72,189.01c0,0-0.07,0.05-0.1,0.05C357.65,189.06,357.69,189.04,357.72,189.01c0.05-0.05,0.08-0.1,0.07-0.12
	C357.81,188.91,357.78,188.97,357.72,189.01"/>
<path class="st9" d="M263.62,192.64h-8.82c0,0-0.02,0-0.02,0.02v8.89c0,0,0,0.02,0.02,0.02h8.82c0,0,0.02,0,0.02-0.02v-8.89
	C263.64,192.66,263.64,192.64,263.62,192.64"/>
<path class="st10" d="M273.95,201.14c-0.02-1.21-0.02-2.42-0.01-3.64c0.01-1.6,0.01-3.18,0-4.74c0-0.12-0.06-0.18-0.19-0.18
	c-0.62,0.03-1.18,0.04-1.7,0.04c-2.27-0.02-4.57-0.03-6.91-0.02c-0.05,0-0.08,0.04-0.08,0.09v8.77c0,0,0,0.06,0.03,0.08
	c0.01,0.01,0.04,0.02,0.07,0.02c2.92,0.04,5.85,0.04,8.77,0c0.02,0,0.04-0.02,0.04-0.04v-0.38H273.95z M266.34,193.89
	c0,0,0.04-0.08,0.08-0.08l5.94-0.02c0.11-0.03,0.2-0.02,0.27,0.03c0.05,0.04,0.08,0.11,0.08,0.22c0.05,2.07,0.05,4.13,0.02,6.2
	c-0.01,0.03-0.04,0.04-0.08,0.04h-1.9c0,0-0.17,0-0.52,0.02h-0.35c-0.16-0.01-0.28-0.01-0.35-0.01h-3.04c-0.1,0-0.16-0.05-0.16-0.16
	v-6.23L266.34,193.89L266.34,193.89z"/>
<path class="st9" d="M328.35,205.69c-1.56,0.07-3.11,0.06-4.67-0.03c-0.02,0-0.04-0.02-0.04-0.04c0-0.75,0.01-1.5,0.02-2.25
	c0-0.58,0.01-1.13,0-1.64c-0.02-3.39-0.02-6.78-0.02-10.16c0-0.05-0.04-0.09-0.09-0.09c-1.02,0.04-2.06,0.04-3.1,0
	c-0.04,0-0.07,0.03-0.08,0.07c0,2.75,0,5.48,0.02,8.17c0,0.34,0,0.8-0.02,1.38c-0.01,0.46-0.02,0.92-0.01,1.38
	c0,0.94,0.01,1.49,0.01,1.64c0,1.41,0,2.82,0.01,4.23c0,0.16,0,0.3-0.02,0.43c0,0.03,0.02,0.06,0.06,0.06
	c2.69,0.03,5.33,0.03,7.92,0c0.03,0,0.05-0.02,0.05-0.05v-3.07C328.39,205.72,328.36,205.68,328.35,205.69"/>
<path class="st9" d="M355.23,197.9c-2.02,0.04-4.01,0.04-5.97-0.02c-0.06,0-0.11-0.05-0.11-0.12l0.02-3.08c0,0,0.02-0.04,0.04-0.04
	h6.02c0,0,0.05-0.03,0.05-0.06l0.02-2.97c0-0.07-0.05-0.12-0.12-0.12c-2.95,0.03-5.94,0.03-8.96,0c-0.08,0-0.16-0.01-0.24-0.04
	c-0.07-0.02-0.09,0.01-0.08,0.11c0,0.05,0.01,0.09,0.01,0.11c-0.03,5.68-0.03,11.39,0,17.12c0,0.04,0.03,0.06,0.06,0.06l9.27-0.02
	c0,0,0.04-0.02,0.04-0.04l-0.02-3.03c0,0-0.02-0.04-0.04-0.04l-5.97-0.05c-0.07,0-0.12-0.06-0.12-0.13l0.02-4.46
	c0,0,0.02-0.05,0.05-0.05l6.05-0.03c0,0,0.04-0.02,0.04-0.04v-3c0,0-0.04-0.08-0.08-0.08"/>
<path class="st9" d="M296.43,199.54l-0.18-0.09c-0.14-0.07-0.24-0.17-0.33-0.29c-0.01-0.02,0-0.04,0.01-0.06
	c0.81-0.51,1.36-1.26,1.64-2.24c0.14-0.5,0.18-0.97,0.12-1.43c-0.02-0.17-0.08-0.37-0.18-0.61c-0.09-0.23-0.17-0.43-0.24-0.59
	c-0.19-0.44-0.45-0.84-0.77-1.2c-0.21-0.25-0.48-0.46-0.79-0.63c-1.03-0.59-2.15-0.87-3.36-0.87c-1.4,0-2.8,0-4.19-0.03
	c-0.02,0-0.04,0.02-0.04,0.04v11.65c0,1.86,0,3.72-0.02,5.57c0,0.05,0.04,0.08,0.08,0.08h0.86c1.15,0.01,2.31,0.03,3.46,0.04
	c0,0,0.21,0,0.61,0.01c0.64,0.02,1.22-0.04,1.73-0.16c0.26-0.06,0.47-0.11,0.63-0.14c0.12-0.02,0.23-0.06,0.32-0.1
	c0.11-0.05,0.21-0.1,0.31-0.15c0.2-0.09,0.35-0.17,0.46-0.24c0.71-0.44,1.27-1.04,1.69-1.8c0.23-0.42,0.41-0.86,0.53-1.3
	s0.16-0.9,0.14-1.38C298.85,201.83,298.02,200.48,296.43,199.54 M291.34,194.64c0.34,0,0.67,0.01,1.01,0.02
	c0.46,0.01,0.79,0.06,0.99,0.13c0.34,0.13,0.62,0.35,0.84,0.66c0.34,0.47,0.41,0.98,0.22,1.54c-0.21,0.59-0.61,0.95-1.22,1.09
	c-0.57,0.13-1.15,0.19-1.73,0.17c-0.07,0-0.12-0.06-0.12-0.12l-0.04-3.45c0,0,0.02-0.04,0.04-0.04 M295.69,203.77
	c-0.03,0.63-0.3,1.11-0.81,1.44c-0.15,0.1-0.36,0.18-0.63,0.23c-0.21,0.04-0.43,0.09-0.64,0.14c-0.24,0.06-0.46,0.09-0.65,0.1
	c-0.52,0.03-1.05,0.02-1.6-0.02c0,0-0.02,0-0.02-0.02c0-1.34-0.01-2.68-0.03-4.03v-0.15c-0.01-0.2,0.07-0.29,0.26-0.26
	c0.15,0.02,0.23,0.03,0.24,0.03c1.04,0.05,1.67,0.09,1.89,0.12c0.15,0.02,0.36,0.1,0.64,0.23c0.23,0.11,0.42,0.22,0.57,0.35
	c0.56,0.47,0.82,1.09,0.78,1.85"/>
<path class="st9" d="M311.64,199.93c0.01-2.76,0.01-5.55,0-8.37c0-0.04-0.04-0.08-0.08-0.07c-1.06,0.03-2.09,0.03-3.1-0.01
	c-0.02,0-0.04,0.02-0.05,0.04c-0.01,0.12-0.01,0.25,0,0.37c0.01,0.22,0.02,0.36,0.02,0.41c-0.02,1.78-0.02,3.55-0.01,5.33
	c-0.02,1.84-0.03,3.69-0.02,5.53c0,0.46-0.06,0.91-0.19,1.35c-0.11,0.37-0.27,0.66-0.5,0.87c-0.24,0.22-0.57,0.42-0.99,0.59
	c-0.68,0.17-1.35,0.14-2.01-0.08c-0.43-0.2-0.76-0.48-0.98-0.85c-0.16-0.26-0.27-0.62-0.34-1.08c-0.05-0.35-0.08-0.73-0.08-1.14
	c-0.02-2.9-0.02-5.05,0-6.47c0-0.86,0-1.71-0.02-2.57l-0.03-2.24c0,0-0.03-0.06-0.07-0.06c-0.97,0.05-1.98,0.06-3.04,0.02
	c-0.06,0-0.12,0.05-0.12,0.11c0.03,3.41,0.04,6.85,0.02,10.31v1.64c0.03,0.67,0.14,1.34,0.33,2.01c0.19,0.66,0.49,1.24,0.9,1.74
	c0.17,0.21,0.4,0.43,0.68,0.65s0.54,0.4,0.77,0.55c0.73,0.46,1.54,0.68,2.42,0.68c0.16,0,0.32,0,0.47,0.01c0.15,0,0.31,0.01,0.47,0
	c0.14,0,0.37,0,0.7-0.01c0.52,0,1.01-0.1,1.48-0.3c1.3-0.54,2.26-1.44,2.87-2.69c0.06-0.12,0.12-0.27,0.19-0.46
	c0.06-0.15,0.12-0.31,0.17-0.46c0.07-0.2,0.12-0.4,0.13-0.6c0.04-0.57,0.06-1.13,0.05-1.7c-0.02-1.01-0.03-2.02-0.02-3.04"/>
<path class="st9" d="M317.59,191.49h-3.19c0,0-0.04,0.01-0.04,0.03l-0.03,17.29c0,0,0.02,0.04,0.04,0.04h3.19
	c0,0,0.04-0.01,0.04-0.03l0.03-17.29C317.63,191.53,317.61,191.49,317.59,191.49"/>
<path class="st9" d="M368.25,208.79c-0.03-0.08-0.07-0.15-0.12-0.21c-0.07-0.08-0.12-0.15-0.14-0.2c-0.21-0.44-0.39-0.79-0.51-1.03
	c-0.56-1.07-1.32-2.5-2.27-4.3c0,0-0.15-0.28-0.43-0.83c-0.19-0.37-0.39-0.72-0.6-1.06c-0.02-0.04,0-0.08,0.04-0.09
	c0.85-0.27,1.55-0.73,2.12-1.36c0.37-0.42,0.65-0.87,0.84-1.34c0.1-0.25,0.16-0.55,0.18-0.91c0.05-0.73,0.04-1.47-0.02-2.2
	c-0.02-0.22-0.07-0.43-0.15-0.64s-0.17-0.41-0.27-0.61c-0.43-0.9-1.1-1.56-2-1.99c-0.24-0.11-0.49-0.19-0.75-0.24
	c-0.31-0.06-0.48-0.09-0.49-0.1c-0.55-0.12-1.15-0.17-1.81-0.17c-1.52,0-3.05,0-4.6-0.02c-0.02,0-0.04,0.02-0.04,0.04v17.23
	c0,0,0.02,0.04,0.05,0.04c0.58,0.04,1.16,0.06,1.74,0.05c0.45,0,0.89,0,1.33,0.01c0.04,0,0.07-0.03,0.07-0.07
	c-0.01-1.95,0-3.87,0.05-5.78v-0.78c0-0.26-0.02-0.52-0.02-0.78c0-0.02,0.02-0.04,0.04-0.04c0.19,0,0.32,0.08,0.4,0.23
	c0.21,0.43,0.43,0.85,0.66,1.27c0.35,0.64,0.57,1.05,0.68,1.26c0.72,1.37,1.44,2.74,2.17,4.1c0.08,0.15,0.15,0.31,0.2,0.47
	c0,0.03,0.03,0.05,0.05,0.06c0.1,0.05,0.22,0.07,0.36,0.08h1.89c0.42-0.02,0.87-0.02,1.35-0.01c0.03,0,0.05-0.03,0.04-0.06
	 M360.44,198.23l-0.05-3.56c0,0,0.02-0.04,0.04-0.04c0.68,0.02,1.36,0.04,2.04,0.06c0.26,0,0.46,0.04,0.61,0.08
	c0.21,0.07,0.4,0.18,0.55,0.31c0.6,0.53,0.79,1.19,0.58,1.98c-0.09,0.35-0.28,0.61-0.55,0.79c-0.17,0.12-0.46,0.2-0.87,0.27
	c-0.75,0.12-1.51,0.18-2.28,0.17c-0.03,0-0.06-0.03-0.06-0.06"/>
<path class="st9" d="M343.58,196.84c-0.04-0.15-0.1-0.3-0.18-0.45c-0.07-0.14-0.14-0.29-0.21-0.43c-0.14-0.3-0.25-0.52-0.33-0.65
	c-0.59-1.02-1.37-1.86-2.33-2.53c-0.28-0.2-0.58-0.37-0.88-0.51c-0.35-0.16-0.66-0.27-0.96-0.35c-0.26-0.06-0.84-0.18-1.74-0.33
	c-0.16-0.03-0.3-0.05-0.43-0.06c-0.17-0.01-0.32-0.02-0.44-0.02c-1.86,0-3.72-0.01-5.58-0.01c-0.01,0-0.02,0-0.02,0.02v2.45
	c0,0.46-0.01,0.87,0,1.23v1.23c0,0.39,0,0.84-0.01,1.35c-0.01,0.67-0.02,1.12,0,1.36c0.02,0.45,0.03,0.9,0.02,1.36
	c-0.01,0.78-0.02,1.23-0.02,1.36c0.01,2.32,0.02,4.64,0.02,6.96c0,0.02,0.02,0.04,0.04,0.04c1.86-0.02,3.1-0.02,3.73,0
	c1.17,0.05,2.34,0,3.5-0.15c0.65-0.08,1.19-0.19,1.6-0.34c0.68-0.24,1.28-0.58,1.79-1.02c0.62-0.53,1.07-0.99,1.36-1.4
	c0.59-0.82,1.03-1.79,1.32-2.89c0.11-0.42,0.19-0.78,0.23-1.06c0.05-0.33,0.07-0.69,0.08-1.09c0.01-0.87-0.01-1.59-0.09-2.16
	c-0.04-0.29-0.19-0.93-0.47-1.9 M340.7,201.82c-0.03,0.24-0.07,0.42-0.12,0.54l-0.39,0.93c-0.43,0.96-1.12,1.64-2.07,2.03
	c-0.14,0.06-0.33,0.1-0.57,0.13c-0.22,0.02-0.44,0.06-0.66,0.12c-0.25,0.06-0.46,0.1-0.64,0.1c-0.83,0.04-1.65,0.04-2.47,0
	c-0.05,0-0.08-0.04-0.08-0.08c0.03-3.66,0.03-7.3,0-10.92c0-0.02,0.02-0.04,0.04-0.04c0.35,0,0.7,0,1.05,0.02c0,0,0.25,0,0.72,0.02
	c0.7,0.02,1.37,0.14,2.02,0.36c0.55,0.19,1.01,0.43,1.4,0.73c0.42,0.33,0.78,0.72,1.07,1.19c0.18,0.28,0.3,0.58,0.37,0.88
	c0.04,0.17,0.1,0.33,0.18,0.46c0.13,0.22,0.2,0.54,0.21,0.96c0.07,0.77,0.05,1.63-0.07,2.57"/>
<path class="st11" d="M283.3,206.34c-0.01-2.12-0.02-4.24-0.01-6.37c0.01-5.02,0.02-10.04,0.02-15.06c0-0.14,0-0.37-0.01-0.68v-0.68
	c0.01-0.65,0.02-0.99,0.02-1.03c0-2.29,0-4.57,0.02-6.86c0-0.02-0.02-0.04-0.04-0.04l-1.14-0.02h-21.41c0,0-0.07,0.03-0.07,0.07
	v2.32c0,0,0.04,0.09,0.09,0.09c4.76-0.01,9.53,0,14.31,0c0.49,0,0.8,0.03,0.92,0.09c0.16,0.07,0.31,0.13,0.47,0.19
	c0.22,0.08,0.38,0.15,0.47,0.19c0.45,0.23,0.86,0.56,1.22,0.99c0.29,0.35,0.5,0.62,0.63,0.83l0.23,0.45
	c0.09,0.17,0.15,0.38,0.16,0.64c0,0.05,0.02,0.2,0.05,0.44c0.02,0.15,0.03,0.3,0.03,0.44c0.03,5.41,0.03,10.82,0,16.23v3.7
	c0,0.18-0.04,0.6-0.12,1.24c0,0.06-0.03,0.12-0.05,0.17c-0.03,0.05-0.06,0.1-0.09,0.16c-0.05,0.08-0.09,0.16-0.13,0.24
	c-0.41,0.85-1.02,1.49-1.83,1.94c-0.29,0.16-0.62,0.29-1,0.39c-0.41,0.11-0.77,0.16-1.07,0.16c-2.15,0-4.3,0-6.45,0.02
	c-0.12,0-0.3,0-0.54-0.01h-0.54c-0.54,0.01-0.81,0.02-0.81,0.02c-1.98,0-3.95-0.02-5.93-0.05c-0.02,0-0.03,0.01-0.03,0.03
	l-0.03,2.19c0,0,0.03,0.06,0.06,0.06c0.26,0.01,0.53,0.02,0.8,0.02c4.26,0.04,8.53,0.05,12.79,0.04c2.77,0,5.55-0.02,8.32-0.03
	c0.19,0,0.41,0,0.66-0.01c0.04,0,0.06-0.03,0.06-0.07l-0.02-2.42L283.3,206.34L283.3,206.34z"/>
<path class="st11" d="M259.86,206.54h-2.27c0,0-0.02,0-0.02,0.02v2.25c0,0,0,0.02,0.02,0.02h2.27c0,0,0.02,0,0.02-0.02v-2.25
	C259.88,206.56,259.88,206.54,259.86,206.54"/>
<polygon class="st12" points="263.51,32.24 275.62,32.24 275.62,34.49 270.83,34.49 270.83,47.79 268.29,47.79 268.29,34.49 
	263.51,34.49 "/>
<polygon class="st12" points="274.14,36.44 276.68,36.44 279.28,45.13 281.88,36.44 284.07,36.44 286.55,45.13 289.21,36.44 
	291.64,36.44 287.85,47.79 285.25,47.79 282.89,40.04 280.41,47.79 277.81,47.79 "/>
<path class="st12" d="M300.5,40.87c-0.06-0.77-0.41-1.48-1-1.95c-1.24-0.95-2.9-0.95-4.14,0c-0.59,0.47-0.95,1.18-1.01,1.89h6.15
	L300.5,40.87L300.5,40.87L300.5,40.87z M292.46,39.04c0.47-0.83,1.12-1.54,1.95-2.07c0.89-0.47,1.89-0.71,2.9-0.71
	s2.01,0.24,2.9,0.65c0.83,0.41,1.54,1.06,2.01,1.89c0.47,0.89,0.77,1.83,0.77,2.84c0,0.3,0,0.59-0.06,0.95h-8.63v0.12
	c0,0.89,0.36,1.71,0.95,2.36c0.59,0.59,1.42,0.89,2.24,0.89c0.65,0,1.3-0.18,1.89-0.53c0.53-0.35,0.89-0.89,1.01-1.48h2.36
	c-0.18,1.12-0.77,2.13-1.65,2.84c-0.94,0.77-2.19,1.18-3.43,1.12c-1.06,0-2.13-0.24-3.13-0.71c-0.89-0.47-1.6-1.18-2.07-2.07
	c-0.47-0.95-0.77-1.95-0.71-3.01c0-1.06,0.24-2.13,0.71-3.07"/>
<path class="st12" d="M313.92,37.5c0.83,0.83,1.24,2.19,1.24,4.02v6.26h-2.42v-6.15c0.06-0.89-0.18-1.77-0.71-2.48
	c-0.47-0.59-1.24-0.89-2.01-0.83c-0.77-0.06-1.6,0.35-2.19,1c-0.59,0.77-0.89,1.71-0.83,2.72v5.73h-2.36V36.42h2.07l0.3,1.48
	c0.89-1.06,2.24-1.71,3.61-1.6c1.24-0.06,2.42,0.36,3.31,1.18"/>
<path class="st12" d="M317.7,38.51h-1.95v-2.13h1.95v-3.13h2.42v3.19h2.72v2.13h-2.72v5.97c-0.06,0.35,0.06,0.65,0.3,0.95
	c0.24,0.24,0.59,0.3,0.95,0.3h1.83v2.13h-2.3c-0.83,0.06-1.71-0.18-2.36-0.77c-0.53-0.65-0.83-1.48-0.77-2.36l-0.06-6.26
	L317.7,38.51L317.7,38.51z"/>
<path class="st12" d="M326.56,36.44l3.19,8.81l3.07-8.81h2.54l-5.08,13.12c-0.24,0.53-0.47,1.06-0.71,1.6
	c-0.18,0.36-0.47,0.65-0.83,0.83c-0.41,0.18-0.89,0.3-1.3,0.3h-2.6v-2.13h1.71c0.36,0,0.65-0.06,0.95-0.18
	c0.24-0.24,0.47-0.59,0.53-0.94l0.47-1.12l-4.43-11.46h2.48L326.56,36.44L326.56,36.44z"/>
<path class="st12" d="M350.48,38.65h-1.95v-2.13h1.95v-3.19h2.42v3.19h2.72v2.13h-2.72v5.97c-0.06,0.35,0.06,0.65,0.3,0.95
	c0.24,0.24,0.59,0.3,0.95,0.3h1.83v2.07h-2.3c-0.83,0.06-1.71-0.18-2.36-0.77c-0.53-0.65-0.83-1.48-0.77-2.36l-0.06-6.15
	L350.48,38.65L350.48,38.65z"/>
<path class="st12" d="M365.49,40.96c-0.06-0.77-0.41-1.48-1-1.95c-1.24-0.95-2.9-0.95-4.14,0c-0.59,0.47-0.95,1.18-1.01,1.89h6.15
	L365.49,40.96L365.49,40.96L365.49,40.96z M357.46,39.18c0.47-0.83,1.12-1.54,1.95-2.07c0.89-0.47,1.89-0.71,2.9-0.71
	s2.01,0.24,2.9,0.65c0.83,0.41,1.48,1.06,1.95,1.89c0.47,0.89,0.77,1.83,0.77,2.84c0,0.3,0,0.59-0.06,0.95h-8.57v0.12
	c0,0.89,0.35,1.71,0.95,2.36c0.59,0.59,1.42,0.89,2.25,0.89c0.65,0,1.3-0.18,1.89-0.53c0.53-0.35,0.89-0.89,1.01-1.48h2.36
	c-0.18,1.12-0.77,2.13-1.65,2.84c-0.94,0.77-2.19,1.18-3.43,1.12c-1.06,0-2.13-0.24-3.13-0.71c-0.89-0.47-1.6-1.18-2.07-2.07
	c-0.47-0.95-0.77-1.95-0.71-3.01c0-1.06,0.24-2.13,0.71-3.07"/>
<path class="st12" d="M378.2,46.93c-1.01,0.77-2.25,1.18-3.55,1.12c-1.06,0-2.07-0.24-2.96-0.71c-0.83-0.47-1.54-1.18-2.01-2.07
	c-0.47-0.95-0.71-2.01-0.71-3.07s0.24-2.13,0.71-3.01c0.47-0.89,1.18-1.54,2.01-2.07c0.95-0.47,1.95-0.77,3.01-0.71
	c1.24-0.06,2.48,0.35,3.49,1.12c0.95,0.77,1.54,1.89,1.71,3.07h-2.48c-0.18-0.59-0.47-1.18-0.95-1.6c-0.53-0.35-1.12-0.59-1.77-0.59
	c-0.89-0.06-1.77,0.36-2.3,1.06c-0.59,0.77-0.95,1.71-0.89,2.72c-0.06,1.01,0.3,1.95,0.89,2.72c0.59,0.71,1.42,1.06,2.3,1.06
	c0.65,0,1.3-0.18,1.83-0.59c0.47-0.41,0.83-0.95,0.95-1.6h2.42c-0.12,1.18-0.77,2.3-1.71,3.13"/>
<polygon class="st13" points="254.33,47.75 256.16,44.62 242.45,44.62 244.28,47.75 "/>
<polygon class="st13" points="242.16,44.04 248.95,32.22 245.35,32.22 240.32,40.91 "/>
<polygon class="st13" points="258.25,40.91 253.23,32.22 249.63,32.22 256.48,44.04 "/>
<polygon class="st12" points="335.94,32.21 347.11,32.21 347.11,34.46 339.84,47.75 337.18,47.75 344.39,34.46 335.94,34.46 "/>
<path class="st14" d="M68.95,252.52h0.88l0.99-1.83h0.28l-0.41,2.17h-4.41v-0.3l0.64-0.15v-4.62l-0.64-0.17v-0.29h2.76v0.29
	l-0.68,0.16v4.51C68.5,252.45,68.69,252.51,68.95,252.52"/>
<path class="st14" d="M72.62,250.1h1.33c-0.05-0.67-0.28-1.14-0.67-1.14C72.95,248.96,72.67,249.31,72.62,250.1L72.62,250.1z
	 M71.45,250.82c0-1.27,1.07-2.21,2.11-2.21s1.6,0.67,1.73,1.8h-2.66c0.03,1.08,0.77,1.64,1.53,1.64c0.45,0,0.78-0.19,1.06-0.36
	l0.13,0.16c-0.42,0.57-1.03,1.12-1.92,1.12C72.23,252.97,71.46,252.01,71.45,250.82"/>
<path class="st14" d="M77.76,251.09c0.29,0,0.5-0.32,0.5-0.87c0-0.79-0.36-1.32-0.75-1.32c-0.31,0-0.5,0.33-0.49,0.83
	C77.02,250.49,77.35,251.1,77.76,251.09L77.76,251.09z M76.72,253.05c-0.1,0.12-0.18,0.28-0.18,0.47c0,0.55,0.52,0.84,1.23,0.84
	c0.93,0,1.31-0.47,1.31-0.78c0-0.22-0.15-0.38-0.39-0.43L76.72,253.05L76.72,253.05z M79.05,249.19l-0.02,0.03
	c0.25,0.22,0.39,0.48,0.39,0.82c0,0.76-0.71,1.37-1.8,1.37c-0.31,0-0.57-0.05-0.81-0.13c-0.09,0.09-0.13,0.18-0.13,0.27
	c0,0.17,0.12,0.29,0.42,0.3l1.74,0.07c0.74,0.03,1.11,0.42,1.11,0.99c0,1.06-1.29,1.93-2.73,1.93c-1.09,0-1.64-0.4-1.64-0.98
	c0-0.42,0.31-0.68,0.77-0.87v-0.05c-0.36-0.11-0.6-0.39-0.6-0.74s0.24-0.66,0.78-1.03v-0.02c-0.43-0.24-0.69-0.63-0.69-1.11
	c0-0.87,0.82-1.42,1.8-1.42c0.39,0,0.64,0.08,1.13,0.21l1.28-0.13v0.55L79.05,249.19L79.05,249.19L79.05,249.19z"/>
<path class="st14" d="M82.45,252.06v-1.27l-0.28,0.09c-0.53,0.17-0.72,0.44-0.72,0.77c0,0.37,0.22,0.62,0.57,0.62
	C82.19,252.27,82.34,252.19,82.45,252.06L82.45,252.06L82.45,252.06z M80.19,251.92c0-0.67,0.46-0.99,1.46-1.23l0.79-0.19v-0.65
	c-0.03-0.46-0.24-0.82-0.67-0.82c-0.15,0-0.25,0.03-0.32,0.08l-0.03,0.99c-0.13,0.06-0.35,0.1-0.57,0.1c-0.33,0-0.56-0.16-0.56-0.48
	c0-0.51,0.95-1.1,2.03-1.1c0.9,0,1.43,0.37,1.43,1.32v2.14c0,0.27,0.08,0.31,0.31,0.31h0.3v0.21c0,0-0.63,0.37-1.13,0.37
	c-0.46,0-0.72-0.18-0.76-0.68h-0.03c-0.22,0.32-0.57,0.7-1.16,0.7c-0.64,0-1.11-0.44-1.11-1.06l0,0L80.19,251.92L80.19,251.92z"/>
<polygon class="st14" points="84.6,252.57 85.11,252.44 85.11,247.64 84.62,247.33 84.62,247.17 86.46,246.62 86.46,252.44 
	86.99,252.57 86.99,252.85 84.6,252.85 "/>
<path class="st14" d="M91.47,249.24c0.36-0.32,0.52-0.66,0.52-1.05c0-0.44-0.28-0.76-0.7-0.76c-0.38,0-0.64,0.25-0.64,0.64
	S90.87,248.67,91.47,249.24L91.47,249.24z M90.4,249.97c-0.29,0.27-0.42,0.56-0.42,0.91c0,0.73,0.58,1.2,1.29,1.2
	c0.3,0,0.59-0.07,0.89-0.25c-0.2-0.23-0.43-0.51-0.72-0.82C91.01,250.55,90.66,250.23,90.4,249.97 M94.66,249.23l-1.37,1.92
	c0.57,0.67,0.81,1.02,1.26,1.02c0.24,0,0.42-0.06,0.67-0.17l0.12,0.17c-0.46,0.49-0.94,0.82-1.57,0.82c-0.57,0-0.78-0.18-1.33-0.85
	c-0.54,0.52-1.18,0.88-1.9,0.88c-1.13,0-1.79-0.7-1.79-1.61c0-0.76,0.64-1.28,1.44-1.64c-0.47-0.44-0.7-0.78-0.7-1.27
	c0-0.82,0.87-1.37,1.92-1.37s1.63,0.45,1.63,1.05c0,0.64-0.53,0.98-1.36,1.26c0.24,0.23,0.53,0.52,0.87,0.88
	c0.2,0.22,0.38,0.41,0.53,0.59c0.08-0.12,0.16-0.23,0.24-0.37l0.79-1.29l-0.8-0.22v-0.28h2.11v0.28l-0.76,0.22l0,0L94.66,249.23
	L94.66,249.23z"/>
<path class="st14" d="M97.22,250.2c0-1.79,1.66-3.03,3.53-3.03c0.77,0,1.42,0.19,1.87,0.37l0.07,1.67h-0.24l-0.82-1.34
	c-0.37-0.27-0.67-0.36-1.01-0.36c-1.08,0-1.76,1.01-1.76,2.43c0,1.82,0.87,2.68,1.87,2.68c0.28,0,0.5-0.06,0.68-0.14v-1.76
	l-0.93-0.13v-0.36h2.78v0.33l-0.47,0.12v1.85l-0.32,0.1c-0.44,0.13-1.22,0.37-1.99,0.37c-2.36,0-3.28-1.44-3.28-2.79l0,0
	L97.22,250.2z"/>
<path class="st14" d="M104.8,250.1h1.32c-0.05-0.67-0.28-1.14-0.67-1.14c-0.33,0-0.61,0.35-0.66,1.14H104.8z M103.62,250.82
	c0-1.27,1.07-2.21,2.11-2.21s1.6,0.67,1.73,1.8h-2.66c0.02,1.08,0.77,1.64,1.53,1.64c0.45,0,0.78-0.19,1.06-0.36l0.13,0.16
	c-0.42,0.57-1.03,1.12-1.92,1.12C104.4,252.97,103.63,252.01,103.62,250.82"/>
<path class="st14" d="M107.73,252.57l0.51-0.12v-2.88l-0.5-0.34v-0.15l1.65-0.47h0.04l0.08,0.78h0.02c0.26-0.27,0.82-0.77,1.48-0.77
	c0.74,0,1.2,0.4,1.2,1.29v2.54l0.52,0.13v0.27h-2.31v-0.28l0.44-0.13v-2.26c0-0.47-0.24-0.79-0.69-0.78c-0.24,0-0.44,0.11-0.58,0.21
	v2.83l0.44,0.13v0.28h-2.3V252.57L107.73,252.57L107.73,252.57z"/>
<path class="st14" d="M114.06,250.1h1.32c-0.05-0.67-0.28-1.14-0.67-1.14c-0.33,0-0.61,0.35-0.66,1.14H114.06z M112.89,250.82
	c0-1.27,1.07-2.21,2.11-2.21s1.6,0.67,1.73,1.8h-2.66c0.02,1.08,0.77,1.64,1.53,1.64c0.45,0,0.78-0.19,1.06-0.36l0.13,0.16
	c-0.42,0.57-1.03,1.12-1.92,1.12C113.67,252.97,112.9,252.01,112.89,250.82"/>
<path class="st14" d="M116.99,252.57l0.51-0.12v-2.88l-0.5-0.34v-0.15l1.67-0.47h0.05l0.05,1.11h0.03l0.13-0.26
	c0.29-0.6,0.55-0.83,1-0.83c0.33,0,0.66,0.22,0.66,0.64s-0.28,0.7-0.83,0.73l-0.47-0.39c-0.13,0.06-0.36,0.27-0.44,0.53v2.32
	l0.74,0.12v0.28h-2.6v-0.28l0,0V252.57L116.99,252.57z"/>
<path class="st14" d="M123,252.06v-1.27l-0.28,0.09c-0.53,0.17-0.72,0.44-0.72,0.77c0,0.37,0.22,0.62,0.57,0.62
	C122.74,252.27,122.89,252.19,123,252.06L123,252.06L123,252.06z M120.74,251.92c0-0.67,0.46-0.99,1.46-1.23l0.79-0.19v-0.65
	c-0.03-0.46-0.24-0.82-0.67-0.82c-0.15,0-0.25,0.03-0.32,0.08l-0.03,0.99c-0.13,0.06-0.35,0.1-0.57,0.1c-0.33,0-0.56-0.16-0.56-0.48
	c0-0.51,0.95-1.1,2.03-1.1c0.9,0,1.43,0.37,1.43,1.32v2.14c0,0.27,0.08,0.31,0.31,0.31h0.3v0.21c0,0-0.63,0.37-1.13,0.37
	c-0.46,0-0.72-0.18-0.76-0.68h-0.03c-0.22,0.32-0.57,0.7-1.16,0.7c-0.64,0-1.11-0.44-1.11-1.06l0,0L120.74,251.92L120.74,251.92z"/>
<polygon class="st14" points="125.15,252.57 125.66,252.44 125.66,247.64 125.17,247.33 125.17,247.17 127.01,246.62 127.01,252.44 
	127.53,252.57 127.53,252.85 125.15,252.85 "/>
<polygon class="st15" points="66.29,279.85 68.64,279.27 68.64,262.24 66.29,261.66 66.29,260.59 76.27,260.59 76.27,261.66 
	73.91,262.24 73.91,279.27 76.27,279.85 76.27,280.92 66.29,280.92 "/>
<path class="st15" d="M84.93,274.46c1.07,0,1.84-1.19,1.84-3.18c0-2.91-1.32-4.87-2.76-4.87c-1.13,0-1.84,1.19-1.81,3.06
	c0.03,2.79,1.19,5.02,2.72,4.99H84.93z M81.1,281.65c-0.37,0.43-0.64,1.01-0.64,1.75c0,2.02,1.9,3.09,4.53,3.09
	c3.43,0,4.81-1.71,4.81-2.88c0-0.8-0.55-1.41-1.44-1.59L81.1,281.65C81.1,281.65,81.1,281.65,81.1,281.65z M89.71,267.45l-0.06,0.12
	c0.92,0.8,1.44,1.78,1.44,3c0,2.79-2.6,5.02-6.61,5.02c-1.13,0-2.11-0.18-3-0.49c-0.34,0.34-0.49,0.67-0.49,1.01
	c0,0.61,0.46,1.07,1.53,1.1l6.4,0.25c2.72,0.12,4.07,1.56,4.07,3.64c0,3.89-4.75,7.1-10.04,7.1c-4.01,0-6.03-1.47-6.03-3.61
	c0-1.56,1.13-2.51,2.82-3.19v-0.18c-1.32-0.4-2.2-1.44-2.2-2.72s0.89-2.42,2.88-3.8v-0.06c-1.59-0.89-2.54-2.33-2.54-4.07
	c0-3.18,3.03-5.24,6.61-5.24c1.44,0,2.36,0.28,4.16,0.76l4.71-0.46v2.02l-3.64-0.21l0,0L89.71,267.45L89.71,267.45z"/>
<path class="st15" d="M94.08,279.88l1.87-0.46v-10.59l-1.84-1.25v-0.55l6.06-1.75h0.15l0.28,2.88h0.09
	c0.95-0.98,3.03-2.82,5.45-2.82c2.72,0,4.41,1.47,4.41,4.75v9.34l1.9,0.49v1.01h-8.48v-1.04l1.62-0.46v-8.3
	c-0.03-1.71-0.89-2.91-2.54-2.88c-0.89,0.03-1.62,0.4-2.14,0.76v10.41l1.62,0.46v1.04h-8.45L94.08,279.88L94.08,279.88L94.08,279.88
	z"/>
<path class="st15" d="M115.26,260.62c0-1.38,1.13-2.54,2.51-2.54s2.57,1.16,2.57,2.54s-1.16,2.54-2.57,2.54
	S115.26,262.03,115.26,260.62 M113.3,279.88l1.96-0.46v-10.59l-1.9-1.38v-0.55l6.89-1.56v14.08l1.96,0.46v1.04h-8.91V279.88z"/>
<path class="st15" d="M123.87,277.03l0.09-9.49h-2.24v-1.07l2.26-0.77l4.29-3.74h0.55v3.83h4.44v1.78h-4.44v9.61
	c0.4,1.47,1.56,1.9,2.79,1.9c0.74,0,1.41-0.21,1.59-0.25l0.18,0.86c-1.1,0.64-2.91,1.65-5.42,1.65c-2.88,0-4.13-1.56-4.1-4.32l0,0
	L123.87,277.03L123.87,277.03z"/>
<path class="st15" d="M137.57,270.79h4.87c-0.18-2.45-1.04-4.19-2.45-4.19C138.77,266.6,137.75,267.89,137.57,270.79 M133.26,273.45
	c0-4.65,3.95-8.15,7.75-8.15s5.88,2.45,6.37,6.61h-9.8c0.09,3.98,2.82,6.03,5.63,6.03c1.65,0,2.88-0.7,3.89-1.32l0.49,0.58
	c-1.53,2.08-3.76,4.1-7.07,4.1c-4.41,0-7.26-3.52-7.26-7.87V273.45L133.26,273.45z"/>
<path class="st16" d="M52.03,343.54c0,0.43,0.05,1.35,0.83,1.35s0.91-1.05,0.91-2.21v-1.03c0-1-0.08-1.95-0.9-1.95
	s-0.85,0.98-0.85,1.47L52.03,343.54L52.03,343.54z M52.03,337.97v1.05c0.66-0.83,1.69-1.27,2.75-1.18c0.71-0.03,1.41,0.19,1.97,0.64
	c0.86,0.74,1,1.97,1,3.81c0,2.16-0.29,3.37-1.6,4.09c-0.54,0.28-1.13,0.42-1.74,0.42c-0.93,0.09-1.83-0.32-2.38-1.07v4.48h-3.98
	v-12.24L52.03,337.97L52.03,337.97z"/>
<path class="st16" d="M64.12,342.57c-0.82,0-1.56,0.23-1.56,1.32c0,0.46,0.04,1.1,0.78,1.1c0.74,0,0.78-0.69,0.78-1.18V342.57
	L64.12,342.57L64.12,342.57z M64.98,346.61c-0.36,0-0.85,0-0.85-0.86v-0.14c-0.72,0.85-1.79,1.32-2.9,1.26
	c-1.78,0-2.62-0.88-2.62-2.63c0-2.57,2.33-2.81,5.51-3.06v-0.97c0-0.41-0.07-0.88-0.68-0.88c-0.73,0-0.79,0.87-0.79,1.33h-3.84
	v-0.17c0-2.2,1.85-2.79,4.79-2.79c2.29,0,4.5,0.16,4.5,2.94v3.81c0,1.12,0,1.57,0.35,2.14h-3.46L64.98,346.61L64.98,346.61z"/>
<path class="st16" d="M75.9,346.51c-0.73,2.58-1.43,3.79-4.41,3.79c-0.85,0-1.69-0.07-2.52-0.22v-2.53
	c0.48,0.11,0.98,0.17,1.47,0.19c0.61,0,0.85-0.24,0.85-0.66c0-0.15-0.04-0.29-0.09-0.43l-2.66-8.67h4.01l1,5.82l0.9-5.82h3.76
	L75.9,346.51L75.9,346.51L75.9,346.51z"/>
<path class="st16" d="M90.05,346.61v-5.82c0-0.41,0-1.1-0.69-1.1s-0.73,0.74-0.73,0.96v5.95h-3.98v-5.88c0-0.4,0-1.04-0.68-1.04
	s-0.74,0.69-0.74,1.15v5.76h-4v-8.61h3.98v1c0.78-0.73,1.82-1.13,2.89-1.12c0.98-0.1,1.92,0.43,2.34,1.31
	c0.82-0.82,1.93-1.29,3.09-1.31c2.43,0,2.48,1.81,2.48,2.59v6.23l-3.96-0.06C90.05,346.62,90.05,346.61,90.05,346.61z"/>
<path class="st16" d="M100.74,341.22v-0.32c0-0.9-0.14-1.57-0.83-1.57s-0.9,0.88-0.9,1.89H100.74z M98.96,343.57
	c0,0.64,0.1,1.68,0.93,1.68s0.86-0.64,0.93-1.52h3.87c-0.02,1.12-0.68,2.13-1.69,2.61c-1.03,0.39-2.13,0.58-3.23,0.54
	c-3.79,0-4.77-1.47-4.77-4.62c0-2.26,0.69-4.55,4.98-4.55c0.98,0,2.87,0.09,3.82,1.18c0.63,0.91,0.92,2.01,0.85,3.12v0.67h-5.68v0.9
	L98.96,343.57z"/>
<path class="st16" d="M111.08,346.61v-6.01c0-0.17,0-0.9-0.69-0.9s-0.73,0.57-0.73,0.9v6.01h-3.98v-8.64h3.98v0.98
	c0.79-0.71,1.82-1.1,2.88-1.11c2.42,0,2.53,1.63,2.53,2.56v6.26L111.08,346.61L111.08,346.61L111.08,346.61z"/>
<path class="st16" d="M121.74,337.97v1.52h-1.26v3.9c0,0.59,0.1,1.1,1.02,1.1h0.24v1.95c-0.67,0.16-1.36,0.25-2.04,0.26
	c-0.92,0.05-1.83-0.23-2.56-0.79c-0.47-0.58-0.69-1.33-0.62-2.07v-4.41h-0.92v-1.47h0.95v-1.53l3.92-0.81v2.35l1.26-0.02
	C121.73,337.95,121.74,337.97,121.74,337.97z"/>
<path class="st16" d="M128.01,340.88c1.66,0.32,3.08,0.81,3.08,2.82c0,2.87-2.61,3.16-4.41,3.16c-1.61,0-4.32,0-4.32-2.47v-0.29
	l3.58,0.07v0.11c-0.07,0.47,0.25,0.92,0.72,0.99h0.01c0.07,0.01,0.15,0.01,0.22,0c0.4,0.05,0.77-0.24,0.82-0.64v-0.09
	c0-0.55-0.41-0.67-1.15-0.81l-0.87-0.18c-1.4-0.27-2.14-0.57-2.67-1.28c-0.32-0.42-0.48-0.94-0.47-1.47c0-2.87,2.94-3.01,4.13-3.01
	c2.44,0,4.27,0.32,4.27,2.43v0.12l-3.34-0.07c0-0.23,0-0.93-0.79-0.93c-0.38-0.03-0.7,0.26-0.74,0.63v0.04
	c0,0.52,0.49,0.66,1.18,0.8l0.76,0.09L128.01,340.88L128.01,340.88z"/>
<path class="st16" d="M137.35,346.61v-5.82c0-0.41,0-1.1-0.65-1.1s-0.78,0.78-0.78,0.99v5.92h-3.98v-12.19h3.98v4.53
	c0.78-0.72,1.81-1.11,2.87-1.09c2.4,0,2.54,1.71,2.54,2.59v6.23L137.35,346.61z"/>
<path class="st16" d="M142.32,337.97h4v8.64h-4V337.97z M142.32,334.41h4v2.75h-4V334.41z"/>
<path class="st16" d="M152.99,341.22v-0.32c0-0.9-0.14-1.57-0.83-1.57s-0.96,0.88-0.96,1.89H152.99L152.99,341.22z M151.2,343.57
	c0,0.64,0.11,1.68,0.93,1.68s0.87-0.64,0.93-1.52h3.87c-0.02,1.12-0.68,2.13-1.69,2.61c-1.03,0.39-2.13,0.58-3.23,0.54
	c-3.79,0-4.77-1.47-4.77-4.62c0-2.26,0.69-4.55,4.98-4.55c0.98,0,2.87,0.09,3.82,1.18c0.63,0.91,0.93,2.01,0.85,3.12v0.67h-5.69v0.9
	L151.2,343.57L151.2,343.57z"/>
<rect x="157.74" y="334.41" class="st16" width="3.98" height="12.2"/>
<path class="st16" d="M168.38,341.1c0-1.09-0.45-1.4-0.86-1.4c-0.88,0-0.88,1.15-0.88,2.56c0,1.89,0.05,2.65,0.88,2.65
	s0.88-0.96,0.88-1.64L168.38,341.1L168.38,341.1L168.38,341.1z M168.38,346.61v-1.05c-0.7,0.82-1.75,1.27-2.83,1.21
	c-0.65,0.03-1.29-0.16-1.82-0.54c-0.96-0.74-1.1-1.87-1.1-3.72c0-2.14,0.06-4.7,3.29-4.7c0.94-0.07,1.86,0.32,2.45,1.06v-4.46h3.94
	v12.2h-3.94H168.38L168.38,346.61z"/>
<polygon class="st16" points="85.37,357.91 84.51,357.91 83.02,353.94 83,353.94 81.68,357.91 80.77,357.91 79.07,352.75 
	80.04,352.75 81.24,356.72 81.26,356.72 82.62,352.75 83.54,352.75 84.92,356.72 84.94,356.72 86.13,352.75 87.07,352.75 "/>
<path class="st16" d="M91.45,354.85c0-0.81-0.66-1.47-1.47-1.47h-0.12c-0.88-0.06-1.64,0.59-1.72,1.47
	C88.14,354.85,91.45,354.85,91.45,354.85z M92.19,356.96c-0.55,0.72-1.42,1.12-2.33,1.07c-1.42,0.05-2.61-1.06-2.66-2.48v-0.24
	c-0.06-1.43,1.05-2.64,2.48-2.71h0.21c1.47,0,2.49,0.99,2.49,2.7v0.27h-4.24c0.05,0.92,0.8,1.64,1.72,1.65
	c0.65,0.03,1.28-0.26,1.67-0.78L92.19,356.96L92.19,356.96L92.19,356.96z"/>
<polygon class="st16" points="93.4,353.78 92.66,353.78 93.31,351.46 94.21,351.46 "/>
<polygon class="st16" points="97.43,357.91 96.47,357.91 94.32,352.75 95.34,352.75 96.98,356.8 97,356.8 98.57,352.75 
	99.51,352.75 "/>
<path class="st16" d="M103.79,354.85c0-0.81-0.66-1.47-1.47-1.47h-0.12c-0.88-0.06-1.65,0.59-1.72,1.47
	C100.48,354.85,103.79,354.85,103.79,354.85z M104.52,356.96c-0.55,0.72-1.42,1.12-2.33,1.07c-1.42,0.05-2.61-1.06-2.66-2.48v-0.24
	c-0.06-1.43,1.05-2.64,2.48-2.71h0.21c1.47,0,2.49,0.99,2.49,2.7v0.27h-4.23c0.05,0.92,0.8,1.64,1.72,1.65
	c0.65,0.03,1.28-0.26,1.67-0.78L104.52,356.96L104.52,356.96L104.52,356.96z"/>
<path class="st16" d="M110.45,357.19c1.04,0.07,1.94-0.72,2.01-1.76s-0.72-1.94-1.76-2.01s-1.94,0.72-2.01,1.76v0.24
	c0.06,0.95,0.82,1.7,1.76,1.76 M113.2,357.69c0,1.86-1.02,2.88-2.87,2.88c-0.96,0.05-1.89-0.31-2.58-0.99l0.63-0.74
	c0.48,0.57,1.2,0.9,1.95,0.9c1.57,0,1.99-1,1.99-2.09v-0.66c-0.42,0.61-1.11,0.97-1.85,0.96c-1.44,0.1-2.69-0.99-2.79-2.43v-0.25
	c-0.08-1.42,1-2.64,2.42-2.72l0,0c0.13-0.01,0.26-0.01,0.38,0c0.76-0.02,1.46,0.37,1.85,1.01v-0.88h0.87L113.2,357.69L113.2,357.69z
	"/>
<path class="st16" d="M116.87,357.24c1.06,0.03,1.94-0.8,1.98-1.86c0.03-1.06-0.8-1.94-1.86-1.98s-1.94,0.8-1.98,1.86v0.06
	c-0.05,1.01,0.72,1.86,1.72,1.92H116.87z M116.87,352.62c1.5,0.05,2.67,1.31,2.61,2.81c-0.05,1.5-1.31,2.67-2.81,2.61
	c-1.46-0.05-2.62-1.25-2.62-2.71c-0.03-1.46,1.12-2.68,2.59-2.72h0.22"/>
<path class="st16" d="M123.63,353.48h-1.55v2.58c0,0.66,0,1.19,0.79,1.19c0.26,0,0.51-0.06,0.73-0.18v0.79
	c-0.33,0.13-0.67,0.19-1.02,0.18c-1.25,0-1.47-0.66-1.47-1.73v-2.84h-1.15v-0.74h1.15v-1.47h0.87v1.47h1.55l0.1,0.74
	C123.63,353.47,123.63,353.48,123.63,353.48z"/>
<path class="st16" d="M127.57,352.75h0.85v5.15h-0.88L127.57,352.75z M128.01,350.11c0.35,0,0.64,0.28,0.64,0.62
	c0,0.35-0.29,0.64-0.64,0.64s-0.64-0.28-0.64-0.64l0,0c0-0.35,0.29-0.63,0.64-0.63"/>
<path class="st16" d="M132.83,353.48h-1.54v2.58c0,0.66,0,1.19,0.79,1.19c0.27,0,0.53-0.06,0.77-0.18v0.79
	c-0.33,0.13-0.67,0.19-1.02,0.18c-1.25,0-1.47-0.66-1.47-1.73v-2.84h-1.15v-0.74h1.15v-1.47h0.88v1.47h1.6v0.74L132.83,353.48
	L132.83,353.48z"/>
<path class="st16" d="M139.98,354.02c-0.32-0.41-0.81-0.64-1.32-0.62c-0.96-0.02-1.75,0.73-1.78,1.69l0,0v0.23
	c-0.07,0.99,0.68,1.84,1.66,1.91h0.11c0.52,0.03,1.03-0.21,1.34-0.64l0.65,0.61c-1.04,1.09-2.76,1.14-3.85,0.11
	c-1.09-1.03-1.14-2.76-0.11-3.85c0.51-0.54,1.22-0.85,1.97-0.85c0.76-0.03,1.49,0.27,2.02,0.82l-0.69,0.61L139.98,354.02
	L139.98,354.02z"/>
<path class="st16" d="M143.76,357.24c1.06,0.03,1.94-0.8,1.98-1.86c0.03-1.06-0.8-1.94-1.86-1.98s-1.94,0.8-1.98,1.86v0.06
	c-0.05,1.01,0.72,1.86,1.72,1.92H143.76z M143.76,352.62c1.5,0.05,2.67,1.31,2.61,2.81c-0.05,1.5-1.31,2.67-2.81,2.61
	c-1.46-0.05-2.62-1.25-2.62-2.71c-0.03-1.46,1.12-2.68,2.59-2.72h0.22"/>
<polygon class="st16" points="149.76,357.91 148.79,357.91 146.65,352.75 147.68,352.75 149.31,356.8 149.34,356.8 150.89,352.75 
	151.84,352.75 "/>
<path class="st16" d="M156.06,354.85c0-0.81-0.66-1.47-1.47-1.47h-0.12c-0.88-0.06-1.64,0.59-1.71,1.47H156.06L156.06,354.85z
	 M156.8,356.96c-0.55,0.72-1.43,1.12-2.34,1.07c-1.42,0.05-2.6-1.07-2.65-2.49v-0.23c-0.06-1.43,1.05-2.64,2.48-2.71h0.21
	c1.47,0,2.49,0.99,2.49,2.7v0.27h-4.24c0.04,0.92,0.79,1.64,1.71,1.65c0.65,0.03,1.28-0.26,1.68-0.78L156.8,356.96L156.8,356.96
	L156.8,356.96z"/>
<path class="st16" d="M157.9,353.97c0-0.47-0.04-0.88-0.04-1.22h0.83v0.84c0.35-0.63,1.03-1.01,1.75-0.98
	c0.12,0,0.24,0.01,0.36,0.05l-0.04,0.88c-0.15-0.05-0.31-0.07-0.47-0.07c-1.07,0-1.54,0.74-1.54,1.92v2.51h-0.88l0.02-3.94
	L157.9,353.97L157.9,353.97z"/>
<path class="st16" d="M165.3,354.85c0-0.81-0.66-1.47-1.47-1.47h-0.13c-0.88-0.06-1.64,0.59-1.71,1.47H165.3L165.3,354.85z
	 M166.04,356.96c-0.55,0.73-1.43,1.14-2.34,1.09c-1.42,0.05-2.61-1.07-2.66-2.49v-0.22c-0.06-1.43,1.05-2.64,2.48-2.71h0.21
	c1.47,0,2.49,0.99,2.49,2.7v0.27h-4.24c0.04,0.92,0.79,1.64,1.71,1.65c0.65,0.03,1.28-0.26,1.68-0.78L166.04,356.96L166.04,356.96z"
	/>
<path class="st16" d="M169.58,353.42c-1.06-0.03-1.94,0.8-1.98,1.86c-0.03,1.06,0.8,1.94,1.86,1.97s1.94-0.8,1.98-1.86v-0.06
	c0.06-1-0.71-1.86-1.71-1.92h-0.15V353.42z M171.45,357L171.45,357c-0.44,0.68-1.21,1.08-2.02,1.04c-1.5-0.04-2.68-1.29-2.64-2.79
	s1.29-2.68,2.79-2.64c0.73,0,1.42,0.32,1.89,0.88v-3.9h0.88v8.31h-0.88l-0.02-0.91L171.45,357L171.45,357z"/>
<path class="st17" d="M42.5,339.46c-2.96-1.21-4.96-4.01-5.15-7.2c-0.39,3.71,1.7,7.24,5.15,8.69c5.03-2.07,5.32-6.73,5.15-8.82
	c-0.07,3.26-2.1,6.16-5.15,7.35"/>
<path class="st17" d="M47.56,328.25c-1.75-0.22-3.46-0.7-5.06-1.43c-1.62,0.65-3.31,1.12-5.03,1.41c0,0-1.73,6.79,5.03,9.91
	C49.11,335.42,47.57,328.25,47.56,328.25"/>
<path class="st18" d="M311.9,266.09L311.9,266.09c2.7-7.3,12.7-8.5,17-1.9c0.2,0.3,0.4,0.7,0.8,1.4c1.9,3.5,3.8,7.1,5.9,10.6
	c0.3,0.6,0.6,1,0.8,1.1c0.9,0.8,2.4,0.7,3.1-0.4c2.1-3.8,4.3-7.5,6.4-11.3c0.4-0.8,0.7-1.2,0.8-1.4c2.9-4.6,9-5.7,13.4-2.6
	c2.5,1.7,4,4.6,4.3,7.6c0,0.6-0.1,0.8-0.7,0.8h-17.2c0.4,5.1,5.2,8.6,10.1,7.6c2.5-0.5,4.6-2.1,5.8-4.4c0.5-0.9,1.5-0.3,1,0.5
	c-1.2,2.4-3.1,4-5.6,4.8c-3.6,1.2-7.6,0-10.1-2.8c-1.5-1.7-2.5-4.1-2.4-6.5l0,0c-1.5,2.6-2.9,5.1-4.4,7.7c-0.3,0.5-0.6,0.9-0.8,1.1
	c-1.4,1.4-3.6,1.1-4.9-0.4c-0.2-0.2-0.5-0.7-0.9-1.5c-1.2-2.2-2.4-4.4-3.6-6.6l0,0c0,4.5-3.1,8.2-7.5,9.2c-4.6,1.1-9.5-1.5-11.1-6
	l0,0c-2.1,5.6-8.7,7.9-13.9,4.9c-3-1.7-4.7-4.9-4.7-8.3v-3.4c0-1.4-0.3-2.5-1.3-3.5c-2.6-2.5-7.5-1.5-8.3,2.2c0,0.3-0.1,0.8-0.1,1.5
	v12c0,1-1.2,0.9-1.2,0v-12.2c0-0.6,0-1.1-0.1-1.4c-0.6-2.4-3.1-3.8-5.5-3.5c-2.3,0.3-4.2,2.1-4.2,4.5v7.6c0,0.6,0,1-0.1,1.3
	c-0.5,2.1-2.7,3.5-4.6,4c-4.1,1.2-9.4,0.4-11.8-3.5c-0.5-0.8,0.5-1.4,0.9-0.7c2.2,3.6,7.3,4.2,10.9,3c1.8-0.6,3.8-2,3.5-4.2
	c-0.3-1.8-2-2.7-3.6-3.2c-2.1-0.6-4.2-0.7-6.2-1.2c-1.3-0.3-2.4-0.6-3.3-1.4c-1.3-1-1.5-2.9-0.9-4.4c0.8-1.8,2.8-2.7,4.6-3
	c2.7-0.4,6.1,0,8.3,1.8c0.3,0.2,0.6,0.6,0.7,0.9c0,0.5-0.6,0.8-1,0.4c-1.8-2-5.3-2.3-7.7-1.9c-1.9,0.3-4.1,1.3-4,3.6
	c0,1.5,1.2,2.1,2.4,2.5c1.8,0.5,3.7,0.8,5.6,1.1c1.9,0.3,3.7,0.9,5.2,2.2c0.3,0.27,0.3,0.27,0,0v-4.4c0-0.7,0-1.2,0.1-1.6
	c0.5-2.5,2.6-4.3,5.1-4.6c2.5-0.3,5,0.8,6.3,3.1l0,0c0.9-1.5,2.2-2.5,3.9-2.9c3.5-0.9,7,1.2,7.6,4.8l0,0c2.1-3.7,6.2-5.6,10.4-4.8
	c3.2,0.7,5.9,2.9,7,6h-0.2L311.9,266.09L311.9,266.09L311.9,266.09z M311.3,269.49c0-4.6-3.7-8.4-8.3-8.5s-8.5,3.7-8.5,8.3
	s3.7,8.4,8.3,8.5S311.3,274.19,311.3,269.49z M329.3,269.49c0-4.6-3.7-8.4-8.3-8.5c-4.6,0-8.4,3.7-8.5,8.3l0,0
	c0,4.6,3.7,8.4,8.3,8.5C325.4,277.79,329.3,274.09,329.3,269.49L329.3,269.49z M353.4,261.09c-3.9,0.6-6.8,3.8-7,7.6l0,0
	c0,0.1,16.6,0.1,16.6,0.1l0,0c-0.7-4.7-4.8-8.4-9.7-7.7H353.4z"/>
<g id="Layer_1_00000164474679063789926730000010214274524097009290_">
	<path class="st19" d="M303.55,109.78L303.55,109.78c0.12-0.46,0.23-0.86,0.4-1.27c0.58-1.5,1.44-3.69,2.65-6.69l0,0h4.04l0,0v1.67
		l0,0h-1.38l0,0l0.69,8.88l0,0h1.38l0,0v1.67l0,0h-5.02l0,0v-1.67l0,0h1.33l0,0c-0.06-0.81-0.23-2.88-0.46-6.23c0-0.29,0-0.63,0-1.1
		l0,0l0,0l0,0l0,0c-0.12,0.46-0.17,0.81-0.23,1.04c-1.27,3.11-2.08,5.02-2.42,5.77l0,0c-0.23,0-0.52,0-0.92,0s-0.69,0-0.92,0l0,0
		c-0.35-0.75-1.1-2.65-2.36-5.77c-0.06-0.17-0.17-0.52-0.23-1.04l0,0l0,0l0,0l0,0c0,0.46,0.06,0.81,0,1.1
		c-0.23,3.34-0.4,5.42-0.46,6.23l0,0h1.33l0,0v1.67l0,0h-5.02l0,0v-1.67l0,0h1.38l0,0l0.69-8.88l0,0h-1.38l0,0v-1.67l0,0h4.04l0,0
		c1.15,3,2.08,5.19,2.65,6.69c0.17,0.46,0.29,0.86,0.4,1.27l0,0H303.55z"/>
	<path class="st19" d="M331.29,105.23L331.29,105.23v-2.36l0,0h2.13l0,0v2.36l0,0h2.02l0,0v1.67l0,0h-2.02l0,0l0,0
		c0,2.36,0,3.57,0,3.57c0,0.46,0.06,0.92,0.35,1.27c0.4,0.52,1.15,0.58,1.79,0.58l0,0v1.79l0,0c-1.04,0.12-2.31,0-3.17-0.63
		c-0.86-0.63-1.21-1.61-1.21-2.65c0-1.67,0-3,0-3.98l0,0h-1.33l0,0v-1.67l0,0h1.38L331.29,105.23z"/>
	<path class="st19" d="M316.87,105c2.65,0,4.9,1.9,4.9,4.67c0,2.77-2.25,4.67-4.9,4.67c-2.65,0-4.9-1.9-4.9-4.67
		C311.97,106.9,314.22,105,316.87,105z M316.87,112.44c1.44,0,2.65-1.27,2.65-2.77s-1.21-2.77-2.65-2.77l0,0
		c-1.44,0-2.65,1.27-2.65,2.77l0,0C314.22,111.23,315.43,112.44,316.87,112.44z"/>
	<path class="st19" d="M342.64,112.78c-0.46,0.63-1.04,1.04-1.79,1.15c-0.63,0.12-1.27,0.06-1.9-0.12
		c-1.73-0.52-2.65-2.19-2.77-3.92c-0.17-2.19,0.81-4.38,3.17-4.79c0.81-0.12,1.61,0,2.36,0.29c0.52,0.23,0.86,0.52,1.15,0.98l0,0
		c-0.12-0.69,0.23-1.04,0.92-1.1c0.23,0,0.98,0,2.31,0l0,0v1.61l0,0c0,0-0.23,0-0.75,0c-0.29,0-0.52,0-0.52,0.4c0,0.81,0,2.83,0,6
		c0,0.52,0,0.92-0.06,1.15c-0.35,1.9-1.84,3.06-3.75,3.23c-1.44,0.17-2.77-0.06-4.04-0.69l0,0l0.63-1.61l0,0
		c0.98,0.46,2.13,0.69,3.17,0.52c0.46-0.12,0.92-0.29,1.27-0.63s0.52-0.92,0.52-1.38c0-0.46,0-0.86,0-1.1l0,0H342.64z M340.57,106.9
		c-1.1,0-1.84,0.63-2.08,1.73c-0.29,1.33,0.12,3.17,1.73,3.4c0.4,0.06,0.75,0,1.1-0.06c1.33-0.46,1.5-2.13,1.33-3.29
		S341.78,106.9,340.57,106.9L340.57,106.9z"/>
	<path class="st19" d="M352.39,112.67c-0.69,1.21-1.73,1.73-3.17,1.67c-1.27-0.12-2.36-0.86-2.54-2.19
		c-0.4-2.54,2.08-3.34,4.04-3.52c0.46,0,0.98,0,1.44,0l0,0c0-0.29,0-0.52,0-0.75c-0.29-1.21-1.67-1.15-2.59-0.86
		c-0.52,0.17-1.04,0.4-1.5,0.69l0,0l-0.81-1.5l0,0c1.15-0.75,2.36-1.1,3.81-1.1c1.38,0,2.59,0.58,3.17,1.9
		c0.17,0.4,0.23,0.92,0.29,1.38c0,0,0,1.27,0,3.63c0,0.29,0.12,0.46,0.4,0.46c0.23,0,0.52,0,0.75,0l0,0v1.61l0,0
		c-0.35,0-0.98,0-1.84,0c-0.29,0-0.58,0-0.81-0.12c-0.46-0.23-0.58-0.63-0.52-1.1c0-0.17,0-0.23,0-0.23l0,0H352.39z M350.08,112.67
		c0.58,0,1.15-0.29,1.56-0.75c0.46-0.58,0.63-1.21,0.58-1.9l0,0c-0.86,0-2.59,0-3.11,0.86c-0.17,0.29-0.23,0.52-0.17,0.81
		C349.04,112.26,349.45,112.61,350.08,112.67L350.08,112.67z"/>
	<path class="st19" d="M362.53,112.78c-0.46,0.63-1.04,1.04-1.79,1.15c-0.63,0.12-1.27,0.06-1.9-0.12
		c-1.73-0.52-2.65-2.19-2.77-3.92c-0.17-2.19,0.81-4.38,3.17-4.79c0.81-0.12,1.61,0,2.36,0.29c0.52,0.23,0.86,0.52,1.15,0.98l0,0
		c-0.12-0.69,0.23-1.04,0.92-1.1c0.23,0,0.98,0,2.31,0l0,0v1.61l0,0h-0.75c-0.29,0-0.52,0-0.52,0.4c0,0.81,0,2.83,0,6
		c0,0.52,0,0.92-0.06,1.15c-0.35,1.9-1.84,3.06-3.75,3.23c-1.44,0.17-2.77-0.06-4.04-0.69l0,0l0.63-1.61l0,0
		c0.98,0.46,2.13,0.69,3.17,0.52c0.46-0.12,0.92-0.29,1.27-0.63c0.35-0.35,0.52-0.92,0.52-1.38c0-0.46,0-0.86,0-1.1l0,0H362.53z
		 M360.52,106.9c-1.1,0-1.84,0.63-2.08,1.73c-0.29,1.33,0.17,3.17,1.73,3.4c0.4,0.06,0.75,0,1.1-0.06c1.33-0.46,1.5-2.13,1.33-3.29
		C362.42,107.54,361.73,106.9,360.52,106.9L360.52,106.9z"/>
	<path class="st19" d="M368.93,110.01c0.06,1.1,0.75,1.96,1.79,2.31c0.98,0.29,2.13,0,3.06-0.52c0.06,0,0.17-0.12,0.4-0.23l0,0
		l0.81,1.5l0,0c-1.44,1.1-3.34,1.5-5.07,1.04c-1.73-0.52-3-1.9-3.23-3.69c-0.12-0.86,0-1.67,0.23-2.42
		c0.69-2.19,2.77-3.23,4.96-2.94c2.42,0.35,3.52,2.65,3.17,4.9l0,0h-6.11l0,0V110.01z M371.3,106.73c-0.92-0.12-1.67,0.4-2.08,1.21
		c-0.12,0.23-0.17,0.46-0.23,0.69l0,0h3.81l0,0c0-0.35-0.06-0.63-0.23-0.92c-0.23-0.52-0.75-0.92-1.33-0.98H371.3z"/>
	<path class="st19" d="M325.92,107.31C325.92,107.42,325.92,107.42,325.92,107.31c0.46-1.38,1.67-2.42,3.17-2.19l0,0v2.13l0,0
		c-0.23,0-0.4,0-0.63,0c-1.44,0-2.19,1.15-2.42,2.48c0,0.23,0,0.52,0,0.98c0,0.58,0,1.1,0,1.67l0,0h1.21l0,0l0,0v1.61l0,0h-4.73l0,0
		l0,0v-1.61l0,0h1.21l0,0c0-1.5,0-3.23,0-5.13c0-0.35-0.23-0.4-0.52-0.4s-0.58,0-0.86,0l0,0l0,0v-1.61l0,0c0.4,0,1.21,0,2.36,0
		c0.58,0,1.1,0.23,1.15,0.92c0,0.4,0,0.81,0,1.15H325.92z"/>
	<path class="st20" d="M297.44,119.3L297.44,119.3H296l0,0v-1.67l0,0c2.83,0,4.73,0,5.77,0c0.29,0,0.63,0,0.92,0
		c1.38,0.12,2.54,0.81,2.94,2.19c0.12,0.46,0.17,0.92,0.12,1.44c-0.12,0.86-0.52,1.56-1.27,2.08c0,0-0.12,0.06-0.17,0.12l0,0
		c1.1,0.4,1.73,1.15,1.9,2.31c0.17,0.98,0,2.02-0.63,2.77c-0.81,1.04-1.96,1.44-3.29,1.44c-0.69,0-2.83,0-6.28,0c-3.46,0,0,0,0,0
		v-1.67l0,0h1.44l0,0v-8.88V119.3z M299.75,119.35v3.17l0,0h2.19c0.81,0,1.5-0.63,1.5-1.5l0,0v-0.23c0-0.81-0.63-1.5-1.5-1.5l0,0
		h-2.19l0,0l0,0V119.35z M299.75,124.43V128l0,0h2.42c0.92,0,1.73-0.75,1.73-1.73l0,0v-0.23c0-0.92-0.75-1.73-1.73-1.73h-2.42l0,0
		V124.43z"/>
	<path class="st20" d="M327.94,119.47L327.94,119.47h-2.19l0,0v-1.96l0,0h2.19l0,0V119.47z"/>
	<g>
		
			<linearGradient id="SVGID_1_" gradientUnits="userSpaceOnUse" x1="243.4777" y1="269.495" x2="290.8122" y2="269.495" gradientTransform="matrix(1 0 0 -1 0 385.2756)">
			<stop  offset="0" style="stop-color:#EB004F"/>
			<stop  offset="1" style="stop-color:#05058C"/>
		</linearGradient>
		<path class="st21" d="M290.87,123.28c-0.17-1.33-0.75-2.48-1.67-3.46c-0.12-0.12-0.29-0.23-0.4-0.35l0,0
			c0.75-0.75,1.21-1.73,1.33-2.94c0.12-0.92,0-1.84-0.29-2.65c-0.92-2.59-3.57-3.69-6.23-3.69c-0.92,0-1.5,0-1.79,0
			c-0.4,0-0.69,0-0.92,0.06c-0.92,0.23-1.73,0.92-1.96,1.84c0,0.17-0.06,0.52-0.06,1.04c0,2.08,0,4.32,0,6.69
			c0,0.29,0,0.46,0.06,0.63c0.23,0.75,0.98,1.1,1.73,0.98c0.58-0.06,1.04-0.46,1.21-0.98c0-0.12,0.06-0.35,0.06-0.63
			c0-3.75,0-6,0-6.8l0,0c1.04,0,1.67,0,1.84,0c1.5,0.06,3,0.63,3.23,2.31c0.12,0.92,0,1.84-0.81,2.42c-0.52,0.4-1.33,0.69-1.79,0.86
			l0,0v2.02l0,0c0.23,0.06,0.52,0.12,0.81,0.23c0.35,0.12,0.63,0.17,0.81,0.23c1.38,0.69,1.96,2.19,1.79,3.69
			c-0.12,1.1-0.86,1.67-1.84,1.96c-0.58,0.17-1.21,0.23-1.84,0.23c-2.65,0-4.09,0-4.27,0c-0.06,0-0.12,0-0.17,0
			c-1.27,0-2.36,0-3.29,0l0,0l0,0c0-7.38,0-14.41,0-21.04c0-0.46,0-0.81-0.06-1.04c-0.17-0.81-0.58-1.5-1.21-2.08
			c-1.44-1.27-3.52-1.44-5.19-0.52c-1.04,0.58-1.73,1.5-2.02,2.65c0,0.23-0.06,0.58-0.06,1.04c0,3.57,0,8.88,0,15.97
			c0,0.23,0,0.4,0,0.52c-0.17,0.52-0.69,0.81-1.21,0.81c-0.17,0-0.29,0-0.35,0c-0.58,0-1.1-0.52-1.1-1.1c0-4.73,0-10.15,0-16.14
			c0-0.52,0-0.86-0.06-1.1c-0.4-1.84-2.08-3.06-3.98-3.17c-0.17,0-0.46,0-0.86,0c-1.79,0.17-3.46,1.38-3.81,3.17
			c0,0.29-0.06,0.46-0.06,0.58c0,3.98,0,10.67,0,20.06s0,0.35-0.06,0.46c-0.17,0.4-0.52,0.69-0.98,0.75c-0.46,0.06-0.81,0-1.15-0.35
			c-0.29-0.29-0.35-0.52-0.35-0.92c0-4.55,0-9.05,0-13.61c0-0.29,0-0.46,0-0.58c-0.23-0.75-0.98-1.1-1.67-1.04
			c-0.58,0.06-1.04,0.4-1.21,0.98c0,0.17-0.06,0.4-0.06,0.81c0,4.38,0,8.76,0,13.15c0,0.52,0,0.92,0.06,1.15
			c0.35,1.61,1.61,2.77,3.23,3.11c0.69,0.17,1.38,0.17,2.08,0c1.5-0.35,2.83-1.5,3.17-3.06c0-0.23,0.06-0.63,0.06-1.15v-19.37
			c0-0.29,0-0.52,0.06-0.63c0.12-0.35,0.4-0.58,0.81-0.69c0.69-0.12,1.38,0,1.67,0.69c0,0.12,0.06,0.29,0.06,0.46
			c0,10.2,0,15.45,0,15.8c0,0.52,0,0.92,0.06,1.15c0.4,2.08,2.31,3.34,4.38,3.29c2.02,0,3.92-1.21,4.32-3.23
			c0-0.23,0.06-0.63,0.06-1.15c0-1.5,0-6.75,0-15.8c0-0.29,0-0.46,0.06-0.58c0.23-0.52,0.75-0.75,1.27-0.69
			c0.46,0,0.86,0.35,1.04,0.75c0,0.12,0.06,0.29,0.06,0.46c0,4.21,0,11.7,0,22.43c0,0.29,0.06,0.58,0.23,0.86
			c0.29,0.4,0.75,0.69,1.27,0.75c3.06,0,6.17,0,9.22,0c1.1,0,2.08-0.17,3-0.46c1.9-0.58,3.29-1.9,3.69-3.86
			c0.17-0.75,0.17-1.5,0-2.31L290.87,123.28z"/>
		
			<linearGradient id="SVGID_00000152258242973682685390000004029962732142519189_" gradientUnits="userSpaceOnUse" x1="243.4784" y1="264.3761" x2="290.8069" y2="264.3761" gradientTransform="matrix(1 0 0 -1 -7.017781e-04 385.2735)">
			<stop  offset="0" style="stop-color:#EB004F"/>
			<stop  offset="1" style="stop-color:#05058C"/>
		</linearGradient>
		<path style="fill:url(#SVGID_00000152258242973682685390000004029962732142519189_);" d="M246.77,117.52l0.06,0
			c0.83,0,1.5,0.67,1.5,1.49l0.01,3.75c0,0.83-0.67,1.5-1.49,1.5l-0.06,0c-0.83,0-1.5-0.67-1.5-1.49l-0.01-3.75
			C245.27,118.2,245.94,117.53,246.77,117.52z"/>
	</g>
	<path class="st20" d="M333.59,122.7c0.58-1.04,1.44-1.67,2.59-1.9c0.23,0,0.58-0.06,0.98,0c0.4,0,0.81,0.12,1.21,0.29
		c1.21,0.52,1.5,1.9,1.5,3.06c0,1.38,0,2.71,0,4.09l0,0h1.27l0,0v1.61l0,0h-3.46l0,0c0-0.29,0-2.13,0-5.53c0-0.17,0-0.35-0.12-0.63
		c-0.17-0.69-0.69-0.92-1.38-0.86c-1.27,0-2.08,1.04-2.36,2.19c-0.06,0.23-0.12,0.63-0.12,1.15c0,1.27,0,1.9,0,2.02l0,0h1.21l0,0
		v1.61l0,0h-4.73l0,0v-1.61l0,0h1.21l0,0c0-1.33,0-3,0-5.07c0-0.23-0.06-0.4-0.35-0.46c0,0-0.4,0-1.04,0l0,0v-1.61l0,0
		c1.27,0,2.13,0,2.54,0c0.23,0,0.58,0.12,0.69,0.29c0.12,0.17,0.17,0.35,0.23,0.52c0,0.23,0,0.52,0,0.86l0,0L333.59,122.7z"/>
	<path class="st20" d="M320.22,128.46L320.22,128.46c-0.69,1.21-1.73,1.73-3.17,1.61c-1.27-0.12-2.36-0.86-2.54-2.19
		c-0.4-2.54,2.08-3.34,4.04-3.52c0.46,0,0.98,0,1.44,0l0,0c0-0.29,0-0.52,0-0.75c-0.29-1.21-1.67-1.15-2.59-0.92
		c-0.52,0.17-1.04,0.4-1.5,0.69l0,0l-0.81-1.5l0,0c1.15-0.75,2.36-1.1,3.81-1.1c1.38,0,2.59,0.58,3.17,1.9
		c0.17,0.4,0.23,0.92,0.23,1.38c0,0,0,1.27,0,3.63c0,0.29,0.06,0.46,0.4,0.46c0.23,0,0.52,0,0.75,0l0,0v1.61l0,0
		c-0.35,0-0.98,0-1.84,0c-0.29,0-0.58,0-0.81-0.12c-0.46-0.23-0.58-0.63-0.52-1.1c0-0.17,0-0.23,0-0.23L320.22,128.46z
		 M317.91,128.41c0.58,0,1.15-0.29,1.56-0.75c0.46-0.58,0.63-1.21,0.58-1.9l0,0c-0.86,0-2.59,0-3.11,0.86
		c-0.17,0.29-0.23,0.52-0.17,0.81C316.87,128,317.28,128.35,317.91,128.41L317.91,128.41z"/>
	<path class="st20" d="M310.82,123.1C310.82,123.22,310.82,123.22,310.82,123.1c0.46-1.38,1.67-2.42,3.17-2.19l0,0v2.13l0,0
		c-0.23,0-0.4,0-0.63,0c-1.44,0-2.19,1.15-2.42,2.48c0,0.23,0,0.52-0.06,0.98c0,0.58,0,1.1,0,1.67l0,0h1.21l0,0l0,0v1.61l0,0h-4.73
		l0,0l0,0v-1.61l0,0h1.21l0,0c0-1.5,0-3.23,0-5.13c0-0.35-0.23-0.4-0.52-0.4c-0.29,0-0.58,0-0.86,0l0,0v-1.61l0,0
		c0.4,0,1.21,0,2.36,0c0.58,0,1.1,0.23,1.15,0.92c0,0.4,0,0.81,0,1.15H310.82z"/>
	<path class="st20" d="M325.69,122.64h-1.33l0,0v-1.61l0,0h3.57l0,0v7.21l0,0h1.27l0,0v1.61l0,0h-4.73l0,0v-1.61l0,0h1.27l0,0v-5.53
		l0,0L325.69,122.64z"/>
</g>
</svg>
