<?xml version="1.0" encoding="UTF-8"?><svg id="Layer_1" xmlns="http://www.w3.org/2000/svg" viewBox="0 0 606.92 420.23"><defs><style>.cls-1,.cls-2,.cls-3,.cls-4,.cls-5,.cls-6,.cls-7{stroke-miterlimit:22.93;}.cls-1,.cls-2,.cls-4,.cls-5,.cls-7{stroke-width:.58px;}.cls-1,.cls-3,.cls-4,.cls-7{stroke:#bdbdbd;}.cls-1,.cls-4,.cls-8,.cls-9,.cls-10,.cls-5{fill:#fff;}.cls-1,.cls-10,.cls-5,.cls-11,.cls-12,.cls-13,.cls-14{fill-rule:evenodd;}.cls-15{fill:#ff0006;}.cls-15,.cls-16,.cls-17,.cls-8,.cls-18,.cls-19,.cls-10,.cls-20,.cls-21,.cls-22,.cls-11,.cls-23,.cls-12,.cls-13,.cls-14,.cls-24,.cls-25,.cls-26{stroke-width:0px;}.cls-2{stroke:#d5d5d6;}.cls-2,.cls-3,.cls-6,.cls-27,.cls-7{fill:none;}.cls-3,.cls-6{stroke-width:1.17px;}.cls-16{fill:#31160e;}.cls-28{isolation:isolate;}.cls-17{fill:#86c17e;}.cls-18{fill:#fae6eb;}.cls-9{stroke-width:3px;}.cls-9,.cls-29{stroke-miterlimit:10;}.cls-9,.cls-27{stroke:#d5d6d6;}.cls-19,.cls-11{fill:#0070ef;}.cls-29{fill:#3279e5;stroke:#fff;stroke-width:.5px;}.cls-20{fill:#f3f2f2;}.cls-5{stroke:#252726;}.cls-21{fill:#e42943;}.cls-22{fill:#e7605b;}.cls-6{stroke:#424241;}.cls-23{fill:#e58025;}.cls-12{fill:#e43b13;}.cls-13{fill:#252726;}.cls-27{stroke-linecap:round;stroke-linejoin:round;stroke-width:6px;}.cls-14{fill:#959595;}.cls-24{fill:#424241;}.cls-25{fill:#1d1d1b;}.cls-26{fill:#f9fafb;}</style></defs><rect class="cls-8" x="12.49" y="37.36" width="316.62" height="382.81"/><rect class="cls-26" x="32.77" y="122.06" width="276.06" height="283.19"/><rect class="cls-18" x="53.74" y="177.35" width="49.86" height="20.93" rx="2.04" ry="2.04"/><path class="cls-20" d="m38.85,43.19h90.93c7.96,0,14.42,6.46,14.42,14.42h0c0,7.96-6.46,14.42-14.42,14.42H38.85c-7.96,0-14.42-6.46-14.42-14.42h0c0-7.96,6.46-14.42,14.42-14.42Z"/><circle class="cls-23" cx="38.52" cy="57.61" r="11.43"/><path class="cls-3" d="m120.01,54.45l6.45,6.59m.01-6.59l-6.45,6.59"/><path class="cls-20" d="m159.29,43.19h112.95c7.96,0,14.42,6.46,14.42,14.42h0c0,7.96-6.46,14.42-14.42,14.42h-112.95c-7.96,0-14.42-6.46-14.42-14.42h0c0-7.96,6.46-14.42,14.42-14.42Z"/><circle class="cls-16" cx="158.96" cy="57.61" r="11.43"/><path class="cls-3" d="m262.59,54.45l6.45,6.59m0-6.59l-6.45,6.59"/><rect class="cls-4" x="53.74" y="155.29" width="202.53" height="22.07" rx="2.15" ry="2.15"/><line class="cls-2" x1="329.11" y1="78.08" x2="12.49" y2="78.08"/><path class="cls-14" d="m229.17,166.32c0-2.81-2.28-5.09-5.09-5.09s-5.09,2.28-5.09,5.09,2.28,5.09,5.09,5.09,5.09-2.28,5.09-5.09Z"/><polygon class="cls-10" points="226.22 169.25 224.08 167.16 221.94 169.25 221.1 168.38 223.22 166.32 221.1 164.26 221.94 163.39 224.08 165.48 226.22 163.39 227.06 164.26 224.95 166.32 227.06 168.38 226.22 169.25"/><path class="cls-13" d="m243.73,161.96h3.78v-.72h1.27v.73c.69.06,1.24.65,1.24,1.36v6.07c0,.75-.61,1.36-1.36,1.36h-6.08c-.75,0-1.36-.61-1.36-1.36v-6.07c0-.71.55-1.3,1.24-1.36v-.73h1.27v.72h0Zm-1.31,2.48v5.08h6.41v-5.08h-6.41Zm3.2,1.92v2.5h2.52v-2.5h-2.52Z"/><path class="cls-5" d="m63.36,248.62c0-2.63-2.13-4.76-4.76-4.76s-4.76,2.13-4.76,4.76,2.13,4.76,4.76,4.76,4.76-2.13,4.76-4.76Z"/><path class="cls-13" d="m60.58,248.62c0-1.09-.89-1.98-1.98-1.98s-1.98.89-1.98,1.98.89,1.98,1.98,1.98,1.98-.89,1.98-1.98Z"/><rect class="cls-17" x="73.74" y="242.22" width="12.8" height="12.8" rx="1.26" ry="1.26"/><path class="cls-10" d="m85.42,248.46h-7.97l-1.83-3.81,9.8,3.81h0Zm0,.42h-7.97l-1.83,3.81,9.8-3.81Z"/><path class="cls-1" d="m162.26,248.62c0-2.63-2.13-4.76-4.76-4.76s-4.76,2.13-4.76,4.76,2.13,4.76,4.76,4.76,4.76-2.13,4.76-4.76Z"/><rect class="cls-22" x="172.64" y="242.22" width="12.8" height="12.8" rx="1.26" ry="1.26"/><path class="cls-4" d="m56.19,299.45h197.66c1.35,0,2.44,1.09,2.44,2.44v20.2c0,1.35-1.09,2.44-2.44,2.44H56.18c-1.35,0-2.44-1.09-2.44-2.44v-20.2c0-1.35,1.09-2.44,2.44-2.44h0Z"/><path class="cls-10" d="m183.41,248.71c0-2.41-1.95-4.36-4.36-4.36s-4.36,1.95-4.36,4.36,1.95,4.36,4.36,4.36,4.36-1.95,4.36-4.36h0Zm-6.58-2.22l4.43,4.43c-.57.57-1.35.92-2.22.92-1.73,0-3.14-1.4-3.14-3.14,0-.87.35-1.65.92-2.22h.01Z"/><path class="cls-1" d="m63.11,342.87c0-2.63-2.13-4.76-4.76-4.76s-4.76,2.13-4.76,4.76,2.13,4.76,4.76,4.76,4.76-2.13,4.76-4.76Z"/><path class="cls-1" d="m63.11,381.75c0-2.63-2.13-4.76-4.76-4.76s-4.76,2.13-4.76,4.76,2.13,4.76,4.76,4.76,4.76-2.13,4.76-4.76Z"/><path class="cls-5" d="m156.42,342.87c0-2.63-2.13-4.76-4.76-4.76s-4.76,2.13-4.76,4.76,2.13,4.76,4.76,4.76,4.76-2.13,4.76-4.76Z"/><path class="cls-13" d="m153.63,342.87c0-1.09-.89-1.98-1.98-1.98s-1.98.89-1.98,1.98.89,1.98,1.98,1.98,1.98-.89,1.98-1.98Z"/><path class="cls-1" d="m152.37,381.75c0-2.63-2.13-4.76-4.76-4.76s-4.76,2.13-4.76,4.76,2.13,4.76,4.76,4.76,4.76-2.13,4.76-4.76Z"/><polyline class="cls-7" points="244.87 310.14 241.68 313.32 238.49 310.14"/><path class="cls-8" d="m323.4,0h47.95c6.81,0,12.33,5.53,12.33,12.33v45.11c0,6.81-5.53,12.33-12.33,12.33h-47.95c-6.81,0-12.33-5.53-12.33-12.33V12.33c0-6.81,5.53-12.33,12.33-12.33Z"/><path class="cls-11" d="m336.46,43.82h21.06v-.65c0-.31-.25-.69-.53-1.12-.5-.77-1.07-1.64-1.07-2.98v-6.29c0-2.56-1.05-4.88-2.73-6.57-1.68-1.69-4.01-2.73-6.57-2.73s-4.89,1.05-6.57,2.73c-1.69,1.69-2.73,4.02-2.73,6.57v6.29c0,1.35-.56,2.21-1.07,2.98-.28.43-.53.81-.53,1.12v.65h.74Zm5.79,1.73c.15.95.6,1.79,1.24,2.44.8.8,1.91,1.3,3.14,1.3.53,0,1.05-.09,1.54-.27.49-.18.95-.45,1.34-.79l1.13,1.32c-.56.48-1.2.85-1.87,1.1-.68.25-1.4.38-2.14.38-1.7,0-3.24-.69-4.36-1.81-.96-.97-1.61-2.24-1.77-3.67h-5.04c-.43,0-.79-.18-1.05-.46-.26-.28-.41-.65-.41-1.05v-.89c0-.83.38-1.42.81-2.07.37-.56.78-1.19.78-2.03v-6.29c0-3.04,1.24-5.8,3.24-7.8,1.81-1.81,4.24-3,6.93-3.21v-3.03h1.74v3.03c2.69.21,5.12,1.4,6.93,3.21,2,2,3.24,4.76,3.24,7.8v6.29c0,.84.41,1.47.78,2.03.43.65.81,1.24.81,2.07v.89c0,.4-.15.77-.41,1.05s-.63.46-1.06.46h-15.55.01Z"/><path class="cls-12" d="m359.88,26.78c0-2.96-2.4-5.36-5.36-5.36s-5.36,2.4-5.36,5.36,2.4,5.36,5.36,5.36,5.36-2.4,5.36-5.36Z"/><path class="cls-11" d="m359.01,26.78c0-1.24-.5-2.37-1.32-3.18s-1.94-1.32-3.18-1.32-2.37.5-3.18,1.32c-.81.81-1.32,1.93-1.32,3.18s.5,2.37,1.31,3.18,1.94,1.32,3.18,1.32,2.37-.5,3.18-1.31c.81-.82,1.32-1.94,1.32-3.18h.01Zm-.09-4.41c1.13,1.13,1.83,2.69,1.83,4.41s-.7,3.28-1.83,4.41c-1.13,1.13-2.69,1.83-4.41,1.83s-3.28-.7-4.4-1.83c-1.13-1.13-1.83-2.69-1.83-4.41s.7-3.28,1.83-4.41c1.13-1.13,2.68-1.83,4.41-1.83s3.28.7,4.41,1.83h-.01Z"/><path class="cls-8" d="m15.26,11.69h1.98l3.93,8.78,3.91-8.78h1.97v11.2h-1.84v-7.67l-3.41,7.67h-1.27l-3.43-7.67v7.67h-1.84s0-11.2,0-11.2Z"/><path class="cls-8" d="m33.31,23.03c-2.53,0-4.45-1.8-4.45-4.59s2-4.58,4.53-4.58,4.53,1.79,4.53,4.58-2.06,4.59-4.61,4.59Zm0-1.6c1.37,0,2.72-.98,2.72-3s-1.3-2.98-2.67-2.98-2.63.97-2.63,2.98,1.19,3,2.58,3Z"/><path class="cls-8" d="m41.57,22.88h-1.84v-8.88h1.84v1.29c.52-.89,1.4-1.43,2.66-1.43v1.9h-.47c-1.35,0-2.19.56-2.19,2.45v4.67Z"/><path class="cls-8" d="m46.2,15.5h-1.05v-1.5h1.05v-2.21h1.85v2.21h2.16v1.5h-2.16v4.91c0,.66.26.93,1.03.93h1.13v1.53h-1.45c-1.58,0-2.56-.66-2.56-2.46,0,0,0-4.91,0-4.91Z"/><path class="cls-8" d="m55.48,13.86c1.45,0,2.53.68,3.08,1.43v-1.29h1.85v9.02c0,2.42-1.56,4.24-4.33,4.24-2.37,0-4.12-1.18-4.35-3.14h1.82c.27.92,1.26,1.55,2.53,1.55,1.42,0,2.48-.87,2.48-2.64v-1.48c-.56.76-1.63,1.48-3.08,1.48-2.34,0-4.19-1.88-4.19-4.62s1.85-4.54,4.19-4.54h0Zm.39,1.6c-1.37,0-2.69,1.03-2.69,2.95s1.32,3.03,2.69,3.03,2.69-1.08,2.69-3-1.3-2.98-2.69-2.98Z"/><path class="cls-8" d="m66.4,13.86c1.5,0,2.53.71,3.08,1.43v-1.29h1.85v8.88h-1.85v-1.32c-.56.76-1.63,1.47-3.11,1.47-2.3,0-4.16-1.88-4.16-4.62s1.85-4.54,4.19-4.54h0Zm.39,1.6c-1.37,0-2.69,1.03-2.69,2.95s1.32,3.03,2.69,3.03,2.69-1.08,2.69-3-1.3-2.98-2.69-2.98Z"/><path class="cls-8" d="m77.32,13.86c1.45,0,2.53.68,3.08,1.43v-1.29h1.85v9.02c0,2.42-1.56,4.24-4.33,4.24-2.37,0-4.12-1.18-4.35-3.14h1.82c.27.92,1.26,1.55,2.53,1.55,1.42,0,2.48-.87,2.48-2.64v-1.48c-.56.76-1.63,1.48-3.08,1.48-2.34,0-4.19-1.88-4.19-4.62s1.85-4.54,4.19-4.54h0Zm.38,1.6c-1.37,0-2.69,1.03-2.69,2.95s1.32,3.03,2.69,3.03,2.69-1.08,2.69-3-1.3-2.98-2.69-2.98Z"/><path class="cls-8" d="m88.47,23.03c-2.54,0-4.43-1.8-4.43-4.59s1.8-4.58,4.43-4.58,4.32,1.76,4.32,4.37c0,.31-.02.6-.06.9h-6.78c.13,1.47,1.18,2.35,2.53,2.35,1.13,0,1.76-.55,2.09-1.24h1.98c-.5,1.55-1.9,2.79-4.08,2.79Zm-2.51-5.38h4.91c-.03-1.37-1.11-2.24-2.48-2.24-1.24,0-2.24.84-2.43,2.24Z"/><path class="cls-8" d="m97.81,23.03c-2.13,0-3.62-1.26-3.71-2.87h1.9c.06.72.76,1.32,1.77,1.32s1.63-.45,1.63-1.06c0-1.74-5.16-.74-5.16-3.99,0-1.42,1.32-2.56,3.41-2.56s3.33,1.08,3.43,2.85h-1.84c-.06-.77-.66-1.31-1.66-1.31s-1.5.4-1.5,1c0,1.79,5.01.79,5.11,3.99,0,1.5-1.3,2.63-3.4,2.63h.02Z"/><path class="cls-8" d="m33.42,54.86h1.09l2.17,4.84,2.16-4.84h1.08v6.17h-1.01v-4.23l-1.88,4.23h-.7l-1.89-4.23v4.23h-1.01v-6.17h-.01Z"/><path class="cls-8" d="m43.29,61.1c-1.24,0-2.19-.67-2.19-1.77h1.08c.04.51.4.92,1.1.92s1.11-.38,1.11-.91c0-1.49-3.28-.52-3.28-2.8,0-1.08.86-1.76,2.12-1.76,1.18,0,2.02.62,2.11,1.68h-1.12c-.04-.42-.4-.8-1.04-.82-.59-.02-1.04.27-1.04.86,0,1.39,3.27.52,3.27,2.78,0,.92-.75,1.81-2.13,1.81h0Z"/><path class="cls-24" d="m56.83,54.9h1.19l2.37,5.29,2.36-5.29h1.18v6.74h-1.11v-4.62l-2.06,4.62h-.77l-2.07-4.62v4.62h-1.11v-6.74h.02Z"/><path class="cls-24" d="m67.54,56.21c.9,0,1.52.43,1.85.86v-.78h1.12v5.35h-1.12v-.8c-.34.46-.98.88-1.87.88-1.39,0-2.5-1.13-2.5-2.78s1.12-2.74,2.52-2.74h0Zm.23.97c-.83,0-1.62.62-1.62,1.78s.79,1.82,1.62,1.82,1.62-.65,1.62-1.8-.79-1.79-1.62-1.79h0Z"/><path class="cls-24" d="m73.06,61.65h-1.11v-5.35h1.11v.78c.31-.53.84-.86,1.6-.86v1.14h-.28c-.81,0-1.32.34-1.32,1.47v2.81h0Z"/><path class="cls-24" d="m79.34,56.3h1.15l-3.28,7.86h-1.14l1.09-2.6-2.11-5.26h1.23l1.5,4.07s1.56-4.07,1.56-4.07Z"/><path class="cls-24" d="m86.06,61.72c-1.35,0-2.39-.74-2.39-1.93h1.18c.05.55.44,1,1.2,1s1.21-.42,1.21-.99c0-1.63-3.58-.57-3.58-3.06,0-1.18.94-1.92,2.32-1.92,1.29,0,2.2.68,2.3,1.83h-1.22c-.04-.46-.44-.87-1.14-.89-.64-.02-1.13.29-1.13.94,0,1.52,3.57.57,3.57,3.04,0,1.01-.82,1.98-2.33,1.98h.01Z"/><path class="cls-24" d="m97.27,58.66c0-.98-.53-1.48-1.34-1.48s-1.35.5-1.35,1.48v2.99h-1.1v-2.99c0-.98-.53-1.48-1.34-1.48s-1.35.5-1.35,1.48v2.99h-1.11v-5.35h1.11v.61c.36-.44.94-.7,1.58-.7.84,0,1.55.36,1.92,1.06.33-.65,1.09-1.06,1.86-1.06,1.25,0,2.2.79,2.2,2.28v3.15h-1.1v-2.99h.02Z"/><path class="cls-24" d="m99.61,54.89c0-.4.31-.71.71-.71s.7.31.7.71-.31.71-.7.71-.71-.31-.71-.71Zm.15,1.41h1.11v5.35h-1.11v-5.35Z"/><path class="cls-24" d="m102.49,57.2h-.63v-.9h.63v-1.33h1.12v1.33h1.3v.9h-1.3v2.96c0,.4.16.56.62.56h.68v.92h-.87c-.95,0-1.54-.4-1.54-1.48v-2.96h-.01Z"/><path class="cls-24" d="m105.92,54.47h1.11v2.45c.37-.45.97-.71,1.66-.71,1.19,0,2.12.79,2.12,2.28v3.15h-1.1v-2.99c0-.98-.53-1.48-1.34-1.48s-1.35.5-1.35,1.48v2.99h-1.11v-7.18h0Z"/><path class="cls-8" d="m156.01,54.78c1.29,0,2.4.65,2.87,1.86h-1.22c-.33-.66-.92-.97-1.65-.97-1.23,0-2.11.87-2.11,2.27s.89,2.27,2.11,2.27c.74,0,1.32-.31,1.65-.97h1.22c-.47,1.21-1.58,1.85-2.87,1.85-1.74,0-3.15-1.3-3.15-3.15s1.41-3.15,3.15-3.15h0Z"/><path class="cls-8" d="m160.07,54.86h1.09l2.17,4.84,2.16-4.84h1.08v6.17h-1.01v-4.23l-1.88,4.23h-.7l-1.89-4.23v4.23h-1.01v-6.17h-.01Z"/><path class="cls-24" d="m179.5,54.82c1.41,0,2.62.71,3.13,2.03h-1.33c-.36-.72-1-1.06-1.8-1.06-1.34,0-2.31.95-2.31,2.47s.97,2.48,2.31,2.48c.81,0,1.45-.34,1.8-1.06h1.33c-.51,1.32-1.73,2.02-3.13,2.02-1.9,0-3.44-1.42-3.44-3.44s1.54-3.44,3.44-3.44Z"/><path class="cls-24" d="m183.91,54.47h1.11v2.45c.37-.45.97-.71,1.66-.71,1.19,0,2.12.79,2.12,2.28v3.15h-1.1v-2.99c0-.98-.53-1.48-1.34-1.48s-1.35.5-1.35,1.48v2.99h-1.11v-7.18h.01Z"/><path class="cls-24" d="m191.31,61.65h-1.11v-5.35h1.11v.78c.31-.53.84-.86,1.6-.86v1.14h-.28c-.81,0-1.32.34-1.32,1.47v2.81h0Z"/><path class="cls-24" d="m193.78,54.89c0-.4.31-.71.71-.71s.7.31.7.71-.31.71-.7.71-.71-.31-.71-.71Zm.15,1.41h1.11v5.35h-1.11v-5.35Z"/><path class="cls-24" d="m198.42,61.73c-1.28,0-2.18-.76-2.23-1.73h1.15c.04.44.46.8,1.07.8s.98-.27.98-.64c0-1.05-3.1-.45-3.1-2.41,0-.85.8-1.54,2.06-1.54s2.01.65,2.07,1.72h-1.11c-.04-.47-.4-.79-1-.79s-.9.24-.9.6c0,1.08,3.02.48,3.08,2.41,0,.9-.79,1.58-2.05,1.58h-.02Z"/><path class="cls-24" d="m207.9,55.8h-2.62v1.98h2.33v.9h-2.33v2.07h2.62v.9h-3.73v-6.75h3.73s0,.9,0,.9Z"/><path class="cls-24" d="m211.78,54.9h1.19l2.37,5.29,2.36-5.29h1.18v6.74h-1.11v-4.62l-2.06,4.62h-.77l-2.07-4.62v4.62h-1.11v-6.74h.02Z"/><path class="cls-24" d="m222.48,56.21c.9,0,1.52.43,1.85.86v-.78h1.12v5.35h-1.12v-.8c-.34.46-.98.88-1.87.88-1.39,0-2.5-1.13-2.5-2.78s1.12-2.74,2.52-2.74h0Zm.23.97c-.82,0-1.62.62-1.62,1.78s.8,1.82,1.62,1.82,1.62-.65,1.62-1.8-.79-1.79-1.62-1.79h0Z"/><path class="cls-24" d="m228,61.65h-1.11v-5.35h1.11v.78c.31-.53.84-.86,1.6-.86v1.14h-.28c-.81,0-1.32.34-1.32,1.47v2.81h0Z"/><path class="cls-24" d="m232.56,61.73c-1.28,0-2.18-.76-2.23-1.73h1.15c.04.44.46.8,1.07.8s.98-.27.98-.64c0-1.05-3.1-.45-3.1-2.41,0-.85.8-1.54,2.06-1.54s2.01.65,2.07,1.72h-1.11c-.04-.47-.4-.79-1-.79s-.9.24-.9.6c0,1.08,3.02.48,3.08,2.41,0,.9-.79,1.58-2.05,1.58h-.02Z"/><path class="cls-24" d="m235.8,54.47h1.11v2.45c.37-.45.97-.71,1.66-.71,1.19,0,2.12.79,2.12,2.28v3.15h-1.1v-2.99c0-.98-.53-1.48-1.34-1.48s-1.35.5-1.35,1.48v2.99h-1.11v-7.18h.01Z"/><path class="cls-24" d="m244.24,56.21c.9,0,1.52.43,1.85.86v-.78h1.12v5.35h-1.12v-.8c-.34.46-.98.88-1.87.88-1.39,0-2.5-1.13-2.5-2.78s1.12-2.74,2.52-2.74h0Zm.23.97c-.82,0-1.62.62-1.62,1.78s.8,1.82,1.62,1.82,1.62-.65,1.62-1.8-.79-1.79-1.62-1.79h0Z"/><path class="cls-24" d="m248.66,54.47h1.11v7.18h-1.11v-7.18Z"/><path class="cls-24" d="m251.22,54.47h1.11v7.18h-1.11v-7.18Z"/><path class="cls-24" d="m53.2,97.37h1.19l2.37,5.29,2.36-5.29h1.18v6.74h-1.11v-4.62l-2.06,4.62h-.77l-2.07-4.62v4.62h-1.11v-6.74h.02Z"/><path class="cls-24" d="m64.06,104.2c-1.52,0-2.68-1.09-2.68-2.77s1.2-2.75,2.73-2.75,2.73,1.08,2.73,2.75-1.24,2.77-2.77,2.77h-.01Zm0-.96c.82,0,1.64-.59,1.64-1.8s-.79-1.79-1.61-1.79-1.58.58-1.58,1.79.72,1.8,1.55,1.8Z"/><path class="cls-24" d="m69.03,104.11h-1.11v-5.35h1.11v.78c.31-.53.84-.86,1.6-.86v1.14h-.28c-.81,0-1.32.34-1.32,1.47v2.81h0Z"/><path class="cls-24" d="m71.82,99.67h-.63v-.9h.63v-1.33h1.12v1.33h1.3v.9h-1.3v2.96c0,.4.16.56.62.56h.68v.92h-.87c-.95,0-1.54-.4-1.54-1.48v-2.96h-.01Z"/><path class="cls-24" d="m77.41,98.68c.87,0,1.52.41,1.85.86v-.78h1.12v5.43c0,1.46-.94,2.55-2.61,2.55-1.43,0-2.48-.71-2.62-1.89h1.1c.17.55.76.93,1.52.93.85,0,1.49-.52,1.49-1.59v-.89c-.34.46-.98.89-1.85.89-1.41,0-2.52-1.13-2.52-2.78s1.12-2.74,2.52-2.74h0Zm.23.96c-.82,0-1.62.62-1.62,1.78s.8,1.82,1.62,1.82,1.62-.65,1.62-1.8-.79-1.79-1.62-1.79h0Z"/><path class="cls-24" d="m83.98,98.68c.9,0,1.52.43,1.85.86v-.78h1.12v5.35h-1.12v-.8c-.34.46-.98.88-1.87.88-1.39,0-2.5-1.13-2.5-2.78s1.12-2.74,2.52-2.74h0Zm.23.96c-.83,0-1.62.62-1.62,1.78s.79,1.82,1.62,1.82,1.62-.65,1.62-1.8-.79-1.79-1.62-1.79h0Z"/><path class="cls-24" d="m90.55,98.68c.87,0,1.52.41,1.85.86v-.78h1.12v5.43c0,1.46-.94,2.55-2.61,2.55-1.43,0-2.48-.71-2.62-1.89h1.1c.17.55.76.93,1.52.93.85,0,1.49-.52,1.49-1.59v-.89c-.34.46-.98.89-1.85.89-1.41,0-2.52-1.13-2.52-2.78s1.12-2.74,2.52-2.74h0Zm.24.96c-.83,0-1.62.62-1.62,1.78s.79,1.82,1.62,1.82,1.62-.65,1.62-1.8-.79-1.79-1.62-1.79h0Z"/><path class="cls-24" d="m97.27,104.2c-1.53,0-2.67-1.09-2.67-2.77s1.09-2.75,2.67-2.75,2.6,1.06,2.6,2.63c0,.18,0,.36-.04.54h-4.08c.08.88.71,1.42,1.52,1.42.68,0,1.06-.33,1.26-.75h1.19c-.3.93-1.14,1.68-2.45,1.68Zm-1.51-3.24h2.96c-.02-.83-.67-1.35-1.49-1.35-.75,0-1.35.5-1.46,1.35h-.01Z"/><path class="cls-24" d="m103.47,97.37h1.11v6.74h-1.11v-6.74Z"/><path class="cls-24" d="m109.82,101.12c0-.98-.53-1.48-1.34-1.48s-1.35.5-1.35,1.48v2.99h-1.11v-5.35h1.11v.61c.36-.44.95-.7,1.59-.7,1.25,0,2.19.79,2.19,2.28v3.15h-1.1v-2.99h0Z"/><path class="cls-24" d="m112.45,99.67h-.63v-.9h.63v-.38c0-1.23.63-1.77,2.03-1.77v.92c-.68,0-.91.23-.91.84v.38h.99v.9h-.99v4.44h-1.12v-4.44h0Z"/><path class="cls-24" d="m117.86,104.2c-1.52,0-2.68-1.09-2.68-2.77s1.2-2.75,2.73-2.75,2.73,1.08,2.73,2.75-1.24,2.77-2.77,2.77h-.01Zm0-.96c.82,0,1.64-.59,1.64-1.8s-.79-1.79-1.61-1.79-1.58.58-1.58,1.79.72,1.8,1.55,1.8Z"/><path class="cls-24" d="m122.83,104.11h-1.11v-5.35h1.11v.78c.31-.53.84-.86,1.6-.86v1.14h-.28c-.81,0-1.32.34-1.32,1.47v2.81h0Z"/><path class="cls-24" d="m133.02,101.12c0-.98-.53-1.48-1.34-1.48s-1.35.5-1.35,1.48v2.99h-1.1v-2.99c0-.98-.53-1.48-1.34-1.48s-1.35.5-1.35,1.48v2.99h-1.11v-5.35h1.11v.61c.36-.44.94-.7,1.58-.7.84,0,1.55.36,1.92,1.06.33-.65,1.09-1.06,1.86-1.06,1.25,0,2.2.79,2.2,2.28v3.15h-1.1v-2.99h.02Z"/><path class="cls-24" d="m137.67,98.68c.9,0,1.52.43,1.85.86v-.78h1.12v5.35h-1.12v-.8c-.34.46-.98.88-1.87.88-1.39,0-2.5-1.13-2.5-2.78s1.12-2.74,2.52-2.74h0Zm.23.96c-.82,0-1.62.62-1.62,1.78s.8,1.82,1.62,1.82,1.62-.65,1.62-1.8-.79-1.79-1.62-1.79h0Z"/><path class="cls-24" d="m142.26,99.67h-.63v-.9h.63v-1.33h1.12v1.33h1.3v.9h-1.3v2.96c0,.4.16.56.62.56h.68v.92h-.87c-.95,0-1.54-.4-1.54-1.48v-2.96h0Z"/><path class="cls-24" d="m145.54,97.35c0-.4.31-.71.71-.71s.7.31.7.71-.31.71-.7.71-.71-.31-.71-.71Zm.15,1.41h1.11v5.35h-1.11v-5.35Z"/><path class="cls-24" d="m150.57,104.2c-1.52,0-2.68-1.09-2.68-2.77s1.2-2.75,2.73-2.75,2.73,1.08,2.73,2.75-1.24,2.77-2.77,2.77h0Zm0-.96c.82,0,1.64-.59,1.64-1.8s-.79-1.79-1.61-1.79-1.58.58-1.58,1.79.72,1.8,1.55,1.8Z"/><path class="cls-24" d="m158.22,101.12c0-.98-.53-1.48-1.34-1.48s-1.35.5-1.35,1.48v2.99h-1.11v-5.35h1.11v.61c.36-.44.95-.7,1.59-.7,1.25,0,2.19.79,2.19,2.28v3.15h-1.1v-2.99h.01Z"/><path class="cls-24" d="m55.06,139.03h3.56v.81h-2.57v1.78h2v.81h-2v2.65h-.99v-6.05h0Z"/><path class="cls-24" d="m61.62,145.16c-1.37,0-2.4-.98-2.4-2.48s1.08-2.47,2.45-2.47,2.45.97,2.45,2.47-1.11,2.48-2.49,2.48h0Zm0-.86c.74,0,1.47-.53,1.47-1.62s-.71-1.61-1.45-1.61-1.42.52-1.42,1.61.64,1.62,1.39,1.62h0Z"/><path class="cls-24" d="m65.08,138.64h.99v6.44h-.99v-6.44Z"/><path class="cls-24" d="m67.38,138.64h.99v6.44h-.99v-6.44Z"/><path class="cls-24" d="m71.75,145.16c-1.37,0-2.4-.98-2.4-2.48s1.08-2.47,2.45-2.47,2.45.97,2.45,2.47-1.11,2.48-2.49,2.48h0Zm0-.86c.74,0,1.47-.53,1.47-1.62s-.71-1.61-1.45-1.61-1.42.52-1.42,1.61.64,1.62,1.39,1.62h0Z"/><path class="cls-24" d="m74.65,140.29h1.01l1,3.86,1.02-3.86h1.04l.98,3.84.99-3.84h.98l-1.49,4.8h-1.04l-.97-3.54-.97,3.54h-1.04l-1.5-4.8h-.01Z"/><path class="cls-24" d="m84.64,139.03h.99v3.86c0,.94.53,1.38,1.37,1.38s1.38-.44,1.38-1.38v-3.86h.99v3.84c0,1.54-1.11,2.27-2.38,2.27s-2.35-.73-2.35-2.27v-3.84Z"/><path class="cls-24" d="m93.31,140.21c1.26,0,2.25.98,2.25,2.46s-.99,2.5-2.25,2.5c-.79,0-1.36-.4-1.67-.77v2.98h-.99v-7.08h.99v.71c.3-.4.89-.78,1.67-.78v-.02Zm-.21.86c-.74,0-1.45.58-1.45,1.61s.71,1.62,1.45,1.62,1.46-.6,1.46-1.64-.71-1.59-1.46-1.59Z"/><path class="cls-24" d="m100.56,139.95l1-.78.39.7-1.19.44,1.19.44-.4.71-.99-.78.18,1.26h-.8l.17-1.26-.99.8-.42-.74,1.18-.44-1.18-.43.4-.71,1.02.78-.17-1.27h.81l-.19,1.27h0Z"/><path class="cls-25" d="m61.62,163.65h3.56v.81h-2.57v1.78h2v.81h-2v2.65h-.99v-6.05h0Z"/><path class="cls-25" d="m67.09,169.7h-.99v-4.8h.99v.7c.28-.48.76-.77,1.44-.77v1.03h-.25c-.73,0-1.18.3-1.18,1.32v2.52h-.01Z"/><path class="cls-25" d="m69.31,163.63c0-.36.28-.64.64-.64s.63.28.63.64-.28.64-.63.64-.64-.28-.64-.64Zm.13,1.27h.99v4.8h-.99v-4.8Z"/><path class="cls-25" d="m71.74,168.51h1.08l-1.05,2.4h-.64l.62-2.4h-.01Z"/><path class="cls-25" d="m75.74,168.89c1.5-1.31,3.07-2.46,3.07-3.71,0-.66-.29-1.11-1.03-1.11-.7,0-1.07.49-1.1,1.2h-.96c.03-1.38.92-2.05,2.05-2.05,1.29,0,2.02.77,2.02,1.91,0,1.54-1.57,2.72-2.59,3.65h2.76v.83h-4.23v-.72h0Z"/><path class="cls-25" d="m82.9,163.2c1.26,0,1.95.73,1.95,1.65,0,.76-.48,1.27-.98,1.44v.04c.66.2,1.09.75,1.09,1.63,0,1.01-.71,1.78-2.04,1.78-1.2,0-2.13-.63-2.19-1.87h.96c.04.59.48,1.04,1.23,1.04s1.11-.45,1.11-1.04c0-.84-.54-1.12-1.58-1.12h-.23v-.82h.23c.9,0,1.45-.27,1.45-.95,0-.55-.36-.91-1.04-.91s-1.02.42-1.08.86h-.97c.07-1.1.92-1.72,2.08-1.72h.01Z"/><path class="cls-25" d="m90.38,169.76c-1.21,0-2.14-.66-2.14-1.73h1.06c.04.5.39.9,1.08.9s1.09-.37,1.09-.89c0-1.46-3.21-.51-3.21-2.74,0-1.06.84-1.72,2.08-1.72,1.16,0,1.98.61,2.06,1.65h-1.1c-.04-.41-.39-.78-1.02-.8-.57-.02-1.02.26-1.02.84,0,1.37,3.2.51,3.2,2.73,0,.91-.74,1.78-2.09,1.78v-.02Z"/><path class="cls-25" d="m95.7,169.78c-1.38,0-2.39-.98-2.39-2.48s.98-2.47,2.39-2.47,2.33.95,2.33,2.36c0,.17,0,.32-.04.49h-3.66c.07.79.64,1.27,1.37,1.27.61,0,.95-.3,1.13-.67h1.07c-.27.84-1.03,1.51-2.2,1.51h0Zm-1.35-2.91h2.66c-.02-.74-.6-1.21-1.34-1.21-.67,0-1.21.45-1.31,1.21h-.01Z"/><path class="cls-25" d="m101.67,164.82c1.26,0,2.25.97,2.25,2.45s-.99,2.5-2.25,2.5c-.79,0-1.36-.4-1.67-.78v2.98h-.99v-7.08h.99v.71c.3-.4.89-.78,1.67-.78Zm-.22.86c-.74,0-1.45.58-1.45,1.61s.71,1.62,1.45,1.62,1.46-.6,1.46-1.64-.71-1.59-1.46-1.59Z"/><path class="cls-25" d="m106.95,168.89c1.5-1.31,3.07-2.46,3.07-3.71,0-.66-.29-1.11-1.03-1.11-.7,0-1.07.49-1.1,1.2h-.96c.03-1.38.92-2.05,2.05-2.05,1.29,0,2.02.77,2.02,1.91,0,1.54-1.57,2.72-2.59,3.65h2.76v.83h-4.23v-.72h0Z"/><path class="cls-25" d="m114.31,163.24c1.78,0,2.26,1.39,2.26,3.2s-.49,3.24-2.26,3.24-2.26-1.39-2.26-3.24.49-3.2,2.26-3.2Zm0,.9c-1.16,0-1.29,1.11-1.29,2.3s.13,2.33,1.29,2.33,1.29-1.09,1.29-2.33-.13-2.3-1.29-2.3Z"/><path class="cls-25" d="m117.54,168.89c1.5-1.31,3.07-2.46,3.07-3.71,0-.66-.29-1.11-1.03-1.11-.7,0-1.07.49-1.1,1.2h-.96c.03-1.38.92-2.05,2.05-2.05,1.29,0,2.02.77,2.02,1.91,0,1.54-1.57,2.72-2.59,3.65h2.76v.83h-4.23v-.72h0Z"/><path class="cls-25" d="m122.56,168.89c1.5-1.31,3.07-2.46,3.07-3.71,0-.66-.29-1.11-1.03-1.11-.7,0-1.07.49-1.1,1.2h-.96c.03-1.38.92-2.05,2.05-2.05,1.29,0,2.02.77,2.02,1.91,0,1.54-1.57,2.72-2.59,3.65h2.76v.83h-4.23v-.72h0Z"/><path class="cls-25" d="m130.59,164.26h-.81v-.91h1.81v6.35h-1v-5.44Z"/><path class="cls-25" d="m133.48,166.1c-.36,0-.64-.28-.64-.64s.28-.64.64-.64.63.28.63.64-.28.64-.63.64Zm0,3.66c-.36,0-.64-.28-.64-.64s.28-.64.64-.64.63.28.63.64-.28.64-.63.64Z"/><path class="cls-25" d="m137.35,163.24c1.78,0,2.26,1.39,2.26,3.2s-.49,3.24-2.26,3.24-2.26-1.39-2.26-3.24.49-3.2,2.26-3.2Zm0,.9c-1.16,0-1.29,1.11-1.29,2.3s.13,2.33,1.29,2.33,1.29-1.09,1.29-2.33-.13-2.3-1.29-2.3Z"/><path class="cls-25" d="m142.92,163.24c1.78,0,2.26,1.39,2.26,3.2s-.49,3.24-2.26,3.24-2.26-1.39-2.26-3.24.49-3.2,2.26-3.2Zm0,.9c-1.16,0-1.29,1.11-1.29,2.3s.13,2.33,1.29,2.33,1.29-1.09,1.29-2.33-.13-2.3-1.29-2.3Z"/><path class="cls-25" d="m152.27,168.46h-2.53l-.44,1.24h-1.04l2.17-6.06h1.15l2.17,6.06h-1.04l-.44-1.24Zm-1.26-3.62l-.99,2.81h1.98l-.98-2.81h0Z"/><path class="cls-25" d="m154.68,163.65h1.07l2.12,4.74,2.12-4.74h1.06v6.05h-.99v-4.14l-1.85,4.14h-.69l-1.85-4.14v4.14h-.99v-6.05h0Z"/><path class="cls-21" d="m62.5,185.75c.65,0,1.1.31,1.34.62v-.56h.8v3.85h-.8v-.57c-.25.33-.71.64-1.35.64-1,0-1.8-.82-1.8-2.01s.8-1.97,1.82-1.97h-.01Zm.16.69c-.59,0-1.17.45-1.17,1.28s.57,1.32,1.17,1.32,1.17-.47,1.17-1.3-.57-1.29-1.17-1.29h0Z"/><path class="cls-21" d="m70.16,185.81h.83l-2.36,5.67h-.83l.78-1.88-1.52-3.79h.89l1.08,2.94,1.13-2.94Z"/><path class="cls-21" d="m73.24,189.73c-1.11,0-1.92-.78-1.92-2s.78-1.99,1.92-1.99,1.87.76,1.87,1.9c0,.13,0,.26-.03.39h-2.95c.06.64.51,1.02,1.1,1.02.49,0,.76-.24.91-.54h.86c-.22.67-.83,1.21-1.77,1.21h0Zm-1.09-2.34h2.13c-.01-.59-.48-.97-1.08-.97-.54,0-.97.36-1.06.97h.01Z"/><path class="cls-21" d="m77.46,185.75c.65,0,1.1.31,1.34.62v-.56h.8v3.85h-.8v-.57c-.25.33-.71.64-1.35.64-1,0-1.8-.82-1.8-2.01s.8-1.97,1.82-1.97h0Zm.17.69c-.59,0-1.17.45-1.17,1.28s.57,1.32,1.17,1.32,1.17-.47,1.17-1.3-.57-1.29-1.17-1.29h0Z"/><path class="cls-21" d="m81.45,189.66h-.8v-3.85h.8v.56c.22-.39.61-.62,1.15-.62v.83h-.2c-.59,0-.95.25-.95,1.06v2.03h0Z"/><path class="cls-21" d="m86.72,185.75c.65,0,1.1.31,1.34.62v-.56h.8v3.85h-.8v-.57c-.25.33-.71.64-1.35.64-1,0-1.8-.82-1.8-2.01s.8-1.97,1.82-1.97h0Zm.17.69c-.59,0-1.17.45-1.17,1.28s.57,1.32,1.17,1.32,1.17-.47,1.17-1.3-.57-1.29-1.17-1.29h0Z"/><path class="cls-21" d="m91.47,185.75c.63,0,1.1.29,1.34.62v-.56h.8v3.92c0,1.05-.68,1.84-1.88,1.84-1.03,0-1.79-.51-1.89-1.36h.79c.12.4.54.67,1.1.67.62,0,1.08-.38,1.08-1.15v-.64c-.25.33-.71.64-1.34.64-1.01,0-1.82-.82-1.82-2.01s.8-1.97,1.82-1.97Zm.16.69c-.59,0-1.17.45-1.17,1.28s.57,1.32,1.17,1.32,1.17-.47,1.17-1.3-.57-1.29-1.17-1.29h0Z"/><path class="cls-21" d="m96.33,189.73c-1.1,0-1.93-.78-1.93-2s.87-1.99,1.97-1.99,1.97.78,1.97,1.99-.9,2-2,2h-.01Zm0-.69c.59,0,1.18-.43,1.18-1.3s-.57-1.29-1.16-1.29-1.14.42-1.14,1.29.52,1.3,1.12,1.3Z"/><path class="cls-25" d="m95.5,245.25h1.17v7.12h-1.17v-7.12Z"/><path class="cls-25" d="m102.21,249.21c0-1.03-.56-1.57-1.41-1.57s-1.42.53-1.42,1.57v3.15h-1.17v-5.64h1.17v.64c.38-.46,1-.74,1.68-.74,1.32,0,2.31.83,2.31,2.41v3.33h-1.16s0-3.15,0-3.15Z"/><path class="cls-25" d="m107.5,245.25h4.19v.95h-3.02v2.1h2.36v.95h-2.36v3.11h-1.17v-7.12h0Z"/><path class="cls-25" d="m112.77,244.79h1.17v7.58h-1.17v-7.58Z"/><path class="cls-25" d="m115.31,245.23c0-.42.33-.75.75-.75s.74.33.74.75-.33.75-.74.75-.75-.33-.75-.75Zm.16,1.49h1.17v5.64h-1.17v-5.64Z"/><path class="cls-25" d="m120.44,246.63c.92,0,1.61.43,1.96.91v-.82h1.18v5.73c0,1.54-.99,2.69-2.75,2.69-1.5,0-2.62-.75-2.76-2h1.16c.17.58.8.98,1.61.98.9,0,1.58-.55,1.58-1.68v-.94c-.36.48-1.03.94-1.96.94-1.48,0-2.66-1.2-2.66-2.94s1.18-2.89,2.66-2.89l-.02.02Zm.25,1.01c-.87,0-1.71.66-1.71,1.87s.84,1.92,1.71,1.92,1.71-.69,1.71-1.9-.83-1.89-1.71-1.89Z"/><path class="cls-25" d="m125.1,244.79h1.17v2.59c.39-.47,1.02-.75,1.75-.75,1.26,0,2.24.83,2.24,2.41v3.33h-1.16v-3.15c0-1.03-.56-1.57-1.41-1.57s-1.42.53-1.42,1.57v3.15h-1.17s0-7.58,0-7.58Z"/><path class="cls-25" d="m131.92,247.67h-.67v-.95h.67v-1.4h1.18v1.4h1.37v.95h-1.37v3.12c0,.42.16.59.66.59h.72v.97h-.92c-1,0-1.63-.42-1.63-1.57v-3.12h0Z"/><path class="cls-25" d="m199.94,245.24v7.13h-1.17l-3.51-5.31v5.31h-1.17v-7.13h1.17l3.51,5.3v-5.3h1.17Z"/><path class="cls-25" d="m203.92,252.45c-1.61,0-2.83-1.15-2.83-2.92s1.27-2.91,2.88-2.91,2.88,1.14,2.88,2.91-1.31,2.92-2.93,2.92h0Zm0-1.01c.87,0,1.73-.62,1.73-1.9s-.83-1.89-1.7-1.89-1.67.61-1.67,1.89.76,1.9,1.64,1.9Z"/><path class="cls-25" d="m208.18,247.67h-.67v-.95h.67v-1.4h1.18v1.4h1.37v.95h-1.37v3.12c0,.42.16.59.66.59h.72v.97h-.92c-1,0-1.63-.42-1.63-1.57v-3.12h0Z"/><path class="cls-25" d="m216.92,249.47h-1.29v2.89h-1.17v-7.12h2.46c1.69,0,2.52.96,2.52,2.12,0,1.01-.67,2.11-2.52,2.11h0Zm0-.95c.91,0,1.32-.44,1.32-1.16s-.41-1.17-1.32-1.17h-1.29v2.32h1.29Z"/><path class="cls-25" d="m221.71,252.36h-1.17v-5.64h1.17v.82c.33-.56.89-.91,1.69-.91v1.21h-.3c-.86,0-1.39.36-1.39,1.56v2.97h0Z"/><path class="cls-25" d="m226.92,252.45c-1.61,0-2.83-1.15-2.83-2.92s1.27-2.91,2.88-2.91,2.88,1.14,2.88,2.91-1.31,2.92-2.93,2.92h0Zm0-1.01c.87,0,1.73-.62,1.73-1.9s-.83-1.89-1.7-1.89-1.67.61-1.67,1.89.76,1.9,1.64,1.9Z"/><path class="cls-25" d="m233.37,246.63c1.38,0,2.28.69,2.6,1.87h-1.26c-.19-.54-.65-.89-1.34-.89-.94,0-1.57.7-1.57,1.92s.62,1.93,1.57,1.93c.7,0,1.13-.31,1.34-.89h1.26c-.32,1.1-1.22,1.87-2.6,1.87-1.62,0-2.76-1.15-2.76-2.92s1.15-2.91,2.76-2.91v.02Z"/><path class="cls-25" d="m239.56,252.45c-1.62,0-2.82-1.15-2.82-2.92s1.15-2.91,2.82-2.91,2.74,1.12,2.74,2.77c0,.19,0,.38-.04.57h-4.31c.08.93.75,1.5,1.61,1.5.72,0,1.12-.35,1.33-.79h1.26c-.32.98-1.21,1.77-2.59,1.77h0Zm-1.6-3.41h3.12c-.02-.87-.71-1.42-1.58-1.42-.79,0-1.42.53-1.55,1.42h.01Z"/><path class="cls-25" d="m245.87,252.45c-1.62,0-2.82-1.15-2.82-2.92s1.15-2.91,2.82-2.91,2.74,1.12,2.74,2.77c0,.19,0,.38-.04.57h-4.31c.08.93.75,1.5,1.61,1.5.72,0,1.12-.35,1.33-.79h1.26c-.32.98-1.21,1.77-2.59,1.77h0Zm-1.6-3.41h3.12c-.02-.87-.71-1.42-1.58-1.42-.79,0-1.42.53-1.55,1.42h.01Z"/><path class="cls-25" d="m252.04,246.63c.74,0,1.52.35,1.95.88v-2.72h1.18v7.58h-1.18v-.85c-.36.51-1.03.94-1.96.94-1.48,0-2.66-1.2-2.66-2.94s1.18-2.89,2.67-2.89h0Zm.23,1.01c-.87,0-1.71.66-1.71,1.87s.84,1.92,1.71,1.92,1.71-.69,1.71-1.9-.83-1.89-1.71-1.89Z"/><path class="cls-25" d="m259.12,252.45c-1.62,0-2.82-1.15-2.82-2.92s1.15-2.91,2.82-2.91,2.74,1.12,2.74,2.77c0,.19,0,.38-.04.57h-4.31c.08.93.75,1.5,1.61,1.5.72,0,1.12-.35,1.33-.79h1.26c-.32.98-1.21,1.77-2.59,1.77h0Zm-1.6-3.41h3.12c-.02-.87-.71-1.42-1.58-1.42-.79,0-1.42.53-1.55,1.42h0Z"/><path class="cls-25" d="m265.28,246.63c.74,0,1.52.35,1.95.88v-2.72h1.18v7.58h-1.18v-.85c-.36.51-1.03.94-1.96.94-1.48,0-2.66-1.2-2.66-2.94s1.18-2.89,2.67-2.89h0Zm.24,1.01c-.87,0-1.71.66-1.71,1.87s.84,1.92,1.71,1.92,1.71-.69,1.71-1.9-.83-1.89-1.71-1.89Z"/><path class="cls-25" d="m272.02,245.25h1.24l1.47,5.8,1.6-5.8h1.31l1.48,5.76,1.48-5.76h1.25l-2.11,7.12h-1.32l-1.5-5.39-1.59,5.39h-1.31l-2.02-7.12h.02Z"/><path class="cls-25" d="m282.66,245.23c0-.42.33-.75.75-.75s.74.33.74.75-.33.75-.74.75-.75-.33-.75-.75Zm.15,1.49h1.17v5.64h-1.17v-5.64Z"/><path class="cls-25" d="m285.69,247.67h-.67v-.95h.67v-1.4h1.18v1.4h1.37v.95h-1.37v3.12c0,.42.16.59.66.59h.72v.97h-.92c-1,0-1.63-.42-1.63-1.57v-3.12h0Z"/><path class="cls-25" d="m289.32,244.79h1.17v2.59c.39-.47,1.02-.75,1.75-.75,1.26,0,2.24.83,2.24,2.41v3.33h-1.16v-3.15c0-1.03-.56-1.57-1.41-1.57s-1.42.53-1.42,1.57v3.15h-1.17v-7.58h0Z"/><path class="cls-24" d="m57.05,291.14c-1.21,0-2.14-.66-2.14-1.73h1.06c.04.5.39.9,1.08.9s1.09-.37,1.09-.89c0-1.46-3.21-.51-3.21-2.74,0-1.06.84-1.72,2.08-1.72,1.16,0,1.98.61,2.06,1.65h-1.1c-.04-.41-.39-.78-1.02-.8-.57-.02-1.02.26-1.02.84,0,1.37,3.2.51,3.2,2.72,0,.91-.74,1.78-2.09,1.78h0Z"/><path class="cls-24" d="m60.47,287.09h-.57v-.81h.57v-1.19h1v1.19h1.17v.81h-1.17v2.66c0,.36.14.5.56.5h.61v.83h-.78c-.85,0-1.38-.36-1.38-1.33v-2.66h-.01Z"/><path class="cls-24" d="m65.48,286.2c.81,0,1.37.38,1.66.77v-.7h1v4.8h-1v-.71c-.3.41-.88.79-1.68.79-1.25,0-2.25-1.02-2.25-2.5s1-2.46,2.26-2.46h0Zm.2.86c-.74,0-1.45.56-1.45,1.59s.71,1.64,1.45,1.64,1.45-.58,1.45-1.62-.71-1.61-1.45-1.61h0Z"/><path class="cls-24" d="m69.59,287.09h-.57v-.81h.57v-1.19h1v1.19h1.17v.81h-1.17v2.66c0,.36.14.5.56.5h.61v.83h-.78c-.85,0-1.38-.36-1.38-1.33v-2.66h-.01Z"/><path class="cls-24" d="m77.02,291.08h-.99v-.58c-.31.41-.85.65-1.42.65-1.12,0-1.98-.71-1.98-2.05v-2.82h.98v2.67c0,.88.48,1.33,1.2,1.33s1.21-.45,1.21-1.33v-2.67h.99v4.8h.01Z"/><path class="cls-24" d="m80.05,291.15c-1.15,0-1.96-.68-2-1.55h1.03c.04.39.41.71.96.71s.88-.24.88-.57c0-.94-2.79-.4-2.79-2.16,0-.76.71-1.38,1.85-1.38s1.8.58,1.85,1.54h-.99c-.04-.42-.36-.7-.9-.7s-.81.22-.81.54c0,.97,2.71.43,2.76,2.16,0,.81-.71,1.42-1.84,1.42h0Z"/><path class="cls-25" d="m64.55,312.9h-1.24v2.77h-1.12v-6.83h2.36c1.62,0,2.42.92,2.42,2.03,0,.97-.64,2.03-2.42,2.03Zm0-.91c.87,0,1.27-.42,1.27-1.11s-.39-1.12-1.27-1.12h-1.24v2.23h1.24Z"/><path class="cls-25" d="m70.38,315.76c-1.54,0-2.71-1.1-2.71-2.8s1.22-2.79,2.76-2.79,2.76,1.09,2.76,2.79-1.26,2.8-2.81,2.8Zm0-.97c.83,0,1.66-.6,1.66-1.83s-.8-1.82-1.63-1.82-1.6.59-1.6,1.82.73,1.83,1.57,1.83Z"/><path class="cls-25" d="m76.27,315.76c-1.3,0-2.21-.77-2.26-1.75h1.16c.04.44.46.81,1.08.81s.99-.28.99-.65c0-1.06-3.15-.45-3.15-2.44,0-.87.81-1.56,2.08-1.56s2.04.66,2.09,1.74h-1.12c-.04-.47-.4-.8-1.01-.8s-.91.25-.91.61c0,1.09,3.06.48,3.12,2.44,0,.91-.8,1.6-2.07,1.6Z"/><path class="cls-25" d="m79.72,311.17h-.64v-.92h.64v-1.35h1.13v1.35h1.32v.92h-1.32v3c0,.4.16.57.63.57h.69v.93h-.88c-.96,0-1.56-.4-1.56-1.5v-3h-.01Z"/><path class="cls-25" d="m88.87,315.74c-1.93,0-3.49-1.44-3.49-3.5s1.56-3.49,3.49-3.49,3.49,1.44,3.49,3.49-1.54,3.5-3.49,3.5Zm0-.97c1.36,0,2.34-.98,2.34-2.53s-.98-2.51-2.34-2.51-2.34.96-2.34,2.51.98,2.53,2.34,2.53Z"/><path class="cls-25" d="m93.6,311.17h-.64v-.92h.64v-.38c0-1.25.64-1.79,2.05-1.79v.93c-.69,0-.92.24-.92.86v.38h1v.92h-1v4.5h-1.13v-4.5h0Z"/><path class="cls-25" d="m96.86,311.17h-.64v-.92h.64v-.38c0-1.25.64-1.79,2.05-1.79v.93c-.69,0-.92.24-.92.86v.38h1v.92h-1v4.5h-1.13v-4.5h0Z"/><path class="cls-25" d="m102.31,315.76c-1.55,0-2.7-1.1-2.7-2.8s1.1-2.79,2.7-2.79,2.63,1.07,2.63,2.66c0,.19,0,.36-.04.55h-4.14c.08.9.72,1.44,1.54,1.44.69,0,1.07-.33,1.28-.76h1.21c-.3.94-1.16,1.7-2.49,1.7h.01Zm-1.53-3.28h3c-.02-.83-.68-1.37-1.51-1.37-.76,0-1.37.51-1.48,1.37h0Z"/><path class="cls-25" d="m107.17,315.67h-1.12v-5.42h1.12v.79c.31-.54.86-.88,1.62-.88v1.16h-.29c-.83,0-1.34.34-1.34,1.49v2.85h0Z"/><path class="cls-25" d="m114.73,312.9h-1.24v2.77h-1.12v-6.83h2.36c1.62,0,2.42.92,2.42,2.03,0,.97-.64,2.03-2.42,2.03Zm0-.91c.87,0,1.27-.42,1.27-1.11s-.39-1.12-1.27-1.12h-1.24v2.23h1.24Z"/><path class="cls-25" d="m119.34,315.67h-1.12v-5.42h1.12v.79c.31-.54.86-.88,1.62-.88v1.16h-.29c-.83,0-1.34.34-1.34,1.49v2.85h0Z"/><path class="cls-25" d="m124.34,315.76c-1.54,0-2.71-1.1-2.71-2.8s1.22-2.79,2.76-2.79,2.76,1.09,2.76,2.79-1.26,2.8-2.81,2.8Zm0-.97c.83,0,1.66-.6,1.66-1.83s-.8-1.82-1.63-1.82-1.6.59-1.6,1.82.73,1.83,1.57,1.83Z"/><path class="cls-25" d="m130.54,310.17c1.33,0,2.19.66,2.5,1.8h-1.21c-.19-.52-.62-.85-1.29-.85-.9,0-1.5.67-1.5,1.85s.6,1.86,1.5,1.86c.67,0,1.08-.3,1.29-.86h1.21c-.3,1.06-1.17,1.8-2.5,1.8-1.55,0-2.65-1.1-2.65-2.8s1.1-2.79,2.65-2.79h0Z"/><path class="cls-25" d="m136.49,315.76c-1.55,0-2.7-1.1-2.7-2.8s1.1-2.79,2.7-2.79,2.63,1.07,2.63,2.66c0,.19,0,.36-.04.55h-4.14c.08.9.72,1.44,1.54,1.44.69,0,1.07-.33,1.28-.76h1.21c-.3.94-1.16,1.7-2.49,1.7h0Zm-1.54-3.28h3c-.02-.83-.68-1.37-1.51-1.37-.76,0-1.37.51-1.48,1.37h-.01Z"/><path class="cls-25" d="m142.18,315.76c-1.3,0-2.21-.77-2.26-1.75h1.16c.04.44.46.81,1.08.81s.99-.28.99-.65c0-1.06-3.15-.45-3.15-2.44,0-.87.81-1.56,2.08-1.56s2.04.66,2.09,1.74h-1.12c-.04-.47-.4-.8-1.01-.8s-.91.25-.91.61c0,1.09,3.06.48,3.12,2.44,0,.91-.8,1.6-2.07,1.6h0Z"/><path class="cls-25" d="m147.43,315.76c-1.3,0-2.21-.77-2.26-1.75h1.16c.04.44.46.81,1.08.81s.99-.28.99-.65c0-1.06-3.15-.45-3.15-2.44,0-.87.81-1.56,2.08-1.56s2.04.66,2.09,1.74h-1.12c-.04-.47-.4-.8-1.01-.8s-.91.25-.91.61c0,1.09,3.06.48,3.12,2.44,0,.91-.8,1.6-2.07,1.6h0Z"/><path class="cls-25" d="m150.56,308.82c0-.4.31-.72.72-.72s.71.31.71.72-.31.72-.71.72-.72-.31-.72-.72Zm.15,1.44h1.12v5.42h-1.12v-5.42Z"/><path class="cls-25" d="m157.15,312.65c0-.99-.54-1.5-1.36-1.5s-1.37.51-1.37,1.5v3.03h-1.12v-5.42h1.12v.62c.36-.44.96-.71,1.61-.71,1.27,0,2.22.8,2.22,2.31v3.19h-1.11v-3.03h0Z"/><path class="cls-25" d="m161.86,310.17c.88,0,1.54.41,1.88.88v-.79h1.13v5.5c0,1.47-.95,2.58-2.64,2.58-1.44,0-2.52-.72-2.65-1.92h1.11c.17.56.77.94,1.54.94.87,0,1.51-.53,1.51-1.61v-.9c-.34.46-.99.9-1.88.9-1.42,0-2.56-1.15-2.56-2.82s1.13-2.77,2.56-2.77h0Zm.24.97c-.84,0-1.64.63-1.64,1.8s.81,1.85,1.64,1.85,1.64-.66,1.64-1.83-.8-1.82-1.64-1.82Z"/><path class="cls-25" d="m77.71,340.07c1.62,0,2.42.93,2.42,2.04,0,.81-.43,1.67-1.58,1.96l1.69,2.83h-1.34l-1.57-2.73h-.86v2.73h-1.12v-6.83h2.36Zm0,.91h-1.24v2.29h1.24c.87,0,1.27-.48,1.27-1.16s-.39-1.13-1.27-1.13Z"/><path class="cls-25" d="m83.89,346.99c-1.55,0-2.7-1.1-2.7-2.8s1.1-2.79,2.7-2.79,2.63,1.07,2.63,2.66c0,.19,0,.36-.04.55h-4.14c.08.9.72,1.44,1.54,1.44.69,0,1.07-.33,1.28-.76h1.21c-.3.94-1.16,1.7-2.49,1.7h.01Zm-1.53-3.29h3c-.02-.83-.68-1.37-1.51-1.37-.76,0-1.37.51-1.48,1.37h0Z"/><path class="cls-25" d="m89.59,346.99c-1.3,0-2.21-.77-2.26-1.75h1.16c.04.44.46.81,1.08.81s.99-.28.99-.65c0-1.06-3.15-.45-3.15-2.44,0-.87.81-1.56,2.08-1.56s2.04.66,2.09,1.74h-1.12c-.04-.47-.4-.8-1.01-.8s-.91.25-.91.61c0,1.09,3.06.48,3.12,2.44,0,.91-.8,1.6-2.07,1.6Z"/><path class="cls-25" d="m92.72,340.05c0-.4.31-.72.72-.72s.71.31.71.72-.31.72-.71.72-.72-.31-.72-.72Zm.15,1.43h1.12v5.42h-1.12v-5.42Z"/><path class="cls-25" d="m97.65,341.39c.71,0,1.46.33,1.87.85v-2.62h1.13v7.27h-1.13v-.82c-.34.49-.99.9-1.88.9-1.42,0-2.56-1.15-2.56-2.82s1.13-2.77,2.57-2.77h0Zm.23.98c-.84,0-1.64.63-1.64,1.8s.81,1.85,1.64,1.85,1.64-.66,1.64-1.83-.8-1.82-1.64-1.82Z"/><path class="cls-25" d="m104.45,346.99c-1.55,0-2.7-1.1-2.7-2.8s1.1-2.79,2.7-2.79,2.63,1.07,2.63,2.66c0,.19,0,.36-.04.55h-4.14c.08.9.72,1.44,1.54,1.44.69,0,1.07-.33,1.28-.76h1.21c-.3.94-1.16,1.7-2.49,1.7h.01Zm-1.53-3.29h3c-.02-.83-.68-1.37-1.51-1.37-.76,0-1.37.51-1.48,1.37h0Z"/><path class="cls-25" d="m112.03,343.87c0-.99-.54-1.5-1.36-1.5s-1.37.51-1.37,1.5v3.03h-1.12v-5.42h1.12v.62c.36-.44.96-.71,1.61-.71,1.27,0,2.22.8,2.22,2.31v3.19h-1.11v-3.03h.01Z"/><path class="cls-25" d="m114.74,342.4h-.64v-.92h.64v-1.35h1.13v1.35h1.32v.92h-1.32v3c0,.4.16.57.63.57h.69v.93h-.88c-.96,0-1.56-.4-1.56-1.5v-3h-.01Z"/><path class="cls-25" d="m118.07,340.05c0-.4.31-.72.72-.72s.71.31.71.72-.31.72-.71.72-.72-.31-.72-.72Zm.15,1.43h1.12v5.42h-1.12v-5.42Z"/><path class="cls-25" d="m122.99,341.39c.91,0,1.54.43,1.88.88v-.79h1.13v5.42h-1.13v-.81c-.34.46-.99.89-1.9.89-1.41,0-2.54-1.15-2.54-2.82s1.13-2.77,2.56-2.77h0Zm.24.98c-.84,0-1.64.63-1.64,1.8s.81,1.85,1.64,1.85,1.64-.66,1.64-1.83-.8-1.82-1.64-1.82Z"/><path class="cls-25" d="m127.47,339.62h1.12v7.27h-1.12s0-7.27,0-7.27Z"/><path class="cls-25" d="m171.99,346.9h-2.73v-6.83h2.61c1.44,0,2.21.8,2.21,1.76,0,.83-.5,1.33-1.16,1.56.73.13,1.32.86,1.32,1.67,0,1.04-.85,1.84-2.24,1.84h-.01Zm-.23-5.92h-1.39v1.96h1.39c.73,0,1.17-.34,1.17-.97s-.44-.98-1.17-.98h0Zm.09,2.87h-1.47v2.13h1.51c.76,0,1.22-.38,1.22-1.04s-.51-1.09-1.26-1.09Z"/><path class="cls-25" d="m180.35,346.9h-1.12v-.65c-.35.46-.96.73-1.6.73-1.27,0-2.23-.8-2.23-2.31v-3.18h1.11v3.02c0,.99.54,1.5,1.36,1.5s1.37-.51,1.37-1.5v-3.02h1.12v5.42h0Z"/><path class="cls-25" d="m185.54,341.48h1.16l-3.32,7.96h-1.16l1.1-2.63-2.13-5.33h1.25l1.52,4.13,1.58-4.13Z"/><path class="cls-25" d="m189.74,340.07h4.77v.92h-1.82v5.92h-1.12v-5.92h-1.83v-.92Z"/><path class="cls-25" d="m197.99,346.99c-1.54,0-2.71-1.1-2.71-2.8s1.22-2.79,2.76-2.79,2.76,1.09,2.76,2.79-1.26,2.8-2.81,2.8h0Zm0-.98c.83,0,1.66-.6,1.66-1.83s-.8-1.82-1.63-1.82-1.6.59-1.6,1.82.73,1.83,1.57,1.83Z"/><path class="cls-25" d="m205.58,340.07v5.93h2.31v.9h-3.43v-6.83h1.12Z"/><path class="cls-25" d="m211.15,346.99c-1.55,0-2.7-1.1-2.7-2.8s1.1-2.79,2.7-2.79,2.63,1.07,2.63,2.66c0,.19,0,.36-.04.55h-4.14c.08.9.72,1.44,1.54,1.44.69,0,1.07-.33,1.28-.76h1.21c-.3.94-1.16,1.7-2.49,1.7h0Zm-1.53-3.29h3c-.02-.83-.68-1.37-1.51-1.37-.76,0-1.37.51-1.48,1.37h-.01Z"/><path class="cls-25" d="m215.06,342.4h-.64v-.92h.64v-1.35h1.13v1.35h1.32v.92h-1.32v3c0,.4.16.57.63.57h.69v.93h-.88c-.96,0-1.56-.4-1.56-1.5v-3h-.01Z"/><path class="cls-25" d="m77.71,379.59c1.62,0,2.42.93,2.42,2.04,0,.81-.43,1.67-1.58,1.96l1.69,2.83h-1.34l-1.57-2.73h-.86v2.73h-1.12v-6.83h2.36Zm0,.91h-1.24v2.29h1.24c.87,0,1.27-.48,1.27-1.16s-.39-1.13-1.27-1.13Z"/><path class="cls-25" d="m83.89,386.51c-1.55,0-2.7-1.1-2.7-2.8s1.1-2.79,2.7-2.79,2.63,1.07,2.63,2.66c0,.19,0,.36-.04.55h-4.14c.08.9.72,1.44,1.54,1.44.69,0,1.07-.33,1.28-.76h1.21c-.3.94-1.16,1.7-2.49,1.7h.01Zm-1.53-3.28h3c-.02-.83-.68-1.37-1.51-1.37-.76,0-1.37.51-1.48,1.37h0Z"/><path class="cls-25" d="m89.8,380.91c.88,0,1.54.41,1.88.88v-.79h1.13v5.5c0,1.47-.95,2.58-2.64,2.58-1.44,0-2.52-.72-2.65-1.92h1.11c.17.56.77.94,1.54.94.87,0,1.51-.53,1.51-1.61v-.9c-.34.46-.99.9-1.88.9-1.42,0-2.56-1.15-2.56-2.82s1.13-2.77,2.56-2.77h0Zm.24.98c-.84,0-1.64.63-1.64,1.8s.81,1.85,1.64,1.85,1.64-.66,1.64-1.83-.8-1.82-1.64-1.82Z"/><path class="cls-25" d="m99.19,386.42h-1.12v-.65c-.35.46-.96.73-1.6.73-1.27,0-2.23-.8-2.23-2.31v-3.18h1.11v3.02c0,.99.54,1.5,1.36,1.5s1.37-.51,1.37-1.5v-3.02h1.12v5.42h-.01Z"/><path class="cls-25" d="m100.66,379.15h1.12v7.27h-1.12v-7.27Z"/><path class="cls-25" d="m105.43,380.91c.91,0,1.54.43,1.88.88v-.79h1.13v5.42h-1.13v-.81c-.34.46-.99.89-1.9.89-1.41,0-2.54-1.15-2.54-2.82s1.13-2.77,2.56-2.77h0Zm.24.98c-.84,0-1.64.63-1.64,1.8s.81,1.85,1.64,1.85,1.64-.66,1.64-1.83-.8-1.82-1.64-1.82Z"/><path class="cls-25" d="m110.09,381.92h-.64v-.92h.64v-1.35h1.13v1.35h1.32v.92h-1.32v3c0,.4.16.57.63.57h.69v.93h-.88c-.96,0-1.56-.4-1.56-1.5v-3h-.01Z"/><path class="cls-25" d="m115.9,386.51c-1.55,0-2.7-1.1-2.7-2.8s1.1-2.79,2.7-2.79,2.63,1.07,2.63,2.66c0,.19,0,.36-.04.55h-4.14c.08.9.72,1.44,1.54,1.44.69,0,1.07-.33,1.28-.76h1.21c-.3.94-1.16,1.7-2.49,1.7h.01Zm-1.53-3.28h3c-.02-.83-.68-1.37-1.51-1.37-.76,0-1.37.51-1.48,1.37h0Z"/><path class="cls-25" d="m121.82,380.91c.71,0,1.46.33,1.87.85v-2.62h1.13v7.27h-1.13v-.82c-.34.49-.99.9-1.88.9-1.42,0-2.56-1.15-2.56-2.82s1.13-2.77,2.57-2.77h0Zm.23.98c-.84,0-1.64.63-1.64,1.8s.81,1.85,1.64,1.85,1.64-.66,1.64-1.83-.8-1.82-1.64-1.82Z"/><path class="cls-25" d="m164.39,379.59h1.12v4.35c0,1.06.6,1.56,1.54,1.56s1.55-.5,1.55-1.56v-4.35h1.12v4.33c0,1.74-1.26,2.57-2.68,2.57s-2.65-.83-2.65-2.57v-4.33Z"/><path class="cls-25" d="m175.03,383.39c0-.99-.54-1.5-1.36-1.5s-1.37.51-1.37,1.5v3.03h-1.12v-5.42h1.12v.62c.36-.44.96-.71,1.61-.71,1.27,0,2.22.8,2.22,2.31v3.19h-1.11v-3.03h0Z"/><path class="cls-25" d="m178.68,386.42h-1.12v-5.42h1.12v.79c.31-.54.86-.88,1.62-.88v1.16h-.29c-.83,0-1.34.34-1.34,1.49v2.85h0Z"/><path class="cls-25" d="m183.66,386.51c-1.55,0-2.7-1.1-2.7-2.8s1.1-2.79,2.7-2.79,2.63,1.07,2.63,2.66c0,.19,0,.36-.04.55h-4.14c.08.9.72,1.44,1.54,1.44.69,0,1.07-.33,1.28-.76h1.21c-.3.94-1.16,1.7-2.49,1.7h0Zm-1.53-3.28h3c-.02-.83-.68-1.37-1.51-1.37-.76,0-1.37.51-1.48,1.37h-.01Z"/><path class="cls-25" d="m189.58,380.91c.88,0,1.54.41,1.88.88v-.79h1.13v5.5c0,1.47-.95,2.58-2.64,2.58-1.44,0-2.52-.72-2.65-1.92h1.11c.17.56.77.94,1.54.94.87,0,1.51-.53,1.51-1.61v-.9c-.34.46-.99.9-1.88.9-1.42,0-2.56-1.15-2.56-2.82s1.13-2.77,2.56-2.77h0Zm.23.98c-.84,0-1.64.63-1.64,1.8s.81,1.85,1.64,1.85,1.64-.66,1.64-1.83-.8-1.82-1.64-1.82Z"/><path class="cls-25" d="m198.96,386.42h-1.12v-.65c-.35.46-.96.73-1.6.73-1.27,0-2.23-.8-2.23-2.31v-3.18h1.11v3.02c0,.99.54,1.5,1.36,1.5s1.37-.51,1.37-1.5v-3.02h1.12v5.42h0Z"/><path class="cls-25" d="m200.43,379.15h1.12v7.27h-1.12v-7.27Z"/><path class="cls-25" d="m205.21,380.91c.91,0,1.54.43,1.88.88v-.79h1.13v5.42h-1.13v-.81c-.34.46-.99.89-1.9.89-1.41,0-2.54-1.15-2.54-2.82s1.13-2.77,2.56-2.77h0Zm.23.98c-.84,0-1.64.63-1.64,1.8s.81,1.85,1.64,1.85,1.64-.66,1.64-1.83-.8-1.82-1.64-1.82Z"/><path class="cls-25" d="m209.86,381.92h-.64v-.92h.64v-1.35h1.13v1.35h1.32v.92h-1.32v3c0,.4.16.57.63.57h.69v.93h-.88c-.96,0-1.56-.4-1.56-1.5v-3h-.01Z"/><path class="cls-25" d="m215.67,386.51c-1.55,0-2.7-1.1-2.7-2.8s1.1-2.79,2.7-2.79,2.63,1.07,2.63,2.66c0,.19,0,.36-.04.55h-4.14c.08.9.72,1.44,1.54,1.44.69,0,1.07-.33,1.28-.76h1.21c-.3.94-1.16,1.7-2.49,1.7h0Zm-1.53-3.28h3c-.02-.83-.68-1.37-1.51-1.37-.76,0-1.37.51-1.48,1.37h-.01Z"/><path class="cls-25" d="m221.6,380.91c.71,0,1.46.33,1.87.85v-2.62h1.13v7.27h-1.13v-.82c-.34.49-.99.9-1.88.9-1.42,0-2.56-1.15-2.56-2.82s1.13-2.77,2.57-2.77h0Zm.22.98c-.84,0-1.64.63-1.64,1.8s.81,1.85,1.64,1.85,1.64-.66,1.64-1.83-.8-1.82-1.64-1.82Z"/><polyline class="cls-6" points="35.83 100.69 38.87 97.77 41.91 100.69"/><rect class="cls-9" x="339.93" y="79.93" width="235.31" height="338.8" rx="21.79" ry="21.79"/><rect class="cls-19" x="341.25" y="141.08" width="232.66" height="49.81"/><rect class="cls-19" x="412.61" y="95.17" width="89.95" height="67.19" rx="9.44" ry="9.44"/><rect class="cls-19" x="398.09" y="377.03" width="118.99" height="20.85" rx="10.42" ry="10.42"/><g class="cls-28"><g class="cls-28"><path class="cls-8" d="m420.37,384.22v3.67c0,.4.1.71.3.92.2.21.48.32.84.32s.65-.11.85-.32c.2-.21.3-.52.3-.92v-3.67h1.14v3.67c0,.51-.1.93-.31,1.28-.21.35-.49.61-.83.79-.35.18-.74.26-1.16.26s-.8-.09-1.15-.26c-.34-.18-.61-.44-.81-.79-.2-.35-.3-.78-.3-1.28v-3.67h1.13Z"/></g><g class="cls-28"><path class="cls-8" d="m426.75,385.59c.26-.14.55-.22.88-.22.38,0,.73.1,1.04.3.31.2.56.48.74.85.18.37.27.79.27,1.27s-.09.91-.27,1.28-.43.66-.74.86c-.31.21-.66.31-1.04.31-.33,0-.62-.07-.87-.21-.25-.14-.46-.32-.61-.54v2.92h-1.13v-6.97h1.13v.68c.15-.21.35-.4.6-.54Zm1.6,1.47c-.11-.21-.26-.36-.44-.47s-.38-.16-.59-.16-.4.06-.58.17c-.18.11-.33.27-.44.48-.11.21-.17.46-.17.74s.06.53.17.74c.11.21.26.37.44.48.18.11.37.17.58.17s.41-.06.59-.17.33-.28.44-.49c.11-.21.17-.46.17-.75s-.06-.53-.17-.74Z"/></g><g class="cls-28"><path class="cls-8" d="m430.64,386.52c.18-.37.43-.65.74-.85.31-.2.66-.3,1.04-.3.29,0,.57.07.83.2.26.13.48.31.63.53v-2.24h1.15v6.3h-1.15v-.7c-.14.23-.34.42-.59.56-.25.14-.55.21-.88.21-.38,0-.72-.1-1.04-.31-.31-.2-.56-.49-.74-.86s-.27-.8-.27-1.28.09-.9.27-1.27Zm3.1.54c-.11-.21-.25-.37-.44-.48-.18-.11-.38-.17-.59-.17s-.41.05-.58.16-.32.27-.43.47c-.11.21-.17.45-.17.74s.05.53.17.75c.11.21.26.38.44.49s.37.17.58.17.41-.06.59-.17c.18-.11.33-.27.44-.48.11-.21.16-.46.16-.74s-.05-.54-.16-.75Z"/></g><g class="cls-28"><path class="cls-8" d="m436.26,386.52c.18-.37.43-.65.74-.85.31-.2.66-.3,1.04-.3.33,0,.63.07.88.21.25.14.45.32.6.54v-.67h1.14v4.72h-1.14v-.69c-.15.22-.35.4-.6.55-.26.14-.55.22-.89.22-.38,0-.72-.1-1.03-.31-.31-.2-.56-.49-.74-.86s-.27-.8-.27-1.28.09-.9.27-1.27Zm3.1.54c-.11-.21-.25-.37-.44-.48-.18-.11-.38-.17-.59-.17s-.41.05-.58.16-.32.27-.43.47c-.11.21-.17.45-.17.74s.05.53.17.75c.11.21.26.38.44.49s.37.17.58.17.41-.06.59-.17c.18-.11.33-.27.44-.48.11-.21.16-.46.16-.74s-.05-.54-.16-.75Z"/></g><g class="cls-28"><path class="cls-8" d="m443.19,386.43v2.28c0,.16.04.27.11.35.07.07.2.11.37.11h.53v1.01h-.71c-.96,0-1.43-.49-1.43-1.46v-2.28h-.53v-.98h.53v-1.17h1.14v1.17h1v.98h-1Z"/></g><g class="cls-28"><path class="cls-8" d="m449.17,388.14h-3.28c.02.35.13.62.33.82.2.2.45.3.75.3.42,0,.72-.19.9-.57h1.22c-.13.46-.38.83-.74,1.12-.37.29-.82.44-1.35.44-.43,0-.82-.1-1.16-.3s-.61-.49-.8-.86-.29-.79-.29-1.28.09-.92.28-1.29c.19-.37.45-.65.79-.85.34-.2.73-.3,1.17-.3s.81.1,1.14.29c.34.19.6.47.79.82.19.35.28.76.28,1.22,0,.16-.01.31-.03.44Zm-1.14-.72c0-.33-.11-.59-.31-.78-.2-.19-.45-.29-.76-.29-.29,0-.53.09-.72.29-.19.19-.31.45-.35.78h2.14Z"/></g><g class="cls-28"><path class="cls-8" d="m452.71,385.45l1.16,3.3,1.17-3.3h1.21l-2.78,6.95h-1.21l.97-2.35-1.8-4.6h1.27Z"/></g><g class="cls-28"><path class="cls-8" d="m457.61,389.94c-.34-.2-.62-.49-.81-.86-.2-.37-.29-.79-.29-1.28s.1-.91.3-1.28c.2-.37.48-.65.83-.86s.74-.3,1.17-.3.82.1,1.17.3.63.49.83.86c.2.37.3.8.3,1.28s-.1.91-.31,1.28-.49.65-.84.86-.75.3-1.19.3-.82-.1-1.17-.3Zm1.74-.88c.18-.11.33-.27.43-.48.11-.21.16-.47.16-.77s-.05-.56-.16-.77c-.11-.21-.25-.37-.42-.48-.18-.11-.37-.16-.57-.16-.32,0-.59.12-.81.37-.22.25-.33.6-.33,1.04s.11.8.32,1.04.48.37.8.37c.21,0,.4-.05.58-.16Z"/><path class="cls-8" d="m466.26,385.45v4.72h-1.14v-.6c-.15.2-.34.36-.57.48-.24.12-.49.17-.77.17-.35,0-.66-.08-.93-.23-.27-.16-.48-.39-.63-.69-.15-.3-.23-.67-.23-1.09v-2.77h1.13v2.6c0,.38.09.66.27.86.18.2.42.3.73.3s.56-.1.74-.3c.18-.2.27-.49.27-.86v-2.6h1.14Z"/></g><g class="cls-28"><path class="cls-8" d="m469.19,385.62c.23-.16.5-.24.8-.24v1.25h-.3c-.36,0-.62.09-.81.26s-.27.48-.27.92v2.35h-1.13v-4.72h1.13v.84c.15-.28.34-.51.57-.67Z"/></g><g class="cls-28"><path class="cls-8" d="m474.42,385.59c.26-.14.55-.22.88-.22.38,0,.73.1,1.04.3.31.2.56.48.74.85.18.37.27.79.27,1.27s-.09.91-.27,1.28-.43.66-.74.86c-.31.21-.66.31-1.04.31-.33,0-.62-.07-.87-.21-.25-.14-.46-.32-.61-.54v2.92h-1.13v-6.97h1.13v.68c.15-.21.35-.4.6-.54Zm1.6,1.47c-.11-.21-.26-.36-.44-.47s-.38-.16-.59-.16-.4.06-.58.17c-.18.11-.33.27-.44.48-.11.21-.17.46-.17.74s.06.53.17.74c.11.21.26.37.44.48.18.11.37.17.58.17s.41-.06.59-.17.33-.28.44-.49c.11-.21.17-.46.17-.75s-.06-.53-.17-.74Z"/></g><g class="cls-28"><path class="cls-8" d="m480,385.62c.23-.16.5-.24.8-.24v1.25h-.3c-.36,0-.62.09-.81.26s-.27.48-.27.92v2.35h-1.13v-4.72h1.13v.84c.15-.28.34-.51.57-.67Z"/></g><g class="cls-28"><path class="cls-8" d="m482.46,389.94c-.34-.2-.62-.49-.81-.86-.2-.37-.29-.79-.29-1.28s.1-.91.3-1.28c.2-.37.48-.65.83-.86s.74-.3,1.17-.3.82.1,1.17.3.63.49.83.86c.2.37.3.8.3,1.28s-.1.91-.31,1.28-.49.65-.84.86-.75.3-1.19.3-.82-.1-1.17-.3Zm1.74-.88c.18-.11.33-.27.43-.48.11-.21.16-.47.16-.77s-.05-.56-.16-.77c-.11-.21-.25-.37-.42-.48-.18-.11-.37-.16-.57-.16-.32,0-.59.12-.81.37-.22.25-.33.6-.33,1.04s.11.8.32,1.04.48.37.8.37c.21,0,.4-.05.58-.16Z"/><path class="cls-8" d="m488.85,386.43h-.79v3.74h-1.15v-3.74h-.51v-.98h.51v-.24c0-.58.16-1,.47-1.28.31-.27.79-.4,1.42-.38v1c-.27,0-.47.04-.57.15-.11.1-.16.29-.16.55v.2h.79v.98Z"/></g><g class="cls-28"><path class="cls-8" d="m489.82,384.69c-.13-.13-.2-.3-.2-.5s.07-.37.2-.5c.13-.13.3-.2.5-.2s.37.07.5.2.2.3.2.5-.07.36-.2.5c-.13.13-.3.2-.5.2s-.37-.07-.5-.2Zm1.06.76v4.72h-1.13v-4.72h1.13Z"/></g><g class="cls-28"><path class="cls-8" d="m493.22,383.87v6.3h-1.13v-6.3h1.13Z"/></g><g class="cls-28"><path class="cls-8" d="m498.6,388.14h-3.28c.02.35.13.62.33.82.2.2.45.3.75.3.42,0,.72-.19.9-.57h1.22c-.13.46-.38.83-.74,1.12-.37.29-.82.44-1.35.44-.43,0-.82-.1-1.16-.3s-.61-.49-.8-.86-.29-.79-.29-1.28.09-.92.28-1.29c.19-.37.45-.65.79-.85.34-.2.73-.3,1.17-.3s.81.1,1.14.29c.34.19.6.47.79.82.19.35.28.76.28,1.22,0,.16-.01.31-.03.44Zm-1.14-.72c0-.33-.11-.59-.31-.78-.2-.19-.45-.29-.76-.29-.29,0-.53.09-.72.29-.19.19-.31.45-.35.78h2.14Z"/></g></g><line class="cls-27" x1="358.43" y1="237.47" x2="542.81" y2="237.47"/><line class="cls-27" x1="358.43" y1="270.25" x2="553.12" y2="270.25"/><line class="cls-27" x1="358.43" y1="278.9" x2="538.68" y2="278.9"/><line class="cls-27" x1="358.43" y1="286.32" x2="513.93" y2="286.32"/><line class="cls-27" x1="358.43" y1="302.4" x2="513.93" y2="302.4"/><line class="cls-27" x1="358.43" y1="246.13" x2="556.73" y2="246.13"/><line class="cls-27" x1="358.43" y1="254.17" x2="443.79" y2="254.17"/><line class="cls-27" x1="358.43" y1="212.12" x2="389.63" y2="212.12"/><line class="cls-27" x1="358.43" y1="318.48" x2="379.32" y2="318.48"/><line class="cls-27" x1="358.43" y1="335.18" x2="383.96" y2="335.18"/><line class="cls-27" x1="358.43" y1="343.22" x2="404.59" y2="343.22"/><line class="cls-27" x1="358.43" y1="351.88" x2="404.59" y2="351.88"/><g class="cls-28"><g class="cls-28"><path class="cls-8" d="m392.29,151.75v1.67h-2.68v8.93h-2.02v-8.93h-2.68v-1.67h7.39Z"/></g><g class="cls-28"><path class="cls-8" d="m393.74,152.58c-.24-.24-.35-.53-.35-.89s.12-.65.35-.89c.24-.24.53-.36.89-.36s.65.12.89.36c.24.24.35.53.35.89s-.12.65-.35.89c-.24.24-.53.36-.89.36s-.65-.12-.89-.36Zm1.88,1.36v8.42h-2.02v-8.42h2.02Z"/></g><g class="cls-28"><path class="cls-8" d="m409.84,154.76c.6.63.9,1.52.9,2.65v4.94h-2.02v-4.65c0-.66-.16-1.16-.48-1.51-.32-.35-.75-.52-1.3-.52s-.98.17-1.31.52c-.32.35-.48.85-.48,1.51v4.65h-2.02v-4.65c0-.66-.16-1.16-.48-1.51-.32-.35-.75-.52-1.3-.52s-1,.17-1.32.52c-.32.35-.48.85-.48,1.51v4.65h-2.02v-8.42h2.02v1.02c.26-.35.59-.63,1-.84.41-.2.86-.3,1.35-.3.62,0,1.18.14,1.67.42.49.28.87.68,1.14,1.19.26-.49.64-.88,1.13-1.17.5-.29,1.03-.44,1.61-.44.98,0,1.77.32,2.37.95Z"/></g><g class="cls-28"><path class="cls-8" d="m420.02,158.73h-5.84c.04.62.24,1.1.59,1.46.36.35.8.53,1.33.53.75,0,1.28-.34,1.6-1.02h2.18c-.23.81-.67,1.48-1.33,2s-1.46.78-2.41.78c-.77,0-1.46-.18-2.07-.54s-1.09-.87-1.43-1.53c-.34-.66-.51-1.42-.51-2.28s.17-1.64.5-2.29c.34-.66.81-1.16,1.41-1.52.61-.35,1.3-.53,2.09-.53s1.44.17,2.04.52c.6.34,1.07.83,1.4,1.46s.5,1.35.5,2.17c0,.28-.02.55-.06.79Zm-2.04-1.29c0-.59-.19-1.05-.56-1.39-.36-.34-.81-.51-1.35-.51-.51,0-.94.17-1.28.51-.35.34-.55.8-.62,1.39h3.81Z"/></g><g class="cls-28"><path class="cls-8" d="m427.34,155.68v4.07c0,.28.07.49.2.62.13.13.35.19.66.19h.94v1.79h-1.27c-1.7,0-2.55-.87-2.55-2.61v-4.06h-.95v-1.75h.95v-2.08h2.03v2.08h1.79v1.75h-1.79Z"/></g><g class="cls-28"><path class="cls-8" d="m431.84,161.95c-.62-.36-1.1-.87-1.45-1.53-.35-.66-.53-1.42-.53-2.28s.18-1.62.54-2.28c.36-.66.85-1.17,1.48-1.53s1.32-.54,2.09-.54,1.47.18,2.09.54c.63.36,1.12.87,1.48,1.53.36.66.54,1.42.54,2.28s-.19,1.62-.56,2.28c-.37.66-.87,1.17-1.5,1.53-.63.36-1.33.54-2.11.54s-1.46-.18-2.08-.54Zm3.11-1.57c.32-.19.58-.48.77-.86s.29-.84.29-1.37-.1-1-.29-1.38c-.19-.38-.45-.67-.76-.86s-.65-.29-1.02-.29c-.57,0-1.05.22-1.44.66-.39.44-.59,1.06-.59,1.86s.19,1.42.58,1.86c.38.44.86.66,1.43.66.37,0,.71-.1,1.03-.29Z"/></g><g class="cls-28"><path class="cls-8" d="m448.21,162.35l-2.22-4.13h-.95v4.13h-2.02v-10.6h3.78c.78,0,1.44.14,1.99.43.55.29.96.68,1.23,1.17s.41,1.04.41,1.65c0,.7-.19,1.33-.58,1.89s-.96.95-1.72,1.16l2.41,4.3h-2.34Zm-3.17-5.71h1.69c.55,0,.96-.14,1.23-.43.27-.28.4-.67.4-1.17s-.13-.88-.4-1.16c-.27-.28-.68-.42-1.23-.42h-1.69v3.17Z"/></g><g class="cls-28"><path class="cls-8" d="m459.36,158.73h-5.84c.04.62.24,1.1.59,1.46.36.35.8.53,1.33.53.75,0,1.28-.34,1.6-1.02h2.18c-.23.81-.67,1.48-1.33,2s-1.46.78-2.41.78c-.77,0-1.46-.18-2.07-.54s-1.09-.87-1.43-1.53c-.34-.66-.51-1.42-.51-2.28s.17-1.64.5-2.29c.34-.66.81-1.16,1.41-1.52.61-.35,1.3-.53,2.09-.53s1.44.17,2.04.52c.6.34,1.07.83,1.4,1.46s.5,1.35.5,2.17c0,.28-.02.55-.06.79Zm-2.04-1.29c0-.59-.19-1.05-.56-1.39-.36-.34-.81-.51-1.35-.51-.51,0-.94.17-1.28.51-.35.34-.55.8-.62,1.39h3.81Z"/></g><g class="cls-28"><path class="cls-8" d="m473.15,154.76c.6.63.9,1.52.9,2.65v4.94h-2.02v-4.65c0-.66-.16-1.16-.48-1.51-.32-.35-.75-.52-1.3-.52s-.98.17-1.31.52c-.32.35-.48.85-.48,1.51v4.65h-2.02v-4.65c0-.66-.16-1.16-.48-1.51-.32-.35-.75-.52-1.3-.52s-1,.17-1.32.52c-.32.35-.48.85-.48,1.51v4.65h-2.02v-8.42h2.02v1.02c.26-.35.59-.63,1-.84.41-.2.86-.3,1.35-.3.62,0,1.18.14,1.67.42.49.28.87.68,1.14,1.19.26-.49.64-.88,1.13-1.17.5-.29,1.03-.44,1.61-.44.98,0,1.77.32,2.37.95Z"/></g><g class="cls-28"><path class="cls-8" d="m477.42,161.95c-.62-.36-1.1-.87-1.45-1.53-.35-.66-.53-1.42-.53-2.28s.18-1.62.54-2.28c.36-.66.85-1.17,1.48-1.53s1.32-.54,2.09-.54,1.47.18,2.09.54c.63.36,1.12.87,1.48,1.53.36.66.54,1.42.54,2.28s-.19,1.62-.56,2.28c-.37.66-.87,1.17-1.5,1.53-.63.36-1.33.54-2.11.54s-1.46-.18-2.08-.54Zm3.11-1.57c.32-.19.58-.48.77-.86s.29-.84.29-1.37-.1-1-.29-1.38c-.19-.38-.45-.67-.76-.86s-.65-.29-1.02-.29c-.57,0-1.05.22-1.44.66-.39.44-.59,1.06-.59,1.86s.19,1.42.58,1.86c.38.44.86.66,1.43.66.37,0,.71-.1,1.03-.29Z"/></g><g class="cls-28"><path class="cls-8" d="m488.15,154.24c.42-.28.9-.43,1.44-.43v2.23h-.53c-.64,0-1.11.16-1.44.47-.32.31-.48.86-.48,1.64v4.19h-2.02v-8.42h2.02v1.49c.26-.51.6-.9,1.02-1.18Z"/></g><g class="cls-28"><path class="cls-8" d="m493.4,155.68v4.07c0,.28.07.49.2.62.13.13.35.19.66.19h.94v1.79h-1.27c-1.7,0-2.55-.87-2.55-2.61v-4.06h-.95v-1.75h.95v-2.08h2.03v2.08h1.79v1.75h-1.79Z"/></g><g class="cls-28"><path class="cls-8" d="m501.19,154.17c.45.25.81.57,1.07.96v-1.2h2.04v8.48c0,.78-.15,1.48-.45,2.09-.3.61-.75,1.1-1.34,1.46-.6.36-1.32.54-2.17.54-1.14,0-2.07-.28-2.79-.84-.73-.56-1.14-1.32-1.23-2.28h2.01c.11.38.33.69.69.92.35.23.78.34,1.28.34.59,0,1.06-.18,1.43-.55.37-.37.55-.93.55-1.68v-1.31c-.26.4-.62.72-1.08.99s-.98.4-1.57.4c-.67,0-1.29-.18-1.85-.55-.56-.36-1-.88-1.32-1.54-.32-.66-.48-1.42-.48-2.29s.16-1.6.48-2.26c.32-.66.76-1.16,1.31-1.52.55-.35,1.17-.53,1.85-.53.6,0,1.12.12,1.57.37Zm.78,2.64c-.19-.37-.45-.65-.78-.85-.33-.2-.68-.3-1.05-.3s-.72.1-1.04.29-.58.47-.77.84c-.2.37-.3.81-.3,1.31s.1.95.3,1.33c.2.38.46.67.78.87.32.2.67.3,1.03.3s.73-.1,1.05-.3.59-.48.78-.85.29-.81.29-1.33-.1-.96-.29-1.33Z"/><path class="cls-8" d="m506.23,155.85c.32-.66.76-1.16,1.31-1.52.55-.35,1.17-.53,1.85-.53.6,0,1.12.13,1.57.38.45.25.81.57,1.08.96v-1.2h2.04v8.42h-2.04v-1.23c-.26.4-.62.72-1.08.98s-.98.39-1.58.39c-.67,0-1.29-.18-1.84-.55-.55-.36-.99-.88-1.31-1.54-.32-.66-.48-1.42-.48-2.29s.16-1.6.48-2.26Zm5.52.96c-.19-.37-.45-.65-.78-.85-.33-.2-.68-.3-1.05-.3s-.72.1-1.04.29-.58.47-.77.84c-.2.37-.3.81-.3,1.31s.1.95.3,1.33c.2.38.46.67.78.87.32.2.67.3,1.03.3s.73-.1,1.05-.3.59-.48.78-.85.29-.81.29-1.33-.1-.96-.29-1.33Z"/><path class="cls-8" d="m520.75,154.17c.45.25.81.57,1.07.96v-1.2h2.04v8.48c0,.78-.15,1.48-.45,2.09-.3.61-.75,1.1-1.34,1.46-.6.36-1.32.54-2.17.54-1.14,0-2.07-.28-2.79-.84-.73-.56-1.14-1.32-1.23-2.28h2.01c.11.38.33.69.69.92.35.23.78.34,1.28.34.59,0,1.06-.18,1.43-.55.37-.37.55-.93.55-1.68v-1.31c-.26.4-.62.72-1.08.99s-.98.4-1.57.4c-.67,0-1.29-.18-1.85-.55-.56-.36-1-.88-1.32-1.54-.32-.66-.48-1.42-.48-2.29s.16-1.6.48-2.26c.32-.66.76-1.16,1.31-1.52.55-.35,1.17-.53,1.85-.53.6,0,1.12.12,1.57.37Zm.78,2.64c-.19-.37-.45-.65-.78-.85-.33-.2-.68-.3-1.05-.3s-.72.1-1.04.29-.58.47-.77.84c-.2.37-.3.81-.3,1.31s.1.95.3,1.33c.2.38.46.67.78.87.32.2.67.3,1.03.3s.73-.1,1.05-.3.59-.48.78-.85.29-.81.29-1.33-.1-.96-.29-1.33Z"/></g><g class="cls-28"><path class="cls-8" d="m533.19,158.73h-5.84c.04.62.24,1.1.59,1.46.36.35.8.53,1.33.53.75,0,1.28-.34,1.6-1.02h2.18c-.23.81-.67,1.48-1.33,2s-1.46.78-2.41.78c-.77,0-1.46-.18-2.07-.54s-1.09-.87-1.43-1.53c-.34-.66-.51-1.42-.51-2.28s.17-1.64.5-2.29c.34-.66.81-1.16,1.41-1.52.61-.35,1.3-.53,2.09-.53s1.44.17,2.04.52c.6.34,1.07.83,1.4,1.46s.5,1.35.5,2.17c0,.28-.02.55-.06.79Zm-2.04-1.29c0-.59-.19-1.05-.56-1.39-.36-.34-.81-.51-1.35-.51-.51,0-.94.17-1.28.51-.35.34-.55.8-.62,1.39h3.81Z"/></g></g><g class="cls-28"><g class="cls-28"><path class="cls-8" d="m403.52,175.19c.52-.47.93-.85,1.22-1.15.3-.3.54-.61.74-.93.2-.32.29-.64.29-.95s-.08-.58-.23-.77c-.15-.19-.4-.28-.72-.28s-.56.11-.74.32-.27.5-.28.86h-.89c.02-.65.2-1.14.55-1.49s.8-.52,1.35-.52c.39,0,.73.08,1.01.23s.5.37.64.65.22.6.22.95c0,.39-.1.77-.29,1.14-.2.37-.43.7-.7,1-.27.3-.62.64-1.04,1.03l-.37.35h2.57v.81h-3.93v-.71l.6-.54Z"/></g><g class="cls-28"><path class="cls-8" d="m411.46,171.15h-2.71v1.7c.11-.16.28-.29.51-.4s.46-.16.72-.16c.45,0,.82.1,1.1.31.28.2.49.46.61.77.12.31.18.64.18.99,0,.42-.08.79-.23,1.12-.15.33-.38.58-.69.77-.3.19-.68.28-1.12.28-.59,0-1.06-.15-1.42-.46s-.57-.71-.64-1.22h.9c.06.27.19.48.4.63s.46.23.77.23c.38,0,.67-.12.86-.37.19-.24.29-.57.29-.97s-.1-.72-.29-.94-.48-.33-.86-.33c-.26,0-.49.07-.67.21-.18.14-.31.33-.39.57h-.87v-3.59h3.56v.85Z"/></g><g class="cls-28"><path class="cls-8" d="m415.89,176.38c-.3-.14-.54-.34-.71-.59-.17-.26-.26-.55-.26-.89h.99c.02.27.12.49.29.66s.41.26.72.26.57-.08.74-.25.27-.38.27-.65c0-.2-.06-.36-.17-.49-.11-.12-.25-.22-.41-.29-.17-.07-.39-.14-.68-.22-.37-.1-.67-.21-.89-.31s-.42-.27-.59-.49c-.16-.22-.24-.52-.24-.89,0-.34.08-.64.24-.89.16-.26.39-.45.68-.59.29-.14.63-.2,1.01-.2.54,0,.99.14,1.34.43.35.29.54.68.58,1.18h-1.02c-.02-.23-.11-.43-.29-.58-.18-.16-.41-.23-.71-.23-.27,0-.49.07-.65.22-.17.14-.25.36-.25.64,0,.18.05.33.16.45.11.12.24.21.4.28.16.07.38.14.66.22.37.11.68.22.91.32.23.11.43.27.6.5.17.22.25.52.25.9,0,.3-.08.58-.23.85-.15.27-.38.48-.67.64-.29.16-.64.24-1.04.24-.38,0-.72-.07-1.02-.21Z"/></g><g class="cls-28"><path class="cls-8" d="m419.98,172.91c.19-.36.44-.65.76-.85.32-.2.68-.3,1.06-.3.35,0,.66.07.92.22.26.14.47.33.63.54v-.68h.93v4.69h-.93v-.7c-.16.22-.37.41-.64.55-.27.15-.58.22-.92.22-.38,0-.73-.1-1.05-.31-.32-.21-.57-.5-.76-.87-.19-.37-.28-.79-.28-1.27s.09-.89.28-1.25Zm3.18.43c-.13-.24-.29-.42-.5-.55s-.43-.19-.66-.19-.46.06-.66.18-.37.3-.5.54c-.13.24-.19.52-.19.84s.06.61.19.85.29.43.5.56.43.19.66.19.46-.06.66-.19.37-.31.5-.55c.13-.24.19-.52.19-.85s-.06-.6-.19-.84Z"/></g><g class="cls-28"><path class="cls-8" d="m428.78,171.99c.28.15.5.38.65.68.16.3.23.66.23,1.09v2.77h-.92v-2.62c0-.42-.1-.74-.3-.97-.2-.22-.47-.34-.82-.34s-.62.11-.82.34c-.2.22-.3.55-.3.97v2.62h-.92v-4.69h.92v.54c.15-.19.34-.34.58-.45s.48-.16.75-.16c.35,0,.67.08.94.23Z"/></g><g class="cls-28"><path class="cls-8" d="m430.91,172.91c.19-.36.44-.65.76-.85.32-.2.68-.3,1.07-.3.29,0,.58.07.86.2.28.13.51.31.68.53v-2.27h.93v6.3h-.93v-.71c-.15.23-.36.41-.63.56-.27.15-.57.22-.92.22-.39,0-.74-.1-1.06-.31-.32-.21-.58-.5-.76-.87-.19-.37-.28-.79-.28-1.27s.09-.89.28-1.25Zm3.18.43c-.13-.24-.29-.42-.5-.55s-.43-.19-.66-.19-.46.06-.66.18-.37.3-.5.54c-.13.24-.19.52-.19.84s.06.61.19.85.29.43.5.56.43.19.66.19.46-.06.66-.19.37-.31.5-.55c.13-.24.19-.52.19-.85s-.06-.6-.19-.84Z"/></g><g class="cls-28"><path class="cls-8" d="m439.74,171.99c.27.15.48.38.63.68.15.3.23.66.23,1.09v2.77h-.92v-2.62c0-.42-.1-.74-.3-.97-.2-.22-.47-.34-.82-.34s-.62.11-.82.34c-.2.22-.3.55-.3.97v2.62h-.92v-6.3h.92v2.16c.16-.2.36-.35.6-.46.24-.11.5-.16.79-.16.34,0,.64.08.91.23Z"/></g><g class="cls-28"><path class="cls-8" d="m445.88,171.84v4.69h-.92v-.55c-.15.19-.34.35-.57.46-.23.11-.48.17-.75.17-.35,0-.67-.08-.94-.23-.28-.15-.5-.38-.66-.68-.16-.3-.24-.66-.24-1.09v-2.76h.92v2.62c0,.42.1.74.3.97.2.22.47.34.82.34s.62-.11.82-.34c.2-.22.3-.55.3-.97v-2.62h.92Z"/><path class="cls-8" d="m448.63,171.99c.22-.16.49-.23.8-.23v1.01h-.23c-.36,0-.64.1-.82.29-.19.19-.28.53-.28,1.01v2.47h-.92v-4.69h.92v.82c.14-.28.31-.5.54-.66Z"/></g><g class="cls-28"><path class="cls-8" d="m451.04,176.41c-.28-.13-.49-.32-.66-.55s-.25-.49-.26-.77h.96c.02.22.11.4.27.54.16.14.37.21.62.21s.46-.06.6-.17c.14-.11.21-.26.21-.45,0-.17-.08-.3-.24-.39s-.41-.18-.75-.27c-.33-.1-.6-.19-.8-.28-.21-.09-.39-.22-.54-.41-.15-.18-.23-.42-.23-.72,0-.26.07-.49.2-.7.13-.21.33-.38.59-.51.26-.12.56-.19.9-.19.51,0,.92.13,1.23.4.31.27.48.64.5,1.1h-.92c-.02-.23-.1-.41-.24-.54-.15-.13-.34-.2-.59-.2s-.43.05-.56.16c-.13.1-.19.25-.19.42,0,.12.04.23.13.31.09.09.19.15.32.2.13.05.31.11.55.17.32.09.59.18.79.27s.38.23.53.41c.15.18.22.42.22.72,0,.27-.07.51-.2.72-.13.21-.33.38-.59.5s-.56.18-.91.18-.66-.07-.93-.2Z"/></g><g class="cls-28"><path class="cls-8" d="m455.82,172.63v2.6c0,.18.04.3.12.38s.21.11.4.11h.57v.81h-.73c-.42,0-.73-.1-.96-.31-.22-.2-.33-.54-.33-1v-2.6h-.53v-.79h.53v-1.17h.93v1.17h1.08v.79h-1.08Z"/></g><g class="cls-28"><path class="cls-8" d="m462.78,176.53l-1.29-2.37h-.71v2.37h-.92v-5.92h1.94c.43,0,.8.08,1.1.24.3.16.52.37.67.64.15.27.22.57.22.89,0,.39-.11.74-.32,1.05-.21.32-.54.53-.98.64l1.39,2.45h-1.1Zm-2-3.14h1.02c.34,0,.61-.09.78-.27.17-.18.26-.43.26-.74s-.09-.57-.26-.75c-.17-.18-.43-.27-.79-.27h-1.02v2.03Z"/></g><g class="cls-28"><path class="cls-8" d="m465.72,176.3c-.34-.2-.61-.49-.8-.85-.19-.37-.29-.79-.29-1.27s.1-.9.3-1.27c.2-.37.47-.65.82-.85.34-.2.73-.3,1.16-.3s.81.1,1.16.3c.35.2.62.48.82.85.2.37.3.79.3,1.27s-.1.9-.31,1.27-.48.65-.84.86-.74.3-1.17.3-.8-.1-1.14-.3Zm1.81-.7c.21-.12.38-.31.51-.55.13-.24.19-.53.19-.87s-.06-.63-.19-.87c-.12-.24-.29-.42-.49-.55s-.43-.18-.66-.18-.46.06-.66.18-.36.3-.48.55c-.12.24-.18.53-.18.87s.06.63.17.88c.12.24.27.43.47.55.2.12.41.18.65.18s.46-.06.67-.19Z"/></g><g class="cls-28"><path class="cls-8" d="m470.22,172.91c.19-.36.44-.65.76-.85.32-.2.68-.3,1.06-.3.35,0,.66.07.92.22.26.14.47.33.63.54v-.68h.93v4.69h-.93v-.7c-.16.22-.37.41-.64.55-.27.15-.58.22-.92.22-.38,0-.73-.1-1.05-.31-.32-.21-.57-.5-.76-.87-.19-.37-.28-.79-.28-1.27s.09-.89.28-1.25Zm3.18.43c-.13-.24-.29-.42-.5-.55s-.43-.19-.66-.19-.46.06-.66.18-.37.3-.5.54c-.13.24-.19.52-.19.84s.06.61.19.85.29.43.5.56.43.19.66.19.46-.06.66-.19.37-.31.5-.55c.13-.24.19-.52.19-.85s-.06-.6-.19-.84Z"/></g><g class="cls-28"><path class="cls-8" d="m475.82,172.91c.19-.36.44-.65.76-.85.32-.2.68-.3,1.07-.3.29,0,.58.07.86.2.28.13.51.31.68.53v-2.27h.93v6.3h-.93v-.71c-.15.23-.36.41-.63.56-.27.15-.57.22-.92.22-.39,0-.74-.1-1.06-.31-.32-.21-.58-.5-.76-.87-.19-.37-.28-.79-.28-1.27s.09-.89.28-1.25Zm3.18.43c-.13-.24-.29-.42-.5-.55s-.43-.19-.66-.19-.46.06-.66.18-.37.3-.5.54c-.13.24-.19.52-.19.84s.06.61.19.85.29.43.5.56.43.19.66.19.46-.06.66-.19.37-.31.5-.55c.13-.24.19-.52.19-.85s-.06-.6-.19-.84Z"/></g><g class="cls-28"><path class="cls-8" d="m482.49,175.36l-.98,2.35h-.6l.58-2.35h1Z"/></g><g class="cls-28"><path class="cls-8" d="m490.03,176.53h-.92l-2.78-4.42v4.42h-.92v-5.93h.92l2.78,4.41v-4.41h.92v5.93Z"/></g><g class="cls-28"><path class="cls-8" d="m491,171.37v-.89h1.68v6.05h-.93v-5.16h-.75Z"/></g><g class="cls-28"><path class="cls-8" d="m495.39,175.49c.18.15.42.22.72.22.38,0,.66-.16.84-.48.18-.32.27-.86.27-1.63-.13.19-.31.34-.55.45-.23.1-.49.16-.76.16-.35,0-.67-.08-.96-.23-.29-.15-.51-.37-.68-.67-.17-.3-.25-.66-.25-1.09,0-.62.17-1.12.52-1.5.35-.37.83-.56,1.44-.56.73,0,1.26.26,1.57.77.31.51.46,1.3.46,2.36,0,.73-.06,1.33-.17,1.8s-.32.82-.6,1.06c-.29.24-.68.36-1.19.36-.58,0-1.02-.16-1.33-.48-.31-.32-.49-.72-.53-1.2h.85c.05.28.17.5.35.65Zm1.44-2.42c.19-.21.28-.5.28-.85,0-.39-.1-.7-.3-.92-.2-.22-.46-.33-.8-.33s-.61.11-.81.34c-.2.22-.29.52-.29.88s.1.63.29.86c.19.22.48.34.87.34.32,0,.58-.11.76-.32Z"/></g><g class="cls-28"><path class="cls-8" d="m503.99,171.17c-.16-.13-.38-.2-.66-.2-.43,0-.74.17-.96.52-.21.34-.32.91-.33,1.71.14-.25.34-.44.61-.58.27-.14.56-.2.88-.2.36,0,.67.08.94.24.27.16.49.4.64.7.15.31.23.67.23,1.1,0,.4-.07.75-.22,1.06s-.37.56-.66.74c-.29.18-.64.27-1.05.27-.56,0-.99-.13-1.31-.39-.32-.26-.54-.62-.66-1.09s-.19-1.06-.19-1.76c0-2.08.7-3.12,2.09-3.12.54,0,.96.15,1.27.46s.49.68.55,1.13h-.85c-.06-.26-.17-.46-.32-.59Zm-1.49,2.37c-.23.21-.34.51-.34.9s.11.7.32.93c.21.23.51.34.89.34.34,0,.61-.11.8-.33s.3-.52.3-.89-.1-.69-.29-.92c-.19-.23-.47-.35-.85-.35-.33,0-.61.1-.84.31Z"/></g><g class="cls-28"><path class="cls-8" d="m507.46,175.79h1.9v.74h-2.82v-5.92h.92v5.18Z"/></g><g class="cls-28"><path class="cls-8" d="m513.95,173.99c.21.28.32.59.32.95,0,.3-.07.57-.22.81-.15.24-.36.43-.64.57-.28.14-.61.21-.98.21h-2.25v-5.92h2.14c.38,0,.71.07.99.2s.48.32.62.55c.14.23.21.49.21.77,0,.34-.09.62-.26.85-.17.23-.41.4-.7.5.3.06.56.22.77.5Zm-2.86-.87h1.14c.3,0,.54-.08.71-.23s.25-.37.25-.64-.08-.5-.25-.65-.41-.23-.71-.23h-1.14v1.75Zm1.98,2.4c.18-.16.27-.39.27-.69s-.09-.52-.28-.69c-.19-.17-.44-.26-.75-.26h-1.21v1.89h1.25c.31,0,.56-.08.74-.25Z"/></g></g><rect class="cls-8" x="419.42" y="101.72" width="76.32" height="38.69" rx="7.86" ry="7.86"/><rect class="cls-8" x="547.14" y="169.99" width="59.78" height="56.54" rx="8.13" ry="8.13"/><path class="cls-29" d="m590.49,186.3h-27.27c-1.84,0-3.32,1.49-3.32,3.32v17.29c0,1.84,1.49,3.32,3.32,3.32h27.27c1.84,0,3.32-1.49,3.32-3.32h0v-17.29c0-1.84-1.49-3.32-3.32-3.32h0Zm-25.16,2.73s.02,0,.03,0h23s.03,0,.03.03c0,0,0,.02-.01.03l-11.5,9.13s-.03,0-.04,0l-11.5-9.13s-.02-.03,0-.05h-.01Zm25.76,17.69c0,.39-.13.79-.56.79h-27.27c-.56,0-.64-.39-.64-.88v-16.19s.01-.02.02-.02h.02c4.47,3.55,8.94,7.1,13.4,10.64.49.39,1.16.31,1.63-.05,4.47-3.52,8.92-7.05,13.37-10.58h.03v16.28h0Z"/><circle class="cls-15" cx="593.81" cy="186.55" r="3.31"/><path class="cls-11" d="m224.38,186.46c-2.73-1.42-5.41,2.02-1.78,3.82,13.75,6.79,29.55,9.34,44.78,8.75,18.49-.72,36.61-4.17,54.33-10.34,2.97-1.03,2.15-4.81-.81-3.77-16.69,5.86-33.88,9.23-51.55,10.13-15.19.77-31.35-1.49-44.97-8.58h0Zm87.54,13.86c4.03-3.06,7.91-6.29,11.65-9.69,1.57-1.43,2.93-2.94,4.07-4.53,0,0,.01-.02.02-.03.17-.26.08-.61-.18-.78-4.97-3.09-9.8-6.11-14.49-9.07-2.63-1.65-.36-5.22,2.31-3.44,4.5,3,9.53,6.16,15.1,9.48,3.39,2.03.53,6.23-1.28,8.06-4.3,4.33-9.33,8.68-15.08,13.04-2.29,1.74-4.15-1.48-2.1-3.04h-.02Z"/></svg>