<?xml version="1.0" encoding="UTF-8"?><svg id="Layer_1" xmlns="http://www.w3.org/2000/svg" xmlns:xlink="http://www.w3.org/1999/xlink" viewBox="0 0 29.16 40.27"><defs><style>.cls-1{clip-path:url(#clippath);}.cls-2,.cls-3,.cls-4{fill:none;}.cls-2,.cls-5,.cls-6,.cls-7{stroke-width:0px;}.cls-3{stroke-width:.74px;}.cls-3,.cls-4{stroke:#fff;stroke-miterlimit:10;}.cls-4{stroke-width:1.2px;}.cls-5{fill:#171730;}.cls-6{fill:#2461ff;}.cls-7{fill:#fff;}</style><clipPath id="clippath"><rect class="cls-2" width="29.16" height="40.27"/></clipPath></defs><g class="cls-1"><path class="cls-6" d="m13.18,33.36h9.83c.35,0,.63-.28.63-.63s-.28-.63-.63-.63h-9.83c-.35,0-.63.28-.63.63s.28.63.63.63"/><path class="cls-3" d="m13.18,33.36h9.83c.35,0,.63-.28.63-.63s-.28-.63-.63-.63h-9.83c-.35,0-.63.28-.63.63s.28.63.63.63"/><path class="cls-6" d="m5.78,33.2c.38.37.72.72.97.97.25.25.41.41.41.41.24.24.64.24.89,0l2.79-2.79c.24-.25.24-.64,0-.89-.25-.24-.64-.24-.89,0l-2.79,2.79.44.44.44-.45s-.63-.63-1.38-1.37c-.24-.24-.64-.24-.89,0-.24.25-.24.64,0,.89"/><path class="cls-3" d="m5.78,33.2c.38.37.72.72.97.97.25.25.41.41.41.41.24.24.64.24.89,0l2.79-2.79c.24-.25.24-.64,0-.89-.25-.24-.64-.24-.89,0l-2.79,2.79.44.44.44-.45s-.63-.63-1.38-1.37c-.24-.24-.64-.24-.89,0-.24.25-.24.64,0,.89"/><path class="cls-6" d="m13.18,26.35h9.83c.35,0,.63-.28.63-.63s-.28-.63-.63-.63h-9.83c-.35,0-.63.28-.63.63s.28.63.63.63"/><path class="cls-3" d="m13.18,26.35h9.83c.35,0,.63-.28.63-.63s-.28-.63-.63-.63h-9.83c-.35,0-.63.28-.63.63s.28.63.63.63"/><path class="cls-6" d="m5.78,26.19c.38.37.72.72.97.97.25.25.41.41.41.41.24.24.64.24.89,0l2.79-2.79c.24-.24.24-.64,0-.89-.25-.25-.64-.25-.89,0l-2.79,2.79.44.44.44-.44s-.63-.63-1.38-1.37c-.24-.24-.64-.24-.89,0-.24.24-.24.64,0,.89"/><path class="cls-3" d="m5.78,26.19c.38.37.72.72.97.97.25.25.41.41.41.41.24.24.64.24.89,0l2.79-2.79c.24-.24.24-.64,0-.89-.25-.25-.64-.25-.89,0l-2.79,2.79.44.44.44-.44s-.63-.63-1.38-1.37c-.24-.24-.64-.24-.89,0-.24.24-.24.64,0,.89"/><path class="cls-6" d="m13.18,19.4h9.83c.35,0,.63-.28.63-.63s-.28-.63-.63-.63h-9.83c-.35,0-.63.28-.63.63s.28.63.63.63"/><path class="cls-3" d="m13.18,19.4h9.83c.35,0,.63-.28.63-.63s-.28-.63-.63-.63h-9.83c-.35,0-.63.28-.63.63s.28.63.63.63"/><path class="cls-6" d="m5.78,19.24c.38.37.72.72.97.97.25.25.41.4.41.41.24.24.64.24.89,0l2.79-2.79c.24-.25.24-.64,0-.89-.25-.25-.64-.25-.89,0l-2.79,2.79.44.44.44-.44s-.63-.63-1.38-1.37c-.24-.24-.64-.24-.89,0-.24.25-.24.64,0,.89"/><path class="cls-3" d="m5.78,19.24c.38.37.72.72.97.97.25.25.41.4.41.41.24.24.64.24.89,0l2.79-2.79c.24-.25.24-.64,0-.89-.25-.25-.64-.25-.89,0l-2.79,2.79.44.44.44-.44s-.63-.63-1.38-1.37c-.24-.24-.64-.24-.89,0-.24.25-.24.64,0,.89"/><path class="cls-7" d="m23.01,32.1h-9.83c-.35,0-.63.28-.63.63s.28.63.63.63h9.83c.35,0,.63-.28.63-.63s-.28-.63-.63-.63"/><path class="cls-7" d="m10.39,30.71c-.16,0-.32.06-.44.18l-.9.9-1.45,1.45c-.2-.2-.44-.44-.72-.71-.07-.07-.15-.15-.22-.22-.12-.12-.28-.18-.44-.18s-.32.06-.45.19c-.12.12-.18.28-.18.44,0,.16.06.32.18.44.38.37.72.72.97.97s.41.41.41.41c.12.12.28.18.44.18s.32-.06.44-.18l2.79-2.79c.12-.12.18-.28.18-.44s-.06-.32-.18-.44c-.12-.12-.28-.18-.44-.18"/><path class="cls-7" d="m23.01,25.1h-9.83c-.35,0-.63.28-.63.63s.28.63.63.63h9.83c.35,0,.63-.28.63-.63s-.28-.63-.63-.63"/><path class="cls-7" d="m10.39,23.7c-.16,0-.32.06-.44.18l-.9.9-1.45,1.45c-.2-.2-.44-.44-.72-.71-.07-.07-.15-.15-.22-.22-.12-.12-.28-.18-.44-.18s-.32.06-.45.19c-.12.12-.18.28-.18.44,0,.16.06.32.18.44.38.37.72.72.97.97.25.25.41.41.41.41.12.12.28.18.44.18s.32-.06.44-.18l2.79-2.79c.12-.12.18-.28.18-.44s-.06-.32-.18-.44c-.12-.12-.28-.18-.44-.18"/><path class="cls-7" d="m23.01,18.14h-9.83c-.35,0-.63.28-.63.63s.28.63.63.63h9.83c.35,0,.63-.28.63-.63s-.28-.63-.63-.63"/><path class="cls-7" d="m10.39,16.75c-.16,0-.32.06-.44.18l-.9.9-1.45,1.45c-.2-.2-.44-.44-.72-.71-.07-.07-.15-.15-.22-.22-.12-.12-.28-.18-.44-.18s-.32.06-.45.18c-.12.12-.18.28-.18.44,0,.16.06.32.18.44.38.37.72.72.97.97.25.25.41.41.41.41.12.12.28.18.44.18s.32-.06.44-.18l2.79-2.79c.12-.12.18-.28.18-.44s-.06-.32-.18-.44c-.12-.12-.28-.18-.44-.18"/><path class="cls-7" d="m17.37.63V0H.63C.46,0,.3.07.18.18.07.3,0,.46,0,.63v39.01c0,.17.07.33.18.44.12.12.28.18.44.18h27.9c.17,0,.33-.07.44-.18.11-.12.18-.28.18-.44V11.79c0-.17-.07-.33-.18-.44L17.81.18C17.7.07,17.54,0,17.37,0v.63l-.44.44,10.98,10.98v26.97H1.26V1.26h16.11v-.63l-.44.44.44-.44Z"/><path class="cls-5" d="m18,1.25v.89l9.02,9.02h.87c-.5-.5-1.38-1.38-2.94-2.95l-6.95-6.96Z"/><path class="cls-3" d="m18,1.25v.89l9.02,9.02h.87c-.5-.5-1.38-1.38-2.94-2.95l-6.95-6.96Z"/><path class="cls-7" d="m16.74.63v11.16c0,.16.07.33.18.44.12.12.28.18.44.18h11.16c.35,0,.63-.28.63-.63s-.28-.63-.63-.63h-10.53V.63C18,.28,17.72,0,17.37,0s-.63.28-.63.63"/><path class="cls-5" d="m18,1.22v.04l6.95,6.96c-.58-.59-1.26-1.27-2.04-2.07-2.85-2.89-4.24-4.27-4.91-4.93"/><path class="cls-3" d="m18,1.22v.04l6.95,6.96c-.58-.59-1.26-1.27-2.04-2.07-2.85-2.89-4.24-4.27-4.91-4.93"/><path class="cls-5" d="m24.95,8.21c1.55,1.57,2.44,2.45,2.94,2.95h.01l-2.95-2.95Z"/><path class="cls-3" d="m24.95,8.21c1.55,1.57,2.44,2.45,2.94,2.95h.01l-2.95-2.95Z"/><path class="cls-5" d="m17.37.63l.63.63v-.04c-.56-.54-.63-.59-.63-.59m10.53,10.53h-.02c.57.57.64.63.64.63l-.63-.63Z"/><path class="cls-3" d="m17.37.63l.63.63v-.04c-.56-.54-.63-.59-.63-.59m10.53,10.53h-.02c.57.57.64.63.64.63l-.63-.63Z"/><path class="cls-4" d="m17.37.63s.35.24,5.54,5.52c5.26,5.34,5.62,5.65,5.62,5.65"/></g></svg>