<?xml version="1.0" encoding="UTF-8"?><svg id="Layer_1" xmlns="http://www.w3.org/2000/svg" xmlns:xlink="http://www.w3.org/1999/xlink" viewBox="0 0 41.74 41.78"><defs><style>.cls-1{clip-path:url(#clippath);}.cls-2,.cls-3,.cls-4{fill:none;}.cls-2,.cls-5,.cls-6{stroke-width:0px;}.cls-3{stroke-width:1.45px;}.cls-3,.cls-4{stroke:#fff;stroke-miterlimit:10;}.cls-4{stroke-width:.95px;}.cls-5{fill:#171730;}.cls-6{fill:#fff;}</style><clipPath id="clippath"><rect class="cls-2" x="0" y="0" width="41.73" height="41.78"/></clipPath></defs><g class="cls-1"><path class="cls-6" d="m26.07,31.07v2.98c0,1.26-.51,2.39-1.34,3.23-.83.83-1.97,1.34-3.23,1.34s-2.4-.51-3.23-1.34c-.83-.83-1.34-1.97-1.34-3.23v-2.98c0-.42-.34-.76-.76-.76s-.76.34-.76.76v2.98c0,3.35,2.73,6.08,6.09,6.08,3.35,0,6.08-2.73,6.09-6.08v-2.98c0-.42-.34-.76-.76-.76s-.76.34-.76.76"/><path class="cls-5" d="m26.41,30.43s-.03.02-.04.03c0,0,.01,0,.02-.01,0,0,.01,0,.02-.01"/><path class="cls-4" d="m26.41,30.43s-.03.02-.04.03c0,0,.01,0,.02-.01,0,0,.01,0,.02-.01"/><path class="cls-6" d="m11.15,17.42l.22,6.29c.1,2.73,1.26,5.17,3.09,6.94h0c.4.38.83.74,1.28,1.05h0c1.64,1.13,3.63,1.79,5.76,1.79s4.12-.66,5.76-1.8c2.54-1.76,4.25-4.66,4.37-7.98l.2-5.71v-.03s0,0,0,0c0-.42-.34-.76-.76-.76s-.76.34-.76.76h0s.76,0,.76,0l-.76-.03-.2,5.71c-.1,2.83-1.55,5.29-3.72,6.79-1.39.97-3.08,1.53-4.9,1.53s-3.5-.56-4.89-1.53h0c-.39-.27-.75-.57-1.09-.89-1.55-1.5-2.55-3.58-2.63-5.9l-.22-6.29c-.02-.42-.37-.75-.78-.73-.42.01-.75.36-.73.78"/><path class="cls-5" d="m11.91,16.64s-.02,0-.03,0c-.17,0-.32.07-.45.16.29.4.49.61.49.61l-.02.02c.25-.01.51-.03.76-.05v-.02c-.01-.41-.35-.73-.76-.73m19.15.58c-.07,0-.14,0-.2.03.06.25.13.49.2.73.15-.2.28-.42.41-.64-.12-.08-.26-.12-.41-.12"/><path class="cls-4" d="m11.91,16.64s-.02,0-.03,0c-.17,0-.32.07-.45.16.29.4.49.61.49.61l-.02.02c.25-.01.51-.03.76-.05v-.02c-.01-.41-.35-.73-.76-.73m19.15.58c-.07,0-.14,0-.2.03.06.25.13.49.2.73.15-.2.28-.42.41-.64-.12-.08-.26-.12-.41-.12"/><path class="cls-3" d="m9.13,41.05H3.43c-1.49,0-2.7-1.21-2.7-2.7v-5.7M.73,9.13V3.42C.73,1.93,1.93.73,3.43.73h5.7m31.88,8.43V3.45c0-1.49-1.21-2.7-2.7-2.7h-5.7m0,40.3h5.7c1.49,0,2.7-1.21,2.7-2.7v-5.7m-29.1-15.22c6.15-.26,11.05-4.08,13.34-9.45,5.16,3.67,4.88,6.89,5.81,9.99,2.26-3.09,1.82-9.24.24-11.67-1.32-2.02-3.72-2.67-3.72-2.67-3.43-.83-6.93.4-8.67,1.18-.72.32-1.56.24-2.2-.22l-2.5-1.78c-.93-.7-2.26-.48-2.92.48-.85,1.23-1.69,3.06-2.02,5.26-.78,5.17,2.66,8.87,2.66,8.87"/></g></svg>