<?xml version="1.0" encoding="utf-8"?>
<!-- Generator: Adobe Illustrator 28.0.0, SVG Export Plug-In . SVG Version: 6.00 Build 0)  -->
<svg version="1.1" id="Layer_1" xmlns="http://www.w3.org/2000/svg" xmlns:xlink="http://www.w3.org/1999/xlink" x="0px" y="0px"
	 viewBox="0 0 400 120" style="enable-background:new 0 0 400 120;" xml:space="preserve">
<style type="text/css">
	.st0{fill:#304E5C;}
	.st1{fill:#CC0A60;}
</style>
<g>
	<g>
		<path class="st0" d="M83.8,59c-1.4-1-2.8-1.7-4.3-2.2c-1.5-0.5-2.9-1-4.1-1.3l-8.3-2.2c-1-0.2-2-0.6-2.9-1c-1-0.4-1.8-0.9-2.4-1.6
			c-0.7-0.7-1-1.5-1-2.5c0-1.1,0.4-2.1,1.2-2.9c0.8-0.8,1.8-1.4,3.1-1.9c1.3-0.4,2.6-0.6,4-0.6c1.4,0.1,2.8,0.4,4.1,0.9
			c1.3,0.5,2.5,1.4,3.4,2.4c1,1.1,1.6,2.3,1.9,3.9l9.7-1.7c-0.8-3-2-5.5-3.8-7.6c-1.7-2-3.9-3.6-6.5-4.7c-2.6-1.1-5.5-1.6-8.8-1.7
			c-3.2,0-6.2,0.5-8.9,1.5s-4.9,2.6-6.4,4.7c-1.6,2.1-2.4,4.7-2.4,8c0,2.3,0.4,4.1,1.1,5.6c0.8,1.5,1.7,2.7,2.9,3.6
			c1.1,0.9,2.3,1.6,3.5,2.1c1.2,0.5,2.3,0.8,3.2,1.1l12.4,3.7c0.9,0.3,1.7,0.6,2.3,1c0.6,0.4,1.1,0.7,1.4,1.1
			c0.4,0.4,0.5,0.8,0.7,1.3c0.1,0.4,0.2,0.9,0.2,1.4c0,1.3-0.4,2.5-1.3,3.4s-2,1.6-3.4,2c-1.4,0.5-2.8,0.7-4.3,0.7
			c-2.6,0-5-0.7-7.1-2.2c-2-1.5-3.4-3.6-4.1-6.3l-9.4,1.2c0.5,3.2,1.6,6,3.4,8.3c1.8,2.3,4.1,4.1,7,5.3c2.8,1.3,6,1.9,9.5,1.9
			c2.4,0,4.7-0.3,7-0.9c2.3-0.6,4.3-1.6,6.1-2.8c1.8-1.3,3.2-2.8,4.3-4.7c1.1-1.9,1.6-4.1,1.6-6.7c0-2.4-0.4-4.4-1.3-5.9
			S85.2,60,83.8,59z"/>
		<polygon class="st0" points="95.8,82.9 126.8,82.9 126.8,74.5 104.8,74.5 104.8,62.3 122.8,62.3 122.8,53.9 104.8,53.9 
			104.8,43.7 126.8,43.7 126.8,35.3 95.8,35.3 		"/>
		<path class="st0" d="M167.1,59c-1.4-1-2.8-1.7-4.3-2.2c-1.5-0.5-2.9-1-4.1-1.3l-8.3-2.2c-1-0.2-2-0.6-2.9-1
			c-1-0.4-1.8-0.9-2.4-1.6c-0.7-0.7-1-1.5-1-2.5c0-1.1,0.4-2.1,1.2-2.9c0.8-0.8,1.8-1.4,3.1-1.9s2.6-0.6,4-0.6
			c1.4,0.1,2.8,0.4,4.1,0.9c1.3,0.5,2.5,1.4,3.4,2.4c1,1.1,1.6,2.3,1.9,3.9l9.7-1.7c-0.8-3-2-5.5-3.8-7.6c-1.7-2-3.9-3.6-6.5-4.7
			c-2.6-1.1-5.5-1.6-8.8-1.7c-3.2,0-6.2,0.5-8.9,1.5c-2.7,1-4.9,2.6-6.4,4.7c-1.6,2.1-2.4,4.7-2.4,8c0,2.3,0.4,4.1,1.1,5.6
			c0.8,1.5,1.7,2.7,2.9,3.6c1.1,0.9,2.3,1.6,3.5,2.1c1.2,0.5,2.3,0.8,3.2,1.1l12.4,3.7c0.9,0.3,1.7,0.6,2.3,1
			c0.6,0.4,1.1,0.7,1.4,1.1c0.4,0.4,0.5,0.8,0.7,1.3c0.1,0.4,0.2,0.9,0.2,1.4c0,1.3-0.4,2.5-1.3,3.4c-0.9,0.9-2,1.6-3.4,2
			c-1.4,0.5-2.8,0.7-4.3,0.7c-2.6,0-5-0.7-7.1-2.2c-2-1.5-3.4-3.6-4.1-6.3l-9.4,1.4c0.5,3.2,1.6,6,3.4,8.3c1.8,2.3,4.1,4.1,7,5.3
			c2.8,1.3,6,1.9,9.5,1.9c2.4,0,4.7-0.3,7-0.9c2.3-0.6,4.3-1.6,6.1-2.8c1.8-1.3,3.2-2.8,4.3-4.7c1.1-1.9,1.6-4.1,1.6-6.7
			c0-2.4-0.4-4.4-1.3-5.9C169.5,61.3,168.4,60,167.1,59z"/>
		<path class="st0" d="M190.3,35.3l-14.5,47.5h9.2l3-9.9h17.9l3.1,9.9h9.2l-14.5-47.5C203.6,35.3,190.3,35.3,190.3,35.3z
			 M190.5,64.6l6.4-20.8l6.4,20.8H190.5z"/>
		<polygon class="st0" points="247.9,66.9 232.1,35.3 224.1,35.3 224.1,82.9 232.5,82.9 232.5,54.5 246.3,82.9 249.4,82.9 
			263.2,54.5 263.2,82.9 271.6,82.9 271.6,35.3 263.6,35.3 		"/>
		<polygon class="st0" points="311.9,43.7 311.9,35.3 280.9,35.3 280.9,82.9 311.9,82.9 311.9,74.5 289.9,74.5 289.9,62.3 
			307.9,62.3 307.9,53.9 289.9,53.9 289.9,43.7 		"/>
	</g>
	<circle class="st1" cx="337.4" cy="72.4" r="11.5"/>
</g>
</svg>
