<?xml version="1.0" encoding="utf-8"?>
<!-- Generator: Adobe Illustrator 28.0.0, SVG Export Plug-In . SVG Version: 6.00 Build 0)  -->
<svg version="1.1" id="Layer_1" xmlns="http://www.w3.org/2000/svg" xmlns:xlink="http://www.w3.org/1999/xlink" x="0px" y="0px"
	 viewBox="0 0 400 120" style="enable-background:new 0 0 400 120;" xml:space="preserve">
<style type="text/css">
	.st0{fill:#304E5C;}
	.st1{fill:#CC0A60;}
</style>
<g>
	<path class="st0" d="M103.6,88.1V33.7h23c0.6,0,1.3,0,2.2,0.1c0.9,0.1,1.7,0.1,2.4,0.3c3.3,0.5,5.9,1.6,8,3.2
		c2.1,1.7,3.6,3.7,4.6,6.2c1,2.5,1.5,5.3,1.5,8.3c0,3-0.5,5.8-1.5,8.3c-1,2.5-2.5,4.5-4.6,6.2c-2.1,1.7-4.7,2.7-8,3.2
		c-0.7,0.1-1.5,0.2-2.4,0.2c-0.9,0.1-1.6,0.1-2.1,0.1h-12.8v18.4L103.6,88.1L103.6,88.1z M113.9,60.1h12.2c0.6,0,1.1,0,1.7-0.1
		c0.6-0.1,1.2-0.1,1.7-0.3c1.4-0.3,2.4-1,3.2-1.9c0.8-0.9,1.3-1.9,1.6-3c0.3-1.1,0.4-2.2,0.4-3.1c0-1-0.1-2-0.4-3.1
		c-0.3-1.1-0.8-2.1-1.6-3c-0.8-0.9-1.8-1.5-3.2-1.9c-0.6-0.1-1.1-0.3-1.7-0.3c-0.6-0.1-1.2-0.1-1.7-0.1h-12.2V60.1L113.9,60.1z"/>
	<path class="st0" d="M152.8,88.1V33.7h9.2l18,36.2l18-36.2h9.2v54.5h-9.6V55.6l-15.8,32.5h-3.6l-15.9-32.5v32.5H152.8z"/>
	<path class="st0" d="M238.4,88.1c-4,0-7.6-0.7-10.9-2.2c-3.3-1.4-5.9-3.5-8-6.1s-3.4-5.8-4-9.5l10.7-1.6c0.8,3.1,2.3,5.6,4.7,7.2
		c2.4,1.7,5.1,2.5,8.1,2.5c1.7,0,3.3-0.3,4.9-0.8c1.6-0.5,2.9-1.3,3.9-2.4c1-1,1.5-2.3,1.5-3.8c0-0.6-0.1-1.1-0.3-1.6
		c-0.1-0.5-0.4-1-0.8-1.5c-0.3-0.5-0.9-0.9-1.6-1.3c-0.7-0.4-1.6-0.8-2.6-1.1l-14.1-4.2c-1-0.3-2.3-0.7-3.7-1.3
		c-1.4-0.6-2.8-1.3-4-2.4c-1.3-1-2.4-2.4-3.3-4.1s-1.3-3.8-1.3-6.5c0-3.7,0.9-6.7,2.8-9.1c1.8-2.4,4.3-4.2,7.4-5.4s6.5-1.7,10.2-1.7
		c3.8,0.1,7.1,0.7,10.1,1.9c2.9,1.3,5.4,3.1,7.4,5.4c2,2.4,3.4,5.2,4.3,8.6l-11.1,1.9c-0.4-1.7-1.1-3.3-2.2-4.5
		c-1.1-1.2-2.4-2.2-3.9-2.8c-1.5-0.6-3.1-1-4.7-1c-1.6-0.1-3.1,0.1-4.6,0.7c-1.5,0.5-2.6,1.2-3.5,2.2c-0.9,0.9-1.3,2-1.3,3.3
		c0,1.2,0.3,2.2,1.1,2.9c0.7,0.8,1.7,1.3,2.8,1.8c1.1,0.5,2.2,0.8,3.4,1.1l9.5,2.6c1.4,0.3,3,0.9,4.7,1.5c1.7,0.6,3.3,1.5,4.9,2.6
		c1.6,1.1,2.9,2.6,3.9,4.3c1,1.8,1.5,4,1.5,6.8c0,2.9-0.6,5.5-1.8,7.6c-1.3,2.2-2.9,4-4.9,5.4c-2.1,1.4-4.4,2.5-7,3.2
		C243.9,87.7,241.2,88.1,238.4,88.1L238.4,88.1z"/>
	<circle class="st1" cx="288.8" cy="74.9" r="13.2"/>
</g>
</svg>
