<?xml version="1.0" encoding="utf-8"?>
<!-- Generator: Adobe Illustrator 28.0.0, SVG Export Plug-In . SVG Version: 6.00 Build 0)  -->
<svg version="1.1" id="Layer_1" xmlns="http://www.w3.org/2000/svg" xmlns:xlink="http://www.w3.org/1999/xlink" x="0px" y="0px"
	 viewBox="0 0 400 120" style="enable-background:new 0 0 400 120;" xml:space="preserve">
<style type="text/css">
	.st0{fill:#EF8540;}
</style>
<g>
	<path d="M116.1,35.5c-0.1-0.1-0.1,0-0.2,0c-0.8,1.7-1.4,3.5-2,5.2c-0.3,0.8-0.7,1.6-1,2.3c-0.7,2.1-1.3,3.7-2.3,6.1
		c-0.5,1.3-0.9,2.6-1.4,3.8c-0.9,2.1-1.6,4.1-2.5,6.3c-0.6,1.4-1,2.9-1.6,4.2c-0.7,1.6-1.3,3.2-1.8,4.9c-0.2,0.7-0.6,1.2-0.8,1.9
		c-0.8,2.5-1.9,4.8-2.8,7.5c-0.5,1.4-1.2,2.8-1.6,4s-0.9,2.5-1.3,3.7c-0.1,0.2-0.3,0.4-0.5,0.4h-9.5c-0.1,0-0.2-0.1-0.2-0.2
		c0,0,0,0,0-0.1c0.8-2.3,1.8-4.6,2.7-6.9c0.3-0.8,0.6-1.6,1-2.5c0.8-1.8,1.4-3.7,2.2-5.6c0.7-1.5,1.2-3,1.8-4.5c0.4-1,0.8-2,1.3-3.1
		c0.5-1.4,1.2-2.8,1.7-4.2c0.8-2.2,1.7-4.2,2.6-6.6c0.5-1.3,1.1-2.6,1.6-3.8c0.7-2,1.6-4,2.4-6c0.4-1.2,0.9-2.3,1.4-3.4
		c0.5-1.2,0.9-2.4,1.4-3.6c1-2.2,1.7-4.3,2.7-6.6c0.5-1.3,1-2.6,1.5-3.9c0.9-2.1,1.7-4.4,2.6-6.4c0.8-1.9,1.5-3.8,2.3-5.7
		c0.2-0.4,0.3-0.4,0.4,0c0.4,1.6,1.3,3.2,1.8,4.5c0.5,1.2,0.9,2.6,1.4,3.8c0.8,1.6,1.3,3.4,2,5.1c0.4,0.8,0.8,1.8,1.2,3
		c0.5,1.3,1.1,2.6,1.6,4c0.7,1.8,1.5,3.7,2.2,5.3c0.5,1.2,0.9,2.4,1.4,3.6c0.6,1.5,1.2,3,1.8,4.4s1.1,2.8,1.6,4.2
		c0.3,0.9,0.8,1.8,1.1,2.6c0.9,2.6,1.9,4.8,2.8,7.1c0.3,0.8,0.7,1.8,1.2,3c0.6,1.3,1,2.8,1.6,4.1c0.9,2.1,1.6,4.2,2.6,6.5
		c0.6,1.3,1,2.7,1.6,4c0.8,1.7,1.3,3.5,2.1,5.2c0.3,0.7,0.6,1.3,0.8,2c0.1,0.3,0,0.4-0.3,0.4h-9.3c-0.2,0-0.4-0.1-0.4-0.3
		c-0.5-1.8-1.4-3.6-1.9-5.2c-0.4-1.1-0.8-2.2-1.2-3.2c-0.8-2-1.5-4-2.3-5.9c-0.6-1.4-1.1-3-1.5-4.1c-0.6-1.4-1.1-2.6-1.5-3.7
		c-1-2.7-1.9-5-2.9-7.8c-0.2-0.5-0.6-1.2-0.8-1.9c-0.7-2.1-1.6-4.2-2.3-6.1c-0.4-1-0.7-2-1.1-3c-0.6-1.6-1.1-3-1.7-4.5
		C117.3,38.5,116.6,37,116.1,35.5C116.2,35.6,116.1,35.6,116.1,35.5z"/>
	<path d="M151,14.2h7.8c0.1,0,0.2,0.1,0.2,0.2v71.2c0,0.1-0.1,0.2-0.2,0.2H151c-0.1,0-0.2-0.1-0.2-0.2V14.5
		C150.8,14.4,150.9,14.2,151,14.2z"/>
	<path d="M171.8,43V27.1c0-0.1,0.1-0.2,0.2-0.2l0,0h7.9c0.1,0,0.2,0.1,0.2,0.2l0,0V43c0,0.1,0.1,0.2,0.2,0.2l0,0h7.7
		c0.1,0,0.2,0.1,0.2,0.2l0,0v7.3c0,0.1-0.1,0.2-0.2,0.2h-7.7c-0.1,0-0.2,0.1-0.2,0.2l0,0v34.7c0,0.1-0.1,0.2-0.2,0.2l0,0H172
		c-0.1,0-0.2-0.1-0.2-0.2l0,0V51.1c0-0.1-0.1-0.2-0.2-0.2l0,0h-8c-0.1,0-0.2-0.1-0.2-0.2l0,0v-7.3c0-0.1,0.1-0.2,0.2-0.2l0,0h8
		C171.8,43.2,171.8,43.1,171.8,43L171.8,43z"/>
	<path d="M302.7,79.4C302.6,79.4,302.6,79.5,302.7,79.4c-1.4,1.9-2.9,3.5-4.7,4.7c-0.7,0.5-1.4,1.1-2.2,1.4
		c-2.6,1.2-5.3,1.8-8.1,1.7c-3.1-0.1-6-0.8-8.6-2.1c-2.3-1.2-4.3-2.9-6.1-5.2c-0.4-0.5-0.9-1.2-1.3-2c-0.5-0.9-1.1-1.8-1.5-2.8
		c-0.7-2-1.2-3.3-1.4-3.9c-1.8-6.9-0.8-14.9,3.3-20.9c2.2-3.2,5-5.4,8.6-7c3.8-1.7,9.5-2,13.3-0.5c0.4,0.1,1.1,0.5,2.2,1.1
		c2.8,1.5,4.8,3.6,6.6,6.1c0.1,0.1,0.2,0.1,0.3,0.1l0,0c0,0,0.1-0.1,0.1-0.2c0-2.2,0-4.4,0-6.7c0-0.1,0-0.1,0.1-0.1h7.9
		c0.1,0,0.2,0.1,0.2,0.2v42.3c0,0.1-0.1,0.2-0.2,0.2h-7.8c-0.1,0-0.2-0.1-0.2-0.2l0,0c0-2,0-4,0-6C303,79.4,302.9,79.3,302.7,79.4z
		 M277.6,57.4c-0.4,0.8-0.8,1.7-1,2.6c-1.3,5.7-0.2,11.9,3.8,16.3c1.4,1.5,3.8,3,5.8,3.4c2.1,0.4,4.3,0.4,6.5,0
		c3.7-0.6,7.1-3.4,8.7-6.7c0.9-1.9,1.7-3.7,1.9-6.3c0.1-1.7,0.1-3.4-0.1-5.1c-0.2-1.6-0.5-2.7-0.8-3.5c-0.5-1.1-1-2.3-1.7-3.2
		c-2.1-3.1-5-4.8-8.7-5.6c-3.9-0.8-8.6,0.6-11.4,3.4C279.4,54.1,278.4,55.5,277.6,57.4z"/>
	<path d="M248.1,50.1c0.1,0,0.2,0,0.3-0.2c0.5-1.4,1-2.3,1.5-2.9c0.7-0.8,1.4-1.7,2.2-2.4c2.5-2.1,5.5-3,8.9-2.7
		c2,0.2,3.8,0.8,5.4,2c0.1,0.1,0.2,0.3,0.1,0.4l-3.4,6.9c-0.1,0.1-0.2,0.2-0.4,0.1l0,0c-0.8-0.6-1.6-1.1-2.6-1.2
		c-3.3-0.5-6.6-0.2-8.9,2.4c-2.2,2.5-2.4,5.3-3,8.5c-0.1,0.5-0.1,1.7-0.1,3.7c0,7,0,14,0,21c0,0.1-0.1,0.2-0.2,0.2h-7.8
		c-0.2,0-0.3-0.1-0.3-0.3V43.3c0-0.1,0.1-0.1,0.1-0.1l0,0h8c0.1,0,0.1,0.1,0.1,0.1l0,0v6.6C247.9,50,247.9,50.1,248.1,50.1z"/>
	<path d="M218.4,75.2c0.4-0.9,0.9-2,1.1-3.1c0.3-1.6,0.5-3.2,0.5-4.5c0-8,0-16.1,0-24.1c0-0.2,0.1-0.3,0.3-0.3h7.7
		c0.1,0,0.2,0.1,0.2,0.2l0,0c0,8.4,0,16.8,0,25.2c0,2.5-0.4,4.9-1.1,7.2c-0.4,1.2-0.9,2.7-1.5,3.7c-0.7,1-1.4,2.2-2.2,3
		c-1.9,1.9-4.2,3.3-7.1,4c-4.7,1.2-9.3,1.1-13.8-0.5c-1.9-0.6-3.9-1.8-5.3-3.3c-0.5-0.6-1.1-1.1-1.5-1.7c-1.1-1.6-1.8-2.9-2.2-4.1
		c-1.2-3.3-1.4-7-1.4-10.9c0-7.5,0-15.1,0-22.7c0-0.2,0.1-0.2,0.2-0.2h7.7c0.1,0,0.2,0.1,0.2,0.2l0,0c0,7.2,0,14.4,0,21.6
		c0,2.1,0.2,4.2,0.5,6.5c0.5,3.3,1.9,5.7,4.9,7.3c2.3,1.2,5.8,1,8.1,0.3C215.6,78.7,217.6,76.9,218.4,75.2z"/>
	<path d="M233.9,89.9h0.5c0.6,0,1,0.4,1,1v0.4c0,0.6-0.4,1-1,1h-0.5c-0.6,0-1-0.4-1-1v-0.4C232.9,90.4,233.4,89.9,233.9,89.9z"/>
	<path d="M88.4,96.3v6.5c0,0.1-0.1,0.2-0.2,0.2h-1.6c-0.1,0-0.2-0.1-0.2-0.2V91.4c0-0.1,0-0.1,0.1-0.1c0.5-0.2,1.2,0.9,1.5,1.3
		c1.3,1.7,2.5,3.4,3.8,5.1c0,0,0,0,0.1,0l0,0c0.9-1,1.7-2.2,2.5-3.2c0.8-0.9,1.4-2,2.2-2.9c0.1-0.2,0.3-0.3,0.4-0.3
		c0.2,0,0.4,0.1,0.4,0.3v0.1v11.2c0,0.2-0.1,0.2-0.2,0.2h-1.5c-0.2,0-0.3-0.1-0.3-0.3c0-1.9,0-3.9,0-5.9c0-0.3,0-0.5,0-0.6
		c0-0.2-0.1-0.2-0.2-0.1c-0.8,1.1-1.6,2.2-2.4,3.3c-0.2,0.3-0.5,0.6-0.7,0.7s-0.4,0-0.6-0.1c-0.4-0.5-0.7-1-1-1.4
		c-0.6-0.7-1.2-1.5-1.8-2.4C88.6,95.8,88.4,95.8,88.4,96.3z"/>
	<path d="M220.6,98.4v4.4c0,0.1-0.1,0.2-0.2,0.2l0,0h-1.5c-0.1,0-0.2-0.1-0.2-0.2l0,0V91.6c0-0.1,0.1-0.2,0.2-0.2h7.1
		c0.1,0,0.2,0.1,0.2,0.2v1.2c0,0.1-0.1,0.2-0.2,0.2l0,0h-5.3c-0.1,0-0.2,0.1-0.2,0.2l0,0v3.1c0,0.1,0.1,0.2,0.2,0.2h4.2
		c0.1,0,0.2,0.1,0.2,0.2l0,0L225,98c0,0.1-0.1,0.2-0.2,0.2h-4.2C220.7,98.2,220.6,98.3,220.6,98.4L220.6,98.4z"/>
	<path d="M135.9,95.9c-0.1,0-0.2,0.1-0.2,0.2l0,0c0,1.3,0,2.6,0,3.9c0,1.7,1.6,1.4,2.8,1.4c0.1,0,0.1,0,0.2,0.1
		c0.1,0.5,0.1,0.9,0,1.4c0,0.1-0.1,0.1-0.2,0.1c-1.6,0.3-3.4,0.3-4.3-1.3c-0.8-1.5-0.1-4-0.6-5.6c0-0.1-0.1-0.1-0.2-0.2l-0.5-0.3
		c-0.1,0-0.1-0.1-0.2-0.2c-0.1-0.3-0.1-0.6,0-0.8c0-0.1,0.1-0.1,0.2-0.1l0.6-0.3c0.1,0,0.1-0.1,0.1-0.2l0.1-1.4
		c0-0.4,0.2-0.6,0.6-0.6h0.7c0.4,0,0.5,0.2,0.5,0.5v1.6c0,0.1,0.1,0.2,0.2,0.2h2.1c0.2,0,0.3,0.1,0.4,0.3v0.8c0,0.2-0.1,0.4-0.4,0.4
		L135.9,95.9z"/>
	<path d="M194.8,99.2c-0.1,0-0.3,0.1-0.3,0.3v0.1c0.7,2.2,3,2.3,4.8,1.3c0.3-0.2,0.6-0.2,0.9,0.1l0.3,0.3c0.3,0.3,0.3,0.6-0.1,0.8
		c-3.4,2.3-8.1,0.6-7.8-3.9c0.2-3,3.4-4.9,6.1-3.7c1.8,0.8,2.6,2.7,2.2,4.6c0,0.1-0.1,0.1-0.2,0.1L194.8,99.2z M194.7,97.9l4.6-0.1
		l0,0l0,0l0,0c0-1.1-1.1-2.1-2.3-2l0,0h-0.1C195.6,95.8,194.6,96.7,194.7,97.9L194.7,97.9C194.6,97.9,194.6,97.9,194.7,97.9z"/>
	<path d="M114.2,98.7c0,2.5-2.1,4.5-4.7,4.4l0,0c-2.5,0-4.6-2.1-4.5-4.6c0-2.5,2.1-4.5,4.7-4.4l0,0
		C112.2,94.2,114.2,96.2,114.2,98.7z M109.5,101.4c1.5,0.1,2.8-1.2,2.8-2.7c0.1-1.5-1.1-2.8-2.6-2.9s-2.8,1.2-2.8,2.7
		C106.8,100.1,108,101.4,109.5,101.4z"/>
	<path d="M152.1,101.8L152.1,101.8c-2.1,1.6-5.1,1.2-6.4-0.9c-2.2-3.6,1-8.1,5.2-6.5c0.5,0.2,0.8,0.5,1.2,0.8c0.1,0,0.1,0,0.2,0
		v-0.1v-0.4c0-0.2,0.1-0.4,0.3-0.4l1-0.1c0.2,0,0.3,0.1,0.4,0.3l0,0c0,2.6,0,5.2,0,7.8c0,3.2-3.2,4.5-5.9,3.8
		c-0.8-0.2-1.5-0.8-2.3-1.2c-0.3-0.2-0.3-0.4-0.1-0.6l0.5-0.6c0.2-0.3,0.4-0.3,0.7-0.1c1,0.9,2.3,1.2,3.7,0.8
		C151.8,104.3,152.3,102.8,152.1,101.8z M152.1,98.1c0-1.2-1-2.3-2.2-2.3h-0.6c-1.2,0-2.3,1-2.3,2.2l0,0v0.7c0,1.2,1,2.3,2.2,2.3
		h0.6c1.2,0,2.3-1,2.3-2.2l0,0V98.1z"/>
	<path d="M166.9,102.3c-0.4,0.2-0.7,0.5-1.1,0.6c-1.2,0.4-2.3,0.4-3.3-0.1c-1.4-0.7-1.5-3.1-0.2-4c1.2-0.8,3-0.5,4.4-0.6
		c0.2,0,0.3-0.1,0.3-0.3c0.1-1-0.3-1.9-1.4-2.1c-1-0.2-1.7,0.3-2.5,0.9c-0.4,0.3-0.8-0.1-1.1-0.4c-0.5-0.6,0.2-1.2,0.7-1.5
		c1.6-1,4.1-1.2,5.4,0.4c0.5,0.6,0.7,1.3,0.7,2.2c0,1.8,0,3.5,0,5.3c0,0.1,0,0.1-0.1,0.1c-0.4,0.1-0.8,0.1-1.2,0
		c-0.1,0-0.2-0.1-0.2-0.1c-0.1-0.1-0.1-0.3-0.2-0.5C167.1,102.2,167,102.2,166.9,102.3z M163.5,101.1c1,1.5,3,0.3,3.4-1
		c0.1-0.2,0-0.4-0.2-0.4h-0.1C165.9,99.6,162.3,99.3,163.5,101.1z"/>
	<path d="M183.3,101.9C183.3,101.9,183.2,101.8,183.3,101.9c-0.1-0.1-0.1-0.1-0.1-0.1c-0.5,0.5-1.1,0.7-1.8,0.8
		c-3,0.4-5.3-1.4-5.1-4.5s3.1-4.9,6-3.7c0.4,0.2,0.7,0.4,0.9,0.7c0.1,0.1,0.2,0.1,0.2,0c0,0,0,0,0-0.1l0.1-0.6
		c0-0.1,0.1-0.1,0.2-0.1h1.3c0.1,0,0.2,0.1,0.2,0.2c0,2.7,0,5.4,0,8.1c0,0.8-0.4,1.8-0.9,2.4c-1.4,1.6-3.7,1.8-5.5,1
		c-0.5-0.2-1.1-0.6-1.6-0.9c-0.3-0.2-0.4-0.4-0.2-0.7l0.4-0.6c0.2-0.3,0.4-0.4,0.7-0.2c1.4,1,2.7,1.3,3.9,0.9
		C182.9,104.2,183.4,103,183.3,101.9z M183.3,98.2c0-1.3-1-2.3-2.3-2.3l0,0h-0.5c-1.3,0-2.3,1-2.3,2.3l0,0v0.7c0,1.3,1,2.3,2.3,2.3
		l0,0h0.5c1.3,0,2.3-1,2.3-2.3l0,0V98.2z"/>
	<path d="M244.9,94.8c0,0.1,0.1,0.1,0.2,0.1l0,0c1.8-1.4,4.4-0.8,5.2,1.2c0.2,0.5,0.3,1.2,0.3,2.2c0,1.5,0,3,0,4.4
		c0,0.2-0.1,0.3-0.3,0.3l0,0h-1.4c-0.2,0-0.3-0.1-0.3-0.3c0-2.3,0-4,0-5.3c0-2-3.9-2.2-3.9,0.4c0,1.6,0,3.2,0.1,4.8
		c0,0.2-0.1,0.4-0.3,0.4l0,0h-1.2c-0.2,0-0.4-0.1-0.4-0.3v-8.2c0-0.1,0-0.1,0.1-0.1C243.7,94.3,244.6,94.2,244.9,94.8z"/>
	<path d="M263.5,102.5c0-0.1-0.1-0.1-0.2-0.1l0,0c-1.3,0.9-3.3,1.1-4.7,0.1c-0.8-0.6-1.1-1.7-0.7-2.6c0.8-2,3.7-1.7,5.3-1.6
		c0.1,0,0.2-0.1,0.2-0.2c0.1-1.4-0.5-2.3-1.9-2.2c-1,0.1-1.4,0.4-2.1,1c-0.1,0-0.1,0.1-0.2,0c-0.4-0.1-0.7-0.4-0.9-0.7
		c-0.1-0.2-0.1-0.4,0-0.6c1.5-1.6,4-2.1,5.7-0.8c0.8,0.6,1.2,1.4,1.2,2.5c0,1.8,0,3.6,0,5.4c0,0.1-0.1,0.2-0.2,0.2
		C264.6,103,263.7,103.1,263.5,102.5z M262.1,101.5c0.8-0.4,1.4-0.9,1.3-1.7c0-0.1-0.1-0.2-0.2-0.2c-0.9-0.1-1.8-0.1-2.7,0.1
		C258.7,100,260.1,102.5,262.1,101.5z"/>
	<path d="M275,94.8c0.1,0.1,0.2,0.1,0.3,0c1.6-1.2,4.3-1,5.1,1c0.2,0.4,0.3,1.2,0.3,2.4c0,1.5,0,3,0,4.5c0,0.1-0.1,0.2-0.2,0.2l0,0
		h-1.4c-0.2,0-0.3-0.1-0.3-0.3c0-2.3,0-3.8,0-4.5c0-0.8-0.1-1.5-0.7-2c-1-0.7-2.5-0.2-3,0.9c-0.1,0.3-0.2,0.7-0.2,1.4
		c0,1.4,0,2.8,0,4.2c0,0.2-0.1,0.3-0.3,0.3h-1.2c-0.2,0-0.3-0.1-0.3-0.3v-8.1c0-0.1,0-0.2,0.1-0.2C274,94.2,274.5,94.3,275,94.8z"/>
	<path d="M290.1,99.1c0.3,2.6,3.2,2.9,4.8,1.3c0.1-0.1,0.4-0.2,0.5,0l0.7,0.6c0.2,0.2,0.2,0.3,0,0.5c-1,1.3-2.4,1.9-4.2,1.6
		c-4.9-0.7-5.2-7.8-0.4-8.9c1.9-0.4,3.4,0.1,4.6,1.6c0.1,0.1,0.1,0.3,0,0.4l0,0l-0.8,0.6c-0.2,0.1-0.4,0.1-0.6,0
		C292.7,94.8,289.7,96.1,290.1,99.1z"/>
	<path d="M304.8,99.4c0.2,2.4,3.2,2.5,4.8,1.5c0.4-0.2,0.7-0.2,0.9,0.2l0.2,0.3c0.2,0.3,0.2,0.6-0.2,0.9c-3.4,2.3-8.3,0.3-7.7-4.2
		c0.4-2.9,3.4-4.7,6.1-3.5c1.8,0.8,2.5,2.3,2.2,4.5c0,0.1-0.1,0.2-0.2,0.2L304.8,99.4C304.9,99.2,304.8,99.3,304.8,99.4z
		 M304.9,97.9h4.6l0,0l0,0l0,0c0-1.1-1-2.1-2.3-2h-0.1C305.9,95.8,304.9,96.7,304.9,97.9C304.9,97.8,304.9,97.8,304.9,97.9
		L304.9,97.9L304.9,97.9z"/>
	<path d="M123.3,95.1C123.3,95.2,123.4,95.2,123.3,95.1c0.1,0.1,0.1,0.1,0.2,0.1c0.8-0.7,1.7-1.1,2.8-1c0.2,0,0.3,0.1,0.3,0.3v1.2
		c0,0.2-0.1,0.3-0.3,0.3c-1.2,0-2.2,0.2-2.7,1.3c-0.2,0.4-0.3,1.1-0.3,2c0,1.1,0,2.2,0,3.3c0,0.2-0.1,0.3-0.3,0.3h-1.2
		c-0.2,0-0.3-0.1-0.3-0.3v-8.2c0-0.1,0.1-0.2,0.2-0.2h1.2c0.2,0,0.3,0.1,0.3,0.3L123.3,95.1z"/>
	<path d="M233.5,94.3h1.3c0.2,0,0.3,0.1,0.3,0.3v8.1c0,0.2-0.1,0.3-0.3,0.3h-1.3c-0.2,0-0.3-0.1-0.3-0.3v-8.1
		C233.2,94.4,233.3,94.3,233.5,94.3z"/>
</g>
<circle class="st0" cx="115.9" cy="64.8" r="8.9"/>
</svg>
