<?xml version="1.0" encoding="utf-8"?>
<!-- Generator: Adobe Illustrator 28.0.0, SVG Export Plug-In . SVG Version: 6.00 Build 0)  -->
<svg version="1.1" id="Layer_1" xmlns="http://www.w3.org/2000/svg" xmlns:xlink="http://www.w3.org/1999/xlink" x="0px" y="0px"
	 viewBox="0 0 400 120" style="enable-background:new 0 0 400 120;" xml:space="preserve">
<style type="text/css">
	.st0{fill:#A8A8A8;}
	.st1{fill:#003DA5;}
</style>
<g>
	<path class="st0" d="M137.9,97.5h0.6c0,0.2,0,0.3,0,0.4c-0.2,1.5-0.7,2.9-1.5,4.2c-1,1.7-2.4,3.1-4,4.1c-1.1,0.7-2.3,1.3-3.7,1.6
		c-1,0.3-2,0.4-3,0.5c-1.3,0.1-2.6-0.1-3.9-0.3c-1.6-0.3-3.2-0.8-4.7-1.7c-1.7-1-3.2-2.2-4.4-3.7c-0.9-1.2-1.6-2.4-2.1-3.8
		c-0.5-1.3-0.7-2.6-0.8-3.9c-0.1-1.2,0-2.2,0.1-3.3c0.2-1.7,0.6-3.4,1.2-5c0.5-1.4,1.2-2.7,2.1-4c1-1.4,2.2-2.8,3.6-3.9
		c1.2-0.9,2.4-1.7,3.8-2.3c1.6-0.7,3.3-1.1,5-1.1c1.2-0.1,2.3,0.1,3.4,0.2c1.2,0.2,2.4,0.5,3.6,1.1c0.9,0.4,1.7,1,2.4,1.6
		c1.3,1.1,2.2,2.4,2.8,4c0.4,1,0.6,2.1,0.6,3.2c-0.1,1.3-0.5,2.5-1.2,3.6c-0.4,0.5-0.7,1.1-1.3,1.4c-1,0.6-2.2,0.5-3-0.3
		c-0.6-0.7-0.8-1.6-0.4-2.5c0.3-0.8,1-1.3,1.9-1.4c1.1-0.2,1.9-0.9,2-2c0.2-1.3,0-2.4-0.5-3.6c-0.6-1.3-1.5-2.3-2.8-3
		c-1.1-0.6-2.2-1-3.4-1.2c-0.8-0.2-1.6-0.2-2.4-0.3c-0.5-0.1-1-0.1-1.5-0.1c-1.1,0-2.2,0.2-3.3,0.6c-0.9,0.3-1.7,0.8-2.4,1.4
		c-0.8,0.7-1.5,1.5-2.2,2.5c-0.6,1-1,1.9-1.3,3c-0.2,0.8-0.4,1.6-0.6,2.5c-0.2,1.1-0.2,2.3-0.2,3.4c0,1.1,0,2.2,0,3.3
		c0,1.2,0,2.4,0.1,3.7c0.1,1.2,0.1,2.3,0.3,3.5c0.2,1.3,0.5,2.5,1.1,3.6c1,1.8,2.4,3,4.4,3.5c1.5,0.4,3.1,0.5,4.8,0.4
		c1.7-0.2,3.4-0.6,5-1.5c1.6-1,3-2.2,4-3.8c0.6-1,1.2-2.1,1.4-3.2c0.1-0.4,0.2-0.9,0.3-1.3C137.8,97.6,137.8,97.6,137.9,97.5"/>
	<path class="st0" d="M130.6,82.6c0-1.3,1.1-2.2,2.2-2.2c1.4,0,2.3,1.1,2.3,2.3c0,1.3-1.1,2.3-2.3,2.2
		C131.5,84.8,130.5,83.8,130.6,82.6"/>
	<g>
		<path class="st1" d="M137.9,24.1h0.6c0,0.2,0,0.3,0,0.4c-0.2,1.5-0.7,2.9-1.5,4.2c-1,1.7-2.4,3.1-4,4.1c-1.1,0.7-2.3,1.3-3.7,1.6
			c-1,0.3-2,0.4-3,0.5c-1.3,0.1-2.6-0.1-3.9-0.3c-1.6-0.3-3.2-0.8-4.7-1.7c-1.7-1-3.2-2.2-4.4-3.7c-0.9-1.2-1.6-2.4-2.1-3.8
			c-0.5-1.3-0.7-2.6-0.8-3.9c-0.1-1.1-0.1-2.2,0.1-3.2c0.2-1.7,0.6-3.4,1.2-5c0.5-1.4,1.2-2.7,2.1-4c1-1.4,2.2-2.8,3.6-3.9
			c1.2-0.9,2.4-1.7,3.8-2.3c1.6-0.7,3.3-1.1,5-1.1c1.2-0.1,2.3,0.1,3.4,0.2c1.2,0.2,2.4,0.5,3.6,1.1c0.9,0.4,1.7,1,2.4,1.6
			c1.3,1.1,2.2,2.4,2.8,4c0.4,1,0.6,2.1,0.6,3.2c-0.1,1.3-0.5,2.5-1.2,3.6c-0.4,0.5-0.7,1.1-1.3,1.4c-1,0.6-2.2,0.5-3-0.3
			c-0.6-0.7-0.8-1.6-0.4-2.5c0.3-0.8,1-1.3,1.9-1.4c1.1-0.2,1.9-0.9,2-2c0.2-1.3,0-2.4-0.5-3.6c-0.6-1.3-1.5-2.3-2.8-3
			c-1.1-0.6-2.2-1-3.4-1.2c-0.8-0.2-1.6-0.2-2.4-0.3c-0.4-0.2-1-0.2-1.4-0.2c-1.1,0-2.2,0.2-3.3,0.6c-0.9,0.3-1.7,0.8-2.4,1.4
			c-0.8,0.7-1.5,1.5-2.2,2.5c-0.6,1-1,1.9-1.3,3c-0.2,0.8-0.4,1.6-0.6,2.5c-0.2,1.1-0.2,2.3-0.2,3.4s0,2.2,0,3.3
			c0,1.2,0,2.4,0.1,3.7c0.1,1.2,0.1,2.3,0.3,3.5c0.2,1.3,0.5,2.5,1.1,3.6c1,1.8,2.4,3,4.4,3.5c1.5,0.4,3.1,0.5,4.8,0.4
			c1.7-0.2,3.4-0.6,5-1.5c1.6-1,3-2.2,4-3.8c0.6-1,1.2-2.1,1.4-3.2c0.1-0.4,0.2-0.9,0.3-1.3C137.8,24.2,137.8,24.1,137.9,24.1"/>
		<path class="st1" d="M130.6,9.2c0-1.3,1.1-2.2,2.2-2.2c1.4,0,2.3,1.1,2.3,2.3c0,1.3-1.1,2.3-2.3,2.2
			C131.5,11.4,130.5,10.4,130.6,9.2"/>
		<path class="st1" d="M150.9,24.6c-0.5-0.1-0.9-0.1-1.3-0.1c-4,0-5.9,1.5-5.9,4.8c0,2.4,1.1,3.8,3,3.8c1.6,0,3.3-1,4.1-2.7V24.6z
			 M154.5,33.9c-1.8,0-3.1-1-3.4-2.7c-1.1,1.9-3.1,2.9-6.1,2.9c-2.9,0-5-1.9-5-4.3c0-3.6,3.7-5.8,10.7-5.8h0.2v-4.3
			c0-2.1-0.9-3.1-3.3-3.1c-2.3,0-3.7,1.5-3.7,2.1c0,0.4,1.2,0.7,1.2,1.9c0,1.3-0.7,2-1.9,2c-1.2,0-2-0.8-2-2c0-2.4,2.5-4.6,6.4-4.6
			c1.9,0,3.4,0.5,4.8,1.5c1.6,1.2,1.7,2.2,1.7,4.1v8.7c0,1.9,0.4,2.7,1.3,2.7c0.8,0,1.4-0.6,2.2-1.6l0.5,0.4
			C157,33.1,156,33.9,154.5,33.9"/>
		<path class="st1" d="M163.9,29.1c1.2,2.9,3.1,4.3,5.6,4.3c3,0,4-2,4-6v-5c0-3.9-1.4-5.8-4.1-5.8c-2.3,0-4.4,1.7-5.5,4.8
			C163.9,21.3,163.9,29.1,163.9,29.1z M166.4,43.3v0.6h-8.5v-0.6h2.5V16.9h-2.5v-0.6h2.1c1.8,0,3.1-0.2,4-0.5v4c1.2-2.6,3.3-4,5.7-4
			c4,0,7.8,3.9,7.8,9.1c0,5.5-3.4,9.1-8.2,9.1c-2.2,0-4-1.1-5.4-3.3v12.6L166.4,43.3L166.4,43.3z"/>
		<path class="st1" d="M178.6,32.9h2.4v-16h-2.4v-0.6h2.1c1.8,0,3.1-0.2,4-0.5v4.5c1.2-3,2.7-4.5,4.8-4.5c1.7,0,2.8,1,2.8,2.2
			c0,1.3-0.7,2.1-1.7,2.1c-1,0-2-0.8-2-1.8c0-0.6,0.3-1.1,0.8-1.7c-0.2-0.1-0.3-0.1-0.5-0.1c-1.5,0-3.3,2.2-4.1,6.2v10.1h2.4v0.6
			h-8.4V32.9z"/>
		<path class="st1" d="M193.4,16.9v-0.6h2.1c1.8,0,3.1-0.2,4-0.5v17.1h2.4v0.6h-8.4v-0.6h2.4V16.9H193.4z"/>
		<path class="st1" d="M211.4,34c-5,0-8.4-3.5-8.4-8.6c0-5.5,4-9.6,8.9-9.6c3.2,0,5.6,1.8,5.6,3.9c0,1-1,2-2.1,2s-1.9-0.9-1.9-2
			c0-1.3,1.2-2,1.2-2.2c0-0.4-1.1-1.2-2.8-1.2c-1.6,0-3,0.6-3.8,1.5c-1.3,1.4-1.3,3.2-1.3,5.7v1.3v1.4c0,2.3,0.1,4,1.2,5.5
			c0.8,1.1,2,1.5,3.6,1.5c3.2,0,5.2-1.9,5.6-5.5h0.6C217.4,31.7,214.9,34,211.4,34"/>
		<path class="st1" d="M227.8,33.4c3.1,0,4.5-1.9,4.5-5.9v-5.2c0-4-1.4-5.9-4.5-5.9s-4.5,1.9-4.5,5.9v5.2
			C223.3,31.5,224.7,33.4,227.8,33.4 M222,18.5c1.6-1.7,3.6-2.6,5.8-2.6c4.5,0,8.4,4.2,8.4,9.1c0,2.4-0.9,4.6-2.6,6.5
			c-1.6,1.7-3.5,2.6-5.7,2.6c-2.2,0-4.1-0.8-5.8-2.6c-1.7-1.8-2.6-4.1-2.6-6.5C219.4,22.6,220.3,20.3,222,18.5"/>
		<path class="st1" d="M237.1,32.9h2.4v-16h-2.4v-0.6h2.1c1.8,0,3.1-0.2,4-0.5v4.5c1.2-3,2.7-4.5,4.8-4.5c1.7,0,2.8,1,2.8,2.2
			c0,1.3-0.7,2.1-1.7,2.1s-2-0.8-2-1.8c0-0.6,0.3-1.1,0.8-1.7c-0.2-0.1-0.3-0.1-0.5-0.1c-1.5,0-3.3,2.2-4.1,6.2v10.1h2.4v0.6h-8.4
			L237.1,32.9L237.1,32.9z"/>
		<path class="st1" d="M252,32.9h2.4v-16H252v-0.6h2.1c1.8,0,3.1-0.2,4-0.5v3.9c1.6-2.6,3.5-3.8,6.1-3.8c3.3,0,5.5,2,5.5,5.4v11.6
			h2.5v0.6h-8.5v-0.6h2.4V20c0-2.3-0.4-3.3-2.4-3.3c-2.2,0-4,1.4-5.6,4.2v12.1h2.4v0.6H252L252,32.9L252,32.9z"/>
	</g>
	<path class="st0" d="M134,69.9h2.4V54H134v-0.6h2.1c1.8,0,3.1-0.2,4-0.5v3.8c1.6-2.6,3.5-3.8,6.1-3.8c3.3,0,5.5,2,5.5,5.4v11.6h2.5
		v0.6h-8.5v-0.6h2.4V57c0-2.3-0.4-3.3-2.4-3.3c-2.2,0-4,1.4-5.6,4.2v12h2.4v0.6H134V69.9z"/>
	<path class="st0" d="M165.6,61.6c-0.5-0.1-0.9-0.1-1.3-0.1c-4,0-5.9,1.5-5.9,4.8c0,2.4,1.1,3.8,3,3.8c1.6,0,3.3-1,4.1-2.7V61.6z
		 M169.3,70.9c-1.8,0-3.1-1-3.4-2.7c-1.1,1.9-3.1,2.9-6.1,2.9c-2.9,0-5-1.9-5-4.3c0-3.6,3.7-5.8,10.7-5.8h0.2v-4.3
		c0-2.1-0.9-3.1-3.3-3.1c-2.3,0-3.7,1.5-3.7,2.1c0,0.3,1.2,0.7,1.2,1.9c0,1.3-0.7,2-1.9,2c-1.2,0-2-0.8-2-2c0-2.4,2.5-4.6,6.4-4.6
		c1.9,0,3.4,0.5,4.8,1.5c1.6,1.2,1.7,2.2,1.7,4.1v8.7c0,1.9,0.4,2.7,1.3,2.7c0.8,0,1.4-0.6,2.2-1.6l0.5,0.4
		C171.8,70.2,170.7,70.9,169.3,70.9"/>
	<path class="st0" d="M173.1,69.9h2.4V54h-2.4v-0.6h2.1c1.8,0,3.1-0.2,4-0.5v3.8c1.6-2.6,3.5-3.8,6.1-3.8c3.3,0,5.5,2,5.5,5.4v11.6
		h2.5v0.6h-8.5v-0.6h2.4V57c0-2.3-0.4-3.3-2.4-3.3c-2.2,0-4,1.4-5.6,4.2v12h2.4v0.6h-8.4L173.1,69.9L173.1,69.9z"/>
	<path class="st0" d="M201.9,71.1c-5,0-8.4-3.5-8.4-8.6c0-5.5,4-9.6,8.9-9.6c3.2,0,5.6,1.8,5.6,3.9c0,1-1,2-2.1,2
		c-1.1,0-1.9-0.9-1.9-2c0-1.3,1.2-2,1.2-2.2c0-0.4-1.1-1.2-2.8-1.2c-1.6,0-3,0.6-3.8,1.5c-1.3,1.4-1.3,3.2-1.3,5.7v1.3v1.4
		c0,2.3,0.1,4,1.2,5.5c0.8,1.1,2,1.5,3.6,1.5c3.2,0,5.2-1.9,5.6-5.5h0.6C207.8,68.7,205.4,71.1,201.9,71.1"/>
	<path class="st0" d="M212.8,41.1c1.1,0,1.9,0.8,1.9,2c0,1.1-0.8,1.9-1.9,1.9c-1.1,0-1.9-0.8-1.9-1.9
		C210.9,42,211.7,41.1,212.8,41.1 M208.5,54v-0.6h2.1c1.8,0,3.1-0.2,4-0.5v17.1h2.4v0.6h-8.4v-0.6h2.4V54C211,54,208.5,54,208.5,54z
		"/>
	<path class="st0" d="M228.6,61.6c-0.5-0.1-0.9-0.1-1.3-0.1c-4,0-5.9,1.5-5.9,4.8c0,2.4,1.1,3.8,3,3.8c1.6,0,3.3-1,4.1-2.7V61.6z
		 M232.2,70.9c-1.8,0-3.1-1-3.4-2.7c-1.1,1.9-3.1,2.9-6.1,2.9c-2.9,0-5-1.9-5-4.3c0-3.6,3.7-5.8,10.7-5.8h0.2v-4.3
		c0-2.1-0.9-3.1-3.3-3.1c-2.3,0-3.7,1.5-3.7,2.1c0,0.3,1.2,0.7,1.2,1.9c0,1.3-0.7,2-1.9,2c-1.2,0-2-0.8-2-2c0-2.4,2.5-4.6,6.4-4.6
		c1.9,0,3.4,0.5,4.8,1.5c1.6,1.2,1.7,2.2,1.7,4.1v8.7c0,1.9,0.4,2.7,1.3,2.7c0.8,0,1.4-0.6,2.2-1.6l0.5,0.4
		C234.7,70.2,233.6,70.9,232.2,70.9"/>
	<path class="st0" d="M236,69.9h2.4V42.6H236V42h2.1c1.5,0,2.7-0.3,4-1v29h2.4v0.6h-8.4L236,69.9L236,69.9z"/>
	<path class="st0" d="M147.7,107.4c3.1,0,4.5-1.9,4.5-5.9v-5.2c0-4-1.4-5.9-4.5-5.9s-4.5,1.9-4.5,5.9v5.2
		C143.1,105.5,144.6,107.4,147.7,107.4 M141.9,92.5c1.6-1.7,3.6-2.6,5.8-2.6c4.5,0,8.4,4.2,8.4,9.1c0,2.4-0.9,4.6-2.6,6.5
		c-1.6,1.7-3.5,2.6-5.7,2.6c-2.2,0-4.1-0.8-5.8-2.6c-1.7-1.8-2.6-4.1-2.6-6.5S140.2,94.3,141.9,92.5"/>
	<path class="st0" d="M156.3,106.9h2.4V91h-2.4v-0.6h2.1c1.8,0,3.1-0.2,4-0.5v3.8c1.6-2.6,3.5-3.8,6.1-3.8c3.3,0,5.5,2,5.5,5.4v11.6
		h2.5v0.6H168v-0.6h2.4V94c0-2.3-0.4-3.3-2.4-3.3c-2.2,0-4,1.4-5.6,4.2v12h2.4v0.6h-8.5V106.9z"/>
	<path class="st0" d="M177.6,101.6h0.4c1.1,3.9,2.6,5.7,5.5,5.7c2.4,0,3.9-1.5,3.9-4c0-2.1-1.5-3.3-4.2-3.3c-3.5,0-5.6-1.9-5.6-4.9
		c0-3,2-5.2,4.8-5.2c2.4,0,3.8,1.1,4.1,1.1c0.4,0,0.5-0.3,0.5-0.7c0-0.1,0-0.3-0.1-0.4h0.7v5h-0.5c-0.6-3-2.2-4.4-4.7-4.4
		c-2.1,0-3.5,1.4-3.5,3.1c0,0.8,0.3,1.5,0.8,2c1.1,1.1,2.9,0.8,4.9,1.2c2.9,0.4,4.6,2.4,4.6,5.2c0,3.7-2.2,6.1-5.5,6.1
		c-3,0-4.3-1.6-4.8-1.6s-0.7,0.3-0.7,1.2h-0.6L177.6,101.6L177.6,101.6z"/>
	<path class="st0" d="M201,91v-0.6h2.1c1.8,0,3.1-0.2,4-0.5v17.1h2.4v0.6h-6v-0.6v-3.2c-1.7,2.6-3.6,3.8-6.1,3.8
		c-3.3,0-5.5-2.1-5.5-5.4V90.9h-2.4v-0.6h2.1c1.8,0,3.1-0.2,4-0.5v13.6c0,2.2,0.6,3.3,2.5,3.3c2,0,3.8-1.4,5.6-4.2V90.9L201,91
		L201,91z"/>
	<path class="st0" d="M210.3,106.9h2.4V79.6h-2.4V79h2.1c1.5,0,2.7-0.3,4-1.1v29h2.4v0.6h-8.4L210.3,106.9L210.3,106.9z"/>
	<path class="st0" d="M226.3,107.1c1.4,0,2.5-0.8,3.1-2.4h0.6c-0.6,2.1-2.2,3.3-4.3,3.3c-1.4,0-2.6-0.5-3.5-1.3
		c-0.8-0.8-1-1.7-1-2.9V103V91h-3v-0.6c3.4,0,5.1-1.7,5.7-5.7h0.5v5.7h4.8V91h-4.8v13.5C224.4,106.3,224.8,107.1,226.3,107.1"/>
	<path class="st0" d="M242,98.5c-0.5-0.1-0.9-0.1-1.3-0.1c-4,0-5.9,1.5-5.9,4.8c0,2.4,1.1,3.8,3,3.8c1.6,0,3.3-1,4.1-2.7V98.5z
		 M245.6,107.9c-1.8,0-3.1-1-3.4-2.7c-1.1,1.9-3.1,2.9-6.1,2.9c-2.9,0-5-1.9-5-4.3c0-3.6,3.7-5.8,10.7-5.8h0.2v-4.3
		c0-2.1-0.9-3.1-3.3-3.1c-2.3,0-3.7,1.5-3.7,2.1c0,0.4,1.2,0.7,1.2,1.9c0,1.3-0.7,2-1.9,2c-1.2,0-2-0.8-2-2c0-2.4,2.5-4.6,6.4-4.6
		c1.9,0,3.4,0.5,4.8,1.5c1.6,1.2,1.7,2.2,1.7,4.1v8.7c0,1.9,0.4,2.7,1.3,2.7c0.8,0,1.4-0.6,2.2-1.6l0.5,0.4
		C248,107.2,247,107.9,245.6,107.9"/>
	<path class="st0" d="M249.4,106.9h2.4V91h-2.4v-0.6h2.1c1.8,0,3.1-0.2,4-0.5v3.8c1.6-2.6,3.5-3.8,6.1-3.8c3.3,0,5.5,2,5.5,5.4v11.6
		h2.5v0.6H261v-0.6h2.4V94c0-2.3-0.4-3.3-2.4-3.3c-2.2,0-4,1.4-5.6,4.2v12h2.4v0.6h-8.4L249.4,106.9L249.4,106.9z"/>
	<path class="st0" d="M278.1,108c-5,0-8.4-3.5-8.4-8.6c0-5.5,4-9.6,8.9-9.6c3.2,0,5.6,1.8,5.6,3.9c0,1-1,2-2.1,2s-1.9-0.9-1.9-2
		c0-1.3,1.2-2,1.2-2.2c0-0.4-1.1-1.2-2.8-1.2c-1.6,0-3,0.6-3.8,1.5c-1.3,1.4-1.3,3.2-1.3,5.7v1.3v1.4c0,2.3,0.1,4,1.2,5.5
		c0.8,1.1,2,1.5,3.6,1.5c3.2,0,5.2-1.9,5.6-5.5h0.6C284,105.7,281.6,108,278.1,108"/>
	<path class="st0" d="M292.9,114.4c-0.8,2.7-1.8,3.8-3.8,3.8c-1.3,0-2.1-1-2.1-2.2c0-1.1,0.8-2,1.9-2s1.8,0.8,1.8,2
		c0,0.1-0.1,0.3-0.1,0.5c0,0.1,0.1,0.1,0.1,0.1c1.1,0,1.9-2.9,3.1-8.5L286.4,91h-1.8v-0.6h8V91h-2.4l5.3,12.7l3.8-10.3
		c0.2-0.6,0.4-1,0.4-1.4c0-1-1.1-1-3.5-1v-0.6h6.8v0.6h-0.2c-1.3,0-2.1,1.1-3,3.4l-3.8,10.2C294.5,108.4,293.8,111.7,292.9,114.4"/>
	<path class="st0" d="M116,54h-3.7v-0.7h3.7v-2.8c0-5.2,3-10.7,9.1-10.7c2.4,0,5.6,0.8,5.6,3.9c0,1.4-0.8,2.2-2.1,2.2
		c-1.1,0-1.9-0.8-1.9-1.9c0-2,2.3-1.4,2.3-2.2c0-0.6-1.5-1.3-3.4-1.3c-5.2,0-6.2,2.5-6.2,6.8v6h7.4c1.3,0,2.6-0.1,3.5-0.9v17.2h3.3
		v0.6h-9.8v-0.6h3V54h-7.4v15.7h3.2v0.6h-10.4v-0.6h3.7L116,54L116,54z"/>
</g>
</svg>
