<?xml version="1.0" encoding="utf-8"?>
<!-- Generator: Adobe Illustrator 28.0.0, SVG Export Plug-In . SVG Version: 6.00 Build 0)  -->
<svg version="1.1" id="Layer_1" xmlns="http://www.w3.org/2000/svg" xmlns:xlink="http://www.w3.org/1999/xlink" x="0px" y="0px"
	 viewBox="0 0 400 120" style="enable-background:new 0 0 400 120;" xml:space="preserve">
<style type="text/css">
	.st0{fill:#1C1D36;}
	.st1{fill:#0E77BC;}
	.st2{fill:#DADADA;}
	.st3{fill:#FFFFFF;}
</style>
<path class="st0" d="M129.8,66v4.4c-1.7,0.4-3,0.5-3.9,0.5c-1.5,0-2.8-0.3-3.9-0.9s-1.9-1.4-2.4-2.5s-0.8-2.7-0.8-4.9v-13h-3.1v-4.4
	h3.5l0.5-6.6l4.7-0.4v7h5.1v4.4h-5.1v12.3c0,1.6,0.3,2.7,0.9,3.2c0.6,0.6,1.7,0.9,3.3,0.9C128.9,66.1,129.2,66,129.8,66"/>
<path class="st0" d="M155.5,70.4h-5.7V54c0-1.8-0.4-3-1.1-3.8c-0.8-0.7-1.6-1.1-2.7-1.1c-1.6,0-3,0.6-4.1,1.9
	c-1.1,1.3-1.6,3.4-1.6,6.3v13.1h-5.7v-34h5.7v13.3c1.4-3.6,3.9-5.4,7.4-5.4c5.2,0,7.7,3,7.7,8.9v17.2H155.5z"/>
<path class="st0" d="M178.2,62.4l5.1,0.7c-0.7,2.3-2,4.2-3.9,5.6c-1.9,1.5-4.3,2.2-7.2,2.2c-3.5,0-6.3-1.2-8.4-3.5
	c-2.1-2.3-3.2-5.5-3.2-9.5c0-3.8,1.1-7,3.2-9.4c2.1-2.5,5-3.7,8.7-3.7c3.6,0,6.4,1.2,8.3,3.7c2,2.5,2.9,5.6,2.9,9.5v0.6h-17.3
	c0,1.7,0.2,3.1,0.5,4.1s1,1.9,1.9,2.7c1,0.8,2.2,1.1,3.6,1.1C175.4,66.5,177.2,65.1,178.2,62.4 M177.9,54.9c0-1.8-0.6-3.3-1.6-4.4
	c-1.1-1.1-2.4-1.7-4-1.7s-2.9,0.5-3.9,1.6s-1.7,2.6-1.8,4.5C166.6,54.9,177.9,54.9,177.9,54.9z"/>
<path class="st1" d="M195.7,70.4H190V45.3h5.1v6c0.7-2.3,1.7-4.1,3-5.1c1.3-1.1,2.6-1.6,3.9-1.6c0.2,0,0.4,0,0.7,0v6.1
	c-2.9,0-4.8,0.9-5.7,2.8c-0.9,1.8-1.4,3.6-1.4,5.4L195.7,70.4L195.7,70.4z"/>
<path class="st1" d="M212.6,42.3h-5.7v-5.9h5.7V42.3z M212.6,70.4h-5.7V45.3h5.7V70.4z"/>
<path class="st1" d="M242.4,40.5v4.4h-1.7c-0.8,0-1.4,0.1-2,0.3c-0.6,0.2-1.1,0.8-1.7,1.8c2,1.6,3,3.4,3,5.4c0,2.2-0.9,4.1-2.8,5.5
	c-1.9,1.5-4.3,2.2-7.4,2.2c-1.3,0-2.9-0.2-4.7-0.6c-1.2,0.5-1.7,1.4-1.7,2.5c0,0.6,0.3,1.2,0.8,1.7c0.6,0.5,1.4,0.8,2.6,0.8h7.5
	c2.6,0,4.6,0.7,6,2c1.5,1.3,2.2,3,2.2,4.9c0,2.4-1.1,4.3-3.3,5.9c-2.2,1.6-5.5,2.3-9.8,2.3c-8.1,0-12.2-2.3-12.2-6.8
	c0-2.2,1.2-3.9,3.7-5.1c-1.6-1.3-2.3-2.7-2.3-4.2c0-2.2,1.3-3.9,4-5.2c-2.3-1.4-3.5-3.4-3.5-5.8c0-2.1,0.9-3.9,2.6-5.4
	c1.7-1.5,4.3-2.2,7.8-2.2c1.6,0,3.2,0.2,4.9,0.5c0.8-3.2,2.8-4.8,6.1-4.8h1.9V40.5z M223.2,69.1c-0.8,0.7-1.2,1.5-1.2,2.2
	c0,1.1,0.7,2.2,2,3c1.4,0.9,3.5,1.3,6.5,1.3c4.4,0,6.6-1.1,6.6-3.4c0-0.8-0.4-1.5-1.1-1.9c-0.8-0.4-1.6-0.6-2.6-0.6h-6
	C226.2,69.7,224.8,69.5,223.2,69.1 M229.5,56.7c3.1,0,4.6-1.5,4.6-4.4c0-1.1-0.4-2.1-1.2-2.8c-0.8-0.8-1.9-1.1-3.4-1.1
	s-2.7,0.4-3.5,1.2s-1.2,1.8-1.2,3s0.4,2.2,1.2,3C226.9,56.3,228,56.7,229.5,56.7"/>
<path class="st1" d="M266.7,70.4H261V54c0-1.8-0.4-3-1.1-3.8c-0.8-0.7-1.6-1.1-2.7-1.1c-1.6,0-3,0.6-4.1,1.9s-1.6,3.4-1.6,6.3v13.1
	h-5.7v-34h5.7v13.3c1.4-3.6,3.9-5.4,7.4-5.4c5.2,0,7.7,3,7.7,8.9v17.2H266.7z"/>
<path class="st1" d="M285.2,66v4.4c-1.7,0.4-3,0.5-3.9,0.5c-1.5,0-2.8-0.3-3.9-0.9c-1.1-0.6-1.9-1.4-2.4-2.5s-0.8-2.7-0.8-4.9v-13
	h-3.1v-4.4h3.5l0.5-6.6l4.7-0.4v7h5.1v4.4h-5.1v12.3c0,1.6,0.3,2.7,0.9,3.2c0.6,0.6,1.7,0.9,3.3,0.9C284.2,66.1,284.7,66,285.2,66"
	/>
<path class="st1" d="M327.5,89.8l2.5,0.3c-0.3,1.6-1,2.9-1.9,3.7c-0.9,0.8-2.1,1.2-3.4,1.2c-1.8,0-3.2-0.7-4.2-2s-1.5-2.9-1.5-4.9
	s0.5-3.6,1.6-4.9s2.5-1.9,4.3-1.9c2.9,0,4.6,1.5,5.1,4.5l-2.5,0.4c-0.2-1.6-1-2.4-2.4-2.4c-1,0-1.7,0.4-2.2,1.3s-0.7,1.9-0.7,3.2
	c0,1.3,0.2,2.3,0.7,3.1c0.5,0.7,1.1,1.1,2,1.1C326.1,92.3,327,91.5,327.5,89.8"/>
<rect x="332.2" y="76.9" class="st1" width="3" height="17.8"/>
<path class="st1" d="M349.6,94.6h-2.8v-2.8c-0.7,2.1-2.1,3.1-4.1,3.1c-1.2,0-2.1-0.4-2.8-1.1c-0.7-0.7-1.1-1.8-1.1-3.1v-9.2h3v8.6
	c0,0.9,0.2,1.6,0.6,1.9s0.8,0.4,1.2,0.4c0.6,0,1.3-0.3,2-0.9s1-1.8,1-3.7v-6.3h3L349.6,94.6L349.6,94.6z"/>
<path class="st1" d="M354.5,94.6h-1.3V76.9h3v6.4c0.6-1,1.1-1.6,1.7-1.9s1.2-0.5,2-0.5c1.4,0,2.6,0.6,3.6,1.8
	c0.9,1.2,1.4,2.9,1.4,5.1c0,2-0.5,3.6-1.4,5s-2.3,2.1-4,2.1c-1.8,0-3.1-0.8-4.1-2.4L354.5,94.6z M356.1,89c0,1.2,0.3,2,0.8,2.6
	s1.2,0.8,2,0.8s1.4-0.3,2-1c0.5-0.6,0.8-1.9,0.8-3.8c0-1.4-0.2-2.4-0.7-3.2c-0.5-0.7-1.1-1.1-2-1.1c-0.8,0-1.5,0.3-2,0.9
	s-0.8,1.5-0.8,2.7L356.1,89L356.1,89z"/>
<path class="st0" d="M106.6,57.9c0-19.8-16-35.8-35.8-35.8S35,38.1,35,57.9c0,8.8,3.1,16.8,8.4,23c3.1-9.5,9.4-17.5,17.6-22.7
	c-8.3,5.2-14.6,13.2-17.6,22.7c6.6,7.8,16.4,12.8,27.4,12.8c19.7,0,35.6-15.8,35.8-35.5l0,0C106.6,58.1,106.6,58,106.6,57.9z
	 M94.6,53c2.1,0.5,4,1.2,6,2.1C98.7,54.2,96.7,53.5,94.6,53z"/>
<path class="st1" d="M71.3,40.1L52,57.3v24.5c0,0.6,0.5,1.1,1.1,1.1h12.1V72.2c0-0.6,0.5-1.1,1.1-1.1h9.9c0.6,0,1.1,0.5,1.1,1.1
	v10.7h12.1c0.6,0,1.1-0.5,1.1-1.1V57.3L71.3,40.1z"/>
<polygon class="st1" points="51.9,36.7 58.9,36.7 58.8,40.8 51.9,47 "/>
<polygon class="st2" points="71.2,32 43.8,56.3 46.7,59.6 71.3,37.7 96,59.6 98.9,56.3 71.5,32 71.3,31.9 "/>
<g>
	<g>
		<path class="st0" d="M293.6,73.3v-40h14.8c0.7,0,1.2,0,1.7,0s1.2,0.1,2.2,0.3c1,0.2,1.9,0.4,2.7,0.7c0.8,0.3,1.8,0.8,2.8,1.5
			c1.1,0.7,2,1.5,3,2.4c1.9,1.9,3.3,4.2,4.3,6.8s1.4,5.3,1.4,8.2c0,2-0.2,3.9-0.6,5.7s-1,3.3-1.7,4.6s-1.4,2.4-2.1,3.3
			c-0.7,0.9-1.4,1.7-2.2,2.4c-1.1,1-2.8,1.9-5.1,2.8c-2.3,0.9-4.9,1.3-7.9,1.3H293.6z M301,39v28.4h6.1c1.6,0,3.1-0.3,4.4-0.9
			c1.4-0.6,2.6-1.5,3.7-2.7c1.1-1.2,1.9-2.7,2.5-4.6c0.6-1.9,0.9-4,0.9-6.3c0-2.5-0.4-4.8-1.2-6.9c-0.8-2.1-2.1-3.8-3.7-5.1
			c-1.6-1.3-3.6-2-5.8-2L301,39L301,39z"/>
		<path class="st0" d="M349.6,33.3l13.4,40h-7.7l-3.2-9.6h-15.4l-3.1,9.6h-6.2l13.3-40C340.6,33.3,349.6,33.3,349.6,33.3z M338.5,58
			h11.6l-5.7-17.9L338.5,58z"/>
	</g>
</g>
<g>
	<g>
		<path class="st3" d="M63.5,66.1v-9.6h3c0.7,0,1.4,0.1,1.9,0.3s1,0.6,1.4,1.1c0.8,0.9,1.2,2,1.2,3.4c0,1.3-0.3,2.4-1,3.3
			c-0.4,0.5-0.8,0.9-1.3,1.2c-0.5,0.3-1.1,0.4-1.8,0.4L63.5,66.1L63.5,66.1z M64.7,65.1h1.7c0.6,0,1.1-0.1,1.5-0.3
			c0.4-0.2,0.8-0.5,1.1-1c0.2-0.3,0.4-0.8,0.5-1.2s0.2-0.9,0.2-1.4c0-1.1-0.3-2-0.9-2.8c-0.3-0.4-0.6-0.6-1-0.8
			c-0.4-0.2-0.8-0.1-1.4-0.1h-1.8v7.6H64.7z"/>
		<path class="st3" d="M75.8,56.5l3.1,9.6h-1.2l-1-2.8h-3.6l-0.9,2.8h-1l3.2-9.6H75.8z M76.4,62.4l-1.5-4.6l-1.5,4.6H76.4z"/>
	</g>
</g>
</svg>
