<?xml version="1.0" encoding="UTF-8"?><svg id="Layer_1" xmlns="http://www.w3.org/2000/svg" viewBox="0 0 538.22 269.45"><defs><style>.cls-1{stroke:#fff;stroke-width:.75px;}.cls-1,.cls-2,.cls-3,.cls-4{stroke-miterlimit:22.93;}.cls-1,.cls-3,.cls-4{fill:none;}.cls-2,.cls-3,.cls-4{stroke:#d6d6d7;stroke-width:.3px;}.cls-2,.cls-5,.cls-6{fill:#fff;}.cls-7{fill:#008daa;}.cls-7,.cls-8,.cls-9,.cls-10,.cls-11,.cls-12,.cls-13,.cls-14,.cls-15,.cls-16,.cls-17,.cls-5,.cls-18,.cls-19,.cls-20{fill-rule:evenodd;}.cls-7,.cls-8,.cls-9,.cls-10,.cls-11,.cls-12,.cls-13,.cls-14,.cls-15,.cls-16,.cls-17,.cls-5,.cls-18,.cls-19,.cls-20,.cls-21,.cls-22,.cls-23,.cls-24,.cls-25,.cls-6,.cls-26,.cls-27{stroke-width:0px;}.cls-8{fill:#004e3c;}.cls-9{fill:#1d1d1b;}.cls-10{fill:#2f3c8f;}.cls-11{fill:#2c6bb2;}.cls-12{fill:#b0afaf;}.cls-13{fill:#d83410;}.cls-14,.cls-24{fill:#d6d6d7;}.cls-15{fill:#e53b13;}.cls-16{fill:#eb6907;}.cls-17{fill:#f6a500;}.cls-18{fill:#ef8000;}.cls-19{fill:#312782;}.cls-20{fill:#f6f6f5;}.cls-4{stroke-dasharray:0 0 0 0 0 0 .3 .3;}.cls-28{isolation:isolate;}.cls-21{fill:#f8f8f9;}.cls-22{fill:#555556;}.cls-23{fill:#87c27e;}.cls-25{fill:#b1b1b2;}.cls-26{fill:#e9e9e9;}.cls-27{fill:#0070f0;}</style></defs><path class="cls-26" d="M44.38,42.9h477.38c9.09,0,16.46,7.38,16.46,16.46v193.63c0,9.09-7.38,16.46-16.46,16.46H44.38c-9.09,0-16.46-7.38-16.46-16.46V59.37c0-9.09,7.38-16.46,16.46-16.46h0Z"/><path class="cls-27" d="M10.04,0h123.98c5.54,0,10.04,4.5,10.04,10.04v37.71c0,5.54-4.5,10.04-10.04,10.04H10.04c-5.54,0-10.04-4.5-10.04-10.04V10.04C0,4.5,4.5,0,10.04,0Z"/><circle class="cls-1" cx="30.65" cy="28.9" r="12.64"/><polygon class="cls-5" points="25.01 27.87 29.61 27.87 29.61 23.27 31.68 23.27 31.68 27.87 36.28 27.87 36.28 29.93 31.68 29.93 31.68 34.53 29.61 34.53 29.61 29.93 25.01 29.93 25.01 27.87"/><g class="cls-28"><g class="cls-28"><path class="cls-6" d="M62.7,36.16h-1.8l-5.42-8.2v8.2h-1.8v-10.99h1.8l5.42,8.18v-8.18h1.8v10.99Z"/><path class="cls-6" d="M72.98,32.48h-6.65c.05.69.31,1.25.77,1.67.46.42,1.03.63,1.71.63.97,0,1.65-.41,2.05-1.22h1.94c-.26.8-.74,1.46-1.43,1.97-.69.51-1.54.77-2.57.77-.83,0-1.58-.19-2.23-.56-.66-.37-1.17-.9-1.55-1.58-.37-.68-.56-1.47-.56-2.36s.18-1.68.54-2.36.87-1.2,1.53-1.57c.66-.37,1.41-.55,2.27-.55s1.55.18,2.19.54c.64.36,1.14.86,1.5,1.51.36.65.54,1.39.54,2.23,0,.33-.02.62-.06.88ZM71.16,31.03c-.01-.66-.25-1.19-.71-1.59-.46-.4-1.04-.6-1.72-.6-.62,0-1.15.2-1.59.59-.44.39-.71.93-.79,1.6h4.82Z"/><path class="cls-6" d="M86.5,27.46l-2.7,8.7h-1.9l-1.75-6.43-1.75,6.43h-1.89l-2.72-8.7h1.83l1.82,7,1.85-7h1.88l1.77,6.96,1.8-6.96h1.77Z"/><path class="cls-6" d="M92.09,27.76c.5-.85,1.18-1.52,2.04-2,.86-.48,1.8-.72,2.82-.72,1.17,0,2.21.29,3.12.86.91.57,1.57,1.39,1.98,2.44h-2.16c-.28-.58-.68-1.01-1.18-1.29-.51-.29-1.09-.43-1.75-.43-.73,0-1.37.16-1.94.49s-1.01.79-1.33,1.41c-.32.61-.48,1.32-.48,2.13s.16,1.52.48,2.13.77,1.08,1.33,1.41,1.22.5,1.94.5c.66,0,1.25-.14,1.75-.43s.9-.72,1.18-1.29h2.16c-.41,1.05-1.07,1.86-1.98,2.43s-1.95.85-3.12.85c-1.03,0-1.97-.24-2.83-.72-.85-.48-1.53-1.14-2.03-2-.5-.85-.75-1.82-.75-2.89s.25-2.04.75-2.89Z"/><path class="cls-6" d="M104.09,29.45c.36-.67.86-1.2,1.48-1.57.63-.37,1.32-.56,2.08-.56.68,0,1.28.13,1.79.4.51.27.92.6,1.22,1v-1.26h1.82v8.7h-1.82v-1.29c-.31.41-.72.75-1.25,1.03s-1.13.41-1.8.41c-.75,0-1.43-.19-2.05-.58-.62-.38-1.11-.92-1.48-1.61s-.54-1.47-.54-2.34.18-1.65.54-2.32ZM110.3,30.24c-.25-.44-.57-.78-.97-1.01s-.83-.35-1.29-.35-.89.11-1.29.34c-.4.23-.72.56-.97.99-.25.44-.37.96-.37,1.56s.12,1.13.37,1.58c.25.45.57.8.98,1.03s.83.36,1.29.36.9-.12,1.29-.35.72-.57.97-1.02c.25-.45.37-.97.37-1.57s-.12-1.12-.37-1.56Z"/><path class="cls-6" d="M116.17,35.93c-.54-.25-.97-.58-1.29-1.01-.32-.43-.48-.9-.51-1.43h1.86c.03.37.21.68.53.92.32.25.72.37,1.21.37s.9-.1,1.18-.29c.28-.19.42-.44.42-.75,0-.33-.16-.57-.47-.73-.31-.16-.8-.33-1.48-.52-.65-.18-1.18-.35-1.59-.52-.41-.17-.77-.43-1.07-.77-.3-.35-.45-.81-.45-1.37,0-.46.14-.89.41-1.27.27-.38.67-.69,1.18-.91s1.1-.33,1.76-.33c.99,0,1.79.25,2.39.75.61.5.93,1.18.97,2.04h-1.8c-.03-.39-.19-.7-.47-.93-.28-.23-.67-.35-1.15-.35s-.84.09-1.09.27c-.25.18-.38.42-.38.71,0,.23.08.43.25.58.17.16.37.28.62.37.24.09.6.2,1.07.34.63.17,1.15.34,1.56.51.41.17.76.43,1.05.77.29.34.45.78.46,1.34,0,.5-.14.94-.41,1.33-.27.39-.66.7-1.16.92-.5.22-1.09.33-1.76.33s-1.3-.12-1.84-.37Z"/><path class="cls-6" d="M131.2,32.48h-6.65c.05.69.31,1.25.77,1.67.46.42,1.03.63,1.71.63.97,0,1.65-.41,2.05-1.22h1.94c-.26.8-.74,1.46-1.43,1.97-.69.51-1.54.77-2.57.77-.83,0-1.58-.19-2.23-.56-.66-.37-1.17-.9-1.55-1.58-.37-.68-.56-1.47-.56-2.36s.18-1.68.54-2.36.87-1.2,1.53-1.57c.66-.37,1.41-.55,2.27-.55s1.55.18,2.19.54c.64.36,1.14.86,1.5,1.51.36.65.54,1.39.54,2.23,0,.33-.02.62-.06.88ZM129.38,31.03c-.01-.66-.25-1.19-.71-1.59-.46-.4-1.04-.6-1.72-.6-.62,0-1.15.2-1.59.59-.44.39-.71.93-.79,1.6h4.82Z"/></g></g><path class="cls-21" d="M44.38,50.83h477.38c4.71,0,8.54,3.83,8.54,8.54v193.63c0,4.71-3.83,8.54-8.54,8.54H44.38c-4.71,0-8.54-3.83-8.54-8.54V59.37c0-4.71,3.83-8.54,8.54-8.54Z"/><path class="cls-20" d="M44.38,50.83h477.38c4.7,0,8.54,3.84,8.54,8.54v28.34H35.84v-28.34c0-4.7,3.84-8.54,8.54-8.54Z"/><path class="cls-2" d="M48.83,60.63h130.13c.95,0,1.71.77,1.71,1.71v17.63c0,.95-.77,1.72-1.72,1.72H48.83c-.95,0-1.72-.77-1.72-1.72v-17.63c0-.95.77-1.71,1.71-1.71h.01Z"/><path class="cls-12" d="M170.69,69.39c0-.99-.4-1.89-1.05-2.54s-1.55-1.05-2.54-1.05-1.89.4-2.54,1.05-1.05,1.55-1.05,2.54.4,1.89,1.05,2.54c.65.65,1.55,1.05,2.54,1.05s1.89-.4,2.54-1.05,1.05-1.55,1.05-2.54h0ZM170.51,72c.91,1,1.83,1.99,2.74,2.99-.17.43-.48.7-.91.84l-2.72-2.96c-.71.52-1.58.82-2.53.82-1.19,0-2.26-.48-3.04-1.26s-1.26-1.85-1.26-3.04.48-2.26,1.26-3.04,1.86-1.26,3.04-1.26,2.26.48,3.04,1.26,1.26,1.85,1.26,3.04c0,.98-.33,1.89-.89,2.62h.01Z"/><g class="cls-28"><g class="cls-28"><path class="cls-25" d="M54.64,75.69c-.3-.13-.53-.31-.7-.55-.17-.24-.25-.52-.25-.83h.97c.02.24.12.43.28.59.17.15.4.23.7.23s.56-.08.73-.23c.17-.15.26-.35.26-.58,0-.19-.05-.34-.16-.45-.11-.12-.24-.21-.41-.27-.16-.06-.38-.13-.67-.21-.36-.1-.65-.19-.88-.29-.22-.1-.42-.25-.58-.46-.16-.21-.24-.48-.24-.83,0-.32.08-.6.24-.83.16-.24.38-.42.67-.55.29-.13.62-.19.99-.19.53,0,.97.13,1.31.4.34.27.53.63.57,1.1h-1c-.02-.2-.11-.37-.29-.52-.17-.14-.41-.21-.69-.21-.26,0-.47.07-.64.2-.16.13-.25.32-.25.57,0,.17.05.31.15.42s.23.19.39.26c.16.06.38.13.65.21.37.1.66.2.89.3.23.1.43.25.59.46.16.21.24.49.24.84,0,.28-.08.55-.23.79-.15.25-.37.45-.66.6-.29.15-.63.23-1.02.23-.37,0-.7-.06-1-.19Z"/><path class="cls-25" d="M62.6,73.98h-3.34c.03.35.16.63.39.84.23.21.52.32.86.32.49,0,.83-.2,1.03-.61h.98c-.13.4-.37.73-.72.99s-.78.38-1.29.38c-.42,0-.79-.09-1.12-.28-.33-.19-.59-.45-.78-.79-.19-.34-.28-.74-.28-1.19s.09-.85.27-1.19c.18-.34.44-.6.77-.79.33-.18.71-.28,1.14-.28s.78.09,1.1.27c.32.18.57.43.75.76.18.33.27.7.27,1.12,0,.16-.01.31-.03.45ZM61.69,73.25c0-.33-.12-.6-.36-.8-.23-.2-.52-.3-.87-.3-.31,0-.58.1-.8.3-.22.2-.35.47-.4.81h2.42Z"/><path class="cls-25" d="M63.49,72.46c.18-.34.43-.6.75-.79.31-.19.66-.28,1.04-.28.34,0,.64.07.9.2s.46.3.62.5v-.64h.91v4.38h-.91v-.65c-.15.21-.36.38-.63.52s-.57.21-.91.21c-.38,0-.72-.1-1.03-.29-.31-.19-.56-.46-.74-.81s-.27-.74-.27-1.18.09-.83.27-1.17ZM66.61,72.85c-.12-.22-.29-.39-.49-.51s-.42-.17-.65-.17-.45.06-.65.17c-.2.11-.36.28-.49.5-.12.22-.19.48-.19.78s.06.57.19.79c.12.23.29.4.49.52.2.12.42.18.65.18s.45-.06.65-.17c.2-.12.36-.29.49-.51s.19-.49.19-.79-.06-.56-.19-.79Z"/><path class="cls-25" d="M70.34,71.57c.22-.12.48-.19.78-.19v.94h-.23c-.35,0-.62.09-.81.27s-.27.49-.27.94v2.3h-.9v-4.38h.9v.64c.13-.22.31-.4.53-.52Z"/><path class="cls-25" d="M71.92,72.45c.18-.34.44-.6.76-.79.32-.18.69-.28,1.11-.28.53,0,.97.13,1.31.38.35.25.58.61.7,1.08h-.98c-.08-.22-.21-.39-.38-.51-.17-.12-.39-.18-.66-.18-.37,0-.67.13-.89.39s-.33.63-.33,1.1.11.84.33,1.1.51.4.89.4c.52,0,.87-.23,1.04-.69h.98c-.13.45-.37.8-.71,1.06-.35.26-.78.39-1.3.39-.42,0-.79-.09-1.11-.28-.32-.19-.58-.45-.76-.79-.18-.34-.27-.74-.27-1.19s.09-.85.27-1.19Z"/><path class="cls-25" d="M79.87,71.6c.26.14.47.36.62.64s.23.62.23,1.02v2.58h-.9v-2.45c0-.39-.1-.69-.29-.9s-.46-.31-.8-.31-.61.1-.81.31c-.2.21-.3.51-.3.9v2.45h-.9v-5.88h.9v2.01c.15-.18.35-.33.58-.43.24-.1.49-.15.77-.15.33,0,.63.07.89.21Z"/></g></g><path class="cls-3" d="M35.84,114.32h494.46M159.45,114.15v147.39M283.07,114.15v147.39M406.68,114.15v147.39"/><g class="cls-28"><g class="cls-28"><path class="cls-22" d="M52.28,104.83h-.85l-2.57-3.88v3.88h-.85v-5.21h.85l2.57,3.88v-3.88h.85v5.21Z"/><path class="cls-22" d="M57.15,103.09h-3.15c.02.33.15.59.37.79.22.2.49.3.81.3.46,0,.78-.19.97-.58h.92c-.12.38-.35.69-.68.93-.33.24-.73.36-1.22.36-.39,0-.75-.09-1.06-.27s-.56-.43-.73-.75c-.18-.32-.27-.69-.27-1.12s.09-.8.26-1.12c.17-.32.41-.57.73-.74s.67-.26,1.07-.26.74.08,1.04.25c.3.17.54.41.71.71s.25.66.25,1.06c0,.16-.01.29-.03.42ZM56.29,102.4c0-.31-.12-.57-.34-.76-.22-.19-.49-.28-.82-.28-.29,0-.55.09-.76.28-.21.19-.33.44-.37.76h2.28Z"/><path class="cls-22" d="M63.55,100.71l-1.28,4.12h-.9l-.83-3.04-.83,3.04h-.9l-1.29-4.12h.87l.86,3.31.88-3.31h.89l.84,3.3.85-3.3h.84Z"/><path class="cls-22" d="M66.99,104.14h1.76v.69h-2.61v-5.2h.85v4.51Z"/><path class="cls-22" d="M73.2,103.09h-3.15c.02.33.15.59.37.79.22.2.49.3.81.3.46,0,.78-.19.97-.58h.92c-.12.38-.35.69-.68.93-.33.24-.73.36-1.22.36-.39,0-.75-.09-1.06-.27s-.56-.43-.73-.75c-.18-.32-.27-.69-.27-1.12s.09-.8.26-1.12c.17-.32.41-.57.73-.74s.67-.26,1.07-.26.74.08,1.04.25c.3.17.54.41.71.71s.25.66.25,1.06c0,.16-.01.29-.03.42ZM72.34,102.4c0-.31-.12-.57-.34-.76-.22-.19-.49-.28-.82-.28-.29,0-.55.09-.76.28-.21.19-.33.44-.37.76h2.28Z"/><path class="cls-22" d="M74.04,101.65c.17-.32.41-.57.7-.74.3-.18.62-.27.98-.27.32,0,.61.06.85.19.24.13.44.29.58.47v-.6h.86v4.12h-.86v-.61c-.15.19-.34.36-.59.49-.25.13-.53.19-.85.19-.35,0-.68-.09-.97-.27-.29-.18-.53-.44-.7-.76-.17-.33-.26-.7-.26-1.11s.09-.78.26-1.1ZM76.98,102.03c-.12-.21-.27-.37-.46-.48-.19-.11-.39-.16-.61-.16s-.42.05-.61.16-.34.26-.46.47-.18.45-.18.74.06.53.18.75c.12.21.27.38.46.49s.4.17.61.17.42-.05.61-.17c.19-.11.34-.27.46-.48s.18-.46.18-.74-.06-.53-.18-.74Z"/><path class="cls-22" d="M79.12,101.65c.17-.32.41-.57.7-.74.3-.18.63-.27.99-.27.27,0,.53.06.8.18.26.12.47.27.62.47v-1.99h.86v5.54h-.86v-.62c-.14.2-.33.36-.58.49-.25.13-.53.19-.85.19-.36,0-.69-.09-.98-.27-.3-.18-.53-.44-.7-.76-.17-.33-.26-.7-.26-1.11s.09-.78.26-1.1ZM82.06,102.03c-.12-.21-.27-.37-.46-.48-.19-.11-.39-.16-.61-.16s-.42.05-.61.16-.34.26-.46.47-.18.45-.18.74.06.53.18.75c.12.21.27.38.46.49s.4.17.61.17.42-.05.61-.17c.19-.11.34-.27.46-.48s.18-.46.18-.74-.06-.53-.18-.74Z"/><path class="cls-22" d="M86.57,99.64c.33-.26.74-.39,1.25-.39.35,0,.65.06.9.19.25.12.45.29.58.51.13.21.19.46.19.73,0,.31-.08.57-.25.79-.16.22-.36.37-.59.44v.03c.29.09.52.25.69.49.16.24.25.54.25.91,0,.29-.07.56-.2.79-.13.23-.33.41-.6.54-.26.13-.58.2-.95.2-.54,0-.98-.14-1.33-.42-.35-.28-.53-.67-.56-1.19h.82c.02.26.12.48.31.65.18.17.43.25.75.25s.54-.08.7-.25c.16-.17.25-.38.25-.65,0-.35-.11-.6-.33-.74-.22-.15-.56-.22-1.02-.22h-.19v-.7h.2c.4,0,.71-.07.92-.2s.32-.33.32-.61c0-.24-.08-.43-.23-.57-.15-.14-.37-.21-.66-.21s-.5.07-.65.21c-.15.14-.25.32-.28.53h-.83c.03-.46.21-.83.53-1.08Z"/></g></g><rect class="cls-2" x="44.01" y="125.53" width="105.7" height="31.38"/><path class="cls-11" d="M67.96,140.91c0-4.44-3.6-8.03-8.03-8.03s-8.03,3.6-8.03,8.03,3.6,8.03,8.03,8.03,8.03-3.6,8.03-8.03Z"/><g class="cls-28"><g class="cls-28"><path class="cls-6" d="M57.95,138.71v3.15c0,.39-.12.7-.35.92-.24.23-.55.34-.93.34s-.7-.11-.93-.34c-.24-.23-.36-.53-.36-.92h.72c0,.19.05.35.15.46s.23.17.42.17.32-.06.42-.17c.1-.12.14-.27.14-.46v-3.15h.72Z"/><path class="cls-6" d="M63.71,138.71v4.37h-.72v-2.99l-1.33,2.99h-.5l-1.34-2.99v2.99h-.72v-4.37h.77l1.53,3.43,1.53-3.43h.77Z"/></g></g><path class="cls-24" d="M73.93,136.1h53.17c1.74,0,3.15,1.41,3.15,3.15h0c0,1.74-1.41,3.15-3.15,3.15h-53.17c-1.74,0-3.15-1.41-3.15-3.15h0c0-1.74,1.41-3.16,3.15-3.16h0Z"/><polygon class="cls-14" points="137.77 138.63 140.37 141.23 137.77 143.82 137.77 142.82 139.37 141.23 137.77 139.63 137.77 138.63"/><rect class="cls-2" x="44.01" y="156.92" width="105.7" height="31.38"/><path class="cls-10" d="M67.96,172.29c0-4.44-3.6-8.03-8.03-8.03s-8.03,3.6-8.03,8.03,3.6,8.03,8.03,8.03,8.03-3.6,8.03-8.03Z"/><g class="cls-28"><g class="cls-28"><path class="cls-6" d="M58.22,170.08v3.15c0,.39-.12.7-.35.92-.24.23-.55.34-.93.34s-.7-.11-.93-.34c-.24-.23-.36-.53-.36-.92h.72c0,.19.05.35.15.46s.23.17.42.17.32-.06.42-.17c.1-.12.14-.27.14-.46v-3.15h.72Z"/><path class="cls-6" d="M60.25,174.21c-.34-.19-.61-.46-.81-.8-.2-.34-.3-.73-.3-1.15s.1-.81.3-1.15c.2-.34.47-.6.81-.79.34-.19.72-.29,1.12-.29s.79.09,1.13.29c.34.19.61.46.81.79.2.34.3.72.3,1.15s-.1.81-.3,1.15c-.2.34-.47.61-.81.8s-.72.29-1.13.29-.78-.1-1.12-.29ZM62.15,173.67c.23-.13.4-.32.53-.57s.19-.53.19-.85-.06-.61-.19-.85-.31-.43-.53-.56-.48-.19-.77-.19-.55.06-.77.19-.4.32-.53.56-.19.53-.19.85.06.61.19.85.3.43.53.57c.23.13.48.2.77.2s.55-.07.77-.2Z"/></g></g><path class="cls-24" d="M73.94,167.48h43.58c1.74,0,3.15,1.41,3.15,3.15h0c0,1.74-1.41,3.16-3.15,3.16h-43.58c-1.74,0-3.15-1.41-3.15-3.15h0c0-1.74,1.41-3.15,3.15-3.15h0Z"/><polygon class="cls-14" points="137.77 170.01 140.37 172.61 137.77 175.21 137.77 174.21 139.37 172.61 137.77 171.01 137.77 170.01"/><rect class="cls-2" x="44.01" y="188.3" width="105.7" height="31.38"/><path class="cls-18" d="M67.96,203.68c0-4.44-3.6-8.03-8.03-8.03s-8.03,3.6-8.03,8.03,3.6,8.03,8.03,8.03,8.03-3.6,8.03-8.03Z"/><g class="cls-28"><g class="cls-28"><path class="cls-6" d="M57.7,206.48c-.23-.1-.42-.25-.55-.44-.13-.19-.2-.41-.2-.66h.77c.02.19.09.34.22.47.13.12.32.18.56.18s.44-.06.58-.18c.14-.12.21-.27.21-.46,0-.15-.04-.27-.13-.36-.09-.09-.19-.16-.32-.21-.13-.05-.3-.11-.53-.16-.29-.08-.52-.15-.7-.23-.18-.08-.33-.2-.46-.36-.13-.16-.19-.38-.19-.65,0-.25.06-.47.19-.66.13-.19.3-.33.53-.43.23-.1.49-.15.79-.15.42,0,.77.11,1.04.32s.42.5.45.87h-.79c-.01-.16-.09-.3-.23-.41-.14-.11-.32-.17-.55-.17-.21,0-.37.05-.5.16-.13.11-.2.26-.2.45,0,.13.04.24.12.33.08.09.19.15.31.21.13.05.3.1.52.16.29.08.53.16.71.24.18.08.34.2.47.37.13.17.19.39.19.66,0,.22-.06.43-.18.63-.12.2-.29.36-.52.48-.23.12-.5.18-.81.18-.29,0-.56-.05-.79-.15Z"/><path class="cls-6" d="M63.42,202.22v.58h-1.86v1.29h1.45v.58h-1.45v1.91h-.72v-4.37h2.57Z"/></g></g><rect class="cls-24" x="70.78" y="198.87" width="49.89" height="6.31" rx="3.15" ry="3.15"/><polygon class="cls-14" points="137.77 201.4 140.37 203.99 137.77 206.59 137.77 205.59 139.37 203.99 137.77 202.4 137.77 201.4"/><rect class="cls-2" x="168.55" y="125.53" width="105.7" height="31.38"/><path class="cls-8" d="M192.5,140.91c0-4.44-3.6-8.03-8.03-8.03s-8.03,3.6-8.03,8.03,3.6,8.03,8.03,8.03,8.03-3.6,8.03-8.03Z"/><g class="cls-28"><g class="cls-28"><path class="cls-6" d="M182.71,141.95c.16.21.25.44.25.7,0,.22-.06.42-.17.6-.12.18-.28.32-.5.42-.22.1-.47.15-.76.15h-1.75v-4.37h1.67c.3,0,.55.05.77.15s.38.24.48.41c.11.17.16.36.16.57,0,.25-.07.46-.2.63-.13.17-.31.29-.54.37.23.04.43.17.6.37ZM180.49,141.28h.89c.23,0,.42-.05.55-.16.13-.11.2-.26.2-.46s-.07-.35-.2-.46c-.13-.11-.32-.17-.55-.17h-.89v1.25ZM182.03,143.06c.14-.12.21-.28.21-.49s-.07-.38-.22-.51c-.15-.13-.34-.19-.58-.19h-.94v1.37h.97c.24,0,.43-.06.57-.18Z"/><path class="cls-6" d="M189.43,139.45l-1.3,4.37h-.81l-.92-3.31-.98,3.31h-.81s-1.24-4.37-1.24-4.37h.76l.91,3.56.98-3.56h.81l.91,3.54.91-3.54h.77Z"/></g></g><path class="cls-24" d="M198.48,133.29h46.81c1.74,0,3.15,1.41,3.15,3.15h0c0,1.74-1.41,3.16-3.16,3.16h-46.81c-1.74,0-3.15-1.41-3.15-3.15h0c0-1.74,1.41-3.15,3.15-3.15h.01Z"/><polygon class="cls-14" points="262.31 138.63 264.91 141.23 262.31 143.82 262.31 142.82 263.91 141.23 262.31 139.63 262.31 138.63"/><g class="cls-28"><g class="cls-28"><path class="cls-27" d="M194.78,173.34h-2.18l-.37,1.06h-.89l1.86-5.21h.99l1.86,5.21h-.9l-.37-1.06ZM194.54,172.64l-.85-2.42-.85,2.42h1.7Z"/><path class="cls-27" d="M196.83,171.22c.17-.32.41-.57.7-.74.3-.18.63-.27.99-.27.27,0,.53.06.8.18.26.12.47.27.62.47v-1.99h.86v5.54h-.86v-.62c-.14.2-.33.36-.58.49-.25.13-.53.19-.85.19-.36,0-.69-.09-.98-.27-.3-.18-.53-.44-.7-.76-.17-.33-.26-.7-.26-1.11s.09-.78.26-1.1ZM199.77,171.6c-.12-.21-.27-.37-.46-.48-.19-.11-.39-.16-.61-.16s-.42.05-.61.16-.34.26-.46.47-.18.45-.18.74.06.53.18.75c.12.21.27.38.46.49s.4.17.61.17.42-.05.61-.17c.19-.11.34-.27.46-.48s.18-.46.18-.74-.06-.53-.18-.74Z"/><path class="cls-27" d="M201.9,171.22c.17-.32.41-.57.7-.74.3-.18.63-.27.99-.27.27,0,.53.06.8.18.26.12.47.27.62.47v-1.99h.86v5.54h-.86v-.62c-.14.2-.33.36-.58.49-.25.13-.53.19-.85.19-.36,0-.69-.09-.98-.27-.3-.18-.53-.44-.7-.76-.17-.33-.26-.7-.26-1.11s.09-.78.26-1.1ZM204.84,171.6c-.12-.21-.27-.37-.46-.48-.19-.11-.39-.16-.61-.16s-.42.05-.61.16-.34.26-.46.47-.18.45-.18.74.06.53.18.75c.12.21.27.38.46.49s.4.17.61.17.42-.05.61-.17c.19-.11.34-.27.46-.48s.18-.46.18-.74-.06-.53-.18-.74Z"/><path class="cls-27" d="M209.94,170.97v2.28c0,.15.04.27.11.33s.2.1.37.1h.52v.71h-.67c-.38,0-.68-.09-.88-.27-.2-.18-.31-.47-.31-.88v-2.28h-.49v-.7h.49v-1.03h.86v1.03h1v.7h-1Z"/><path class="cls-27" d="M211.77,169.58c-.1-.11-.16-.23-.16-.39s.05-.28.16-.39c.1-.1.23-.16.39-.16s.28.05.38.16c.1.1.16.23.16.39s-.05.28-.16.39c-.1.1-.23.16-.38.16s-.28-.05-.39-.16ZM212.58,170.28v4.12h-.85v-4.12h.85Z"/><path class="cls-27" d="M213.67,171.22c.17-.32.41-.57.71-.74s.65-.26,1.05-.26c.5,0,.91.12,1.24.35.33.24.55.58.66,1.01h-.92c-.07-.2-.19-.36-.36-.48-.16-.11-.37-.17-.62-.17-.35,0-.63.12-.83.37s-.31.59-.31,1.04.1.79.31,1.04c.21.25.48.37.83.37.49,0,.82-.22.98-.65h.92c-.12.42-.34.75-.67,1s-.74.37-1.23.37c-.39,0-.74-.09-1.05-.27s-.54-.43-.71-.75c-.17-.32-.26-.69-.26-1.12s.09-.8.26-1.12Z"/><path class="cls-27" d="M219.82,172.34l1.9,2.06h-1.15l-1.53-1.77v1.77h-.85v-5.54h.85v3.22l1.5-1.8h1.18l-1.9,2.06Z"/><path class="cls-27" d="M226.08,172.66h-3.15c.02.33.15.59.37.79.22.2.49.3.81.3.46,0,.78-.19.97-.58h.92c-.12.38-.35.69-.68.93-.33.24-.73.36-1.22.36-.39,0-.75-.09-1.06-.27s-.56-.43-.73-.75c-.18-.32-.27-.69-.27-1.12s.09-.8.26-1.12c.17-.32.41-.57.73-.74s.67-.26,1.07-.26.74.08,1.04.25c.3.17.54.41.71.71s.25.66.25,1.06c0,.16-.01.29-.03.42ZM225.22,171.97c0-.31-.12-.57-.34-.76-.22-.19-.49-.28-.82-.28-.29,0-.55.09-.76.28-.21.19-.33.44-.37.76h2.28Z"/><path class="cls-27" d="M227.94,170.97v2.28c0,.15.04.27.11.33s.2.1.37.1h.52v.71h-.67c-.38,0-.68-.09-.88-.27-.2-.18-.31-.47-.31-.88v-2.28h-.49v-.7h.49v-1.03h.86v1.03h1v.7h-1Z"/><path class="cls-27" d="M234.65,170.41c.25.13.44.33.58.6.14.26.21.58.21.96v2.43h-.85v-2.3c0-.37-.09-.65-.28-.85-.18-.2-.44-.3-.76-.3s-.57.1-.76.3c-.19.2-.28.48-.28.85v2.3h-.85v-5.54h.85v1.89c.14-.17.33-.31.55-.4.22-.09.46-.14.73-.14.31,0,.59.07.84.2Z"/><path class="cls-27" d="M240.28,172.66h-3.15c.02.33.15.59.37.79.22.2.49.3.81.3.46,0,.78-.19.97-.58h.92c-.12.38-.35.69-.68.93-.33.24-.73.36-1.22.36-.39,0-.75-.09-1.06-.27s-.56-.43-.73-.75c-.18-.32-.27-.69-.27-1.12s.09-.8.26-1.12c.17-.32.41-.57.73-.74s.67-.26,1.07-.26.74.08,1.04.25c.3.17.54.41.71.71s.25.66.25,1.06c0,.16-.01.29-.03.42ZM239.42,171.97c0-.31-.12-.57-.34-.76-.22-.19-.49-.28-.82-.28-.29,0-.55.09-.76.28-.21.19-.33.44-.37.76h2.28Z"/><path class="cls-27" d="M242.49,170.39c.21-.12.45-.18.74-.18v.88h-.22c-.33,0-.59.08-.76.25-.17.17-.26.46-.26.88v2.17h-.85v-4.12h.85v.6c.12-.21.29-.37.5-.49Z"/><path class="cls-27" d="M247.76,172.66h-3.15c.02.33.15.59.37.79.22.2.49.3.81.3.46,0,.78-.19.97-.58h.92c-.12.38-.35.69-.68.93-.33.24-.73.36-1.22.36-.39,0-.75-.09-1.06-.27s-.56-.43-.73-.75c-.18-.32-.27-.69-.27-1.12s.09-.8.26-1.12c.17-.32.41-.57.73-.74s.67-.26,1.07-.26.74.08,1.04.25c.3.17.54.41.71.71s.25.66.25,1.06c0,.16-.01.29-.03.42ZM246.9,171.97c0-.31-.12-.57-.34-.76-.22-.19-.49-.28-.82-.28-.29,0-.55.09-.76.28-.21.19-.33.44-.37.76h2.28Z"/></g></g><rect class="cls-4" x="168.55" y="156.92" width="105.7" height="31.12"/><rect class="cls-2" x="291.78" y="125.53" width="105.7" height="31.38"/><path class="cls-13" d="M315.74,140.91c0-4.44-3.6-8.03-8.03-8.03s-8.03,3.6-8.03,8.03,3.6,8.03,8.03,8.03,8.03-3.6,8.03-8.03Z"/><g class="cls-28"><g class="cls-28"><path class="cls-6" d="M306.56,141.52h-1.83l-.31.89h-.75l1.57-4.38h.83l1.57,4.38h-.75l-.31-.89ZM306.36,140.93l-.71-2.03-.72,2.03h1.43Z"/><path class="cls-6" d="M311.24,140.54c.16.21.25.44.25.7,0,.22-.06.42-.17.6-.12.18-.28.32-.5.42s-.47.15-.76.15h-1.75v-4.37h1.67c.3,0,.55.05.77.15s.38.24.48.41c.11.17.16.36.16.57,0,.25-.07.46-.2.63-.13.17-.31.29-.54.37.24.04.43.17.6.37ZM309.02,139.87h.89c.23,0,.42-.05.55-.16.13-.11.2-.26.2-.46s-.07-.35-.2-.46c-.13-.11-.32-.17-.55-.17h-.89v1.25ZM310.56,141.65c.14-.12.21-.28.21-.49s-.07-.38-.22-.51c-.15-.13-.34-.19-.58-.19h-.94v1.37h.97c.24,0,.43-.06.57-.18Z"/></g></g><rect class="cls-24" x="318.56" y="136.1" width="33.94" height="6.31" rx="3.15" ry="3.15"/><polygon class="cls-14" points="385.55 138.63 388.15 141.23 385.55 143.82 385.55 142.82 387.14 141.23 385.55 139.63 385.55 138.63"/><polygon class="cls-5" points="390.24 130.54 388.78 133.71 396.17 130.54 388.78 127.38 390.24 130.54"/><rect class="cls-2" x="291.78" y="156.92" width="105.7" height="31.38"/><path class="cls-19" d="M315.74,172.29c0-4.44-3.6-8.03-8.03-8.03s-8.03,3.6-8.03,8.03,3.6,8.03,8.03,8.03,8.03-3.6,8.03-8.03Z"/><g class="cls-28"><g class="cls-28"><path class="cls-6" d="M305.53,175.1c-.2-.1-.36-.25-.47-.44-.11-.19-.17-.41-.17-.66h.65c.01.19.08.34.19.47s.27.18.47.18.38-.06.49-.18c.12-.12.18-.27.18-.46,0-.15-.04-.27-.11-.36-.07-.09-.16-.16-.27-.21-.11-.05-.26-.1-.45-.16-.24-.08-.44-.15-.59-.23-.15-.08-.28-.2-.39-.36-.11-.16-.16-.38-.16-.65,0-.25.05-.47.16-.66.11-.19.26-.33.45-.43s.42-.15.67-.15c.36,0,.66.11.88.32.23.21.36.5.38.87h-.67c-.01-.16-.08-.3-.19-.41-.12-.11-.27-.17-.47-.17-.17,0-.32.05-.43.16-.11.1-.17.26-.17.45,0,.13.03.24.1.33s.16.15.26.2c.11.05.25.1.44.16.25.08.45.16.6.24s.29.2.4.37c.11.17.16.39.16.66,0,.22-.05.43-.15.63-.1.2-.25.36-.44.48-.19.12-.42.18-.69.18-.25,0-.47-.05-.67-.15Z"/><path class="cls-6" d="M308.76,175.1c-.2-.1-.36-.25-.47-.44-.11-.19-.17-.41-.17-.66h.65c.01.19.08.34.19.47s.27.18.47.18.38-.06.49-.18c.12-.12.18-.27.18-.46,0-.15-.04-.27-.11-.36-.07-.09-.16-.16-.27-.21-.11-.05-.26-.1-.45-.16-.24-.08-.44-.15-.59-.23-.15-.08-.28-.2-.39-.36-.11-.16-.16-.38-.16-.65,0-.25.05-.47.16-.66.11-.19.26-.33.45-.43s.42-.15.67-.15c.36,0,.66.11.88.32.23.21.36.5.38.87h-.67c-.01-.16-.08-.3-.19-.41-.12-.11-.27-.17-.47-.17-.17,0-.32.05-.43.16-.11.1-.17.26-.17.45,0,.13.03.24.1.33s.16.15.26.2c.11.05.25.1.44.16.25.08.45.16.6.24s.29.2.4.37c.11.17.16.39.16.66,0,.22-.05.43-.15.63-.1.2-.25.36-.44.48-.19.12-.42.18-.69.18-.25,0-.47-.05-.67-.15Z"/></g></g><path class="cls-24" d="M321.72,167.48h50.92c1.74,0,3.15,1.41,3.15,3.15h0c0,1.74-1.41,3.16-3.16,3.16h-50.92c-1.74,0-3.15-1.41-3.15-3.15h0c0-1.74,1.41-3.16,3.16-3.16h0Z"/><polygon class="cls-14" points="385.55 170.01 388.15 172.61 385.55 175.21 385.55 174.21 387.14 172.61 385.55 171.01 385.55 170.01"/><rect class="cls-4" x="291.78" y="188.3" width="105.7" height="31.38"/><rect class="cls-6" x="270.23" y="199.21" width="105.7" height="31.38"/><path class="cls-18" d="M294.18,214.58c0-4.44-3.6-8.03-8.03-8.03s-8.03,3.6-8.03,8.03,3.6,8.03,8.03,8.03,8.03-3.6,8.03-8.03Z"/><g class="cls-28"><g class="cls-28"><path class="cls-6" d="M283.97,216.9c-.23-.1-.42-.25-.55-.44-.13-.19-.2-.41-.2-.66h.77c.02.19.09.34.22.47.13.12.32.18.56.18s.44-.06.58-.18c.14-.12.21-.27.21-.46,0-.15-.04-.27-.13-.36-.09-.09-.19-.16-.32-.21-.13-.05-.3-.11-.53-.16-.29-.08-.52-.15-.7-.23-.18-.08-.33-.2-.46-.36-.13-.16-.19-.38-.19-.65,0-.25.06-.47.19-.66.13-.19.3-.33.53-.43.23-.1.49-.15.79-.15.42,0,.77.11,1.04.32s.42.5.45.87h-.79c-.01-.16-.09-.3-.23-.41s-.32-.17-.55-.17c-.21,0-.37.05-.5.16-.13.11-.2.26-.2.45,0,.13.04.24.12.33.08.09.19.15.31.21.13.05.3.1.52.16.29.08.52.16.71.24.18.08.34.2.47.37.13.17.19.39.19.66,0,.22-.06.43-.18.63-.12.2-.29.36-.52.48-.23.12-.5.18-.81.18-.29,0-.56-.05-.79-.15Z"/><path class="cls-6" d="M289.69,212.64v.58h-1.86v1.29h1.45v.58h-1.45v1.91h-.72v-4.37h2.57Z"/></g></g><path class="cls-24" d="M304.46,209.77h25.98c1.74,0,3.15,1.41,3.15,3.15h0c0,1.74-1.41,3.16-3.15,3.16h-25.98c-1.74,0-3.15-1.41-3.15-3.15h0c0-1.74,1.41-3.16,3.15-3.16Z"/><polygon class="cls-14" points="363.99 212.3 366.59 214.9 363.99 217.5 363.99 216.5 365.59 214.9 363.99 213.3 363.99 212.3"/><rect class="cls-2" x="415.15" y="125.53" width="105.7" height="31.38"/><path class="cls-17" d="M439.1,140.91c0-4.44-3.6-8.03-8.03-8.03s-8.03,3.6-8.03,8.03,3.6,8.03,8.03,8.03,8.03-3.6,8.03-8.03Z"/><g class="cls-28"><g class="cls-28"><path class="cls-6" d="M430.72,139.08c.35.18.62.43.81.77s.29.72.29,1.17-.1.83-.29,1.16-.46.58-.81.75c-.35.17-.76.26-1.22.26h-1.43v-4.37h1.43c.47,0,.87.09,1.22.27ZM430.68,142.18c.27-.28.41-.67.41-1.17s-.14-.9-.41-1.19-.67-.43-1.18-.43h-.71v3.2h.71c.51,0,.9-.14,1.18-.42Z"/><path class="cls-6" d="M434.92,138.81v3.15c0,.39-.12.7-.36.92s-.55.34-.93.34-.7-.11-.93-.34-.36-.53-.36-.92h.72c0,.19.05.35.15.46.09.11.23.17.42.17s.32-.06.42-.17c.1-.12.14-.27.14-.46v-3.15h.72Z"/></g></g><path class="cls-24" d="M445.08,136.1h35.59c1.74,0,3.15,1.41,3.15,3.15h0c0,1.74-1.41,3.16-3.16,3.16h-35.59c-1.74,0-3.15-1.41-3.15-3.15h0c0-1.74,1.41-3.16,3.16-3.16Z"/><polygon class="cls-14" points="508.91 138.63 511.51 141.23 508.91 143.82 508.91 142.82 510.51 141.23 508.91 139.63 508.91 138.63"/><rect class="cls-2" x="415.15" y="156.92" width="105.7" height="31.38"/><path class="cls-16" d="M439.1,172.29c0-4.44-3.6-8.03-8.03-8.03s-8.03,3.6-8.03,8.03,3.6,8.03,8.03,8.03,8.03-3.6,8.03-8.03Z"/><g class="cls-28"><g class="cls-28"><path class="cls-6" d="M429.26,170.14v3.15c0,.39-.12.7-.36.92s-.55.34-.93.34-.7-.11-.93-.34-.36-.53-.36-.92h.72c0,.19.05.35.15.46.09.11.23.17.42.17s.32-.06.42-.17c.1-.12.14-.27.14-.46v-3.15h.72Z"/><path class="cls-6" d="M435.02,170.14v4.37h-.72v-2.99l-1.33,2.99h-.5l-1.34-2.99v2.99h-.72v-4.37h.77l1.53,3.43,1.53-3.43h.77Z"/></g></g><path class="cls-24" d="M445.08,167.48h40.4c1.74,0,3.15,1.41,3.15,3.15h0c0,1.74-1.41,3.15-3.15,3.15h-40.4c-1.74,0-3.15-1.41-3.15-3.15h0c0-1.74,1.41-3.15,3.15-3.15Z"/><polygon class="cls-14" points="508.91 170.01 511.51 172.61 508.91 175.21 508.91 174.21 510.51 172.61 508.91 171.01 508.91 170.01"/><rect class="cls-2" x="415.15" y="188.3" width="105.7" height="31.38"/><path class="cls-7" d="M439.1,203.68c0-4.44-3.6-8.03-8.03-8.03s-8.03,3.6-8.03,8.03,3.6,8.03,8.03,8.03,8.03-3.6,8.03-8.03Z"/><g class="cls-28"><g class="cls-28"><path class="cls-6" d="M427.25,202.51c.2-.34.47-.6.81-.79.34-.19.72-.29,1.12-.29.47,0,.88.11,1.24.34.36.23.63.55.79.97h-.86c-.11-.23-.27-.4-.47-.52s-.43-.17-.7-.17c-.29,0-.55.06-.77.19s-.4.32-.53.56-.19.53-.19.85.06.61.19.85.3.43.53.56.48.2.77.2c.26,0,.5-.06.7-.17s.36-.29.47-.52h.86c-.16.42-.43.74-.79.97-.36.23-.78.34-1.24.34-.41,0-.79-.1-1.13-.29-.34-.19-.61-.46-.81-.8-.2-.34-.3-.72-.3-1.15s.1-.81.3-1.15Z"/><path class="cls-6" d="M435.65,205.86h-.72l-2.16-3.26v3.26h-.72v-4.38h.72l2.16,3.26v-3.26h.72v4.38Z"/></g></g><path class="cls-24" d="M445.08,198.87h54.36c1.74,0,3.15,1.41,3.15,3.15h0c0,1.74-1.41,3.16-3.16,3.16h-54.36c-1.74,0-3.15-1.41-3.15-3.15h0c0-1.74,1.41-3.15,3.15-3.15h0Z"/><polygon class="cls-14" points="508.91 201.4 511.51 203.99 508.91 206.59 508.91 205.59 510.51 203.99 508.91 202.4 508.91 201.4"/><rect class="cls-4" x="415.15" y="219.69" width="105.7" height="31.38"/><g class="cls-28"><g class="cls-28"><path class="cls-6" d="M429.47,238.91c-.24-.1-.42-.25-.55-.44-.13-.19-.2-.41-.2-.66h.77c.02.19.09.34.22.47.13.12.32.18.56.18s.44-.06.58-.18c.14-.12.21-.27.21-.46,0-.15-.04-.27-.13-.36-.09-.09-.19-.16-.32-.21-.13-.05-.3-.11-.53-.16-.29-.08-.52-.15-.7-.23-.18-.08-.33-.2-.46-.36-.13-.16-.19-.38-.19-.65,0-.25.06-.47.19-.66.13-.19.3-.33.53-.43s.49-.15.79-.15c.42,0,.77.11,1.04.32s.42.5.45.87h-.79c-.01-.16-.09-.3-.23-.41s-.32-.17-.55-.17c-.21,0-.37.05-.5.16-.13.11-.2.26-.2.45,0,.13.04.24.12.33.08.09.19.15.31.21.13.05.3.1.52.16.29.08.53.16.71.24.18.08.34.2.47.37.13.17.19.39.19.66,0,.22-.06.43-.18.63-.12.2-.29.36-.52.48-.23.12-.5.18-.81.18-.29,0-.56-.05-.79-.15Z"/><path class="cls-6" d="M435.19,234.65v.58h-1.86v1.29h1.45v.58h-1.45v1.91h-.72v-4.37h2.57Z"/></g></g><g class="cls-28"><g class="cls-28"><path class="cls-27" d="M443.33,237.16h-2.18l-.37,1.06h-.89l1.86-5.21h.99l1.86,5.21h-.9l-.37-1.06ZM443.09,236.46l-.85-2.42-.85,2.42h1.7Z"/><path class="cls-27" d="M445.38,235.04c.17-.32.41-.57.7-.74.3-.18.63-.27.99-.27.27,0,.54.06.8.18s.47.27.62.47v-1.99h.86v5.54h-.86v-.62c-.14.2-.33.36-.58.49s-.53.19-.85.19c-.36,0-.69-.09-.98-.27-.3-.18-.53-.44-.7-.76-.17-.33-.26-.7-.26-1.11s.09-.78.26-1.1ZM448.32,235.42c-.12-.21-.27-.37-.46-.48-.19-.11-.39-.16-.61-.16s-.42.05-.61.16-.34.26-.46.47-.18.45-.18.74.06.53.18.75c.12.21.27.38.46.49.19.11.4.17.61.17s.42-.05.61-.17c.19-.11.34-.27.46-.48s.18-.46.18-.74-.06-.53-.18-.74Z"/><path class="cls-27" d="M450.45,235.04c.17-.32.41-.57.7-.74.3-.18.63-.27.99-.27.27,0,.54.06.8.18s.47.27.62.47v-1.99h.86v5.54h-.86v-.62c-.14.2-.33.36-.58.49s-.53.19-.85.19c-.36,0-.69-.09-.98-.27-.3-.18-.53-.44-.7-.76-.17-.33-.26-.7-.26-1.11s.09-.78.26-1.1ZM453.39,235.42c-.12-.21-.27-.37-.46-.48-.19-.11-.39-.16-.61-.16s-.42.05-.61.16-.34.26-.46.47-.18.45-.18.74.06.53.18.75c.12.21.27.38.46.49.19.11.4.17.61.17s.42-.05.61-.17c.19-.11.34-.27.46-.48s.18-.46.18-.74-.06-.53-.18-.74Z"/><path class="cls-27" d="M458.49,234.79v2.28c0,.15.04.27.11.33s.2.1.37.1h.52v.71h-.67c-.38,0-.68-.09-.88-.27-.21-.18-.31-.47-.31-.88v-2.28h-.49v-.7h.49v-1.03h.86v1.03h1v.7h-1Z"/><path class="cls-27" d="M460.32,233.4c-.1-.11-.16-.23-.16-.39s.05-.28.16-.39.23-.16.39-.16.28.05.38.16.16.23.16.39-.05.28-.16.39c-.1.1-.23.16-.38.16s-.28-.05-.39-.16ZM461.13,234.1v4.12h-.85v-4.12h.85Z"/><path class="cls-27" d="M462.22,235.04c.17-.32.41-.57.71-.74.3-.17.65-.26,1.05-.26.5,0,.91.12,1.24.35.33.24.55.58.66,1.01h-.92c-.08-.2-.2-.36-.36-.48-.17-.11-.37-.17-.62-.17-.35,0-.63.12-.83.37s-.31.59-.31,1.04.1.79.31,1.04c.21.25.49.37.83.37.49,0,.82-.22.98-.65h.92c-.12.42-.34.75-.67,1s-.74.37-1.23.37c-.39,0-.74-.09-1.05-.27-.3-.18-.54-.43-.71-.75-.17-.32-.26-.69-.26-1.12s.09-.8.26-1.12Z"/><path class="cls-27" d="M468.37,236.16l1.9,2.06h-1.15l-1.53-1.77v1.77h-.85v-5.54h.85v3.22l1.5-1.8h1.18l-1.9,2.06Z"/><path class="cls-27" d="M474.63,236.48h-3.15c.02.33.15.59.37.79.22.2.49.3.81.3.46,0,.78-.19.97-.58h.92c-.12.38-.35.69-.68.93-.33.24-.73.36-1.21.36-.39,0-.75-.09-1.06-.27s-.56-.43-.73-.75-.27-.69-.27-1.12.09-.8.26-1.12c.17-.32.41-.57.73-.74s.67-.26,1.07-.26.74.08,1.04.25c.3.17.54.41.71.71.17.31.25.66.25,1.06,0,.16,0,.29-.03.42ZM473.77,235.79c0-.31-.12-.57-.34-.76s-.49-.28-.82-.28c-.29,0-.55.09-.75.28-.21.19-.33.44-.37.76h2.28Z"/><path class="cls-27" d="M476.49,234.79v2.28c0,.15.04.27.11.33s.2.1.37.1h.52v.71h-.67c-.38,0-.68-.09-.88-.27-.21-.18-.31-.47-.31-.88v-2.28h-.49v-.7h.49v-1.03h.86v1.03h1v.7h-1Z"/><path class="cls-27" d="M483.2,234.23c.25.13.44.33.58.6.14.26.21.58.21.96v2.43h-.84v-2.3c0-.37-.09-.65-.28-.85-.18-.2-.44-.3-.75-.3s-.57.1-.76.3c-.19.2-.28.48-.28.85v2.3h-.85v-5.54h.85v1.89c.14-.17.33-.31.55-.4s.46-.14.73-.14c.31,0,.59.07.84.2Z"/><path class="cls-27" d="M488.83,236.48h-3.15c.03.33.15.59.37.79.22.2.49.3.81.3.46,0,.78-.19.97-.58h.92c-.12.38-.35.69-.68.93-.33.24-.73.36-1.22.36-.39,0-.75-.09-1.06-.27s-.56-.43-.73-.75c-.18-.32-.27-.69-.27-1.12s.09-.8.26-1.12.41-.57.73-.74.67-.26,1.07-.26.74.08,1.04.25c.3.17.54.41.71.71.17.31.25.66.25,1.06,0,.16-.01.29-.03.42ZM487.96,235.79c0-.31-.12-.57-.34-.76-.22-.19-.49-.28-.82-.28-.29,0-.55.09-.76.28-.21.19-.33.44-.37.76h2.28Z"/><path class="cls-27" d="M491.04,234.21c.21-.12.45-.18.74-.18v.88h-.22c-.33,0-.59.08-.76.25-.17.17-.26.46-.26.88v2.17h-.85v-4.12h.85v.6c.12-.21.29-.37.5-.49Z"/><path class="cls-27" d="M496.31,236.48h-3.15c.03.33.15.59.37.79.22.2.49.3.81.3.46,0,.78-.19.97-.58h.92c-.12.38-.35.69-.68.93-.33.24-.73.36-1.22.36-.39,0-.75-.09-1.06-.27s-.56-.43-.73-.75c-.18-.32-.27-.69-.27-1.12s.09-.8.26-1.12.41-.57.73-.74.67-.26,1.07-.26.74.08,1.04.25c.3.17.54.41.71.71.17.31.25.66.25,1.06,0,.16-.01.29-.03.42ZM495.45,235.79c0-.31-.12-.57-.34-.76-.22-.19-.49-.28-.82-.28-.29,0-.55.09-.76.28-.21.19-.33.44-.37.76h2.28Z"/></g></g><g class="cls-28"><g class="cls-28"><path class="cls-22" d="M172.04,104.83l-1.2-2.08h-.65v2.08h-.85v-5.2h1.79c.4,0,.74.07,1.01.21s.48.33.62.56c.14.23.21.5.21.79,0,.34-.1.65-.3.92-.2.28-.5.46-.91.56l1.29,2.15h-1.02ZM170.19,102.07h.94c.32,0,.56-.08.72-.24.16-.16.24-.37.24-.64s-.08-.48-.24-.63c-.16-.15-.4-.23-.73-.23h-.94v1.74Z"/><path class="cls-22" d="M177.82,103.09h-3.15c.02.33.15.59.37.79.22.2.49.3.81.3.46,0,.78-.19.97-.58h.92c-.12.38-.35.69-.68.93-.33.24-.73.36-1.22.36-.39,0-.75-.09-1.06-.27s-.56-.43-.73-.75c-.18-.32-.27-.69-.27-1.12s.09-.8.26-1.12c.17-.32.41-.57.73-.74s.67-.26,1.07-.26.74.08,1.04.25c.3.17.54.41.71.71s.25.66.25,1.06c0,.16-.01.29-.03.42ZM176.96,102.4c0-.31-.12-.57-.34-.76-.22-.19-.49-.28-.82-.28-.29,0-.55.09-.76.28-.21.19-.33.44-.37.76h2.28Z"/><path class="cls-22" d="M184.54,100.84c.26.13.46.33.61.6.15.26.22.58.22.96v2.43h-.85v-2.3c0-.37-.09-.65-.28-.85-.18-.2-.44-.3-.76-.3s-.57.1-.76.3c-.19.2-.28.48-.28.85v2.3h-.85v-2.3c0-.37-.09-.65-.28-.85-.18-.2-.44-.3-.76-.3s-.57.1-.76.3c-.19.2-.28.48-.28.85v2.3h-.85v-4.12h.85v.47c.14-.17.32-.3.53-.4s.44-.14.69-.14c.33,0,.62.07.88.21s.46.34.6.61c.12-.25.32-.45.58-.59.26-.15.55-.22.85-.22.32,0,.61.07.87.2Z"/><path class="cls-22" d="M187.19,104.63c-.31-.18-.56-.43-.74-.75-.18-.32-.27-.69-.27-1.12s.09-.79.28-1.11.44-.57.76-.75.68-.26,1.07-.26.75.09,1.07.26c.32.17.57.42.76.75.18.32.28.7.28,1.11s-.09.79-.28,1.11-.45.58-.77.75-.69.27-1.08.27-.74-.09-1.05-.27ZM188.86,104c.19-.1.35-.26.47-.47.12-.21.18-.46.18-.76s-.06-.55-.17-.76c-.11-.21-.27-.36-.46-.47s-.39-.16-.61-.16-.42.05-.61.16-.34.26-.45.47c-.11.21-.16.46-.16.76,0,.44.11.79.34,1.03.23.24.51.36.86.36.22,0,.43-.05.62-.16Z"/><path class="cls-22" d="M192.58,100.82c.21-.12.45-.18.74-.18v.88h-.22c-.33,0-.59.08-.76.25-.17.17-.26.46-.26.88v2.17h-.85v-4.12h.85v.6c.12-.21.29-.37.5-.49Z"/><path class="cls-22" d="M195.09,101.4v2.28c0,.15.04.27.11.33s.2.1.37.1h.52v.71h-.67c-.38,0-.68-.09-.88-.27-.2-.18-.31-.47-.31-.88v-2.28h-.49v-.7h.49v-1.03h.86v1.03h1v.7h-1Z"/><path class="cls-22" d="M199.39,100.83c.25.13.44.29.58.47v-.6h.86v4.19c0,.38-.08.72-.24,1.01s-.39.53-.69.7-.66.25-1.08.25c-.56,0-1.02-.13-1.39-.39s-.58-.62-.63-1.07h.85c.06.21.2.39.42.52.21.13.46.2.76.2.34,0,.62-.1.83-.31.21-.21.32-.51.32-.91v-.69c-.15.19-.34.36-.59.49-.25.13-.53.2-.84.2-.36,0-.69-.09-.98-.27-.3-.18-.53-.44-.7-.76-.17-.33-.26-.7-.26-1.11s.09-.78.26-1.1c.17-.32.41-.57.7-.74.3-.18.62-.27.98-.27.32,0,.6.06.85.19ZM199.8,102.03c-.12-.21-.27-.37-.46-.48-.19-.11-.39-.16-.61-.16s-.42.05-.61.16-.34.26-.46.47-.18.45-.18.74.06.53.18.75c.12.21.27.38.46.49s.4.17.61.17.42-.05.61-.17c.19-.11.34-.27.46-.48s.18-.46.18-.74-.06-.53-.18-.74Z"/><path class="cls-22" d="M201.93,101.65c.17-.32.41-.57.7-.74.3-.18.62-.27.98-.27.32,0,.61.06.85.19.24.13.44.29.58.47v-.6h.86v4.12h-.86v-.61c-.15.19-.34.36-.59.49-.25.13-.53.19-.85.19-.35,0-.68-.09-.97-.27-.29-.18-.53-.44-.7-.76-.17-.33-.26-.7-.26-1.11s.09-.78.26-1.1ZM204.87,102.03c-.12-.21-.27-.37-.46-.48-.19-.11-.39-.16-.61-.16s-.42.05-.61.16-.34.26-.46.47-.18.45-.18.74.06.53.18.75c.12.21.27.38.46.49s.4.17.61.17.42-.05.61-.17c.19-.11.34-.27.46-.48s.18-.46.18-.74-.06-.53-.18-.74Z"/><path class="cls-22" d="M209.53,100.83c.25.13.44.29.58.47v-.6h.86v4.19c0,.38-.08.72-.24,1.01s-.39.53-.69.7-.66.25-1.08.25c-.56,0-1.02-.13-1.39-.39s-.58-.62-.63-1.07h.85c.06.21.2.39.42.52.21.13.46.2.76.2.34,0,.62-.1.83-.31.21-.21.32-.51.32-.91v-.69c-.15.19-.34.36-.59.49-.25.13-.53.2-.84.2-.36,0-.69-.09-.98-.27-.3-.18-.53-.44-.7-.76-.17-.33-.26-.7-.26-1.11s.09-.78.26-1.1c.17-.32.41-.57.7-.74.3-.18.62-.27.98-.27.32,0,.6.06.85.19ZM209.94,102.03c-.12-.21-.27-.37-.46-.48-.19-.11-.39-.16-.61-.16s-.42.05-.61.16-.34.26-.46.47-.18.45-.18.74.06.53.18.75c.12.21.27.38.46.49s.4.17.61.17.42-.05.61-.17c.19-.11.34-.27.46-.48s.18-.46.18-.74-.06-.53-.18-.74Z"/><path class="cls-22" d="M215.84,103.09h-3.15c.02.33.15.59.37.79.22.2.49.3.81.3.46,0,.78-.19.97-.58h.92c-.12.38-.35.69-.68.93-.33.24-.73.36-1.22.36-.39,0-.75-.09-1.06-.27s-.56-.43-.73-.75c-.18-.32-.27-.69-.27-1.12s.09-.8.26-1.12c.17-.32.41-.57.73-.74s.67-.26,1.07-.26.74.08,1.04.25c.3.17.54.41.71.71s.25.66.25,1.06c0,.16-.01.29-.03.42ZM214.98,102.4c0-.31-.12-.57-.34-.76-.22-.19-.49-.28-.82-.28-.29,0-.55.09-.76.28-.21.19-.33.44-.37.76h2.28Z"/><path class="cls-22" d="M218.43,100.16v-.78h1.56v5.45h-.86v-4.67h-.7Z"/></g></g><g class="cls-28"><g class="cls-28"><path class="cls-22" d="M292.77,100.85c.24-.4.56-.72.97-.95.41-.23.85-.34,1.33-.34.55,0,1.05.14,1.48.41.43.27.74.66.94,1.16h-1.03c-.13-.27-.32-.48-.56-.61-.24-.13-.52-.2-.83-.2-.34,0-.65.08-.92.23-.27.15-.48.38-.63.67-.15.29-.23.63-.23,1.01s.08.72.23,1.01c.15.29.36.51.63.67.27.16.58.24.92.24.31,0,.59-.07.83-.2s.43-.34.56-.61h1.03c-.19.5-.51.88-.94,1.15-.43.27-.92.4-1.48.4-.49,0-.94-.11-1.34-.34-.4-.23-.72-.54-.96-.95-.24-.4-.35-.86-.35-1.37s.12-.96.35-1.37Z"/><path class="cls-22" d="M298.46,101.65c.17-.32.41-.57.7-.74.3-.18.62-.27.98-.27.32,0,.61.06.85.19.24.13.44.29.58.47v-.6h.86v4.12h-.86v-.61c-.14.19-.34.36-.59.49s-.53.19-.85.19c-.35,0-.68-.09-.97-.27-.29-.18-.53-.44-.7-.76-.17-.33-.26-.7-.26-1.11s.09-.78.26-1.1ZM301.4,102.03c-.12-.21-.27-.37-.46-.48-.19-.11-.39-.16-.61-.16s-.42.05-.61.16-.34.26-.46.47-.18.45-.18.74.06.53.18.75c.12.21.27.38.46.49.19.11.39.17.61.17s.42-.05.61-.17c.19-.11.34-.27.46-.48s.18-.46.18-.74-.06-.53-.18-.74Z"/><path class="cls-22" d="M304.41,99.3v5.54h-.85v-5.54h.85Z"/><path class="cls-22" d="M306.38,99.3v5.54h-.85v-5.54h.85Z"/><path class="cls-22" d="M312.94,102.6c.19.25.29.52.29.83,0,.26-.07.5-.21.71-.14.21-.33.38-.59.5-.26.12-.56.18-.9.18h-2.08v-5.2h1.98c.35,0,.66.06.91.18.25.12.45.28.58.48.13.2.19.43.19.68,0,.3-.08.55-.24.75-.16.2-.37.35-.64.44.28.05.52.2.71.44ZM310.3,101.82h1.05c.28,0,.5-.06.66-.19.16-.13.24-.31.24-.55s-.08-.42-.24-.55c-.16-.13-.38-.2-.66-.2h-1.05v1.49ZM312.13,103.92c.16-.14.25-.33.25-.58s-.09-.46-.26-.61c-.17-.15-.41-.22-.7-.22h-1.12v1.62h1.15c.29,0,.52-.07.68-.21Z"/><path class="cls-22" d="M314.13,101.65c.17-.32.41-.57.7-.74.3-.18.62-.27.98-.27.32,0,.61.06.85.19.24.13.44.29.58.47v-.6h.86v4.12h-.86v-.61c-.14.19-.34.36-.59.49s-.53.19-.85.19c-.35,0-.68-.09-.97-.27-.29-.18-.53-.44-.7-.76-.17-.33-.26-.7-.26-1.11s.09-.78.26-1.1ZM317.07,102.03c-.12-.21-.27-.37-.46-.48-.19-.11-.39-.16-.61-.16s-.42.05-.61.16-.34.26-.46.47-.18.45-.18.74.06.53.18.75c.12.21.27.38.46.49.19.11.39.17.61.17s.42-.05.61-.17c.19-.11.34-.27.46-.48s.18-.46.18-.74-.06-.53-.18-.74Z"/><path class="cls-22" d="M319.21,101.65c.17-.32.41-.57.71-.74.3-.17.65-.26,1.05-.26.5,0,.91.12,1.24.35.33.24.55.58.66,1.01h-.92c-.07-.2-.19-.36-.36-.48-.16-.11-.37-.17-.62-.17-.35,0-.63.12-.83.37s-.31.59-.31,1.04.1.79.31,1.04c.21.25.48.37.83.37.49,0,.82-.22.98-.65h.92c-.12.42-.34.75-.67,1s-.74.37-1.23.37c-.39,0-.74-.09-1.05-.27-.3-.18-.54-.43-.71-.75s-.26-.69-.26-1.12.09-.8.26-1.12Z"/><path class="cls-22" d="M325.35,102.77l1.9,2.06h-1.15l-1.53-1.77v1.77h-.85v-5.54h.85v3.22l1.5-1.8h1.18l-1.9,2.06Z"/><path class="cls-22" d="M330.17,103.67c.48-.41.86-.75,1.13-1.02.28-.27.51-.54.69-.83s.28-.58.28-.87-.07-.53-.21-.7c-.14-.17-.37-.25-.67-.25s-.52.09-.68.28c-.16.19-.25.44-.26.75h-.82c.02-.57.19-1,.51-1.3.33-.3.74-.45,1.25-.45.54,0,.97.15,1.28.45s.46.7.46,1.2c0,.36-.09.71-.27,1.04-.18.33-.4.63-.65.89s-.57.56-.96.91l-.34.3h2.37v.71h-3.63v-.62l.54-.46Z"/></g></g><g class="cls-28"><g class="cls-28"><path class="cls-22" d="M422.08,99.63v5.2h-.85v-3.56l-1.59,3.56h-.59l-1.59-3.56v3.56h-.85v-5.2h.92l1.83,4.08,1.82-4.08h.91Z"/><path class="cls-22" d="M426.95,103.09h-3.15c.03.33.15.59.37.79.22.2.49.3.81.3.46,0,.78-.19.97-.58h.92c-.12.38-.35.69-.68.93-.33.24-.73.36-1.22.36-.39,0-.75-.09-1.06-.27s-.56-.43-.73-.75c-.18-.32-.27-.69-.27-1.12s.09-.8.26-1.12.41-.57.73-.74.67-.26,1.07-.26.74.08,1.04.25c.3.17.54.41.71.71.17.31.25.66.25,1.06,0,.16-.01.29-.03.42ZM426.08,102.4c0-.31-.12-.57-.34-.76-.22-.19-.49-.28-.82-.28-.29,0-.55.09-.76.28-.21.19-.33.44-.37.76h2.28Z"/><path class="cls-22" d="M431.56,103.09h-3.15c.03.33.15.59.37.79.22.2.49.3.81.3.46,0,.78-.19.97-.58h.92c-.12.38-.35.69-.68.93-.33.24-.73.36-1.22.36-.39,0-.75-.09-1.06-.27s-.56-.43-.73-.75c-.18-.32-.27-.69-.27-1.12s.09-.8.26-1.12.41-.57.73-.74.67-.26,1.07-.26.74.08,1.04.25c.3.17.54.41.71.71.17.31.25.66.25,1.06,0,.16-.01.29-.03.42ZM430.7,102.4c0-.31-.12-.57-.34-.76-.22-.19-.49-.28-.82-.28-.29,0-.55.09-.76.28-.21.19-.33.44-.37.76h2.28Z"/><path class="cls-22" d="M433.42,101.4v2.28c0,.15.04.27.11.33s.2.1.37.1h.52v.71h-.67c-.38,0-.68-.09-.88-.27s-.31-.47-.31-.88v-2.28h-.49v-.7h.49v-1.03h.86v1.03h1v.7h-1Z"/><path class="cls-22" d="M435.26,100.01c-.11-.11-.16-.23-.16-.39s.05-.28.16-.39c.1-.1.23-.16.39-.16s.28.05.38.16c.1.1.16.23.16.39s-.05.28-.16.39c-.11.1-.23.16-.38.16s-.28-.05-.39-.16ZM436.06,100.71v4.12h-.85v-4.12h.85Z"/><path class="cls-22" d="M440.14,100.84c.26.13.46.33.6.6.14.26.22.58.22.96v2.43h-.84v-2.3c0-.37-.09-.65-.28-.85-.18-.2-.44-.3-.75-.3s-.57.1-.76.3c-.19.2-.28.48-.28.85v2.3h-.85v-4.12h.85v.47c.14-.17.32-.3.54-.4.22-.09.45-.14.69-.14.32,0,.61.07.87.2Z"/><path class="cls-22" d="M444.55,100.83c.25.13.44.29.58.47v-.6h.86v4.19c0,.38-.08.72-.24,1.01-.16.3-.39.53-.69.7s-.66.25-1.08.25c-.56,0-1.02-.13-1.39-.39s-.58-.62-.63-1.07h.85c.06.21.2.39.42.52s.46.2.76.2c.34,0,.62-.1.83-.31.21-.21.32-.51.32-.91v-.69c-.14.19-.34.36-.59.49s-.53.2-.84.2c-.36,0-.69-.09-.98-.27-.3-.18-.53-.44-.7-.76-.17-.33-.26-.7-.26-1.11s.09-.78.26-1.1.41-.57.7-.74c.3-.18.62-.27.98-.27.32,0,.6.06.85.19ZM444.95,102.03c-.12-.21-.27-.37-.46-.48-.19-.11-.39-.16-.61-.16s-.42.05-.61.16-.34.26-.46.47-.18.45-.18.74.06.53.18.75c.12.21.27.38.46.49.19.11.39.17.61.17s.42-.05.61-.17c.19-.11.34-.27.46-.48s.18-.46.18-.74-.06-.53-.18-.74Z"/></g><g class="cls-28"><path class="cls-22" d="M449.47,99.64c.33-.26.74-.39,1.25-.39.35,0,.65.06.9.19.25.12.45.29.58.51.13.21.19.46.19.73,0,.31-.08.57-.25.79-.17.22-.36.37-.59.44v.03c.29.09.52.25.69.49.17.24.25.54.25.91,0,.29-.07.56-.2.79-.13.23-.33.41-.6.54-.26.13-.58.2-.95.2-.54,0-.98-.14-1.33-.42-.35-.28-.53-.67-.56-1.19h.82c.02.26.12.48.31.65.18.17.43.25.75.25s.54-.08.7-.25c.16-.17.25-.38.25-.65,0-.35-.11-.6-.33-.74-.22-.15-.56-.22-1.02-.22h-.19v-.7h.2c.4,0,.71-.07.92-.2s.32-.33.32-.61c0-.24-.08-.43-.23-.57-.15-.14-.37-.21-.66-.21s-.5.07-.65.21c-.16.14-.25.32-.28.53h-.83c.03-.46.21-.83.54-1.08Z"/></g></g><path class="cls-27" d="M466.87,0h39.05c5.54,0,10.04,4.5,10.04,10.04v36.73c0,5.54-4.5,10.04-10.04,10.04h-39.05c-5.54,0-10.04-4.5-10.04-10.04V10.04c0-5.54,4.5-10.04,10.04-10.04h0Z"/><path class="cls-20" d="M477.5,35.68h17.15v-.53c0-.25-.2-.56-.43-.91-.41-.63-.87-1.33-.87-2.43v-5.12c0-2.08-.85-3.98-2.23-5.35-1.37-1.37-3.26-2.23-5.35-2.23s-3.98.85-5.35,2.22c-1.37,1.38-2.23,3.27-2.23,5.35v5.12c0,1.1-.46,1.8-.87,2.43-.22.35-.43.66-.43.91v.53h.61ZM482.22,37.1c.12.77.49,1.46,1.01,1.99.65.65,1.56,1.06,2.55,1.06.43,0,.86-.08,1.25-.22.4-.15.77-.36,1.09-.64l.92,1.07c-.46.39-.97.69-1.53.9-.55.2-1.14.31-1.74.31-1.39,0-2.64-.56-3.55-1.47-.79-.79-1.31-1.83-1.44-2.99h-4.1c-.35,0-.65-.14-.86-.37-.21-.22-.33-.53-.33-.85v-.72c0-.67.31-1.15.66-1.68.3-.46.64-.97.64-1.65v-5.12c0-2.47,1.01-4.72,2.64-6.35,1.47-1.47,3.45-2.44,5.64-2.61v-2.47h1.42v2.47c2.19.17,4.17,1.14,5.64,2.61,1.63,1.63,2.64,3.87,2.64,6.35v5.12c0,.68.34,1.2.64,1.66.35.53.66,1.01.66,1.68v.72c0,.32-.12.63-.33.85-.21.23-.51.37-.86.37h-12.66v-.02Z"/><path class="cls-15" d="M496.57,21.81c0-2.41-1.96-4.37-4.37-4.37s-4.37,1.96-4.37,4.37,1.96,4.37,4.37,4.37,4.37-1.96,4.37-4.37Z"/><path class="cls-20" d="M495.87,21.81c0-1.01-.41-1.93-1.07-2.59s-1.58-1.07-2.59-1.07-1.93.41-2.59,1.07-1.07,1.58-1.07,2.59.41,1.93,1.07,2.59,1.58,1.07,2.59,1.07,1.93-.41,2.59-1.07,1.07-1.58,1.07-2.59h0ZM495.8,18.22c.92.92,1.49,2.19,1.49,3.59s-.57,2.67-1.49,3.59c-.92.92-2.19,1.49-3.59,1.49s-2.67-.57-3.59-1.49c-.92-.92-1.49-2.19-1.49-3.59s.57-2.67,1.49-3.59c.92-.92,2.19-1.49,3.59-1.49s2.67.57,3.59,1.49Z"/><g class="cls-28"><g class="cls-28"><path class="cls-22" d="M201.33,148.43v1.62c0,.11.03.19.08.24s.14.07.26.07h.37v.5h-.48c-.27,0-.48-.06-.63-.19-.14-.13-.22-.33-.22-.62v-1.62h-.34v-.49h.34v-.73h.61v.73h.71v.49h-.71Z"/><path class="cls-22" d="M202.85,150.04c.34-.29.61-.53.8-.72.2-.19.36-.39.49-.59.13-.21.2-.41.2-.62s-.05-.38-.15-.5-.26-.18-.47-.18-.37.07-.48.2-.18.31-.18.53h-.58c.01-.4.13-.71.36-.92.23-.21.53-.32.88-.32.38,0,.69.11.9.32s.33.49.33.85c0,.25-.06.5-.19.73-.13.23-.28.45-.46.63-.18.19-.41.4-.68.64l-.24.21h1.68v.5h-2.58v-.44l.38-.33Z"/><path class="cls-22" d="M209.7,148.24c-.1-.18-.23-.32-.4-.42-.17-.09-.37-.14-.59-.14-.24,0-.46.05-.65.16s-.34.26-.45.47c-.11.2-.16.43-.16.7s.05.5.16.7c.11.2.26.36.45.47.19.11.41.17.65.17.33,0,.6-.09.8-.28.21-.18.33-.43.38-.75h-1.38v-.48h2.03v.47c-.04.29-.14.55-.3.79-.16.24-.38.43-.64.58-.26.14-.56.21-.88.21-.35,0-.66-.08-.95-.24-.29-.16-.51-.38-.68-.67s-.25-.61-.25-.97.08-.68.25-.97.4-.51.68-.67c.29-.16.6-.24.95-.24.39,0,.74.1,1.05.29.31.19.53.47.67.82h-.73Z"/><path class="cls-22" d="M211.74,146.94v3.92h-.6v-3.92h.6Z"/><path class="cls-22" d="M215.19,149.62h-2.23c.02.23.1.42.26.56.16.14.35.21.57.21.32,0,.55-.14.69-.41h.65c-.09.27-.25.49-.48.66-.23.17-.52.26-.86.26-.28,0-.53-.06-.75-.19-.22-.12-.39-.3-.52-.53-.13-.23-.19-.49-.19-.79s.06-.56.18-.79c.12-.23.29-.4.51-.53.22-.12.47-.19.76-.19s.52.06.74.18c.22.12.38.29.5.51.12.22.18.47.18.75,0,.11,0,.21-.02.3ZM214.58,149.14c0-.22-.08-.4-.24-.54-.16-.13-.35-.2-.58-.2-.21,0-.39.07-.54.2-.15.13-.24.31-.27.54h1.62Z"/><path class="cls-22" d="M217.89,148.03c.18.1.32.24.43.42.1.19.15.41.15.68v1.72h-.6v-1.63c0-.26-.07-.46-.2-.6-.13-.14-.31-.21-.54-.21s-.41.07-.54.21c-.13.14-.2.34-.2.6v1.63h-.6v-2.92h.6v.33c.1-.12.23-.21.38-.28.15-.07.32-.1.49-.1.23,0,.44.05.62.14Z"/><path class="cls-22" d="M220.27,148.03c.18-.09.38-.13.6-.13.26,0,.49.06.7.19.21.12.37.3.49.53.12.23.18.49.18.78s-.06.56-.18.79-.29.41-.5.54c-.21.13-.44.19-.7.19-.23,0-.43-.04-.6-.13-.18-.09-.31-.2-.42-.34v.42h-.6v-3.92h.6v1.44c.1-.14.24-.26.42-.35ZM221.5,148.86c-.08-.15-.19-.26-.33-.33-.14-.08-.28-.11-.44-.11s-.3.04-.43.12c-.14.08-.25.19-.33.34-.08.15-.12.32-.12.52s.04.38.12.53c.08.15.19.26.33.34.14.08.28.12.43.12s.3-.04.44-.12c.14-.08.25-.19.33-.35s.12-.33.12-.53-.04-.38-.12-.52Z"/><path class="cls-22" d="M225.46,147.94l-1.79,4.29h-.63l.59-1.42-1.15-2.87h.67l.82,2.23.85-2.23h.63Z"/><path class="cls-22" d="M229.52,150.11h-1.54l-.26.75h-.63l1.32-3.69h.7l1.32,3.69h-.64l-.27-.75ZM229.35,149.61l-.6-1.71-.6,1.71h1.2Z"/><path class="cls-22" d="M232.12,150.32l.83-2.38h.64l-1.11,2.92h-.72l-1.11-2.92h.65l.83,2.38Z"/><path class="cls-22" d="M236.7,149.62h-2.23c.02.23.1.42.26.56.16.14.35.21.57.21.32,0,.55-.14.69-.41h.65c-.09.27-.25.49-.48.66-.23.17-.52.26-.86.26-.28,0-.53-.06-.75-.19-.22-.12-.39-.3-.52-.53-.13-.23-.19-.49-.19-.79s.06-.56.18-.79c.12-.23.29-.4.51-.53.22-.12.47-.19.76-.19s.52.06.74.18c.22.12.38.29.5.51.12.22.18.47.18.75,0,.11,0,.21-.02.3ZM236.09,149.14c0-.22-.08-.4-.24-.54-.16-.13-.35-.2-.58-.2-.21,0-.39.07-.54.2-.15.13-.24.31-.27.54h1.62Z"/><path class="cls-22" d="M238.95,150.04c.34-.29.61-.53.8-.72.2-.19.36-.39.49-.59.13-.21.2-.41.2-.62s-.05-.38-.15-.5-.26-.18-.47-.18-.37.07-.48.2-.18.31-.18.53h-.58c.01-.4.13-.71.36-.92.23-.21.53-.32.88-.32.38,0,.69.11.9.32s.33.49.33.85c0,.25-.06.5-.19.73-.13.23-.28.45-.46.63-.18.19-.41.4-.68.64l-.24.21h1.68v.5h-2.58v-.44l.38-.33Z"/><path class="cls-22" d="M242.04,147.18c.23-.18.53-.28.89-.28.25,0,.46.04.64.13s.32.21.41.36c.09.15.14.32.14.51,0,.22-.06.41-.17.56s-.26.26-.42.31v.02c.21.06.37.18.49.35s.17.38.17.64c0,.21-.05.39-.14.56-.1.16-.24.29-.42.38-.19.09-.41.14-.67.14-.38,0-.69-.1-.94-.29-.25-.2-.38-.48-.4-.84h.58c.01.19.09.34.22.46.13.12.31.18.53.18s.38-.06.5-.18c.12-.12.17-.27.17-.46,0-.25-.08-.42-.24-.53s-.4-.16-.72-.16h-.14v-.5h.14c.29,0,.5-.05.65-.14.15-.09.23-.24.23-.43,0-.17-.05-.3-.16-.41-.11-.1-.27-.15-.47-.15s-.35.05-.46.15-.17.23-.2.37h-.59c.02-.33.15-.58.38-.77Z"/><path class="cls-22" d="M245.13,147.44c.21-.34.56-.52,1.07-.52s.86.17,1.07.52c.21.34.31.82.31,1.43s-.1,1.1-.31,1.45c-.21.35-.56.52-1.07.52s-.86-.17-1.07-.52c-.21-.35-.31-.83-.31-1.45s.1-1.09.31-1.43ZM246.92,148.15c-.04-.2-.11-.36-.23-.49-.11-.12-.28-.19-.5-.19s-.39.06-.5.19c-.11.13-.19.29-.23.49-.04.2-.06.44-.06.73s.02.55.05.75c.04.2.11.36.23.49.11.12.28.19.51.19s.39-.06.51-.19c.11-.12.19-.29.23-.49.04-.2.05-.45.05-.75s-.02-.53-.06-.73Z"/></g><g class="cls-28"><path class="cls-22" d="M248.3,150.79c-.07-.07-.11-.17-.11-.28s.04-.2.11-.28.17-.11.28-.11.2.04.27.11.11.17.11.28-.04.2-.11.28-.16.11-.27.11-.2-.04-.28-.11Z"/><path class="cls-22" d="M249.84,147.44c.21-.34.56-.52,1.07-.52s.86.17,1.07.52c.21.34.31.82.31,1.43s-.1,1.1-.31,1.45c-.21.35-.56.52-1.07.52s-.86-.17-1.07-.52c-.21-.35-.31-.83-.31-1.45s.1-1.09.31-1.43ZM251.63,148.15c-.04-.2-.11-.36-.23-.49-.11-.12-.28-.19-.5-.19s-.39.06-.5.19c-.11.13-.19.29-.23.49-.04.2-.06.44-.06.73s.02.55.05.75c.04.2.11.36.23.49.11.12.28.19.51.19s.39-.06.51-.19c.11-.12.19-.29.23-.49.04-.2.05-.45.05-.75s-.02-.53-.06-.73Z"/><path class="cls-22" d="M253.23,147.44c.21-.34.56-.52,1.07-.52s.86.17,1.07.52c.21.34.31.82.31,1.43s-.1,1.1-.31,1.45c-.21.35-.56.52-1.07.52s-.86-.17-1.07-.52c-.21-.35-.31-.83-.31-1.45s.1-1.09.31-1.43ZM255.03,148.15c-.04-.2-.11-.36-.23-.49-.11-.12-.28-.19-.5-.19s-.39.06-.5.19c-.11.13-.19.29-.23.49-.04.2-.06.44-.06.73s.02.55.05.75c.04.2.11.36.23.49.11.12.28.19.51.19s.39-.06.51-.19c.11-.12.19-.29.23-.49.04-.2.05-.45.05-.75s-.02-.53-.06-.73Z"/></g></g><rect class="cls-23" x="139.95" y="125.8" width="9.49" height="9.49" rx=".93" ry=".93"/><path class="cls-5" d="M148.61,130.43h-5.91l-1.36-2.82,7.26,2.82h.01ZM148.61,130.73h-5.91l-1.36,2.82,7.26-2.82h.01Z"/><rect class="cls-23" x="139.95" y="157.18" width="9.49" height="9.49" rx=".93" ry=".93"/><path class="cls-5" d="M148.61,161.81h-5.91l-1.36-2.82,7.26,2.82h.01ZM148.61,162.12h-5.91l-1.36,2.82,7.26-2.82h.01Z"/><rect class="cls-23" x="139.95" y="188.57" width="9.49" height="9.49" rx=".93" ry=".93"/><path class="cls-5" d="M148.61,193.19h-5.91l-1.36-2.82,7.26,2.82h.01ZM148.61,193.5h-5.91l-1.36,2.82,7.26-2.82h.01Z"/><path class="cls-23" d="M265.43,125.8h7.62c.52,0,.93.42.93.93v7.62c0,.52-.42.93-.93.93h-7.62c-.52,0-.93-.42-.93-.93v-7.62c0-.52.42-.93.93-.93Z"/><path class="cls-5" d="M273.15,130.43h-5.91l-1.36-2.82,7.26,2.82h0ZM273.15,130.73h-5.91l-1.36,2.82,7.26-2.82h0Z"/><rect class="cls-23" x="387.73" y="125.8" width="9.49" height="9.49" rx=".93" ry=".93"/><path class="cls-5" d="M396.39,130.43h-5.91l-1.36-2.82,7.26,2.82h0ZM396.39,130.73h-5.91l-1.36,2.82,7.26-2.82h0Z"/><rect class="cls-23" x="387.73" y="157.18" width="9.49" height="9.49" rx=".93" ry=".93"/><path class="cls-5" d="M396.39,161.81h-5.91l-1.36-2.82,7.26,2.82h0ZM396.39,162.12h-5.91l-1.36,2.82,7.26-2.82h0Z"/><rect class="cls-23" x="366.17" y="199.48" width="9.49" height="9.49" rx=".93" ry=".93"/><path class="cls-5" d="M374.83,204.1h-5.91l-1.36-2.82,7.26,2.82h0ZM374.83,204.41h-5.91l-1.36,2.82,7.26-2.82h0Z"/><rect class="cls-23" x="511.09" y="157.18" width="9.49" height="9.49" rx=".93" ry=".93"/><path class="cls-5" d="M519.75,161.81h-5.91l-1.36-2.82,7.26,2.82h0ZM519.75,162.12h-5.91l-1.36,2.82,7.26-2.82h0Z"/><rect class="cls-23" x="511.09" y="125.8" width="9.49" height="9.49" rx=".93" ry=".93"/><path class="cls-5" d="M519.75,130.43h-5.91l-1.36-2.82,7.26,2.82h0ZM519.75,130.73h-5.91l-1.36,2.82,7.26-2.82h0Z"/><rect class="cls-23" x="511.09" y="188.57" width="9.49" height="9.49" rx=".93" ry=".93"/><path class="cls-5" d="M519.75,193.19h-5.91l-1.36-2.82,7.26,2.82h0ZM519.75,193.5h-5.91l-1.36,2.82,7.26-2.82h0Z"/><path class="cls-9" d="M343.12,214.54v1.56h1.52c-.04-.07-.06-.15-.06-.23,0-.26.21-.48.48-.48s.48.21.48.48h.07c.26,0,.48.21.48.48s-.21.48-.48.48h-.07c0,.27-.21.48-.48.48s-.48-.21-.48-.48c0-.05,0-.11.03-.16h-1.49v1.49s.1-.03.16-.03c.26,0,.48.21.48.48s-.21.48-.48.48h0v.07c0,.26-.21.48-.48.48s-.48-.21-.48-.48v-.07h0c-.26,0-.48-.21-.48-.48s.21-.48.48-.48c.08,0,.16.02.23.06v-1.52h-1.56s.03.1.03.16c0,.26-.21.48-.48.48s-.48-.21-.48-.48h-.07c-.26,0-.48-.21-.48-.48s.21-.48.48-.48h.07c0-.27.21-.48.48-.48s.48.21.48.48c0,.08-.02.16-.06.23h1.6v-1.6c-.07.04-.15.06-.23.06-.26,0-.48-.21-.48-.48s.21-.48.48-.48h0v-.07c0-.26.21-.48.48-.48s.48.21.48.48v.07h0c.26,0,.48.21.48.48s-.21.48-.48.48c-.05,0-.11,0-.16-.03h-.01Z"/></svg>