<?xml version="1.0" encoding="utf-8"?>
<!-- Generator: Adobe Illustrator 28.1.0, SVG Export Plug-In . SVG Version: 6.00 Build 0)  -->
<svg version="1.1" id="Layer_1" xmlns="http://www.w3.org/2000/svg" xmlns:xlink="http://www.w3.org/1999/xlink" x="0px" y="0px"
	 viewBox="0 0 504 344" style="enable-background:new 0 0 504 344;" xml:space="preserve">
<style type="text/css">
	.st0{fill:#F8F8F9;}
	.st1{fill:#FFFFFF;}
	.st2{fill:#0070F0;}
	.st3{fill-rule:evenodd;clip-rule:evenodd;fill:#F0F0F1;}
	.st4{fill:#1C1840;}
	.st5{fill-rule:evenodd;clip-rule:evenodd;fill:#6E95CD;}
	.st6{fill-rule:evenodd;clip-rule:evenodd;fill:#A3BFE5;}
	.st7{fill:#A2A1A0;}
	.st8{fill:none;stroke:#6D6C6C;stroke-width:1.33;stroke-miterlimit:22.93;}
	.st9{fill-rule:evenodd;clip-rule:evenodd;fill:#DBDCDC;}
	.st10{fill:#C2C2C2;}
	.st11{fill-rule:evenodd;clip-rule:evenodd;fill:#C2C2C2;}
	.st12{fill-rule:evenodd;clip-rule:evenodd;fill:#E5E6E6;}
	.st13{fill-rule:evenodd;clip-rule:evenodd;fill:#F8F8F9;}
	.st14{fill-rule:evenodd;clip-rule:evenodd;fill:#FFFFFF;}
	.st15{fill-rule:evenodd;clip-rule:evenodd;fill:#FDFDFF;}
	.st16{fill-rule:evenodd;clip-rule:evenodd;fill:#FCFCFC;}
	.st17{fill-rule:evenodd;clip-rule:evenodd;fill:#FAFBFC;}
	.st18{fill-rule:evenodd;clip-rule:evenodd;fill:#FAF9F9;}
	.st19{fill-rule:evenodd;clip-rule:evenodd;fill:#F6F7F7;}
	.st20{fill-rule:evenodd;clip-rule:evenodd;fill:#F6F6F7;}
	.st21{fill-rule:evenodd;clip-rule:evenodd;fill:#F6F6F5;}
	.st22{fill-rule:evenodd;clip-rule:evenodd;fill:#F4F3F3;}
	.st23{fill-rule:evenodd;clip-rule:evenodd;fill:#F2F2F3;}
	.st24{fill-rule:evenodd;clip-rule:evenodd;fill:#F2F2F2;}
	.st25{fill-rule:evenodd;clip-rule:evenodd;fill:#EEEFEF;}
	.st26{fill-rule:evenodd;clip-rule:evenodd;fill:#EDEDEE;}
	.st27{fill-rule:evenodd;clip-rule:evenodd;fill:#EBECEC;}
	.st28{fill-rule:evenodd;clip-rule:evenodd;fill:#3EA734;}
	.st29{fill-rule:evenodd;clip-rule:evenodd;fill:#1C1840;}
	.st30{fill:#A3BFE5;}
	.st31{fill-rule:evenodd;clip-rule:evenodd;fill:#A2A1A0;}
</style>
<rect y="278.5" class="st0" width="424.6" height="31.7"/>
<rect y="21.8" class="st1" width="424.6" height="28.4"/>
<rect y="51.2" class="st1" width="424.6" height="28.4"/>
<rect y="80.6" class="st1" width="424.6" height="28.4"/>
<rect y="110" class="st1" width="424.6" height="28.4"/>
<rect y="139.4" class="st1" width="424.6" height="28.4"/>
<rect y="168.9" class="st1" width="424.6" height="28.4"/>
<path class="st2" d="M10.5,5c0,3-2,4.8-5.1,4.8H2.2V0.1h3.2C8.4,0.1,10.5,2,10.5,5z M5.3,8.5c2.3,0,3.5-1.3,3.5-3.5S7.6,1.4,5.3,1.4
	H3.8v7.1H5.3z"/>
<path class="st2" d="M15.4,9.9c-2.2,0-3.8-1.6-3.8-4s1.7-4,3.9-4s3.9,1.5,3.9,4S17.6,9.9,15.4,9.9z M15.4,8.6c1.2,0,2.3-0.8,2.3-2.6
	s-1.1-2.6-2.3-2.6S13.1,4.2,13.1,6S14.2,8.6,15.4,8.6z"/>
<path class="st2" d="M24.2,2c1.9,0,3.1,0.9,3.5,2.5H26c-0.3-0.7-0.9-1.2-1.8-1.2C22.9,3.3,22,4.3,22,6s0.9,2.6,2.1,2.6
	c1,0,1.5-0.4,1.8-1.2h1.7c-0.4,1.5-1.7,2.6-3.5,2.6c-2.2,0-3.8-1.6-3.8-4S22,2,24.2,2L24.2,2z"/>
<path class="st2" d="M36.2,9.8h-1.6V8.9c-0.5,0.6-1.4,1-2.3,1c-1.8,0-3.2-1.1-3.2-3.3V2.1h1.6v4.3c0,1.4,0.8,2.1,1.9,2.1
	s1.9-0.7,1.9-2.1V2.1h1.6C36.2,2.1,36.2,9.8,36.2,9.8z"/>
<path class="st2" d="M49.2,5.5c0-1.4-0.8-2.1-1.9-2.1s-1.9,0.7-1.9,2.1v4.3h-1.6V5.5c0-1.4-0.8-2.1-1.9-2.1s-1.9,0.7-1.9,2.1v4.3
	h-1.6V2.1h1.6V3c0.5-0.6,1.3-1,2.3-1c1.2,0,2.2,0.5,2.8,1.5C45.4,2.6,46.5,2,47.6,2c1.8,0,3.2,1.1,3.2,3.3v4.5h-1.6L49.2,5.5
	L49.2,5.5z"/>
<path class="st2" d="M56.1,9.9c-2.2,0-3.8-1.6-3.8-4s1.6-4,3.8-4s3.7,1.5,3.7,3.8c0,0.3,0,0.5-0.1,0.8h-5.9c0.1,1.3,1,2,2.2,2
	c1,0,1.5-0.5,1.8-1.1h1.7C59.2,8.9,58,9.9,56.1,9.9z M54,5.3h4.2c0-1.2-1-1.9-2.2-1.9C55,3.3,54.1,4.1,54,5.3z"/>
<path class="st2" d="M66.9,5.5c0-1.4-0.8-2.1-1.9-2.1S63,4.1,63,5.5v4.3h-1.6V2.1H63V3c0.5-0.6,1.4-1,2.3-1c1.8,0,3.2,1.1,3.2,3.3
	v4.5h-1.6L66.9,5.5L66.9,5.5z"/>
<path class="st2" d="M70.7,3.4h-0.9V2.1h0.9V0.2h1.6v1.9h1.9v1.3h-1.9v4.2c0,0.6,0.2,0.8,0.9,0.8h1v1.3h-1.2c-1.4,0-2.2-0.6-2.2-2.1
	V3.4z"/>
<path class="st2" d="M82.5,9.9c-1.9,0-3.4-1.1-3.4-2.8h1.7c0.1,0.8,0.6,1.4,1.7,1.4s1.7-0.6,1.7-1.4c0-2.3-5.1-0.8-5.1-4.4
	C79.1,1,80.4,0,82.4,0c1.8,0,3.2,1,3.3,2.6h-1.8c-0.1-0.6-0.6-1.2-1.6-1.3c-0.9,0-1.6,0.4-1.6,1.3c0,2.2,5.1,0.8,5.1,4.4
	C85.8,8.5,84.6,9.9,82.5,9.9L82.5,9.9z"/>
<path class="st2" d="M87.9,3.4H87V2.1h0.9V0.2h1.6v1.9h1.9v1.3h-1.9v4.2c0,0.6,0.2,0.8,0.9,0.8h1v1.3h-1.2c-1.4,0-2.2-0.6-2.2-2.1
	V3.4z"/>
<path class="st2" d="M96.2,9.9c-2.2,0-3.8-1.6-3.8-4s1.7-4,3.9-4s3.9,1.5,3.9,4S98.4,9.9,96.2,9.9z M96.2,8.6c1.2,0,2.3-0.8,2.3-2.6
	s-1.1-2.6-2.3-2.6S94,4.2,94,6S95,8.6,96.2,8.6z"/>
<path class="st2" d="M103.3,9.8h-1.6V2.1h1.6v1.1c0.4-0.8,1.2-1.2,2.3-1.2v1.6h-0.4c-1.2,0-1.9,0.5-1.9,2.1L103.3,9.8L103.3,9.8z"/>
<path class="st2" d="M110.4,9.9c-2.2,0-3.8-1.6-3.8-4s1.6-4,3.8-4s3.7,1.5,3.7,3.8c0,0.3,0,0.5-0.1,0.8h-5.9c0.1,1.3,1,2,2.2,2
	c1,0,1.5-0.5,1.8-1.1h1.7C113.5,8.9,112.3,9.9,110.4,9.9z M108.2,5.3h4.2c0-1.2-1-1.9-2.2-1.9C109.3,3.3,108.4,4.1,108.2,5.3z"/>
<polygon class="st3" points="20.5,28.4 27.1,28.4 28.9,30.9 37.6,30.9 37.6,44 20.5,44 "/>
<path class="st4" d="M52.7,33.9h3.8v0.9h-2.8v1.9h2.1v0.9h-2.1v2.8h-1.1V33.9L52.7,33.9z"/>
<path class="st4" d="M57.3,33.9c0-0.4,0.3-0.7,0.7-0.7s0.7,0.3,0.7,0.7s-0.3,0.7-0.7,0.7S57.3,34.3,57.3,33.9z M57.5,35.2h1.1v5.1
	h-1.1V35.2z"/>
<path class="st4" d="M63.6,37.5c0-0.9-0.5-1.4-1.3-1.4S61,36.6,61,37.5v2.9h-1.1v-5.1H61v0.6c0.3-0.4,0.9-0.7,1.5-0.7
	c1.2,0,2.1,0.8,2.1,2.2v3h-1L63.6,37.5L63.6,37.5z"/>
<path class="st4" d="M68,35.2c0.9,0,1.5,0.4,1.8,0.8v-0.7h1.1v5.1h-1.1v-0.8c-0.3,0.4-0.9,0.8-1.8,0.8c-1.3,0-2.4-1.1-2.4-2.7
	S66.7,35.2,68,35.2L68,35.2z M68.2,36.1c-0.8,0-1.6,0.6-1.6,1.7s0.8,1.8,1.6,1.8s1.6-0.6,1.6-1.7S69.1,36.1,68.2,36.1z"/>
<path class="st4" d="M75.9,37.5c0-0.9-0.5-1.4-1.3-1.4s-1.3,0.5-1.3,1.4v2.9h-1.1v-5.1h1.1v0.6c0.3-0.4,0.9-0.7,1.5-0.7
	c1.2,0,2.1,0.8,2.1,2.2v3h-1.1L75.9,37.5L75.9,37.5z"/>
<path class="st4" d="M80.5,35.2c1.3,0,2.1,0.6,2.4,1.7h-1.2c-0.2-0.5-0.6-0.8-1.2-0.8c-0.9,0-1.4,0.6-1.4,1.8s0.6,1.8,1.4,1.8
	c0.6,0,1-0.3,1.2-0.8h1.2c-0.3,1-1.1,1.7-2.4,1.7c-1.5,0-2.5-1-2.5-2.7S79,35.2,80.5,35.2z"/>
<path class="st4" d="M83.8,33.9c0-0.4,0.3-0.7,0.7-0.7s0.7,0.3,0.7,0.7s-0.3,0.7-0.7,0.7S83.8,34.3,83.8,33.9z M83.9,35.2h1.1v5.1
	h-1.1V35.2z"/>
<path class="st4" d="M88.4,35.2c0.9,0,1.5,0.4,1.8,0.8v-0.7h1.1v5.1h-1.1v-0.8c-0.3,0.4-0.9,0.8-1.8,0.8c-1.3,0-2.4-1.1-2.4-2.7
	S87.1,35.2,88.4,35.2L88.4,35.2z M88.6,36.1c-0.8,0-1.6,0.6-1.6,1.7s0.8,1.8,1.6,1.8s1.6-0.6,1.6-1.7S89.4,36.1,88.6,36.1z"/>
<path class="st4" d="M92.7,33.5h1.1v6.9h-1.1V33.5z"/>
<path class="st4" d="M103.1,37.2c0,2-1.4,3.2-3.4,3.2h-2.1v-6.5h2.1C101.7,33.9,103.1,35.2,103.1,37.2z M99.7,39.5
	c1.5,0,2.3-0.9,2.3-2.3s-0.8-2.4-2.3-2.4h-1.1v4.7C98.6,39.5,99.7,39.5,99.7,39.5z"/>
<path class="st4" d="M106.4,40.5c-1.5,0-2.6-1-2.6-2.7s1.2-2.6,2.6-2.6s2.6,1,2.6,2.6S107.8,40.5,106.4,40.5L106.4,40.5z
	 M106.4,39.5c0.8,0,1.6-0.6,1.6-1.7s-0.8-1.7-1.5-1.7s-1.5,0.6-1.5,1.7S105.6,39.5,106.4,39.5z"/>
<path class="st4" d="M112.2,35.2c1.3,0,2.1,0.6,2.4,1.7h-1.2c-0.2-0.5-0.6-0.8-1.2-0.8c-0.9,0-1.4,0.6-1.4,1.8s0.6,1.8,1.4,1.8
	c0.6,0,1-0.3,1.2-0.8h1.2c-0.3,1-1.1,1.7-2.4,1.7c-1.5,0-2.5-1-2.5-2.7S110.8,35.2,112.2,35.2z"/>
<path class="st4" d="M120.3,40.4h-1.1v-0.6c-0.3,0.4-0.9,0.7-1.5,0.7c-1.2,0-2.1-0.8-2.1-2.2v-3h1.1v2.9c0,0.9,0.5,1.4,1.3,1.4
	s1.3-0.5,1.3-1.4v-2.9h1.1L120.3,40.4L120.3,40.4z"/>
<path class="st4" d="M129,37.5c0-0.9-0.5-1.4-1.3-1.4s-1.3,0.5-1.3,1.4v2.9h-1.1v-2.9c0-0.9-0.5-1.4-1.3-1.4s-1.3,0.5-1.3,1.4v2.9
	h-1.1v-5.1h1.1v0.6c0.3-0.4,0.9-0.7,1.5-0.7c0.8,0,1.5,0.3,1.8,1c0.3-0.6,1-1,1.8-1c1.2,0,2.1,0.8,2.1,2.2v3H129L129,37.5L129,37.5z
	"/>
<path class="st4" d="M133.6,40.5c-1.5,0-2.6-1-2.6-2.7s1-2.6,2.6-2.6s2.5,1,2.5,2.5c0,0.2,0,0.3,0,0.5h-3.9c0.1,0.8,0.7,1.4,1.5,1.4
	c0.6,0,1-0.3,1.2-0.7h1.1C135.6,39.7,134.8,40.5,133.6,40.5L133.6,40.5z M132.1,37.3h2.8c0-0.8-0.6-1.3-1.4-1.3
	C132.8,36.1,132.2,36.5,132.1,37.3z"/>
<path class="st4" d="M140.8,37.5c0-0.9-0.5-1.4-1.3-1.4s-1.3,0.5-1.3,1.4v2.9h-1.1v-5.1h1.1v0.6c0.3-0.4,0.9-0.7,1.5-0.7
	c1.2,0,2.1,0.8,2.1,2.2v3h-1.1L140.8,37.5L140.8,37.5z"/>
<path class="st4" d="M143.3,36.1h-0.6v-0.9h0.6V34h1.1v1.3h1.2v0.9h-1.2V39c0,0.4,0.1,0.5,0.6,0.5h0.6v0.9h-0.8
	c-0.9,0-1.5-0.4-1.5-1.4L143.3,36.1L143.3,36.1z"/>
<path class="st4" d="M148.5,40.5c-1.2,0-2.1-0.7-2.1-1.7h1.1c0,0.4,0.4,0.8,1,0.8s0.9-0.3,0.9-0.6c0-1-3-0.4-3-2.3
	c0-0.8,0.8-1.5,2-1.5s1.9,0.6,2,1.7h-1.1c0-0.5-0.4-0.8-1-0.8s-0.9,0.2-0.9,0.6c0,1,2.9,0.5,2.9,2.3
	C150.4,39.8,149.7,40.5,148.5,40.5L148.5,40.5z"/>
<polygon class="st3" points="20.5,57.5 27.1,57.5 28.9,60.1 37.6,60.1 37.6,73.2 20.5,73.2 "/>
<path class="st4" d="M52.7,63.1h1.1v6.5h-1.1V63.1z"/>
<path class="st4" d="M57.2,64.4c0.7,0,1.4,0.3,1.8,0.8v-2.5H60v6.9H59v-0.8c-0.3,0.5-0.9,0.9-1.8,0.9c-1.3,0-2.4-1.1-2.4-2.7
	S55.8,64.4,57.2,64.4L57.2,64.4z M57.4,65.3c-0.8,0-1.6,0.6-1.6,1.7s0.8,1.8,1.6,1.8S59,68.1,59,67S58.2,65.3,57.4,65.3z"/>
<path class="st4" d="M63.6,69.7c-1.5,0-2.6-1-2.6-2.7s1-2.6,2.6-2.6c1.5,0,2.5,1,2.5,2.5c0,0.2,0,0.3,0,0.5h-3.9
	c0.1,0.8,0.7,1.4,1.5,1.4c0.7,0,1-0.3,1.2-0.7H66C65.7,68.9,64.9,69.6,63.6,69.7z M62.2,66.6H65c0-0.8-0.6-1.3-1.4-1.3
	C62.9,65.3,62.3,65.7,62.2,66.6z"/>
<path class="st4" d="M70.8,66.7c0-0.9-0.5-1.4-1.3-1.4s-1.3,0.5-1.3,1.4v2.9h-1.1v-5.1h1.1V65c0.3-0.4,0.9-0.7,1.5-0.7
	c1.2,0,2.1,0.8,2.1,2.2v3h-1.1L70.8,66.7L70.8,66.7z"/>
<path class="st4" d="M73.4,65.3h-0.6v-0.9h0.6v-1.3h1.1v1.3h1.2v0.9h-1.2v2.8c0,0.4,0.2,0.5,0.6,0.5h0.7v0.9h-0.8
	c-0.9,0-1.5-0.4-1.5-1.4V65.3z"/>
<path class="st4" d="M76.5,63.1c0-0.4,0.3-0.7,0.7-0.7s0.7,0.3,0.7,0.7s-0.3,0.7-0.7,0.7S76.5,63.5,76.5,63.1z M76.7,64.4h1.1v5.1
	h-1.1V64.4z"/>
<path class="st4" d="M79.3,65.3h-0.6v-0.9h0.6v-1.3h1.1v1.3h1.2v0.9h-1.2v2.8c0,0.4,0.2,0.5,0.6,0.5h0.7v0.9h-0.8
	c-0.9,0-1.5-0.4-1.5-1.4V65.3z"/>
<path class="st4" d="M86.1,64.4h1.1L84.1,72H83l1-2.5l-2-5.1h1.2l1.4,3.9L86.1,64.4L86.1,64.4z"/>
<path class="st4" d="M96,66.4c0,2-1.4,3.2-3.4,3.2h-2.1v-6.5h2.1C94.6,63.1,96,64.4,96,66.4z M92.6,68.7c1.5,0,2.3-0.9,2.3-2.3
	S94.1,64,92.6,64h-1.1v4.7H92.6z"/>
<path class="st4" d="M99.3,69.7c-1.5,0-2.6-1-2.6-2.7s1.2-2.6,2.6-2.6s2.6,1,2.6,2.6S100.7,69.7,99.3,69.7L99.3,69.7z M99.3,68.7
	c0.8,0,1.6-0.6,1.6-1.7s-0.8-1.7-1.5-1.7s-1.5,0.6-1.5,1.7S98.5,68.7,99.3,68.7z"/>
<path class="st4" d="M105.1,64.4c1.3,0,2.1,0.6,2.4,1.7h-1.2c-0.2-0.5-0.6-0.8-1.2-0.8c-0.9,0-1.4,0.6-1.4,1.8s0.6,1.8,1.4,1.8
	c0.6,0,1-0.3,1.2-0.8h1.2c-0.3,1-1.1,1.7-2.4,1.7c-1.5,0-2.5-1-2.5-2.7S103.7,64.4,105.1,64.4z"/>
<path class="st4" d="M113.2,69.6h-1.1V69c-0.3,0.4-0.9,0.7-1.5,0.7c-1.2,0-2.1-0.8-2.1-2.2v-3h1.1v2.9c0,0.9,0.5,1.4,1.3,1.4
	s1.3-0.5,1.3-1.4v-2.9h1.1L113.2,69.6L113.2,69.6z"/>
<path class="st4" d="M121.9,66.7c0-0.9-0.5-1.4-1.3-1.4s-1.3,0.5-1.3,1.4v2.9h-1.1v-2.9c0-0.9-0.5-1.4-1.3-1.4s-1.3,0.5-1.3,1.4v2.9
	h-1.1v-5.1h1.1V65c0.3-0.4,0.9-0.7,1.5-0.7c0.8,0,1.5,0.3,1.8,1c0.3-0.6,1-1,1.8-1c1.2,0,2.1,0.8,2.1,2.2v3h-1.1L121.9,66.7
	L121.9,66.7z"/>
<path class="st4" d="M126.5,69.7c-1.5,0-2.6-1-2.6-2.7s1-2.6,2.6-2.6s2.5,1,2.5,2.5c0,0.2,0,0.3,0,0.5H125c0.1,0.8,0.7,1.4,1.5,1.4
	c0.7,0,1-0.3,1.2-0.7h1.1C128.5,68.9,127.7,69.6,126.5,69.7z M125,66.6h2.8c0-0.8-0.6-1.3-1.4-1.3C125.7,65.3,125.1,65.7,125,66.6z"
	/>
<path class="st4" d="M133.6,66.7c0-0.9-0.5-1.4-1.3-1.4s-1.3,0.5-1.3,1.4v2.9H130v-5.1h1.1V65c0.3-0.4,0.9-0.7,1.5-0.7
	c1.2,0,2.1,0.8,2.1,2.2v3h-1.1L133.6,66.7L133.6,66.7z"/>
<path class="st4" d="M136.2,65.3h-0.6v-0.9h0.6v-1.3h1.1v1.3h1.2v0.9h-1.2v2.8c0,0.4,0.1,0.5,0.6,0.5h0.6v0.9h-0.8
	c-0.9,0-1.5-0.4-1.5-1.4L136.2,65.3L136.2,65.3z"/>
<path class="st4" d="M141.4,69.7c-1.2,0-2.1-0.7-2.1-1.7h1.1c0,0.4,0.4,0.8,1,0.8s0.9-0.3,0.9-0.6c0-1-3-0.4-3-2.3
	c0-0.8,0.8-1.5,2-1.5s1.9,0.6,2,1.7h-1.1c0-0.4-0.4-0.8-1-0.8s-0.9,0.2-0.9,0.6c0,1,2.9,0.5,2.9,2.3C143.3,69,142.6,69.7,141.4,69.7
	L141.4,69.7z"/>
<polygon class="st3" points="20.5,87 27.1,87 28.9,89.5 37.6,89.5 37.6,102.6 20.5,102.6 "/>
<polygon class="st3" points="20.5,116.4 27.1,116.4 28.9,118.9 37.6,118.9 37.6,132.1 20.5,132.1 "/>
<polygon class="st3" points="20.5,145.8 27.1,145.8 28.9,148.3 37.6,148.3 37.6,161.5 20.5,161.5 "/>
<path class="st4" d="M52.7,151.4h1.1v6.5h-1.1V151.4z"/>
<path class="st4" d="M58.8,155c0-0.9-0.5-1.4-1.3-1.4s-1.3,0.5-1.3,1.4v2.9h-1.1v-5.1h1.1v0.6c0.3-0.4,0.9-0.7,1.5-0.7
	c1.2,0,2.1,0.8,2.1,2.2v3h-1L58.8,155L58.8,155z"/>
<path class="st4" d="M63,157.9c-1.2,0-2.1-0.7-2.1-1.7H62c0,0.4,0.4,0.8,1,0.8s0.9-0.3,0.9-0.6c0-1-3-0.4-3-2.3c0-0.8,0.8-1.5,2-1.5
	s1.9,0.6,2,1.6h-1.1c0-0.4-0.4-0.8-1-0.8s-0.9,0.2-0.9,0.6c0,1,2.9,0.5,2.9,2.3C65,157.3,64.2,157.9,63,157.9L63,157.9z"/>
<path class="st4" d="M70.8,157.8h-1.1v-0.6c-0.3,0.4-0.9,0.7-1.5,0.7c-1.2,0-2.1-0.8-2.1-2.2v-3h1.1v2.9c0,0.9,0.5,1.4,1.3,1.4
	s1.3-0.5,1.3-1.4v-2.9h1.1L70.8,157.8L70.8,157.8z"/>
<path class="st4" d="M73.2,157.8h-1.1v-5.1h1.1v0.7c0.3-0.5,0.8-0.8,1.5-0.8v1.1h-0.3c-0.8,0-1.3,0.3-1.3,1.4
	C73.2,155.1,73.2,157.8,73.2,157.8z"/>
<path class="st4" d="M77.8,152.6c0.9,0,1.5,0.4,1.8,0.8v-0.7h1.1v5.1h-1.1v-0.8c-0.3,0.4-0.9,0.9-1.8,0.9c-1.3,0-2.4-1.1-2.4-2.7
	S76.5,152.6,77.8,152.6L77.8,152.6z M78,153.5c-0.8,0-1.6,0.6-1.6,1.7s0.8,1.8,1.6,1.8s1.6-0.6,1.6-1.7S78.8,153.5,78,153.5z"/>
<path class="st4" d="M85.7,155c0-0.9-0.5-1.4-1.3-1.4s-1.3,0.5-1.3,1.4v2.9h-1.1v-5.1h1.1v0.6c0.3-0.4,0.9-0.7,1.5-0.7
	c1.2,0,2.1,0.8,2.1,2.2v3h-1.1L85.7,155L85.7,155z"/>
<path class="st4" d="M90.3,152.6c1.3,0,2.1,0.6,2.4,1.7h-1.2c-0.2-0.5-0.6-0.8-1.2-0.8c-0.9,0-1.4,0.6-1.4,1.8s0.6,1.8,1.4,1.8
	c0.6,0,1-0.3,1.2-0.8h1.2c-0.3,1-1.1,1.7-2.4,1.7c-1.5,0-2.5-1-2.5-2.6S88.8,152.6,90.3,152.6z"/>
<path class="st4" d="M95.9,157.9c-1.5,0-2.6-1-2.6-2.6s1-2.6,2.6-2.6s2.5,1,2.5,2.5c0,0.2,0,0.4,0,0.5h-3.9c0.1,0.9,0.7,1.4,1.5,1.4
	c0.7,0,1-0.3,1.2-0.7h1.2C97.9,157.2,97.1,157.9,95.9,157.9L95.9,157.9z M94.4,154.8h2.8c0-0.8-0.6-1.3-1.4-1.3
	C95.1,153.5,94.6,154,94.4,154.8z"/>
<path class="st4" d="M107.4,154.6c0,2-1.4,3.2-3.4,3.2h-2.1v-6.5h2.1C106,151.4,107.4,152.6,107.4,154.6z M104,157
	c1.5,0,2.3-0.9,2.3-2.4s-0.8-2.4-2.3-2.4h-1.1v4.7H104z"/>
<path class="st4" d="M110.7,157.9c-1.5,0-2.6-1-2.6-2.6s1.2-2.6,2.6-2.6s2.6,1,2.6,2.6S112.2,157.9,110.7,157.9L110.7,157.9z
	 M110.7,157c0.8,0,1.6-0.6,1.6-1.7s-0.8-1.7-1.5-1.7s-1.5,0.6-1.5,1.7S109.9,157,110.7,157z"/>
<path class="st4" d="M116.5,152.6c1.3,0,2.1,0.6,2.4,1.7h-1.2c-0.2-0.5-0.6-0.8-1.2-0.8c-0.9,0-1.4,0.6-1.4,1.8s0.6,1.8,1.4,1.8
	c0.6,0,1-0.3,1.2-0.8h1.2c-0.3,1-1.1,1.7-2.4,1.7c-1.5,0-2.5-1-2.5-2.6S115.1,152.6,116.5,152.6z"/>
<path class="st4" d="M124.6,157.8h-1.1v-0.6c-0.3,0.4-0.9,0.7-1.5,0.7c-1.2,0-2.1-0.8-2.1-2.2v-3h1.1v2.9c0,0.9,0.5,1.4,1.3,1.4
	s1.3-0.5,1.3-1.4v-2.9h1.1L124.6,157.8L124.6,157.8z"/>
<path class="st4" d="M133.3,155c0-0.9-0.5-1.4-1.3-1.4s-1.3,0.5-1.3,1.4v2.9h-1.1V155c0-0.9-0.5-1.4-1.3-1.4s-1.3,0.5-1.3,1.4v2.9
	H126v-5.1h1.1v0.6c0.3-0.4,0.9-0.7,1.5-0.7c0.8,0,1.5,0.3,1.8,1c0.3-0.6,1-1,1.8-1c1.2,0,2.1,0.8,2.1,2.2v3h-1.1L133.3,155
	L133.3,155z"/>
<path class="st4" d="M137.9,157.9c-1.5,0-2.6-1-2.6-2.6s1-2.6,2.6-2.6s2.5,1,2.5,2.5c0,0.2,0,0.4,0,0.5h-3.9
	c0.1,0.9,0.7,1.4,1.5,1.4c0.6,0,1-0.3,1.2-0.7h1.1C139.9,157.2,139.1,157.9,137.9,157.9L137.9,157.9z M136.4,154.8h2.8
	c0-0.8-0.6-1.3-1.4-1.3C137.1,153.5,136.6,154,136.4,154.8z"/>
<path class="st4" d="M145.1,155c0-0.9-0.5-1.4-1.3-1.4s-1.3,0.5-1.3,1.4v2.9h-1.1v-5.1h1.1v0.6c0.3-0.4,0.9-0.7,1.5-0.7
	c1.2,0,2.1,0.8,2.1,2.2v3h-1.1L145.1,155L145.1,155z"/>
<path class="st4" d="M147.6,153.6H147v-0.9h0.6v-1.3h1.1v1.3h1.2v0.9h-1.2v2.8c0,0.4,0.1,0.5,0.6,0.5h0.6v0.9h-0.8
	c-0.9,0-1.5-0.4-1.5-1.4L147.6,153.6L147.6,153.6z"/>
<path class="st4" d="M152.8,157.9c-1.2,0-2.1-0.7-2.1-1.7h1.1c0,0.4,0.4,0.8,1,0.8s0.9-0.3,0.9-0.6c0-1-3-0.4-3-2.3
	c0-0.8,0.8-1.5,2-1.5s1.9,0.6,2,1.6h-1.1c0-0.4-0.4-0.8-1-0.8s-0.9,0.2-0.9,0.6c0,1,2.9,0.5,2.9,2.3
	C154.7,157.3,154,157.9,152.8,157.9L152.8,157.9z"/>
<polygon class="st3" points="20.5,175.2 27.1,175.2 28.9,177.7 37.6,177.7 37.6,190.8 20.5,190.8 "/>
<path class="st4" d="M54.9,96.4h-1.2V99h-1.1v-6.5h2.2c1.5,0,2.3,0.9,2.3,1.9C57.2,95.4,56.6,96.4,54.9,96.4L54.9,96.4z M54.9,95.5
	c0.8,0,1.2-0.4,1.2-1.1s-0.4-1.1-1.2-1.1h-1.2v2.1H54.9z"/>
<path class="st4" d="M59.3,99h-1.1v-5.1h1.1v0.7c0.3-0.5,0.8-0.8,1.5-0.8v1.1h-0.3c-0.8,0-1.3,0.3-1.3,1.4V99L59.3,99z"/>
<path class="st4" d="M64,99.1c-1.5,0-2.6-1-2.6-2.7s1.2-2.6,2.6-2.6s2.6,1,2.6,2.6S65.5,99.1,64,99.1L64,99.1z M64,98.2
	c0.8,0,1.6-0.6,1.6-1.7s-0.8-1.7-1.5-1.7s-1.5,0.6-1.5,1.7S63.2,98.2,64,98.2z"/>
<path class="st4" d="M69.9,99.1c-1.5,0-2.6-1-2.6-2.7s1.2-2.6,2.6-2.6s2.6,1,2.6,2.6S71.4,99.1,69.9,99.1L69.9,99.1z M69.9,98.2
	c0.8,0,1.6-0.6,1.6-1.7s-0.8-1.7-1.5-1.7s-1.5,0.6-1.5,1.7S69.1,98.2,69.9,98.2z"/>
<path class="st4" d="M73.8,94.7h-0.6v-0.9h0.6v-0.4c0-1.2,0.6-1.7,1.9-1.7v0.9c-0.7,0-0.9,0.2-0.9,0.8v0.4h0.9v0.9h-0.9V99h-1.1
	C73.8,99,73.8,94.7,73.8,94.7z"/>
<path class="st4" d="M82.1,99.1c-1.8,0-3.3-1.4-3.3-3.3s1.5-3.3,3.3-3.3s3.3,1.4,3.3,3.3S84,99.1,82.1,99.1z M82.1,98.1
	c1.3,0,2.2-0.9,2.2-2.4s-0.9-2.4-2.2-2.4s-2.2,0.9-2.2,2.4S80.8,98.1,82.1,98.1z"/>
<path class="st4" d="M86.6,94.7H86v-0.9h0.6v-0.4c0-1.2,0.6-1.7,1.9-1.7v0.9c-0.7,0-0.9,0.2-0.9,0.8v0.4h0.9v0.9h-0.9V99h-1.1
	C86.6,99,86.6,94.7,86.6,94.7z"/>
<path class="st4" d="M95.9,97.7h-2.7L92.7,99h-1.1l2.3-6.5h1.2l2.3,6.5h-1.1L95.9,97.7L95.9,97.7z M94.5,93.8l-1.1,3h2.1L94.5,93.8z
	"/>
<path class="st4" d="M100.5,93.8c0.7,0,1.4,0.3,1.8,0.8v-2.5h1.1V99h-1.1v-0.8c-0.3,0.5-0.9,0.9-1.8,0.9c-1.3,0-2.4-1.1-2.4-2.7
	S99.2,93.8,100.5,93.8z M100.8,94.7c-0.8,0-1.6,0.6-1.6,1.7s0.8,1.8,1.6,1.8s1.6-0.6,1.6-1.7S101.6,94.7,100.8,94.7z"/>
<path class="st4" d="M106.8,93.8c0.7,0,1.4,0.3,1.8,0.8v-2.5h1.1V99h-1.1v-0.8c-0.3,0.5-0.9,0.9-1.8,0.9c-1.3,0-2.4-1.1-2.4-2.7
	S105.5,93.8,106.8,93.8z M107.1,94.7c-0.8,0-1.6,0.6-1.6,1.7s0.8,1.8,1.6,1.8s1.6-0.6,1.6-1.7S107.9,94.7,107.1,94.7z"/>
<path class="st4" d="M112.1,99h-1.1v-5.1h1.1v0.7c0.3-0.5,0.8-0.8,1.5-0.8v1.1h-0.3c-0.8,0-1.3,0.3-1.3,1.4L112.1,99L112.1,99z"/>
<path class="st4" d="M116.9,99.1c-1.5,0-2.6-1-2.6-2.7s1-2.6,2.6-2.6s2.5,1,2.5,2.5c0,0.2,0,0.3,0,0.5h-3.9c0.1,0.8,0.7,1.4,1.5,1.4
	c0.7,0,1-0.3,1.2-0.7h1.2C118.9,98.4,118.1,99.1,116.9,99.1z M115.4,96h2.8c0-0.8-0.6-1.3-1.4-1.3C116.1,94.7,115.5,95.2,115.4,96z"
	/>
<path class="st4" d="M122.2,99.1c-1.2,0-2.1-0.7-2.1-1.7h1.1c0,0.4,0.4,0.8,1,0.8s0.9-0.3,0.9-0.6c0-1-3-0.4-3-2.3
	c0-0.8,0.8-1.5,2-1.5s1.9,0.6,2,1.7h-1.1c0-0.4-0.4-0.8-1-0.8s-0.9,0.2-0.9,0.6c0,1,2.9,0.5,2.9,2.3
	C124.2,98.4,123.4,99.1,122.2,99.1L122.2,99.1z"/>
<path class="st4" d="M127.2,99.1c-1.2,0-2.1-0.7-2.1-1.7h1.1c0,0.4,0.4,0.8,1,0.8s0.9-0.3,0.9-0.6c0-1-3-0.4-3-2.3
	c0-0.8,0.8-1.5,2-1.5s1.9,0.6,2,1.7h-1.1c0-0.4-0.4-0.8-1-0.8s-0.9,0.2-0.9,0.6c0,1,2.9,0.5,2.9,2.3
	C129.2,98.4,128.4,99.1,127.2,99.1L127.2,99.1z"/>
<path class="st4" d="M52.7,121.9h1.2l2.3,5.1l2.3-5.1h1.1v6.5h-1.1V124l-2,4.4h-0.7l-2-4.4v4.4h-1.1L52.7,121.9L52.7,121.9z"/>
<path class="st4" d="M63.1,128.5c-1.5,0-2.6-1-2.6-2.7s1.2-2.6,2.6-2.6s2.6,1,2.6,2.6S64.6,128.5,63.1,128.5L63.1,128.5z
	 M63.1,127.6c0.8,0,1.6-0.6,1.6-1.7s-0.8-1.7-1.5-1.7s-1.5,0.6-1.5,1.7S62.3,127.6,63.1,127.6z"/>
<path class="st4" d="M67.9,128.4h-1.1v-5.1h1.1v0.7c0.3-0.5,0.8-0.8,1.5-0.8v1.1h-0.3c-0.8,0-1.3,0.3-1.3,1.4L67.9,128.4L67.9,128.4
	z"/>
<path class="st4" d="M70.6,124.2h-0.6v-0.9h0.6V122h1.1v1.3h1.2v0.9h-1.2v2.8c0,0.4,0.2,0.5,0.6,0.5h0.7v0.9H72
	c-0.9,0-1.5-0.4-1.5-1.4C70.6,127,70.6,124.2,70.6,124.2z"/>
<path class="st4" d="M75.9,123.2c0.8,0,1.5,0.4,1.8,0.8v-0.7h1.1v5.2c0,1.4-0.9,2.4-2.5,2.4c-1.4,0-2.4-0.7-2.5-1.8h1.1
	c0.2,0.5,0.7,0.9,1.5,0.9c0.8,0,1.4-0.5,1.4-1.5v-0.9c-0.3,0.4-0.9,0.9-1.8,0.9c-1.3,0-2.4-1.1-2.4-2.7S74.6,123.2,75.9,123.2
	L75.9,123.2z M76.1,124.1c-0.8,0-1.6,0.6-1.6,1.7s0.8,1.8,1.6,1.8s1.6-0.6,1.6-1.7S76.9,124.1,76.1,124.1z"/>
<path class="st4" d="M82.2,123.2c0.9,0,1.5,0.4,1.8,0.8v-0.7h1.1v5.1H84v-0.8c-0.3,0.4-0.9,0.8-1.8,0.8c-1.3,0-2.4-1.1-2.4-2.7
	S80.9,123.2,82.2,123.2L82.2,123.2z M82.4,124.1c-0.8,0-1.6,0.6-1.6,1.7s0.8,1.8,1.6,1.8s1.6-0.6,1.6-1.7S83.2,124.1,82.4,124.1z"/>
<path class="st4" d="M88.5,123.2c0.8,0,1.5,0.4,1.8,0.8v-0.7h1.1v5.2c0,1.4-0.9,2.4-2.5,2.4c-1.4,0-2.4-0.7-2.5-1.8h1.1
	c0.2,0.5,0.7,0.9,1.5,0.9c0.8,0,1.4-0.5,1.4-1.5v-0.9c-0.3,0.4-0.9,0.9-1.8,0.9c-1.3,0-2.4-1.1-2.4-2.7S87.2,123.2,88.5,123.2
	L88.5,123.2z M88.8,124.1c-0.8,0-1.6,0.6-1.6,1.7s0.8,1.8,1.6,1.8s1.6-0.6,1.6-1.7S89.6,124.1,88.8,124.1z"/>
<path class="st4" d="M95,128.5c-1.5,0-2.6-1-2.6-2.7s1-2.6,2.6-2.6s2.5,1,2.5,2.5c0,0.2,0,0.3,0,0.5h-3.9c0.1,0.8,0.7,1.4,1.5,1.4
	c0.7,0,1-0.3,1.2-0.7h1.2C97,127.8,96.2,128.5,95,128.5L95,128.5z M93.5,125.4h2.8c0-0.8-0.6-1.3-1.4-1.3
	C94.2,124.1,93.7,124.6,93.5,125.4z"/>
<path class="st4" d="M106.5,125.2c0,2-1.4,3.2-3.4,3.2h-2.1v-6.5h2.1C105.1,121.9,106.5,123.2,106.5,125.2z M103.1,127.6
	c1.5,0,2.3-0.9,2.3-2.3s-0.8-2.4-2.3-2.4H102v4.7H103.1z"/>
<path class="st4" d="M109.8,128.5c-1.5,0-2.6-1-2.6-2.7s1.2-2.6,2.6-2.6s2.6,1,2.6,2.6S111.2,128.5,109.8,128.5L109.8,128.5z
	 M109.8,127.6c0.8,0,1.6-0.6,1.6-1.7s-0.8-1.7-1.5-1.7s-1.5,0.6-1.5,1.7S109,127.6,109.8,127.6z"/>
<path class="st4" d="M115.6,123.2c1.3,0,2.1,0.6,2.4,1.7h-1.2c-0.2-0.5-0.6-0.8-1.2-0.8c-0.9,0-1.4,0.6-1.4,1.8s0.6,1.8,1.4,1.8
	c0.6,0,1-0.3,1.2-0.8h1.2c-0.3,1-1.1,1.7-2.4,1.7c-1.5,0-2.5-1-2.5-2.7S114.2,123.2,115.6,123.2z"/>
<path class="st4" d="M123.7,128.4h-1.1v-0.6c-0.3,0.4-0.9,0.7-1.5,0.7c-1.2,0-2.1-0.8-2.1-2.2v-3h1.1v2.9c0,0.9,0.5,1.4,1.3,1.4
	s1.3-0.5,1.3-1.4v-2.9h1.1L123.7,128.4L123.7,128.4z"/>
<path class="st4" d="M132.4,125.6c0-0.9-0.5-1.4-1.3-1.4s-1.3,0.5-1.3,1.4v2.9h-1.1v-2.9c0-0.9-0.5-1.4-1.3-1.4s-1.3,0.5-1.3,1.4
	v2.9h-1.1v-5.1h1.1v0.6c0.3-0.4,0.9-0.7,1.5-0.7c0.8,0,1.5,0.3,1.8,1c0.3-0.6,1-1,1.8-1c1.2,0,2.1,0.8,2.1,2.2v3h-1.1L132.4,125.6
	L132.4,125.6z"/>
<path class="st4" d="M137,128.5c-1.5,0-2.6-1-2.6-2.7s1-2.6,2.6-2.6s2.5,1,2.5,2.5c0,0.2,0,0.3,0,0.5h-3.9c0.1,0.8,0.7,1.4,1.5,1.4
	c0.6,0,1-0.3,1.2-0.7h1.1C139,127.8,138.2,128.5,137,128.5L137,128.5z M135.5,125.4h2.8c0-0.8-0.6-1.3-1.4-1.3
	C136.2,124.1,135.6,124.6,135.5,125.4z"/>
<path class="st4" d="M144.1,125.6c0-0.9-0.5-1.4-1.3-1.4s-1.3,0.5-1.3,1.4v2.9h-1.1v-5.1h1.1v0.6c0.3-0.4,0.9-0.7,1.5-0.7
	c1.2,0,2.1,0.8,2.1,2.2v3h-1.1L144.1,125.6L144.1,125.6z"/>
<path class="st4" d="M146.7,124.2h-0.6v-0.9h0.6V122h1.1v1.3h1.2v0.9h-1.2v2.8c0,0.4,0.1,0.5,0.6,0.5h0.6v0.9h-0.8
	c-0.9,0-1.5-0.4-1.5-1.4L146.7,124.2L146.7,124.2z"/>
<path class="st4" d="M151.9,128.5c-1.2,0-2.1-0.7-2.1-1.7h1.1c0,0.4,0.4,0.8,1,0.8s0.9-0.3,0.9-0.6c0-1-3-0.4-3-2.3
	c0-0.8,0.8-1.5,2-1.5s1.9,0.6,2,1.7h-1.1c0-0.4-0.4-0.8-1-0.8s-0.9,0.2-0.9,0.6c0,1,2.9,0.5,2.9,2.3
	C153.8,127.9,153.1,128.5,151.9,128.5L151.9,128.5z"/>
<path class="st4" d="M55.6,180.6c1.3,0,2.5,0.7,3,1.9h-1.3c-0.3-0.7-1-1-1.7-1c-1.3,0-2.2,0.9-2.2,2.4s0.9,2.4,2.2,2.4
	c0.8,0,1.4-0.3,1.7-1h1.3c-0.5,1.3-1.7,1.9-3,1.9c-1.8,0-3.3-1.4-3.3-3.3S53.8,180.6,55.6,180.6L55.6,180.6z"/>
<path class="st4" d="M62.1,187.3c-1.5,0-2.6-1-2.6-2.6s1.2-2.6,2.6-2.6s2.6,1,2.6,2.6S63.6,187.3,62.1,187.3L62.1,187.3z
	 M62.1,186.4c0.8,0,1.6-0.6,1.6-1.7s-0.8-1.7-1.5-1.7s-1.5,0.6-1.5,1.7S61.3,186.4,62.1,186.4z"/>
<path class="st4" d="M73.1,184.3c0-0.9-0.5-1.4-1.3-1.4s-1.3,0.5-1.3,1.4v2.9h-1.1v-2.9c0-0.9-0.5-1.4-1.3-1.4s-1.3,0.5-1.3,1.4v2.9
	h-1.1v-5.1h1.1v0.6c0.3-0.4,0.9-0.7,1.5-0.7c0.8,0,1.5,0.4,1.8,1c0.3-0.6,1-1,1.8-1c1.2,0,2.1,0.8,2.1,2.2v3h-1.1L73.1,184.3
	L73.1,184.3z"/>
<path class="st4" d="M78.3,182c1.3,0,2.4,1,2.4,2.6s-1.1,2.7-2.4,2.7c-0.8,0-1.4-0.4-1.8-0.8v3.2h-1.1v-7.6h1.1v0.8
	C76.9,182.4,77.5,182,78.3,182L78.3,182z M78.1,182.9c-0.8,0-1.6,0.6-1.6,1.7s0.8,1.7,1.6,1.7s1.6-0.6,1.6-1.8
	S78.9,182.9,78.1,182.9z"/>
<path class="st4" d="M81.8,180.3h1.1v6.9h-1.1V180.3z"/>
<path class="st4" d="M84.1,180.7c0-0.4,0.3-0.7,0.7-0.7s0.7,0.3,0.7,0.7s-0.3,0.7-0.7,0.7S84.1,181.1,84.1,180.7z M84.2,182.1h1.1
	v5.1h-1.1V182.1z"/>
<path class="st4" d="M88.8,182c0.9,0,1.5,0.4,1.8,0.8v-0.7h1.1v5.1h-1.1v-0.8c-0.3,0.4-0.9,0.9-1.8,0.9c-1.3,0-2.4-1.1-2.4-2.7
	S87.4,182,88.8,182L88.8,182z M89,182.9c-0.8,0-1.6,0.6-1.6,1.7s0.8,1.8,1.6,1.8s1.6-0.6,1.6-1.7S89.8,182.9,89,182.9z"/>
<path class="st4" d="M96.6,184.3c0-0.9-0.5-1.4-1.3-1.4s-1.3,0.5-1.3,1.4v2.9H93v-5.1h1.1v0.6c0.3-0.4,0.9-0.7,1.5-0.7
	c1.2,0,2.1,0.8,2.1,2.2v3h-1.1L96.6,184.3L96.6,184.3z"/>
<path class="st4" d="M101.2,182c1.3,0,2.1,0.6,2.4,1.7h-1.2c-0.2-0.5-0.6-0.8-1.2-0.8c-0.9,0-1.4,0.6-1.4,1.8s0.6,1.8,1.4,1.8
	c0.6,0,1-0.3,1.2-0.8h1.2c-0.3,1-1.1,1.7-2.4,1.7c-1.5,0-2.5-1-2.5-2.6S99.7,182,101.2,182z"/>
<path class="st4" d="M106.8,187.3c-1.5,0-2.6-1-2.6-2.6s1-2.6,2.6-2.6s2.5,1,2.5,2.5c0,0.2,0,0.4,0,0.5h-3.9
	c0.1,0.9,0.7,1.4,1.5,1.4c0.7,0,1-0.3,1.2-0.7h1.2C108.9,186.6,108.1,187.3,106.8,187.3L106.8,187.3z M105.4,184.2h2.8
	c0-0.8-0.6-1.3-1.4-1.3C106.1,182.9,105.5,183.4,105.4,184.2z"/>
<path class="st4" d="M118.3,184c0,2-1.4,3.2-3.4,3.2h-2.1v-6.5h2.1C117,180.7,118.3,182,118.3,184z M114.9,186.3
	c1.5,0,2.3-0.9,2.3-2.4s-0.8-2.4-2.3-2.4h-1.1v4.7H114.9z"/>
<path class="st4" d="M121.6,187.3c-1.5,0-2.6-1-2.6-2.6s1.2-2.6,2.6-2.6s2.6,1,2.6,2.6S123.1,187.3,121.6,187.3L121.6,187.3z
	 M121.6,186.4c0.8,0,1.6-0.6,1.6-1.7s-0.8-1.7-1.5-1.7s-1.5,0.6-1.5,1.7S120.8,186.4,121.6,186.4z"/>
<path class="st4" d="M127.5,182c1.3,0,2.1,0.6,2.4,1.7h-1.1c-0.2-0.5-0.6-0.8-1.2-0.8c-0.9,0-1.4,0.6-1.4,1.8s0.6,1.8,1.4,1.8
	c0.6,0,1-0.3,1.2-0.8h1.1c-0.3,1-1.1,1.7-2.4,1.7c-1.5,0-2.5-1-2.5-2.6S126,182,127.5,182z"/>
<path class="st4" d="M135.6,187.2h-1.1v-0.6c-0.3,0.4-0.9,0.7-1.5,0.7c-1.2,0-2.1-0.8-2.1-2.2v-3h1.1v2.9c0,0.9,0.5,1.4,1.3,1.4
	s1.3-0.5,1.3-1.4v-2.9h1.1L135.6,187.2L135.6,187.2z"/>
<path class="st4" d="M144.2,184.3c0-0.9-0.5-1.4-1.3-1.4s-1.3,0.5-1.3,1.4v2.9h-1.1v-2.9c0-0.9-0.5-1.4-1.3-1.4s-1.3,0.5-1.3,1.4
	v2.9H137v-5.1h1.1v0.6c0.3-0.4,0.9-0.7,1.5-0.7c0.8,0,1.5,0.4,1.8,1c0.3-0.6,1-1,1.8-1c1.2,0,2.1,0.8,2.1,2.2v3h-1.1L144.2,184.3
	L144.2,184.3z"/>
<path class="st4" d="M148.8,187.3c-1.5,0-2.6-1-2.6-2.6s1-2.6,2.6-2.6s2.5,1,2.5,2.5c0,0.2,0,0.4,0,0.5h-3.9
	c0.1,0.9,0.7,1.4,1.5,1.4c0.6,0,1-0.3,1.2-0.7h1.1C150.9,186.6,150.1,187.3,148.8,187.3L148.8,187.3z M147.4,184.2h2.8
	c0-0.8-0.6-1.3-1.4-1.3C148.1,182.9,147.5,183.4,147.4,184.2z"/>
<path class="st4" d="M156,184.3c0-0.9-0.5-1.4-1.3-1.4s-1.3,0.5-1.3,1.4v2.9h-1.1v-5.1h1.1v0.6c0.3-0.4,0.9-0.7,1.5-0.7
	c1.2,0,2.1,0.8,2.1,2.2v3H156L156,184.3L156,184.3z"/>
<path class="st4" d="M158.6,182.9H158v-0.9h0.6v-1.3h1.1v1.3h1.2v0.9h-1.2v2.8c0,0.4,0.1,0.5,0.6,0.5h0.6v0.9h-0.8
	c-0.9,0-1.5-0.4-1.5-1.4L158.6,182.9L158.6,182.9z"/>
<path class="st4" d="M163.7,187.3c-1.2,0-2.1-0.7-2.1-1.7h1.1c0,0.4,0.4,0.8,1,0.8s0.9-0.3,0.9-0.6c0-1-3-0.4-3-2.3
	c0-0.8,0.8-1.5,2-1.5s1.9,0.6,2,1.6h-1.1c0-0.4-0.4-0.8-1-0.8s-0.9,0.2-0.9,0.6c0,1,2.9,0.5,2.9,2.3
	C165.7,186.6,164.9,187.3,163.7,187.3L163.7,187.3z"/>
<rect y="198.3" class="st1" width="424.6" height="145.7"/>
<polygon class="st5" points="21.7,202.9 28.3,202.9 30.1,205.4 38.9,205.4 38.9,212.2 37,218.5 21.7,218.5 "/>
<polygon class="st6" points="21.7,218.5 37.6,218.5 41.3,208.2 25.5,208.2 "/>
<path class="st4" d="M55.6,215c-1.8,0-3.3-1.4-3.3-3.3s1.5-3.3,3.3-3.3s3.3,1.4,3.3,3.3S57.5,215,55.6,215z M55.6,214.1
	c1.3,0,2.2-0.9,2.2-2.4s-0.9-2.4-2.2-2.4s-2.2,0.9-2.2,2.4S54.3,214.1,55.6,214.1z"/>
<path class="st4" d="M60.1,210.6h-0.6v-0.9h0.6v-1.3h1.1v1.3h1.2v0.9h-1.2v2.8c0,0.4,0.2,0.5,0.6,0.5h0.7v0.9h-0.8
	c-0.9,0-1.5-0.4-1.5-1.4V210.6z"/>
<path class="st4" d="M63.4,208h1.1v2.4c0.3-0.4,0.9-0.7,1.6-0.7c1.2,0,2,0.8,2,2.2v3h-1.1v-2.9c0-0.9-0.5-1.4-1.3-1.4
	s-1.3,0.5-1.3,1.4v2.9h-1.1L63.4,208L63.4,208z"/>
<path class="st4" d="M71.7,215c-1.5,0-2.6-1-2.6-2.6s1-2.6,2.6-2.6s2.5,1,2.5,2.5c0,0.2,0,0.4,0,0.5h-3.9c0.1,0.9,0.7,1.4,1.5,1.4
	c0.7,0,1-0.3,1.2-0.7H74C73.7,214.3,72.9,215,71.7,215L71.7,215z M70.2,211.9h2.8c0-0.8-0.6-1.3-1.4-1.3
	C70.9,210.6,70.3,211.1,70.2,211.9z"/>
<path class="st4" d="M76.3,214.9h-1.1v-5.1h1.1v0.7c0.3-0.5,0.8-0.8,1.5-0.8v1.1h-0.3c-0.8,0-1.3,0.3-1.3,1.4
	C76.3,212.2,76.3,214.9,76.3,214.9z"/>
<path class="st4" d="M86.8,211.7c0,2-1.4,3.2-3.4,3.2h-2.1v-6.5h2.1C85.4,208.4,86.8,209.7,86.8,211.7z M83.3,214
	c1.5,0,2.3-0.9,2.3-2.4s-0.8-2.4-2.3-2.4h-1.1v4.7H83.3z"/>
<path class="st4" d="M90,215c-1.5,0-2.6-1-2.6-2.6s1.2-2.6,2.6-2.6s2.6,1,2.6,2.6S91.5,215,90,215L90,215z M90,214.1
	c0.8,0,1.6-0.6,1.6-1.7s-0.8-1.7-1.5-1.7s-1.5,0.6-1.5,1.7S89.2,214.1,90,214.1z"/>
<path class="st4" d="M95.9,209.7c1.3,0,2.1,0.6,2.4,1.7h-1.2c-0.2-0.5-0.6-0.8-1.2-0.8c-0.9,0-1.4,0.6-1.4,1.8s0.6,1.8,1.4,1.8
	c0.6,0,1-0.3,1.2-0.8h1.2c-0.3,1-1.1,1.7-2.4,1.7c-1.5,0-2.5-1-2.5-2.6S94.4,209.7,95.9,209.7z"/>
<path class="st4" d="M104,214.9h-1.1v-0.6c-0.3,0.4-0.9,0.7-1.5,0.7c-1.2,0-2.1-0.8-2.1-2.2v-3h1.1v2.9c0,0.9,0.5,1.4,1.3,1.4
	s1.3-0.5,1.3-1.4v-2.9h1.1L104,214.9L104,214.9z"/>
<path class="st4" d="M112.6,212c0-0.9-0.5-1.4-1.3-1.4s-1.3,0.5-1.3,1.4v2.9H109V212c0-0.9-0.5-1.4-1.3-1.4s-1.3,0.5-1.3,1.4v2.9
	h-1.1v-5.1h1.1v0.6c0.3-0.4,0.9-0.7,1.5-0.7c0.8,0,1.5,0.4,1.8,1c0.3-0.6,1-1,1.8-1c1.2,0,2.1,0.8,2.1,2.2v3h-1.1L112.6,212
	L112.6,212z"/>
<path class="st4" d="M117.2,215c-1.5,0-2.6-1-2.6-2.6s1-2.6,2.6-2.6s2.5,1,2.5,2.5c0,0.2,0,0.4,0,0.5h-3.9c0.1,0.9,0.7,1.4,1.5,1.4
	c0.7,0,1-0.3,1.2-0.7h1.2C119.3,214.3,118.5,215,117.2,215L117.2,215z M115.8,211.9h2.8c0-0.8-0.6-1.3-1.4-1.3
	C116.5,210.6,115.9,211.1,115.8,211.9z"/>
<path class="st4" d="M124.4,212c0-0.9-0.5-1.4-1.3-1.4s-1.3,0.5-1.3,1.4v2.9h-1.1v-5.1h1.1v0.6c0.3-0.4,0.9-0.7,1.5-0.7
	c1.2,0,2.1,0.8,2.1,2.2v3h-1.1L124.4,212L124.4,212z"/>
<path class="st4" d="M127,210.6h-0.6v-0.9h0.6v-1.3h1.1v1.3h1.2v0.9h-1.2v2.8c0,0.4,0.1,0.5,0.6,0.5h0.6v0.9h-0.8
	c-0.9,0-1.5-0.4-1.5-1.4V210.6z"/>
<path class="st4" d="M132.1,215c-1.2,0-2.1-0.7-2.1-1.7h1.1c0,0.4,0.4,0.8,1,0.8s0.9-0.3,0.9-0.6c0-1-3-0.4-3-2.3
	c0-0.8,0.8-1.5,2-1.5s1.9,0.6,2,1.6H133c0-0.4-0.4-0.8-1-0.8s-0.9,0.2-0.9,0.6c0,1,2.9,0.5,2.9,2.3C134.1,214.3,133.3,215,132.1,215
	L132.1,215z"/>
<path class="st7" d="M66.1,235.6h-2v1.8h-0.7v-4.2h0.7v1.8h2v-1.8h0.7v4.2h-0.7V235.6z"/>
<path class="st7" d="M69.1,237.4c-0.9,0-1.7-0.7-1.7-1.7s0.8-1.7,1.7-1.7s1.7,0.7,1.7,1.7S70.1,237.4,69.1,237.4z M69.1,236.9
	c0.5,0,1-0.4,1-1.1s-0.5-1.1-1-1.1s-1,0.4-1,1.1S68.6,236.9,69.1,236.9z"/>
<path class="st7" d="M76.2,235.5c0-0.6-0.3-0.9-0.8-0.9s-0.8,0.3-0.8,0.9v1.9h-0.7v-1.9c0-0.6-0.3-0.9-0.8-0.9s-0.8,0.3-0.8,0.9v1.9
	h-0.7v-3.3h0.7v0.4c0.2-0.3,0.6-0.4,1-0.4c0.5,0,1,0.2,1.2,0.7c0.2-0.4,0.7-0.7,1.2-0.7c0.8,0,1.4,0.5,1.4,1.4v2h-0.7L76.2,235.5
	L76.2,235.5z"/>
<path class="st7" d="M79.2,237.4c-0.9,0-1.7-0.7-1.7-1.7s0.7-1.7,1.7-1.7s1.6,0.7,1.6,1.6c0,0.1,0,0.2,0,0.3h-2.5
	c0.1,0.6,0.4,0.9,0.9,0.9c0.4,0,0.7-0.2,0.8-0.5h0.7C80.5,237,80,237.5,79.2,237.4L79.2,237.4z M78.3,235.4h1.8
	c0-0.5-0.4-0.8-0.9-0.8C78.7,234.6,78.3,234.9,78.3,235.4z"/>
<rect y="245.8" class="st0" width="424.6" height="31.7"/>
<rect y="278.5" class="st0" width="424.6" height="31.7"/>
<rect y="311.3" class="st0" width="424.6" height="31.7"/>
<path class="st8" d="M31.9,257.7h5c0.8,0,1.5,0.7,1.5,1.5v5c0,0.8-0.7,1.5-1.5,1.5h-5c-0.8,0-1.5-0.7-1.5-1.5v-5
	C30.5,258.4,31.1,257.7,31.9,257.7z"/>
<path class="st9" d="M62.2,266.1c-2.4,0-4.4-2-4.4-4.4s2-4.4,4.4-4.4h109.3c2.4,0,4.4,2,4.4,4.4s-2,4.4-4.4,4.4H62.2z"/>
<path class="st4" d="M219.4,232.9h2.9v0.6h-1.1v3.6h-0.7v-3.6h-1.1V232.9z"/>
<path class="st4" d="M225.3,233.8h0.7l-2,4.9h-0.7l0.7-1.6l-1.3-3.3h0.8l0.9,2.5L225.3,233.8L225.3,233.8z"/>
<path class="st4" d="M228.4,233.7c0.9,0,1.6,0.7,1.6,1.7s-0.7,1.7-1.6,1.7c-0.6,0-0.9-0.3-1.2-0.5v2.1h-0.7v-4.9h0.7v0.5
	C227.4,234,227.8,233.7,228.4,233.7L228.4,233.7z M228.2,234.3c-0.5,0-1,0.4-1,1.1s0.5,1.1,1,1.1s1-0.4,1-1.1
	S228.7,234.3,228.2,234.3L228.2,234.3z"/>
<path class="st4" d="M232,237.1c-0.9,0-1.6-0.7-1.6-1.7s0.7-1.7,1.6-1.7s1.6,0.7,1.6,1.6c0,0.1,0,0.2,0,0.3h-2.5
	c0.1,0.6,0.4,0.9,0.9,0.9c0.4,0,0.7-0.2,0.8-0.5h0.7C233.4,236.7,232.8,237.1,232,237.1L232,237.1z M231.1,235.1h1.8
	c0-0.5-0.4-0.8-0.9-0.8C231.5,234.3,231.2,234.6,231.1,235.1z"/>
<path class="st4" d="M264.7,235.6h-1.6v1.2h1.4v0.6h-1.4v1.3h1.6v0.6h-2.3v-4.2h2.3V235.6L264.7,235.6z"/>
<path class="st4" d="M266.5,238.1l-0.7,1.1h-0.7l1.1-1.6l-1.1-1.7h0.8l0.7,1.1l0.7-1.1h0.7l-1.1,1.6l1.1,1.7h-0.8L266.5,238.1
	L266.5,238.1z"/>
<path class="st4" d="M270.4,235.9c0.9,0,1.6,0.7,1.6,1.7s-0.7,1.7-1.6,1.7c-0.5,0-0.9-0.3-1.2-0.5v2.1h-0.7V236h0.7v0.5
	C269.4,236.2,269.8,235.9,270.4,235.9L270.4,235.9z M270.2,236.5c-0.5,0-1,0.4-1,1.1s0.5,1.1,1,1.1s1-0.4,1-1.1
	S270.8,236.5,270.2,236.5L270.2,236.5z"/>
<path class="st4" d="M273.3,239.3h-0.7v-3.3h0.7v0.5c0.2-0.3,0.5-0.5,1-0.5v0.7h-0.2c-0.5,0-0.8,0.2-0.8,0.9L273.3,239.3
	L273.3,239.3z"/>
<path class="st4" d="M277.2,235.9h0.7l-2,4.9h-0.7l0.7-1.6l-1.3-3.3h0.8l0.9,2.5L277.2,235.9L277.2,235.9z"/>
<path class="st4" d="M266.9,231.9c0,1.3-0.9,2.1-2.2,2.1h-1.4v-4.2h1.4C266,229.8,266.9,230.6,266.9,231.9L266.9,231.9z
	 M264.6,233.4c1,0,1.5-0.6,1.5-1.5s-0.5-1.6-1.5-1.6H264v3.1L264.6,233.4L264.6,233.4z"/>
<path class="st4" d="M268.9,230.6c0.6,0,0.9,0.3,1.1,0.5v-0.5h0.7v3.3H270v-0.5c-0.2,0.3-0.6,0.6-1.2,0.6c-0.9,0-1.5-0.7-1.5-1.7
	S268,230.6,268.9,230.6L268.9,230.6z M269,231.2c-0.5,0-1,0.4-1,1.1s0.5,1.1,1,1.1s1-0.4,1-1.1S269.5,231.2,269,231.2L269,231.2z"/>
<path class="st4" d="M271.7,231.2h-0.4v-0.6h0.4v-0.8h0.7v0.8h0.8v0.6h-0.8v1.8c0,0.2,0.1,0.4,0.4,0.4h0.4v0.6h-0.5
	c-0.6,0-1-0.2-1-0.9L271.7,231.2L271.7,231.2z"/>
<path class="st4" d="M275.3,234c-1,0-1.6-0.7-1.6-1.7s0.7-1.7,1.6-1.7s1.6,0.7,1.6,1.6c0,0.1,0,0.2,0,0.3h-2.5
	c0,0.6,0.4,0.9,0.9,0.9c0.4,0,0.7-0.2,0.8-0.5h0.7C276.6,233.5,276.1,234,275.3,234L275.3,234z M274.4,232h1.8
	c0-0.5-0.4-0.8-0.9-0.8C274.8,231.2,274.4,231.5,274.4,232z"/>
<path class="st7" d="M303.8,232.9h0.7l-1.6,4.2h-0.8l-1.6-4.2h0.7l1.2,3.5L303.8,232.9z"/>
<path class="st7" d="M305,232.9c0-0.2,0.2-0.4,0.4-0.4s0.4,0.2,0.4,0.4s-0.2,0.4-0.4,0.4S305,233.1,305,232.9z M305.1,233.8h0.7v3.3
	h-0.7V233.8z"/>
<path class="st7" d="M307.9,237.1c-0.8,0-1.4-0.5-1.4-1.1h0.7c0,0.3,0.3,0.5,0.7,0.5s0.6-0.2,0.6-0.4c0-0.6-1.9-0.3-1.9-1.5
	c0-0.5,0.5-1,1.3-1s1.2,0.4,1.3,1.1h-0.7c0-0.3-0.2-0.5-0.6-0.5s-0.6,0.1-0.6,0.4c0,0.7,1.9,0.3,1.9,1.5
	C309.1,236.7,308.6,237.1,307.9,237.1L307.9,237.1z"/>
<path class="st7" d="M309.8,232.9c0-0.2,0.2-0.4,0.4-0.4s0.4,0.2,0.4,0.4s-0.2,0.4-0.4,0.4S309.8,233.1,309.8,232.9z M309.9,233.8
	h0.7v3.3h-0.7V233.8z"/>
<path class="st7" d="M313.3,233.7c0.9,0,1.6,0.7,1.6,1.7s-0.7,1.7-1.6,1.7c-0.5,0-0.9-0.2-1.2-0.5v0.5h-0.7v-4.4h0.7v1.6
	C312.4,233.9,312.8,233.7,313.3,233.7z M313.2,234.3c-0.5,0-1,0.4-1,1.1s0.5,1.1,1,1.1s1-0.4,1-1.1S313.7,234.3,313.2,234.3
	L313.2,234.3z"/>
<path class="st7" d="M315.6,232.6h0.7v4.4h-0.7V232.6z"/>
<path class="st7" d="M318.6,237.1c-1,0-1.6-0.7-1.6-1.7s0.7-1.7,1.6-1.7s1.6,0.7,1.6,1.6c0,0.1,0,0.2,0,0.3h-2.5
	c0,0.6,0.4,0.9,0.9,0.9c0.4,0,0.7-0.2,0.8-0.5h0.7C319.9,236.7,319.4,237.1,318.6,237.1L318.6,237.1z M317.6,235.1h1.8
	c0-0.5-0.4-0.8-0.9-0.8C318.1,234.3,317.7,234.6,317.6,235.1z"/>
<path class="st4" d="M336.3,234.6h-1.8l-0.3,0.9h-0.7l1.5-4.2h0.8l1.5,4.2h-0.7L336.3,234.6L336.3,234.6z M335.5,232.1l-0.7,1.9h1.4
	L335.5,232.1z"/>
<path class="st4" d="M339.4,232.1c0.8,0,1.3,0.4,1.5,1.1h-0.7c-0.1-0.3-0.4-0.5-0.8-0.5c-0.5,0-0.9,0.4-0.9,1.1s0.4,1.1,0.9,1.1
	c0.4,0,0.7-0.2,0.8-0.5h0.7c-0.2,0.6-0.7,1.1-1.5,1.1c-1,0-1.6-0.7-1.6-1.7S338.4,232.1,339.4,232.1L339.4,232.1z"/>
<path class="st4" d="M341.6,231h0.7v2.6l1.2-1.4h1l-1.5,1.7l1.5,1.6h-0.9l-1.2-1.4v1.4h-0.7L341.6,231L341.6,231z"/>
<path class="st4" d="M347.3,233.6c0-0.6-0.3-0.9-0.8-0.9s-0.8,0.3-0.8,0.9v1.9H345v-3.3h0.7v0.4c0.2-0.3,0.6-0.4,1-0.4
	c0.8,0,1.4,0.5,1.4,1.4v2h-0.7V233.6L347.3,233.6z"/>
<path class="st4" d="M350.3,235.5c-0.9,0-1.7-0.7-1.7-1.7s0.8-1.7,1.7-1.7s1.7,0.7,1.7,1.7S351.2,235.5,350.3,235.5z M350.3,234.9
	c0.5,0,1-0.4,1-1.1s-0.5-1.1-1-1.1s-1,0.4-1,1.1S349.8,234.9,350.3,234.9L350.3,234.9z"/>
<path class="st4" d="M352.3,232.1h0.7l0.7,2.7l0.7-2.7h0.7l0.7,2.6l0.7-2.6h0.7l-1,3.3h-0.7l-0.7-2.4l-0.7,2.4h-0.7L352.3,232.1
	L352.3,232.1z"/>
<path class="st4" d="M357.7,231h0.7v4.4h-0.7V231z"/>
<path class="st4" d="M360.7,235.5c-1,0-1.6-0.7-1.6-1.7s0.7-1.7,1.6-1.7s1.6,0.7,1.6,1.6c0,0.1,0,0.2,0,0.3h-2.5
	c0,0.6,0.4,0.9,0.9,0.9c0.4,0,0.7-0.2,0.8-0.5h0.7C362,235.1,361.5,235.5,360.7,235.5L360.7,235.5z M359.8,233.5h1.8
	c0-0.5-0.4-0.8-0.9-0.8C360.2,232.7,359.8,233,359.8,233.5z"/>
<path class="st4" d="M364.3,232.1c0.4,0,0.9,0.2,1.1,0.5V231h0.7v4.4h-0.7V235c-0.2,0.3-0.6,0.6-1.1,0.6c-0.9,0-1.6-0.7-1.6-1.7
	S363.5,232.1,364.3,232.1L364.3,232.1z M364.5,232.7c-0.5,0-1,0.4-1,1.1s0.5,1.1,1,1.1s1-0.4,1-1.1S365,232.7,364.5,232.7
	L364.5,232.7z"/>
<path class="st4" d="M368.4,232.1c0.5,0,0.9,0.2,1.1,0.5v-0.5h0.7v3.4c0,0.9-0.6,1.6-1.6,1.6c-0.9,0-1.5-0.4-1.6-1.2h0.7
	c0.1,0.3,0.5,0.6,1,0.6c0.5,0,0.9-0.3,0.9-1V235c-0.2,0.3-0.6,0.6-1.1,0.6c-0.9,0-1.6-0.7-1.6-1.7S367.5,232.1,368.4,232.1z
	 M368.6,232.7c-0.5,0-1,0.4-1,1.1s0.5,1.1,1,1.1s1-0.4,1-1.1S369.1,232.7,368.6,232.7L368.6,232.7z"/>
<path class="st4" d="M372.6,235.5c-1,0-1.6-0.7-1.6-1.7s0.7-1.7,1.6-1.7s1.6,0.7,1.6,1.6c0,0.1,0,0.2,0,0.3h-2.5
	c0,0.6,0.4,0.9,0.9,0.9c0.4,0,0.7-0.2,0.8-0.5h0.7C373.9,235.1,373.4,235.5,372.6,235.5L372.6,235.5z M371.6,233.5h1.8
	c0-0.5-0.4-0.8-0.9-0.8C372.1,232.7,371.7,233,371.6,233.5z"/>
<path class="st4" d="M379.6,233.6c0-0.6-0.3-0.9-0.8-0.9s-0.8,0.3-0.8,0.9v1.9h-0.7v-1.9c0-0.6-0.3-0.9-0.8-0.9s-0.8,0.3-0.8,0.9
	v1.9h-0.7v-3.3h0.7v0.4c0.2-0.3,0.6-0.4,1-0.4c0.5,0,1,0.2,1.2,0.7c0.2-0.4,0.7-0.7,1.1-0.7c0.8,0,1.4,0.5,1.4,1.4v2h-0.7
	L379.6,233.6L379.6,233.6z"/>
<path class="st4" d="M354,240.8c-1,0-1.6-0.7-1.6-1.7s0.7-1.7,1.6-1.7s1.6,0.7,1.6,1.6c0,0.1,0,0.2,0,0.3H353c0,0.6,0.4,0.9,0.9,0.9
	c0.4,0,0.7-0.2,0.8-0.5h0.7C355.3,240.4,354.8,240.8,354,240.8L354,240.8z M353,238.8h1.8c0-0.5-0.4-0.8-0.9-0.8
	C353.5,238,353.1,238.3,353,238.8z"/>
<path class="st4" d="M358.6,238.9c0-0.6-0.3-0.9-0.8-0.9s-0.8,0.3-0.8,0.9v1.9h-0.7v-3.3h0.7v0.4c0.2-0.3,0.6-0.4,1-0.4
	c0.8,0,1.4,0.5,1.4,1.4v2h-0.7V238.9L358.6,238.9z"/>
<path class="st4" d="M360.3,238h-0.4v-0.6h0.4v-0.8h0.7v0.8h0.8v0.6H361v1.8c0,0.2,0.1,0.4,0.4,0.4h0.4v0.6h-0.5c-0.6,0-1-0.2-1-0.9
	L360.3,238L360.3,238z"/>
<path class="st7" d="M394.1,236.2h-1.8l-0.3,0.9h-0.7l1.5-4.2h0.8l1.5,4.2h-0.7L394.1,236.2L394.1,236.2z M393.2,233.7l-0.7,1.9h1.4
	L393.2,233.7z"/>
<path class="st7" d="M397.2,233.7c0.8,0,1.3,0.4,1.5,1.1H398c-0.1-0.3-0.4-0.5-0.8-0.5c-0.5,0-0.9,0.4-0.9,1.1s0.4,1.1,0.9,1.1
	c0.4,0,0.7-0.2,0.8-0.5h0.7c-0.2,0.6-0.7,1.1-1.5,1.1c-1,0-1.6-0.7-1.6-1.7S396.2,233.7,397.2,233.7L397.2,233.7z"/>
<path class="st7" d="M399.5,234.3h-0.4v-0.6h0.4v-0.8h0.7v0.8h0.8v0.6h-0.8v1.8c0,0.2,0.1,0.4,0.4,0.4h0.4v0.6h-0.5
	c-0.6,0-1-0.2-1-0.9L399.5,234.3L399.5,234.3z"/>
<path class="st7" d="M401.6,232.9c0-0.2,0.2-0.4,0.4-0.4s0.4,0.2,0.4,0.4s-0.2,0.4-0.4,0.4S401.6,233.1,401.6,232.9z M401.7,233.8
	h0.7v3.3h-0.7V233.8z"/>
<path class="st7" d="M404.7,237.1c-0.9,0-1.7-0.7-1.7-1.7s0.8-1.7,1.7-1.7s1.7,0.7,1.7,1.7S405.6,237.1,404.7,237.1z M404.7,236.5
	c0.5,0,1-0.4,1-1.1s-0.5-1.1-1-1.1s-1,0.4-1,1.1S404.2,236.5,404.7,236.5L404.7,236.5z"/>
<path class="st7" d="M409.5,235.2c0-0.6-0.3-0.9-0.8-0.9s-0.8,0.3-0.8,0.9v1.9h-0.7v-3.3h0.7v0.4c0.2-0.3,0.6-0.4,1-0.4
	c0.8,0,1.4,0.5,1.4,1.4v2h-0.7V235.2L409.5,235.2z"/>
<path class="st7" d="M412.2,237.1c-0.8,0-1.4-0.5-1.4-1.1h0.7c0,0.3,0.3,0.5,0.7,0.5c0.4,0,0.6-0.2,0.6-0.4c0-0.6-1.9-0.3-1.9-1.5
	c0-0.5,0.5-1,1.3-1s1.2,0.4,1.3,1.1h-0.7c0-0.3-0.2-0.5-0.6-0.5s-0.6,0.1-0.6,0.4c0,0.7,1.9,0.3,1.9,1.5
	C413.5,236.7,413,237.1,412.2,237.1L412.2,237.1z"/>
<rect x="273" y="262.2" class="st10" width="7" height="1.4"/>
<path class="st11" d="M297.8,260.5h6c1.3,0,2.4,1.1,2.4,2.4l0,0c0,1.3-1.1,2.4-2.4,2.4h-6c-1.3,0-2.4-1.1-2.4-2.4l0,0
	C295.4,261.6,296.5,260.5,297.8,260.5z"/>
<path class="st12" d="M299.6,264.9c0-2.1-1.7-3.9-3.9-3.9s-3.9,1.7-3.9,3.9s1.7,3.9,3.9,3.9S299.6,267,299.6,264.9z"/>
<path class="st13" d="M299.6,262.9c0-2.1-1.7-3.9-3.9-3.9s-3.9,1.7-3.9,3.9s1.7,3.9,3.9,3.9S299.6,265,299.6,262.9z"/>
<path class="st1" d="M424.4,218.8h53.6c5.5,0,10,4.5,10,10v49.6c0,5.5-4.5,10-10,10h-53.6c-5.5,0-10-4.5-10-10v-49.6
	C414.4,223.3,418.9,218.8,424.4,218.8z"/>
<path class="st14" d="M462.8,270.1c9.3,0,16.9-7.5,16.9-16.9s-7.5-16.9-16.9-16.9s-16.9,7.6-16.9,16.9S453.5,270.1,462.8,270.1
	L462.8,270.1z"/>
<path class="st14" d="M462.8,269.9c9.2,0,16.7-7.5,16.7-16.7s-7.5-16.7-16.7-16.7s-16.7,7.5-16.7,16.7S453.6,269.9,462.8,269.9z"/>
<path class="st15" d="M462.8,269.8c9.1,0,16.5-7.4,16.5-16.5s-7.4-16.5-16.5-16.5s-16.5,7.4-16.5,16.5S453.7,269.8,462.8,269.8z"/>
<path class="st15" d="M462.8,269.6c9,0,16.3-7.3,16.3-16.3s-7.3-16.3-16.3-16.3s-16.3,7.3-16.3,16.3
	C446.5,262.3,453.8,269.6,462.8,269.6z"/>
<path class="st16" d="M462.8,269.4c8.9,0,16.1-7.2,16.1-16.1s-7.2-16.1-16.1-16.1s-16.1,7.2-16.1,16.1S453.9,269.4,462.8,269.4z"/>
<path class="st17" d="M462.8,269.2c8.8,0,15.9-7.1,15.9-15.9s-7.1-15.9-15.9-15.9s-15.9,7.1-15.9,15.9
	C446.8,262,454,269.2,462.8,269.2z"/>
<path class="st17" d="M462.8,269c8.7,0,15.8-7,15.8-15.8s-7-15.8-15.8-15.8s-15.8,7.1-15.8,15.8C447,262,454.1,269,462.8,269z"/>
<path class="st18" d="M462.8,268.8c8.6,0,15.6-7,15.6-15.6s-7-15.6-15.6-15.6s-15.6,7-15.6,15.6S454.2,268.8,462.8,268.8z"/>
<path class="st18" d="M462.8,268.6c8.5,0,15.4-6.9,15.4-15.4s-6.9-15.4-15.4-15.4s-15.4,6.9-15.4,15.4
	C447.4,261.7,454.3,268.6,462.8,268.6z"/>
<path class="st13" d="M462.8,268.5c8.4,0,15.2-6.8,15.2-15.2s-6.8-15.2-15.2-15.2s-15.2,6.8-15.2,15.2S454.4,268.5,462.8,268.5z"/>
<path class="st13" d="M462.8,268.3c8.3,0,15-6.7,15-15s-6.7-15-15-15s-15,6.7-15,15S454.5,268.3,462.8,268.3z"/>
<path class="st19" d="M462.8,268.1c8.2,0,14.8-6.6,14.8-14.8s-6.6-14.8-14.8-14.8s-14.8,6.6-14.8,14.8
	C447.9,261.4,454.6,268.1,462.8,268.1z"/>
<path class="st20" d="M462.8,267.9c8.1,0,14.6-6.5,14.6-14.6s-6.5-14.6-14.6-14.6s-14.6,6.6-14.6,14.6
	C448.1,261.3,454.7,267.9,462.8,267.9z"/>
<path class="st20" d="M462.8,267.7c8,0,14.5-6.5,14.5-14.4s-6.5-14.4-14.5-14.4s-14.5,6.5-14.5,14.4S454.8,267.7,462.8,267.7z"/>
<path class="st21" d="M462.8,267.5c7.9,0,14.3-6.4,14.3-14.3s-6.4-14.3-14.3-14.3s-14.3,6.4-14.3,14.3
	C448.5,261.1,454.9,267.5,462.8,267.5z"/>
<path class="st22" d="M462.8,267.3c7.8,0,14.1-6.3,14.1-14.1s-6.3-14.1-14.1-14.1s-14.1,6.3-14.1,14.1S455,267.3,462.8,267.3z"/>
<path class="st22" d="M462.8,267.1c7.7,0,13.9-6.2,13.9-13.9s-6.2-13.9-13.9-13.9s-13.9,6.2-13.9,13.9S455.1,267.1,462.8,267.1z"/>
<path class="st23" d="M462.8,267c7.6,0,13.7-6.1,13.7-13.7s-6.1-13.7-13.7-13.7s-13.7,6.1-13.7,13.7
	C449.1,260.8,455.2,267,462.8,267z"/>
<path class="st24" d="M462.8,266.8c7.5,0,13.5-6.1,13.5-13.5s-6.1-13.5-13.5-13.5s-13.5,6.1-13.5,13.5S455.3,266.8,462.8,266.8z"/>
<path class="st24" d="M462.8,266.6c7.4,0,13.3-6,13.3-13.3s-6-13.3-13.3-13.3s-13.3,6-13.3,13.3S455.4,266.6,462.8,266.6z"/>
<path class="st3" d="M462.8,266.4c7.3,0,13.2-5.9,13.2-13.2s-5.9-13.2-13.2-13.2s-13.2,5.9-13.2,13.2
	C449.6,260.5,455.5,266.4,462.8,266.4z"/>
<path class="st3" d="M462.8,266.2c7.2,0,13-5.8,13-13s-5.8-13-13-13s-13,5.8-13,13S455.6,266.2,462.8,266.2z"/>
<path class="st25" d="M462.8,266c7.1,0,12.8-5.7,12.8-12.8s-5.7-12.8-12.8-12.8s-12.8,5.7-12.8,12.8C450,260.3,455.7,266,462.8,266z
	"/>
<path class="st26" d="M462.8,265.9c7,0,12.6-5.6,12.6-12.6s-5.6-12.6-12.6-12.6s-12.6,5.6-12.6,12.6
	C450.2,260.2,455.8,265.9,462.8,265.9z"/>
<path class="st26" d="M462.8,265.7c6.9,0,12.4-5.6,12.4-12.4s-5.6-12.4-12.4-12.4s-12.4,5.6-12.4,12.4
	C450.3,260.1,455.9,265.7,462.8,265.7z"/>
<path class="st27" d="M462.8,265.5c6.8,0,12.2-5.5,12.2-12.2s-5.5-12.2-12.2-12.2s-12.2,5.5-12.2,12.2
	C450.5,260,456,265.5,462.8,265.5z"/>
<path class="st27" d="M462.8,265.3c6.6,0,12-5.4,12-12s-5.4-12-12-12s-12,5.4-12,12C450.7,259.9,456.1,265.3,462.8,265.3z"/>
<path class="st28" d="M436.2,247.6c-3.3,0-6,2.7-6,6c0,3.3,2.7,6,6,6h20.5c3.3,0,6-2.7,6-6s-2.7-6-6-6L436.2,247.6L436.2,247.6z"/>
<path class="st7" d="M201.1,258.7c1.2,0,2.3,0.6,2.8,1.8h-1.2c-0.3-0.6-0.9-0.9-1.6-0.9c-1.2,0-2,0.8-2,2.2s0.9,2.2,2,2.2
	c0.7,0,1.3-0.3,1.6-0.9h1.2c-0.4,1.2-1.5,1.8-2.8,1.8c-1.7,0-3-1.2-3-3S199.4,258.7,201.1,258.7z"/>
<path class="st7" d="M206,264.7h-1V260h1v0.7c0.3-0.5,0.7-0.8,1.4-0.8v1h-0.2c-0.7,0-1.2,0.3-1.2,1.3V264.7z"/>
<path class="st7" d="M210.3,264.8c-1.4,0-2.4-1-2.4-2.4s1-2.4,2.4-2.4s2.3,0.9,2.3,2.3c0,0.2,0,0.3,0,0.5H209
	c0.1,0.8,0.6,1.2,1.3,1.2c0.6,0,0.9-0.3,1.1-0.7h1.1C212.2,264.1,211.4,264.8,210.3,264.8L210.3,264.8z M209,261.9h2.6
	c0-0.7-0.6-1.2-1.3-1.2C209.6,260.7,209.1,261.2,209,261.9z"/>
<path class="st7" d="M215.4,259.9c0.6,0,1.3,0.3,1.6,0.7v-2.3h1v6.3h-1V264c-0.3,0.4-0.9,0.8-1.6,0.8c-1.2,0-2.2-1-2.2-2.5
	S214.2,259.9,215.4,259.9L215.4,259.9z M215.6,260.8c-0.7,0-1.4,0.5-1.4,1.6s0.7,1.6,1.4,1.6s1.4-0.6,1.4-1.6
	S216.4,260.8,215.6,260.8z"/>
<path class="st7" d="M219.2,258.7c0-0.4,0.3-0.6,0.6-0.6s0.6,0.3,0.6,0.6s-0.3,0.6-0.6,0.6S219.2,259.1,219.2,258.7z M219.3,260h1
	v4.7h-1V260z"/>
<path class="st7" d="M221.8,260.8h-0.6V260h0.6v-1.2h1v1.2h1.1v0.8h-1.1v2.6c0,0.4,0.1,0.5,0.6,0.5h0.6v0.8h-0.8
	c-0.8,0-1.4-0.4-1.4-1.3V260.8z"/>
<path class="st7" d="M229.1,258.8c1.4,0,2.1,0.8,2.1,1.8c0,0.7-0.4,1.5-1.4,1.7l1.5,2.5h-1.2l-1.4-2.4H228v2.4h-1v-5.9H229.1z
	 M229.1,259.5H228v2h1.1c0.8,0,1.1-0.4,1.1-1S229.8,259.5,229.1,259.5L229.1,259.5z"/>
<path class="st7" d="M234.4,264.8c-1.4,0-2.4-1-2.4-2.4s1-2.4,2.4-2.4s2.3,0.9,2.3,2.3c0,0.2,0,0.3,0,0.5h-3.6
	c0.1,0.8,0.6,1.2,1.3,1.2c0.6,0,0.9-0.3,1.1-0.7h1.1C236.3,264.1,235.6,264.8,234.4,264.8L234.4,264.8z M233.1,261.9h2.6
	c0-0.7-0.6-1.2-1.3-1.2C233.7,260.7,233.2,261.2,233.1,261.9z"/>
<path class="st7" d="M240.3,259.9c1.2,0,2.2,1,2.2,2.4s-1,2.5-2.2,2.5c-0.8,0-1.3-0.4-1.6-0.8v2.9h-1v-7h1v0.7
	C238.9,260.3,239.5,259.9,240.3,259.9L240.3,259.9z M240.1,260.8c-0.7,0-1.4,0.6-1.4,1.6s0.7,1.6,1.4,1.6s1.4-0.6,1.4-1.6
	S240.8,260.8,240.1,260.8z"/>
<path class="st7" d="M245.5,264.8c-1.3,0-2.4-1-2.4-2.4s1.1-2.4,2.4-2.4s2.4,1,2.4,2.4S246.8,264.8,245.5,264.8L245.5,264.8z
	 M245.5,263.9c0.7,0,1.4-0.5,1.4-1.6s-0.7-1.6-1.4-1.6s-1.4,0.5-1.4,1.6S244.8,263.9,245.5,263.9L245.5,263.9z"/>
<path class="st7" d="M249.9,264.7h-1V260h1v0.7c0.3-0.5,0.7-0.8,1.4-0.8v1h-0.2c-0.7,0-1.2,0.3-1.2,1.3V264.7z"/>
<path class="st7" d="M252.4,260.8h-0.6V260h0.6v-1.2h1v1.2h1.1v0.8h-1.1v2.6c0,0.4,0.1,0.5,0.6,0.5h0.6v0.8h-0.8
	c-0.8,0-1.4-0.4-1.4-1.3V260.8z"/>
<path class="st11" d="M339.7,260.5h6c1.3,0,2.4,1.1,2.4,2.4l0,0c0,1.3-1.1,2.4-2.4,2.4h-6c-1.3,0-2.4-1.1-2.4-2.4l0,0
	C337.3,261.6,338.4,260.5,339.7,260.5z"/>
<path class="st12" d="M341.5,264.9c0-2.1-1.7-3.9-3.9-3.9s-3.9,1.7-3.9,3.9s1.7,3.9,3.9,3.9S341.5,267,341.5,264.9z"/>
<path class="st13" d="M341.5,262.9c0-2.1-1.7-3.9-3.9-3.9s-3.9,1.7-3.9,3.9s1.7,3.9,3.9,3.9S341.5,265,341.5,262.9z"/>
<path class="st29" d="M387.2,265.7c-2.5,0-4-2.4-5.2-3.2c1.2-0.9,2.7-3.2,5.2-3.2s4,2.4,5.2,3.2
	C391.2,263.3,389.6,265.7,387.2,265.7L387.2,265.7z M389.6,262.5c0-1.3-1.1-2.4-2.4-2.4s-2.4,1.1-2.4,2.4s1.1,2.4,2.4,2.4
	S389.6,263.8,389.6,262.5L389.6,262.5z M387.8,263c0-0.5-0.4-0.9-0.9-0.9s-0.9,0.4-0.9,0.9s0.4,0.9,0.9,0.9S387.8,263.6,387.8,263z"
	/>
<path class="st15" d="M462.8,264.8c6.4,0,11.5-5.2,11.5-11.5s-5.2-11.5-11.5-11.5s-11.5,5.2-11.5,11.5S456.4,264.8,462.8,264.8z"/>
<path class="st8" d="M31.9,290.5h5c0.8,0,1.5,0.7,1.5,1.5v5c0,0.8-0.7,1.5-1.5,1.5h-5c-0.8,0-1.5-0.7-1.5-1.5v-5
	C30.5,291.1,31.1,290.5,31.9,290.5z"/>
<path class="st9" d="M62.2,298.8c-2.4,0-4.4-2-4.4-4.4s2-4.4,4.4-4.4h109.3c2.4,0,4.4,2,4.4,4.4s-2,4.4-4.4,4.4H62.2z"/>
<path class="st30" d="M226.5,79.8h188.2c7.3,0,13.2,5.9,13.2,13.2v62.3c0,7.3-5.9,13.2-13.2,13.2H226.5c-7.3,0-13.2-5.9-13.2-13.2
	V93.1C213.2,85.8,219.2,79.8,226.5,79.8z"/>
<rect x="273" y="295" class="st10" width="7" height="1.4"/>
<path class="st11" d="M297.8,293.2h6c1.3,0,2.4,1.1,2.4,2.4l0,0c0,1.3-1.1,2.4-2.4,2.4h-6c-1.3,0-2.4-1.1-2.4-2.4l0,0
	C295.4,294.3,296.5,293.2,297.8,293.2z"/>
<path class="st12" d="M299.6,297.6c0-2.1-1.7-3.9-3.9-3.9s-3.9,1.7-3.9,3.9s1.7,3.9,3.9,3.9S299.6,299.8,299.6,297.6z"/>
<path class="st13" d="M299.6,295.6c0-2.1-1.7-3.9-3.9-3.9s-3.9,1.7-3.9,3.9s1.7,3.9,3.9,3.9S299.6,297.7,299.6,295.6z"/>
<path class="st7" d="M201.1,291.4c1.2,0,2.3,0.6,2.8,1.8h-1.2c-0.3-0.6-0.9-0.9-1.6-0.9c-1.2,0-2,0.8-2,2.2s0.9,2.2,2,2.2
	c0.7,0,1.3-0.3,1.6-0.9h1.2c-0.4,1.2-1.5,1.8-2.8,1.8c-1.7,0-3-1.2-3-3S199.4,291.4,201.1,291.4z"/>
<path class="st7" d="M206,297.5h-1v-4.7h1v0.7c0.3-0.5,0.7-0.8,1.4-0.8v1h-0.2c-0.7,0-1.2,0.3-1.2,1.3V297.5z"/>
<path class="st7" d="M210.3,297.5c-1.4,0-2.4-1-2.4-2.4s1-2.4,2.4-2.4s2.3,0.9,2.3,2.3c0,0.2,0,0.3,0,0.5H209
	c0.1,0.8,0.6,1.2,1.3,1.2c0.6,0,0.9-0.3,1.1-0.7h1.1C212.2,296.9,211.4,297.5,210.3,297.5L210.3,297.5z M209,294.7h2.6
	c0-0.7-0.6-1.2-1.3-1.2C209.6,293.5,209.1,293.9,209,294.7z"/>
<path class="st7" d="M215.4,292.6c0.6,0,1.3,0.3,1.6,0.7v-2.3h1v6.3h-1v-0.7c-0.3,0.4-0.9,0.8-1.6,0.8c-1.2,0-2.2-1-2.2-2.5
	S214.2,292.7,215.4,292.6L215.4,292.6z M215.6,293.5c-0.7,0-1.4,0.5-1.4,1.6s0.7,1.6,1.4,1.6s1.4-0.6,1.4-1.6
	S216.4,293.5,215.6,293.5z"/>
<path class="st7" d="M219.2,291.5c0-0.4,0.3-0.6,0.6-0.6s0.6,0.3,0.6,0.6s-0.3,0.6-0.6,0.6S219.2,291.8,219.2,291.5z M219.3,292.7h1
	v4.7h-1V292.7z"/>
<path class="st7" d="M221.8,293.5h-0.6v-0.8h0.6v-1.2h1v1.2h1.1v0.8h-1.1v2.6c0,0.4,0.1,0.5,0.6,0.5h0.6v0.8h-0.8
	c-0.8,0-1.4-0.4-1.4-1.3V293.5z"/>
<path class="st7" d="M229.1,291.5c1.4,0,2.1,0.8,2.1,1.8c0,0.7-0.4,1.5-1.4,1.7l1.5,2.5h-1.2l-1.4-2.4H228v2.4h-1v-5.9H229.1z
	 M229.1,292.3H228v2h1.1c0.8,0,1.1-0.4,1.1-1S229.8,292.3,229.1,292.3L229.1,292.3z"/>
<path class="st7" d="M234.4,297.5c-1.4,0-2.4-1-2.4-2.4s1-2.4,2.4-2.4s2.3,0.9,2.3,2.3c0,0.2,0,0.3,0,0.5h-3.6
	c0.1,0.8,0.6,1.2,1.3,1.2c0.6,0,0.9-0.3,1.1-0.7h1.1C236.3,296.9,235.6,297.5,234.4,297.5L234.4,297.5z M233.1,294.7h2.6
	c0-0.7-0.6-1.2-1.3-1.2C233.7,293.5,233.2,293.9,233.1,294.7z"/>
<path class="st7" d="M240.3,292.6c1.2,0,2.2,1,2.2,2.4s-1,2.5-2.2,2.5c-0.8,0-1.3-0.4-1.6-0.8v2.9h-1v-7h1v0.7
	C238.9,293,239.5,292.7,240.3,292.6L240.3,292.6z M240.1,293.5c-0.7,0-1.4,0.6-1.4,1.6s0.7,1.6,1.4,1.6s1.4-0.6,1.4-1.6
	S240.8,293.5,240.1,293.5z"/>
<path class="st7" d="M245.5,297.5c-1.3,0-2.4-1-2.4-2.4s1.1-2.4,2.4-2.4s2.4,1,2.4,2.4S246.8,297.5,245.5,297.5L245.5,297.5z
	 M245.5,296.7c0.7,0,1.4-0.5,1.4-1.6s-0.7-1.6-1.4-1.6s-1.4,0.5-1.4,1.6S244.8,296.7,245.5,296.7L245.5,296.7z"/>
<path class="st7" d="M249.9,297.5h-1v-4.7h1v0.7c0.3-0.5,0.7-0.8,1.4-0.8v1h-0.2c-0.7,0-1.2,0.3-1.2,1.3V297.5z"/>
<path class="st7" d="M252.4,293.5h-0.6v-0.8h0.6v-1.2h1v1.2h1.1v0.8h-1.1v2.6c0,0.4,0.1,0.5,0.6,0.5h0.6v0.8h-0.8
	c-0.8,0-1.4-0.4-1.4-1.3V293.5z"/>
<path class="st11" d="M339.7,293.2h6c1.3,0,2.4,1.1,2.4,2.4l0,0c0,1.3-1.1,2.4-2.4,2.4h-6c-1.3,0-2.4-1.1-2.4-2.4l0,0
	C337.3,294.3,338.4,293.2,339.7,293.2z"/>
<path class="st12" d="M341.5,297.6c0-2.1-1.7-3.9-3.9-3.9s-3.9,1.7-3.9,3.9s1.7,3.9,3.9,3.9S341.5,299.8,341.5,297.6z"/>
<path class="st13" d="M341.5,295.6c0-2.1-1.7-3.9-3.9-3.9s-3.9,1.7-3.9,3.9s1.7,3.9,3.9,3.9S341.5,297.7,341.5,295.6z"/>
<path class="st29" d="M387.2,298.4c-2.5,0-4-2.4-5.2-3.2c1.2-0.9,2.7-3.2,5.2-3.2s4,2.4,5.2,3.2C391.2,296,389.6,298.4,387.2,298.4
	L387.2,298.4z M389.6,295.2c0-1.3-1.1-2.4-2.4-2.4s-2.4,1.1-2.4,2.4s1.1,2.4,2.4,2.4S389.6,296.5,389.6,295.2L389.6,295.2z
	 M387.8,295.8c0-0.5-0.4-0.9-0.9-0.9s-0.9,0.4-0.9,0.9s0.4,0.9,0.9,0.9S387.8,296.3,387.8,295.8z"/>
<rect y="311.3" class="st0" width="424.6" height="31.7"/>
<path class="st8" d="M31.9,323.2h5c0.8,0,1.5,0.7,1.5,1.5v5c0,0.8-0.7,1.5-1.5,1.5h-5c-0.8,0-1.5-0.7-1.5-1.5v-5
	C30.5,323.9,31.1,323.2,31.9,323.2z"/>
<path class="st9" d="M62.2,331.6c-2.4,0-4.4-2-4.4-4.4s2-4.4,4.4-4.4h109.3c2.4,0,4.4,2,4.4,4.4s-2,4.4-4.4,4.4H62.2z"/>
<rect x="273" y="327.7" class="st10" width="7" height="1.4"/>
<path class="st11" d="M297.8,326h6c1.3,0,2.4,1.1,2.4,2.4l0,0c0,1.3-1.1,2.4-2.4,2.4h-6c-1.3,0-2.4-1.1-2.4-2.4l0,0
	C295.4,327.1,296.5,326,297.8,326z"/>
<path class="st12" d="M299.6,330.4c0-2.1-1.7-3.9-3.9-3.9s-3.9,1.7-3.9,3.9s1.7,3.9,3.9,3.9S299.6,332.5,299.6,330.4z"/>
<path class="st13" d="M299.6,328.4c0-2.1-1.7-3.9-3.9-3.9s-3.9,1.7-3.9,3.9s1.7,3.9,3.9,3.9S299.6,330.5,299.6,328.4z"/>
<path class="st11" d="M339.7,326h6c1.3,0,2.4,1.1,2.4,2.4l0,0c0,1.3-1.1,2.4-2.4,2.4h-6c-1.3,0-2.4-1.1-2.4-2.4l0,0
	C337.3,327.1,338.4,326,339.7,326z"/>
<path class="st12" d="M341.5,330.4c0-2.1-1.7-3.9-3.9-3.9s-3.9,1.7-3.9,3.9s1.7,3.9,3.9,3.9S341.5,332.5,341.5,330.4z"/>
<path class="st13" d="M341.5,328.4c0-2.1-1.7-3.9-3.9-3.9s-3.9,1.7-3.9,3.9s1.7,3.9,3.9,3.9S341.5,330.5,341.5,328.4z"/>
<path class="st29" d="M387.2,331.2c-2.5,0-4-2.4-5.2-3.2c1.2-0.9,2.7-3.2,5.2-3.2s4,2.4,5.2,3.2
	C391.2,328.8,389.6,331.2,387.2,331.2L387.2,331.2z M389.6,328c0-1.3-1.1-2.4-2.4-2.4s-2.4,1.1-2.4,2.4s1.1,2.4,2.4,2.4
	S389.6,329.3,389.6,328L389.6,328z M387.8,328.5c0-0.5-0.4-0.9-0.9-0.9s-0.9,0.4-0.9,0.9s0.4,0.9,0.9,0.9S387.8,329.1,387.8,328.5z"
	/>
<path class="st7" d="M203.1,329.2h-2.5l-0.4,1.2h-1l2.1-6h1.1l2.1,6h-1L203.1,329.2L203.1,329.2z M201.8,325.7l-1,2.8h1.9
	L201.8,325.7z"/>
<path class="st7" d="M205.5,326.5H205v-0.8h0.6v-0.3c0-1.1,0.6-1.6,1.8-1.6v0.8c-0.6,0-0.8,0.2-0.8,0.7v0.3h0.9v0.8h-0.9v3.9h-1
	L205.5,326.5L205.5,326.5z"/>
<path class="st7" d="M208.4,326.5h-0.6v-0.8h0.6v-0.3c0-1.1,0.6-1.6,1.8-1.6v0.8c-0.6,0-0.8,0.2-0.8,0.7v0.3h0.9v0.8h-0.9v3.9h-1
	L208.4,326.5L208.4,326.5z"/>
<path class="st7" d="M213.1,330.5c-1.3,0-2.4-1-2.4-2.4s1.1-2.4,2.4-2.4s2.4,1,2.4,2.4S214.5,330.5,213.1,330.5L213.1,330.5z
	 M213.1,329.7c0.7,0,1.4-0.5,1.4-1.6s-0.7-1.6-1.4-1.6s-1.4,0.5-1.4,1.6S212.4,329.7,213.1,329.7L213.1,329.7z"/>
<path class="st7" d="M217.5,330.4h-1v-4.7h1v0.7c0.3-0.5,0.7-0.8,1.4-0.8v1h-0.2c-0.7,0-1.2,0.3-1.2,1.3V330.4z"/>
<path class="st7" d="M221.7,325.6c0.6,0,1.3,0.3,1.6,0.7v-2.3h1v6.3h-1v-0.7c-0.3,0.4-0.9,0.8-1.6,0.8c-1.2,0-2.2-1-2.2-2.5
	S220.5,325.7,221.7,325.6L221.7,325.6z M221.9,326.5c-0.7,0-1.4,0.5-1.4,1.6s0.7,1.6,1.4,1.6s1.4-0.6,1.4-1.6
	S222.7,326.5,221.9,326.5z"/>
<path class="st7" d="M227.5,325.6c0.8,0,1.3,0.4,1.6,0.8v-0.7h1v4.7h-1v-0.7c-0.3,0.4-0.9,0.8-1.6,0.8c-1.2,0-2.2-1-2.2-2.5
	S226.3,325.6,227.5,325.6L227.5,325.6z M227.7,326.5c-0.7,0-1.4,0.5-1.4,1.6s0.7,1.6,1.4,1.6s1.4-0.6,1.4-1.6
	S228.5,326.5,227.7,326.5z"/>
<path class="st7" d="M234,325.6c1.2,0,2.2,1,2.2,2.4s-1,2.5-2.2,2.5c-0.8,0-1.3-0.4-1.6-0.8v0.7h-1v-6.3h1v2.3
	C232.7,326,233.3,325.6,234,325.6z M233.8,326.5c-0.7,0-1.4,0.6-1.4,1.6s0.7,1.6,1.4,1.6s1.4-0.6,1.4-1.6S234.6,326.5,233.8,326.5z"
	/>
<path class="st7" d="M237.1,324.5c0-0.4,0.3-0.6,0.6-0.6s0.6,0.3,0.6,0.6s-0.3,0.6-0.6,0.6S237.1,324.8,237.1,324.5z M237.2,325.7h1
	v4.7h-1V325.7z"/>
<path class="st7" d="M239.5,324.1h1v6.3h-1V324.1z"/>
<path class="st7" d="M241.6,324.5c0-0.4,0.3-0.6,0.6-0.6s0.6,0.3,0.6,0.6s-0.3,0.6-0.6,0.6S241.6,324.8,241.6,324.5z M241.7,325.7h1
	v4.7h-1V325.7z"/>
<path class="st7" d="M244.1,326.5h-0.6v-0.8h0.6v-1.2h1v1.2h1.1v0.8h-1.1v2.6c0,0.4,0.1,0.5,0.6,0.5h0.6v0.8h-0.8
	c-0.8,0-1.4-0.4-1.4-1.3V326.5z"/>
<path class="st7" d="M250.4,325.7h1l-2.9,6.9h-1l1-2.3l-1.9-4.6h1.1l1.3,3.6L250.4,325.7L250.4,325.7z"/>
<path class="st7" d="M214.8,316.3c1.4,0,2.1,0.8,2.1,1.8c0,0.7-0.4,1.5-1.4,1.7l1.5,2.5h-1.2l-1.4-2.4h-0.7v2.4h-1v-5.9H214.8z
	 M214.8,317.1h-1.1v2h1.1c0.8,0,1.1-0.4,1.1-1S215.5,317.1,214.8,317.1L214.8,317.1z"/>
<path class="st7" d="M220.1,322.4c-1.4,0-2.4-1-2.4-2.4s1-2.4,2.4-2.4s2.3,0.9,2.3,2.3c0,0.2,0,0.3,0,0.5h-3.6
	c0.1,0.8,0.6,1.2,1.3,1.2c0.6,0,0.9-0.3,1.1-0.7h1.1C222,321.7,221.3,322.4,220.1,322.4L220.1,322.4z M218.8,319.5h2.6
	c0-0.7-0.6-1.2-1.3-1.2C219.4,318.3,218.9,318.8,218.8,319.5z"/>
<path class="st7" d="M226,317.5c1.2,0,2.2,1,2.2,2.4s-1,2.5-2.2,2.5c-0.8,0-1.3-0.4-1.6-0.8v2.9h-1v-7h1v0.7
	C224.7,317.9,225.2,317.5,226,317.5L226,317.5z M225.8,318.3c-0.7,0-1.4,0.6-1.4,1.6s0.7,1.6,1.4,1.6s1.4-0.6,1.4-1.6
	S226.5,318.3,225.8,318.3z"/>
<path class="st7" d="M231.2,322.4c-1.3,0-2.4-1-2.4-2.4s1.1-2.4,2.4-2.4s2.4,1,2.4,2.4S232.6,322.4,231.2,322.4L231.2,322.4z
	 M231.2,321.5c0.7,0,1.4-0.5,1.4-1.6s-0.7-1.6-1.4-1.6s-1.4,0.5-1.4,1.6S230.5,321.5,231.2,321.5L231.2,321.5z"/>
<path class="st7" d="M235.6,322.3h-1v-4.7h1v0.7c0.3-0.5,0.7-0.8,1.4-0.8v1h-0.2c-0.7,0-1.2,0.3-1.2,1.3V322.3z"/>
<path class="st7" d="M238.1,318.4h-0.6v-0.8h0.6v-1.2h1v1.2h1.1v0.8h-1.1v2.6c0,0.4,0.1,0.5,0.6,0.5h0.6v0.8h-0.8
	c-0.8,0-1.4-0.4-1.4-1.3V318.4z"/>
<path class="st31" d="M418.8,330.2c0-0.6-0.5-1.1-1.1-1.1s-1.1,0.5-1.1,1.1s0.5,1.1,1.1,1.1S418.8,330.8,418.8,330.2z"/>
<path class="st31" d="M418.8,327.1c0-0.6-0.5-1.1-1.1-1.1s-1.1,0.5-1.1,1.1s0.5,1.1,1.1,1.1S418.8,327.8,418.8,327.1z"/>
<path class="st31" d="M418.8,324.1c0-0.6-0.5-1.1-1.1-1.1s-1.1,0.5-1.1,1.1s0.5,1.1,1.1,1.1S418.8,324.7,418.8,324.1z"/>
<path class="st31" d="M418.8,297.4c0-0.6-0.5-1.1-1.1-1.1s-1.1,0.5-1.1,1.1s0.5,1.1,1.1,1.1S418.8,298,418.8,297.4z"/>
<path class="st31" d="M418.8,294.4c0-0.6-0.5-1.1-1.1-1.1s-1.1,0.5-1.1,1.1s0.5,1.1,1.1,1.1S418.8,295,418.8,294.4z"/>
<path class="st31" d="M418.8,291.4c0-0.6-0.5-1.1-1.1-1.1s-1.1,0.5-1.1,1.1s0.5,1.1,1.1,1.1S418.8,292,418.8,291.4z"/>
<path class="st4" d="M234.3,123.7h173.6c1.2,0,2.2,1,2.2,2.2V147c0,1.2-1,2.2-2.2,2.2H234.3c-1.2,0-2.2-1-2.2-2.2v-21.2
	C232.2,124.7,233.1,123.7,234.3,123.7L234.3,123.7z"/>
<path class="st4" d="M239.6,107.1c0,2.2-1.5,3.6-3.8,3.6h-2.5v-7.2h2.5C238.1,103.4,239.6,104.9,239.6,107.1L239.6,107.1z
	 M235.8,109.4c1.5,0,2.4-0.9,2.4-2.4s-0.9-2.4-2.4-2.4h-1v4.8C234.8,109.4,235.8,109.4,235.8,109.4z"/>
<path class="st4" d="M243.3,110.8c-1.6,0-2.9-1.2-2.9-3s1.3-3,2.9-3s2.9,1.2,2.9,3S244.9,110.8,243.3,110.8L243.3,110.8z
	 M243.3,109.5c0.8,0,1.5-0.6,1.5-1.7s-0.7-1.7-1.5-1.7s-1.5,0.6-1.5,1.7S242.5,109.5,243.3,109.5z"/>
<path class="st4" d="M249.8,104.8c1.4,0,2.4,0.7,2.7,2h-1.6c-0.2-0.5-0.6-0.8-1.1-0.8c-0.8,0-1.3,0.6-1.3,1.7s0.5,1.7,1.3,1.7
	c0.6,0,1-0.3,1.1-0.8h1.6c-0.3,1.2-1.3,2-2.7,2c-1.6,0-2.8-1.2-2.8-3S248.1,104.8,249.8,104.8L249.8,104.8z"/>
<path class="st4" d="M259,110.7h-1.5v-0.7c-0.4,0.5-1,0.8-1.7,0.8c-1.3,0-2.3-0.9-2.3-2.4v-3.4h1.4v3.2c0,0.9,0.5,1.4,1.3,1.4
	s1.3-0.5,1.3-1.4v-3.2h1.5V110.7L259,110.7z"/>
<path class="st4" d="M268.4,107.5c0-0.9-0.5-1.4-1.3-1.4s-1.3,0.5-1.3,1.4v3.2h-1.5v-3.2c0-0.9-0.5-1.4-1.3-1.4s-1.3,0.5-1.3,1.4
	v3.2h-1.5v-5.7h1.5v0.7c0.4-0.5,1-0.8,1.7-0.8c0.9,0,1.6,0.4,2,1.1c0.4-0.7,1.1-1.1,2-1.1c1.4,0,2.4,0.9,2.4,2.4v3.4h-1.5
	L268.4,107.5L268.4,107.5z"/>
<path class="st4" d="M273.8,110.8c-1.7,0-2.9-1.2-2.9-3s1.2-3,2.9-3s2.8,1.1,2.8,2.8c0,0.2,0,0.4,0,0.6h-4.2
	c0.1,0.8,0.6,1.3,1.4,1.3c0.6,0,1-0.3,1.1-0.7h1.6C276.1,109.9,275.2,110.7,273.8,110.8L273.8,110.8z M272.4,107.3h2.7
	c0-0.8-0.6-1.2-1.4-1.2C273,106,272.5,106.5,272.4,107.3L272.4,107.3z"/>
<path class="st4" d="M281.6,107.5c0-0.9-0.5-1.4-1.3-1.4s-1.3,0.5-1.3,1.4v3.2h-1.5v-5.7h1.5v0.7c0.4-0.5,1-0.8,1.7-0.8
	c1.3,0,2.3,0.9,2.3,2.4v3.4h-1.5V107.5L281.6,107.5z"/>
<path class="st4" d="M284.7,106.1H284v-1.2h0.7v-1.4h1.5v1.4h1.3v1.2h-1.3v2.8c0,0.4,0.1,0.6,0.6,0.6h0.7v1.2h-0.9
	c-1.1,0-1.8-0.5-1.8-1.8V106.1z"/>
<path class="st4" d="M291,103.4h4.5v1.2h-3v1.8h2.3v1.2h-2.3v3.1h-1.5L291,103.4L291,103.4z"/>
<path class="st4" d="M301.8,110.7h-1.5v-0.7c-0.4,0.5-1,0.8-1.7,0.8c-1.3,0-2.3-0.9-2.3-2.4v-3.4h1.5v3.2c0,0.9,0.5,1.4,1.3,1.4
	s1.3-0.5,1.3-1.4v-3.2h1.5V110.7L301.8,110.7z"/>
<path class="st4" d="M307.3,107.5c0-0.9-0.5-1.4-1.3-1.4s-1.3,0.5-1.3,1.4v3.2h-1.5v-5.7h1.5v0.7c0.4-0.5,1-0.8,1.7-0.8
	c1.3,0,2.3,0.9,2.3,2.4v3.4h-1.5V107.5L307.3,107.5z"/>
<path class="st4" d="M312.6,104.8c1.4,0,2.4,0.7,2.7,2h-1.6c-0.2-0.5-0.5-0.8-1.1-0.8c-0.8,0-1.3,0.6-1.3,1.7s0.5,1.7,1.3,1.7
	c0.6,0,1-0.3,1.1-0.8h1.6c-0.3,1.2-1.3,2-2.7,2c-1.6,0-2.8-1.2-2.8-3S310.9,104.8,312.6,104.8L312.6,104.8z"/>
<path class="st4" d="M316.6,106.1h-0.7v-1.2h0.7v-1.4h1.5v1.4h1.3v1.2H318v2.8c0,0.4,0.1,0.6,0.6,0.6h0.7v1.2h-0.9
	c-1.1,0-1.8-0.5-1.8-1.8V106.1z"/>
<path class="st4" d="M320.2,103.4c0-0.5,0.4-0.8,0.9-0.8s0.9,0.4,0.9,0.8s-0.4,0.8-0.9,0.8S320.2,103.9,320.2,103.4z M320.4,104.9
	h1.5v5.7h-1.5V104.9z"/>
<path class="st4" d="M325.8,110.8c-1.6,0-2.9-1.2-2.9-3s1.3-3,3-3s3,1.2,3,3S327.5,110.8,325.8,110.8L325.8,110.8z M325.8,109.5
	c0.8,0,1.5-0.6,1.5-1.7s-0.7-1.7-1.5-1.7s-1.5,0.6-1.5,1.7S325,109.5,325.8,109.5z"/>
<path class="st4" d="M333.8,107.5c0-0.9-0.5-1.4-1.3-1.4s-1.3,0.5-1.3,1.4v3.2h-1.5v-5.7h1.5v0.7c0.4-0.5,1-0.8,1.7-0.8
	c1.3,0,2.3,0.9,2.3,2.4v3.4h-1.5V107.5L333.8,107.5z"/>
<path class="st4" d="M338.9,110.8c-1.4,0-2.4-0.8-2.5-1.9h1.5c0,0.4,0.5,0.8,1,0.8s0.9-0.3,0.9-0.6c0-1-3.2-0.4-3.2-2.5
	c0-0.9,0.9-1.7,2.3-1.7s2.2,0.8,2.3,1.9h-1.4c0-0.4-0.4-0.7-1-0.7c-0.5,0-0.8,0.2-0.8,0.6c0,1,3.2,0.4,3.2,2.5
	C341.1,110,340.2,110.8,338.9,110.8L338.9,110.8z"/>
<path class="st1" d="M270.8,133.3h1v4.1c0,1,0.6,1.5,1.5,1.5s1.5-0.5,1.5-1.5v-4.1h1v4.1c0,1.6-1.2,2.4-2.5,2.4s-2.5-0.8-2.5-2.4
	V133.3z"/>
<path class="st1" d="M280,134.5c1.3,0,2.4,1,2.4,2.6s-1,2.6-2.4,2.6c-0.8,0-1.4-0.4-1.8-0.8v3.2h-1v-7.5h1v0.8
	C278.6,135,279.2,134.5,280,134.5L280,134.5z M279.8,135.4c-0.8,0-1.5,0.6-1.5,1.7s0.8,1.7,1.5,1.7s1.5-0.6,1.5-1.7
	S280.6,135.5,279.8,135.4L279.8,135.4z"/>
<path class="st1" d="M283.5,132.9h1v6.8h-1V132.9z"/>
<path class="st1" d="M288.1,139.8c-1.5,0-2.5-1-2.5-2.6s1.1-2.6,2.6-2.6s2.6,1,2.6,2.6S289.6,139.8,288.1,139.8L288.1,139.8z
	 M288.1,138.9c0.8,0,1.6-0.6,1.6-1.7s-0.8-1.7-1.5-1.7s-1.5,0.6-1.5,1.7S287.3,138.9,288.1,138.9L288.1,138.9z"/>
<path class="st1" d="M293.9,134.5c0.9,0,1.5,0.4,1.8,0.8v-0.7h1.1v5.1h-1.1v-0.8c-0.3,0.4-0.9,0.8-1.8,0.8c-1.3,0-2.4-1.1-2.4-2.6
	S292.5,134.5,293.9,134.5z M294.1,135.4c-0.8,0-1.5,0.6-1.5,1.7s0.8,1.7,1.5,1.7s1.5-0.6,1.5-1.7S294.9,135.4,294.1,135.4
	L294.1,135.4z"/>
<path class="st1" d="M300.1,134.5c0.7,0,1.4,0.3,1.8,0.8v-2.5h1.1v6.8h-1.1v-0.8c-0.3,0.5-0.9,0.9-1.8,0.9c-1.3,0-2.4-1.1-2.4-2.6
	S298.8,134.5,300.1,134.5L300.1,134.5z M300.3,135.4c-0.8,0-1.5,0.6-1.5,1.7s0.8,1.7,1.5,1.7s1.5-0.6,1.5-1.7
	S301.1,135.4,300.3,135.4L300.3,135.4z"/>
<path class="st1" d="M306.9,135.5h-0.6v-0.9h0.6v-0.4c0-1.2,0.6-1.7,1.9-1.7v0.9c-0.6,0-0.9,0.2-0.9,0.8v0.4h0.9v0.9h-0.9v4.2h-1.1
	V135.5L306.9,135.5z"/>
<path class="st1" d="M310.9,139.7h-1v-5.1h1v0.7c0.3-0.5,0.8-0.8,1.5-0.8v1.1h-0.3c-0.8,0-1.2,0.3-1.2,1.4V139.7L310.9,139.7z"/>
<path class="st1" d="M315.5,139.8c-1.5,0-2.5-1-2.5-2.6s1.1-2.6,2.6-2.6s2.6,1,2.6,2.6S317,139.8,315.5,139.8L315.5,139.8z
	 M315.5,138.9c0.8,0,1.6-0.6,1.6-1.7s-0.8-1.7-1.5-1.7s-1.5,0.6-1.5,1.7S314.8,138.9,315.5,138.9L315.5,138.9z"/>
<path class="st1" d="M326.5,136.9c0-0.9-0.5-1.4-1.3-1.4s-1.3,0.5-1.3,1.4v2.8h-1v-2.8c0-0.9-0.5-1.4-1.3-1.4s-1.3,0.5-1.3,1.4v2.8
	h-1v-5.1h1v0.6c0.3-0.4,0.9-0.7,1.5-0.7c0.8,0,1.5,0.3,1.8,1c0.3-0.6,1-1,1.8-1c1.2,0,2.1,0.8,2.1,2.2v3h-1L326.5,136.9L326.5,136.9
	z"/>
<path class="st1" d="M338.5,136.9c0-0.9-0.5-1.4-1.3-1.4s-1.3,0.5-1.3,1.4v2.8h-1v-2.8c0-0.9-0.5-1.4-1.3-1.4s-1.3,0.5-1.3,1.4v2.8
	h-1v-5.1h1v0.6c0.3-0.4,0.9-0.7,1.5-0.7c0.8,0,1.5,0.3,1.8,1c0.3-0.6,1-1,1.8-1c1.2,0,2.1,0.8,2.1,2.2v3h-1L338.5,136.9L338.5,136.9
	z"/>
<path class="st1" d="M344.3,134.6h1.1l-3.1,7.5h-1.1l1-2.5l-2-5h1.2l1.4,3.9L344.3,134.6L344.3,134.6z"/>
<path class="st1" d="M350.8,134.5c1.2,0,2.1,0.6,2.3,1.7H352c-0.2-0.5-0.6-0.8-1.2-0.8c-0.9,0-1.4,0.6-1.4,1.7s0.6,1.7,1.4,1.7
	c0.6,0,1-0.3,1.2-0.8h1.1c-0.3,1-1.1,1.7-2.3,1.7c-1.5,0-2.5-1-2.5-2.6S349.3,134.5,350.8,134.5z"/>
<path class="st1" d="M356.4,139.8c-1.5,0-2.5-1-2.5-2.6s1.1-2.6,2.6-2.6s2.6,1,2.6,2.6S357.8,139.8,356.4,139.8L356.4,139.8z
	 M356.4,138.9c0.8,0,1.6-0.6,1.6-1.7s-0.8-1.7-1.5-1.7s-1.5,0.6-1.5,1.7S355.6,138.9,356.4,138.9L356.4,138.9z"/>
<path class="st1" d="M367.3,136.9c0-0.9-0.5-1.4-1.3-1.4s-1.3,0.5-1.3,1.4v2.8h-1v-2.8c0-0.9-0.5-1.4-1.3-1.4s-1.3,0.5-1.3,1.4v2.8
	h-1v-5.1h1v0.6c0.3-0.4,0.9-0.7,1.5-0.7c0.8,0,1.5,0.3,1.8,1c0.3-0.6,1-1,1.8-1c1.2,0,2.1,0.8,2.1,2.2v3h-1L367.3,136.9L367.3,136.9
	z"/>
<path class="st1" d="M372.5,134.5c1.3,0,2.4,1,2.4,2.6s-1,2.6-2.4,2.6c-0.8,0-1.4-0.4-1.8-0.8v3.2h-1v-7.5h1v0.8
	C371,135,371.7,134.5,372.5,134.5L372.5,134.5z M372.2,135.4c-0.8,0-1.5,0.6-1.5,1.7s0.8,1.7,1.5,1.7s1.5-0.6,1.5-1.7
	S373,135.5,372.2,135.4L372.2,135.4z"/>
<path class="st1" d="M380.5,139.7h-1v-0.6c-0.3,0.4-0.9,0.7-1.5,0.7c-1.2,0-2.1-0.8-2.1-2.2v-3h1v2.8c0,0.9,0.5,1.4,1.3,1.4
	s1.3-0.5,1.3-1.4v-2.8h1V139.7L380.5,139.7z"/>
<path class="st1" d="M382.1,135.5h-0.6v-0.9h0.6v-1.3h1.1v1.3h1.2v0.9h-1.2v2.8c0,0.4,0.1,0.5,0.6,0.5h0.6v0.9h-0.8
	c-0.9,0-1.5-0.4-1.5-1.4V135.5L382.1,135.5z"/>
<path class="st1" d="M387.5,139.8c-1.5,0-2.5-1-2.5-2.6s1-2.6,2.5-2.6s2.5,1,2.5,2.5c0,0.2,0,0.3,0,0.5h-3.9
	c0.1,0.8,0.7,1.4,1.5,1.4c0.6,0,1-0.3,1.2-0.7h1.1C389.6,139.1,388.8,139.8,387.5,139.8L387.5,139.8z M386.1,136.7h2.8
	c0-0.8-0.6-1.3-1.4-1.3C386.8,135.4,386.2,135.9,386.1,136.7L386.1,136.7z"/>
<path class="st1" d="M392.1,139.7h-1v-5.1h1v0.7c0.3-0.5,0.8-0.8,1.5-0.8v1.1h-0.3c-0.8,0-1.3,0.3-1.3,1.4L392.1,139.7L392.1,139.7z
	"/>
<path class="st14" d="M257.8,138.8h3.4c0.6,0,1.1-0.2,1.5-0.6s0.6-0.9,0.6-1.5s-0.2-1.1-0.6-1.5c-0.4-0.4-0.9-0.6-1.5-0.6h-0.5v-0.6
	c0-0.9-0.4-1.7-0.9-2.3c-0.6-0.6-1.4-0.9-2.3-0.9c-0.7,0-1.3,0.2-1.8,0.6c-0.5,0.4-0.9,0.9-1.2,1.5l-0.1,0.2H254l-0.1-0.1
	c-0.1-0.1-0.2-0.2-0.4-0.2c-0.1-0.1-0.3-0.1-0.4-0.1c-0.3,0-0.6,0.1-0.8,0.3c-0.2,0.2-0.3,0.5-0.3,0.8v0.4l-0.2,0
	c-0.5,0.1-1,0.4-1.4,0.8c-0.3,0.4-0.5,0.9-0.5,1.5c0,0.6,0.3,1.2,0.7,1.6c0.4,0.4,1,0.7,1.6,0.7h3.2v0.5h-3.2c-0.8,0-1.5-0.3-2-0.8
	s-0.8-1.2-0.8-2c0-0.7,0.2-1.3,0.6-1.8c0.4-0.4,0.9-0.8,1.4-0.9c0-0.4,0.2-0.9,0.5-1.2s0.7-0.5,1.2-0.5c0.2,0,0.4,0,0.6,0.1
	c0.1,0.1,0.3,0.1,0.4,0.2c0.3-0.6,0.7-1.2,1.3-1.6c0.6-0.4,1.3-0.7,2.1-0.7c1,0,1.9,0.4,2.6,1.1c0.7,0.7,1.1,1.6,1.1,2.6v0.1
	c0.7,0,1.4,0.3,1.9,0.8c0.5,0.5,0.8,1.1,0.8,1.9s-0.3,1.4-0.8,1.9c-0.5,0.5-1.1,0.8-1.9,0.8h-3.4L257.8,138.8L257.8,138.8z"/>
<rect x="256.4" y="134" class="st1" width="0.5" height="8.4"/>
<polygon class="st14" points="254,136.3 256.6,133.7 259.3,136.3 258.6,136.3 256.6,134.4 254.7,136.3 "/>
</svg>
