<?xml version="1.0" encoding="utf-8"?>
<!-- Generator: Adobe Illustrator 28.0.0, SVG Export Plug-In . SVG Version: 6.00 Build 0)  -->
<svg version="1.1" id="Layer_1" xmlns="http://www.w3.org/2000/svg" xmlns:xlink="http://www.w3.org/1999/xlink" x="0px" y="0px"
	 viewBox="0 0 400 120" style="enable-background:new 0 0 400 120;" xml:space="preserve">
<style type="text/css">
	.st0{fill:#028844;}
	.st1{fill:#E22922;}
	.st2{fill:#0076D6;}
	.st3{fill:#FFD500;}
</style>
<g>
	<g id="svg_1">
		<g id="svg_2">
			<path id="svg_3" class="st0" d="M259.1,25.9c-8.5-10.2-21.3-16-35-15.7h-0.6l0.6-0.3c15.1-7.4,33-6.1,46.7,3.4l0.1,0.1h-0.1
				c-0.6,0.3-1,0.4-1.4,0.7c-1.4,0.7-2.8,1.7-4,2.8c-2.8,2.3-4.8,5.5-5.9,8.9l-0.1,0.3L259.1,25.9z"/>
			<path id="svg_4" class="st1" d="M214.9,49.6c-3.4-1-7.2-1-10.7,0c-1.5,0.4-3,1-4.5,1.8c-0.4,0.3-1,0.6-1.4,0.8l-0.1,0.1V52
				c-0.3-16.7,8.5-32.2,23.3-40.6l0.6-0.3l-0.3,0.4c-7.8,11.1-10.2,24.9-6.6,37.8v0.3L214.9,49.6z"/>
			<path id="svg_5" class="st2" d="M237.5,41.3c-4-0.4-8,0.3-11.7,1.9c-0.6,0.3-1.1,0.6-1.7,0.8c-2.5,1.2-4.5,3-6.5,5l-0.1,0.1v-0.3
				c-4-12.7-2.2-26.3,5.1-37.7l0.1-0.1l15.1,30.3H237.5z"/>
			<path id="svg_6" class="st3" d="M223.2,10.9h0.3c13.5,0.4,25.9,6.5,34.1,16.9l0.1,0.1h-0.3c-2.8,0.4-5.2,1.2-7.7,2.5
				c-0.6,0.3-1.1,0.6-1.7,1c-3.4,2.2-6.2,5.2-8.1,8.7l-0.1,0.1C239.8,40.2,223.2,10.9,223.2,10.9z"/>
			<path id="svg_7" d="M273.5,12.4c-13.8-9.9-33.3-11.6-50.4-2.9l0,0L220,4.7c-0.1-0.1-0.3-0.3-0.6-0.1c-0.3,0.1-0.3,0.3-0.1,0.6
				l2.2,5.2c-16.8,9.4-26.3,26.6-25.7,43.5c0,1,0.1,1.8,0.1,2.8c0.7-0.8,1.5-1.5,2.5-2.1c0.7-0.6,1.5-1,2.2-1.4
				c1.2-0.7,2.6-1.2,4.1-1.7c3.6-1,7.3-0.8,10.7,0.3c0.1,0,0.1,0,0.3,0.1c0.6,0.3,1.2,0.4,1.8,0.7c0.3-0.4,0.7-0.8,1-1.2
				c0.1-0.1,0.3-0.3,0.4-0.4c1.8-2.1,3.9-3.7,6.3-5.1c0.6-0.3,1.1-0.6,1.5-0.8c3.9-1.7,8.1-2.2,12.1-1.5l17.6,33
				c0.7,1.2,1.7,2.1,2.9,2.6c0.7,0.3,1.4,0.4,2.2,0.6c0.3,0,0.6,0,0.7,0c0.7-0.1,1.5-0.3,2.2-0.7c2.9-1.5,4-5.1,2.5-8l-1-1.9
				c-0.3-0.7-1.1-0.8-1.8-0.6c-0.7,0.3-0.8,1.1-0.6,1.8l1,1.9c0.8,1.7,0.3,3.6-1.4,4.5c-1.1,0.6-2.3,0.6-3.4-0.1l0,0l-0.1-0.1
				c-0.6-0.6-1.1-1.4-1.1-1.4l-17.5-32.9c1.7-3.7,4.4-6.9,8-9.2c0.6-0.3,1-0.6,1.5-0.8c2.5-1.2,5.1-2.1,7.7-2.3c0.1,0,0.4,0,0.6,0
				c0.6,0,1.1-0.1,1.7-0.1c0.1-0.7,0.3-1.2,0.4-1.9c0-0.1,0-0.1,0.1-0.3c1-3.6,2.9-6.6,5.8-9.1c1.1-1,2.3-1.8,3.6-2.5
				c0.8-0.4,1.7-0.8,2.5-1.1c1-0.4,2.1-0.7,3-0.8C275.1,13.5,274.4,13,273.5,12.4z M214.9,49.4c-3.4-1-7.2-1-10.7,0
				c-2.1,0.6-4.1,1.4-5.9,2.6c-0.3-16,8.3-31.8,23.3-40.5C213.8,22.5,211.2,36.3,214.9,49.4z M237.5,41.2L237.5,41.2L237.5,41.2
				L237.5,41.2L237.5,41.2z M237.2,40.5l0.4,0.7c-4-0.4-8,0.3-11.7,1.9c-3.2,1.4-5.9,3.4-8.1,5.9c-4.1-12.8-2.1-26.6,5-37.6
				L237.2,40.5z M240.4,43.9L240.4,43.9L240.4,43.9L240.4,43.9z M247.9,31.4c-3.4,2.2-6.2,5.2-8.1,8.7l-0.4-0.7l-16-28.3
				c13.1,0.3,25.6,6.3,33.9,16.8C254,28.2,250.8,29.5,247.9,31.4z M265.3,16.9c-2.8,2.5-4.8,5.5-6.1,8.9
				c-8.7-10.5-21.7-16.1-35.1-15.8c15.6-7.6,33.4-5.8,46.5,3.4C268.7,14.3,266.9,15.4,265.3,16.9z"/>
		</g>
		<path id="svg_11" d="M246.8,83.3c-2.3-0.7-5.5-2.6-8.8-5c0.7-1,1.2-2.2,1.7-3.3c1.1-2.5,1.5-3.9,3.9-4v-1.1c-1.2,0-2.6,0.1-4,0.1
			c-1.2,0-2.6,0-3.9-0.1V71c0.8,0.1,1.8,0.3,2.6,0.6c0,1-0.6,2.8-1.1,4c-0.3,0.6-0.6,1.1-0.8,1.7c-3-2.5-5.9-5.2-7.8-8
			c2.9-1.4,6.2-2.9,6.2-6.3c0-3.3-2.3-5-5.6-5c-3.6,0-6.6,2.6-6.6,6.1c0,1.7,0.6,3.4,1.4,5.2c-3.3,1.7-5.5,3.6-5.5,7.4
			c0,5.5,4.4,8.1,9.4,8.1c3.6,0,6.2-1.4,8.3-3.6c3.7,2.2,7.6,3.6,10.6,3.7L246.8,83.3L246.8,83.3z M228.7,59.7
			c1.9,0,2.6,1.5,2.6,3.3c0,2.3-1.9,3.4-3.7,4.3c-1-1.7-1.5-3.2-1.5-4.7C226.1,61.3,227.2,59.7,228.7,59.7z M233.8,80.1
			c-1.2,1-3.2,1.5-4.7,1.5c-3.3,0-6.2-2.5-6.2-6.3c0-1.9,0.8-3.2,2.1-4.3c2.2,3.3,5.5,6.3,9.2,8.7C234,79.8,233.9,80,233.8,80.1z"/>
		<path id="svg_12" d="M233.2,101.6c-0.3-1.1-0.8-2.2-2.1-2.2c-1,0-2.1,0.8-2.8,1.4v8.8c0,2.9,1.2,2.5,3.6,2.8v1.1
			c-2.1,0-4.1-0.1-6.1-0.1c-1.5,0-3,0-4.5,0.1v-1.1l2.5-0.4v-10.7c0-1.2-0.1-2.3-1.7-2.3c-0.3,0-0.6,0-1,0v-1.1
			c1.2-0.3,2.3-0.6,3.6-1c0.8-0.3,1.8-0.7,2.6-0.7c1.2,0,1.1,1.5,1.1,2.3v0.4c1.1-1.2,2.9-2.9,4.7-2.9c1.7,0,2.9,1,2.9,2.6
			C236,100.3,234.6,101.6,233.2,101.6z"/>
		<path id="svg_13" d="M199.5,113.4c-1.7,0-3.2,0-4.8,0.1v-1.1l2.3-0.4v-8.4c0-1.9,0-4.3-2.6-4.3c-1.2,0-3.2,0.7-4.3,1.2v9.6
			c0,1.8,0.7,1.9,2.3,2.2v1.1c-1.7,0-3.3-0.1-4.8-0.1c-1.5,0-3,0-4.5,0.1v-1.1l2.5-0.4v-10.5c0-1.4,0-2.5-1.7-2.5c-0.3,0-0.6,0-1,0
			V98c1.2-0.3,2.3-0.6,3.6-1c1.1-0.3,1.9-0.7,2.6-0.7c1.4,0,1.1,1.8,1.1,2.6c1.8-1.1,4.8-2.6,7-2.6c1.4,0,2.5,0.3,3.4,1.4
			c1.1,1.2,1.1,3.4,1.1,5.1v7.3c0,2.3,1.2,1.9,3,2.2v1.1C202.9,113.4,201.2,113.4,199.5,113.4z"/>
		<path id="svg_14" d="M165.2,102.5c-1.8,0-2.5,0.4-2.5,2.3c0,0,0,5.4,0,7.3c-2.6,1.1-5.8,1.9-9.6,1.9c-7.7,0-12.8-5.4-12.8-12.9
			c0-7.4,5.9-13.3,13.5-13.3c3.7,0,6.7,1,8.8,1.7v6.5h-1.1c-0.4-1.9-1.1-3.6-2.3-4.8c-1.2-1.1-2.8-1.7-4.8-1.7
			c-6.6,0-8.1,7.6-8.1,12c0,4.5,1.7,11,7.4,11c3.2,0,4-1,4-4.3V103l-3.2-0.4v-1.2h11.1v1.2C165.7,102.5,165.2,102.5,165.2,102.5z"/>
		<path id="svg_15" d="M248.6,113.7c-1.8,0-3-0.3-3.6-2.2c-1.2,1.8-3.6,2.3-5.2,2.3c-3.2,0-6.1-1.4-6.1-4.8c0-5.5,7.2-5.6,11.1-5.6
			v-2.2c0-2.1-1-2.9-3.2-2.9c-1.4,0-3,0.4-4.3,1v-2.1c1.8-0.6,3.7-1,5.9-1c1.7,0,3.9,0.3,5.1,1.5c1.2,1.2,1.2,2.8,1.2,4.4v7.7
			c0,1.4,0.4,2.5,1.8,2.5c1.2,0,2.5-0.1,3.6-0.3V92.8c0-1.4,0-2.5-1.7-2.5c-0.3,0-0.6,0-1,0v-1.1c1.2-0.3,2.3-0.6,3.6-0.8
			c1.1-0.3,1.9-0.7,2.6-0.7c1.4,0,1.1,1.7,1.1,2.6v19.8c0,1.8,1.1,1.9,3.9,2.2v1.1C258.4,113.4,253.6,113.7,248.6,113.7z M244.8,105
			c-2.5,0-6.1,0.4-6.1,3.9c0,1.8,0.8,2.9,2.6,2.9c1.5,0,2.6-1.1,3.2-2.2c0.3-1,0.4-1.7,0.4-2.6L244.8,105L244.8,105z"/>
		<path id="svg_16" d="M199.6,84c-1.8,0-3-0.3-3.6-2.2c-1.2,1.8-3.6,2.3-5.4,2.3c-3.2,0-6.1-1.4-6.1-4.8c0-5.5,7.3-5.6,11.3-5.6
			v-2.2c0-2.1-1-2.9-3.2-2.9c-1.4,0-3,0.4-4.3,1v-2.1c1.9-0.6,3.7-0.8,5.9-0.8c1.5,0,3.9,0.3,5.1,1.5c1.2,1.2,1.2,2.8,1.2,4.5v7.6
			c0,1.4,0.4,2.5,1.8,2.5c1.1,0,2.3-0.1,3.6-0.3V63.2c0-1.4,0-2.5-1.7-2.5c-0.3,0-0.6,0-1,0.1v-1.1c1.2-0.3,2.3-0.6,3.6-1
			c1.1-0.3,1.9-0.7,2.6-0.7c1.4,0,1.1,1.8,1.1,2.6v19.8c0,1.8,1.1,1.9,3.9,2.2v1.1C209.4,83.8,204.6,84,199.6,84z M195.8,75.4
			c-2.5,0-6.2,0.4-6.2,3.9c0,1.8,0.8,2.9,2.6,2.9c1.5,0,2.6-1.1,3.2-2.3c0.3-0.8,0.4-1.7,0.4-2.6V75.4L195.8,75.4z"/>
		<path id="svg_17" d="M220.4,104.6l-11.3,0.1c0.1,4.1,1.8,6.9,6.3,6.9c1.2,0,2.6-0.3,3.7-0.6v1.5c-1.9,0.8-3.6,1.2-5.8,1.2
			c-5.2,0-9.4-3.4-9.4-8.8c0-5.4,4-8.7,9.2-8.7c4.1,0,7.4,2.9,7.4,7C220.6,103.8,220.4,104.2,220.4,104.6z M213,98
			c-2.6,0-3.7,3-3.9,5.4l4.5-0.4c1.2-0.1,1.9-0.3,1.9-1.7C215.6,99.7,214.6,98,213,98z"/>
		<path id="svg_18" d="M186.2,68.3c-0.8-0.6-1.7-1.1-2.6-1.1c-0.8,0-1.1,0.8-1.4,1.4c1.1,1,1.8,2.5,1.8,3.9c0,4.1-3.3,6.5-7.2,6.5
			c-0.8,0-1.7,0-2.3-0.3c-0.4,0.6-1.1,1.1-1.7,1.2c0,0.8,1,0.8,1.7,0.8c1.4,0,2.6-0.1,4-0.1c2.9,0,6.3,1,6.3,4.4c0,5-5.1,7-9.4,7
			c-3,0-7.7-1.4-7.7-5.1c0-1.7,1.4-2.8,2.8-3.4c-1.1-0.7-1.5-2.1-1.5-3.3c0-0.3,0-0.4,0-0.7c1.1-0.1,3.3-0.7,4-1.7
			c-2.3-1-3.6-2.8-3.6-5.2c0-4.3,3.7-6.3,7.6-6.3c1.4,0,3.2,0.4,4.4,1.1c0.4-1.8,1.8-3,3.7-3c0.7,0,2.3,0.3,2.3,1.2
			C187.1,66.9,186.7,67.7,186.2,68.3z M176.4,68.4c-2.1,0-2.9,1.7-2.9,3.9c0,2.5,0.7,5,3.2,5c2.1,0,2.9-1.5,2.9-3.7
			C179.6,71.2,178.9,68.4,176.4,68.4z M177.8,84.5c-1.5,0-2.2,0.1-3.6,0.1c-1,0-1.8-0.1-2.6-0.3c-0.4,0.4-1,1.2-1,1.8
			c0,2.3,2.2,3.2,5.5,3.2c3.7,0,5.9-1.2,5.9-2.9C181.9,84.5,179.3,84.5,177.8,84.5z"/>
		<path id="svg_19" d="M167.6,75.2l-11.4,0.1c0.1,4.1,1.8,6.9,6.3,6.9c1.2,0,2.6-0.3,3.7-0.6V83c-1.9,1-3.6,1.2-5.8,1.2
			c-5.2,0-9.4-3.4-9.4-8.8c0-5.4,4-8.7,9.1-8.7c4.1,0,7.4,2.9,7.4,7C167.7,74.3,167.7,74.7,167.6,75.2z M160.2,68.4
			c-2.6,0-3.7,3.2-3.9,5.4l4.5-0.4c1.2-0.1,1.9-0.3,1.9-1.7C162.8,70.1,161.8,68.4,160.2,68.4z"/>
		<path id="svg_20" d="M182.7,104.6l-11.3,0.1c0.1,4.1,1.9,6.9,6.3,6.9c1.2,0,2.6-0.3,3.6-0.6v1.5c-1.9,0.8-3.6,1.2-5.8,1.2
			c-5.2,0-9.4-3.4-9.4-8.8c0-5.4,4-8.7,9.1-8.7c4.1,0,7.4,2.9,7.4,7C182.7,103.8,182.7,104.2,182.7,104.6z M175.2,98
			c-2.6,0-3.7,3-3.7,5.4l4.5-0.4c1.2-0.1,1.9-0.3,1.9-1.7C177.8,99.7,176.9,98,175.2,98z"/>
		<path id="svg_21" d="M150.2,76.5H149c-1.2,5-2.9,5.5-7.8,5.5c-3.2,0-3.7-0.3-3.7-2.5V60l3.7-0.6v-1.1h-12.7v1.1c3,0,3.7,0.7,3.7,3
			V82l-3.7,0.7v1.1h21.2L150.2,76.5z"/>
	</g>
</g>
</svg>
