<?xml version="1.0" encoding="utf-8"?>
<!-- Generator: Adobe Illustrator 28.0.0, SVG Export Plug-In . SVG Version: 6.00 Build 0)  -->
<svg version="1.1" id="Layer_1" xmlns="http://www.w3.org/2000/svg" xmlns:xlink="http://www.w3.org/1999/xlink" x="0px" y="0px"
	 viewBox="0 0 400 120" style="enable-background:new 0 0 400 120;" xml:space="preserve">
<style type="text/css">
	.st0{fill:#4A2E16;}
</style>
<g>
	<path class="st0" d="M44.2,32.3h0.2v11.4c0,0,0,0,0,0h10.2c0,0,0,0,0,0l0,0v7.6c0,0,0,0.1-0.1,0.1H44.4c0,0,0,0,0,0
		c0,5.5,0,11,0,16.6c0,0.5,0.1,1,0.1,1.6c0,0.2,0.1,0.6,0.2,1.3c0.5,2.2,2,3.4,4.2,3.7c1.9,0.3,4,0,5.6-1.1c0,0,0.1,0,0.1,0
		c0,0,0,0,0,0v7.9c0,0,0,0.1,0,0.1c-0.1,0.1-0.3,0.2-0.4,0.3c-1.5,0.7-3.1,1-4.8,1.1c-0.1,0-0.4,0-0.7,0.1c-0.6,0.1-1.5,0-2.6-0.1
		c-3.7-0.3-6.8-1.9-8.8-5c-1.1-1.8-1.7-4-1.9-6.1c0-0.3-0.1-0.7-0.1-1c0-6.5,0-13,0-19.5c0,0,0,0,0,0h-5.6v-7.7h5.6
		c0,0,0.1,0,0.1-0.1l0,0v-8.5c0,0,0-0.1,0.1-0.1L44.2,32.3z"/>
	<path class="st0" d="M186.4,32.3h0.2l8.9,2.8c0,0,0,0,0,0.1v8.6c0,0,0,0,0,0h10.1c0,0,0,0,0,0v7.7c0,0,0,0,0,0h-10.1c0,0,0,0,0,0
		c0,5.9,0,11.8,0,17.8c0,0.7,0.1,1.4,0.3,2.1c0.2,0.7,0.5,1.2,0.8,1.6c0.8,1,2,1.5,3.3,1.7c1.8,0.3,4,0,5.6-1.1c0,0,0.1,0,0.1,0
		c0,0,0,0,0,0v8c0,0,0,0,0,0.1c-2.3,1.2-5.1,1.5-7.7,1.4c-0.1,0-0.3,0-0.4,0c-5.6-0.2-9.8-3.6-10.8-9.2c-0.2-1-0.3-1.7-0.3-2.2
		c0-0.3-0.1-0.7-0.1-1c0-6.4,0-12.8,0-19.3c0,0,0-0.1-0.1-0.1h-5.6c0,0,0,0,0,0v-7.6c0,0,0,0,0,0l0,0h5.6c0,0,0.1,0,0.1-0.1
		L186.4,32.3z"/>
	<path class="st0" d="M268.4,36.6c-0.1,0-0.1,0-0.2,0c0,0-0.1,0-0.1,0.1L263,52c0,0,0,0.1-0.1,0.1h-2.4c0,0-0.1,0-0.1,0l-4.8-14.9
		c0,0,0,0-0.1,0c-0.1,0-0.2,0-0.2,0c0,0,0,0,0,0.1c-0.2,3.7-0.4,7.5-0.5,11.2c0,1.1,0,1.8,0,2.3c0,0.3,0.1,0.6,0.4,0.7
		c0.6,0.1,1.1,0.2,1.7,0.3c0,0,0,0,0,0l0.1,1.1c0,0,0,0,0,0h-6.2c0,0,0,0,0,0l0.1-1c0,0,0-0.1,0.1-0.1c0.5-0.1,1-0.2,1.5-0.2
		c0.4-0.1,0.5-0.4,0.6-0.8c0.3-1.4,0.4-2.9,0.5-4.3c0.2-3.8,0.3-6.6,0.4-8.2c0-0.6-0.2-1.2-0.7-1.6c-0.5-0.3-1.4-0.4-1.9-0.5
		c0,0-0.1,0-0.1-0.1l-0.1-1c0,0,0,0,0,0l0,0h7.8c0,0,0,0,0.1,0c1.3,4.1,2.6,8.3,3.9,12.4c0,0.1,0.1,0.1,0.2,0.1c0,0,0.1,0,0.1-0.1
		l4-12.5c0,0,0,0,0.1,0h7.5c0,0,0.1,0,0,0.1l-0.1,1.1c0,0,0,0,0,0c-0.6,0.1-1.1,0.1-1.7,0.2c-0.5,0-0.7,0.5-0.7,1
		c0.1,3.3,0.2,6.5,0.3,9.8c0,1.2,0.1,2.4,0.3,3.5c0.1,0.4,0.2,0.9,0.6,0.9c0.5,0.1,0.9,0.1,1.4,0.2c0,0,0,0,0.1,0.1l0.1,1
		c0,0,0,0,0,0h-8.3c0,0,0,0,0,0l0.1-1c0,0,0-0.1,0.1-0.1c0.5-0.1,0.9-0.1,1.4-0.2c0.5-0.1,0.6-0.8,0.6-1.2c0.1-0.9,0.1-1.7,0.1-2.7
		C268.6,43.8,268.5,40.3,268.4,36.6C268.4,36.7,268.4,36.6,268.4,36.6z"/>
	<path class="st0" d="M228.4,35.1h2.5c0,0,0,0,0,0v47.7c0,0,0,0,0,0h-2.5c0,0,0,0,0,0L228.4,35.1C228.4,35.1,228.4,35.1,228.4,35.1z
		"/>
	<path class="st0" d="M308.4,39.8h4.6c0,0,0.1,0,0.1,0.1c0,0,0,0,0,0l-0.2,1.6c0,0,0,0-0.1,0h-4.4c0,0,0,0,0,0c0,2-0.1,4-0.1,6
		c0,1.1,0.1,2.5,1.3,2.9c1,0.4,2.4,0.1,3.4-0.4c0,0,0.1,0,0.1,0c0,0,0,0,0,0l0.1,0.7c0,0,0,0.1,0,0.1c-1.3,1.4-3.2,2.3-5.1,2
		c-2.1-0.3-3-2-3-4c0.1-2.4,0.1-4.9,0.1-7.3c0,0,0,0,0,0l-2.1-0.2c0,0-0.1,0-0.1-0.1l0-0.8c0-0.1,0-0.1,0.1-0.1l4-3.5
		c0,0,0.1,0,0.1,0l1.3,0.2c0,0,0,0,0,0L308.4,39.8C308.3,39.8,308.3,39.8,308.4,39.8L308.4,39.8z"/>
	<path class="st0" d="M282.1,53.1c-4.1-0.3-6.5-4-5.9-7.9c0.5-3.5,3.5-5.9,7-6c3.6-0.1,6.4,2.4,6.7,6
		C290.3,49.8,286.8,53.4,282.1,53.1z M281.6,41c-2.1,1.3-1.9,5.3-1.6,7.4c0.3,1.7,1.1,3.5,3.1,3.4c0.8,0,1.5-0.4,2-1.1
		c0.9-1.3,1.1-3.1,1-4.7c-0.1-1.5-0.3-3.5-1.4-4.6C283.9,40.5,282.6,40.3,281.6,41z"/>
	<path class="st0" d="M299.3,42C299.3,42,299.3,42,299.3,42L299.3,42c-1,0.6-1.8,1.5-2.5,2.5c0,0.1,0,0.1,0,0.2c0,2.1,0,4.1,0,6.2
		c0,0.4,0.3,0.4,0.6,0.5c0.5,0.1,0.9,0.1,1.4,0.1c0,0,0.1,0,0.1,0.1l0.1,1c0,0,0,0,0,0l0,0h-7.2c0,0,0,0,0,0l0.1-1c0,0,0,0,0,0
		c0.3,0,0.7-0.1,1-0.1c0.3,0,0.5-0.2,0.6-0.5c0-2.4,0-4.8,0-7.2c0-0.6-0.1-1-0.2-1.3c-0.2-0.6-1.1-0.7-1.6-0.9c0,0,0,0,0,0l0-0.8
		c0,0,0,0,0-0.1l5-1.4c0,0,0.1,0,0.1,0v0v3.5c0,0,0,0.1,0.1,0.1c0,0,0,0,0.1,0c0.9-1.5,2.3-4.1,4.5-3.5c0.7,0.2,1.1,0.6,1.3,1.3
		C303.3,43,300.6,44.1,299.3,42z"/>
	<path class="st0" d="M324.9,41.8C324.9,41.9,324.9,41.9,324.9,41.8L324.9,41.8c0.4,0.7,0.5,1.3,0.5,2c-0.1,3.9-3.9,5.3-7.2,4.6
		c0,0-0.1,0-0.1,0c-0.4,0.2-0.8,0.7-0.8,1.1c0.1,1.1,1.2,1.3,2.1,1.3c0.9,0,1.8-0.1,2.7-0.1c1,0,1.9,0.1,2.8,0.5
		c2.2,1.2,2.6,4,1.2,6c-1.7,2.4-4.9,3-7.6,2.9c-1.9-0.1-4.7-0.8-4.8-3.2c-0.1-1.8,1.2-2.8,2.7-3.3c0.1,0,0.1-0.1,0.1-0.1
		c0,0,0-0.1-0.1-0.1c-1.1-0.3-2.1-1.5-1.9-2.7c0.2-1.2,1.3-2.2,2.4-2.5c0.2-0.1,0.3-0.2,0-0.3c-1.7-0.8-2.6-2.4-2.5-4.3
		c0.2-2.6,2.1-4.2,4.5-4.5c1.6-0.2,3.1,0,4.6,0.7c0,0,0.1,0,0.1,0h4.1c0,0,0,0,0,0l0,0l-0.1,2.1c0,0,0,0.1-0.1,0.1
		C326.8,42.1,325.9,42,324.9,41.8C325,41.8,324.9,41.8,324.9,41.8z M322,42.6c-0.2-1.3-1.1-2.6-2.7-2.1c-0.7,0.2-1.2,0.8-1.4,1.5
		c-0.4,1.4-0.4,3.5,0.5,4.8c0.4,0.6,1,0.8,1.7,0.8C322.4,47.3,322.3,44.2,322,42.6z M318.2,58.4c1.3,0.5,2.6,0.6,3.9,0.2
		c1.3-0.4,2.3-1.4,2.1-2.9c-0.2-1.6-1.6-1.9-2.9-1.9c-1.2,0-2.3,0-3.5,0c-0.2,0-0.3,0.1-0.5,0.2C315.9,55.5,316.4,57.6,318.2,58.4z"
		/>
	<path class="st0" d="M336,44.7c0.1-0.8,0-1.6-0.3-2.3c-0.7-1.6-2.6-1.7-4-1.2c-0.2,0.1-0.3,0.1-0.5,0.2c0,0-0.1,0.1,0,0.1
		c0,0,0,0,0,0c0.6,0.7,1,1.5,0.4,2.3c-0.4,0.6-1.1,0.8-1.8,0.7c-0.9-0.2-1.5-0.8-1.3-1.7c0.2-0.9,1.2-1.7,1.9-2.2
		c1-0.6,2.1-1,3.3-1.2c1-0.2,1.9-0.1,2.9,0.1c2.3,0.6,2.8,2.7,2.8,4.8c-0.1,1.7-0.1,3.4-0.2,5.2c0,0.5,0,0.8,0.1,1
		c0.3,0.8,1.4,0.2,1.9-0.2c0.1-0.1,0.1-0.1,0.2,0l0.3,0.5c0.1,0.1,0.1,0.2,0,0.3c-0.8,1-2,2.1-3.3,2.1c-1.5,0-2.1-1-2.3-2.3
		c0,0,0-0.1-0.1-0.1c0,0,0,0-0.1,0c-0.8,1-1.8,2-3.2,2.3c-1.8,0.3-3.6-0.7-4-2.6c-0.5-2.5,1.7-3.8,3.7-4.6
		C333.5,45.4,334.7,45,336,44.7C336,44.7,336,44.7,336,44.7z M335.9,45.7c-1.4,0.4-4.1,1.2-4.1,3c0,1,0.4,1.6,1.4,1.9
		c1,0.3,1.9-0.3,2.6-1c0,0,0.1-0.1,0.1-0.1L335.9,45.7C336,45.8,336,45.7,335.9,45.7L335.9,45.7z"/>
	<path class="st0" d="M344.7,53.6C344.7,53.6,344.7,53.6,344.7,53.6c-1.3-0.5-2.2-1.5-2-2.8c0.2-1.1,1.3-2.2,2.4-2.5
		c0.1,0,0.1-0.1,0.1-0.2c0,0,0-0.1-0.1-0.1c-1.7-0.8-2.5-2.1-2.5-3.8c0-2.6,1.8-4.5,4.3-4.9c1.7-0.3,3.3,0,4.8,0.7c0,0,0.1,0,0.2,0
		c1.3,0,2.6,0,3.9,0c0,0,0.1,0,0.1,0.1l-0.1,2.1c0,0,0,0,0,0h0l-2.7-0.5c0,0-0.1,0-0.1,0.1c0,0,0,0,0,0c0.4,0.7,0.6,1.4,0.5,2.2
		c-0.3,3.6-3.7,4.9-6.9,4.4c-0.1,0-0.3,0-0.4,0c0,0-0.1,0-0.1,0c-0.4,0.2-0.8,0.7-0.8,1.1c0.1,1,1.1,1.2,1.9,1.2
		c1,0,1.9-0.1,2.9-0.1c0.9,0,1.8,0.1,2.6,0.5c2.7,1.3,2.8,4.7,0.9,6.7c-1.9,2-5.1,2.5-7.7,2.3c-1.3-0.1-2.8-0.6-3.6-1.6
		c-0.7-0.8-0.8-1.9-0.4-2.8c0.4-1.1,1.5-1.7,2.6-2C344.7,53.7,344.7,53.7,344.7,53.6C344.7,53.6,344.7,53.6,344.7,53.6z M348.9,40.5
		c-0.8-0.3-1.7-0.1-2.2,0.6c-0.3,0.4-0.5,1-0.6,1.6c-0.2,1.4-0.1,4.5,1.8,4.8c0.6,0.1,1.3,0,1.7-0.4c1-0.9,0.9-3.3,0.7-4.5
		C350.1,41.8,349.7,40.8,348.9,40.5z M352.5,55.8c-0.2-1.6-1.5-1.9-2.8-1.9c-0.9,0-2.2,0-3.7,0c0,0-0.1,0-0.1,0
		c-0.6,0.4-1,1-1.1,1.6c-0.3,1.8,1.1,2.9,2.7,3.2c1.4,0.3,3.1,0.1,4.2-0.9C352.3,57.3,352.5,56.6,352.5,55.8z"/>
	<path class="st0" d="M360.3,45.2c-0.2,2.7,1.4,6,4.7,5.4c1.1-0.2,2.1-0.8,2.8-1.7c0,0,0.1,0,0.1,0l0.5,0.3c0,0,0,0,0,0.1
		c-0.8,1.9-2.1,3.2-4.2,3.7c-1.6,0.4-3.4,0.1-4.8-0.7c-2.6-1.6-3.3-5-2.5-7.9c1-3.5,4.4-5.6,8.1-4.9c0.6,0.1,1.2,0.4,1.8,0.8
		c1.7,1.2,1.9,3.2,1.5,5.1c0,0,0,0-0.1,0L360.3,45.2C360.3,45.1,360.3,45.2,360.3,45.2z M361.8,40.9c-1,0.7-1.4,2-1.5,3.2
		c0,0,0,0.1,0.1,0.1l4.8,0c0,0,0,0,0.1,0c0.1-0.9,0-2.1-0.6-2.9C363.9,40.3,362.7,40.3,361.8,40.9z"/>
	<path class="st0" d="M66.5,65.6C66.5,65.6,66.5,65.7,66.5,65.6L66.5,65.6c0.2,2.2,0.9,4.1,2.3,5.6c0.5,0.6,0.9,1.1,1.5,1.5
		c2.1,1.6,4.5,2.5,7.1,2.5c0.3,0,0.7,0,1.1-0.1c0.4,0,1-0.1,1.7-0.2c1.8-0.4,3.1-1.2,4.5-2.5c1-0.9,1.8-1.9,2.5-3c0,0,0.1,0,0.1,0
		l7.4,3.5c0,0,0,0,0,0.1l0,0c-2.2,4.2-6,7.5-10.6,9c-2.6,0.8-5.3,1.1-8,1c-3.6-0.1-6.9-1.2-10-3c-5.4-3.3-8.4-9.3-8.8-15.5
		c0-0.9-0.1-1.6,0-2.4c0-0.1,0-0.3,0-0.5c0.2-4.6,2-9.1,5-12.5c0.2-0.2,0.5-0.6,1-1.1c4.3-4.1,10.2-5.8,16-5.1
		c9.2,1.1,15.6,8.5,16.4,17.5c0,0.5,0.1,1,0.1,1.5c0,0.9,0,1.7,0,2.6c0,0.4,0,0.8-0.1,1.1c0,0,0,0.1-0.1,0.1L66.5,65.6L66.5,65.6z
		 M84.7,53.7c-1.7-2-4.2-3.2-6.8-3.4c-0.2,0-0.5,0-0.7-0.1c-0.5,0-0.9,0-1.3,0.1c-2.3,0.2-4.5,1.4-6.2,3c-1.6,1.5-2.7,3.5-3,5.7
		c0,0,0,0,0,0h20.3c0,0,0,0,0,0C86.7,56.9,85.9,55.2,84.7,53.7z"/>
	<path class="st0" d="M109.7,48.6C109.7,48.6,109.7,48.6,109.7,48.6C109.8,48.6,109.8,48.6,109.7,48.6c2-2.9,5-4.9,8.4-5.6
		c2.5-0.5,5.2-0.4,7.6,0.1c5.6,1.3,9.2,5.7,10.2,11.2c0.2,1.1,0.3,1.9,0.3,2.5c0,0.4,0.1,0.8,0.1,1.1c0,8,0,16.1,0,24.1c0,0,0,0,0,0
		h-9.1c0,0,0,0,0,0l0,0c0-7.2,0-14.3,0-21.4c0-2.3-0.4-4.5-1.7-6.3c-1.1-1.6-2.8-2.6-4.8-2.9c-1.2-0.2-2.3-0.2-3.7,0
		c-4.4,0.8-6.8,4.7-7.2,8.9c0,0.6-0.1,1.2-0.1,1.8c0,6.7,0,13.4,0,20.1c0,0,0,0,0,0h-9.1c0,0,0,0,0,0l0,0V43.7c0,0,0,0,0,0h9.1
		c0,0,0.1,0,0.1,0.1L109.7,48.6z"/>
	<path class="st0" d="M149.7,65.7c0.5,5.3,5,9.2,10.2,9.6c0.4,0,0.7,0.1,1,0c0.4,0,0.8,0,1.1-0.1c1.4-0.1,2.7-0.5,3.8-1.1
		c0.6-0.3,1.3-0.9,2-1.5c0.9-0.9,1.8-1.9,2.5-3c0-0.1,0.1-0.1,0.2-0.1l7.3,3.5c0,0,0,0.1,0,0.1l0,0c-3.1,6-9.1,9.6-15.8,9.9
		c-0.3,0-0.5,0.1-0.7,0.1c-0.6,0-1.1,0-1.7,0c-0.1,0-0.2,0-0.3,0c-3.6-0.1-6.9-1.2-9.9-3c-5.4-3.4-8.5-9.5-8.8-15.8c0-1,0-2.2,0-3.2
		c0.5-6.2,3.7-12,9-15.3c3.9-2.4,8.4-3.3,13-2.8c9.7,1.2,16.2,9.2,16.6,18.8c0,0.4,0.1,1.2,0,1.8c0,0.8,0,1.3-0.1,2
		c0,0.1-0.1,0.2-0.2,0.2L149.7,65.7C149.7,65.6,149.7,65.6,149.7,65.7z M166.8,52.6c-1.6-1.3-3.7-2.2-5.8-2.4c-0.5,0-0.9-0.1-1.3,0
		c-1.1,0.1-1.9,0.2-2.9,0.5c-1.1,0.4-2.2,1-3.3,1.9c-2,1.6-3.2,3.7-3.7,6.2c0,0.1,0,0.1,0.1,0.1h20.2c0,0,0.1,0,0.1,0v0
		c-0.1-0.5-0.2-1-0.3-1.5C169.4,55.6,168.3,53.9,166.8,52.6z"/>
	<path class="st0" d="M283.8,80.8c0.2,0,0.3-0.2,0.3-0.4c0-4.6,0-9.3,0-13.9c0-0.5,0-1-0.5-1.2c-0.5-0.2-0.9-0.4-1.4-0.6
		c0,0,0,0,0-0.1l0.1-0.7c0,0,0-0.1,0.1-0.1l5.1-1.6c0,0,0,0,0,0c0,0,0,0,0,0c0,6.1,0,12.1,0,18.2c0,0.3,0.3,0.4,0.6,0.5
		c0.4,0,0.7,0.1,1.1,0.1c0,0,0,0,0.1,0.1l0.1,1c0,0,0,0,0,0l0,0h-6.8c0,0-0.1,0,0-0.1l0.1-1c0,0,0-0.1,0.1-0.1
		C283.1,80.9,283.5,80.8,283.8,80.8z"/>
	
		<ellipse transform="matrix(1.745299e-03 -1 1 1.745299e-03 255.5791 385.1588)" class="st0" cx="320.7" cy="64.6" rx="2.1" ry="2.1"/>
	<path class="st0" d="M260.8,65.8c-1.3-0.5-2.9-0.7-4.2-0.3c-1.3,0.4-2.1,1.7-1.7,3c0.4,1.4,2.1,2,3.3,2.4c2.9,1,6.4,2,6.4,5.8
		c0,3.7-3.3,5.7-6.6,5.8c-2.1,0.1-4.1-0.2-6.1-0.8c0,0,0,0,0-0.1l-0.3-5.4c0,0,0-0.1,0.1-0.1h1.8c0,0,0,0,0.1,0
		c0.4,1.4,0.8,2.8,1.2,4.2c0,0,0.1,0.1,0.1,0.1c0.1,0,0.1,0,0.1,0c0.7,0.3,1.5,0.4,2.3,0.5c1.9,0.2,4.1-0.6,4.1-2.8
		c0-1.8-1.4-2.7-2.9-3.2c-2.8-1-6.6-1.8-6.8-5.5c-0.1-3.3,2.5-5.3,5.6-5.6c1.7-0.1,3.2,0,4.8,0.3c0.1,0,0.3,0,0.4,0
		c0.4-0.1,0.8-0.2,1.3-0.4c0,0,0,0,0.1,0v0v5.9c0,0,0,0,0,0l0,0H262c0,0-0.1,0-0.1-0.1L260.8,65.8C260.9,65.8,260.8,65.8,260.8,65.8
		z"/>
	<path class="st0" d="M311.6,71c-0.1,2.2-0.1,4.3-0.1,6.5c0,0.3,0,0.7,0.1,1.1c0.5,2.2,3.2,1.7,4.6,1c0,0,0,0,0.1,0v0l0.1,0.7
		c0,0.1,0,0.1,0,0.1c-1.3,1.4-3.1,2.2-5,2c-2.4-0.3-3.1-2.1-3.1-4.2c0-2.4,0.1-4.7,0.1-7.1c0,0,0,0,0,0l-2.2-0.2c0,0,0,0,0,0
		l0.1-0.9c0,0,0-0.1,0.1-0.1l4-3.6c0,0,0.1-0.1,0.2,0l1.2,0.2c0,0,0,0,0,0.1l0,2.7c0,0,0,0.1,0.1,0.1l4.6,0c0,0,0,0,0,0l0,0
		l-0.2,1.6c0,0,0,0.1-0.1,0.1L311.6,71C311.6,71,311.6,71,311.6,71z"/>
	<path class="st0" d="M365.7,70.6c0-0.1-0.1-0.1-0.1-0.1c-1-0.6-2.7-0.8-3.7,0.1c-0.8,0.8-0.5,2.1,0.5,2.6c2.4,1.3,6.5,1.6,6.2,5.4
		c-0.2,2.3-2.2,3.5-4.2,3.8c-1.3,0.2-2.6,0.1-3.9-0.1c-0.6-0.1-1.2-0.3-1.8-0.5c0,0,0,0,0-0.1l-0.1-3.7c0,0,0,0,0,0h1.9
		c0,0,0.1,0,0.1,0l0.7,2.5c0,0.1,0,0.1,0.1,0.1c1.2,0.6,3,1,4.1-0.1c0.6-0.6,0.8-1.6,0.2-2.3c-0.5-0.5-1.2-0.8-1.8-1
		c-1.9-0.7-4.5-1.4-5-3.7c-0.5-2.6,1.5-4.4,3.9-4.7c1.4-0.2,2.8-0.1,4.2,0.3c0,0,0.1,0,0.2,0c0.4-0.1,0.7-0.2,1.1-0.3c0,0,0,0,0,0
		l0.1,4.1c0,0,0,0,0,0h-1.7c0,0-0.1,0-0.1,0L365.7,70.6z"/>
	<path class="st0" d="M273.1,82.5c-6.9-0.3-8.4-9.5-2.9-12.8c2.9-1.8,7.1-1.4,9.2,1.4c1.7,2.3,1.7,5.8,0.1,8.2
		C278,81.5,275.7,82.6,273.1,82.5z M273.8,70c-2-0.1-2.9,1.9-3.1,3.6c-0.2,1.5-0.1,3.2,0.2,4.7c0.2,1.2,0.8,2.3,2.1,2.7
		c2.9,0.9,3.9-2.5,3.9-4.5C276.9,74.4,276.7,70.2,273.8,70z"/>
	<path class="st0" d="M332.3,82.5c-6.7-0.4-8.2-9.2-3-12.6c3.8-2.5,9.3-1.1,10.5,3.7C340.9,78.5,337.3,82.8,332.3,82.5z M330.5,71.8
		c-0.4,0.8-0.6,1.7-0.6,2.6c0,1.4,0,2.8,0.4,4.2c0.3,1,0.8,2,1.9,2.4c1.4,0.5,2.6-0.1,3.3-1.3c0.8-1.4,0.9-3.2,0.7-4.7
		c-0.1-1.5-0.5-4-2-4.7C332.6,69.6,331.1,70.4,330.5,71.8z"/>
	<path class="st0" d="M346.8,70.7c0,0.1,0.1,0.2,0.2,0.1c1.6-1.3,3.9-2.7,6-1.8c1.7,0.7,2.2,2.3,2.2,4c0,2.4,0,4.9,0,7.3
		c0,0.4,0.3,0.5,0.6,0.5c0.4,0.1,0.8,0.1,1.2,0.2c0,0,0,0,0,0.1l0.1,1c0,0,0,0,0,0h-6.8c0,0,0,0,0,0l0,0l0.1-1c0,0,0-0.1,0.1-0.1
		c0.6-0.1,0.9-0.1,1.1-0.2c0.2-0.1,0.4-0.2,0.4-0.5c0-1.9,0-3.8,0-5.7c0-1.2-0.2-2.9-1.5-3.3c-1.1-0.3-2.4,0.1-3.4,0.7
		c0,0-0.1,0.1-0.1,0.1c0,2.7,0,5.4,0,8.1c0,0.4,0.3,0.5,0.6,0.5c0.4,0,0.8,0.1,1.2,0.1c0,0,0,0,0,0l0.1,1.1c0,0,0,0,0,0l0,0h-7
		c0,0,0,0,0-0.1l0.1-1c0,0,0-0.1,0.1-0.1c0.5,0,0.9-0.1,1.2-0.2c0.3-0.1,0.4-0.2,0.4-0.6c0-2.3,0-4.5,0-6.8c0-0.5,0-0.9-0.1-1.3
		c-0.1-0.9-1-1-1.7-1.1c0,0-0.1,0-0.1-0.1l0-0.8c0,0,0-0.1,0.1-0.1l5-1.4c0,0,0,0,0.1,0v0L346.8,70.7z"/>
	<path class="st0" d="M322.6,80.4c0,0.3,0.3,0.4,0.6,0.5c0.4,0,0.7,0.1,1.1,0.1c0,0,0,0,0,0l0.1,1.1c0,0,0,0,0,0h-6.8c0,0,0,0,0,0
		l0,0l0.1-1c0,0,0-0.1,0.1-0.1c0.4,0,0.8-0.1,1.2-0.2c0.3-0.1,0.4-0.2,0.4-0.5c0-3.4,0-5.8,0-7.1c0-0.5,0-1.1-0.3-1.5
		c-0.2-0.4-1-0.5-1.4-0.6c0,0-0.1,0-0.1-0.1l0-0.8c0,0,0-0.1,0.1-0.1l5-1.4c0,0,0.1,0,0.1,0v0C322.6,72.6,322.6,76.5,322.6,80.4z"/>
	<path class="st0" d="M300.4,80.5C300.4,80.4,300.4,80.4,300.4,80.5c-0.1-0.1-0.1-0.1-0.1-0.1c-1.8,1.5-4.8,3.2-6.9,1.3
		c-1-0.9-1.3-2.2-1.3-3.5c0-2.4,0-4.8,0-7.3c0-0.2,0-0.4-0.3-0.5c-0.5-0.1-1-0.2-1.5-0.2c0,0,0,0,0,0l-0.1-1c0,0,0,0,0,0h5.3
		c0,0,0,0,0,0l0,0c-0.1,2.5-0.1,4.9-0.2,7.4c0,1.2,0.1,2.8,1.4,3.3c1.1,0.4,2.6,0,3.5-0.7c0.1,0,0.1-0.1,0.1-0.2c0-2.7,0-5.3,0-8
		c0-0.3,0-0.5-0.3-0.6c-0.5-0.1-1-0.2-1.6-0.2c0,0,0,0-0.1,0l-0.1-1c0,0,0-0.1,0.1-0.1c0,0,0,0,0,0h5.3c0,0,0,0,0,0
		c0,3.4,0,6.8,0,10.1c0,0.4,0,1.2,0.5,1.3c0.5,0.2,1,0.3,1.4,0.5c0,0,0.1,0,0.1,0.1l-0.1,0.7c0,0,0,0.1-0.1,0.1l-5.1,0.6
		c0,0-0.1,0-0.1,0c0,0,0,0,0,0L300.4,80.5z"/>
</g>
</svg>
