<?xml version="1.0" encoding="UTF-8"?><svg id="Layer_1" xmlns="http://www.w3.org/2000/svg" viewBox="0 0 635.22 402.54"><defs><style>.cls-1{stroke:#1d1d1b;}.cls-1,.cls-2{fill:none;stroke-miterlimit:10;stroke-width:.5px;}.cls-3{fill:#29235c;}.cls-3,.cls-4,.cls-5,.cls-6,.cls-7,.cls-8{stroke-width:0px;}.cls-4{fill:gray;}.cls-5{fill:#fff;}.cls-6{fill:#d7d7d7;}.cls-7{fill:#0070ee;}.cls-2{stroke:gray;}.cls-8{fill:#575756;}</style></defs><rect class="cls-6" x="93.13" y="373.62" width="542.09" height="28.93" rx="4.82" ry="4.82"/><rect class="cls-6" x="93.13" y="322.7" width="542.09" height="28.93" rx="4.82" ry="4.82"/><rect class="cls-6" x="93.13" y="271.79" width="542.09" height="28.93" rx="4.82" ry="4.82"/><rect class="cls-6" x="93.13" y="220.88" width="542.09" height="28.93" rx="4.82" ry="4.82"/><rect class="cls-6" x="93.13" y="169.97" width="542.09" height="28.93" rx="4.82" ry="4.82"/><rect class="cls-5" y="33.18" width="549.89" height="279.24" rx="14.99" ry="14.99"/><path class="cls-3" d="m39.26,112.74c-.24.44-.62.79-1.12,1.06-.5.27-1.13.4-1.87.4h-1.38v3.28h-2.22v-9.13h3.6c.73,0,1.34.13,1.85.38s.88.6,1.13,1.04.38.95.38,1.52c0,.53-.12,1.01-.36,1.45Zm-2.21-.59c.21-.21.31-.49.31-.86s-.1-.65-.31-.86-.52-.31-.95-.31h-1.21v2.34h1.21c.42,0,.74-.1.95-.31Z"/><path class="cls-3" d="m43.8,110.51c.39-.25.83-.37,1.29-.37v2.35h-.61c-.55,0-.97.12-1.25.36-.28.24-.42.66-.42,1.25v3.37h-2.22v-7.25h2.22v1.3c.26-.42.59-.76.98-1.01Z"/><path class="cls-3" d="m47.52,117.12c-.57-.3-1.01-.74-1.34-1.3-.33-.56-.49-1.22-.49-1.98s.16-1.4.49-1.97c.33-.57.78-1,1.35-1.31.57-.3,1.21-.46,1.92-.46s1.35.15,1.92.46c.57.3,1.02.74,1.35,1.31.33.57.49,1.22.49,1.97s-.17,1.4-.5,1.97c-.33.57-.79,1-1.36,1.31-.58.3-1.22.46-1.93.46s-1.35-.15-1.92-.46Zm3-1.93c.3-.32.45-.76.45-1.35s-.15-1.03-.44-1.35c-.29-.32-.65-.47-1.07-.47s-.79.16-1.08.47c-.29.31-.43.76-.43,1.35s.14,1.03.42,1.35c.28.32.63.47,1.06.47s.79-.16,1.09-.47Z"/><path class="cls-3" d="m54.4,111.87c.28-.56.67-1,1.15-1.3s1.03-.46,1.62-.46c.48,0,.91.1,1.31.3.39.2.7.47.93.81v-3.37h2.22v9.62h-2.22v-1.04c-.21.35-.5.62-.89.83-.39.21-.83.31-1.35.31-.6,0-1.14-.15-1.62-.46s-.87-.75-1.15-1.31c-.28-.57-.42-1.22-.42-1.97s.14-1.4.42-1.96Zm4.55.66c-.31-.32-.68-.48-1.12-.48s-.82.16-1.12.47-.46.75-.46,1.31.15.99.46,1.32c.31.32.68.49,1.12.49s.82-.16,1.12-.48.46-.76.46-1.31-.15-.99-.46-1.31Z"/><path class="cls-3" d="m70.38,110.22v7.25h-2.22v-.99c-.23.32-.53.58-.92.77-.39.19-.81.29-1.28.29-.55,0-1.04-.12-1.47-.37-.42-.25-.75-.6-.99-1.07-.23-.47-.35-1.02-.35-1.65v-4.24h2.21v3.94c0,.49.13.86.38,1.13.25.27.59.4,1.01.4s.78-.13,1.03-.4c.25-.27.38-.65.38-1.13v-3.94h2.22Z"/><path class="cls-3" d="m72.01,111.87c.31-.56.74-1,1.29-1.3s1.18-.46,1.89-.46c.91,0,1.67.24,2.28.71.61.48,1.01,1.15,1.2,2.02h-2.37c-.2-.55-.58-.83-1.16-.83-.41,0-.73.16-.97.47-.24.32-.36.77-.36,1.36s.12,1.04.36,1.36c.24.32.57.47.97.47.57,0,.96-.28,1.16-.83h2.37c-.19.85-.59,1.52-1.21,2s-1.37.73-2.27.73c-.71,0-1.34-.15-1.89-.46-.55-.3-.98-.74-1.29-1.3-.31-.56-.46-1.22-.46-1.98s.15-1.41.46-1.98Z"/><path class="cls-3" d="m83.85,115.59v1.88h-1.13c-.81,0-1.43-.2-1.88-.59-.45-.39-.68-1.04-.68-1.93v-2.89h-.88v-1.85h.88v-1.77h2.22v1.77h1.46v1.85h-1.46v2.91c0,.22.05.37.16.47s.28.14.52.14h.79Z"/><path class="cls-3" d="m96.26,117.47h-2.22l-3.72-5.63v5.63h-2.22v-9.13h2.22l3.72,5.65v-5.65h2.22v9.13Z"/><path class="cls-3" d="m97.97,111.87c.28-.56.67-1,1.15-1.3s1.03-.46,1.62-.46c.51,0,.96.1,1.35.31.39.21.68.48.89.82v-1.03h2.22v7.25h-2.22v-1.03c-.22.34-.52.61-.9.82s-.83.31-1.35.31c-.59,0-1.13-.15-1.61-.46s-.87-.75-1.15-1.31c-.28-.57-.42-1.22-.42-1.97s.14-1.4.42-1.96Zm4.55.66c-.31-.32-.68-.48-1.12-.48s-.82.16-1.12.47-.46.75-.46,1.31.15.99.46,1.32c.31.32.68.49,1.12.49s.82-.16,1.12-.48.46-.76.46-1.31-.15-.99-.46-1.31Z"/><path class="cls-3" d="m118.19,110.96c.53.55.8,1.3.8,2.28v4.24h-2.21v-3.94c0-.47-.12-.83-.37-1.09s-.59-.38-1.02-.38-.77.13-1.02.38-.37.62-.37,1.09v3.94h-2.21v-3.94c0-.47-.12-.83-.37-1.09s-.59-.38-1.02-.38-.77.13-1.02.38-.37.62-.37,1.09v3.94h-2.22v-7.25h2.22v.91c.23-.3.52-.54.88-.72.36-.18.78-.27,1.23-.27.55,0,1.03.12,1.46.35.43.23.77.57,1.01,1,.25-.4.59-.72,1.03-.98.43-.25.91-.38,1.42-.38.9,0,1.62.27,2.15.82Z"/><path class="cls-3" d="m127.33,114.35h-5.03c.03.46.18.81.43,1.05s.57.36.95.36c.55,0,.94-.23,1.16-.7h2.37c-.12.48-.34.91-.66,1.29-.32.38-.71.68-1.19.9-.48.22-1.01.33-1.6.33-.71,0-1.34-.15-1.9-.46-.55-.3-.99-.74-1.3-1.3s-.47-1.22-.47-1.98.15-1.41.46-1.98c.31-.56.74-1,1.29-1.3.55-.3,1.19-.46,1.91-.46s1.33.15,1.87.44c.55.29.97.71,1.28,1.26.31.55.46,1.18.46,1.9,0,.2-.01.41-.04.64Zm-2.24-1.13c0-.42-.13-.74-.39-.98s-.58-.35-.98-.35-.7.12-.96.34c-.26.23-.41.56-.47.98h2.79Z"/><path class="cls-8" d="m33.54,131.77h2.44v.7h-3.35v-6.97h.91v6.27Z"/><path class="cls-8" d="m41.85,130.04h-4.38c.03.54.21.97.54,1.28.34.31.75.47,1.24.47.39,0,.72-.09.98-.28.26-.18.45-.43.56-.74h.98c-.15.53-.44.96-.88,1.29-.44.33-.99.5-1.64.5-.52,0-.99-.12-1.4-.35-.41-.23-.73-.57-.97-1s-.35-.93-.35-1.5.11-1.06.34-1.49.54-.75.96-.98c.41-.23.88-.35,1.42-.35s.98.11,1.38.34c.4.23.71.54.92.93.22.39.33.84.33,1.33,0,.17-.01.35-.03.54Zm-1.14-1.58c-.15-.26-.36-.45-.62-.58-.26-.13-.56-.2-.88-.2-.47,0-.86.15-1.19.46-.33.3-.51.72-.54,1.25h3.46c0-.36-.08-.67-.23-.92Z"/><path class="cls-8" d="m46.67,127.21c.36.21.62.47.79.78v-1h.92v5.6c0,.5-.11.95-.32,1.33s-.52.7-.92.92-.86.33-1.38.33c-.72,0-1.32-.17-1.8-.51-.48-.34-.76-.8-.85-1.39h.9c.1.33.31.6.62.81.31.2.69.3,1.13.3.5,0,.91-.16,1.23-.47.32-.31.47-.75.47-1.32v-1.15c-.18.32-.45.59-.8.8-.35.21-.77.32-1.24.32s-.93-.12-1.32-.36c-.4-.24-.71-.58-.94-1.01-.23-.43-.34-.93-.34-1.48s.11-1.05.34-1.48c.23-.42.54-.75.94-.98.4-.23.84-.35,1.32-.35s.89.1,1.25.31Zm.54,1.43c-.17-.31-.39-.54-.67-.71-.28-.16-.6-.25-.94-.25s-.65.08-.93.24c-.28.16-.5.39-.67.7s-.25.67-.25,1.08.08.79.25,1.09.39.55.67.71c.28.16.59.25.93.25s.65-.08.94-.25c.28-.16.51-.4.67-.71s.25-.67.25-1.08-.08-.77-.25-1.08Z"/><path class="cls-8" d="m49.99,128.24c.23-.42.54-.75.94-.98.4-.23.84-.35,1.32-.35s.9.1,1.25.31c.35.21.62.47.79.78v-1h.92v5.48h-.92v-1.02c-.18.32-.45.58-.8.79-.36.21-.77.31-1.25.31s-.93-.12-1.32-.36c-.39-.24-.7-.58-.93-1.01-.23-.43-.34-.93-.34-1.48s.11-1.05.34-1.48Zm4.05.41c-.17-.31-.39-.54-.67-.71-.28-.16-.6-.25-.94-.25s-.65.08-.93.24c-.28.16-.5.39-.67.7s-.25.67-.25,1.08.08.79.25,1.09.39.55.67.71c.28.16.59.25.93.25s.65-.08.94-.25c.28-.16.51-.4.67-.71s.25-.67.25-1.08-.08-.77-.25-1.08Z"/><path class="cls-8" d="m57.69,125.07v7.4h-.91v-7.4h.91Z"/><path class="cls-8" d="m67.01,132.47l-1.16-1.44c-.1.44-.33.8-.69,1.09-.36.29-.79.43-1.27.43-.37,0-.72-.09-1.04-.26-.32-.18-.57-.42-.75-.74s-.28-.68-.28-1.08.09-.75.26-1.06.41-.54.7-.71c.29-.17.61-.25.96-.25h.08l-.1-.11c-.24-.3-.42-.57-.53-.8-.11-.24-.17-.49-.17-.75,0-.28.07-.54.21-.79.14-.25.35-.45.62-.6s.59-.23.96-.23.72.08,1,.22c.28.15.48.35.62.6.14.25.21.51.21.78,0,.15-.02.3-.07.45h-.9c.04-.1.06-.22.06-.36,0-.27-.08-.5-.25-.67-.17-.17-.39-.25-.67-.25s-.48.08-.64.25c-.16.17-.24.37-.24.61,0,.17.03.33.1.49.07.15.18.33.34.52l3.73,4.69h-1.09Zm-2.23-1.05c.24-.25.36-.56.36-.93,0-.25-.06-.47-.18-.68-.12-.21-.28-.37-.47-.48-.2-.12-.41-.18-.64-.18-.35,0-.64.12-.87.36s-.35.55-.35.94.12.71.37.96c.25.25.55.38.9.38s.64-.12.88-.38Z"/><path class="cls-8" d="m72.08,127.15c.31-.54.73-.97,1.27-1.27.53-.3,1.12-.46,1.77-.46.74,0,1.4.18,1.96.55.57.37.98.88,1.25,1.55h-1.09c-.19-.41-.47-.72-.84-.94-.37-.22-.79-.34-1.28-.34s-.93.11-1.31.34c-.39.22-.7.54-.92.96-.22.42-.33.9-.33,1.44s.11,1.03.33,1.44c.22.41.53.73.92.96.39.22.83.33,1.31.33.69,0,1.25-.21,1.69-.62s.69-.96.76-1.67h-2.78v-.72h3.75v.7c-.05.57-.23,1.1-.54,1.57-.31.48-.71.85-1.21,1.13-.5.28-1.06.42-1.67.42-.65,0-1.24-.15-1.77-.45-.53-.3-.96-.73-1.27-1.27s-.46-1.15-.46-1.83.15-1.29.46-1.83Z"/><path class="cls-8" d="m84.82,130.04h-4.38c.03.54.21.97.54,1.28.34.31.75.47,1.24.47.39,0,.72-.09.98-.28.26-.18.45-.43.56-.74h.98c-.15.53-.44.96-.88,1.29-.44.33-.99.5-1.64.5-.52,0-.99-.12-1.4-.35-.41-.23-.73-.57-.97-1s-.35-.93-.35-1.5.11-1.06.34-1.49.54-.75.96-.98c.41-.23.88-.35,1.42-.35s.98.11,1.38.34c.4.23.71.54.92.93.22.39.33.84.33,1.33,0,.17-.01.35-.03.54Zm-1.14-1.58c-.15-.26-.36-.45-.62-.58-.26-.13-.56-.2-.88-.2-.47,0-.86.15-1.19.46-.33.3-.51.72-.54,1.25h3.46c0-.36-.08-.67-.23-.92Z"/><path class="cls-8" d="m90.4,127.5c.41.4.62.98.62,1.74v3.23h-.9v-3.1c0-.55-.14-.97-.41-1.26-.27-.29-.65-.43-1.12-.43s-.86.15-1.15.45-.42.74-.42,1.31v3.03h-.91v-5.48h.91v.78c.18-.28.42-.5.73-.65s.65-.23,1.02-.23c.67,0,1.21.2,1.62.61Z"/><path class="cls-8" d="m97.54,130.04h-4.38c.03.54.21.97.54,1.28.34.31.75.47,1.24.47.39,0,.72-.09.98-.28.26-.18.45-.43.56-.74h.98c-.15.53-.44.96-.88,1.29-.44.33-.99.5-1.64.5-.52,0-.99-.12-1.4-.35-.41-.23-.73-.57-.97-1s-.35-.93-.35-1.5.11-1.06.34-1.49.54-.75.96-.98c.41-.23.88-.35,1.42-.35s.98.11,1.38.34c.4.23.71.54.92.93.22.39.33.84.33,1.33,0,.17-.01.35-.03.54Zm-1.14-1.58c-.15-.26-.36-.45-.62-.58-.26-.13-.56-.2-.88-.2-.47,0-.86.15-1.19.46-.33.3-.51.72-.54,1.25h3.46c0-.36-.08-.67-.23-.92Z"/><path class="cls-8" d="m100.43,127.19c.3-.2.66-.3,1.08-.3v.94h-.24c-1.02,0-1.53.55-1.53,1.66v2.98h-.91v-5.48h.91v1.04c.16-.36.39-.64.69-.84Z"/><path class="cls-8" d="m102.48,128.24c.23-.42.54-.75.94-.98.4-.23.84-.35,1.32-.35s.9.1,1.25.31c.35.21.62.47.79.78v-1h.92v5.48h-.92v-1.02c-.18.32-.45.58-.8.79-.36.21-.77.31-1.25.31s-.93-.12-1.32-.36c-.39-.24-.7-.58-.93-1.01-.23-.43-.34-.93-.34-1.48s.11-1.05.34-1.48Zm4.05.41c-.17-.31-.39-.54-.67-.71-.28-.16-.6-.25-.94-.25s-.65.08-.93.24c-.28.16-.5.39-.67.7s-.25.67-.25,1.08.08.79.25,1.09.39.55.67.71c.28.16.59.25.93.25s.65-.08.94-.25c.28-.16.51-.4.67-.71s.25-.67.25-1.08-.08-.77-.25-1.08Z"/><path class="cls-8" d="m110.19,125.07v7.4h-.91v-7.4h.91Z"/><path class="cls-8" d="m115.63,131.77h2.44v.7h-3.35v-6.97h.91v6.27Z"/><path class="cls-8" d="m119.1,125.92c-.12-.12-.18-.27-.18-.44s.06-.32.18-.44c.12-.12.27-.18.44-.18s.31.06.42.18.17.27.17.44-.06.32-.17.44-.26.18-.42.18-.32-.06-.44-.18Zm.88,1.07v5.48h-.91v-5.48h.91Z"/><path class="cls-8" d="m123.78,127.74h-1.15v4.73h-.91v-4.73h-.71v-.75h.71v-.39c0-.61.16-1.06.48-1.34.32-.28.83-.42,1.52-.42v.76c-.4,0-.68.08-.84.24-.16.16-.25.41-.25.77v.39h1.15v.75Z"/><path class="cls-8" d="m129.69,130.04h-4.38c.03.54.21.97.54,1.28.34.31.75.47,1.24.47.39,0,.72-.09.98-.28.26-.18.45-.43.56-.74h.98c-.15.53-.44.96-.88,1.29-.44.33-.99.5-1.64.5-.52,0-.99-.12-1.4-.35-.41-.23-.73-.57-.97-1s-.35-.93-.35-1.5.11-1.06.34-1.49.54-.75.96-.98c.41-.23.88-.35,1.42-.35s.98.11,1.38.34c.4.23.71.54.92.93.22.39.33.84.33,1.33,0,.17-.01.35-.03.54Zm-1.14-1.58c-.15-.26-.36-.45-.62-.58-.26-.13-.56-.2-.88-.2-.47,0-.86.15-1.19.46-.33.3-.51.72-.54,1.25h3.46c0-.36-.08-.67-.23-.92Z"/><path class="cls-8" d="m241.89,184.99h-3.04l-.56,1.55h-.96l2.52-6.93h1.05l2.51,6.93h-.96l-.56-1.55Zm-.25-.71l-1.27-3.55-1.27,3.55h2.54Z"/><path class="cls-8" d="m244.35,182.31c.23-.42.54-.75.94-.99.4-.23.84-.35,1.33-.35.43,0,.82.1,1.19.29.37.2.65.46.84.77v-2.9h.92v7.4h-.92v-1.03c-.18.33-.45.59-.8.8-.35.21-.77.31-1.24.31s-.93-.12-1.32-.36c-.4-.24-.71-.58-.94-1.01-.23-.43-.34-.93-.34-1.48s.11-1.05.34-1.47Zm4.05.4c-.17-.31-.39-.54-.67-.71-.28-.16-.6-.24-.94-.24s-.65.08-.93.24c-.28.16-.5.39-.67.7s-.25.67-.25,1.08.08.79.25,1.09c.17.31.39.55.67.71.28.16.59.25.93.25s.65-.08.94-.25c.28-.16.51-.4.67-.71.17-.31.25-.67.25-1.08s-.08-.77-.25-1.08Z"/><path class="cls-8" d="m251.18,182.31c.23-.42.54-.75.94-.99.4-.23.84-.35,1.33-.35.43,0,.82.1,1.19.29.37.2.65.46.84.77v-2.9h.92v7.4h-.92v-1.03c-.18.33-.45.59-.8.8-.35.21-.77.31-1.24.31s-.93-.12-1.32-.36c-.4-.24-.71-.58-.94-1.01-.23-.43-.34-.93-.34-1.48s.11-1.05.34-1.47Zm4.05.4c-.17-.31-.39-.54-.67-.71-.28-.16-.6-.24-.94-.24s-.65.08-.93.24c-.28.16-.5.39-.67.7s-.25.67-.25,1.08.08.79.25,1.09c.17.31.39.55.67.71.28.16.59.25.93.25s.65-.08.94-.25c.28-.16.51-.4.67-.71.17-.31.25-.67.25-1.08s-.08-.77-.25-1.08Z"/><path class="cls-8" d="m262.63,181.29c.36-.21.77-.31,1.25-.31s.93.12,1.33.35c.4.23.71.56.94.99.23.42.34.92.34,1.47s-.11,1.05-.34,1.48c-.23.43-.54.77-.94,1.01-.4.24-.84.36-1.33.36s-.88-.1-1.23-.31c-.36-.21-.63-.47-.81-.79v3.61h-.91v-8.08h.91v1.01c.18-.31.45-.58.8-.79Zm2.67,1.42c-.17-.31-.39-.54-.67-.7-.28-.16-.6-.24-.94-.24s-.64.08-.92.24c-.28.16-.51.4-.68.71-.17.31-.25.67-.25,1.08s.08.78.25,1.08c.17.31.4.55.68.71.28.16.59.25.92.25s.65-.08.94-.25c.28-.16.51-.4.67-.71.17-.31.25-.67.25-1.09s-.08-.77-.25-1.08Z"/><path class="cls-8" d="m268.75,186.28c-.42-.23-.74-.57-.98-1-.24-.43-.35-.93-.35-1.5s.12-1.05.36-1.48c.24-.43.58-.76,1-.99.42-.23.89-.34,1.41-.34s.99.11,1.41.34c.42.23.75.56,1,.98.24.43.37.92.37,1.49s-.12,1.07-.38,1.5-.59.76-1.02,1c-.43.23-.9.35-1.42.35s-.98-.12-1.4-.35Zm2.31-.66c.29-.16.52-.39.69-.71.18-.31.27-.69.27-1.13s-.09-.81-.26-1.12c-.17-.31-.4-.54-.68-.69-.28-.15-.58-.23-.91-.23s-.64.08-.92.23-.5.38-.67.69c-.17.31-.25.69-.25,1.12s.08.83.25,1.13c.16.31.38.54.65.7.27.16.57.24.9.24s.63-.08.92-.24Z"/><path class="cls-8" d="m275.14,179.14v7.4h-.91v-7.4h.91Z"/><path class="cls-8" d="m276.76,179.99c-.12-.12-.18-.27-.18-.44s.06-.32.18-.44c.12-.12.27-.18.44-.18s.31.06.42.18c.12.12.17.27.17.44s-.06.32-.17.44c-.12.12-.26.18-.42.18s-.32-.06-.44-.18Zm.88,1.07v5.48h-.91v-5.48h.91Z"/><path class="cls-8" d="m279.23,182.31c.23-.42.54-.75.94-.99s.87-.35,1.39-.35c.67,0,1.23.16,1.67.49.44.33.72.78.86,1.36h-.98c-.09-.33-.28-.6-.54-.79-.27-.19-.61-.29-1-.29-.52,0-.94.18-1.26.54-.32.36-.48.86-.48,1.51s.16,1.17.48,1.53c.32.36.74.54,1.26.54.4,0,.73-.09,1-.28s.45-.45.55-.8h.98c-.15.56-.44,1.01-.88,1.34-.44.34-.99.5-1.65.5-.52,0-.98-.12-1.39-.35s-.72-.56-.94-.99-.34-.93-.34-1.5.11-1.06.34-1.48Z"/><path class="cls-8" d="m285.62,181.06l1.7,4.42,1.71-4.42h.94l-3.3,8.06h-.95l1.09-2.64-2.21-5.42h1.02Z"/><path class="cls-8" d="m293.86,182.31c.23-.42.54-.75.94-.99.4-.23.84-.35,1.32-.35s.9.1,1.25.31c.35.21.62.47.79.78v-1h.92v5.48h-.92v-1.02c-.18.32-.45.58-.8.79s-.77.31-1.25.31-.93-.12-1.32-.36c-.39-.24-.7-.58-.93-1.01-.23-.43-.34-.93-.34-1.48s.11-1.05.34-1.47Zm4.05.4c-.17-.31-.39-.54-.67-.71-.28-.16-.59-.24-.93-.24s-.65.08-.93.24c-.28.16-.5.39-.67.7-.17.31-.25.67-.25,1.08s.08.79.25,1.09c.17.31.39.55.67.71.28.16.59.25.93.25s.65-.08.93-.25c.28-.16.51-.4.67-.71.17-.31.25-.67.25-1.08s-.08-.77-.25-1.08Z"/><path class="cls-8" d="m304.95,181.57c.41.4.62.98.62,1.75v3.23h-.9v-3.1c0-.55-.14-.96-.41-1.25s-.65-.44-1.12-.44-.86.15-1.14.45-.42.74-.42,1.31v3.03h-.91v-5.48h.91v.78c.18-.28.42-.5.73-.65.31-.15.65-.23,1.03-.23.67,0,1.21.2,1.62.61Z"/><path class="cls-8" d="m307.1,182.31c.23-.42.54-.75.94-.99.4-.23.84-.35,1.33-.35.43,0,.82.1,1.19.29.37.2.65.46.84.77v-2.9h.92v7.4h-.92v-1.03c-.18.33-.45.59-.8.8s-.77.31-1.24.31-.93-.12-1.32-.36c-.4-.24-.71-.58-.94-1.01-.23-.43-.34-.93-.34-1.48s.11-1.05.34-1.47Zm4.05.4c-.17-.31-.39-.54-.67-.71-.28-.16-.59-.24-.93-.24s-.65.08-.93.24c-.28.16-.5.39-.67.7-.17.31-.25.67-.25,1.08s.08.79.25,1.09c.17.31.39.55.67.71.28.16.59.25.93.25s.65-.08.93-.25c.28-.16.51-.4.67-.71.17-.31.25-.67.25-1.08s-.08-.77-.25-1.08Z"/><path class="cls-8" d="m239.5,196.28c.36-.21.77-.31,1.23-.31.49,0,.94.12,1.33.35.39.23.7.56.93.98.23.42.34.92.34,1.48s-.11,1.05-.34,1.48c-.23.43-.54.77-.94,1.01-.4.24-.84.36-1.33.36s-.89-.1-1.25-.31c-.36-.21-.62-.47-.8-.79v1.01h-.91v-7.4h.91v2.94c.19-.33.46-.59.82-.8Zm2.65,1.42c-.17-.31-.39-.54-.67-.7-.28-.16-.6-.24-.94-.24s-.64.08-.92.25c-.28.16-.51.4-.68.71-.17.31-.25.67-.25,1.08s.08.78.25,1.08.4.55.68.71c.28.16.59.25.92.25s.65-.08.94-.25c.28-.16.51-.4.67-.71s.25-.67.25-1.09-.08-.77-.25-1.08Z"/><path class="cls-8" d="m249.59,199.11h-4.38c.03.54.21.97.54,1.28.34.31.75.47,1.24.47.39,0,.72-.09.98-.28.26-.18.45-.43.56-.74h.98c-.15.53-.44.96-.88,1.29-.44.33-.99.5-1.64.5-.52,0-.99-.12-1.4-.35-.41-.23-.73-.57-.97-1s-.35-.93-.35-1.5.11-1.06.34-1.49.54-.75.96-.98c.41-.23.88-.35,1.42-.35s.98.11,1.38.34c.4.23.71.54.92.93.22.39.33.84.33,1.33,0,.17-.01.35-.03.54Zm-1.14-1.58c-.15-.26-.36-.45-.62-.58-.26-.13-.56-.2-.88-.2-.47,0-.86.15-1.19.46-.33.3-.51.72-.54,1.25h3.46c0-.36-.08-.67-.23-.92Z"/><path class="cls-8" d="m255.17,196.57c.41.4.62.98.62,1.74v3.23h-.9v-3.1c0-.55-.14-.97-.41-1.26-.27-.29-.65-.43-1.12-.43s-.86.15-1.15.45-.42.74-.42,1.31v3.03h-.91v-5.48h.91v.78c.18-.28.42-.5.73-.65s.65-.23,1.02-.23c.67,0,1.21.2,1.62.61Z"/><path class="cls-8" d="m262.31,199.11h-4.38c.03.54.21.97.54,1.28.34.31.75.47,1.24.47.39,0,.72-.09.98-.28.26-.18.45-.43.56-.74h.98c-.15.53-.44.96-.88,1.29-.44.33-.99.5-1.64.5-.52,0-.99-.12-1.4-.35-.41-.23-.73-.57-.97-1s-.35-.93-.35-1.5.11-1.06.34-1.49.54-.75.96-.98c.41-.23.88-.35,1.42-.35s.98.11,1.38.34c.4.23.71.54.92.93.22.39.33.84.33,1.33,0,.17-.01.35-.03.54Zm-1.14-1.58c-.15-.26-.36-.45-.62-.58-.26-.13-.56-.2-.88-.2-.47,0-.86.15-1.19.46-.33.3-.51.72-.54,1.25h3.46c0-.36-.08-.67-.23-.92Z"/><path class="cls-8" d="m265.76,196.81h-1.15v4.73h-.91v-4.73h-.71v-.75h.71v-.39c0-.61.16-1.06.48-1.34.32-.28.83-.42,1.52-.42v.76c-.4,0-.68.08-.84.24-.16.16-.25.41-.25.77v.39h1.15v.75Z"/><path class="cls-8" d="m266.88,194.99c-.12-.12-.18-.27-.18-.44s.06-.32.18-.44c.12-.12.27-.18.44-.18s.31.06.42.18.17.27.17.44-.06.32-.17.44-.26.18-.42.18-.32-.06-.44-.18Zm.88,1.07v5.48h-.91v-5.48h.91Z"/><path class="cls-8" d="m270.42,196.81v3.23c0,.27.06.46.17.57.11.11.31.17.59.17h.67v.77h-.82c-.51,0-.89-.12-1.14-.35s-.38-.62-.38-1.15v-3.23h-.71v-.75h.71v-1.38h.91v1.38h1.43v.75h-1.43Z"/><path class="cls-8" d="m275.93,197.31c.23-.42.54-.75.93-.98s.84-.35,1.33-.35c.43,0,.82.1,1.19.29.37.2.65.46.84.78v-2.9h.92v7.4h-.92v-1.03c-.18.33-.45.6-.8.81-.35.21-.77.31-1.24.31s-.93-.12-1.33-.36c-.4-.24-.71-.58-.93-1.01-.23-.43-.34-.93-.34-1.48s.11-1.05.34-1.48Zm4.05.41c-.17-.31-.39-.54-.67-.71-.28-.16-.6-.25-.94-.25s-.65.08-.93.24-.5.39-.67.7c-.17.31-.25.67-.25,1.08s.08.79.25,1.09c.17.31.39.55.67.71s.59.25.93.25.65-.08.94-.25c.28-.16.51-.4.67-.71.17-.31.25-.67.25-1.08s-.08-.77-.25-1.08Z"/><path class="cls-8" d="m282.76,197.31c.23-.42.54-.75.94-.98.4-.23.84-.35,1.32-.35s.9.1,1.25.31c.35.21.62.47.79.78v-1h.92v5.48h-.92v-1.02c-.18.32-.45.58-.8.79s-.77.31-1.25.31-.93-.12-1.32-.36c-.39-.24-.7-.58-.93-1.01-.23-.43-.34-.93-.34-1.48s.11-1.05.34-1.48Zm4.05.41c-.17-.31-.39-.54-.67-.71-.28-.16-.59-.25-.93-.25s-.65.08-.93.24c-.28.16-.5.39-.67.7-.17.31-.25.67-.25,1.08s.08.79.25,1.09c.17.31.39.55.67.71.28.16.59.25.93.25s.65-.08.93-.25.51-.4.67-.71c.17-.31.25-.67.25-1.08s-.08-.77-.25-1.08Z"/><path class="cls-8" d="m290.66,196.81v3.23c0,.27.06.46.17.57.11.11.31.17.59.17h.67v.77h-.82c-.51,0-.89-.12-1.14-.35-.25-.23-.38-.62-.38-1.15v-3.23h-.71v-.75h.71v-1.38h.91v1.38h1.43v.75h-1.43Z"/><path class="cls-8" d="m293.05,197.31c.23-.42.54-.75.94-.98.4-.23.84-.35,1.32-.35s.9.1,1.25.31c.35.21.62.47.79.78v-1h.92v5.48h-.92v-1.02c-.18.32-.45.58-.8.79s-.77.31-1.25.31-.93-.12-1.32-.36c-.39-.24-.7-.58-.93-1.01-.23-.43-.34-.93-.34-1.48s.11-1.05.34-1.48Zm4.05.41c-.17-.31-.39-.54-.67-.71-.28-.16-.59-.25-.93-.25s-.65.08-.93.24c-.28.16-.5.39-.67.7-.17.31-.25.67-.25,1.08s.08.79.25,1.09c.17.31.39.55.67.71.28.16.59.25.93.25s.65-.08.93-.25.51-.4.67-.71c.17-.31.25-.67.25-1.08s-.08-.77-.25-1.08Z"/><path class="cls-8" d="m303.9,196.81v3.23c0,.27.06.46.17.57.11.11.31.17.59.17h.67v.77h-.82c-.51,0-.89-.12-1.14-.35-.25-.23-.38-.62-.38-1.15v-3.23h-.71v-.75h.71v-1.38h.91v1.38h1.43v.75h-1.43Z"/><path class="cls-8" d="m307.28,201.28c-.42-.23-.74-.57-.98-1s-.35-.93-.35-1.5.12-1.05.36-1.49c.24-.43.58-.76,1-.99.42-.23.89-.35,1.41-.35s.99.12,1.41.35c.42.23.75.56,1,.98.24.43.37.92.37,1.49s-.12,1.07-.38,1.5-.59.76-1.02,1-.9.35-1.42.35-.98-.12-1.39-.35Zm2.31-.66c.29-.16.52-.39.7-.71s.26-.69.26-1.13-.09-.82-.26-1.12c-.17-.31-.4-.54-.68-.7-.28-.15-.58-.23-.91-.23s-.64.08-.92.23c-.28.15-.5.39-.67.7-.17.31-.25.68-.25,1.12s.08.83.25,1.13c.16.31.38.54.65.7.27.16.57.24.9.24s.63-.08.92-.24Z"/><path class="cls-8" d="m315.66,197.31c.23-.42.54-.75.94-.98s.87-.35,1.39-.35c.67,0,1.23.16,1.67.49.44.33.72.78.86,1.36h-.98c-.09-.33-.28-.6-.54-.79-.27-.19-.61-.29-1-.29-.52,0-.94.18-1.26.54-.32.36-.48.86-.48,1.51s.16,1.17.48,1.53c.32.36.74.54,1.26.54.4,0,.73-.09,1-.28s.45-.45.55-.8h.98c-.15.56-.44,1.01-.88,1.34-.44.34-.99.5-1.65.5-.52,0-.98-.12-1.39-.35s-.72-.56-.94-.99-.34-.93-.34-1.5.11-1.06.34-1.49Z"/><path class="cls-8" d="m321.77,197.31c.23-.42.54-.75.94-.98.4-.23.84-.35,1.32-.35s.9.1,1.25.31c.35.21.62.47.79.78v-1h.92v5.48h-.92v-1.02c-.18.32-.45.58-.8.79s-.77.31-1.25.31-.93-.12-1.32-.36c-.39-.24-.7-.58-.93-1.01-.23-.43-.34-.93-.34-1.48s.11-1.05.34-1.48Zm4.05.41c-.17-.31-.39-.54-.67-.71-.28-.16-.59-.25-.93-.25s-.65.08-.93.24c-.28.16-.5.39-.67.7-.17.31-.25.67-.25,1.08s.08.79.25,1.09c.17.31.39.55.67.71.28.16.59.25.93.25s.65-.08.93-.25.51-.4.67-.71c.17-.31.25-.67.25-1.08s-.08-.77-.25-1.08Z"/><path class="cls-8" d="m329.38,201.42c-.33-.14-.59-.34-.79-.6-.19-.26-.3-.55-.32-.89h.94c.03.29.15.52.38.7.23.18.53.27.91.27.35,0,.63-.08.82-.24.2-.16.29-.36.29-.62,0-.24-.11-.42-.32-.54-.21-.12-.54-.23-.99-.34-.41-.11-.74-.21-.99-.32-.25-.11-.47-.26-.65-.47-.18-.21-.27-.49-.27-.83,0-.29.08-.55.24-.79s.39-.43.7-.57c.3-.14.65-.21,1.05-.21.61,0,1.1.15,1.47.46s.57.73.6,1.26h-.91c-.02-.3-.13-.54-.35-.72-.21-.18-.49-.27-.84-.27-.33,0-.59.07-.79.22-.19.15-.28.34-.28.58,0,.19.06.34.18.46s.27.21.44.27c.17.06.42.14.74.24.4.11.72.21.96.32s.45.25.62.46c.17.2.26.47.26.8,0,.31-.08.58-.25.82-.16.24-.39.43-.69.57s-.65.21-1.05.21c-.42,0-.8-.07-1.12-.21Z"/><path class="cls-8" d="m338.77,199.11h-4.38c.03.54.21.97.54,1.28.34.31.75.47,1.24.47.39,0,.72-.09.98-.28s.45-.43.56-.74h.98c-.15.53-.44.96-.88,1.29s-.99.5-1.64.5c-.52,0-.99-.12-1.4-.35s-.73-.57-.96-1-.35-.93-.35-1.5.11-1.06.34-1.49.54-.75.96-.98c.41-.23.88-.35,1.42-.35s.98.11,1.38.34c.4.23.71.54.92.93s.33.84.33,1.33c0,.17-.01.35-.03.54Zm-1.14-1.58c-.15-.26-.36-.45-.62-.58-.26-.13-.56-.2-.88-.2-.47,0-.86.15-1.19.46-.33.3-.51.72-.54,1.25h3.46c0-.36-.08-.67-.23-.92Z"/><path class="cls-3" d="m235.06,56.5h-3.14l-.5,1.49h-2.15l3.05-8.42h2.38l3.05,8.42h-2.17l-.5-1.49Zm-.52-1.56l-1.06-3.11-1.04,3.11h2.1Z"/><path class="cls-3" d="m238.42,52.81c.26-.52.61-.92,1.06-1.2.45-.28.95-.42,1.5-.42.44,0,.84.09,1.21.28.36.18.65.43.86.74v-3.11h2.05v8.88h-2.05v-.96c-.19.32-.47.58-.82.77s-.77.29-1.24.29c-.55,0-1.05-.14-1.5-.43-.45-.28-.8-.69-1.06-1.21-.26-.52-.39-1.13-.39-1.82s.13-1.29.39-1.81Zm4.2.61c-.28-.3-.63-.44-1.04-.44s-.75.15-1.04.44c-.28.29-.43.69-.43,1.21s.14.92.43,1.22c.28.3.63.45,1.04.45s.75-.15,1.04-.44c.28-.3.43-.7.43-1.21s-.14-.92-.43-1.21Z"/><path class="cls-3" d="m246.59,52.81c.26-.52.61-.92,1.06-1.2.45-.28.95-.42,1.5-.42.44,0,.84.09,1.21.28.36.18.65.43.86.74v-3.11h2.05v8.88h-2.05v-.96c-.19.32-.47.58-.82.77s-.77.29-1.24.29c-.55,0-1.05-.14-1.5-.43-.45-.28-.8-.69-1.06-1.21-.26-.52-.39-1.13-.39-1.82s.13-1.29.39-1.81Zm4.2.61c-.28-.3-.63-.44-1.04-.44s-.75.15-1.04.44c-.28.29-.43.69-.43,1.21s.14.92.43,1.22c.28.3.63.45,1.04.45s.75-.15,1.04-.44c.28-.3.43-.7.43-1.21s-.14-.92-.43-1.21Z"/><path class="cls-3" d="m260.41,51.48c.35-.19.76-.29,1.24-.29.55,0,1.05.14,1.5.42.45.28.8.68,1.06,1.2s.39,1.12.39,1.81-.13,1.29-.39,1.82-.61.93-1.06,1.21c-.45.28-.95.43-1.5.43-.46,0-.87-.1-1.23-.29s-.63-.44-.83-.74v4.13h-2.05v-9.89h2.05v.95c.2-.31.48-.56.83-.76Zm1.67,1.94c-.28-.29-.63-.44-1.05-.44s-.75.15-1.04.44c-.28.3-.43.7-.43,1.21s.14.92.43,1.21c.28.3.63.44,1.04.44s.76-.15,1.04-.45c.29-.3.43-.71.43-1.22s-.14-.91-.43-1.21Z"/><path class="cls-3" d="m266.99,57.66c-.52-.28-.94-.68-1.24-1.2-.3-.52-.45-1.13-.45-1.82s.15-1.29.46-1.82c.3-.52.72-.93,1.25-1.21.53-.28,1.12-.42,1.78-.42s1.25.14,1.78.42c.53.28.94.68,1.25,1.21s.46,1.13.46,1.82-.15,1.29-.46,1.82-.73.93-1.26,1.21c-.53.28-1.13.42-1.78.42s-1.25-.14-1.77-.42Zm2.77-1.78c.28-.29.41-.71.41-1.24s-.13-.95-.4-1.24c-.27-.29-.6-.44-.99-.44s-.73.14-1,.43c-.26.29-.4.7-.4,1.25s.13.95.39,1.24c.26.29.59.44.98.44s.73-.15,1-.44Z"/><path class="cls-3" d="m275.39,49.11v8.88h-2.05v-8.88h2.05Z"/><path class="cls-3" d="m277.01,50.28c-.23-.21-.34-.47-.34-.79s.11-.59.34-.8.52-.32.88-.32.64.11.87.32.34.48.34.8-.11.57-.34.79-.52.32-.87.32-.65-.11-.88-.32Zm1.9,1.01v6.7h-2.05v-6.7h2.05Z"/><path class="cls-3" d="m280.4,52.81c.28-.52.68-.92,1.19-1.2.51-.28,1.09-.42,1.75-.42.84,0,1.54.22,2.11.66s.93,1.06,1.11,1.86h-2.18c-.18-.51-.54-.77-1.07-.77-.38,0-.68.15-.9.44-.22.29-.34.71-.34,1.25s.11.96.34,1.25c.22.29.52.44.9.44.53,0,.88-.26,1.07-.77h2.18c-.18.78-.55,1.4-1.12,1.85-.57.45-1.27.67-2.1.67-.66,0-1.24-.14-1.75-.42-.51-.28-.9-.68-1.19-1.2s-.43-1.13-.43-1.82.14-1.3.43-1.82Z"/><path class="cls-3" d="m288.93,51.29l1.55,4.19,1.54-4.19h2.22l-4.2,9.88h-2.21l1.54-3.41-2.72-6.47h2.29Z"/><path class="cls-3" d="m297.73,52.81c.26-.52.61-.92,1.06-1.2.45-.28.95-.42,1.5-.42.47,0,.89.1,1.24.29.36.19.63.44.82.76v-.95h2.05v6.7h-2.05v-.95c-.2.31-.48.56-.83.76-.36.19-.77.29-1.24.29-.54,0-1.04-.14-1.49-.43-.45-.28-.8-.69-1.06-1.21s-.39-1.13-.39-1.82.13-1.29.39-1.81Zm4.2.61c-.28-.3-.63-.44-1.04-.44s-.75.15-1.04.44c-.29.29-.43.69-.43,1.21s.14.92.43,1.22c.28.3.63.45,1.04.45s.75-.15,1.04-.44c.28-.3.43-.7.43-1.21s-.14-.92-.43-1.21Z"/><path class="cls-3" d="m311.83,51.98c.47.51.7,1.21.7,2.09v3.91h-2.04v-3.64c0-.45-.12-.8-.35-1.04-.23-.25-.54-.37-.94-.37s-.7.12-.94.37c-.23.25-.35.6-.35,1.04v3.64h-2.05v-6.7h2.05v.89c.21-.3.49-.53.84-.7.35-.17.75-.26,1.19-.26.78,0,1.41.25,1.88.76Z"/><path class="cls-3" d="m313.96,52.81c.26-.52.61-.92,1.06-1.2.45-.28.95-.42,1.5-.42.44,0,.84.09,1.21.28.36.18.65.43.86.74v-3.11h2.05v8.88h-2.05v-.96c-.19.32-.47.58-.82.77-.36.19-.77.29-1.24.29-.55,0-1.05-.14-1.5-.43-.45-.28-.8-.69-1.06-1.21s-.39-1.13-.39-1.82.13-1.29.39-1.81Zm4.2.61c-.28-.3-.63-.44-1.04-.44s-.75.15-1.04.44c-.29.29-.43.69-.43,1.21s.14.92.43,1.22c.28.3.63.45,1.04.45s.75-.15,1.04-.44c.28-.3.43-.7.43-1.21s-.14-.92-.43-1.21Z"/><path class="cls-3" d="m218.7,65.88c.36-.19.77-.29,1.24-.29.55,0,1.05.14,1.5.42.45.28.8.68,1.06,1.2.26.52.39,1.12.39,1.81s-.13,1.29-.39,1.82c-.26.52-.61.93-1.06,1.21-.45.28-.95.43-1.5.43-.47,0-.88-.09-1.24-.28-.35-.19-.63-.44-.83-.75v.94h-2.05v-8.88h2.05v3.13c.19-.31.47-.56.83-.76Zm1.67,1.94c-.28-.29-.63-.44-1.05-.44s-.75.15-1.04.44c-.28.3-.43.7-.43,1.21s.14.92.43,1.21c.28.3.63.44,1.04.44s.76-.15,1.04-.45c.29-.3.43-.71.43-1.22s-.14-.91-.43-1.21Z"/><path class="cls-3" d="m230.27,69.51h-4.64c.03.42.16.75.4.97.23.22.52.34.88.34.51,0,.87-.22,1.07-.65h2.18c-.11.44-.31.84-.61,1.19-.29.35-.66.63-1.1.83s-.93.3-1.48.3c-.66,0-1.24-.14-1.75-.42-.51-.28-.91-.68-1.2-1.2-.29-.52-.43-1.13-.43-1.82s.14-1.3.43-1.82c.28-.52.68-.92,1.19-1.2.51-.28,1.1-.42,1.76-.42s1.22.14,1.73.41c.5.27.9.66,1.18,1.16s.43,1.09.43,1.75c0,.18-.01.38-.04.59Zm-2.06-1.04c0-.38-.12-.68-.36-.9-.24-.22-.54-.32-.9-.32s-.65.11-.88.32-.38.51-.44.91h2.58Z"/><path class="cls-3" d="m237.35,66.38c.47.51.7,1.21.7,2.09v3.91h-2.04v-3.64c0-.45-.12-.8-.35-1.04-.23-.25-.54-.37-.94-.37s-.7.12-.94.37-.35.6-.35,1.04v3.64h-2.05v-6.7h2.05v.89c.21-.3.49-.53.84-.7.35-.17.75-.26,1.19-.26.78,0,1.41.25,1.88.76Z"/><path class="cls-3" d="m245.74,69.51h-4.64c.03.42.16.75.4.97.23.22.52.34.88.34.51,0,.87-.22,1.07-.65h2.18c-.11.44-.31.84-.61,1.19-.29.35-.66.63-1.1.83s-.93.3-1.48.3c-.66,0-1.24-.14-1.75-.42-.51-.28-.91-.68-1.2-1.2-.29-.52-.43-1.13-.43-1.82s.14-1.3.43-1.82c.28-.52.68-.92,1.19-1.2.51-.28,1.1-.42,1.76-.42s1.22.14,1.73.41c.5.27.9.66,1.18,1.16s.43,1.09.43,1.75c0,.18-.01.38-.04.59Zm-2.06-1.04c0-.38-.12-.68-.36-.9-.24-.22-.54-.32-.9-.32s-.65.11-.88.32-.38.51-.44.91h2.58Z"/><path class="cls-3" d="m250.19,67.39h-1.1v4.99h-2.05v-4.99h-.74v-1.7h.74v-.19c0-.82.24-1.45.71-1.88.47-.43,1.16-.64,2.08-.64.15,0,.26,0,.34.01v1.74c-.39-.02-.67.03-.83.17-.16.14-.24.38-.24.73v.06h1.1v1.7Z"/><path class="cls-3" d="m251.24,64.68c-.23-.21-.34-.47-.34-.79s.11-.59.34-.8.52-.32.88-.32.64.11.87.32.34.48.34.8-.11.57-.34.79-.52.32-.87.32-.65-.11-.88-.32Zm1.9,1.01v6.7h-2.05v-6.7h2.05Z"/><path class="cls-3" d="m258.3,70.65v1.74h-1.04c-.74,0-1.32-.18-1.74-.55s-.62-.96-.62-1.78v-2.66h-.82v-1.7h.82v-1.63h2.05v1.63h1.34v1.7h-1.34v2.69c0,.2.05.34.14.43.1.09.26.13.48.13h.73Z"/><path class="cls-3" d="m262.19,67.21c.26-.52.61-.92,1.06-1.2.45-.28.95-.42,1.5-.42.44,0,.84.09,1.21.28.36.18.65.43.86.74v-3.11h2.05v8.88h-2.05v-.96c-.19.32-.47.58-.82.77-.36.19-.77.29-1.24.29-.55,0-1.05-.14-1.5-.43-.45-.28-.8-.69-1.06-1.21-.26-.52-.39-1.13-.39-1.82s.13-1.29.39-1.81Zm4.2.61c-.28-.3-.63-.44-1.04-.44s-.75.15-1.04.44c-.28.29-.43.69-.43,1.21s.14.92.43,1.22c.28.3.63.45,1.04.45s.75-.15,1.04-.44c.28-.3.43-.7.43-1.21s-.14-.92-.43-1.21Z"/><path class="cls-3" d="m270.37,67.21c.26-.52.61-.92,1.06-1.2.45-.28.95-.42,1.5-.42.47,0,.89.1,1.24.29s.63.44.82.76v-.95h2.05v6.7h-2.05v-.95c-.2.31-.48.56-.83.76-.36.19-.77.29-1.24.29-.54,0-1.04-.14-1.49-.43-.45-.28-.8-.69-1.06-1.21-.26-.52-.39-1.13-.39-1.82s.13-1.29.39-1.81Zm4.2.61c-.28-.3-.63-.44-1.04-.44s-.75.15-1.04.44c-.28.29-.43.69-.43,1.21s.14.92.43,1.22c.28.3.63.45,1.04.45s.75-.15,1.04-.44c.29-.3.43-.7.43-1.21s-.14-.92-.43-1.21Z"/><path class="cls-3" d="m282.26,70.65v1.74h-1.04c-.74,0-1.32-.18-1.74-.55s-.62-.96-.62-1.78v-2.66h-.82v-1.7h.82v-1.63h2.05v1.63h1.34v1.7h-1.34v2.69c0,.2.05.34.14.43s.26.13.48.13h.73Z"/><path class="cls-3" d="m283.36,67.21c.26-.52.61-.92,1.06-1.2s.95-.42,1.5-.42c.47,0,.89.1,1.24.29.36.19.63.44.82.76v-.95h2.05v6.7h-2.05v-.95c-.2.31-.48.56-.83.76-.36.19-.77.29-1.24.29-.54,0-1.04-.14-1.49-.43s-.8-.69-1.06-1.21c-.26-.52-.39-1.13-.39-1.82s.13-1.29.39-1.81Zm4.2.61c-.28-.3-.63-.44-1.04-.44s-.75.15-1.04.44c-.28.29-.43.69-.43,1.21s.14.92.43,1.22c.28.3.63.45,1.04.45s.75-.15,1.04-.44c.28-.3.43-.7.43-1.21s-.14-.92-.43-1.21Z"/><path class="cls-3" d="m298.03,70.65v1.74h-1.04c-.74,0-1.32-.18-1.74-.55s-.62-.96-.62-1.78v-2.66h-.82v-1.7h.82v-1.63h2.05v1.63h1.34v1.7h-1.34v2.69c0,.2.05.34.14.43s.26.13.48.13h.73Z"/><path class="cls-3" d="m300.39,72.06c-.52-.28-.94-.68-1.24-1.2-.3-.52-.45-1.13-.45-1.82s.15-1.29.46-1.82c.3-.52.72-.93,1.25-1.21s1.12-.42,1.78-.42,1.25.14,1.78.42c.53.28.94.68,1.25,1.21.3.52.46,1.13.46,1.82s-.15,1.29-.46,1.82c-.31.52-.73.93-1.26,1.21-.53.28-1.13.42-1.78.42s-1.25-.14-1.77-.42Zm2.77-1.78c.28-.29.41-.71.41-1.24s-.13-.95-.4-1.24c-.27-.29-.6-.44-.99-.44s-.73.14-1,.43-.4.7-.4,1.25.13.95.39,1.24c.26.29.59.44.98.44s.73-.15,1-.44Z"/><path class="cls-3" d="m309.55,67.21c.28-.52.68-.92,1.19-1.2.51-.28,1.09-.42,1.75-.42.84,0,1.54.22,2.11.66.56.44.93,1.06,1.11,1.86h-2.18c-.18-.51-.54-.77-1.07-.77-.38,0-.68.15-.9.44-.22.29-.34.71-.34,1.25s.11.96.34,1.25c.22.29.52.44.9.44.53,0,.88-.26,1.07-.77h2.18c-.18.78-.55,1.4-1.12,1.85s-1.27.67-2.1.67c-.66,0-1.24-.14-1.75-.42-.51-.28-.9-.68-1.19-1.2-.28-.52-.43-1.13-.43-1.82s.14-1.3.43-1.82Z"/><path class="cls-3" d="m316.75,67.21c.26-.52.61-.92,1.06-1.2.45-.28.95-.42,1.5-.42.47,0,.89.1,1.24.29s.63.44.82.76v-.95h2.05v6.7h-2.05v-.95c-.2.31-.48.56-.83.76-.36.19-.77.29-1.24.29-.54,0-1.04-.14-1.49-.43-.45-.28-.8-.69-1.06-1.21-.26-.52-.39-1.13-.39-1.82s.13-1.29.39-1.81Zm4.2.61c-.28-.3-.63-.44-1.04-.44s-.75.15-1.04.44c-.28.29-.43.69-.43,1.21s.14.92.43,1.22c.28.3.63.45,1.04.45s.75-.15,1.04-.44c.28-.3.43-.7.43-1.21s-.14-.92-.43-1.21Z"/><path class="cls-3" d="m326.04,72.18c-.46-.2-.82-.47-1.08-.82-.26-.35-.41-.74-.44-1.17h2.03c.02.25.13.45.32.59.19.15.43.22.71.22.26,0,.45-.05.59-.16.14-.1.21-.24.21-.42,0-.19-.1-.34-.3-.43-.2-.1-.53-.2-.98-.3-.48-.11-.88-.23-1.19-.35-.32-.12-.59-.31-.82-.58-.23-.27-.34-.63-.34-1.07,0-.39.11-.75.32-1.06.21-.32.52-.57.93-.76.41-.19.9-.28,1.46-.28.84,0,1.5.21,1.99.62s.76.97.83,1.66h-1.9c-.03-.25-.13-.44-.31-.58s-.4-.21-.68-.21c-.24,0-.42.05-.55.14s-.19.23-.19.41c0,.19.1.34.31.43.2.1.52.19.95.29.49.12.89.24,1.21.37.32.12.6.32.83.6.23.28.35.65.35,1.11,0,.39-.11.74-.32,1.06-.22.31-.53.56-.94.73s-.89.26-1.45.26-1.09-.1-1.55-.3Z"/><path class="cls-3" d="m337.78,69.51h-4.64c.03.42.16.75.4.97.23.22.52.34.88.34.51,0,.87-.22,1.07-.65h2.18c-.11.44-.31.84-.61,1.19-.29.35-.66.63-1.1.83s-.93.3-1.48.3c-.66,0-1.24-.14-1.75-.42-.51-.28-.91-.68-1.2-1.2-.29-.52-.43-1.13-.43-1.82s.14-1.3.43-1.82c.28-.52.68-.92,1.19-1.2.51-.28,1.1-.42,1.76-.42s1.22.14,1.73.41c.5.27.9.66,1.18,1.16.28.5.43,1.09.43,1.75,0,.18-.01.38-.04.59Zm-2.06-1.04c0-.38-.12-.68-.36-.9-.24-.22-.54-.32-.9-.32s-.65.11-.88.32-.38.51-.44.91h2.58Z"/><path class="cls-3" d="m408.62,55.4c.66.35,1.18.85,1.54,1.48.36.64.55,1.37.55,2.2s-.18,1.56-.55,2.2c-.36.64-.88,1.14-1.55,1.49-.67.35-1.44.53-2.32.53h-3.16v-8.42h3.16c.89,0,1.66.18,2.33.53Zm-.65,5.5c.43-.43.65-1.04.65-1.81s-.22-1.38-.65-1.81c-.43-.43-1.04-.65-1.81-.65h-.97v4.92h.97c.78,0,1.38-.22,1.81-.65Z"/><path class="cls-3" d="m413.2,62.98c-.52-.28-.94-.68-1.24-1.2-.3-.52-.45-1.13-.45-1.82s.15-1.29.46-1.82c.3-.52.72-.93,1.25-1.21.53-.28,1.12-.42,1.78-.42s1.25.14,1.78.42c.53.28.94.68,1.25,1.21.3.52.46,1.13.46,1.82s-.15,1.29-.46,1.82c-.31.52-.73.93-1.26,1.21-.53.28-1.13.42-1.78.42s-1.25-.14-1.77-.42Zm2.77-1.78c.28-.29.41-.71.41-1.24s-.13-.95-.4-1.24-.6-.44-.99-.44-.73.14-1,.43c-.26.29-.4.7-.4,1.25s.13.95.39,1.24.59.44.98.44.73-.15,1-.44Z"/><path class="cls-3" d="m419.58,58.13c.28-.52.68-.92,1.19-1.2.51-.28,1.09-.42,1.75-.42.84,0,1.54.22,2.11.66.56.44.93,1.06,1.11,1.86h-2.18c-.18-.51-.54-.77-1.07-.77-.38,0-.68.15-.9.44-.22.29-.34.71-.34,1.25s.11.96.34,1.25c.22.29.52.44.9.44.53,0,.88-.26,1.07-.77h2.18c-.18.78-.55,1.4-1.12,1.85-.57.45-1.27.67-2.1.67-.66,0-1.24-.14-1.75-.42-.51-.28-.9-.68-1.19-1.2-.28-.52-.43-1.13-.43-1.82s.14-1.3.43-1.82Z"/><path class="cls-3" d="m433.37,56.6v6.7h-2.05v-.91c-.21.3-.49.53-.85.71-.36.18-.75.27-1.18.27-.51,0-.96-.11-1.36-.34-.39-.23-.7-.56-.91-.99-.22-.43-.32-.94-.32-1.52v-3.91h2.04v3.64c0,.45.12.8.35,1.04.23.25.54.37.94.37s.72-.12.95-.37c.23-.25.35-.6.35-1.04v-3.64h2.05Z"/><path class="cls-3" d="m445.36,57.29c.49.5.74,1.2.74,2.1v3.91h-2.04v-3.64c0-.43-.11-.77-.34-1-.23-.24-.54-.35-.94-.35s-.71.12-.94.35c-.23.24-.34.57-.34,1v3.64h-2.04v-3.64c0-.43-.11-.77-.34-1-.23-.24-.54-.35-.94-.35s-.71.12-.94.35c-.23.24-.34.57-.34,1v3.64h-2.05v-6.7h2.05v.84c.21-.28.48-.5.82-.67s.72-.25,1.14-.25c.5,0,.95.11,1.35.32.4.22.71.52.93.92.23-.37.55-.67.95-.9.4-.23.84-.35,1.31-.35.83,0,1.49.25,1.99.76Z"/><path class="cls-3" d="m453.79,60.42h-4.64c.03.42.16.75.4.97.23.22.52.34.88.34.51,0,.87-.22,1.07-.65h2.18c-.11.44-.31.84-.61,1.19-.29.35-.66.63-1.1.83-.44.2-.93.3-1.48.3-.66,0-1.24-.14-1.75-.42-.51-.28-.91-.68-1.2-1.2s-.43-1.13-.43-1.82.14-1.3.43-1.82c.28-.52.68-.92,1.19-1.2.51-.28,1.1-.42,1.76-.42s1.22.14,1.73.41.9.66,1.18,1.16c.28.5.43,1.09.43,1.75,0,.18-.01.38-.04.59Zm-2.06-1.04c0-.38-.12-.68-.36-.9-.24-.22-.54-.32-.9-.32s-.65.11-.88.32c-.24.21-.38.51-.44.91h2.58Z"/><path class="cls-3" d="m460.87,57.29c.47.51.7,1.21.7,2.09v3.91h-2.04v-3.64c0-.45-.12-.8-.35-1.04-.23-.25-.54-.37-.94-.37s-.7.12-.94.37c-.23.25-.35.6-.35,1.04v3.64h-2.05v-6.7h2.05v.89c.21-.3.49-.53.84-.7.35-.17.75-.26,1.19-.26.78,0,1.41.25,1.88.76Z"/><path class="cls-3" d="m466.6,61.56v1.74h-1.04c-.74,0-1.32-.18-1.74-.55s-.62-.96-.62-1.78v-2.66h-.82v-1.7h.82v-1.63h2.05v1.63h1.34v1.7h-1.34v2.69c0,.2.05.34.14.43.1.09.26.13.48.13h.73Z"/><path class="cls-3" d="m468.86,63.1c-.46-.2-.82-.47-1.08-.82-.26-.35-.41-.74-.44-1.17h2.03c.02.25.13.45.32.59.19.15.43.22.71.22.26,0,.45-.05.59-.16.14-.1.21-.24.21-.42,0-.19-.1-.34-.3-.43-.2-.1-.53-.2-.98-.3-.48-.11-.88-.23-1.19-.35-.32-.12-.59-.31-.82-.58-.23-.27-.34-.63-.34-1.07,0-.39.11-.75.32-1.06.21-.32.52-.57.93-.76s.9-.28,1.46-.28c.84,0,1.5.21,1.99.62.48.42.76.97.83,1.66h-1.9c-.03-.25-.13-.44-.31-.58-.17-.14-.4-.21-.68-.21-.24,0-.42.05-.55.14-.13.1-.19.23-.19.41,0,.19.1.34.31.43.2.1.52.19.95.29.49.12.89.24,1.21.37s.6.32.83.6c.23.28.35.65.35,1.11,0,.39-.11.74-.32,1.06-.22.31-.53.56-.94.73s-.89.26-1.45.26-1.09-.1-1.55-.3Z"/><path class="cls-3" d="m39.26,154.41c-.24.44-.62.79-1.12,1.06-.5.27-1.13.4-1.87.4h-1.38v3.28h-2.22v-9.13h3.6c.73,0,1.34.13,1.85.38s.88.6,1.13,1.04.38.95.38,1.52c0,.53-.12,1.01-.36,1.45Zm-2.21-.59c.21-.21.31-.49.31-.86s-.1-.65-.31-.86-.52-.31-.95-.31h-1.21v2.34h1.21c.42,0,.74-.1.95-.31Z"/><path class="cls-3" d="m43.8,152.19c.39-.25.83-.37,1.29-.37v2.35h-.61c-.55,0-.97.12-1.25.36-.28.24-.42.66-.42,1.25v3.37h-2.22v-7.25h2.22v1.3c.26-.42.59-.76.98-1.01Z"/><path class="cls-3" d="m47.52,158.8c-.57-.3-1.01-.74-1.34-1.3-.33-.56-.49-1.22-.49-1.98s.16-1.4.49-1.97c.33-.57.78-1,1.35-1.31.57-.3,1.21-.46,1.92-.46s1.35.15,1.92.46c.57.3,1.02.74,1.35,1.31.33.57.49,1.22.49,1.97s-.17,1.4-.5,1.97c-.33.57-.79,1-1.36,1.31-.58.3-1.22.46-1.93.46s-1.35-.15-1.92-.46Zm3-1.93c.3-.32.45-.76.45-1.35s-.15-1.03-.44-1.35c-.29-.32-.65-.47-1.07-.47s-.79.16-1.08.47c-.29.31-.43.76-.43,1.35s.14,1.03.42,1.35c.28.32.63.47,1.06.47s.79-.16,1.09-.47Z"/><path class="cls-3" d="m57.36,157.07l1.57-5.17h2.38l-2.57,7.25h-2.76l-2.57-7.25h2.38l1.57,5.17Z"/><path class="cls-3" d="m62.31,150.8c-.25-.23-.37-.51-.37-.85s.12-.63.37-.86c.25-.23.57-.34.96-.34s.7.12.94.34c.25.23.37.52.37.86s-.12.62-.37.85c-.25.23-.56.34-.94.34s-.71-.11-.96-.34Zm2.06,1.1v7.25h-2.22v-7.25h2.22Z"/><path class="cls-3" d="m65.94,153.55c.28-.56.67-1,1.15-1.3s1.03-.46,1.62-.46c.48,0,.91.1,1.31.3.39.2.7.47.93.81v-3.37h2.22v9.62h-2.22v-1.04c-.21.35-.5.62-.89.83-.39.21-.83.31-1.35.31-.6,0-1.14-.15-1.62-.46s-.87-.75-1.15-1.31c-.28-.57-.42-1.22-.42-1.97s.14-1.4.42-1.96Zm4.55.66c-.31-.32-.68-.48-1.12-.48s-.82.16-1.12.47-.46.75-.46,1.31.15.99.46,1.32c.31.32.68.49,1.12.49s.82-.16,1.12-.48.46-.76.46-1.31-.15-.99-.46-1.31Z"/><path class="cls-3" d="m81.58,156.03h-5.03c.03.46.18.81.43,1.05s.57.36.95.36c.55,0,.94-.23,1.16-.7h2.37c-.12.48-.34.91-.66,1.29-.32.38-.71.68-1.19.9-.48.22-1.01.33-1.6.33-.71,0-1.34-.15-1.9-.46-.55-.3-.99-.74-1.3-1.3s-.47-1.22-.47-1.98.15-1.41.46-1.98c.31-.56.74-1,1.29-1.3.55-.3,1.19-.46,1.91-.46s1.33.15,1.87.44c.55.29.97.71,1.28,1.26.31.55.46,1.18.46,1.9,0,.2-.01.41-.04.64Zm-2.24-1.13c0-.42-.13-.74-.39-.98s-.58-.35-.98-.35-.7.12-.96.34c-.26.23-.41.56-.47.98h2.79Z"/><path class="cls-3" d="m85.99,152.19c.39-.25.83-.37,1.29-.37v2.35h-.61c-.55,0-.97.12-1.25.36-.28.24-.42.66-.42,1.25v3.37h-2.22v-7.25h2.22v1.3c.26-.42.59-.76.98-1.01Z"/><path class="cls-3" d="m99.51,159.15h-2.22l-3.72-5.63v5.63h-2.22v-9.13h2.22l3.72,5.65v-5.65h2.22v9.13Z"/><path class="cls-3" d="m101.23,153.55c.28-.56.67-1,1.15-1.3s1.03-.46,1.62-.46c.51,0,.96.1,1.35.31.39.21.68.48.89.82v-1.03h2.22v7.25h-2.22v-1.03c-.22.34-.52.61-.9.82s-.83.31-1.35.31c-.59,0-1.13-.15-1.61-.46s-.87-.75-1.15-1.31c-.28-.57-.42-1.22-.42-1.97s.14-1.4.42-1.96Zm4.55.66c-.31-.32-.68-.48-1.12-.48s-.82.16-1.12.47-.46.75-.46,1.31.15.99.46,1.32c.31.32.68.49,1.12.49s.82-.16,1.12-.48.46-.76.46-1.31-.15-.99-.46-1.31Z"/><path class="cls-3" d="m121.45,152.64c.53.55.8,1.3.8,2.28v4.24h-2.21v-3.94c0-.47-.12-.83-.37-1.09s-.59-.38-1.02-.38-.77.13-1.02.38-.37.62-.37,1.09v3.94h-2.21v-3.94c0-.47-.12-.83-.37-1.09s-.59-.38-1.02-.38-.77.13-1.02.38-.37.62-.37,1.09v3.94h-2.22v-7.25h2.22v.91c.23-.3.52-.54.88-.72.36-.18.78-.27,1.23-.27.55,0,1.03.12,1.46.35.43.23.77.57,1.01,1,.25-.4.59-.72,1.03-.98.43-.25.91-.38,1.42-.38.9,0,1.62.27,2.15.82Z"/><path class="cls-3" d="m130.59,156.03h-5.03c.03.46.18.81.43,1.05s.57.36.95.36c.55,0,.94-.23,1.16-.7h2.37c-.12.48-.34.91-.66,1.29-.32.38-.71.68-1.19.9-.48.22-1.01.33-1.6.33-.71,0-1.34-.15-1.9-.46-.55-.3-.99-.74-1.3-1.3s-.47-1.22-.47-1.98.15-1.41.46-1.98c.31-.56.74-1,1.29-1.3.55-.3,1.19-.46,1.91-.46s1.33.15,1.87.44c.55.29.97.71,1.28,1.26.31.55.46,1.18.46,1.9,0,.2-.01.41-.04.64Zm-2.24-1.13c0-.42-.13-.74-.39-.98s-.58-.35-.98-.35-.7.12-.96.34c-.26.23-.41.56-.47.98h2.79Z"/><path class="cls-8" d="m33.54,173.45h2.44v.7h-3.35v-6.97h.91v6.27Z"/><path class="cls-8" d="m41.85,171.72h-4.38c.03.54.21.97.54,1.28.34.31.75.47,1.24.47.39,0,.72-.09.98-.28.26-.18.45-.43.56-.74h.98c-.15.53-.44.96-.88,1.29-.44.33-.99.5-1.64.5-.52,0-.99-.12-1.4-.35-.41-.23-.73-.57-.97-1s-.35-.93-.35-1.5.11-1.06.34-1.49.54-.75.96-.98c.41-.23.88-.35,1.42-.35s.98.11,1.38.34c.4.23.71.54.92.93.22.39.33.84.33,1.33,0,.17-.01.35-.03.54Zm-1.14-1.58c-.15-.26-.36-.45-.62-.58-.26-.13-.56-.2-.88-.2-.47,0-.86.15-1.19.46-.33.3-.51.72-.54,1.25h3.46c0-.36-.08-.67-.23-.92Z"/><path class="cls-8" d="m46.67,168.89c.36.21.62.47.79.78v-1h.92v5.6c0,.5-.11.95-.32,1.33s-.52.7-.92.92-.86.33-1.38.33c-.72,0-1.32-.17-1.8-.51-.48-.34-.76-.8-.85-1.39h.9c.1.33.31.6.62.81.31.2.69.3,1.13.3.5,0,.91-.16,1.23-.47.32-.31.47-.75.47-1.32v-1.15c-.18.32-.45.59-.8.8-.35.21-.77.32-1.24.32s-.93-.12-1.32-.36c-.4-.24-.71-.58-.94-1.01-.23-.43-.34-.93-.34-1.48s.11-1.05.34-1.48c.23-.42.54-.75.94-.98.4-.23.84-.35,1.32-.35s.89.1,1.25.31Zm.54,1.43c-.17-.31-.39-.54-.67-.71-.28-.16-.6-.25-.94-.25s-.65.08-.93.24c-.28.16-.5.39-.67.7s-.25.67-.25,1.08.08.79.25,1.09.39.55.67.71c.28.16.59.25.93.25s.65-.08.94-.25c.28-.16.51-.4.67-.71s.25-.67.25-1.08-.08-.77-.25-1.08Z"/><path class="cls-8" d="m49.99,169.91c.23-.42.54-.75.94-.98.4-.23.84-.35,1.32-.35s.9.1,1.25.31c.35.21.62.47.79.78v-1h.92v5.48h-.92v-1.02c-.18.32-.45.59-.8.8-.36.21-.77.31-1.25.31s-.93-.12-1.32-.36c-.39-.24-.7-.58-.93-1.01-.23-.43-.34-.93-.34-1.48s.11-1.05.34-1.48Zm4.05.41c-.17-.31-.39-.54-.67-.71-.28-.16-.6-.25-.94-.25s-.65.08-.93.24c-.28.16-.5.39-.67.7s-.25.67-.25,1.08.08.79.25,1.09.39.55.67.71c.28.16.59.25.93.25s.65-.08.94-.25c.28-.16.51-.4.67-.71s.25-.67.25-1.08-.08-.77-.25-1.08Z"/><path class="cls-8" d="m57.69,166.75v7.4h-.91v-7.4h.91Z"/><path class="cls-8" d="m67.01,174.15l-1.16-1.44c-.1.44-.33.8-.69,1.09-.36.29-.79.43-1.27.43-.37,0-.72-.09-1.04-.26-.32-.18-.57-.42-.75-.74-.19-.32-.28-.68-.28-1.08s.09-.75.26-1.06.41-.54.7-.71c.29-.17.61-.25.96-.25h.08l-.1-.11c-.24-.3-.42-.57-.53-.8-.11-.24-.17-.49-.17-.75,0-.28.07-.54.21-.79.14-.25.35-.45.62-.6s.59-.23.96-.23.72.08,1,.22c.28.15.48.35.62.6.14.25.21.51.21.78,0,.15-.02.3-.07.45h-.9c.04-.1.06-.22.06-.36,0-.27-.08-.5-.25-.67-.17-.17-.39-.25-.67-.25s-.48.08-.64.25c-.16.17-.24.37-.24.61,0,.17.03.33.1.49.07.15.18.33.34.52l3.73,4.69h-1.09Zm-2.23-1.06c.24-.25.36-.56.36-.93,0-.25-.06-.47-.18-.68-.12-.21-.28-.37-.47-.48-.2-.12-.41-.18-.64-.18-.35,0-.64.12-.87.36s-.35.55-.35.94.12.71.37.96c.25.25.55.38.9.38s.64-.13.88-.38Z"/><path class="cls-8" d="m72.08,168.82c.31-.54.73-.97,1.27-1.27.53-.3,1.12-.46,1.77-.46.74,0,1.4.18,1.96.55.57.37.98.88,1.25,1.55h-1.09c-.19-.41-.47-.72-.84-.94-.37-.22-.79-.34-1.28-.34s-.93.11-1.31.34c-.39.22-.7.54-.92.96-.22.42-.33.9-.33,1.44s.11,1.03.33,1.44c.22.41.53.73.92.96.39.22.83.34,1.31.34.69,0,1.25-.21,1.69-.62s.69-.96.76-1.67h-2.78v-.72h3.75v.7c-.05.57-.23,1.1-.54,1.57-.31.48-.71.85-1.21,1.13-.5.28-1.06.42-1.67.42-.65,0-1.24-.15-1.77-.45-.53-.3-.96-.73-1.27-1.27s-.46-1.15-.46-1.83.15-1.29.46-1.83Z"/><path class="cls-8" d="m84.82,171.72h-4.38c.03.54.21.97.54,1.28.34.31.75.47,1.24.47.39,0,.72-.09.98-.28.26-.18.45-.43.56-.74h.98c-.15.53-.44.96-.88,1.29-.44.33-.99.5-1.64.5-.52,0-.99-.12-1.4-.35-.41-.23-.73-.57-.97-1s-.35-.93-.35-1.5.11-1.06.34-1.49.54-.75.96-.98c.41-.23.88-.35,1.42-.35s.98.11,1.38.34c.4.23.71.54.92.93.22.39.33.84.33,1.33,0,.17-.01.35-.03.54Zm-1.14-1.58c-.15-.26-.36-.45-.62-.58-.26-.13-.56-.2-.88-.2-.47,0-.86.15-1.19.46-.33.3-.51.72-.54,1.25h3.46c0-.36-.08-.67-.23-.92Z"/><path class="cls-8" d="m90.4,169.17c.41.4.62.98.62,1.74v3.23h-.9v-3.1c0-.55-.14-.97-.41-1.26-.27-.29-.65-.43-1.12-.43s-.86.15-1.15.45-.42.74-.42,1.31v3.03h-.91v-5.48h.91v.78c.18-.28.42-.5.73-.65s.65-.23,1.02-.23c.67,0,1.21.2,1.62.61Z"/><path class="cls-8" d="m97.54,171.72h-4.38c.03.54.21.97.54,1.28.34.31.75.47,1.24.47.39,0,.72-.09.98-.28.26-.18.45-.43.56-.74h.98c-.15.53-.44.96-.88,1.29-.44.33-.99.5-1.64.5-.52,0-.99-.12-1.4-.35-.41-.23-.73-.57-.97-1s-.35-.93-.35-1.5.11-1.06.34-1.49.54-.75.96-.98c.41-.23.88-.35,1.42-.35s.98.11,1.38.34c.4.23.71.54.92.93.22.39.33.84.33,1.33,0,.17-.01.35-.03.54Zm-1.14-1.58c-.15-.26-.36-.45-.62-.58-.26-.13-.56-.2-.88-.2-.47,0-.86.15-1.19.46-.33.3-.51.72-.54,1.25h3.46c0-.36-.08-.67-.23-.92Z"/><path class="cls-8" d="m100.43,168.87c.3-.2.66-.3,1.08-.3v.94h-.24c-1.02,0-1.53.55-1.53,1.66v2.98h-.91v-5.48h.91v1.04c.16-.36.39-.64.69-.84Z"/><path class="cls-8" d="m102.48,169.91c.23-.42.54-.75.94-.98.4-.23.84-.35,1.32-.35s.9.1,1.25.31c.35.21.62.47.79.78v-1h.92v5.48h-.92v-1.02c-.18.32-.45.59-.8.8-.36.21-.77.31-1.25.31s-.93-.12-1.32-.36c-.39-.24-.7-.58-.93-1.01-.23-.43-.34-.93-.34-1.48s.11-1.05.34-1.48Zm4.05.41c-.17-.31-.39-.54-.67-.71-.28-.16-.6-.25-.94-.25s-.65.08-.93.24c-.28.16-.5.39-.67.7s-.25.67-.25,1.08.08.79.25,1.09.39.55.67.71c.28.16.59.25.93.25s.65-.08.94-.25c.28-.16.51-.4.67-.71s.25-.67.25-1.08-.08-.77-.25-1.08Z"/><path class="cls-8" d="m110.19,166.75v7.4h-.91v-7.4h.91Z"/><path class="cls-3" d="m39.26,196.08c-.24.44-.62.79-1.12,1.06-.5.27-1.13.4-1.87.4h-1.38v3.28h-2.22v-9.13h3.6c.73,0,1.34.13,1.85.38.5.25.88.6,1.13,1.04.25.44.38.95.38,1.52,0,.53-.12,1.01-.36,1.45Zm-2.21-.59c.21-.21.31-.49.31-.86s-.1-.65-.31-.86-.52-.31-.95-.31h-1.21v2.34h1.21c.42,0,.74-.1.95-.31Z"/><path class="cls-3" d="m43.8,193.86c.39-.25.83-.37,1.29-.37v2.35h-.61c-.55,0-.97.12-1.25.36s-.42.66-.42,1.25v3.37h-2.22v-7.25h2.22v1.3c.26-.42.59-.76.98-1.01Z"/><path class="cls-3" d="m52.94,197.7h-5.03c.03.46.18.81.43,1.05.25.24.57.36.95.36.55,0,.94-.23,1.16-.7h2.37c-.12.48-.34.91-.66,1.29-.32.38-.71.68-1.19.9s-1.01.33-1.6.33c-.71,0-1.34-.15-1.9-.46s-.99-.74-1.3-1.3-.47-1.22-.47-1.98.15-1.41.46-1.98c.31-.56.74-1,1.29-1.3.55-.3,1.19-.46,1.91-.46s1.33.15,1.87.44c.55.29.97.71,1.28,1.26.31.55.46,1.18.46,1.9,0,.2-.01.41-.04.64Zm-2.24-1.13c0-.42-.13-.74-.39-.97-.26-.23-.58-.35-.98-.35s-.7.12-.96.34c-.26.23-.41.56-.47.98h2.79Z"/><path class="cls-3" d="m65.55,194.31c.53.55.8,1.3.8,2.28v4.24h-2.21v-3.94c0-.47-.12-.83-.37-1.09s-.59-.38-1.02-.38-.77.13-1.02.38-.37.62-.37,1.09v3.94h-2.21v-3.94c0-.47-.12-.83-.37-1.09s-.59-.38-1.02-.38-.77.13-1.02.38-.37.62-.37,1.09v3.94h-2.22v-7.25h2.22v.91c.23-.3.52-.54.88-.72.36-.18.78-.27,1.23-.27.55,0,1.03.12,1.46.35.43.23.77.57,1.01,1,.25-.4.59-.72,1.03-.98.43-.25.91-.38,1.42-.38.9,0,1.62.27,2.15.82Z"/><path class="cls-3" d="m68.01,192.47c-.25-.23-.37-.51-.37-.85s.12-.63.37-.86c.25-.23.57-.34.96-.34s.7.12.94.34c.25.23.37.52.37.86s-.12.62-.37.85c-.25.23-.56.34-.94.34s-.71-.11-.96-.34Zm2.06,1.1v7.25h-2.22v-7.25h2.22Z"/><path class="cls-3" d="m78.78,193.57v7.25h-2.22v-.99c-.23.32-.53.58-.92.77-.39.19-.81.29-1.28.29-.55,0-1.04-.12-1.47-.37-.42-.25-.75-.6-.99-1.07s-.35-1.02-.35-1.65v-4.24h2.21v3.94c0,.49.13.86.38,1.13.25.27.59.4,1.01.4s.78-.13,1.03-.4c.25-.27.38-.65.38-1.13v-3.94h2.22Z"/><path class="cls-3" d="m91.76,194.31c.53.55.8,1.3.8,2.28v4.24h-2.21v-3.94c0-.47-.12-.83-.37-1.09s-.59-.38-1.02-.38-.77.13-1.02.38-.37.62-.37,1.09v3.94h-2.21v-3.94c0-.47-.12-.83-.37-1.09s-.59-.38-1.02-.38-.77.13-1.02.38-.37.62-.37,1.09v3.94h-2.22v-7.25h2.22v.91c.23-.3.52-.54.88-.72.36-.18.78-.27,1.23-.27.55,0,1.03.12,1.46.35.43.23.77.57,1.01,1,.25-.4.59-.72,1.03-.98.43-.25.91-.38,1.42-.38.9,0,1.62.27,2.15.82Z"/><path class="cls-8" d="m37.31,215.08v.76h-4.46l-.16-.52c.28-.31.49-.61.62-.9.14-.29.21-.64.21-1.06,0-.17-.03-.38-.09-.62h-1.13v-.64h.91c-.09-.23-.15-.46-.2-.67-.05-.21-.07-.44-.07-.7,0-.43.09-.8.27-1.12.18-.32.44-.56.77-.73.33-.17.71-.26,1.13-.26.68,0,1.2.2,1.57.59.37.39.56.89.59,1.49h-.84c-.01-.39-.13-.71-.35-.95-.22-.24-.54-.36-.97-.36-.39,0-.7.11-.94.34s-.36.57-.36,1.04c0,.22.02.43.07.62.05.2.12.43.21.7h1.94v.64h-1.74c.06.24.09.45.09.62,0,.63-.24,1.21-.71,1.72h3.64Z"/><path class="cls-8" d="m40.45,213.42c.48-.43.88-.88,1.21-1.35s.5-.93.5-1.38c0-.41-.11-.75-.32-1s-.55-.38-1.01-.38-.8.14-1.05.42-.39.66-.41,1.13h-.88c.03-.75.25-1.32.68-1.73.43-.41.98-.61,1.65-.61s1.23.19,1.63.57.6.89.6,1.54c0,.53-.17,1.06-.49,1.58-.33.52-.71.97-1.12,1.37-.42.39-.96.85-1.61,1.38h3.44v.76h-4.81v-.65c.85-.68,1.51-1.24,1.99-1.67Z"/><path class="cls-8" d="m46.25,213.42c.48-.43.88-.88,1.21-1.35s.5-.93.5-1.38c0-.41-.11-.75-.32-1s-.55-.38-1.01-.38-.8.14-1.05.42-.39.66-.41,1.13h-.88c.03-.75.25-1.32.68-1.73.43-.41.98-.61,1.65-.61s1.23.19,1.63.57.6.89.6,1.54c0,.53-.17,1.06-.49,1.58-.33.52-.71.97-1.12,1.37-.42.39-.96.85-1.61,1.38h3.44v.76h-4.81v-.65c.85-.68,1.51-1.24,1.99-1.67Z"/><path class="cls-8" d="m50.4,215.7c-.12-.12-.18-.27-.18-.44s.06-.32.18-.44.27-.18.44-.18.31.06.42.18.18.27.18.44-.06.32-.18.44-.26.18-.42.18-.32-.06-.44-.18Z"/><path class="cls-8" d="m52.22,209.56v-.83h1.88v7.09h-.92v-6.26h-.96Z"/><path class="cls-8" d="m60.24,209.38h-3.51v2.28c.15-.21.38-.39.68-.52.3-.14.62-.21.97-.21.55,0,1,.11,1.35.34.35.23.59.53.74.89.15.36.23.75.23,1.16,0,.48-.09.91-.27,1.29-.18.38-.46.68-.82.9-.37.22-.83.33-1.38.33-.7,0-1.27-.18-1.7-.54-.43-.36-.7-.84-.79-1.44h.89c.09.38.27.68.55.89.28.21.63.32,1.06.32.53,0,.92-.16,1.19-.47.27-.32.4-.74.4-1.26s-.13-.92-.4-1.2c-.27-.28-.66-.43-1.18-.43-.35,0-.66.08-.93.25-.26.17-.46.4-.57.7h-.86v-4.08h4.35v.8Z"/><path class="cls-3" d="m32.88,235.51c.39-.71.93-1.26,1.63-1.65s1.49-.59,2.37-.59c1.08,0,2.01.29,2.78.86s1.29,1.35,1.55,2.34h-2.44c-.19-.37-.45-.66-.78-.85-.33-.2-.71-.29-1.13-.29-.69,0-1.24.24-1.66.71-.42.47-.64,1.1-.64,1.89s.21,1.42.64,1.9c.42.48.98.72,1.66.72.42,0,.8-.1,1.13-.3.33-.2.59-.48.78-.86h2.44c-.26.99-.78,1.77-1.55,2.33-.77.57-1.7.85-2.78.85-.88,0-1.67-.2-2.37-.59s-1.24-.94-1.63-1.64c-.39-.7-.58-1.5-.58-2.41s.19-1.71.58-2.41Z"/><path class="cls-3" d="m43.89,242.15c-.57-.3-1.01-.74-1.34-1.3-.33-.56-.49-1.22-.49-1.98s.16-1.4.49-1.97.78-1,1.35-1.31c.57-.3,1.21-.46,1.92-.46s1.35.15,1.92.46c.57.3,1.02.74,1.35,1.31.33.57.49,1.22.49,1.97s-.17,1.4-.5,1.97c-.33.57-.79,1-1.36,1.31-.58.3-1.22.46-1.93.46s-1.35-.15-1.92-.46Zm3-1.93c.3-.32.45-.76.45-1.34s-.15-1.03-.44-1.35c-.29-.32-.65-.47-1.07-.47s-.79.16-1.08.47c-.29.31-.43.76-.43,1.35s.14,1.03.42,1.34c.28.32.63.47,1.06.47s.79-.16,1.09-.47Z"/><path class="cls-3" d="m62.17,235.98c.53.55.8,1.3.8,2.28v4.24h-2.21v-3.94c0-.47-.12-.83-.37-1.08s-.59-.38-1.02-.38-.77.13-1.02.38-.37.62-.37,1.08v3.94h-2.21v-3.94c0-.47-.12-.83-.37-1.08s-.59-.38-1.02-.38-.77.13-1.02.38-.37.62-.37,1.08v3.94h-2.22v-7.25h2.22v.91c.23-.3.52-.54.88-.72.36-.18.78-.27,1.23-.27.55,0,1.03.12,1.46.35.43.23.77.57,1.01,1,.25-.4.59-.72,1.03-.97.43-.25.91-.38,1.42-.38.9,0,1.62.27,2.15.82Z"/><path class="cls-3" d="m75.91,235.98c.53.55.8,1.3.8,2.28v4.24h-2.21v-3.94c0-.47-.12-.83-.37-1.08s-.59-.38-1.02-.38-.77.13-1.02.38-.37.62-.37,1.08v3.94h-2.21v-3.94c0-.47-.12-.83-.37-1.08s-.59-.38-1.02-.38-.77.13-1.02.38-.37.62-.37,1.08v3.94h-2.22v-7.25h2.22v.91c.23-.3.52-.54.88-.72.36-.18.78-.27,1.23-.27.55,0,1.03.12,1.46.35.43.23.77.57,1.01,1,.25-.4.59-.72,1.03-.97.43-.25.91-.38,1.42-.38.9,0,1.62.27,2.15.82Z"/><path class="cls-3" d="m78.36,234.15c-.25-.23-.37-.51-.37-.85s.12-.63.37-.86c.25-.23.57-.34.96-.34s.7.12.94.34c.25.23.37.52.37.86s-.12.62-.37.85c-.25.23-.56.34-.94.34s-.71-.12-.96-.34Zm2.06,1.1v7.25h-2.22v-7.25h2.22Z"/><path class="cls-3" d="m83.21,242.28c-.49-.22-.88-.51-1.17-.89s-.45-.8-.48-1.27h2.2c.03.27.14.48.34.64.2.16.46.24.77.24.28,0,.49-.06.64-.17.15-.11.23-.26.23-.46,0-.21-.11-.36-.33-.47-.22-.1-.57-.21-1.07-.33-.52-.12-.95-.25-1.29-.38s-.64-.34-.88-.63c-.25-.29-.37-.68-.37-1.16,0-.42.11-.81.34-1.15.23-.34.57-.62,1.01-.82.44-.2.97-.31,1.59-.31.91,0,1.63.23,2.15.68.52.45.83,1.05.9,1.79h-2.05c-.03-.27-.15-.48-.33-.63-.19-.15-.43-.23-.73-.23-.26,0-.46.05-.6.16-.14.1-.21.25-.21.44,0,.21.11.36.33.47.22.1.57.21,1.03.31.53.13.97.26,1.31.4.35.13.65.35.9.65.25.3.38.7.38,1.2,0,.42-.12.81-.35,1.14s-.57.6-1.02.79-.97.29-1.57.29-1.18-.11-1.68-.33Z"/><path class="cls-3" d="m90.37,242.28c-.49-.22-.88-.51-1.17-.89s-.45-.8-.48-1.27h2.2c.03.27.14.48.34.64.2.16.46.24.77.24.28,0,.49-.06.64-.17.15-.11.23-.26.23-.46,0-.21-.11-.36-.33-.47-.22-.1-.57-.21-1.07-.33-.52-.12-.95-.25-1.29-.38s-.64-.34-.88-.63c-.25-.29-.37-.68-.37-1.16,0-.42.11-.81.34-1.15.23-.34.57-.62,1.01-.82.44-.2.97-.31,1.59-.31.91,0,1.63.23,2.15.68.52.45.83,1.05.9,1.79h-2.05c-.03-.27-.15-.48-.33-.63-.19-.15-.43-.23-.73-.23-.26,0-.46.05-.6.16-.14.1-.21.25-.21.44,0,.21.11.36.33.47.22.1.57.21,1.03.31.53.13.97.26,1.31.4.35.13.65.35.9.65.25.3.38.7.38,1.2,0,.42-.12.81-.35,1.14s-.57.6-1.02.79-.97.29-1.57.29-1.18-.11-1.68-.33Z"/><path class="cls-3" d="m96.44,234.15c-.25-.23-.37-.51-.37-.85s.12-.63.37-.86c.25-.23.57-.34.96-.34s.7.12.94.34c.25.23.37.52.37.86s-.12.62-.37.85c-.25.23-.56.34-.94.34s-.71-.12-.96-.34Zm2.06,1.1v7.25h-2.22v-7.25h2.22Z"/><path class="cls-3" d="m101.45,242.15c-.57-.3-1.01-.74-1.34-1.3-.33-.56-.49-1.22-.49-1.98s.16-1.4.49-1.97.78-1,1.35-1.31c.57-.3,1.21-.46,1.92-.46s1.35.15,1.92.46c.57.3,1.02.74,1.35,1.31.33.57.49,1.22.49,1.97s-.17,1.4-.5,1.97c-.33.57-.79,1-1.36,1.31-.58.3-1.22.46-1.93.46s-1.35-.15-1.92-.46Zm3-1.93c.3-.32.45-.76.45-1.34s-.15-1.03-.44-1.35c-.29-.32-.65-.47-1.07-.47s-.79.16-1.08.47c-.29.31-.43.76-.43,1.35s.14,1.03.42,1.34c.28.32.63.47,1.06.47s.79-.16,1.09-.47Z"/><path class="cls-3" d="m114.77,235.99c.51.55.76,1.31.76,2.27v4.24h-2.21v-3.94c0-.49-.13-.86-.38-1.13-.25-.27-.59-.4-1.01-.4s-.76.13-1.01.4-.38.65-.38,1.13v3.94h-2.22v-7.25h2.22v.96c.23-.32.53-.57.91-.76s.81-.28,1.29-.28c.85,0,1.53.28,2.03.83Z"/><path class="cls-3" d="m125.76,240.89h-3.41l-.55,1.61h-2.33l3.3-9.13h2.57l3.3,9.13h-2.35l-.55-1.61Zm-.56-1.69l-1.14-3.37-1.13,3.37h2.28Z"/><path class="cls-3" d="m140.97,235.98c.53.55.8,1.3.8,2.28v4.24h-2.21v-3.94c0-.47-.12-.83-.37-1.08s-.59-.38-1.02-.38-.77.13-1.02.38-.37.62-.37,1.08v3.94h-2.21v-3.94c0-.47-.12-.83-.37-1.08s-.59-.38-1.02-.38-.77.13-1.02.38-.37.62-.37,1.08v3.94h-2.22v-7.25h2.22v.91c.23-.3.52-.54.88-.72.36-.18.78-.27,1.23-.27.55,0,1.03.12,1.46.35.43.23.77.57,1.01,1,.25-.4.59-.72,1.03-.97.43-.25.91-.38,1.42-.38.9,0,1.62.27,2.15.82Z"/><path class="cls-3" d="m144.69,242.15c-.57-.3-1.01-.74-1.34-1.3-.33-.56-.49-1.22-.49-1.98s.16-1.4.49-1.97.78-1,1.35-1.31c.57-.3,1.21-.46,1.92-.46s1.35.15,1.92.46c.57.3,1.02.74,1.35,1.31.33.57.49,1.22.49,1.97s-.17,1.4-.5,1.97c-.33.57-.79,1-1.36,1.31-.58.3-1.22.46-1.93.46s-1.35-.15-1.92-.46Zm3-1.93c.3-.32.45-.76.45-1.34s-.15-1.03-.44-1.35c-.29-.32-.65-.47-1.07-.47s-.79.16-1.08.47c-.29.31-.43.76-.43,1.35s.14,1.03.42,1.34c.28.32.63.47,1.06.47s.79-.16,1.09-.47Z"/><path class="cls-3" d="m158.71,235.24v7.25h-2.22v-.99c-.23.32-.53.58-.92.77-.39.2-.81.29-1.28.29-.55,0-1.04-.12-1.47-.37-.42-.25-.75-.6-.99-1.07-.23-.47-.35-1.02-.35-1.65v-4.24h2.21v3.94c0,.49.13.86.38,1.13.25.27.59.4,1.01.4s.78-.13,1.03-.4c.25-.27.38-.65.38-1.13v-3.94h2.22Z"/><path class="cls-3" d="m166.73,235.99c.51.55.76,1.31.76,2.27v4.24h-2.21v-3.94c0-.49-.13-.86-.38-1.13-.25-.27-.59-.4-1.01-.4s-.76.13-1.01.4-.38.65-.38,1.13v3.94h-2.22v-7.25h2.22v.96c.23-.32.53-.57.91-.76s.81-.28,1.29-.28c.85,0,1.53.28,2.03.83Z"/><path class="cls-3" d="m172.94,240.61v1.88h-1.13c-.81,0-1.43-.2-1.88-.59s-.68-1.04-.68-1.93v-2.89h-.88v-1.85h.88v-1.77h2.22v1.77h1.46v1.85h-1.46v2.91c0,.22.05.37.16.47.1.1.28.14.52.14h.79Z"/><path class="cls-8" d="m37.31,256.76v.76h-4.46l-.16-.52c.28-.31.49-.61.62-.9.14-.29.21-.64.21-1.06,0-.17-.03-.38-.09-.62h-1.13v-.64h.91c-.09-.23-.15-.46-.2-.67-.05-.21-.07-.44-.07-.7,0-.43.09-.8.27-1.12.18-.32.44-.56.77-.73.33-.17.71-.26,1.13-.26.68,0,1.2.2,1.57.59.37.39.56.89.59,1.49h-.84c-.01-.39-.13-.71-.35-.95-.22-.24-.54-.36-.97-.36-.39,0-.7.11-.94.34s-.36.57-.36,1.04c0,.22.02.43.07.62.05.2.12.43.21.7h1.94v.64h-1.74c.06.24.09.45.09.62,0,.63-.24,1.21-.71,1.72h3.64Z"/><path class="cls-8" d="m43,251.06h-3.51v2.28c.15-.21.38-.39.68-.52.3-.14.62-.21.97-.21.55,0,1,.11,1.35.34.35.23.59.53.74.89.15.36.23.75.23,1.16,0,.48-.09.91-.27,1.29-.18.38-.46.68-.82.9-.37.22-.83.33-1.38.33-.7,0-1.27-.18-1.7-.54-.43-.36-.7-.84-.79-1.44h.89c.09.38.27.68.55.89.28.21.63.32,1.06.32.53,0,.92-.16,1.19-.47.27-.32.4-.74.4-1.26s-.13-.92-.4-1.2c-.27-.28-.66-.43-1.18-.43-.35,0-.66.08-.93.25-.26.17-.46.4-.57.7h-.86v-4.08h4.35v.8Z"/><path class="cls-8" d="m46.08,256.44c.24.21.57.31.99.31.55,0,.96-.22,1.22-.65.26-.43.39-1.16.38-2.19-.14.3-.37.54-.7.71s-.69.25-1.09.25c-.45,0-.84-.09-1.19-.28-.35-.18-.62-.45-.83-.8-.2-.35-.3-.78-.3-1.28,0-.71.21-1.29.62-1.72.41-.44,1-.66,1.76-.66.93,0,1.59.3,1.97.91.38.61.56,1.51.56,2.71,0,.84-.08,1.53-.23,2.08s-.4.96-.76,1.25c-.36.29-.84.43-1.46.43-.68,0-1.21-.18-1.59-.55-.38-.37-.6-.83-.65-1.4h.84c.07.38.22.67.46.88Zm2.04-2.76c.29-.28.43-.65.43-1.12,0-.5-.14-.9-.42-1.21-.28-.31-.67-.46-1.18-.46-.47,0-.84.15-1.11.44-.28.29-.42.68-.42,1.16s.14.88.41,1.17.67.44,1.19.44c.45,0,.81-.14,1.1-.42Z"/><path class="cls-8" d="m50.48,255.89v-.69l3.51-4.86h1.09v4.76h1v.79h-1v1.61h-.9v-1.61h-3.7Zm3.74-4.6l-2.69,3.81h2.69v-3.81Z"/><path class="cls-8" d="m57.11,257.38c-.12-.12-.18-.27-.18-.44s.06-.32.18-.44.27-.18.44-.18.31.06.42.18.18.27.18.44-.06.32-.18.44-.26.18-.42.18-.32-.06-.44-.18Z"/><path class="cls-8" d="m63.51,250.98l-2.78,6.52h-1l2.89-6.44h-3.85v-.77h4.74v.69Z"/><path class="cls-8" d="m66.79,250.25c.93,0,1.58.32,1.95.96.37.64.56,1.53.56,2.66s-.19,2.02-.56,2.67c-.37.64-1.02.96-1.95.96s-1.59-.32-1.96-.96c-.37-.64-.56-1.53-.56-2.67s.19-2.02.56-2.66c.37-.64,1.03-.96,1.96-.96Zm0,.83c-.45,0-.8.12-1.04.37s-.39.56-.47.96c-.08.4-.11.89-.11,1.46s.04,1.07.11,1.47c.08.4.23.72.47.96.24.24.58.37,1.04.37s.79-.12,1.02-.37c.24-.24.39-.56.47-.96.08-.4.12-.89.12-1.47s-.04-1.06-.12-1.46c-.08-.4-.23-.72-.47-.96-.24-.24-.58-.37-1.02-.37Z"/><rect class="cls-7" x="399.14" y="333.69" width="122.56" height="31.81" rx="4.82" ry="4.82"/><path class="cls-5" d="m440.25,353.49c-.49-.22-.87-.53-1.16-.94s-.43-.89-.44-1.44h1.87c.03.38.15.68.38.91.23.23.54.34.94.34s.73-.1.96-.31c.23-.21.35-.49.35-.83,0-.27-.08-.49-.24-.66-.16-.17-.36-.31-.59-.41s-.56-.21-.98-.33c-.57-.17-1.03-.34-1.38-.51-.35-.17-.66-.42-.91-.77-.25-.34-.38-.8-.38-1.37,0-.54.13-1.01.39-1.4s.62-.7,1.09-.92c.47-.21,1-.32,1.6-.32.9,0,1.63.23,2.19.68s.87,1.09.93,1.9h-1.92c-.02-.34-.14-.61-.38-.81-.24-.2-.55-.3-.94-.3-.34,0-.62.09-.82.28s-.31.46-.31.83c0,.24.08.44.23.6.15.16.35.29.57.39.23.1.55.21.97.34.57.17,1.03.35,1.39.52.36.17.67.43.92.78.26.35.39.8.39,1.37,0,.49-.12.94-.36,1.35-.24.42-.6.75-1.06.99-.47.25-1.02.37-1.66.37s-1.16-.11-1.64-.32Z"/><path class="cls-5" d="m452.94,346.52v7.2h-1.76v-.91c-.22.31-.52.56-.88.74-.36.18-.76.27-1.18.27-.54,0-1.02-.12-1.44-.36-.42-.24-.74-.59-.98-1.05s-.36-1.02-.36-1.66v-4.23h1.75v3.97c0,.57.14,1.01.41,1.32.28.31.65.46,1.12.46s.86-.15,1.14-.46c.27-.31.41-.75.41-1.32v-3.97h1.76Z"/><path class="cls-5" d="m457.29,346.73c.4-.22.85-.32,1.36-.32.59,0,1.13.15,1.61.46.48.3.86.73,1.14,1.29s.42,1.21.42,1.94-.14,1.39-.42,1.96-.66,1.01-1.14,1.32c-.48.31-1.01.47-1.61.47-.52,0-.97-.11-1.36-.32-.39-.21-.7-.49-.93-.83v1.03h-1.75v-9.62h1.75v3.47c.22-.35.54-.63.93-.85Zm2.47,2.24c-.17-.32-.4-.56-.67-.72s-.58-.25-.91-.25-.61.08-.89.25c-.28.17-.5.41-.67.73-.17.32-.26.7-.26,1.13s.08.81.26,1.13.4.57.67.73.58.25.89.25.63-.09.91-.26c.28-.17.5-.42.67-.74.17-.32.26-.7.26-1.14s-.09-.81-.26-1.12Z"/><path class="cls-5" d="m473.74,347.23c.52.54.78,1.3.78,2.27v4.22h-1.75v-3.98c0-.56-.14-1-.41-1.29-.28-.3-.65-.45-1.12-.45s-.85.15-1.13.45-.42.73-.42,1.29v3.98h-1.75v-3.98c0-.56-.14-1-.41-1.29-.28-.3-.65-.45-1.12-.45s-.87.15-1.14.45c-.28.3-.42.73-.42,1.29v3.98h-1.75v-7.2h1.75v.87c.22-.3.51-.54.87-.71.35-.17.74-.26,1.17-.26.54,0,1.02.12,1.45.36.42.24.75.58.99,1.02.22-.42.55-.75.98-1,.43-.25.89-.38,1.39-.38.85,0,1.54.27,2.06.81Z"/><path class="cls-5" d="m476.23,345.36c-.2-.2-.31-.46-.31-.76s.1-.56.31-.76c.2-.2.46-.3.77-.3s.56.1.77.3c.2.2.31.46.31.76s-.1.56-.31.76c-.2.2-.46.31-.77.31s-.56-.1-.77-.31Zm1.63,1.16v7.2h-1.75v-7.2h1.75Z"/><path class="cls-5" d="m481.53,348.02v3.48c0,.24.06.42.17.53s.3.16.57.16h.81v1.53h-1.1c-1.47,0-2.21-.75-2.21-2.24v-3.47h-.83v-1.5h.83v-1.78h1.76v1.78h1.55v1.5h-1.55Z"/><path class="cls-7" d="m44.14,7.8c-.29.54-.75.97-1.37,1.3-.62.33-1.4.49-2.35.49h-1.93v4.41h-2.31V2.51h4.23c.89,0,1.65.15,2.27.46.63.31,1.1.73,1.41,1.27s.47,1.15.47,1.83c0,.62-.15,1.19-.44,1.73Zm-2.4-.48c.31-.31.47-.72.47-1.25s-.15-.97-.46-1.28c-.31-.3-.78-.45-1.42-.45h-1.83v3.44h1.83c.63,0,1.1-.15,1.41-.46Z"/><path class="cls-7" d="m49.39,5.21c.48-.31,1.02-.46,1.64-.46v2.42h-.61c-.72,0-1.27.17-1.64.51-.37.34-.55.93-.55,1.78v4.55h-2.31V4.88h2.31v1.61c.3-.55.68-.98,1.16-1.28Z"/><path class="cls-7" d="m54.11,13.57c-.7-.39-1.25-.94-1.66-1.66s-.6-1.54-.6-2.47.21-1.76.62-2.47.97-1.27,1.69-1.66c.71-.39,1.51-.58,2.39-.58s1.67.19,2.39.58c.71.39,1.28.94,1.69,1.66.41.71.62,1.54.62,2.47s-.21,1.76-.63,2.47-.99,1.27-1.71,1.66c-.72.39-1.52.58-2.41.58s-1.67-.19-2.37-.58Zm3.55-1.7c.37-.21.66-.52.88-.93.22-.41.33-.91.33-1.49s-.11-1.08-.33-1.49c-.22-.41-.51-.72-.86-.93-.36-.21-.74-.31-1.16-.31-.65,0-1.2.24-1.65.72-.45.48-.68,1.15-.68,2.02s.22,1.54.66,2.02c.44.48.98.72,1.63.72.42,0,.81-.1,1.18-.31Z"/><path class="cls-7" d="m65.45,6.78v4.41c0,.31.07.53.22.67.15.14.4.21.75.21h1.07v1.94h-1.45c-1.94,0-2.92-.94-2.92-2.83v-4.4h-1.09v-1.89h1.09v-2.26h2.32v2.26h2.04v1.89h-2.04Z"/><path class="cls-7" d="m77.43,10.09h-6.67c.04.67.27,1.2.68,1.58.41.38.91.58,1.52.58.86,0,1.47-.37,1.83-1.1h2.49c-.26.88-.77,1.6-1.52,2.17-.75.57-1.66.85-2.75.85-.88,0-1.67-.19-2.36-.58-.7-.39-1.24-.94-1.63-1.66-.39-.71-.58-1.54-.58-2.47s.19-1.77.58-2.49c.38-.71.92-1.26,1.61-1.65s1.49-.58,2.39-.58,1.64.19,2.33.56c.69.37,1.22.9,1.6,1.58.38.68.57,1.47.57,2.36,0,.31-.02.59-.07.86Zm-2.32-1.4c-.01-.64-.22-1.14-.63-1.51-.41-.37-.92-.55-1.54-.55-.58,0-1.07.18-1.47.55-.4.37-.63.87-.71,1.51h4.35Z"/><path class="cls-7" d="m79.19,6.97c.38-.71.92-1.26,1.6-1.65.68-.39,1.46-.58,2.34-.58,1.13,0,2.07.28,2.81.85.74.57,1.24,1.36,1.49,2.38h-2.49c-.13-.4-.35-.71-.67-.93s-.7-.34-1.16-.34c-.66,0-1.18.24-1.56.72-.38.48-.58,1.16-.58,2.03s.19,1.54.58,2.02c.38.48.91.72,1.56.72.93,0,1.54-.42,1.83-1.25h2.49c-.25.99-.75,1.77-1.5,2.36-.75.58-1.68.87-2.8.87-.88,0-1.66-.19-2.34-.58-.68-.39-1.21-.94-1.6-1.65-.38-.71-.58-1.53-.58-2.48s.19-1.77.58-2.48Z"/><path class="cls-7" d="m91.7,6.78v4.41c0,.31.07.53.22.67.15.14.4.21.75.21h1.07v1.94h-1.45c-1.94,0-2.92-.94-2.92-2.83v-4.4h-1.09v-1.89h1.09v-2.26h2.32v2.26h2.04v1.89h-2.04Z"/><path class="cls-7" d="m95.54,3.41c-.27-.26-.4-.58-.4-.96s.13-.71.4-.96c.27-.26.61-.39,1.01-.39s.74.13,1.01.39c.27.26.4.58.4.96s-.13.71-.4.96c-.27.26-.61.39-1.01.39s-.74-.13-1.01-.39Zm2.15,1.47v9.13h-2.31V4.88h2.31Z"/><path class="cls-7" d="m101.55,13.57c-.7-.39-1.25-.94-1.66-1.66s-.6-1.54-.6-2.47.21-1.76.62-2.47.97-1.27,1.69-1.66c.71-.39,1.51-.58,2.39-.58s1.67.19,2.39.58c.71.39,1.28.94,1.69,1.66.41.71.62,1.54.62,2.47s-.21,1.76-.63,2.47-.99,1.27-1.71,1.66c-.72.39-1.52.58-2.41.58s-1.67-.19-2.37-.58Zm3.55-1.7c.37-.21.66-.52.88-.93.22-.41.33-.91.33-1.49s-.11-1.08-.33-1.49c-.22-.41-.51-.72-.86-.93-.36-.21-.74-.31-1.16-.31-.65,0-1.2.24-1.65.72-.45.48-.68,1.15-.68,2.02s.22,1.54.66,2.02c.44.48.98.72,1.63.72.42,0,.81-.1,1.18-.31Z"/><path class="cls-7" d="m118,5.78c.67.69,1,1.64,1,2.87v5.35h-2.31v-5.04c0-.72-.18-1.28-.54-1.67-.36-.39-.86-.58-1.48-.58s-1.14.19-1.51.58c-.37.39-.55.95-.55,1.67v5.04h-2.31V4.88h2.31v1.14c.31-.4.7-.71,1.18-.93.48-.23,1-.34,1.57-.34,1.09,0,1.97.34,2.64,1.03Z"/><path class="cls-7" d="m134.74,7.16v1.94h-8.96v-1.94h8.96Z"/><path class="cls-7" d="m143.39,13.71c-.64-.27-1.15-.67-1.52-1.19-.37-.52-.57-1.13-.58-1.83h2.47c.03.48.2.87.5,1.15.3.29.72.43,1.24.43s.96-.13,1.27-.4c.31-.26.46-.61.46-1.05,0-.34-.1-.62-.31-.84s-.47-.39-.78-.52c-.31-.13-.74-.27-1.29-.42-.75-.22-1.35-.44-1.82-.65-.47-.21-.87-.54-1.2-.97-.33-.43-.5-1.01-.5-1.74,0-.68.17-1.27.51-1.78.34-.5.82-.89,1.43-1.16.62-.27,1.32-.4,2.11-.4,1.19,0,2.15.29,2.89.86.74.58,1.15,1.38,1.23,2.41h-2.54c-.02-.43-.19-.77-.5-1.03-.31-.26-.73-.39-1.24-.39-.45,0-.81.12-1.08.35-.27.24-.4.58-.4,1.05,0,.31.1.56.3.77.2.2.46.37.76.49.3.13.73.27,1.28.44.75.22,1.36.44,1.83.66.47.22.88.55,1.22.99.34.44.51,1.02.51,1.73,0,.62-.16,1.19-.48,1.71-.32.53-.79.95-1.4,1.26-.62.31-1.35.47-2.19.47-.8,0-1.52-.14-2.17-.41Z"/><path class="cls-7" d="m153.19,13.57c-.7-.39-1.25-.94-1.66-1.66s-.6-1.54-.6-2.47.21-1.76.62-2.47.97-1.27,1.69-1.66c.71-.39,1.51-.58,2.39-.58s1.67.19,2.39.58c.71.39,1.28.94,1.69,1.66.41.71.62,1.54.62,2.47s-.21,1.76-.63,2.47-.99,1.27-1.71,1.66c-.72.39-1.52.58-2.41.58s-1.67-.19-2.37-.58Zm3.55-1.7c.37-.21.66-.52.88-.93.22-.41.33-.91.33-1.49s-.11-1.08-.33-1.49c-.22-.41-.51-.72-.86-.93-.36-.21-.74-.31-1.16-.31-.65,0-1.2.24-1.65.72-.45.48-.68,1.15-.68,2.02s.22,1.54.66,2.02c.44.48.98.72,1.63.72.42,0,.81-.1,1.18-.31Z"/><path class="cls-7" d="m170.54,4.88v9.13h-2.32v-1.15c-.3.4-.68.71-1.16.93-.48.22-1,.34-1.56.34-.71,0-1.35-.15-1.89-.45-.55-.3-.98-.75-1.29-1.33s-.47-1.29-.47-2.1v-5.35h2.31v5.02c0,.73.18,1.28.54,1.67.36.39.86.58,1.48.58s1.14-.19,1.5-.58c.36-.39.54-.95.54-1.67v-5.02h2.32Z"/><path class="cls-7" d="m176.19,5.21c.48-.31,1.02-.46,1.64-.46v2.42h-.61c-.72,0-1.27.17-1.64.51-.37.34-.55.93-.55,1.78v4.55h-2.31V4.88h2.31v1.61c.3-.55.68-.98,1.16-1.28Z"/><path class="cls-7" d="m179.23,6.97c.38-.71.92-1.26,1.6-1.65.68-.39,1.46-.58,2.34-.58,1.13,0,2.07.28,2.81.85.74.57,1.24,1.36,1.49,2.38h-2.49c-.13-.4-.35-.71-.67-.93s-.7-.34-1.16-.34c-.66,0-1.18.24-1.56.72-.38.48-.58,1.16-.58,2.03s.19,1.54.58,2.02c.38.48.91.72,1.56.72.93,0,1.54-.42,1.83-1.25h2.49c-.25.99-.75,1.77-1.5,2.36-.75.58-1.68.87-2.8.87-.88,0-1.66-.19-2.34-.58-.68-.39-1.21-.94-1.6-1.65-.38-.71-.58-1.53-.58-2.48s.19-1.77.58-2.48Z"/><path class="cls-7" d="m189.2,3.41c-.27-.26-.4-.58-.4-.96s.13-.71.4-.96c.27-.26.61-.39,1.01-.39s.74.13,1.01.39c.27.26.4.58.4.96s-.13.71-.4.96c-.27.26-.61.39-1.01.39s-.74-.13-1.01-.39Zm2.15,1.47v9.13h-2.31V4.88h2.31Z"/><path class="cls-7" d="m201.23,5.78c.67.69,1,1.64,1,2.87v5.35h-2.31v-5.04c0-.72-.18-1.28-.54-1.67-.36-.39-.86-.58-1.48-.58s-1.14.19-1.51.58c-.37.39-.55.95-.55,1.67v5.04h-2.31V4.88h2.31v1.14c.31-.4.7-.71,1.18-.93.48-.23,1-.34,1.57-.34,1.09,0,1.97.34,2.64,1.03Z"/><path class="cls-7" d="m209.77,5.14c.52.27.92.62,1.22,1.05v-1.3h2.32v9.19c0,.85-.17,1.6-.51,2.26s-.85,1.19-1.53,1.58c-.68.39-1.5.58-2.47.58-1.3,0-2.36-.3-3.19-.91s-1.3-1.43-1.41-2.47h2.29c.12.42.38.75.78,1s.89.37,1.46.37c.67,0,1.21-.2,1.63-.6.42-.4.63-1.01.63-1.82v-1.42c-.3.43-.71.79-1.23,1.07-.52.29-1.12.43-1.79.43-.77,0-1.47-.2-2.11-.59-.64-.4-1.14-.95-1.51-1.67-.37-.72-.55-1.55-.55-2.48s.18-1.74.55-2.45c.37-.71.87-1.26,1.5-1.65s1.34-.58,2.12-.58c.68,0,1.28.13,1.8.4Zm.89,2.87c-.22-.4-.52-.71-.89-.92-.37-.21-.77-.32-1.2-.32s-.82.1-1.19.31c-.36.21-.66.51-.88.91-.23.4-.34.88-.34,1.42s.11,1.03.34,1.44c.22.41.52.73.89.95.37.22.76.33,1.18.33s.83-.11,1.2-.32c.37-.21.67-.52.89-.92.22-.4.33-.88.33-1.44s-.11-1.04-.33-1.44Z"/><line class="cls-1" x1="195.42" y1="86.77" x2="195.42" y2="279.76"/><line class="cls-1" x1="357.7" y1="86.77" x2="357.7" y2="279.76"/><line class="cls-1" x1="519.99" y1="279.76" x2="27.37" y2="279.76"/><line class="cls-1" x1="519.99" y1="86.77" x2="27.37" y2="86.77"/><path class="cls-8" d="m406.14,136.5v2.39h2.54v.7h-2.54v2.45h2.84v.72h-3.75v-6.98h3.75v.72h-2.84Z"/><path class="cls-8" d="m414.52,137.78c.41.4.62.98.62,1.75v3.23h-.9v-3.1c0-.55-.14-.96-.41-1.25s-.65-.44-1.12-.44-.86.15-1.14.45c-.28.3-.42.74-.42,1.31v3.03h-.91v-5.48h.91v.78c.18-.28.42-.5.73-.65.31-.15.65-.23,1.03-.23.67,0,1.21.2,1.62.6Z"/><path class="cls-8" d="m420.51,137.44c.33.18.59.44.79.79.19.35.29.78.29,1.29v3.23h-.9v-3.1c0-.55-.14-.96-.41-1.25s-.65-.44-1.12-.44-.86.15-1.14.45c-.28.3-.42.74-.42,1.31v3.03h-.91v-7.4h.91v2.7c.18-.28.43-.5.74-.65.32-.15.67-.23,1.07-.23.41,0,.79.09,1.12.27Z"/><path class="cls-8" d="m423.12,138.52c.23-.42.54-.75.94-.99.4-.23.84-.35,1.32-.35s.9.1,1.25.31c.35.21.62.47.79.78v-1h.92v5.48h-.92v-1.02c-.18.32-.45.58-.8.79s-.77.31-1.25.31-.93-.12-1.32-.36c-.39-.24-.7-.58-.93-1.01-.23-.43-.34-.93-.34-1.48s.11-1.05.34-1.48Zm4.05.4c-.17-.31-.39-.54-.67-.71-.28-.16-.59-.24-.93-.24s-.65.08-.93.24c-.28.16-.5.39-.67.7-.17.31-.25.67-.25,1.08s.08.78.25,1.09c.17.31.39.55.67.71.28.16.59.25.93.25s.65-.08.93-.25c.28-.16.51-.4.67-.71.17-.31.25-.67.25-1.08s-.08-.77-.25-1.08Z"/><path class="cls-8" d="m434.2,137.78c.41.4.62.98.62,1.75v3.23h-.9v-3.1c0-.55-.14-.96-.41-1.25-.27-.29-.65-.44-1.12-.44s-.86.15-1.15.45c-.28.3-.42.74-.42,1.31v3.03h-.91v-5.48h.91v.78c.18-.28.42-.5.74-.65.31-.15.65-.23,1.02-.23.67,0,1.21.2,1.62.6Z"/><path class="cls-8" d="m436.38,138.52c.23-.42.54-.75.94-.99.4-.23.87-.35,1.39-.35.67,0,1.23.16,1.67.49.44.33.72.78.86,1.36h-.98c-.09-.33-.28-.6-.54-.79-.27-.19-.61-.29-1-.29-.52,0-.94.18-1.26.53-.32.36-.48.86-.48,1.52s.16,1.17.48,1.53c.32.36.74.54,1.26.54.4,0,.73-.09,1-.28s.45-.45.55-.8h.98c-.15.56-.44,1.01-.88,1.34-.44.34-.99.5-1.65.5-.52,0-.98-.12-1.39-.35s-.72-.56-.94-.99-.34-.93-.34-1.5.11-1.06.34-1.48Z"/><path class="cls-8" d="m447.46,140.33h-4.38c.03.54.21.97.54,1.28.34.31.75.47,1.24.47.39,0,.72-.09.99-.27.26-.18.45-.43.55-.73h.98c-.15.53-.44.96-.88,1.29-.44.33-.99.49-1.64.49-.52,0-.99-.12-1.39-.35-.41-.23-.73-.57-.97-1-.23-.43-.35-.93-.35-1.5s.11-1.06.34-1.49c.23-.43.54-.75.96-.98s.88-.34,1.42-.34.98.11,1.38.34.71.54.92.93c.22.39.33.84.33,1.33,0,.17,0,.35-.03.54Zm-1.14-1.58c-.15-.26-.36-.45-.62-.58s-.55-.2-.88-.2c-.47,0-.86.15-1.19.45-.33.3-.51.72-.54,1.26h3.46c0-.36-.08-.67-.23-.93Z"/><path class="cls-8" d="m448.77,138.52c.23-.42.54-.75.93-.99.4-.23.84-.35,1.33-.35.43,0,.82.1,1.19.29.37.2.65.46.84.77v-2.9h.92v7.4h-.92v-1.03c-.18.33-.45.59-.8.8-.35.21-.77.31-1.24.31s-.93-.12-1.33-.36c-.4-.24-.71-.58-.93-1.01-.23-.43-.34-.93-.34-1.48s.11-1.05.34-1.48Zm4.05.4c-.17-.31-.39-.54-.67-.71-.28-.16-.6-.24-.94-.24s-.65.08-.93.24-.5.39-.67.7c-.17.31-.25.67-.25,1.08s.08.78.25,1.09c.17.31.39.55.67.71.28.16.59.25.93.25s.65-.08.94-.25c.28-.16.51-.4.67-.71.17-.31.25-.67.25-1.08s-.08-.77-.25-1.08Z"/><path class="cls-8" d="m462.57,139.27c-.4.38-1,.57-1.82.57h-1.34v2.91h-.91v-6.97h2.25c.79,0,1.38.19,1.79.57s.62.87.62,1.47-.2,1.06-.59,1.45Zm-.7-.49c.24-.23.37-.55.37-.96s-.12-.74-.36-.97-.61-.35-1.12-.35h-1.34v2.62h1.34c.5,0,.87-.12,1.12-.35Z"/><path class="cls-8" d="m465.85,137.48c.3-.2.66-.3,1.08-.3v.94h-.24c-1.02,0-1.53.55-1.53,1.66v2.98h-.91v-5.48h.91v1.04c.16-.36.39-.64.69-.84Z"/><path class="cls-8" d="m468.89,142.5c-.42-.23-.74-.57-.98-1-.24-.43-.36-.93-.36-1.5s.12-1.06.37-1.48c.24-.43.58-.76,1-.99s.89-.34,1.41-.34.99.11,1.41.34.75.56,1,.98c.24.43.37.92.37,1.49s-.12,1.06-.38,1.5c-.25.43-.59.76-1.01,1-.43.23-.9.35-1.42.35s-.98-.12-1.4-.35Zm2.32-.66c.29-.16.52-.39.69-.71.18-.31.27-.69.27-1.13s-.09-.81-.26-1.12c-.17-.31-.4-.54-.68-.69s-.58-.23-.91-.23-.64.08-.92.23c-.28.15-.5.38-.67.69-.17.31-.25.69-.25,1.12s.08.83.25,1.13c.16.31.38.54.66.7s.57.23.9.23.63-.08.92-.23Z"/><path class="cls-8" d="m475.35,138.03v3.23c0,.27.06.46.17.56s.31.17.59.17h.67v.77h-.82c-.51,0-.89-.12-1.14-.35-.25-.23-.38-.62-.38-1.15v-3.23h-.71v-.75h.71v-1.38h.91v1.38h1.43v.75h-1.43Z"/><path class="cls-8" d="m482.72,140.33h-4.38c.03.54.21.97.54,1.28s.75.47,1.24.47c.39,0,.72-.09.98-.27.26-.18.45-.43.56-.73h.98c-.15.53-.44.96-.88,1.29-.44.33-.99.49-1.64.49-.52,0-.99-.12-1.4-.35s-.73-.57-.96-1c-.23-.43-.35-.93-.35-1.5s.11-1.06.34-1.49c.23-.43.54-.75.96-.98.41-.23.88-.34,1.42-.34s.98.11,1.38.34c.4.23.71.54.92.93.22.39.33.84.33,1.33,0,.17-.01.35-.03.54Zm-1.14-1.58c-.15-.26-.36-.45-.62-.58-.26-.13-.56-.2-.88-.2-.47,0-.86.15-1.19.45-.33.3-.51.72-.54,1.26h3.46c0-.36-.08-.67-.23-.93Z"/><path class="cls-8" d="m484.03,138.52c.23-.42.54-.75.94-.99.4-.23.87-.35,1.39-.35.67,0,1.23.16,1.67.49.44.33.72.78.86,1.36h-.98c-.09-.33-.28-.6-.54-.79-.27-.19-.61-.29-1-.29-.52,0-.94.18-1.26.53-.32.36-.48.86-.48,1.52s.16,1.17.48,1.53c.32.36.74.54,1.26.54.4,0,.73-.09,1-.28s.45-.45.55-.8h.98c-.15.56-.44,1.01-.88,1.34-.44.34-.99.5-1.65.5-.52,0-.98-.12-1.39-.35s-.72-.56-.94-.99-.34-.93-.34-1.5.11-1.06.34-1.48Z"/><path class="cls-8" d="m491.18,138.03v3.23c0,.27.06.46.17.56s.31.17.59.17h.67v.77h-.82c-.51,0-.89-.12-1.14-.35-.25-.23-.38-.62-.38-1.15v-3.23h-.71v-.75h.71v-1.38h.91v1.38h1.43v.75h-1.43Z"/><path class="cls-8" d="m493.71,136.21c-.12-.12-.18-.27-.18-.44s.06-.32.18-.44c.12-.12.27-.18.44-.18s.31.06.42.18c.12.12.17.27.17.44s-.06.32-.17.44c-.12.12-.26.18-.42.18s-.32-.06-.44-.18Zm.88,1.07v5.48h-.91v-5.48h.91Z"/><path class="cls-8" d="m497.18,142.5c-.42-.23-.74-.57-.98-1-.24-.43-.36-.93-.36-1.5s.12-1.06.37-1.48c.24-.43.58-.76,1-.99s.89-.34,1.41-.34.99.11,1.41.34.75.56,1,.98c.24.43.37.92.37,1.49s-.12,1.06-.38,1.5c-.25.43-.59.76-1.01,1-.43.23-.9.35-1.42.35s-.98-.12-1.4-.35Zm2.32-.66c.29-.16.52-.39.69-.71.18-.31.27-.69.27-1.13s-.09-.81-.26-1.12c-.17-.31-.4-.54-.68-.69s-.58-.23-.91-.23-.64.08-.92.23c-.28.15-.5.38-.67.69-.17.31-.25.69-.25,1.12s.08.83.25,1.13c.16.31.38.54.66.7s.57.23.9.23.63-.08.92-.23Z"/><path class="cls-8" d="m506.93,137.78c.41.4.62.98.62,1.75v3.23h-.9v-3.1c0-.55-.14-.96-.41-1.25-.27-.29-.65-.44-1.12-.44s-.86.15-1.15.45c-.28.3-.42.74-.42,1.31v3.03h-.91v-5.48h.91v.78c.18-.28.42-.5.74-.65.31-.15.65-.23,1.02-.23.67,0,1.21.2,1.62.6Z"/><path class="cls-8" d="m405.35,152.43c.31-.54.73-.97,1.25-1.27.53-.31,1.12-.46,1.77-.46.76,0,1.42.18,1.99.55.57.37.98.89,1.24,1.56h-1.09c-.19-.41-.47-.72-.83-.94-.36-.22-.8-.33-1.3-.33s-.92.11-1.31.33c-.39.22-.69.54-.91.96-.22.42-.33.9-.33,1.44s.11,1.03.33,1.44c.22.41.52.73.91.95.39.22.82.34,1.31.34s.94-.11,1.3-.33c.36-.22.64-.53.83-.94h1.09c-.26.67-.67,1.18-1.24,1.54-.57.36-1.23.54-1.99.54-.65,0-1.24-.15-1.77-.46-.53-.3-.95-.73-1.25-1.27s-.46-1.15-.46-1.83.15-1.29.46-1.83Z"/><path class="cls-8" d="m413.95,157.5c-.42-.23-.74-.57-.98-1-.24-.43-.36-.93-.36-1.5s.12-1.06.37-1.48c.24-.43.58-.76,1-.99s.89-.34,1.41-.34.99.11,1.41.34.75.56,1,.98c.24.43.37.92.37,1.49s-.12,1.06-.38,1.5c-.25.43-.59.76-1.01,1-.43.23-.9.35-1.42.35s-.98-.12-1.4-.35Zm2.32-.66c.29-.16.52-.39.69-.71.18-.31.27-.69.27-1.13s-.09-.81-.26-1.12c-.17-.31-.4-.54-.68-.69s-.58-.23-.91-.23-.64.08-.92.23c-.28.15-.5.38-.67.69-.17.31-.25.69-.25,1.12s.08.83.25,1.13c.16.31.38.54.66.7s.57.23.9.23.63-.08.92-.23Z"/><path class="cls-8" d="m427.14,152.44c.33.18.6.44.79.79.19.35.29.78.29,1.29v3.23h-.9v-3.1c0-.55-.13-.96-.41-1.25-.27-.29-.63-.44-1.09-.44s-.85.15-1.13.46-.42.74-.42,1.31v3.02h-.9v-3.1c0-.55-.13-.96-.4-1.25-.27-.29-.64-.44-1.1-.44s-.85.15-1.13.46-.42.74-.42,1.31v3.02h-.91v-5.48h.91v.79c.18-.29.42-.51.72-.66.3-.15.64-.23,1.01-.23.46,0,.87.1,1.22.31s.62.51.79.91c.15-.39.41-.69.76-.9s.75-.32,1.18-.32.81.09,1.14.27Z"/><path class="cls-8" d="m431.47,152.5c.36-.21.77-.31,1.25-.31s.93.12,1.33.35c.4.23.71.56.93.99s.34.92.34,1.48-.11,1.05-.34,1.48c-.23.43-.54.77-.93,1.01-.4.24-.84.36-1.33.36s-.88-.1-1.24-.31-.63-.47-.81-.78v3.61h-.91v-8.08h.91v1.01c.18-.31.45-.57.8-.78Zm2.67,1.42c-.17-.31-.39-.54-.67-.7-.28-.16-.6-.24-.94-.24s-.64.08-.92.24c-.28.16-.51.4-.68.71-.17.31-.25.67-.25,1.08s.08.77.25,1.08.4.55.68.71c.28.16.59.25.92.25s.65-.08.94-.25c.28-.16.51-.4.67-.71.17-.31.25-.67.25-1.09s-.08-.77-.25-1.08Z"/><path class="cls-8" d="m436.6,153.52c.23-.42.54-.75.93-.99.4-.23.84-.35,1.33-.35s.9.1,1.25.31c.35.21.62.47.79.78v-1h.92v5.48h-.92v-1.02c-.18.32-.45.58-.8.79-.36.21-.77.31-1.25.31s-.93-.12-1.32-.36c-.39-.24-.7-.58-.93-1.01-.23-.43-.34-.93-.34-1.48s.11-1.05.34-1.48Zm4.05.4c-.17-.31-.39-.54-.67-.71-.28-.16-.6-.24-.94-.24s-.65.08-.93.24-.5.39-.67.7c-.17.31-.25.67-.25,1.08s.08.78.25,1.09c.17.31.39.55.67.71.28.16.59.25.93.25s.65-.08.94-.25c.28-.16.51-.4.67-.71.17-.31.25-.67.25-1.08s-.08-.77-.25-1.08Z"/><path class="cls-8" d="m444.99,152.48c.3-.2.66-.3,1.08-.3v.94h-.24c-1.02,0-1.53.55-1.53,1.66v2.98h-.91v-5.48h.91v1.04c.16-.36.39-.64.68-.84Z"/><path class="cls-8" d="m447.16,151.21c-.12-.12-.18-.27-.18-.44s.06-.32.18-.44c.12-.12.27-.18.44-.18s.31.06.42.18c.12.12.17.27.17.44s-.06.32-.17.44c-.12.12-.26.18-.42.18s-.32-.06-.44-.18Zm.88,1.07v5.48h-.91v-5.48h.91Z"/><path class="cls-8" d="m450.41,157.63c-.33-.14-.59-.34-.79-.6-.19-.26-.3-.55-.32-.88h.94c.03.29.16.52.38.7.23.18.53.27.91.27.35,0,.63-.08.83-.23.2-.16.29-.36.29-.62,0-.24-.11-.42-.32-.53-.21-.12-.54-.23-.99-.35-.41-.11-.74-.21-.99-.32-.25-.11-.47-.27-.65-.48s-.27-.49-.27-.83c0-.29.08-.55.24-.79.16-.24.39-.43.7-.57.3-.14.66-.21,1.05-.21.61,0,1.1.15,1.47.46.37.31.57.73.6,1.26h-.91c-.02-.3-.13-.54-.34-.72-.21-.18-.49-.27-.84-.27-.33,0-.6.07-.79.22-.19.15-.29.34-.29.58,0,.19.06.34.18.46s.27.21.44.27c.17.06.42.14.74.23.4.11.72.21.96.31.24.1.45.26.62.46.17.2.26.47.26.8,0,.31-.08.58-.25.82-.16.24-.4.43-.7.57-.3.14-.65.21-1.05.21s-.79-.07-1.12-.21Z"/><path class="cls-8" d="m455.83,157.5c-.42-.23-.74-.57-.98-1-.24-.43-.36-.93-.36-1.5s.12-1.06.37-1.48c.24-.43.58-.76,1-.99s.89-.34,1.41-.34.99.11,1.41.34.75.56,1,.98c.24.43.37.92.37,1.49s-.12,1.06-.38,1.5c-.25.43-.59.76-1.01,1-.43.23-.9.35-1.42.35s-.98-.12-1.4-.35Zm2.32-.66c.29-.16.52-.39.69-.71.18-.31.27-.69.27-1.13s-.09-.81-.26-1.12c-.17-.31-.4-.54-.68-.69s-.58-.23-.91-.23-.64.08-.92.23c-.28.15-.5.38-.67.69-.17.31-.25.69-.25,1.12s.08.83.25,1.13c.16.31.38.54.66.7s.57.23.9.23.63-.08.92-.23Z"/><path class="cls-8" d="m465.59,152.78c.41.4.62.98.62,1.75v3.23h-.9v-3.1c0-.55-.14-.96-.41-1.25-.27-.29-.65-.44-1.12-.44s-.86.15-1.15.45c-.28.3-.42.74-.42,1.31v3.03h-.91v-5.48h.91v.78c.18-.28.42-.5.74-.65.31-.15.65-.23,1.02-.23.67,0,1.21.2,1.62.6Z"/><path class="cls-8" d="m410.82,188.51l-1.39-1.39c-.34.09-.69.14-1.04.14-.65,0-1.24-.15-1.77-.46-.53-.3-.96-.73-1.27-1.27-.31-.54-.46-1.16-.46-1.84s.16-1.29.46-1.83c.31-.54.73-.97,1.27-1.27.53-.3,1.12-.46,1.77-.46s1.25.15,1.78.46.95.72,1.26,1.26.46,1.15.46,1.84-.15,1.27-.44,1.8c-.29.53-.7.95-1.21,1.26l1.76,1.75h-1.18Zm-4.67-3.37c.22.41.53.73.92.96.39.23.83.34,1.31.34s.92-.11,1.32-.34c.39-.23.7-.55.92-.96.22-.41.33-.89.33-1.44s-.11-1.03-.33-1.44c-.22-.42-.53-.74-.92-.96-.39-.22-.83-.33-1.32-.33s-.92.11-1.31.33c-.39.22-.7.54-.92.96-.22.42-.33.9-.33,1.44s.11,1.03.33,1.44Z"/><path class="cls-8" d="m418.06,181.71v5.48h-.91v-.81c-.17.28-.42.5-.72.66-.31.16-.65.23-1.03.23-.43,0-.81-.09-1.15-.26-.34-.18-.61-.44-.8-.79s-.29-.78-.29-1.29v-3.21h.9v3.09c0,.54.14.96.41,1.25s.65.43,1.12.43.87-.15,1.15-.45c.28-.3.42-.74.42-1.31v-3.01h.91Z"/><path class="cls-8" d="m420.65,186.93c-.42-.23-.74-.57-.98-1-.24-.43-.36-.93-.36-1.5s.12-1.05.37-1.48c.24-.43.58-.76,1-.99.42-.23.89-.34,1.41-.34s.99.11,1.41.34c.42.23.75.56,1,.98.24.43.37.92.37,1.49s-.12,1.07-.38,1.5-.59.76-1.01,1c-.43.23-.9.35-1.42.35s-.98-.12-1.4-.35Zm2.32-.66c.29-.16.52-.39.69-.71.18-.31.27-.69.27-1.13s-.09-.81-.26-1.12c-.17-.31-.4-.54-.68-.69s-.58-.23-.91-.23-.64.08-.92.23c-.28.15-.5.38-.67.69-.17.31-.25.69-.25,1.12s.08.83.25,1.13c.16.31.38.54.66.7.27.16.57.24.9.24s.63-.08.92-.24Z"/><path class="cls-8" d="m427.11,182.46v3.23c0,.27.06.46.17.57.11.11.31.17.59.17h.67v.77h-.82c-.51,0-.89-.12-1.14-.35-.25-.23-.38-.62-.38-1.15v-3.23h-.71v-.75h.71v-1.38h.91v1.38h1.43v.75h-1.43Z"/><path class="cls-8" d="m434.48,184.76h-4.38c.03.54.21.97.54,1.28s.75.47,1.24.47c.39,0,.72-.09.98-.28.26-.18.45-.43.56-.73h.98c-.15.53-.44.96-.88,1.29-.44.33-.99.49-1.64.49-.52,0-.99-.12-1.4-.35s-.73-.57-.96-1-.35-.93-.35-1.5.11-1.06.34-1.49c.23-.43.54-.75.96-.98.41-.23.88-.34,1.42-.34s.98.11,1.38.34c.4.23.71.54.92.93s.33.84.33,1.33c0,.17-.01.35-.03.54Zm-1.14-1.58c-.15-.26-.36-.45-.62-.58-.26-.13-.56-.2-.88-.2-.47,0-.86.15-1.19.46s-.51.72-.54,1.25h3.46c0-.36-.08-.67-.23-.92Z"/><path class="cls-8" d="m439.6,180.22v6.97h-.91v-6.97h.91Z"/><path class="cls-8" d="m442.14,179.79v7.4h-.91v-7.4h.91Z"/><path class="cls-8" d="m444.63,179.79v7.4h-.91v-7.4h.91Z"/><path class="cls-8" d="m451.08,181.71v5.48h-.91v-.81c-.17.28-.42.5-.72.66-.31.16-.65.23-1.03.23-.43,0-.81-.09-1.15-.26-.34-.18-.61-.44-.8-.79s-.29-.78-.29-1.29v-3.21h.9v3.09c0,.54.14.96.41,1.25s.65.43,1.12.43.87-.15,1.15-.45c.28-.3.42-.74.42-1.31v-3.01h.91Z"/><path class="cls-8" d="m453.47,187.06c-.33-.14-.59-.34-.79-.6s-.3-.55-.32-.88h.94c.03.29.16.52.38.7.23.18.53.27.91.27.35,0,.63-.08.83-.24.2-.16.29-.36.29-.62,0-.24-.11-.42-.32-.53-.21-.12-.54-.23-.99-.35-.41-.11-.74-.21-.99-.32-.25-.11-.47-.27-.65-.48s-.27-.49-.27-.83c0-.29.08-.55.24-.79.16-.24.39-.43.7-.57.3-.14.66-.21,1.05-.21.61,0,1.1.15,1.47.46.37.31.57.73.6,1.26h-.91c-.02-.3-.13-.54-.34-.72-.21-.18-.49-.27-.84-.27-.33,0-.6.07-.79.22-.19.15-.29.34-.29.58,0,.19.06.34.18.46.12.12.27.21.44.27.17.06.42.14.74.23.4.11.72.21.96.32.24.1.45.25.62.46.17.2.26.47.26.8,0,.31-.08.58-.25.82-.16.24-.4.43-.7.57-.3.14-.65.21-1.05.21s-.79-.07-1.12-.21Z"/><path class="cls-8" d="m459.01,182.46v3.23c0,.27.06.46.17.57.11.11.31.17.59.17h.67v.77h-.82c-.51,0-.89-.12-1.14-.35-.25-.23-.38-.62-.38-1.15v-3.23h-.71v-.75h.71v-1.38h.91v1.38h1.43v.75h-1.43Z"/><path class="cls-8" d="m463.11,181.91c.3-.2.66-.3,1.08-.3v.94h-.24c-1.02,0-1.53.55-1.53,1.66v2.98h-.91v-5.48h.91v1.04c.16-.36.39-.64.69-.84Z"/><path class="cls-8" d="m465.16,182.95c.23-.42.54-.75.93-.99s.84-.35,1.33-.35.9.1,1.25.31.62.47.79.78v-1h.92v5.48h-.92v-1.02c-.18.32-.45.58-.8.79-.36.21-.77.31-1.25.31s-.93-.12-1.32-.36-.7-.58-.93-1.01c-.23-.43-.34-.93-.34-1.48s.11-1.05.34-1.47Zm4.05.4c-.17-.31-.39-.54-.67-.71-.28-.16-.6-.24-.94-.24s-.65.08-.93.24-.5.39-.67.7c-.17.31-.25.67-.25,1.08s.08.79.25,1.09c.17.31.39.55.67.71.28.16.59.25.93.25s.65-.08.94-.25c.28-.16.51-.4.67-.71.17-.31.25-.67.25-1.08s-.08-.77-.25-1.08Z"/><path class="cls-8" d="m473.06,182.46v3.23c0,.27.06.46.17.57.11.11.31.17.59.17h.67v.77h-.82c-.51,0-.89-.12-1.14-.35-.25-.23-.38-.62-.38-1.15v-3.23h-.71v-.75h.71v-1.38h.91v1.38h1.43v.75h-1.43Z"/><path class="cls-8" d="m475.59,180.64c-.12-.12-.18-.27-.18-.44s.06-.32.18-.44.27-.18.44-.18.31.06.42.18c.12.12.17.27.17.44s-.06.32-.17.44c-.12.12-.26.18-.42.18s-.32-.06-.44-.18Zm.88,1.07v5.48h-.91v-5.48h.91Z"/><path class="cls-8" d="m479.06,186.93c-.42-.23-.74-.57-.98-1-.24-.43-.36-.93-.36-1.5s.12-1.05.37-1.48c.24-.43.58-.76,1-.99.42-.23.89-.34,1.41-.34s.99.11,1.41.34c.42.23.75.56,1,.98.24.43.37.92.37,1.49s-.12,1.07-.38,1.5-.59.76-1.01,1c-.43.23-.9.35-1.42.35s-.98-.12-1.4-.35Zm2.32-.66c.29-.16.52-.39.69-.71.18-.31.27-.69.27-1.13s-.09-.81-.26-1.12c-.17-.31-.4-.54-.68-.69s-.58-.23-.91-.23-.64.08-.92.23c-.28.15-.5.38-.67.69-.17.31-.25.69-.25,1.12s.08.83.25,1.13c.16.31.38.54.66.7.27.16.57.24.9.24s.63-.08.92-.24Z"/><path class="cls-8" d="m488.81,182.21c.41.4.62.98.62,1.75v3.23h-.9v-3.1c0-.55-.14-.96-.41-1.25s-.65-.44-1.12-.44-.86.15-1.14.45-.42.74-.42,1.31v3.03h-.91v-5.48h.91v.78c.18-.28.42-.5.73-.65.31-.15.65-.23,1.03-.23.67,0,1.21.2,1.62.61Z"/><path class="cls-4" d="m380.73,208.08c-.42-.23-.74-.57-.98-1-.24-.43-.35-.93-.35-1.5s.12-1.06.36-1.49.58-.76,1-.99c.42-.23.89-.34,1.41-.34s.99.12,1.41.34c.42.23.75.56,1,.99.24.43.37.92.37,1.49s-.12,1.06-.38,1.5c-.25.43-.59.76-1.02,1s-.9.35-1.42.35-.98-.12-1.39-.35Zm2.31-.66c.29-.16.52-.39.7-.71s.26-.69.26-1.13-.09-.82-.26-1.12c-.17-.31-.4-.54-.68-.7-.28-.15-.58-.23-.91-.23s-.64.08-.92.23c-.28.15-.5.38-.67.7-.17.31-.25.68-.25,1.12s.08.83.25,1.13c.16.31.38.54.65.7.27.16.57.23.9.23s.63-.08.92-.23Z"/><path class="cls-4" d="m387.79,203.06c.3-.2.66-.3,1.08-.3v.94h-.24c-1.02,0-1.53.55-1.53,1.66v2.98h-.91v-5.48h.91v1.04c.16-.36.39-.64.68-.84Z"/><path class="cls-8" d="m409.38,223.18c.56.28.98.69,1.28,1.21.3.53.45,1.15.45,1.86s-.15,1.33-.45,1.86c-.3.52-.72.92-1.28,1.2s-1.21.42-1.98.42h-2.17v-6.97h2.17c.76,0,1.42.14,1.98.43Zm.08,5.11c.48-.49.71-1.17.71-2.04s-.24-1.54-.71-2.03c-.48-.49-1.16-.73-2.06-.73h-1.26v5.53h1.26c.89,0,1.58-.25,2.06-.74Z"/><path class="cls-8" d="m413.41,229.47c-.42-.23-.74-.57-.98-1-.24-.43-.35-.93-.35-1.5s.12-1.06.36-1.49.58-.76,1-.99c.42-.23.89-.34,1.41-.34s.99.12,1.41.34c.42.23.75.56,1,.99.24.43.37.92.37,1.49s-.12,1.06-.38,1.5c-.25.43-.59.76-1.02,1s-.9.35-1.42.35-.98-.12-1.39-.35Zm2.31-.66c.29-.16.52-.39.7-.71s.26-.69.26-1.13-.09-.82-.26-1.12c-.17-.31-.4-.54-.68-.7-.28-.15-.58-.23-.91-.23s-.64.08-.92.23c-.28.15-.5.38-.67.7-.17.31-.25.68-.25,1.12s.08.83.25,1.13c.16.31.38.54.65.7.27.16.57.23.9.23s.63-.08.92-.23Z"/><path class="cls-8" d="m418.9,225.49c.23-.42.54-.75.95-.99.4-.23.87-.35,1.38-.35.67,0,1.23.16,1.67.49.44.33.73.78.87,1.36h-.98c-.09-.33-.27-.6-.54-.79-.27-.19-.6-.29-1-.29-.52,0-.94.18-1.26.53-.32.36-.48.86-.48,1.52s.16,1.17.48,1.53c.32.36.74.54,1.26.54.4,0,.73-.09,1-.28s.45-.45.55-.8h.98c-.15.56-.44,1.01-.88,1.34-.44.34-.99.5-1.65.5-.52,0-.98-.12-1.38-.35s-.72-.56-.95-.99-.34-.93-.34-1.5.11-1.06.34-1.49Z"/><path class="cls-8" d="m429.82,224.25v5.48h-.91v-.81c-.17.28-.42.5-.72.66-.31.16-.65.24-1.03.24-.43,0-.81-.09-1.15-.27-.34-.18-.61-.44-.8-.79s-.29-.78-.29-1.29v-3.21h.9v3.09c0,.54.14.96.41,1.25s.65.44,1.12.44.87-.15,1.15-.45.42-.74.42-1.31v-3.01h.91Z"/><path class="cls-8" d="m439.12,224.41c.33.18.6.44.79.79.19.35.29.78.29,1.29v3.23h-.9v-3.1c0-.55-.14-.96-.41-1.25-.27-.29-.63-.43-1.09-.43s-.85.15-1.13.46c-.28.3-.42.74-.42,1.31v3.02h-.9v-3.1c0-.55-.13-.96-.41-1.25-.27-.29-.63-.43-1.09-.43s-.85.15-1.13.46c-.28.3-.42.74-.42,1.31v3.02h-.91v-5.48h.91v.79c.18-.29.42-.51.72-.66s.64-.23,1-.23c.46,0,.87.1,1.22.31.35.21.62.51.79.91.15-.39.41-.69.76-.9.35-.21.75-.32,1.18-.32s.81.09,1.14.26Z"/><path class="cls-8" d="m446.71,227.3h-4.38c.03.54.21.97.54,1.28.34.31.75.47,1.24.47.39,0,.72-.09.99-.27.26-.18.45-.43.55-.74h.98c-.15.53-.44.96-.88,1.29-.44.33-.99.5-1.64.5-.52,0-.99-.12-1.39-.35-.41-.23-.73-.57-.97-1-.23-.43-.35-.93-.35-1.5s.11-1.06.34-1.49.54-.75.96-.99c.41-.23.88-.34,1.42-.34s.98.11,1.38.34.71.54.92.93c.22.39.33.84.33,1.33,0,.17,0,.35-.03.54Zm-1.14-1.58c-.15-.26-.36-.45-.62-.58-.26-.13-.55-.2-.88-.2-.47,0-.86.15-1.19.45-.33.3-.51.72-.54,1.26h3.46c0-.36-.08-.67-.23-.93Z"/><path class="cls-8" d="m452.29,224.75c.41.4.62.99.62,1.75v3.23h-.9v-3.1c0-.55-.14-.96-.41-1.25-.27-.29-.65-.43-1.12-.43s-.86.15-1.15.45c-.28.3-.42.74-.42,1.31v3.03h-.91v-5.48h.91v.78c.18-.28.42-.5.74-.65.31-.15.65-.23,1.02-.23.67,0,1.21.2,1.62.6Z"/><path class="cls-8" d="m455.46,225v3.23c0,.27.06.46.17.56.11.11.31.17.59.17h.67v.77h-.82c-.51,0-.89-.12-1.14-.35-.25-.23-.38-.62-.38-1.15v-3.23h-.71v-.75h.71v-1.38h.91v1.38h1.43v.75h-1.43Z"/><path class="cls-8" d="m465.04,226.24c-.4.38-1,.58-1.81.58h-1.34v2.91h-.91v-6.97h2.25c.79,0,1.38.19,1.79.57s.62.87.62,1.47-.2,1.06-.6,1.45Zm-.7-.49c.24-.23.37-.55.37-.96s-.12-.74-.36-.97c-.24-.23-.61-.34-1.12-.34h-1.34v2.62h1.34c.5,0,.87-.12,1.11-.35Z"/><path class="cls-8" d="m466.71,225.49c.23-.42.54-.75.94-.99.4-.23.84-.35,1.32-.35s.9.1,1.25.31c.35.21.62.47.79.78v-1h.92v5.48h-.92v-1.02c-.18.32-.45.58-.8.79s-.77.32-1.25.32-.93-.12-1.32-.36c-.39-.24-.7-.58-.93-1.01s-.34-.93-.34-1.48.11-1.05.34-1.48Zm4.05.41c-.17-.31-.39-.54-.67-.71s-.59-.25-.93-.25-.65.08-.93.24c-.28.16-.5.39-.67.7-.17.31-.25.67-.25,1.08s.08.78.25,1.09c.17.31.39.55.67.71.28.16.59.25.93.25s.65-.08.93-.25.51-.4.67-.71c.17-.31.25-.67.25-1.08s-.08-.77-.25-1.08Z"/><path class="cls-8" d="m473.55,225.49c.23-.42.54-.75.95-.99.4-.23.87-.35,1.38-.35.67,0,1.23.16,1.67.49.44.33.73.78.87,1.36h-.98c-.09-.33-.27-.6-.54-.79-.27-.19-.6-.29-1-.29-.52,0-.94.18-1.26.53-.32.36-.48.86-.48,1.52s.16,1.17.48,1.53c.32.36.74.54,1.26.54.4,0,.73-.09,1-.28s.45-.45.55-.8h.98c-.15.56-.44,1.01-.88,1.34-.44.34-.99.5-1.65.5-.52,0-.98-.12-1.38-.35s-.72-.56-.95-.99-.34-.93-.34-1.5.11-1.06.34-1.49Z"/><path class="cls-8" d="m482.7,229.73l-2.15-2.42v2.42h-.91v-7.4h.91v4.35l2.11-2.43h1.27l-2.58,2.73,2.59,2.75h-1.24Z"/><rect class="cls-2" x="214.8" y="176.27" width="13.98" height="13.98" rx="1.59" ry="1.59"/><rect class="cls-2" x="376.85" y="132.51" width="13.98" height="13.98" rx="1.59" ry="1.59"/><rect class="cls-2" x="376.85" y="176.27" width="13.98" height="13.98" rx="1.59" ry="1.59"/><rect class="cls-2" x="376.85" y="220.03" width="13.98" height="13.98" rx="1.59" ry="1.59"/></svg>