<?xml version="1.0" encoding="utf-8"?>
<!-- Generator: Adobe Illustrator 28.0.0, SVG Export Plug-In . SVG Version: 6.00 Build 0)  -->
<svg version="1.1" id="Layer_1" xmlns="http://www.w3.org/2000/svg" xmlns:xlink="http://www.w3.org/1999/xlink" x="0px" y="0px"
	 viewBox="0 0 172 28.2" style="enable-background:new 0 0 172 28.2;" xml:space="preserve">
<style type="text/css">
	.st0{clip-path:url(#SVGID_00000005264341980859890460000012657661220833461910_);fill:#FFFFFF;}
	.st1{fill:#FFFFFF;}
	.st2{clip-path:url(#SVGID_00000163758992142501859080000005544571591103862157_);fill:#FFFFFF;}
	.st3{clip-path:url(#SVGID_00000027580546607532766090000004701217548678710933_);fill:#FFFFFF;}
</style>
<g>
	<defs>
		<rect id="SVGID_1_" width="172" height="28.2"/>
	</defs>
	<clipPath id="SVGID_00000013153746082459493060000004902013474334225559_">
		<use xlink:href="#SVGID_1_"  style="overflow:visible;"/>
	</clipPath>
	<path style="clip-path:url(#SVGID_00000013153746082459493060000004902013474334225559_);fill:#FFFFFF;" d="M48.6,6
		c3.2,0,5.9,1.6,7,4.6h-3c-0.8-1.6-2.2-2.4-4-2.4c-3,0-5.2,2.1-5.2,5.6c0,3.4,2.2,5.6,5.2,5.6c1.8,0,3.2-0.8,4-2.4h3
		c-1.2,3-3.9,4.5-7,4.5c-4.3,0-7.7-3.2-7.7-7.7C40.9,9.2,44.4,6,48.6,6"/>
	<path style="clip-path:url(#SVGID_00000013153746082459493060000004902013474334225559_);fill:#FFFFFF;" d="M69.8,19.3
		c3,0,5.2-2.2,5.2-5.6s-2.2-5.6-5.2-5.6c-3,0-5.2,2.1-5.2,5.6S66.8,19.3,69.8,19.3 M69.8,21.5c-4.3,0-7.7-3.2-7.7-7.8
		C62,9.2,65.5,6,69.8,6c4.3,0,7.7,3.2,7.7,7.7C77.5,18.3,74.1,21.5,69.8,21.5"/>
</g>
<polygon class="st1" points="97.2,6.2 97.2,21.3 94.7,21.3 87.3,10 87.3,21.3 84.8,21.3 84.8,6.2 87.3,6.2 94.7,17.4 94.7,6.2 "/>
<polygon class="st1" points="117.8,6.2 117.8,21.3 115.3,21.3 107.8,10 107.8,21.3 105.3,21.3 105.3,6.2 107.8,6.2 115.3,17.4 
	115.3,6.2 "/>
<polygon class="st1" points="134.2,8.2 128.4,8.2 128.4,12.6 133.6,12.6 133.6,14.7 128.4,14.7 128.4,19.3 134.2,19.3 134.2,21.3 
	125.9,21.3 125.9,6.2 134.2,6.2 "/>
<g>
	<defs>
		<rect id="SVGID_00000024693550858951721370000006751108680970624652_" width="172" height="28.2"/>
	</defs>
	<clipPath id="SVGID_00000077287833443784001490000015389517133831249591_">
		<use xlink:href="#SVGID_00000024693550858951721370000006751108680970624652_"  style="overflow:visible;"/>
	</clipPath>
	<path style="clip-path:url(#SVGID_00000077287833443784001490000015389517133831249591_);fill:#FFFFFF;" d="M148.4,6
		c3.2,0,5.9,1.6,7,4.6h-3c-0.8-1.6-2.2-2.4-4-2.4c-3,0-5.2,2.1-5.2,5.6c0,3.4,2.2,5.6,5.2,5.6c1.8,0,3.2-0.8,4-2.4h3
		c-1.2,3-3.9,4.5-7,4.5c-4.3,0-7.7-3.2-7.7-7.7C140.6,9.2,144.1,6,148.4,6"/>
</g>
<polygon class="st1" points="161.4,6.2 161.4,8.2 165.5,8.2 165.5,21.3 168,21.3 168,8.2 172,8.2 172,6.2 "/>
<g>
	<defs>
		<rect id="SVGID_00000158727448295758399910000009370568830287375768_" width="172" height="28.2"/>
	</defs>
	<clipPath id="SVGID_00000044885022711779994650000007652204892632977315_">
		<use xlink:href="#SVGID_00000158727448295758399910000009370568830287375768_"  style="overflow:visible;"/>
	</clipPath>
	<path style="clip-path:url(#SVGID_00000044885022711779994650000007652204892632977315_);fill:#FFFFFF;" d="M20.7,23.4
		c-1.2,0-2.2-0.7-2.6-1.7h-9c-2.3,0-4.2-1.9-4.2-4.2c0-2.3,1.9-4.2,4.2-4.2h10c1.1,0,2.1-0.9,2.1-2.1c0-1.1-0.9-2.1-2.1-2.1H9.8
		c-0.5,0.8-1.4,1.3-2.3,1.3c-1.6,0-2.8-1.3-2.8-2.8C4.7,6,6,4.8,7.5,4.8c1.3,0,2.4,0.9,2.7,2.2h8.9c2.3,0,4.2,1.9,4.2,4.2
		c0,2.3-1.9,4.2-4.2,4.2h-10c-1.1,0-2.1,0.9-2.1,2.1c0,1.1,0.9,2.1,2.1,2.1h9c0.4-1,1.4-1.7,2.6-1.7c1.5,0,2.8,1.3,2.8,2.8
		C23.5,22.1,22.2,23.4,20.7,23.4 M22.8,0H5.3C2.4,0,0,2.4,0,5.3v17.5c0,2.9,2.4,5.3,5.3,5.3h17.5c2.9,0,5.3-2.4,5.3-5.3V5.3
		C28.2,2.4,25.8,0,22.8,0"/>
</g>
</svg>
