<?xml version="1.0" encoding="utf-8"?>
<!-- Generator: Adobe Illustrator 28.0.0, SVG Export Plug-In . SVG Version: 6.00 Build 0)  -->
<svg version="1.1" id="Layer_1" xmlns="http://www.w3.org/2000/svg" xmlns:xlink="http://www.w3.org/1999/xlink" x="0px" y="0px"
	 viewBox="0 0 400 120" style="enable-background:new 0 0 400 120;" xml:space="preserve">
<style type="text/css">
	.st0{fill:#26ABE3;}
</style>
<g>
	<path class="st0" d="M87.2,43.7c-0.5-1.1-1.4-2.6-2.7-3.7c-0.5-0.5-1.3-0.9-2.2-1.1c-0.7-0.2-1.4-0.4-2.2-0.4H80
		c-0.9,0-2.7,0.2-3.8,1.6c-0.5,0.5-0.7,1.5-0.5,2.4c0.2,0.7,0.5,1.3,1.3,1.5c0,0,0.2,0,0.5,0.2c-0.2,0-0.4,0.4-0.4,0.4
		c-0.4,0.5-1.3,1.5-3.8,1.5h-0.2c-1.3,0-2.3-0.4-3.6-2c-0.7-1.1-1.3-2.7-1.3-5.7c0-1.5-0.2-2.7-0.5-3.7c-0.2-0.7-0.7-1.3-1.3-1.6
		c-0.4-0.4-0.9-0.5-1.6-0.7c-0.7-0.5-1.8-0.5-2.7-0.5c-1.1,0-1.6,0.2-2,0.7c0,0,0,0.2-0.2,0.2h-0.7c-0.5,0-1.1,0.2-1.6,0.2
		c-1.1,0.2-1.6,0.5-2.3,1.1c-0.2,0.2-0.7,0.7-0.9,1.5c-0.2,0.5,0,0.9,0.2,1.1c0,0,0,0.2,0.2,0.2c0.4-0.4,0.9-0.5,1.8-0.5
		c1.1,0,2.7,0.5,3.3,1.5c0.7,1.3,0.5,2.2,0.4,3.5c-0.4,3.1-1.6,4.8-4,5.1h-1.3c-1.8,0-3.1-0.5-3.6-1.6c-0.4-0.4-0.4-0.5-0.4-0.5
		s0.2,0,0.4-0.2c0.7-0.4,1.1-0.7,1.3-1.5c0.2-0.7,0-1.6-0.5-2.4c-0.9-0.9-2.2-1.5-3.8-1.5c-0.9,0-1.6,0.2-2.2,0.4
		c-2.2,0.5-3.8,2-5.1,4.8c-0.9,1.8-1.6,4.4-1.8,6.9c-0.2,2.6-0.2,4.8,0,6.8c0.4,3.3,0.9,5.3,1.6,7.3c0.7,2.2,1.8,4.2,2.9,6
		c0.4,0.7,0.5,1.1,0.7,1.3c0.2-0.2,0.4-0.4,0.5-0.7c0.4-0.4,1.6-2,2-2.6c0.5-0.4,1.1-1.5,1.4-2.2l0.2-0.4l0.4,0.4
		c0.4,0.4,0.5,0.7,0.5,1.3s-0.2,1.1-0.4,2.2c-0.4,1.1-0.9,2.6-1.6,3.7c0,0.2-0.2,0.4-0.2,0.4c-0.4,0.7-0.5,1.1-0.4,1.3
		c0.2,0,0.7-0.2,1.3-0.7c0.5-0.4,1.8-1.5,3.4-3.8c1.3-1.6,2.2-3.5,3.1-5.5l0.2-0.4l0.4,0.2c0.2,0,0.4,0.2,0.4,0.4
		c0.2,0.4,0.2,0.7,0.2,1.3c-0.2,1.3-0.9,3.1-1.4,4.4c-0.9,2.2-2.7,4.8-4,6.6c0,0-0.4,0.4-0.4,0.5c0.2,0.2,0.4,0.4,0.7,0.5l0.5,0.4
		c1.8,1.5,3.4,2.7,5.6,3.8c1.6,0.9,5.1,2.7,7.2,3.3c2.2-0.5,5.6-2.4,7.2-3.3c2.2-1.3,3.8-2.4,5.6-3.8l0.5-0.4
		c0.4-0.2,0.5-0.5,0.7-0.5c0,0-0.2-0.2-0.2-0.4l-0.2-0.2c-1.3-1.8-3.1-4.4-4-6.6c-0.5-1.3-1.3-3.3-1.4-4.4c0-0.5,0-0.9,0.2-1.3
		c0-0.2,0.2-0.2,0.4-0.4s0.4-0.2,0.4-0.2l0.2,0.4c0.9,2,2,3.7,3.1,5.5c1.6,2.4,2.9,3.5,3.4,3.8c0.5,0.4,1.1,0.7,1.3,0.7h0.2
		c0.2-0.2,0-0.5-0.4-1.3c0-0.2-0.2-0.4-0.2-0.4c-0.7-1.3-1.3-2.6-1.6-3.7c-0.4-1.1-0.5-1.6-0.5-2.2s0.2-1.1,0.5-1.3l0.4-0.2l0.2,0.4
		c0.4,0.7,1.1,1.8,1.3,2.2c0.4,0.5,1.6,2,2,2.6l0.5,0.5c0.2-0.2,0.4-0.5,0.7-1.1v-0.2c1.1-1.8,2-3.8,2.9-6c0.7-2.2,1.3-4,1.6-7.3
		c0.2-2,0.4-4.2,0-6.8C88.8,48.1,88.3,45.5,87.2,43.7"/>
	<path class="st0" d="M274.8,62.5l6.5-14.1l4,14.1H274.8z M292.7,61.5l-1.6-6.2c-0.7-2.7-4.3-15.9-4.3-15.9H278
		c0.4,0.4,0.5,1.3,0.5,2.2c0,1.1-2.5,6.8-5.2,12.4l-2.7,6c-2,4.6-4.2,8.8-6.1,12.2c-3.1,2-4.7,2.2-11.2,2.2c-1.8,0-2.5-0.4-2.5-2.2
		c0-4,0.5-8,0.7-12.1l0.2-2.4c0.7-10.8,1.3-17.4,2.9-18.3h-10.8c0.7,0.9,0.9,2.4,1.1,5.1c0,3.3-0.2,7.9-0.7,14.1l-0.2,2.6
		c-0.7,10.8-1.3,16.6-2.9,18.4h28.2c-0.2-0.4-0.2-1.3-0.2-1.8c0-2.2,1.6-5.3,2.7-7.9l0.9-1.6h4.7c4.7,0,7.6-0.5,9.4-1.3l0.9,3.5
		c2.7,9.5,3.1,9.7,6.5,9.7c1.1,0,4-0.2,6.1-0.4C297.4,77.3,295.5,72.2,292.7,61.5 M215.2,60.5c0-8,3.4-17.4,11.9-17.4
		c4.3,0,7.6,2.4,9.4,6l1.1-10.2c-3.4,0-5.4-0.7-9.7-0.7c-13.7,0-20.9,10.4-20.9,23.7c0,9.7,6,18.3,16.3,18.3c7.9,0,12.6-4,14.8-10.8
		c-5.1,3.7-8.1,4.6-11.6,4.6C220.1,74.1,215.2,69.3,215.2,60.5 M145.2,62.5l6.5-14.1l4,14.1H145.2z M163,61.5l-1.6-6.2
		c-2-7.3-4.3-15.9-4.3-15.9h-8.7c0.4,0.4,0.5,1.3,0.5,2.2c0,0.9-2.7,6.9-5.2,12.4l-2.7,6c-4.9,10.4-8.3,16.8-11,19.5h9.6
		c-0.2-0.4-0.2-1.3-0.2-1.8c0-2.2,2-6,2.7-7.9l0.9-1.6h4.7c4.7,0,7.6-0.5,9.4-1.3l0.9,3.5c2.7,9.5,3.1,9.7,6.5,9.7
		c1.1,0,3.8-0.2,6.1-0.4C167.9,77.3,166.1,72.2,163,61.5 M185.2,56.5c-0.5,0-1.3,0-1.8-0.2l0.2-2.7c0.4-4.8,0.5-7.9,0.9-9.5
		c0.9-0.2,2.2-0.2,3.1-0.2c3.8,0,6,1.8,6,4.9C193.5,53.6,190.1,56.5,185.2,56.5 M202,72.8l-8.1-11c-0.5-0.7-1.4-2-2-2.4
		c5.2-1.6,9.6-5.1,9.6-11.5c0-7.9-6.7-8.6-11.4-8.6h-14.8c0.7,0.4,1.1,2.2,1.1,5.1c0,3.3-0.2,7.9-0.7,14.1l-0.2,2.6
		c-0.9,12.4-1.4,17.2-3.1,18.4h10.8c-0.7-0.4-1.1-2.4-1.1-5.1c0-2.4,0.2-5.7,0.4-9.9l0.2-2.9h0.2c1.4,0,2,0.9,2.9,2L197,79.4
		c0.9,1.3,1.6,1.8,4.7,1.8c2,0,5.1-0.2,7.2-0.4C207.6,79.9,207.1,79.5,202,72.8 M318.8,57.8c2-3.3,11.2-18.1,13.4-18.4h-10.6
		c0.4,0.4,0.5,1.5,0.5,2.4c0,1.3-0.5,2.4-1.1,3.5c-2.5,4-4.3,7.1-7.2,11.3c-1.1-3.3-3.1-7.7-5.6-13.7c-1.6-3.7-2.3-4-5.1-4
		c-1.4,0-4.7,0.2-7,0.4c1.4,0.7,3.6,4.2,5.6,7.9c3.1,5.8,5.1,10.8,6.5,15.9c0.2,3.5-0.7,14.8-2.5,16.6h10.8
		c-0.9-0.9-1.1-3.3-1.1-5.1c0-4.4,0.4-8.4,0.9-11.3C316.7,61.5,317.9,59.4,318.8,57.8 M347.2,56.2c-4-2.6-7.8-4.7-7.8-7.7
		c0-3.7,3.1-5.1,6.5-5.1c4,0,7.4,2.4,9,5.3l1.1-9.5c-2.7,0-5.4-0.7-9.7-0.7c-7.4,0-14.6,2.9-14.6,11.5c0,5.8,4.2,8.9,10.7,13
		c3.1,1.8,5.6,3.8,5.6,6.8c0,3.7-3.1,5.7-7.2,5.7c-5.4,0-9-3.1-11-7.3l-0.7,10c4.2,1.6,7.8,2.2,11.2,2.2c8.5,0,15.7-4.7,15.7-12.2
		C355.8,62.2,351.5,58.9,347.2,56.2 M113.9,74.4c-2.7,0-3.8-0.7-3.8-1.1c0-2.6,0.2-4.6,0.4-7.3l0.4-5.8h2.9c5.2,0,9.4,1.6,9.4,6.9
		C123.1,71.9,119.5,74.4,113.9,74.4 M111.4,52.7c0.2-2.9,0.5-5.8,0.9-8.6c0.9-0.2,2-0.2,2.7-0.2c4.7,0,6.9,2,6.9,4.8
		c0,4.7-4.7,6.6-9.7,6.6h-0.9L111.4,52.7z M120.6,56.7c4.3-1.1,9.2-4.2,9.2-9.5c0-7.9-7.4-7.9-11.2-7.9h-15.5
		c0.7,0.4,1.1,2.4,1.1,5.1c0,3.3-0.2,7.9-0.7,14.1l-0.2,2.6c-0.7,10.8-1.1,17-2.9,18.4h13.9c10.7,0,17.2-5.5,17.2-12.6
		C131.6,60.4,126.9,57.4,120.6,56.7"/>
</g>
</svg>
