<?xml version="1.0" encoding="UTF-8"?><svg id="Layer_1" xmlns="http://www.w3.org/2000/svg" xmlns:xlink="http://www.w3.org/1999/xlink" viewBox="0 0 288 100"><defs><style>.cls-1{fill:url(#linear-gradient-3);}.cls-2{fill:url(#linear-gradient-2);}.cls-3{fill:url(#linear-gradient);}.cls-4{fill:#e90000;}.cls-5{fill:#3c1053;}.cls-6{fill:#c20000;}</style><linearGradient id="linear-gradient" x1="-147.62" y1="448.94" x2="-147.12" y2="448.77" gradientTransform="translate(4458.2 7784.32) scale(29.84 -17.23)" gradientUnits="userSpaceOnUse"><stop offset="0" stop-color="#c20000" stop-opacity=".1"/><stop offset=".24" stop-color="#c20000" stop-opacity=".2"/><stop offset=".72" stop-color="#c20000" stop-opacity=".44"/><stop offset="1" stop-color="#c20000" stop-opacity=".6"/></linearGradient><linearGradient id="linear-gradient-2" x1="-147.16" y1="449.01" x2="-147.51" y2="448.77" gradientTransform="translate(4443.58 7781.33) scale(29.85 -17.24)" gradientUnits="userSpaceOnUse"><stop offset="0" stop-color="#c20000" stop-opacity=".1"/><stop offset=".2" stop-color="#c20000" stop-opacity=".2"/><stop offset=".61" stop-color="#c20000" stop-opacity=".44"/><stop offset="1" stop-color="#c20000" stop-opacity=".7"/></linearGradient><linearGradient id="linear-gradient-3" x1="-142.3" y1="459.85" x2="-142.09" y2="459.43" gradientTransform="translate(2166.08 15903.4) scale(14.93 -34.47)" gradientUnits="userSpaceOnUse"><stop offset="0" stop-color="#c20000" stop-opacity=".1"/><stop offset=".2" stop-color="#c20000" stop-opacity=".2"/><stop offset=".61" stop-color="#c20000" stop-opacity=".44"/><stop offset="1" stop-color="#c20000" stop-opacity=".7"/></linearGradient></defs><g id="Page-1"><g id="Natwest_Secondary_Horizontal_RGB_NEG"><g id="NatWest-Horizontal"><path id="NatWest-Wordmark" class="cls-5" d="M191.22,43.59v4.99h-6.08v12.99c0,2.32,1.1,2.77,3.12,2.77,1.18,0,2.08-.23,2.5-.36l.45-.14v5l-.25.06c-1.7.43-3.13.58-5.23.58-1.46,0-6.2-.48-6.2-6.71v-14.19h-3.57v-.34c0-.24,0-1.95,0-3.55v-1.1h3.57v-6.4l5.61-1.96v8.36h6.08ZM228.91,35.44l-6.72,33.5h-5.7l-5.94-23.33-6.03,23.33h-5.61l-7.02-33.5h5.86l4.55,22.73,5.66-22.73h5.46c.54,2.12,5.67,22.45,5.73,22.7.04-.27,4.03-21.96,4.17-22.7h5.59ZM234.72,53.64c.14-2.39,1.83-5.51,5.4-5.51,3.87,0,5.05,3.42,5.18,5.51h-10.58ZM240.38,43.14c-4.28,0-11.5,2.79-11.5,13.25,0,12.46,9.91,13.09,11.9,13.09,4.21,0,6.09-.88,7.93-1.74l.2-.09v-5.3l-.53.32c-1.34.84-3.94,1.78-6.85,1.78-5.89,0-6.72-4.21-6.8-5.99h16.19l.03-.29c.51-3.5,0-8.39-2.86-11.72-1.9-2.19-4.49-3.31-7.71-3.31M271.7,61.88c0,3.8-3.31,7.64-9.6,7.64-2.76,0-5.81-.69-8-1.74l-.2-.1v-5.44l.52.28c1.82.98,4.74,2.02,7.53,2.02,2.54,0,4-.91,4-2.5,0-1.5-.9-1.96-3.11-2.94l-.87-.37c-1.07-.46-2.01-.87-3.55-1.58-1.48-.67-4.93-2.22-4.93-6.85,0-2.49,1.91-7.17,9.08-7.17,2.96,0,5.88.8,7.04,1.36l.2.1v5.34l-.52-.24c-2.29-1.13-4.3-1.65-6.52-1.65-.82,0-3.53.16-3.53,2.06,0,1.44,1.71,2.19,3.09,2.81l.27.11c.99.44,1.77.8,2.45,1.07l.72.31c4.32,1.89,5.93,3.9,5.93,7.48M144.94,35.43h5.48v33.5h-5.33l-14.62-23.33v23.33h-5.47v-33.5h5.46l14.47,23.51v-23.51h0ZM281.42,48.57v12.99c0,2.33,1.09,2.77,3.13,2.77,1.16,0,2.04-.23,2.49-.35l.46-.15v5l-.29.06c-1.68.43-3.1.58-5.21.58-1.46,0-6.18-.48-6.18-6.71v-14.19h-3.59v-.34c-.01-.24-.01-1.95,0-3.55v-1.1h3.59v-6.4l5.59-1.96v8.36h6.08v4.99h-6.08ZM168.77,61.54c-.64.79-2.66,2.89-5.8,2.89-2.41,0-3.95-1.39-3.95-3.53s1.76-3.46,4.82-3.46h4.93v4.11h0ZM164.45,43.06c-2.85,0-5.61.49-7.56,1.34l-.22.08v5.16l.51-.26c1.32-.64,4.47-1.22,6.44-1.22,4.92,0,5.14,1.87,5.15,4.31h-5.26c-6.97,0-10.14,4.37-10.14,8.42,0,5.65,4.49,8.58,8.95,8.58,3.04,0,4.95-1.14,6.49-2.5v1.97h5.55v-17.13c0-7.9-6.93-8.75-9.91-8.75"/><g id="NatWest-Brandmark"><path id="Path" class="cls-5" d="M100,50c0,46.37-3.63,50-50,50S0,96.37,0,50,3.63,0,50,0s50,3.63,50,50Z"/><g id="Group"><polygon id="Path-2" class="cls-4" points="64.94 60.99 45.04 60.99 54.98 78.23 74.88 78.23 74.89 78.23 74.89 78.23 64.94 60.99"/><polygon id="Path-3" class="cls-6" points="74.88 43.77 84.83 61 74.89 78.23 64.94 60.99 74.88 43.77"/><polygon id="Path-4" class="cls-4" points="59.95 17.91 59.95 17.91 40.05 17.91 30.11 35.13 50.01 35.13 50.01 35.13 59.95 17.91"/><polygon id="Path-5" class="cls-6" points="50.01 35.13 59.96 52.37 69.9 35.14 59.95 17.91 50.01 35.13"/><polygon id="Path-6" class="cls-4" points="35.08 60.99 35.08 60.99 45.02 43.77 25.12 43.77 15.18 60.99 15.18 60.99 15.17 61 35.08 60.99"/><polygon id="Path-7" class="cls-6" points="45.02 78.23 45.02 78.23 25.12 78.23 15.17 61 15.18 60.99 35.08 60.99 45.02 78.23"/></g><polygon id="Path-8" class="cls-3" points="64.92 43.77 59.95 52.37 50 52.37 50 52.37 45.04 60.99 64.94 60.99 74.88 43.77 64.92 43.77"/><polygon id="Path-9" class="cls-2" points="35.1 43.77 45.02 43.77 50 52.37 50 52.37 59.95 52.37 50.01 35.13 30.11 35.13 35.1 43.77"/><polygon id="Path-10" class="cls-1" points="50 69.59 45.04 60.99 50 52.37 50 52.37 45.02 43.77 35.08 60.99 45.02 78.23 50 69.59"/></g></g></g></g></svg>