<?xml version="1.0" encoding="utf-8"?>
<!-- Generator: Adobe Illustrator 28.0.0, SVG Export Plug-In . SVG Version: 6.00 Build 0)  -->
<svg version="1.1" id="Layer_1" xmlns="http://www.w3.org/2000/svg" xmlns:xlink="http://www.w3.org/1999/xlink" x="0px" y="0px"
	 viewBox="0 0 400 120" style="enable-background:new 0 0 400 120;" xml:space="preserve">
<style type="text/css">
	.st0{fill:#F28A24;}
	.st1{fill:#ED6E26;}
	.st2{fill:#919499;}
</style>
<g>
	<path class="st0" d="M150.3,44.1v-7.6c-0.9-0.2-2-0.4-3.1-0.4c-3.1,0-4.6,1.8-4.6,5.3v2.7H150.3z M156,54.3
		c-0.4,0.1-0.8,0.2-1.3,0.2c-0.5,0-1,0.1-1.6,0.1c-1.1,0-2.1-0.1-2.9-0.3v-5.6h-7.7v5.6c-0.4,0.1-0.9,0.2-1.3,0.2
		c-0.5,0-1,0.1-1.6,0.1c-1.1,0-2.1-0.1-2.9-0.3V41c0-3.3,1-5.7,2.9-7.4c1.9-1.6,4.7-2.5,8.3-2.5c1.3,0,2.7,0.1,4.2,0.4
		c1.5,0.3,2.8,0.6,3.9,1V54.3z"/>
	<path class="st0" d="M176.5,48.9c0.3,0.5,0.5,1.2,0.8,2.1c0.2,0.9,0.4,1.8,0.5,2.6c-0.8,0.3-1.7,0.6-2.7,0.8
		c-1,0.2-2.2,0.4-3.7,0.4c-1.9,0-3.6-0.3-5-0.9c-1.4-0.6-2.6-1.4-3.6-2.4c-1-1.1-1.7-2.3-2.2-3.7c-0.5-1.4-0.7-3-0.7-4.7
		c0-1.8,0.2-3.3,0.7-4.8c0.5-1.4,1.2-2.7,2.2-3.7c1-1,2.2-1.9,3.6-2.4c1.4-0.6,3.1-0.9,5-0.9c1.5,0,2.7,0.1,3.7,0.3
		c1,0.2,1.9,0.5,2.7,0.8c-0.1,0.9-0.3,1.8-0.5,2.7c-0.2,0.9-0.5,1.6-0.8,2.1c-0.7-0.2-1.4-0.4-2.1-0.6c-0.7-0.2-1.6-0.3-2.6-0.3
		c-0.8,0-1.6,0.1-2.3,0.4c-0.7,0.2-1.3,0.6-1.9,1.2c-0.5,0.5-0.9,1.2-1.2,2.1c-0.3,0.9-0.5,1.9-0.5,3.2c0,1.3,0.2,2.3,0.5,3.2
		c0.3,0.9,0.7,1.6,1.2,2.1c0.5,0.5,1.1,0.9,1.9,1.1c0.7,0.2,1.5,0.4,2.3,0.4c1,0,1.9-0.1,2.6-0.3C175.1,49.3,175.8,49.1,176.5,48.9"
		/>
	<path class="st0" d="M196.2,48.9c0.3,0.5,0.5,1.2,0.8,2.1c0.2,0.9,0.4,1.8,0.5,2.6c-0.8,0.3-1.7,0.6-2.7,0.8
		c-1,0.2-2.2,0.4-3.7,0.4c-1.9,0-3.6-0.3-5-0.9c-1.4-0.6-2.6-1.4-3.6-2.4c-1-1.1-1.7-2.3-2.2-3.7c-0.5-1.4-0.7-3-0.7-4.7
		c0-1.8,0.2-3.3,0.7-4.8c0.5-1.4,1.2-2.7,2.2-3.7c1-1,2.2-1.9,3.6-2.4c1.4-0.6,3.1-0.9,5-0.9c1.5,0,2.7,0.1,3.7,0.3
		c1,0.2,1.9,0.5,2.7,0.8c-0.1,0.9-0.3,1.8-0.5,2.7c-0.2,0.9-0.5,1.6-0.8,2.1c-0.7-0.2-1.4-0.4-2.1-0.6c-0.7-0.2-1.6-0.3-2.6-0.3
		c-0.8,0-1.6,0.1-2.3,0.4c-0.7,0.2-1.3,0.6-1.9,1.2c-0.5,0.5-0.9,1.2-1.2,2.1c-0.3,0.9-0.5,1.9-0.5,3.2c0,1.3,0.2,2.3,0.5,3.2
		c0.3,0.9,0.7,1.6,1.2,2.1c0.5,0.5,1.1,0.9,1.9,1.1c0.7,0.2,1.5,0.4,2.3,0.4c1,0,1.9-0.1,2.6-0.3C194.8,49.3,195.5,49.1,196.2,48.9"
		/>
	<path class="st0" d="M205.3,43c0,2.3,0.4,4,1.2,5.3c0.8,1.2,2.1,1.9,3.7,1.9c1.7,0,2.9-0.6,3.7-1.9c0.8-1.2,1.3-3,1.3-5.3
		c0-2.3-0.4-4-1.3-5.2c-0.8-1.2-2.1-1.8-3.7-1.8c-1.7,0-2.9,0.6-3.7,1.8C205.7,39,205.3,40.7,205.3,43 M210.3,54.9
		c-1.8,0-3.4-0.3-4.8-0.9c-1.4-0.6-2.5-1.4-3.4-2.5c-0.9-1-1.6-2.3-2.1-3.7c-0.5-1.4-0.7-3-0.7-4.7c0-1.8,0.2-3.3,0.7-4.8
		c0.5-1.4,1.2-2.7,2.1-3.7c0.9-1.1,2.1-1.9,3.4-2.5c1.4-0.6,3-0.9,4.8-0.9c1.8,0,3.4,0.3,4.8,0.9c1.4,0.6,2.5,1.4,3.4,2.5
		c0.9,1,1.6,2.3,2.1,3.7c0.5,1.4,0.7,3,0.7,4.8c0,1.7-0.2,3.3-0.7,4.7c-0.5,1.4-1.2,2.7-2.1,3.7c-0.9,1.1-2.1,1.9-3.4,2.5
		C213.7,54.6,212.1,54.9,210.3,54.9"/>
	<path class="st0" d="M245.7,54.3c-0.5,0.1-1.1,0.2-1.7,0.2c-0.6,0-1.2,0.1-1.7,0.1c-0.5,0-1.1,0-1.7-0.1c-0.6,0-1.2-0.1-1.7-0.2
		l-5.9-10c1.7-0.6,2.9-1.3,3.8-2.2c0.9-0.9,1.3-1.9,1.3-3.2c0-2.3-1.6-3.5-4.8-3.5c-0.3,0-0.7,0-1,0c-0.4,0-0.7,0.1-1.2,0.1v18.7
		c-0.4,0.1-0.9,0.2-1.3,0.2c-0.5,0-1,0.1-1.6,0.1c-1.1,0-2.1-0.1-2.9-0.3V31.7c1.4-0.1,2.8-0.3,4.3-0.4c1.5-0.1,2.7-0.2,3.8-0.2
		c3.5,0,6.2,0.6,8.1,1.8c1.9,1.2,2.8,3.1,2.8,5.5c0,1.4-0.4,2.7-1.2,3.9c-0.8,1.2-2,2.2-3.5,2.9L245.7,54.3z"/>
	<path class="st0" d="M254.2,49.8c0.5,0.1,0.9,0.1,1.3,0.1c0.4,0,0.8,0,1.3,0c1.8,0,3.2-0.5,4.2-1.7s1.5-2.9,1.5-5.3
		c0-2.4-0.5-4.2-1.5-5.3c-1-1.1-2.4-1.6-4.2-1.6c-0.5,0-0.9,0-1.3,0c-0.4,0-0.8,0.1-1.3,0.1V49.8z M248.3,31.7
		c0.5-0.1,1.1-0.2,1.8-0.2c0.7-0.1,1.4-0.1,2.1-0.2c0.7,0,1.4-0.1,2-0.1c0.7,0,1.3,0,1.8,0c2.2,0,4.1,0.3,5.7,0.9
		c1.6,0.6,2.9,1.4,3.9,2.4c1,1,1.8,2.3,2.3,3.7c0.5,1.4,0.7,3,0.7,4.8c0,1.7-0.2,3.3-0.7,4.8c-0.5,1.4-1.2,2.7-2.3,3.7
		c-1,1-2.3,1.9-3.9,2.4c-1.6,0.6-3.5,0.9-5.7,0.9c-0.5,0-1.1,0-1.8,0c-0.7,0-1.3-0.1-2-0.1c-0.7,0-1.4-0.1-2.1-0.2
		c-0.7-0.1-1.3-0.1-1.8-0.2V31.7z"/>
	<path class="st1" d="M151,81c-0.6,0.1-1.3,0.2-1.9,0.2c-0.7,0-1.4-0.1-1.9-0.2c-0.6-1.8-1.4-3.6-2.2-5.3c-0.8-1.7-1.6-3.2-2.5-4.5
		l-0.2,14.5c-0.4,0.1-0.9,0.2-1.3,0.2c-0.4,0-0.9,0.1-1.5,0.1c-1.1,0-2.1-0.1-2.9-0.3l0.4-22.6c0.7-0.2,1.6-0.3,2.7-0.3
		c1,0,1.9,0.1,2.7,0.3c0.5,0.6,1,1.4,1.6,2.3c0.6,0.9,1.2,1.9,1.8,2.9c0.6,1,1.2,2.1,1.7,3.3c0.6,1.1,1.1,2.2,1.6,3.3
		c0.4-1.1,0.9-2.2,1.5-3.3c0.5-1.1,1.1-2.2,1.7-3.3c0.6-1.1,1.1-2,1.7-2.9c0.6-0.9,1.1-1.7,1.6-2.3c0.4-0.1,0.8-0.2,1.2-0.2
		c0.4,0,0.9-0.1,1.4-0.1c1,0,1.9,0.1,2.7,0.3l0.4,22.6c-0.8,0.2-1.8,0.3-2.9,0.3c-0.6,0-1,0-1.5-0.1c-0.4,0-0.9-0.1-1.3-0.2
		l-0.2-14.6c-0.8,1.4-1.6,2.9-2.4,4.6C152.2,77.4,151.5,79.2,151,81"/>
	<path class="st1" d="M170.9,74.4c0,2.3,0.4,4,1.2,5.3s2.1,1.9,3.7,1.9c1.7,0,2.9-0.6,3.7-1.9c0.8-1.2,1.3-3,1.3-5.3
		c0-2.3-0.4-4-1.3-5.2c-0.8-1.2-2.1-1.8-3.7-1.8c-1.7,0-2.9,0.6-3.7,1.8C171.3,70.4,170.9,72.1,170.9,74.4 M175.9,86.2
		c-1.8,0-3.4-0.3-4.8-0.9c-1.4-0.6-2.5-1.4-3.4-2.5c-0.9-1-1.6-2.3-2.1-3.7c-0.5-1.4-0.7-3-0.7-4.7c0-1.7,0.2-3.3,0.7-4.8
		c0.5-1.4,1.2-2.7,2.1-3.7c0.9-1.1,2.1-1.9,3.4-2.5c1.4-0.6,3-0.9,4.8-0.9c1.8,0,3.4,0.3,4.8,0.9c1.4,0.6,2.5,1.4,3.4,2.5
		c0.9,1,1.6,2.3,2.1,3.7c0.5,1.4,0.7,3,0.7,4.8c0,1.7-0.2,3.3-0.7,4.7c-0.5,1.4-1.2,2.7-2.1,3.7c-0.9,1.1-2.1,1.9-3.4,2.5
		C179.3,85.9,177.7,86.2,175.9,86.2"/>
	<path class="st1" d="M211.2,85.7c-0.5,0.1-1.1,0.2-1.7,0.2c-0.6,0-1.2,0.1-1.7,0.1c-0.5,0-1.1,0-1.7-0.1c-0.6,0-1.2-0.1-1.7-0.2
		l-5.9-10c1.7-0.6,2.9-1.3,3.8-2.2c0.9-0.9,1.3-1.9,1.3-3.2c0-2.3-1.6-3.5-4.8-3.5c-0.3,0-0.7,0-1,0c-0.3,0-0.7,0.1-1.2,0.1v18.7
		c-0.4,0.1-0.9,0.2-1.3,0.2c-0.5,0-1,0.1-1.5,0.1c-1.1,0-2.1-0.1-2.9-0.3V63.1c1.4-0.1,2.8-0.3,4.3-0.4c1.5-0.1,2.7-0.2,3.8-0.2
		c3.5,0,6.2,0.6,8.1,1.8c1.9,1.2,2.8,3.1,2.8,5.5c0,1.4-0.4,2.7-1.2,3.9c-0.8,1.2-2,2.2-3.5,2.9L211.2,85.7z"/>
	<path class="st1" d="M212.2,63.1h19.3c0.1,0.4,0.2,0.8,0.2,1.2c0,0.4,0.1,0.8,0.1,1.2c0,0.4,0,0.8-0.1,1.2c0,0.4-0.1,0.8-0.2,1.2
		h-6.7v17.7c-0.9,0.2-1.9,0.3-3,0.3c-1.1,0-2.1-0.1-3-0.3V68h-6.7c-0.1-0.4-0.2-0.8-0.2-1.2c0-0.4-0.1-0.8-0.1-1.2
		c0-0.4,0-0.8,0.1-1.2C212.1,63.9,212.1,63.5,212.2,63.1"/>
	<path class="st1" d="M247.5,74.2c0.4-0.1,0.8-0.2,1.4-0.2c0.5,0,1-0.1,1.4-0.1c0.4,0,0.9,0,1.4,0.1c0.5,0,1,0.1,1.4,0.2v10.9
		c-0.8,0.3-1.9,0.6-3.2,0.8c-1.3,0.2-2.8,0.3-4.5,0.3c-2,0-3.8-0.3-5.2-0.9c-1.5-0.6-2.7-1.4-3.7-2.4c-1-1-1.7-2.3-2.2-3.7
		s-0.7-3-0.7-4.7c0-1.7,0.2-3.3,0.7-4.8c0.5-1.4,1.2-2.7,2.2-3.7c1-1,2.2-1.9,3.7-2.4c1.5-0.6,3.2-0.9,5.2-0.9
		c1.2,0,2.3,0.1,3.4,0.3c1.1,0.2,2.1,0.5,3.2,0.9c-0.1,0.9-0.3,1.7-0.5,2.6c-0.2,0.9-0.5,1.6-0.8,2.1c-0.7-0.2-1.4-0.4-2.2-0.6
		c-0.8-0.2-1.7-0.3-2.7-0.3c-0.9,0-1.8,0.1-2.6,0.3c-0.8,0.2-1.4,0.6-2,1.2c-0.6,0.5-1,1.2-1.3,2.1c-0.3,0.9-0.5,1.9-0.5,3.2
		c0,1.2,0.1,2.3,0.4,3.1c0.3,0.9,0.7,1.6,1.3,2.1c0.6,0.5,1.2,0.9,2,1.2c0.8,0.2,1.6,0.4,2.5,0.4c0.4,0,0.7,0,1,0
		c0.3,0,0.6-0.1,0.7-0.1V74.2z"/>
	<path class="st1" d="M270.7,75.5v-7.6c-0.9-0.2-2-0.4-3.1-0.4c-3.1,0-4.6,1.8-4.6,5.3v2.7H270.7z M276.4,85.7
		c-0.4,0.1-0.8,0.2-1.3,0.2c-0.5,0-1,0.1-1.6,0.1c-1.1,0-2.1-0.1-2.9-0.3v-5.6H263v5.6c-0.4,0.1-0.8,0.2-1.3,0.2
		c-0.5,0-1,0.1-1.6,0.1c-1.1,0-2.1-0.1-2.9-0.3V72.4c0-3.3,1-5.7,2.9-7.4c1.9-1.6,4.7-2.5,8.3-2.5c1.3,0,2.7,0.1,4.2,0.4
		c1.5,0.3,2.8,0.6,3.9,1V85.7z"/>
	<path class="st1" d="M294.1,74.2c0.4-0.1,0.8-0.2,1.4-0.2c0.5,0,1-0.1,1.4-0.1s0.9,0,1.4,0.1c0.5,0,1,0.1,1.4,0.2v10.9
		c-0.8,0.3-1.9,0.6-3.2,0.8c-1.3,0.2-2.8,0.3-4.5,0.3c-2,0-3.8-0.3-5.2-0.9c-1.5-0.6-2.7-1.4-3.7-2.4c-1-1-1.7-2.3-2.2-3.7
		c-0.5-1.4-0.7-3-0.7-4.7c0-1.7,0.2-3.3,0.7-4.8c0.5-1.4,1.2-2.7,2.2-3.7c1-1,2.2-1.9,3.7-2.4c1.5-0.6,3.2-0.9,5.2-0.9
		c1.2,0,2.3,0.1,3.4,0.3c1.1,0.2,2.1,0.5,3.2,0.9c-0.1,0.9-0.3,1.7-0.5,2.6c-0.2,0.9-0.5,1.6-0.8,2.1c-0.7-0.2-1.4-0.4-2.2-0.6
		c-0.8-0.2-1.7-0.3-2.7-0.3c-0.9,0-1.8,0.1-2.6,0.3c-0.8,0.2-1.4,0.6-2,1.2c-0.6,0.5-1,1.2-1.3,2.1c-0.3,0.9-0.5,1.9-0.5,3.2
		c0,1.2,0.1,2.3,0.4,3.1c0.3,0.9,0.7,1.6,1.3,2.1c0.6,0.5,1.2,0.9,2,1.2c0.8,0.2,1.6,0.4,2.5,0.4c0.4,0,0.7,0,1,0
		c0.3,0,0.6-0.1,0.7-0.1V74.2z"/>
	<path class="st1" d="M309.4,76.5c0,1.8,0.4,3.1,1.2,3.8c0.8,0.7,2.2,1.1,4.2,1.1c0.8,0,1.8,0,2.8-0.1c1-0.1,1.9-0.2,2.7-0.3
		c0.1,0.4,0.2,0.8,0.3,1.2c0.1,0.4,0.1,0.8,0.1,1.2c0,0.8-0.1,1.5-0.2,2.2c-1.8,0.4-3.8,0.7-5.9,0.7c-1.9,0-3.6-0.2-4.9-0.5
		c-1.4-0.4-2.5-1-3.3-1.8c-0.9-0.8-1.5-1.9-1.9-3.2c-0.4-1.3-0.6-2.9-0.6-4.8V63.1h16.3c0.2,0.7,0.3,1.5,0.3,2.4
		c0,1-0.1,1.8-0.3,2.5h-10.6v4.1h8.9c0.1,0.3,0.2,0.7,0.2,1.1c0,0.4,0.1,0.8,0.1,1.1c0,0.3,0,0.7-0.1,1.1c0,0.4-0.1,0.8-0.2,1.1
		H309.4z"/>
	<path class="st1" d="M328.6,76c-1.6-0.5-2.9-1.2-3.8-2.2c-0.9-1-1.4-2.3-1.4-4c0-1.1,0.2-2.1,0.7-2.9c0.4-0.9,1.1-1.6,1.9-2.3
		c0.8-0.6,1.8-1.1,2.9-1.4c1.1-0.3,2.4-0.5,3.8-0.5c0.6,0,1.1,0,1.8,0.1c0.6,0.1,1.2,0.1,1.9,0.2c0.6,0.1,1.2,0.2,1.7,0.3
		c0.5,0.1,1,0.3,1.4,0.4c-0.1,0.8-0.3,1.7-0.5,2.6c-0.2,0.9-0.5,1.6-0.8,2.2c-0.9-0.3-1.8-0.6-2.9-0.8c-1.1-0.2-2-0.3-2.8-0.3
		c-1,0-1.7,0.2-2.3,0.5c-0.6,0.3-0.9,0.8-0.9,1.5c0,0.6,0.2,1,0.7,1.4c0.5,0.3,1.1,0.6,1.7,0.8l3,0.9c1.8,0.5,3.2,1.3,4.1,2.3
		c0.9,1,1.4,2.3,1.4,4.1c0,2.4-0.9,4.2-2.7,5.6c-1.8,1.3-4.3,2-7.4,2c-1.3,0-2.6-0.1-3.9-0.3c-1.3-0.2-2.4-0.5-3.2-0.7
		c0.1-0.9,0.3-1.8,0.5-2.6c0.3-0.9,0.5-1.6,0.8-2.1c0.4,0.1,0.7,0.3,1.2,0.4c0.5,0.1,0.9,0.2,1.5,0.4c0.5,0.1,1.1,0.2,1.6,0.3
		c0.5,0.1,1.1,0.1,1.6,0.1c1.2,0,2.1-0.2,2.9-0.5c0.8-0.4,1.2-0.9,1.2-1.7c0-0.7-0.3-1.2-0.8-1.6c-0.6-0.4-1.3-0.7-2.2-1L328.6,76z"
		/>
	<path class="st0" d="M99.7,31.1c2.8-0.6,5.9-0.9,9.2-0.9c3.3,0,6.4,0.3,9.2,0.9c0.6,2.8,1,5.9,1,9.2c0,3.3-0.3,6.4-1,9.2
		c-2.8,0.6-5.9,1-9.2,1c-3.3,0-6.4-0.3-9.2-1c-0.6-2.8-0.9-5.9-0.9-9.2C98.8,37,99.1,33.9,99.7,31.1"/>
	<path class="st1" d="M81.3,49.5c2.8-0.6,5.9-0.9,9.2-0.9c3.3,0,6.4,0.3,9.2,0.9c0.6,2.8,1,5.9,1,9.2c0,3.3-0.3,6.4-1,9.2
		c-2.8,0.6-5.9,1-9.2,1c-3.3,0-6.4-0.3-9.2-1c-0.6-2.8-0.9-5.9-0.9-9.2C80.3,55.4,80.7,52.3,81.3,49.5"/>
	<path class="st2" d="M62.9,67.9c2.8-0.6,5.9-0.9,9.2-0.9c3.3,0,6.4,0.3,9.2,0.9c0.6,2.8,1,5.9,1,9.2c0,3.3-0.3,6.4-1,9.2
		c-2.8,0.6-5.9,1-9.2,1c-3.3,0-6.4-0.3-9.2-1c-0.6-2.8-0.9-5.9-0.9-9.2C61.9,73.9,62.2,70.7,62.9,67.9"/>
	<path class="st0" d="M81.3,31.1c0.6,2.8,0.9,5.9,0.9,9.2c0,3.3-0.3,6.4-0.9,9.2c-2.8,0.6-5.9,1-9.2,1c-3.3,0-6.4-0.3-9.2-1
		c-0.6-2.8-1-5.9-1-9.2c0-3.3,0.3-6.4,1-9.2c2.8-0.6,5.9-0.9,9.2-0.9C75.4,30.1,78.5,30.5,81.3,31.1"/>
</g>
</svg>
