<?xml version="1.0" encoding="utf-8"?>
<!-- Generator: Adobe Illustrator 28.0.0, SVG Export Plug-In . SVG Version: 6.00 Build 0)  -->
<svg version="1.1" id="Layer_1" xmlns="http://www.w3.org/2000/svg" xmlns:xlink="http://www.w3.org/1999/xlink" x="0px" y="0px"
	 viewBox="0 0 400 120" style="enable-background:new 0 0 400 120;" xml:space="preserve">
<style type="text/css">
	.st0{fill:#FA383D;}
	.st1{fill:#001445;}
</style>
<g>
	<path class="st0" d="M73.7,75.2h19.1V62.7l-9.6-11.3l-9.5,11.3L73.7,75.2L73.7,75.2L73.7,75.2z M83.2,51.4
		c-0.5-7.8-7-14.1-14.9-14.1c-8.3,0-15,6.7-15,15c0,4,1.6,7.7,4.2,10.4l9.9-11.3H83.2L83.2,51.4z"/>
	<path class="st1" d="M105.9,75.1h7.4V63.7c0-3.7,1.6-6.1,4.5-6.1c2.6,0,3.8,1.7,3.8,5.1v12.4h7.4V60.7c0-5.8-3-8.9-8-8.9
		c-4.2,0-6.8,2.2-7.7,5.6v-5h-7.4V75.1L105.9,75.1z M167.7,52.3v-5.6h-4.8l-0.6,2.3c-0.6,2.1-1.3,3.3-3.5,3.7l-1.7,0.3v4.5h3.2V69
		c0,5.1,3.3,6.7,7.1,6.7c3,0,4.9-0.7,6.7-2v-4.7c-1.4,0.6-2.6,0.9-3.7,0.9c-1.8,0-2.7-0.8-2.7-2.8v-9.7h6.1v-5.2L167.7,52.3
		L167.7,52.3L167.7,52.3z M177,46.2c0-2.4,1.7-4.1,4.1-4.1c2.4,0,4.1,1.7,4.1,4.1c0,2.4-1.7,4.1-4.1,4.1
		C178.7,50.3,177,48.6,177,46.2 M184.8,75.1h-7.4V52.3h7.4V75.1z M279.3,46.2c0-2.4,1.7-4.1,4.1-4.1c2.4,0,4.1,1.7,4.1,4.1
		c0,2.4-1.7,4.1-4.1,4.1C280.9,50.3,279.3,48.6,279.3,46.2 M287.1,75.1h-7.4V52.3h7.4L287.1,75.1L287.1,75.1z"/>
	<path class="st1" d="M200.3,70.1c-3.1,0-5.1-2.3-5.1-6.2s2-6.5,5.1-6.5c3.1,0,5.3,2.6,5.3,6.5S203.4,70.1,200.3,70.1 M200.3,51.7
		c-7.5,0-12.4,5-12.4,12.2s4.9,11.9,12.4,11.9c7.5,0,12.5-4.7,12.5-11.9S207.8,51.7,200.3,51.7"/>
	<path class="st1" d="M266.4,67.2h-0.2l-3.8-14.9h-7l-3.8,14.9h-0.2l-4-14.9h-7.4l6.7,22.8h7.9l3.8-14.8h0.2l3.8,14.8h7.9l6.8-22.8
		h-6.7L266.4,67.2L266.4,67.2L266.4,67.2z M222.9,75.1h-7.4V52.3h7.4v5c0.9-3.4,3.6-5.6,7.7-5.6c5,0,8,3.1,8,8.9v14.5h-7.4V62.8
		c0-3.4-1.2-5.1-3.8-5.1c-2.9,0-4.5,2.4-4.5,6.1V75.1L222.9,75.1z"/>
	<path class="st1" d="M138.9,68.6c0-1.8,1.4-2.4,3.8-2.8l3.8-0.7V66c0,3.2-2.2,4.8-4.9,4.8C140,70.8,138.9,70,138.9,68.6L138.9,68.6
		z M140.1,62.2c-5.1,0.8-8.4,2.8-8.4,7.2c0,3.9,2.9,6.2,7.5,6.2c3.6,0,6.4-1.4,7.7-4c0.7,2.6,2.7,4,5.4,4c2.3,0,3.7-0.7,4.9-1.5v-4
		c-0.6,0.3-1.3,0.4-1.9,0.4c-0.9,0-1.4-0.5-1.4-1.7v-8.3c0-6.2-4.3-8.9-10.3-8.9c-6,0-9.7,3-10.8,7.4l6.7,1.4
		c0.4-1.9,1.5-3.2,3.7-3.2c2.3,0,3.4,1.3,3.4,3.5v0.5L140.1,62.2L140.1,62.2z M325.9,61.4h9.2c-0.2-2.3-1.6-4.3-4.4-4.3
		C327.8,57.1,326.4,59,325.9,61.4 M341.8,69.1c-1.6,4.3-5.4,6.7-10.8,6.7c-7.3,0-12.4-4.4-12.4-11.7s5.3-12.4,12.3-12.4
		c7.6,0,11.6,5.2,11.6,11.4v2.3h-16.5c0.2,3,2.5,4.8,5.4,4.8c2.4,0,4-0.8,4.8-2.7L341.8,69.1L341.8,69.1L341.8,69.1z M303.1,57.6
		c3.1,0,5.2,2.3,5.2,5.9V64c0,3.6-2.1,6-5.2,6s-5.3-2.4-5.3-6.2C297.8,59.9,299.9,57.6,303.1,57.6L303.1,57.6z M300.7,51.7
		c-6,0-10.4,4.6-10.4,12c0,7.4,4.4,12,10.4,12c3.2,0,6.4-1.7,7.6-4.7v4.1h7.5V42.9h-7.5v13.5C307.1,53.5,303.9,51.7,300.7,51.7"/>
</g>
</svg>
