<?xml version="1.0" encoding="utf-8"?>
<!-- Generator: Adobe Illustrator 28.0.0, SVG Export Plug-In . SVG Version: 6.00 Build 0)  -->
<svg version="1.1" id="Layer_1" xmlns="http://www.w3.org/2000/svg" xmlns:xlink="http://www.w3.org/1999/xlink" x="0px" y="0px"
	 viewBox="0 0 400 120" style="enable-background:new 0 0 400 120;" xml:space="preserve">
<style type="text/css">
	.st0{clip-path:url(#SVGID_00000039126472458610285390000013066059791191315099_);fill:#29337A;}
	.st1{clip-path:url(#SVGID_00000039126472458610285390000013066059791191315099_);fill:#1761AB;}
	.st2{clip-path:url(#SVGID_00000039126472458610285390000013066059791191315099_);fill:#52BAEB;}
	.st3{clip-path:url(#SVGID_00000039126472458610285390000013066059791191315099_);fill:#0F5499;}
	.st4{clip-path:url(#SVGID_00000039126472458610285390000013066059791191315099_);fill:#243059;}
	.st5{fill:#FFFFFF;}
	.st6{clip-path:url(#SVGID_00000124883689301554989880000007782460629841247419_);fill:#FFFFFF;}
</style>
<g>
	<g>
		<defs>
			<rect id="SVGID_1_" x="103.1" y="24.1" width="195.7" height="71.8"/>
		</defs>
		<clipPath id="SVGID_00000086688168616827564060000015122418606277578923_">
			<use xlink:href="#SVGID_1_"  style="overflow:visible;"/>
		</clipPath>
		<path style="clip-path:url(#SVGID_00000086688168616827564060000015122418606277578923_);fill:#29337A;" d="M262.8,24.1
			c-13.2,0-24.7,7.1-31,17.7c3.1,5.3,5,11.6,5,18.2c0,6.6-1.8,12.9-5,18.2c6.2,10.6,17.8,17.7,31,17.7c19.8,0,35.9-16.1,35.9-35.9
			C298.7,40.2,282.7,24.1,262.8,24.1"/>
		<path style="clip-path:url(#SVGID_00000086688168616827564060000015122418606277578923_);fill:#1761AB;" d="M231.9,41.8
			c-6.2-10.6-17.8-17.7-31-17.7c-13.2,0-24.7,7.1-31,17.7c3.1,5.3,5,11.6,5,18.2c0,6.6-1.8,12.9-5,18.2c6.2,10.6,17.8,17.7,31,17.7
			c13.2,0,24.7-7.1,31-17.7c-3.2-5.3-5-11.6-5-18.2C226.9,53.3,228.7,47.1,231.9,41.8"/>
		<path style="clip-path:url(#SVGID_00000086688168616827564060000015122418606277578923_);fill:#52BAEB;" d="M169.9,41.8
			c-6.2-10.6-17.8-17.7-31-17.7c-19.8,0-35.9,16.1-35.9,35.9c0,19.8,16.1,35.9,35.9,35.9c13.2,0,24.7-7.1,31-17.7
			c-3.1-5.3-5-11.6-5-18.2C165,53.3,166.8,47.1,169.9,41.8"/>
		<path style="clip-path:url(#SVGID_00000086688168616827564060000015122418606277578923_);fill:#0F5499;" d="M169.9,78.2
			c3.1-5.3,5-11.6,5-18.2c0-6.7-1.8-12.9-5-18.2c-3.1,5.3-5,11.6-5,18.2C165,66.6,166.8,72.9,169.9,78.2"/>
		<path style="clip-path:url(#SVGID_00000086688168616827564060000015122418606277578923_);fill:#0F5499;" d="M169.9,41.8
			c-3.2,5.5-5,11.8-5,18.2c0,6.4,1.7,12.7,5,18.2c3.2-5.5,5-11.8,5-18.2C174.9,53.6,173.2,47.3,169.9,41.8 M169.9,78.2L169.9,78.2
			c-3.2-5.5-5-11.8-5-18.2c0-6.4,1.7-12.7,5-18.2l0,0l0,0c3.2,5.5,5,11.8,5,18.2C174.9,66.4,173.2,72.7,169.9,78.2L169.9,78.2z"/>
		<path style="clip-path:url(#SVGID_00000086688168616827564060000015122418606277578923_);fill:#243059;" d="M231.9,78.2
			c3.1-5.3,5-11.6,5-18.2c0-6.7-1.8-12.9-5-18.2c-3.2,5.3-5,11.6-5,18.2C226.9,66.6,228.7,72.9,231.9,78.2"/>
	</g>
	<polygon class="st5" points="152.5,47.4 142,47.4 142,79.4 134.8,79.4 134.8,47.4 124.6,47.4 124.6,40.9 152.5,40.9 	"/>
	<g>
		<defs>
			<rect id="SVGID_00000098916390572487189210000015444834953655366021_" x="103.1" y="24.1" width="195.7" height="71.8"/>
		</defs>
		<clipPath id="SVGID_00000168799059694724926390000003909480127107069572_">
			<use xlink:href="#SVGID_00000098916390572487189210000015444834953655366021_"  style="overflow:visible;"/>
		</clipPath>
		<path style="clip-path:url(#SVGID_00000168799059694724926390000003909480127107069572_);fill:#FFFFFF;" d="M257.5,61.8v11.4h6.9
			c4.3,0,5.4,0,7.3-1.3c1-0.7,1.7-2.2,1.7-4c0-0.9-0.2-1.9-0.7-2.9c-1.7-3.1-5.8-3.2-8.2-3.2H257.5z M257.5,46.8v9.6h2.2
			c2,0,3.5,0,4.4-0.1c1.8,0,3.6-0.1,4.9-0.8c1.5-0.8,2.6-2.2,2.6-4c0-1.5-0.8-2.9-2.2-3.8c-1.5-0.9-2.3-0.9-7.5-1H257.5z
			 M250.3,40.9h13.5c5.1,0,6.5,0.1,8.4,0.7c3.9,1.1,6.6,4.6,6.6,8.8c0,1.7-0.4,3.8-1.5,5.2c-1.2,1.6-2.7,2.4-4.8,2.8
			c4.3,0.8,8,4.2,8,10.2c0,4.4-2,8.4-6.6,10c-2.5,0.9-4.4,0.9-8.7,0.9h-14.8V40.9z"/>
		<path style="clip-path:url(#SVGID_00000168799059694724926390000003909480127107069572_);fill:#FFFFFF;" d="M204.6,56.6l-4-0.9
			c-3.5-0.7-7-1.3-7-4.6c0-2.9,3.4-4.7,7.2-4.7c5.8,0,8.3,3.4,9.7,5.4l5.7-4.5c-2.7-3.6-7-7.3-15-7.3c-9,0-15.1,4.7-15.1,11.9
			c0,6.3,4.7,8.7,6.5,9.4c1.2,0.5,2.4,0.8,4.8,1.4l4.6,1c3.5,0.8,3.6,0.9,4.4,1.2c1.2,0.5,2.9,1.4,2.9,3.8c0,1.3-0.5,3.3-3.3,4.4
			c-1.4,0.5-2.8,0.7-4.1,0.7c-7.7,0-10.6-4-11.7-5.6l-5.8,4.4c2.9,4.4,7.1,6.1,9.6,6.8c2.3,0.7,4.7,0.9,6.8,0.9
			c8.1,0,16.3-3.5,16.3-12.3C217,59.8,209.8,57.7,204.6,56.6"/>
	</g>
</g>
</svg>
