<?xml version="1.0" encoding="UTF-8"?><svg id="svg32" xmlns="http://www.w3.org/2000/svg" viewBox="0 0 330 82"><defs><style>.cls-1{fill:#b5024c;}.cls-2{fill:#757674;}</style></defs><path id="Fill-1" class="cls-1" d="M11.9,46.6h4.7c3.6,0,6.5-.5,8.5-1.4,5.9-2.7,7.4-8.6,7.4-17.2s-1.5-13.8-7-16.3c-2.2-1-5.3-1.4-9.3-1.4h-4.6c-1.6,0-2.4.8-2.4,2.7v30.8c.1,2,.8,2.8,2.7,2.8ZM8.1,54c-4.9,0-7.1-2.1-7.1-7.2V10.5c0-5.1,2.3-7.5,7.3-7.5h6.7c6,0,10.2.4,13.4,1.4,8.6,2.5,12.6,10.4,12.6,23.5,0,12.3-2.9,20.6-12.9,24.3-3.7,1.4-10,1.7-13.8,1.7h-6.2v.1Z"/><path id="Fill-2" class="cls-1" d="M63.2,38.2c-3.6,0-5.8.4-7.1,1.2-1.1.6-1.6,1.7-1.6,3.7,0,3.3,1.2,5.6,6.6,5.6,3.1,0,5.3-.4,6.6-.9.6-.3,1.1-.7,1.2-1.2.2-.6.3-1.5.3-2.4v-5.6c-1.5-.3-4-.4-6-.4ZM76.3,51.3c-.5.7-1.1,1.2-2.3,1.7-2.8,1.2-8.9,2.1-13.8,2.1-10.9-.1-13.2-5.5-13.2-11.7,0-4.3,1.2-7,4-8.8,2.3-1.4,6.6-2.2,11.3-2.2,2.2,0,5.1.1,6.9.3v-2.4c0-1.4-.1-3-.4-3.9-.6-1.5-1.9-2.5-6.6-2.5-2.3,0-5,.3-7.5.8-.9.1-2.4.4-2.9.4-.7,0-1.1-.4-1.4-1.2-.3-1.1-.6-2.9-.6-3.5,0-1.1.6-1.6,1.4-1.9,3.6-1.1,8.3-1.7,12-1.7,6.1,0,9.3.8,11.3,2.8,1.9,1.8,2.4,4.6,2.4,9.5v18.9c.1,1.3,0,2.5-.6,3.3h0Z"/><path id="Fill-3" class="cls-1" d="M90.3,54h-4.6c-1.1,0-1.6-.6-1.6-1.9v-27.3c0-2.4.5-3.3,1.9-4.5,2.1-1.6,8.5-3.4,13.7-3.4,2,0,3.4.1,4.2.4.6.2,1.1.7,1.1,1.6,0,1-.1,3.1-.4,4.2-.1.7-.8,1.1-1.6,1.1s-2.9-.1-3.8-.1c-2.4,0-4.6.4-5.9,1.1-.4.2-.9.5-1.1,1-.1.4-.3,1-.3,2v23.9c.1,1.2-.5,1.9-1.6,1.9"/><path id="Fill-4" class="cls-1" d="M119.6,45.8c.6,1,2,1.7,4.1,2,.9.1,1.3.7,1.3,1.6,0,1.1-.1,2.6-.3,3.2-.2,1-.8,1.4-2.1,1.4-6,0-8.7-1.6-10.3-4.1-.9-1.5-1.3-3.9-1.3-7.5V1.9C111,.8,111.4,0,112.7,0h4.6C118.6,0,118.9.6,118.9,1.9v39.6c0,2.1.2,3.3.7,4.3"/><path id="Fill-5" class="cls-1" d="M137.9,54h-4.6c-1.1,0-1.7-.6-1.7-1.9V19.9c0-1.1.4-1.9,1.7-1.9h4.7c1.3,0,1.7.7,1.7,1.9v32.3c-.1,1.2-.7,1.8-1.8,1.8ZM135.5,11.4c-2.6,0-4.5-1-4.5-4.6,0-3.4,1.7-4.8,4.5-4.8s4.5,1.1,4.5,4.7-1.5,4.7-4.5,4.7h0Z"/><path id="Fill-6" class="cls-1" d="M212.1,26.7c0-1.4-.4-1.9-1.1-2.2-1.2-.4-3.7-.7-5.5-.7-8,0-9.5,3.4-9.5,12.7,0,8.1,1.7,11.6,7.8,11.6,2.4,0,5-.2,6.8-1,.6-.3,1.1-.7,1.2-1.2.1-.3.2-.9.2-1.5v-17.7h.1ZM203.5,55c-10.4,0-15.4-4-15.4-18.2,0-15.5,5.5-19.7,17-19.7,4.7,0,9.1.4,12.8,1.5,1.4.4,2.2,1.5,2.2,3.4v29.4c0,3.4-.2,6.8-.9,9.5-2,7.3-10.4,10.2-24,10.2-1.4,0-2.1-.5-2.3-1.7-.1-.9-.2-2.4-.2-3,0-1.3.7-2.1,1.9-2.2,11.4-.5,14.7-2,16.2-4.4.9-1.4,1.2-3.2,1.2-5.2v-1.2c-1.9,1.2-5.1,1.6-8.5,1.6h0Z"/><path id="Fill-7" class="cls-1" d="M242.3,45.2c1,1.4,3.4,1.9,7.1,2.1,1.1.1,1.6.6,1.6,1.7,0,.8-.1,2.4-.1,3.4-.1,1.1-.8,1.6-2.1,1.6-7.2,0-11-.8-13.5-3.8-2-2.4-2.4-5.6-2.4-11.2v-14.6h-4.2c-1,0-1.7-.6-1.7-1.7v-3.2c0-1,.6-1.8,1.8-1.8h4.2s.1-2.6.3-7.7c.1-1.2.6-2,1.7-2h4.4c1.1,0,1.6.6,1.6,2.1v7.6h7c1.3,0,2.1.6,2.1,1.7v3.2c0,1.3-.8,1.8-1.9,1.8h-7.2v14.9c.1,3.1.4,4.8,1.3,5.9"/><path id="Fill-8" class="cls-1" d="M273.6,23.9c-5.7,0-8.6,2.1-8.6,11.9,0,10.5,2.4,12.4,8.4,12.4s8.7-1.6,8.7-12.1-2-12.2-8.5-12.2ZM273.3,55c-11.1,0-16.2-3.7-16.2-19s7-19,16.8-19c11,0,16.2,2.6,16.2,18.7-.1,15.3-5.2,19.3-16.8,19.3h0Z"/><path id="Fill-9" class="cls-1" d="M305.1,35.7c0-9.8,2.9-11.8,8.6-11.8,6.4,0,8.4,2,8.4,12.1v16.2c0,1.1.5,1.9,1.6,1.9h4.6c1.2,0,1.6-.7,1.6-1.9v-16.6c0-16.1-5.2-18.6-16.2-18.6-9.7,0-16.7,3.2-16.7,18.9h0v16.2c0,1.2.5,1.9,1.6,1.9h4.7c1.1,0,1.7-.7,1.7-1.9l.1-16.4"/><path id="Fill-10" class="cls-1" d="M155.8,35.8c0-9.8,3-11.9,8.7-11.9,6.5,0,8.5,2,8.5,12.2v16.3c0,1.2.5,1.9,1.7,1.9h4.7c1.2,0,1.7-.7,1.7-1.9v-16.7c0-16.2-5.3-18.8-16.4-18.8-9.8,0-16.9,3.2-16.9,19h0v16.4c0,1.2.5,1.9,1.7,1.9h4.7c1.2,0,1.7-.7,1.7-1.9l-.1-16.5"/><path id="Fill-12" class="cls-2" d="M2.1,75.5c0,.5.2.7.7.7h1.5c.9,0,1.5-.1,1.8-.2.6-.3,1-.8,1-1.9,0-.9-.4-1.4-1-1.7-.4-.2-1-.2-1.8-.2h-2.2v3.3ZM4.2,70.4c.8,0,1.4,0,1.7-.2.5-.2.9-.8.9-1.6,0-1.2-.5-1.5-1.1-1.7-.3-.1-.9-.1-1.5-.1h-1.5c-.4,0-.6.2-.6.7v3h2.1v-.1ZM1.8,78c-1.2,0-1.8-.5-1.8-1.9v-9.1c0-1.3.5-2,1.8-2h2.1c.6,0,1.5.1,2,.1,2,.2,3,1.2,3,3.1,0,1.6-.6,2.5-1.9,3,1.5.3,2.3,1.2,2.3,3,0,1.5-.5,2.8-1.9,3.4-.7.3-1.9.4-3.6.4H1.8Z"/><path id="Fill-14" class="cls-2" d="M15,69.5c0-.3.1-.5.4-.5h1.2c.3,0,.4.2.4.5v5.2c0,.5,0,.9.1,1.1.2.4.6.6,1.5.6s1.4-.1,1.8-.2c.1,0,.3-.1.4-.2s.1-.3.1-.5v-6c0-.3.1-.5.4-.5h1.2c.3,0,.4.2.4.5v6.9c0,.6-.2.9-.6,1.1-1.1.5-2.8.5-4,.5-2.1,0-2.8-.5-3.1-1.2-.2-.5-.2-1.2-.2-2v-5.3"/><path id="Fill-15" class="cls-2" d="M30.6,78h-1c-.2,0-.4-.1-.4-.5v-8.1c0-.3.1-.5.4-.5h1c.3,0,.4.2.4.5v8.1c-.1.3-.2.5-.4.5ZM30,67.4c-.6,0-1-.2-1-1.2,0-.8.4-1.2,1-1.2s1,.3,1,1.2c0,.8-.3,1.2-1,1.2h0Z"/><path id="Fill-16" class="cls-2" d="M39.5,75.9c.2.3.6.4,1.2.5.3,0,.4.2.4.4,0,.3,0,.7-.1.8-.1.3-.2.4-.6.4-1.7,0-2.5-.4-2.9-1.1-.3-.4-.4-1-.4-1.9v-10.5c0-.3.1-.5.5-.5h1.3c.4,0,.4.2.4.5v10.3c0,.5.1.8.2,1.1"/><path id="Fill-17" class="cls-2" d="M51.1,70.8c0-.4-.1-.5-.3-.6-.3-.1-.8-.2-1.3-.2-2,0-2.5.8-2.5,3.3,0,2.1.5,3,2,3,.6,0,1.2-.1,1.7-.3.1-.1.2-.2.3-.3,0-.1.1-.3.1-.5v-4.4ZM53,76.9c-.1.3-.3.4-.6.5-.7.3-2.2.6-3.4.6-2.7,0-3.9-1-3.9-4.7,0-4,1.4-5,4.3-5,.6,0,1.3.1,1.7.3v-4.1c0-.4.2-.5.5-.5h1.1c.3,0,.4.1.4.5v11.8c-.1.2-.1.4-.1.6h0Z"/><path id="Fill-18" class="cls-2" d="M60.6,78h-1c-.2,0-.4-.1-.4-.5v-8.1c0-.3.1-.5.4-.5h1c.3,0,.4.2.4.5v8.1c-.1.3-.2.5-.4.5ZM60,67.4c-.6,0-1-.2-1-1.2,0-.8.4-1.2,1-1.2s1,.3,1,1.2c0,.8-.3,1.2-1,1.2h0Z"/><path id="Fill-19" class="cls-2" d="M68.7,77.7h-1.2c-.3,0-.4-.2-.4-.5v-7.3c0-.6.2-1,.6-1.1,1.2-.5,3.2-.8,4.6-.8,1.8,0,2.4.4,2.7,1.2.2.5.2,1.1.2,1.8v6.2c0,.3-.1.5-.4.5h-1.2c-.3,0-.4-.2-.4-.5v-5.7c0-.4,0-.8-.1-1.1-.1-.4-.5-.6-1.4-.6-1,0-1.7.2-2,.3-.1,0-.3.1-.4.2s-.1.3-.1.5v6.3c-.1.4-.2.6-.5.6"/><path id="Fill-21" class="cls-2" d="M87,70.5c0-.4-.1-.5-.3-.6-.3-.1-1-.2-1.4-.2-2.1,0-2.5.9-2.5,3.3,0,2.1.4,3,2,3,.6,0,1.3-.1,1.8-.3.1-.1.3-.2.3-.3s.1-.2.1-.4v-4.5ZM84.7,77.9c-2.7,0-4-1.1-4-4.7,0-4,1.4-5.1,4.4-5.1,1.2,0,2.4.1,3.3.4.4.1.6.4.6.9v7.7c0,.9-.1,1.8-.2,2.5-.5,1.9-2.7,2.6-6.2,2.6-.4,0-.5-.1-.6-.4,0-.2-.1-.6-.1-.8,0-.3.2-.5.5-.6,3-.1,3.8-.5,4.2-1.1.2-.4.3-.8.3-1.4v-.3c-.5.2-1.3.3-2.2.3h0Z"/><path id="Fill-23" class="cls-2" d="M111,74.2c0,2.3-1.2,3.8-4.8,3.8-1.3,0-2.7-.2-3.8-.5-.3-.1-.4-.2-.4-.5,0-.2.1-.6.2-.9s.3-.4.5-.4c.1,0,.4.1.6.1.9.3,1.8.4,2.9.4,2.3,0,2.6-1,2.6-1.8s-.2-1.4-2-1.8l-1.7-.4c-1.9-.5-2.9-1.6-2.9-3.5,0-2.3,1.2-3.7,4.7-3.7,1,0,2.3.1,3.2.4.2.1.4.2.4.5,0,.2-.1.5-.2.9-.1.2-.2.4-.4.4s-.4-.1-.6-.1c-1-.2-1.9-.3-2.6-.3-1.9,0-2.3.8-2.3,1.8,0,.7.2,1.4,1.9,1.8l1.6.4c2.4.6,3.1,1.3,3.1,3.4"/><path id="Fill-24" class="cls-2" d="M120.1,69.8c-1.4,0-2.1.6-2.1,3.1,0,2.8.6,3.3,2,3.3s2.1-.4,2.1-3.2c0-2.6-.5-3.2-2-3.2ZM120,78c-2.7,0-3.9-1-3.9-5s1.7-5,4.1-5c2.7,0,3.9.7,3.9,4.9-.1,4-1.3,5.1-4.1,5.1h0Z"/><path id="Fill-25" class="cls-2" d="M133.3,76.2c.7,0,1.2-.1,1.7-.2.1,0,.4-.1.5-.1s.3.1.3.3c.1.3.2.7.2.9s-.1.4-.3.5c-.8.3-1.8.4-2.6.4-2.6,0-4-1.1-4-4.8,0-3.5,1.2-5.2,4.4-5.2.8,0,1.6.1,2.2.2.2.1.3.2.3.4s-.1.8-.2,1.1c-.1.2-.2.3-.3.3s-.4-.1-.5-.1c-.4-.1-.8-.1-1.4-.1-2,0-2.4,1.2-2.4,3.2-.1,2.1.3,3.2,2.1,3.2"/><path id="Fill-26" class="cls-2" d="M142.6,78h-1c-.2,0-.4-.1-.4-.5v-8.1c0-.3.1-.5.4-.5h1c.3,0,.4.2.4.5v8.1c-.1.3-.2.5-.4.5ZM142,67.4c-.6,0-1-.2-1-1.2,0-.8.4-1.2,1-1.2s1,.3,1,1.2c0,.8-.3,1.2-1,1.2h0Z"/><path id="Fill-27" class="cls-2" d="M155.1,72.1v-.4c0-1.3-.3-2-1.8-2s-2.1.9-2.1,2.4h3.9ZM153.7,76.2c1,0,1.5-.1,2.1-.2.2,0,.4-.1.5-.1.2,0,.3.1.4.3.1.2.2.7.2.9s-.1.3-.3.4c-.8.4-2,.5-3.1.5-3.3,0-4.4-1.5-4.4-5s1.5-5,4.3-5c3.4,0,3.7,2,3.7,4.9,0,.3,0,.5-.2.6-.1.1-.2.1-.4.1h-5.3c0,2.2.9,2.6,2.5,2.6h0Z"/><path id="Fill-28" class="cls-2" d="M164.9,75.6c.3.3.9.5,1.8.6.3,0,.4.2.4.4v.9c0,.3-.2.4-.5.4-1.8,0-2.8-.2-3.4-1-.5-.6-.6-1.4-.6-2.9v-3.8h-1.1c-.2,0-.4-.1-.4-.4v-.8c0-.3.2-.5.5-.5h1.1s0-.7.1-2c0-.3.1-.5.4-.5h1.1c.3,0,.4.2.4.5v2h1.8c.3,0,.5.1.5.4v.8c0,.3-.2.5-.5.5h-1.8v3.8c-.1.9,0,1.3.2,1.6"/><path id="Fill-30" class="cls-2" d="M171.9,69c0-.3.1-.5.4-.5h1.2c.3,0,.4.2.4.5v5.6c0,.4,0,.8.1,1.1.1.4.5.6,1.5.6s1.6-.2,1.9-.3c.1,0,.3-.1.4-.2.1-.1.1-.3.1-.5v-6.3c0-.3.1-.5.4-.5h1.2c.3,0,.4.2.4.5v8.2c0,.9,0,1.6-.2,2.3-.5,1.9-2.6,2.6-6.2,2.6-.4,0-.5-.1-.6-.4,0-.3-.1-.7-.1-.8,0-.3.2-.5.5-.5,3.2-.1,4-.5,4.3-1.3.1-.4.2-.8.2-1.3v-.4c-.8.4-2,.6-3,.6-1.7,0-2.5-.4-2.7-1.2-.2-.5-.2-1.1-.2-1.8v-6"/><path id="Fill-32" class="cls-1" d="M323.1,61.5c.4-.4.7-.5,1.1-.5s1.4.7,2.1,1.2c.4.4.6.9.6,1.5,0,.7-.4,1.4-.9,2.2-3.5,6-12.1,15.1-32.4,15.1-18.6,0-27.7-8.2-32-15.1-.5-.9-.8-1.5-.8-2.2s.4-1,.8-1.5c.6-.6,1.4-1.2,1.9-1.2.4,0,.9.2,1.1.6,5.1,6.3,11.9,11.7,28.9,11.7,18.8.1,24.1-5.7,29.6-11.8"/></svg>