<?xml version="1.0" encoding="utf-8"?>
<!-- Generator: Adobe Illustrator 28.0.0, SVG Export Plug-In . SVG Version: 6.00 Build 0)  -->
<svg version="1.1" id="Layer_1" xmlns="http://www.w3.org/2000/svg" xmlns:xlink="http://www.w3.org/1999/xlink" x="0px" y="0px"
	 viewBox="0 0 400 120" style="enable-background:new 0 0 400 120;" xml:space="preserve">
<style type="text/css">
	.st0{fill:#FFDE00;}
	.st1{fill:#DB9C00;}
	.st2{fill:#2B294D;}
</style>
<polygon class="st0" points="152.1,10.9 152.1,33.3 183.8,10.9 "/>
<polygon class="st1" points="183.7,10.9 215.4,33.3 215.4,10.9 "/>
<g>
	<path class="st2" d="M151,98.3c0.3,0.4,0.7,0.7,1.1,1c0.4,0.3,0.9,0.6,1.5,0.9c0.6,0.3,1.2,0.5,1.9,0.6c0.7,0.2,1.4,0.2,2.3,0.2
		c0.9,0,1.7-0.1,2.5-0.4c0.8-0.3,1.5-0.6,2-1.1c0.6-0.5,1-1,1.4-1.7c0.3-0.6,0.5-1.3,0.5-2.1c0-0.9-0.1-1.6-0.4-2.2
		c-0.3-0.6-0.7-1.1-1.1-1.5c-0.5-0.4-1-0.8-1.6-1c-0.6-0.3-1.2-0.5-1.8-0.6c-1-0.2-1.9-0.5-2.5-0.9c-0.6-0.3-0.9-0.8-0.9-1.4
		c0-0.2,0.1-0.4,0.2-0.6c0.1-0.2,0.3-0.4,0.5-0.5c0.2-0.1,0.4-0.3,0.7-0.3c0.3-0.1,0.5-0.1,0.8-0.1c0.4,0,0.8,0.1,1.1,0.2
		c0.4,0.1,0.7,0.2,1,0.4c0.3,0.1,0.6,0.3,0.8,0.5c0.2,0.2,0.5,0.3,0.6,0.5l2.2-2.4c-0.2-0.2-0.4-0.4-0.7-0.6
		c-0.3-0.3-0.7-0.5-1.1-0.8c-0.5-0.2-1-0.4-1.7-0.6c-0.7-0.2-1.4-0.3-2.3-0.3c-1,0-1.9,0.1-2.7,0.4c-0.8,0.3-1.4,0.7-1.9,1.1
		c-0.5,0.5-0.9,1-1.1,1.6c-0.3,0.6-0.4,1.3-0.4,2c0,0.6,0.1,1.2,0.3,1.7c0.2,0.5,0.5,1,0.9,1.4c0.4,0.4,0.9,0.7,1.4,1
		c0.5,0.3,1.1,0.5,1.8,0.7c1.3,0.3,2.3,0.7,2.9,1c0.6,0.3,0.9,0.8,0.9,1.4c0,0.3-0.1,0.5-0.2,0.8c-0.1,0.2-0.3,0.4-0.6,0.6
		c-0.2,0.2-0.5,0.3-0.8,0.4c-0.3,0.1-0.6,0.1-0.9,0.1c-0.5,0-0.9-0.1-1.4-0.2c-0.4-0.1-0.8-0.3-1.2-0.5c-0.4-0.2-0.7-0.4-1-0.7
		c-0.3-0.2-0.6-0.5-0.8-0.7L151,98.3z M170.6,97.6c-0.4-0.2-0.7-0.4-0.9-0.7c-0.2-0.3-0.4-0.6-0.5-1c-0.1-0.4-0.2-0.8-0.2-1.2
		c0-0.4,0.1-0.8,0.2-1.2c0.1-0.4,0.3-0.7,0.5-1c0.2-0.3,0.5-0.5,0.9-0.7c0.4-0.2,0.8-0.3,1.2-0.3c0.4,0,0.8,0.1,1.2,0.3
		c0.3,0.2,0.6,0.4,0.9,0.7c0.2,0.3,0.4,0.6,0.5,1c0.1,0.4,0.2,0.8,0.2,1.2c0,0.4-0.1,0.8-0.2,1.2c-0.1,0.4-0.3,0.7-0.5,1
		c-0.2,0.3-0.5,0.5-0.9,0.7c-0.4,0.2-0.8,0.3-1.2,0.3C171.3,97.9,170.9,97.8,170.6,97.6 M165.9,97.2c0.3,0.8,0.7,1.4,1.3,2
		c0.5,0.6,1.2,1,2,1.4c0.8,0.3,1.6,0.5,2.6,0.5c0.9,0,1.8-0.2,2.6-0.5c0.8-0.3,1.4-0.8,2-1.4c0.6-0.6,1-1.2,1.3-2
		c0.3-0.8,0.5-1.6,0.5-2.4s-0.2-1.7-0.5-2.4c-0.3-0.8-0.7-1.4-1.3-2c-0.6-0.6-1.2-1-2-1.3c-0.8-0.3-1.6-0.5-2.6-0.5
		c-0.9,0-1.8,0.2-2.6,0.5c-0.8,0.3-1.4,0.8-2,1.3c-0.6,0.6-1,1.2-1.3,2c-0.3,0.8-0.5,1.6-0.5,2.4S165.6,96.4,165.9,97.2 M188.1,96.7
		c-0.3,0.3-0.6,0.5-1,0.8c-0.4,0.2-0.9,0.4-1.6,0.4c-0.4,0-0.8-0.1-1.2-0.3c-0.3-0.2-0.6-0.4-0.9-0.7c-0.2-0.3-0.4-0.6-0.5-1
		c-0.1-0.4-0.2-0.8-0.2-1.1c0-0.4,0.1-0.8,0.2-1.2c0.1-0.4,0.3-0.7,0.5-1c0.2-0.3,0.5-0.5,0.9-0.7c0.3-0.2,0.7-0.3,1.2-0.3
		c0.6,0,1.1,0.1,1.5,0.4c0.4,0.2,0.7,0.5,1,0.8l2.2-2.4c-0.5-0.6-1.2-1.1-2-1.4c-0.8-0.3-1.7-0.5-2.8-0.5c-0.9,0-1.8,0.2-2.5,0.5
		c-0.8,0.3-1.4,0.8-2,1.3c-0.6,0.6-1,1.2-1.3,2c-0.3,0.8-0.5,1.6-0.5,2.4c0,0.9,0.2,1.8,0.5,2.5c0.3,0.8,0.7,1.4,1.3,2
		c0.6,0.6,1.2,1,2,1.3c0.8,0.3,1.6,0.5,2.6,0.5c1.1,0,2-0.2,2.8-0.6c0.8-0.4,1.4-0.8,1.9-1.4L188.1,96.7z M191.9,87.2h3.9v-3.2h-3.9
		V87.2z M192,100.6h3.6V88.9H192V100.6z M207.5,97.1c-0.3,0.2-0.7,0.4-1.3,0.7c-0.6,0.3-1.3,0.4-2.3,0.4c-0.9,0-1.7-0.2-2.2-0.7
		c-0.5-0.5-0.8-1-0.8-1.7h8.4v-0.6c0-1-0.1-1.9-0.4-2.7c-0.3-0.8-0.6-1.5-1.1-2.1c-0.5-0.6-1.1-1.1-1.8-1.4
		c-0.7-0.3-1.6-0.5-2.5-0.5c-1,0-1.8,0.2-2.6,0.5c-0.7,0.3-1.4,0.8-1.9,1.4c-0.5,0.6-0.9,1.2-1.2,2c-0.3,0.8-0.4,1.5-0.4,2.4
		c0,0.9,0.1,1.8,0.4,2.6c0.3,0.8,0.7,1.4,1.3,2c0.6,0.6,1.2,1,2,1.3c0.8,0.3,1.7,0.5,2.7,0.5c0.8,0,1.4-0.1,2-0.2
		c0.6-0.1,1.1-0.3,1.5-0.5c0.4-0.2,0.8-0.4,1-0.6c0.3-0.2,0.5-0.3,0.6-0.4L207.5,97.1z M200.8,93.5c0-0.3,0.1-0.5,0.2-0.8
		c0.1-0.3,0.3-0.5,0.5-0.7c0.2-0.2,0.5-0.4,0.8-0.5c0.3-0.1,0.7-0.2,1.1-0.2c0.4,0,0.8,0.1,1.1,0.2c0.3,0.1,0.6,0.3,0.7,0.5
		c0.2,0.2,0.4,0.5,0.5,0.7c0.1,0.3,0.2,0.5,0.2,0.8H200.8z M212.1,96.2c0,0.7,0.1,1.4,0.2,2c0.2,0.6,0.4,1.1,0.8,1.5
		c0.4,0.4,0.8,0.8,1.4,1c0.6,0.2,1.3,0.4,2.1,0.4c1.3,0,2.6-0.4,3.7-1.3l-1.5-2.2c-0.2,0.2-0.5,0.3-0.8,0.4s-0.6,0.2-1,0.2
		c-0.5,0-0.8-0.2-1.1-0.5c-0.2-0.3-0.3-0.7-0.3-1.3v-4.6h3v-2.8h-3v-3.6h-3.6v3.6h-1.9v2.8h1.9V96.2z M220.4,105
		c0.4,0.3,0.9,0.6,1.4,0.7c0.5,0.2,1.1,0.3,1.7,0.3c0.8,0,1.5-0.2,2-0.5c0.5-0.3,1-0.7,1.4-1.2c0.4-0.5,0.7-1.1,1-1.7
		c0.3-0.6,0.5-1.3,0.8-1.9l4.8-11.7h-3.8l-2.6,7.4l-2.9-7.4H220l5.4,11.6l-0.3,1c-0.2,0.6-0.5,1-0.7,1.2c-0.3,0.2-0.6,0.4-1,0.4
		c-0.3,0-0.5-0.1-0.8-0.2c-0.2-0.1-0.5-0.3-0.7-0.4L220.4,105z"/>
	<path class="st2" d="M152.1,78.4h6.3c1,0,1.9-0.1,2.7-0.3c0.8-0.2,1.5-0.5,2-0.8c0.6-0.4,1-0.9,1.3-1.5c0.3-0.6,0.5-1.3,0.5-2.2
		c0-0.7-0.1-1.2-0.4-1.7c-0.2-0.5-0.5-0.9-0.9-1.2c-0.4-0.3-0.7-0.6-1.1-0.8c-0.4-0.2-0.7-0.3-1-0.4c0.2-0.1,0.4-0.2,0.7-0.3
		c0.3-0.2,0.6-0.4,0.8-0.7c0.3-0.3,0.5-0.6,0.7-1.1C164,67,164,66.6,164,66c0-0.6-0.1-1.1-0.3-1.6c-0.2-0.5-0.5-1-1-1.4
		c-0.5-0.4-1-0.7-1.8-1c-0.7-0.2-1.6-0.4-2.6-0.4h-6.3V78.4z M155.8,68.3v-3.8h2.2c0.3,0,0.5,0,0.8,0.1c0.3,0.1,0.5,0.2,0.7,0.3
		c0.2,0.1,0.4,0.3,0.5,0.6c0.1,0.2,0.2,0.5,0.2,0.9c0,0.4-0.1,0.7-0.2,0.9c-0.1,0.2-0.3,0.4-0.5,0.6c-0.2,0.1-0.5,0.2-0.7,0.3
		c-0.3,0.1-0.6,0.1-0.8,0.1H155.8z M155.8,75.5v-4.4h2.5c0.3,0,0.6,0,0.9,0.1c0.3,0.1,0.6,0.2,0.9,0.3c0.3,0.2,0.5,0.4,0.7,0.7
		c0.2,0.3,0.3,0.7,0.3,1.1c0,0.5-0.1,0.9-0.3,1.2c-0.2,0.3-0.4,0.5-0.7,0.7c-0.3,0.2-0.6,0.2-0.9,0.3c-0.3,0-0.6,0.1-0.9,0.1H155.8z
		 M166.6,73.9c0,1.6,0.4,2.8,1.2,3.6c0.8,0.8,1.9,1.2,3.2,1.2c0.7,0,1.3-0.1,2-0.4c0.6-0.3,1.1-0.7,1.5-1.1l0.1,1.3h3.5V66.6h-3.6
		V73c0,0.3-0.1,0.7-0.1,1c-0.1,0.3-0.3,0.6-0.5,0.8c-0.2,0.2-0.4,0.4-0.7,0.6c-0.3,0.1-0.6,0.2-1,0.2c-0.6,0-1.1-0.2-1.4-0.6
		c-0.3-0.4-0.5-0.9-0.5-1.6v-6.8h-3.6V73.9z M180.2,64.9h3.9v-3.2h-3.9V64.9z M180.3,78.4h3.6V66.6h-3.6V78.4z M186.2,78.4h3.6V61.7
		h-3.6V78.4z M200.1,78.4h3.4V61.7h-3.6v5.1c-0.3-0.1-0.7-0.2-1-0.3c-0.3-0.1-0.8-0.1-1.3-0.1c-0.7,0-1.4,0.1-2.1,0.4
		c-0.7,0.3-1.4,0.6-2,1.2c-0.6,0.5-1.1,1.2-1.5,2c-0.4,0.8-0.6,1.7-0.6,2.8c0,0.9,0.1,1.8,0.4,2.5c0.3,0.7,0.6,1.4,1.1,1.9
		c0.5,0.5,1,0.9,1.6,1.2c0.6,0.3,1.3,0.4,2,0.4c0.7,0,1.4-0.1,2-0.4c0.6-0.3,1-0.7,1.4-1.1L200.1,78.4z M199.9,73.1
		c0,0.3,0,0.7-0.1,1c-0.1,0.3-0.2,0.6-0.4,0.8c-0.2,0.2-0.4,0.4-0.7,0.6c-0.3,0.1-0.6,0.2-1,0.2c-0.8,0-1.5-0.3-1.9-0.8
		c-0.4-0.5-0.6-1.2-0.6-2.1c0-1,0.3-1.8,0.8-2.4c0.5-0.6,1.2-0.9,2.1-0.9c0.4,0,0.8,0,1.1,0.1c0.3,0.1,0.6,0.2,0.8,0.3V73.1z
		 M205.6,64.9h3.9v-3.2h-3.9V64.9z M205.7,78.4h3.6V66.6h-3.6V78.4z M211.6,78.4h3.6v-6.3c0-0.3,0.1-0.7,0.2-1
		c0.1-0.3,0.3-0.6,0.5-0.8c0.2-0.2,0.4-0.4,0.8-0.6c0.3-0.1,0.6-0.2,1-0.2c0.6,0,1,0.2,1.4,0.6c0.3,0.4,0.5,0.9,0.5,1.6v6.8h3.6
		v-7.3c0-1.6-0.4-2.8-1.2-3.6c-0.8-0.8-1.9-1.2-3.2-1.2c-0.7,0-1.3,0.1-2,0.4c-0.6,0.3-1.1,0.7-1.5,1.1l-0.1-1.3h-3.5V78.4z
		 M225.6,82.4c0.7,0.4,1.4,0.8,2.2,1c0.8,0.2,1.7,0.3,2.8,0.3c1.9,0,3.3-0.5,4.4-1.4c1.1-0.9,1.6-2.4,1.6-4.3V67.2
		c-0.7-0.2-1.5-0.5-2.4-0.6c-0.9-0.2-1.8-0.3-2.8-0.3c-1,0-1.9,0.2-2.8,0.5c-0.8,0.3-1.5,0.7-2.1,1.3c-0.6,0.6-1.1,1.2-1.4,2
		c-0.3,0.8-0.5,1.6-0.5,2.6c0,0.8,0.1,1.6,0.4,2.3c0.2,0.7,0.6,1.3,1,1.8c0.4,0.5,1,0.9,1.7,1.2c0.7,0.3,1.4,0.4,2.2,0.4
		c1.2,0,2.3-0.3,3-1v0.8c0,0.9-0.2,1.5-0.7,2s-1.1,0.7-1.9,0.7c-0.6,0-1.2-0.1-1.7-0.2c-0.5-0.2-1-0.4-1.5-0.7L225.6,82.4z
		 M232.9,73.1c0,0.8-0.2,1.3-0.6,1.7c-0.4,0.4-1,0.5-1.7,0.5c-0.8,0-1.4-0.2-1.8-0.8c-0.4-0.5-0.6-1.2-0.6-2c0-0.4,0.1-0.8,0.2-1.2
		c0.1-0.4,0.3-0.7,0.6-1s0.6-0.5,1-0.7c0.4-0.2,0.8-0.3,1.3-0.3c0.4,0,0.7,0,0.9,0.1c0.2,0,0.5,0.1,0.7,0.2V73.1z"/>
	<path class="st2" d="M152.1,56.1h11.8v-3.4h-8V39.4h-3.8V56.1z M174.9,52.5c-0.3,0.2-0.7,0.4-1.3,0.7c-0.6,0.3-1.3,0.4-2.3,0.4
		c-1,0-1.7-0.2-2.2-0.7c-0.5-0.5-0.8-1-0.8-1.7h8.4v-0.6c0-1-0.1-1.9-0.4-2.7c-0.2-0.8-0.6-1.5-1.1-2.1c-0.5-0.6-1.1-1.1-1.8-1.4
		c-0.7-0.3-1.6-0.5-2.5-0.5c-1,0-1.8,0.2-2.6,0.5c-0.7,0.3-1.4,0.8-1.9,1.4c-0.5,0.6-0.9,1.2-1.2,2c-0.3,0.8-0.4,1.5-0.4,2.4
		c0,0.9,0.1,1.8,0.4,2.6c0.3,0.8,0.7,1.4,1.3,2c0.6,0.5,1.2,1,2,1.3c0.8,0.3,1.7,0.5,2.7,0.5c0.8,0,1.4-0.1,2-0.2
		c0.6-0.1,1.1-0.3,1.5-0.5c0.4-0.2,0.8-0.4,1-0.6c0.3-0.2,0.5-0.3,0.6-0.4L174.9,52.5z M168.3,49c0-0.3,0.1-0.5,0.2-0.8
		c0.1-0.3,0.3-0.5,0.5-0.7c0.2-0.2,0.5-0.4,0.8-0.5c0.3-0.1,0.7-0.2,1.1-0.2c0.4,0,0.8,0.1,1.1,0.2c0.3,0.1,0.6,0.3,0.7,0.5
		c0.2,0.2,0.4,0.5,0.5,0.7c0.1,0.3,0.2,0.5,0.2,0.8H168.3z M188.3,52.5c-0.3,0.2-0.7,0.4-1.3,0.7c-0.6,0.3-1.3,0.4-2.3,0.4
		c-1,0-1.7-0.2-2.2-0.7c-0.5-0.5-0.8-1-0.8-1.7h8.4v-0.6c0-1-0.1-1.9-0.4-2.7c-0.2-0.8-0.6-1.5-1.1-2.1c-0.5-0.6-1.1-1.1-1.8-1.4
		c-0.7-0.3-1.6-0.5-2.5-0.5c-1,0-1.8,0.2-2.6,0.5c-0.8,0.3-1.4,0.8-1.9,1.4c-0.5,0.6-0.9,1.2-1.2,2c-0.3,0.8-0.4,1.5-0.4,2.4
		c0,0.9,0.1,1.8,0.4,2.6c0.3,0.8,0.7,1.4,1.3,2c0.6,0.5,1.2,1,2,1.3c0.8,0.3,1.7,0.5,2.7,0.5c0.7,0,1.4-0.1,2-0.2
		c0.6-0.1,1.1-0.3,1.5-0.5c0.4-0.2,0.8-0.4,1-0.6c0.3-0.2,0.5-0.3,0.6-0.4L188.3,52.5z M181.7,49c0-0.3,0.1-0.5,0.2-0.8
		c0.1-0.3,0.3-0.5,0.5-0.7s0.5-0.4,0.8-0.5c0.3-0.1,0.7-0.2,1.1-0.2c0.4,0,0.8,0.1,1.1,0.2c0.3,0.1,0.5,0.3,0.7,0.5
		c0.2,0.2,0.3,0.5,0.4,0.7c0.1,0.3,0.2,0.5,0.2,0.8H181.7z M200.2,56.1h3.4V39.4H200v5.1c-0.3-0.1-0.7-0.2-1-0.3
		c-0.3-0.1-0.8-0.1-1.3-0.1c-0.7,0-1.4,0.1-2.1,0.4c-0.7,0.3-1.4,0.6-2,1.2c-0.6,0.5-1.1,1.2-1.5,2c-0.4,0.8-0.6,1.7-0.6,2.8
		c0,0.9,0.1,1.8,0.4,2.5s0.6,1.4,1.1,1.9c0.5,0.5,1,0.9,1.6,1.2c0.6,0.3,1.3,0.4,2,0.4c0.7,0,1.4-0.1,2-0.4c0.6-0.3,1-0.7,1.4-1.1
		L200.2,56.1z M200,50.8c0,0.3,0,0.7-0.1,1c-0.1,0.3-0.2,0.6-0.4,0.8c-0.2,0.2-0.4,0.4-0.7,0.6c-0.3,0.1-0.6,0.2-1,0.2
		c-0.8,0-1.5-0.3-1.9-0.8c-0.4-0.5-0.6-1.2-0.6-2.1c0-1,0.3-1.8,0.8-2.4c0.5-0.6,1.2-0.9,2.1-0.9c0.4,0,0.8,0,1.1,0.1
		c0.3,0.1,0.6,0.2,0.8,0.3V50.8z M205.2,54.8c0.6,0.6,1.3,1,2.3,1.3c0.9,0.3,1.9,0.4,3,0.4c0.6,0,1.3-0.1,1.9-0.2
		c0.6-0.1,1.2-0.4,1.7-0.7c0.5-0.3,0.9-0.7,1.2-1.2c0.3-0.5,0.4-1,0.4-1.7c0-1-0.3-1.7-0.8-2.3c-0.5-0.6-1.4-1-2.6-1.4
		c-0.9-0.2-1.6-0.4-2.1-0.6c-0.5-0.2-0.8-0.5-0.8-0.8c0-0.3,0.1-0.5,0.4-0.6c0.3-0.2,0.7-0.2,1.2-0.2c0.6,0,1.2,0.1,1.7,0.3
		c0.5,0.2,0.9,0.4,1.3,0.7l1.5-2.4c-0.6-0.4-1.3-0.8-2.1-1c-0.8-0.2-1.6-0.3-2.6-0.3c-0.7,0-1.4,0.1-2,0.3c-0.6,0.2-1.1,0.4-1.6,0.8
		c-0.4,0.3-0.8,0.7-1,1.2c-0.2,0.4-0.4,0.9-0.4,1.5c0,0.5,0.1,1,0.3,1.4c0.2,0.4,0.5,0.7,0.8,1c0.3,0.3,0.7,0.5,1.2,0.7
		c0.4,0.2,0.9,0.3,1.3,0.5c0.5,0.2,1,0.3,1.4,0.4c0.4,0.1,0.6,0.2,0.8,0.3c0.2,0.1,0.3,0.2,0.4,0.4c0.1,0.1,0.1,0.3,0.1,0.4
		c0,0.4-0.2,0.6-0.5,0.8c-0.4,0.1-0.8,0.2-1.3,0.2c-0.6,0-1.2-0.1-1.8-0.4c-0.6-0.2-1.1-0.5-1.5-0.9L205.2,54.8z"/>
</g>
</svg>
